<?xml version="1.0" encoding="utf-8"?>
<!DOCTYPE svg PUBLIC "-//W3C//DTD SVG 1.1 Tiny//EN" "http://www.w3.org/Graphics/SVG/1.1/DTD/svg11-tiny.dtd">
<svg version="1.1" baseProfile="tiny" id="openrndr-svg" xmlns="http://www.w3.org/2000/svg" xmlns:xlink="http://www.w3.org/1999/xlink" x="0px" y="0px" width="1280px" height="720px"><g >
<path fill="none" stroke="#000000" stroke-width="1.0" d="M 106.0, 24.0L1174.0, 24.0"/>
<path fill="none" stroke="#000000" stroke-width="1.0" d="M 106.0, 72.0L1174.0, 72.0"/>
<path fill="none" stroke="#000000" stroke-width="1.0" d="M 106.0, 120.0L359.61770978890604, 120.0"/>
<path fill="none" stroke="#000000" stroke-width="1.0" d="M 546.382290211094, 120.0L780.617709788906, 120.0"/>
<path fill="none" stroke="#000000" stroke-width="1.0" d="M 967.382290211094, 120.0L1174.0, 120.0"/>
<path fill="none" stroke="#000000" stroke-width="1.0" d="M 106.0, 168.0L328.70282003702795, 168.0"/>
<path fill="none" stroke="#000000" stroke-width="1.0" d="M 577.2971799629721, 168.0L749.7028200370279, 168.0"/>
<path fill="none" stroke="#000000" stroke-width="1.0" d="M 998.297179962972, 168.0L1174.0, 168.0"/>
<path fill="none" stroke="#000000" stroke-width="1.0" d="M 106.0, 216.0L320.5147877445667, 216.0"/>
<path fill="none" stroke="#000000" stroke-width="1.0" d="M 585.4852122554332, 216.0L741.5147877445667, 216.0"/>
<path fill="none" stroke="#000000" stroke-width="1.0" d="M 1006.4852122554332, 216.0L1174.0, 216.0"/>
<path fill="none" stroke="#000000" stroke-width="1.0" d="M 106.0, 264.0L330.25833713754776, 264.0"/>
<path fill="none" stroke="#000000" stroke-width="1.0" d="M 575.7416628624521, 264.0L751.2583371375476, 264.0"/>
<path fill="none" stroke="#000000" stroke-width="1.0" d="M 996.7416628624521, 264.0L1174.0, 264.0"/>
<path fill="none" stroke="#000000" stroke-width="1.0" d="M 106.0, 312.0L363.82325287397725, 312.0"/>
<path fill="none" stroke="#000000" stroke-width="1.0" d="M 542.1767471260225, 312.0L784.8232528739774, 312.0"/>
<path fill="none" stroke="#000000" stroke-width="1.0" d="M 963.1767471260226, 312.0L1174.0, 312.0"/>
<path fill="none" stroke="#000000" stroke-width="1.0" d="M 106.0, 360.0L1174.0, 360.0"/>
<path fill="none" stroke="#000000" stroke-width="1.0" d="M 106.0, 408.0L673.5, 408.0"/>
<path fill="none" stroke="#000000" stroke-width="1.0" d="M 1043.5, 408.0L1174.0, 408.0"/>
<path fill="none" stroke="#000000" stroke-width="1.0" d="M 106.0, 456.0L358.62173522434017, 456.0"/>
<path fill="none" stroke="#000000" stroke-width="1.0" d="M 547.3782647756599, 456.0L673.5, 456.0"/>
<path fill="none" stroke="#000000" stroke-width="1.0" d="M 1043.5, 456.0L1174.0, 456.0"/>
<path fill="none" stroke="#000000" stroke-width="1.0" d="M 106.0, 504.0L328.33719963266543, 504.0"/>
<path fill="none" stroke="#000000" stroke-width="1.0" d="M 577.6628003673345, 504.0L673.5, 504.0"/>
<path fill="none" stroke="#000000" stroke-width="1.0" d="M 1043.5, 504.0L1174.0, 504.0"/>
<path fill="none" stroke="#000000" stroke-width="1.0" d="M 106.0, 552.0L320.5332926416345, 552.0"/>
<path fill="none" stroke="#000000" stroke-width="1.0" d="M 585.4667073583654, 552.0L673.5, 552.0"/>
<path fill="none" stroke="#000000" stroke-width="1.0" d="M 1043.5, 552.0L1174.0, 552.0"/>
<path fill="none" stroke="#000000" stroke-width="1.0" d="M 106.0, 600.0L330.6709125615064, 600.0"/>
<path fill="none" stroke="#000000" stroke-width="1.0" d="M 575.3290874384936, 600.0L673.5, 600.0"/>
<path fill="none" stroke="#000000" stroke-width="1.0" d="M 1043.5, 600.0L1174.0, 600.0"/>
<path fill="none" stroke="#000000" stroke-width="1.0" d="M 106.0, 648.0L364.9340014398124, 648.0"/>
<path fill="none" stroke="#000000" stroke-width="1.0" d="M 541.0659985601876, 648.0L673.5, 648.0"/>
<path fill="none" stroke="#000000" stroke-width="1.0" d="M 1043.5, 648.0L1174.0, 648.0"/>
<path fill="none" stroke="#000000" stroke-width="1.0" d="M 106.0, 696.0L1174.0, 696.0"/>
</g>
</svg>