<?xml version="1.0" encoding="utf-8"?>
<!DOCTYPE svg PUBLIC "-//W3C//DTD SVG 1.1 Tiny//EN" "http://www.w3.org/Graphics/SVG/1.1/DTD/svg11-tiny.dtd">
<svg version="1.1" baseProfile="tiny" id="openrndr-svg" xmlns="http://www.w3.org/2000/svg" xmlns:xlink="http://www.w3.org/1999/xlink" x="0px" y="0px" width="1280px" height="720px"><g >
<path fill="none" stroke="#000000" stroke-width="1.0" d="M 106.0, 12.0L1174.0, 12.0"/>
<path fill="none" stroke="#000000" stroke-width="1.0" d="M 106.0, 36.0L1174.0, 36.0"/>
<path fill="none" stroke="#000000" stroke-width="1.0" d="M 106.0, 60.0L1174.0, 60.0"/>
<path fill="none" stroke="#000000" stroke-width="1.0" d="M 106.0, 84.0L427.25254826838955, 84.0"/>
<path fill="none" stroke="#000000" stroke-width="1.0" d="M 478.74745173161034, 84.0L848.2525482683898, 84.0"/>
<path fill="none" stroke="#000000" stroke-width="1.0" d="M 899.7474517316106, 84.0L1174.0, 84.0"/>
<path fill="none" stroke="#000000" stroke-width="1.0" d="M 106.0, 108.0L373.4870770131572, 108.0"/>
<path fill="none" stroke="#000000" stroke-width="1.0" d="M 532.5129229868428, 108.0L794.4870770131573, 108.0"/>
<path fill="none" stroke="#000000" stroke-width="1.0" d="M 953.5129229868427, 108.0L1174.0, 108.0"/>
<path fill="none" stroke="#000000" stroke-width="1.0" d="M 106.0, 132.0L348.9149025072325, 132.0"/>
<path fill="none" stroke="#000000" stroke-width="1.0" d="M 557.0850974927675, 132.0L769.9149025072325, 132.0"/>
<path fill="none" stroke="#000000" stroke-width="1.0" d="M 978.0850974927675, 132.0L1174.0, 132.0"/>
<path fill="none" stroke="#000000" stroke-width="1.0" d="M 106.0, 156.0L333.83533830128357, 156.0"/>
<path fill="none" stroke="#000000" stroke-width="1.0" d="M 572.1646616987164, 156.0L754.8353383012836, 156.0"/>
<path fill="none" stroke="#000000" stroke-width="1.0" d="M 993.1646616987164, 156.0L1174.0, 156.0"/>
<path fill="none" stroke="#000000" stroke-width="1.0" d="M 106.0, 180.0L324.90274803003985, 180.0"/>
<path fill="none" stroke="#000000" stroke-width="1.0" d="M 581.0972519699602, 180.0L745.9027480300398, 180.0"/>
<path fill="none" stroke="#000000" stroke-width="1.0" d="M 1002.0972519699602, 180.0L1174.0, 180.0"/>
<path fill="none" stroke="#000000" stroke-width="1.0" d="M 106.0, 204.0L320.8716933190046, 204.0"/>
<path fill="none" stroke="#000000" stroke-width="1.0" d="M 585.1283066809954, 204.0L741.8716933190045, 204.0"/>
<path fill="none" stroke="#000000" stroke-width="1.0" d="M 1006.1283066809953, 204.0L1174.0, 204.0"/>
<path fill="none" stroke="#000000" stroke-width="1.0" d="M 106.0, 228.0L321.23083358445444, 228.0"/>
<path fill="none" stroke="#000000" stroke-width="1.0" d="M 584.7691664155454, 228.0L742.2308335844544, 228.0"/>
<path fill="none" stroke="#000000" stroke-width="1.0" d="M 1005.7691664155456, 228.0L1174.0, 228.0"/>
<path fill="none" stroke="#000000" stroke-width="1.0" d="M 106.0, 252.0L326.0295925856158, 252.0"/>
<path fill="none" stroke="#000000" stroke-width="1.0" d="M 579.9704074143841, 252.0L747.0295925856157, 252.0"/>
<path fill="none" stroke="#000000" stroke-width="1.0" d="M 1000.9704074143843, 252.0L1174.0, 252.0"/>
<path fill="none" stroke="#000000" stroke-width="1.0" d="M 106.0, 276.0L335.870739611632, 276.0"/>
<path fill="none" stroke="#000000" stroke-width="1.0" d="M 570.1292603883679, 276.0L756.870739611632, 276.0"/>
<path fill="none" stroke="#000000" stroke-width="1.0" d="M 991.1292603883678, 276.0L1174.0, 276.0"/>
<path fill="none" stroke="#000000" stroke-width="1.0" d="M 106.0, 300.0L352.1986041495439, 300.0"/>
<path fill="none" stroke="#000000" stroke-width="1.0" d="M 553.8013958504562, 300.0L773.1986041495439, 300.0"/>
<path fill="none" stroke="#000000" stroke-width="1.0" d="M 974.801395850456, 300.0L1174.0, 300.0"/>
<path fill="none" stroke="#000000" stroke-width="1.0" d="M 106.0, 324.0L379.1091675039701, 324.0"/>
<path fill="none" stroke="#000000" stroke-width="1.0" d="M 526.8908324960299, 324.0L800.1091675039702, 324.0"/>
<path fill="none" stroke="#000000" stroke-width="1.0" d="M 947.89083249603, 324.0L1174.0, 324.0"/>
<path fill="none" stroke="#000000" stroke-width="1.0" d="M 106.0, 348.0L1174.0, 348.0"/>
<path fill="none" stroke="#000000" stroke-width="1.0" d="M 106.0, 372.0L1174.0, 372.0"/>
<path fill="none" stroke="#000000" stroke-width="1.0" d="M 106.0, 396.0L1174.0, 396.0"/>
<path fill="none" stroke="#000000" stroke-width="1.0" d="M 106.0, 420.0L422.61648761316644, 420.0"/>
<path fill="none" stroke="#000000" stroke-width="1.0" d="M 483.38351238683344, 420.0L673.5, 420.0"/>
<path fill="none" stroke="#000000" stroke-width="1.0" d="M 1043.5, 420.0L1174.0, 420.0"/>
<path fill="none" stroke="#000000" stroke-width="1.0" d="M 106.0, 444.0L372.17314507975993, 444.0"/>
<path fill="none" stroke="#000000" stroke-width="1.0" d="M 533.8268549202401, 444.0L673.5, 444.0"/>
<path fill="none" stroke="#000000" stroke-width="1.0" d="M 1043.5, 444.0L1174.0, 444.0"/>
<path fill="none" stroke="#000000" stroke-width="1.0" d="M 106.0, 468.0L348.1337082381489, 468.0"/>
<path fill="none" stroke="#000000" stroke-width="1.0" d="M 557.866291761851, 468.0L673.5, 468.0"/>
<path fill="none" stroke="#000000" stroke-width="1.0" d="M 1043.5, 468.0L1174.0, 468.0"/>
<path fill="none" stroke="#000000" stroke-width="1.0" d="M 106.0, 492.0L333.3529055471769, 492.0"/>
<path fill="none" stroke="#000000" stroke-width="1.0" d="M 572.647094452823, 492.0L673.5, 492.0"/>
<path fill="none" stroke="#000000" stroke-width="1.0" d="M 1043.5, 492.0L1174.0, 492.0"/>
<path fill="none" stroke="#000000" stroke-width="1.0" d="M 106.0, 516.0L324.64222082563674, 516.0"/>
<path fill="none" stroke="#000000" stroke-width="1.0" d="M 581.3577791743633, 516.0L673.5, 516.0"/>
<path fill="none" stroke="#000000" stroke-width="1.0" d="M 1043.5, 516.0L1174.0, 516.0"/>
<path fill="none" stroke="#000000" stroke-width="1.0" d="M 106.0, 540.0L320.8008481377469, 540.0"/>
<path fill="none" stroke="#000000" stroke-width="1.0" d="M 585.1991518622531, 540.0L673.5, 540.0"/>
<path fill="none" stroke="#000000" stroke-width="1.0" d="M 1043.5, 540.0L1174.0, 540.0"/>
<path fill="none" stroke="#000000" stroke-width="1.0" d="M 106.0, 564.0L321.3396760843135, 564.0"/>
<path fill="none" stroke="#000000" stroke-width="1.0" d="M 584.6603239156865, 564.0L673.5, 564.0"/>
<path fill="none" stroke="#000000" stroke-width="1.0" d="M 1043.5, 564.0L1174.0, 564.0"/>
<path fill="none" stroke="#000000" stroke-width="1.0" d="M 106.0, 588.0L326.3327768863833, 588.0"/>
<path fill="none" stroke="#000000" stroke-width="1.0" d="M 579.6672231136166, 588.0L673.5, 588.0"/>
<path fill="none" stroke="#000000" stroke-width="1.0" d="M 1043.5, 588.0L1174.0, 588.0"/>
<path fill="none" stroke="#000000" stroke-width="1.0" d="M 106.0, 612.0L336.4066821577572, 612.0"/>
<path fill="none" stroke="#000000" stroke-width="1.0" d="M 569.5933178422428, 612.0L673.5, 612.0"/>
<path fill="none" stroke="#000000" stroke-width="1.0" d="M 1043.5, 612.0L1174.0, 612.0"/>
<path fill="none" stroke="#000000" stroke-width="1.0" d="M 106.0, 636.0L353.0611903570265, 636.0"/>
<path fill="none" stroke="#000000" stroke-width="1.0" d="M 552.9388096429736, 636.0L673.5, 636.0"/>
<path fill="none" stroke="#000000" stroke-width="1.0" d="M 1043.5, 636.0L1174.0, 636.0"/>
<path fill="none" stroke="#000000" stroke-width="1.0" d="M 106.0, 660.0L380.6170046162424, 660.0"/>
<path fill="none" stroke="#000000" stroke-width="1.0" d="M 525.3829953837576, 660.0L673.5, 660.0"/>
<path fill="none" stroke="#000000" stroke-width="1.0" d="M 1043.5, 660.0L1174.0, 660.0"/>
<path fill="none" stroke="#000000" stroke-width="1.0" d="M 106.0, 684.0L1174.0, 684.0"/>
<path fill="none" stroke="#000000" stroke-width="1.0" d="M 106.0, 708.0L1174.0, 708.0"/>
</g>
</svg>