<?xml version="1.0" encoding="utf-8"?>
<!DOCTYPE svg PUBLIC "-//W3C//DTD SVG 1.1 Tiny//EN" "http://www.w3.org/Graphics/SVG/1.1/DTD/svg11-tiny.dtd">
<svg version="1.1" baseProfile="tiny" id="openrndr-svg" xmlns="http://www.w3.org/2000/svg" xmlns:xlink="http://www.w3.org/1999/xlink" x="0px" y="0px" width="1280px" height="720px"><g >
<path fill="none" stroke="#000000" stroke-width="1.0" d="M 674.5397268236409, 72.0L831.680720812536, 72.0"/>
<path fill="none" stroke="#000000" stroke-width="1.0" d="M 642.3424013942495, 120.0L862.2064133316107, 120.0"/>
<path fill="none" stroke="#000000" stroke-width="1.0" d="M 261.71823250379464, 120.1L421.89967851401593, 120.1"/>
<path fill="none" stroke="#000000" stroke-width="1.0" d="M 638.4427880307999, 168.0L875.165875080485, 168.0"/>
<path fill="none" stroke="#000000" stroke-width="1.0" d="M 237.604530931738, 168.1L419.86709445611837, 168.1"/>
<path fill="none" stroke="#000000" stroke-width="1.0" d="M 665.5153734813998, 216.0L898.780133272925, 216.0"/>
<path fill="none" stroke="#000000" stroke-width="1.0" d="M 230.8375077647078, 216.1L348.2853066131345, 216.1"/>
<path fill="none" stroke="#000000" stroke-width="1.0" d="M 633.7057846835619, 264.0L925.9203214435433, 264.0"/>
<path fill="none" stroke="#000000" stroke-width="1.0" d="M 233.8069537967607, 264.1L323.27198577434365, 264.1"/>
<path fill="none" stroke="#000000" stroke-width="1.0" d="M 339.21754807631226, 264.1L387.09631478570583, 264.1"/>
<path fill="none" stroke="#000000" stroke-width="1.0" d="M 403.7322664894384, 264.1L460.7572346515151, 264.1"/>
<path fill="none" stroke="#000000" stroke-width="1.0" d="M 691.9691246831169, 312.0L703.9078921527158, 312.0"/>
<path fill="none" stroke="#000000" stroke-width="1.0" d="M 729.3017897120671, 312.0L945.839597466472, 312.0"/>
<path fill="none" stroke="#000000" stroke-width="1.0" d="M 245.8970917712266, 312.1L317.21490443931793, 312.1"/>
<path fill="none" stroke="#000000" stroke-width="1.0" d="M 327.11778920743154, 312.1L343.978186484551, 312.1"/>
<path fill="none" stroke="#000000" stroke-width="1.0" d="M 655.256950233256, 360.0L956.1073284004104, 360.0"/>
<path fill="none" stroke="#000000" stroke-width="1.0" d="M 321.2999999999999, 360.1L370.8072402109001, 360.1"/>
<path fill="none" stroke="#000000" stroke-width="1.0" d="M 676.3799250503138, 408.0L692.9332645280896, 408.0"/>
<path fill="none" stroke="#000000" stroke-width="1.0" d="M 782.915934693235, 408.0L793.5414787093298, 408.0"/>
<path fill="none" stroke="#000000" stroke-width="1.0" d="M 801.1672972046952, 408.0L964.4749440000011, 408.0"/>
<path fill="none" stroke="#000000" stroke-width="1.0" d="M 595.8624728708826, 456.0L613.996329883258, 456.0"/>
<path fill="none" stroke="#000000" stroke-width="1.0" d="M 646.2564539991488, 456.0L658.2222552031564, 456.0"/>
<path fill="none" stroke="#000000" stroke-width="1.0" d="M 790.8551279706454, 456.0L801.656557672043, 456.0"/>
<path fill="none" stroke="#000000" stroke-width="1.0" d="M 811.4420104764095, 456.0L970.534098287501, 456.0"/>
<path fill="none" stroke="#000000" stroke-width="1.0" d="M 607.001254146428, 504.0L626.1244995830334, 504.0"/>
<path fill="none" stroke="#000000" stroke-width="1.0" d="M 840.0896739178587, 504.0L970.447524287501, 504.0"/>
<path fill="none" stroke="#000000" stroke-width="1.0" d="M 594.8596941639167, 552.0L614.3550469634617, 552.0"/>
<path fill="none" stroke="#000000" stroke-width="1.0" d="M 779.100000000001, 552.0L963.045054459342, 552.0"/>
<path fill="none" stroke="#000000" stroke-width="1.0" d="M 787.6484375000013, 600.0L857.8916098870309, 600.0"/>
<path fill="none" stroke="#000000" stroke-width="1.0" d="M 779.5237156056287, 648.0L815.5999180555552, 648.0"/>
<path fill="none" stroke="#000000" stroke-width="1.0" d="M 827.8162453799566, 648.0L881.4556255220198, 648.0"/>
</g>
</svg>