<?xml version="1.0" encoding="utf-8"?>
<!DOCTYPE svg PUBLIC "-//W3C//DTD SVG 1.1 Tiny//EN" "http://www.w3.org/Graphics/SVG/1.1/DTD/svg11-tiny.dtd">
<svg version="1.1" baseProfile="tiny" id="openrndr-svg" xmlns="http://www.w3.org/2000/svg" xmlns:xlink="http://www.w3.org/1999/xlink" x="0px" y="0px" width="1280px" height="720px"><g >
<path fill="none" stroke="#000000" stroke-width="1.0" d="M 0.0, 3.0L1280.0, 3.0"/>
<path fill="none" stroke="#000000" stroke-width="1.0" d="M 0.0, 9.0L1280.0, 9.0"/>
<path fill="none" stroke="#000000" stroke-width="1.0" d="M 0.0, 15.0L521.2021461404704, 15.0"/>
<path fill="none" stroke="#000000" stroke-width="1.0" d="M 527.6074134432889, 15.0L580.6055523314641, 15.0"/>
<path fill="none" stroke="#000000" stroke-width="1.0" d="M 624.8117647058823, 15.0L654.021568627451, 15.0"/>
<path fill="none" stroke="#000000" stroke-width="1.0" d="M 700.6, 15.0L1280.0, 15.0"/>
<path fill="none" stroke="#000000" stroke-width="1.0" d="M 0.0, 21.0L496.69016393442644, 21.0"/>
<path fill="none" stroke="#000000" stroke-width="1.0" d="M 528.8993024130092, 21.0L593.2944007174231, 21.0"/>
<path fill="none" stroke="#000000" stroke-width="1.0" d="M 610.7436632907836, 21.0L667.611250677676, 21.0"/>
<path fill="none" stroke="#000000" stroke-width="1.0" d="M 686.4472466667669, 21.0L749.416, 21.0"/>
<path fill="none" stroke="#000000" stroke-width="1.0" d="M 770.8787234042554, 21.0L1280.0, 21.0"/>
<path fill="none" stroke="#000000" stroke-width="1.0" d="M 0.0, 27.0L462.85409836065605, 27.0"/>
<path fill="none" stroke="#000000" stroke-width="1.0" d="M 499.30000000000007, 27.0L518.758483109001, 27.0"/>
<path fill="none" stroke="#000000" stroke-width="1.0" d="M 530.2981104824163, 27.0L594.0812943427778, 27.0"/>
<path fill="none" stroke="#000000" stroke-width="1.0" d="M 609.6945891836659, 27.0L668.8273842489539, 27.0"/>
<path fill="none" stroke="#000000" stroke-width="1.0" d="M 684.946539650178, 27.0L760.5055824384228, 27.0"/>
<path fill="none" stroke="#000000" stroke-width="1.0" d="M 803.6872340425533, 27.0L1280.0, 27.0"/>
<path fill="none" stroke="#000000" stroke-width="1.0" d="M 0.0, 33.0L433.3816707074051, 33.0"/>
<path fill="none" stroke="#000000" stroke-width="1.0" d="M 465.23333333333363, 33.0L474.1658682634732, 33.0"/>
<path fill="none" stroke="#000000" stroke-width="1.0" d="M 489.84443113772465, 33.0L524.2069567110611, 33.0"/>
<path fill="none" stroke="#000000" stroke-width="1.0" d="M 531.7688456832074, 33.0L594.0777777777778, 33.0"/>
<path fill="none" stroke="#000000" stroke-width="1.0" d="M 609.4802158273382, 33.0L668.8982014388489, 33.0"/>
<path fill="none" stroke="#000000" stroke-width="1.0" d="M 684.7014015227912, 33.0L761.9191082641337, 33.0"/>
<path fill="none" stroke="#000000" stroke-width="1.0" d="M 778.3476268088364, 33.0L801.2417810033822, 33.0"/>
<path fill="none" stroke="#000000" stroke-width="1.0" d="M 826.9783849488624, 33.0L1280.0, 33.0"/>
<path fill="none" stroke="#000000" stroke-width="1.0" d="M 0.0, 39.0L434.08867364942495, 39.0"/>
<path fill="none" stroke="#000000" stroke-width="1.0" d="M 446.2766275665201, 39.0L475.2293413173653, 39.0"/>
<path fill="none" stroke="#000000" stroke-width="1.0" d="M 490.90790419161686, 39.0L527.3850870746346, 39.0"/>
<path fill="none" stroke="#000000" stroke-width="1.0" d="M 533.2960500620484, 39.0L593.9825396825397, 39.0"/>
<path fill="none" stroke="#000000" stroke-width="1.0" d="M 609.3723021582733, 39.0L668.7902877697841, 39.0"/>
<path fill="none" stroke="#000000" stroke-width="1.0" d="M 684.6063492063493, 39.0L761.1950421605945, 39.0"/>
<path fill="none" stroke="#000000" stroke-width="1.0" d="M 777.2332467532469, 39.0L815.097870324385, 39.0"/>
<path fill="none" stroke="#000000" stroke-width="1.0" d="M 826.2594628062336, 39.0L1280.0, 39.0"/>
<path fill="none" stroke="#000000" stroke-width="1.0" d="M 0.0, 45.0L434.7168837857412, 45.0"/>
<path fill="none" stroke="#000000" stroke-width="1.0" d="M 443.103631436323, 45.0L476.2928143712576, 45.0"/>
<path fill="none" stroke="#000000" stroke-width="1.0" d="M 491.9713772455091, 45.0L593.8873015873016, 45.0"/>
<path fill="none" stroke="#000000" stroke-width="1.0" d="M 609.2643884892086, 45.0L668.6823741007194, 45.0"/>
<path fill="none" stroke="#000000" stroke-width="1.0" d="M 684.5111111111112, 45.0L760.1112759643918, 45.0"/>
<path fill="none" stroke="#000000" stroke-width="1.0" d="M 776.1267532467534, 45.0L817.4379517910828, 45.0"/>
<path fill="none" stroke="#000000" stroke-width="1.0" d="M 825.5736741749126, 45.0L1280.0, 45.0"/>
<path fill="none" stroke="#000000" stroke-width="1.0" d="M 0.0, 51.0L435.29808371318484, 51.0"/>
<path fill="none" stroke="#000000" stroke-width="1.0" d="M 442.06475551391054, 51.0L477.3562874251498, 51.0"/>
<path fill="none" stroke="#000000" stroke-width="1.0" d="M 493.0348502994013, 51.0L593.7920634920636, 51.0"/>
<path fill="none" stroke="#000000" stroke-width="1.0" d="M 609.1564748201439, 51.0L668.5744604316548, 51.0"/>
<path fill="none" stroke="#000000" stroke-width="1.0" d="M 684.4158730158731, 51.0L759.0074183976261, 51.0"/>
<path fill="none" stroke="#000000" stroke-width="1.0" d="M 775.0202597402599, 51.0L818.5595945904356, 51.0"/>
<path fill="none" stroke="#000000" stroke-width="1.0" d="M 824.9007814350139, 51.0L1280.0, 51.0"/>
<path fill="none" stroke="#000000" stroke-width="1.0" d="M 0.0, 57.0L435.85794792896775, 57.0"/>
<path fill="none" stroke="#000000" stroke-width="1.0" d="M 441.4494515355293, 57.0L478.419760479042, 57.0"/>
<path fill="none" stroke="#000000" stroke-width="1.0" d="M 494.0983233532935, 57.0L593.6968253968254, 57.0"/>
<path fill="none" stroke="#000000" stroke-width="1.0" d="M 609.0485611510792, 57.0L668.4665467625899, 57.0"/>
<path fill="none" stroke="#000000" stroke-width="1.0" d="M 684.3206349206349, 57.0L757.9035608308606, 57.0"/>
<path fill="none" stroke="#000000" stroke-width="1.0" d="M 773.9137662337664, 57.0L1280.0, 57.0"/>
<path fill="none" stroke="#000000" stroke-width="1.0" d="M 0.0, 63.0L479.4832335329343, 63.0"/>
<path fill="none" stroke="#000000" stroke-width="1.0" d="M 495.16179640718576, 63.0L593.6015873015873, 63.0"/>
<path fill="none" stroke="#000000" stroke-width="1.0" d="M 684.2253968253968, 63.0L756.799703264095, 63.0"/>
<path fill="none" stroke="#000000" stroke-width="1.0" d="M 772.8072727272729, 63.0L1280.0, 63.0"/>
<path fill="none" stroke="#000000" stroke-width="1.0" d="M 0.0, 69.0L480.5467065868265, 69.0"/>
<path fill="none" stroke="#000000" stroke-width="1.0" d="M 496.2252694610779, 69.0L593.5063492063492, 69.0"/>
<path fill="none" stroke="#000000" stroke-width="1.0" d="M 609.0631578947368, 69.0L668.4807017543859, 69.0"/>
<path fill="none" stroke="#000000" stroke-width="1.0" d="M 684.1301587301588, 69.0L755.6958456973294, 69.0"/>
<path fill="none" stroke="#000000" stroke-width="1.0" d="M 771.7007792207793, 69.0L806.7790039706317, 69.0"/>
<path fill="none" stroke="#000000" stroke-width="1.0" d="M 812.4890243902439, 69.0L1280.0, 69.0"/>
<path fill="none" stroke="#000000" stroke-width="1.0" d="M 0.0, 75.0L481.6101796407187, 75.0"/>
<path fill="none" stroke="#000000" stroke-width="1.0" d="M 497.2887425149702, 75.0L593.4111111111112, 75.0"/>
<path fill="none" stroke="#000000" stroke-width="1.0" d="M 608.9578947368421, 75.0L668.3754385964912, 75.0"/>
<path fill="none" stroke="#000000" stroke-width="1.0" d="M 684.0349206349207, 75.0L754.5919881305639, 75.0"/>
<path fill="none" stroke="#000000" stroke-width="1.0" d="M 783.0620689655174, 75.0L803.3154460576762, 75.0"/>
<path fill="none" stroke="#000000" stroke-width="1.0" d="M 811.3914634146342, 75.0L1280.0, 75.0"/>
<path fill="none" stroke="#000000" stroke-width="1.0" d="M 0.0, 81.0L482.67365269461095, 81.0"/>
<path fill="none" stroke="#000000" stroke-width="1.0" d="M 498.35221556886233, 81.0L593.315873015873, 81.0"/>
<path fill="none" stroke="#000000" stroke-width="1.0" d="M 608.8526315789474, 81.0L668.2701754385964, 81.0"/>
<path fill="none" stroke="#000000" stroke-width="1.0" d="M 683.9396825396825, 81.0L753.4881305637983, 81.0"/>
<path fill="none" stroke="#000000" stroke-width="1.0" d="M 769.4628930817611, 81.0L776.9172413793104, 81.0"/>
<path fill="none" stroke="#000000" stroke-width="1.0" d="M 810.2939024390245, 81.0L1280.0, 81.0"/>
<path fill="none" stroke="#000000" stroke-width="1.0" d="M 0.0, 87.0L483.7371257485031, 87.0"/>
<path fill="none" stroke="#000000" stroke-width="1.0" d="M 499.4156886227546, 87.0L593.2206349206349, 87.0"/>
<path fill="none" stroke="#000000" stroke-width="1.0" d="M 608.7473684210527, 87.0L668.1649122807017, 87.0"/>
<path fill="none" stroke="#000000" stroke-width="1.0" d="M 683.8444444444444, 87.0L752.3842729970327, 87.0"/>
<path fill="none" stroke="#000000" stroke-width="1.0" d="M 768.3685534591195, 87.0L799.2020104286032, 87.0"/>
<path fill="none" stroke="#000000" stroke-width="1.0" d="M 809.1963414634147, 87.0L1280.0, 87.0"/>
<path fill="none" stroke="#000000" stroke-width="1.0" d="M 0.0, 93.0L484.80059880239537, 93.0"/>
<path fill="none" stroke="#000000" stroke-width="1.0" d="M 500.4791616766468, 93.0L593.1253968253968, 93.0"/>
<path fill="none" stroke="#000000" stroke-width="1.0" d="M 608.6421052631579, 93.0L668.059649122807, 93.0"/>
<path fill="none" stroke="#000000" stroke-width="1.0" d="M 683.7492063492064, 93.0L751.2804154302671, 93.0"/>
<path fill="none" stroke="#000000" stroke-width="1.0" d="M 767.2742138364781, 93.0L801.5439582525818, 93.0"/>
<path fill="none" stroke="#000000" stroke-width="1.0" d="M 808.0987804878049, 93.0L1280.0, 93.0"/>
<path fill="none" stroke="#000000" stroke-width="1.0" d="M 0.0, 99.0L485.8640718562875, 99.0"/>
<path fill="none" stroke="#000000" stroke-width="1.0" d="M 501.54263473053896, 99.0L593.0301587301587, 99.0"/>
<path fill="none" stroke="#000000" stroke-width="1.0" d="M 608.5368421052632, 99.0L667.9543859649123, 99.0"/>
<path fill="none" stroke="#000000" stroke-width="1.0" d="M 683.6539682539683, 99.0L750.1765578635016, 99.0"/>
<path fill="none" stroke="#000000" stroke-width="1.0" d="M 766.1798742138366, 99.0L801.7983406323061, 99.0"/>
<path fill="none" stroke="#000000" stroke-width="1.0" d="M 807.0012195121952, 99.0L1280.0, 99.0"/>
<path fill="none" stroke="#000000" stroke-width="1.0" d="M 0.0, 105.0L486.9275449101798, 105.0"/>
<path fill="none" stroke="#000000" stroke-width="1.0" d="M 502.60610778443123, 105.0L592.8812057861221, 105.0"/>
<path fill="none" stroke="#000000" stroke-width="1.0" d="M 608.5008845252576, 105.0L667.8322246541613, 105.0"/>
<path fill="none" stroke="#000000" stroke-width="1.0" d="M 683.5829365101353, 105.0L749.072700296736, 105.0"/>
<path fill="none" stroke="#000000" stroke-width="1.0" d="M 765.085534591195, 105.0L1280.0, 105.0"/>
<path fill="none" stroke="#000000" stroke-width="1.0" d="M 0.0, 111.0L487.991017964072, 111.0"/>
<path fill="none" stroke="#000000" stroke-width="1.0" d="M 503.6695808383234, 111.0L592.0645304753696, 111.0"/>
<path fill="none" stroke="#000000" stroke-width="1.0" d="M 609.1070546863078, 111.0L667.2392387461323, 111.0"/>
<path fill="none" stroke="#000000" stroke-width="1.0" d="M 683.9104787290787, 111.0L747.9688568868985, 111.0"/>
<path fill="none" stroke="#000000" stroke-width="1.0" d="M 763.9911949685536, 111.0L1280.0, 111.0"/>
<path fill="none" stroke="#000000" stroke-width="1.0" d="M 0.0, 117.0L489.028963804903, 117.0"/>
<path fill="none" stroke="#000000" stroke-width="1.0" d="M 504.84078458738816, 117.0L581.1009794805695, 117.0"/>
<path fill="none" stroke="#000000" stroke-width="1.0" d="M 616.246884381921, 117.0L662.2794317542595, 117.0"/>
<path fill="none" stroke="#000000" stroke-width="1.0" d="M 687.4309244532838, 117.0L746.5060744812426, 117.0"/>
<path fill="none" stroke="#000000" stroke-width="1.0" d="M 763.1207998704408, 117.0L816.0794332288017, 117.0"/>
<path fill="none" stroke="#000000" stroke-width="1.0" d="M 821.8631013218671, 117.0L1280.0, 117.0"/>
<path fill="none" stroke="#000000" stroke-width="1.0" d="M 0.0, 123.0L489.6057778799687, 123.0"/>
<path fill="none" stroke="#000000" stroke-width="1.0" d="M 507.36454201879883, 123.0L623.9999999999984, 123.0"/>
<path fill="none" stroke="#000000" stroke-width="1.0" d="M 623.9999999999984, 123.0L651.2081632653061, 123.0"/>
<path fill="none" stroke="#000000" stroke-width="1.0" d="M 698.9244897959184, 123.0L728.1448979591837, 123.0"/>
<path fill="none" stroke="#000000" stroke-width="1.0" d="M 731.6833081161931, 123.0L739.8272142985144, 123.0"/>
<path fill="none" stroke="#000000" stroke-width="1.0" d="M 763.6283493992613, 123.0L811.7917542750511, 123.0"/>
<path fill="none" stroke="#000000" stroke-width="1.0" d="M 819.5457755327852, 123.0L1280.0, 123.0"/>
<path fill="none" stroke="#000000" stroke-width="1.0" d="M 0.0, 129.0L487.54973459342375, 129.0"/>
<path fill="none" stroke="#000000" stroke-width="1.0" d="M 525.261224489796, 129.0L734.9181818181819, 129.0"/>
<path fill="none" stroke="#000000" stroke-width="1.0" d="M 771.8671870853367, 129.0L806.2893253548388, 129.0"/>
<path fill="none" stroke="#000000" stroke-width="1.0" d="M 817.1311178820444, 129.0L1280.0, 129.0"/>
<path fill="none" stroke="#000000" stroke-width="1.0" d="M 0.0, 135.0L474.7285714285716, 135.0"/>
<path fill="none" stroke="#000000" stroke-width="1.0" d="M 499.0955056179778, 135.0L767.5675324675326, 135.0"/>
<path fill="none" stroke="#000000" stroke-width="1.0" d="M 814.6429893102313, 135.0L1280.0, 135.0"/>
<path fill="none" stroke="#000000" stroke-width="1.0" d="M 0.0, 141.0L800.2168831168831, 141.0"/>
<path fill="none" stroke="#000000" stroke-width="1.0" d="M 812.0367308939879, 141.0L1280.0, 141.0"/>
<path fill="none" stroke="#000000" stroke-width="1.0" d="M 0.0, 147.0L1280.0, 147.0"/>
<path fill="none" stroke="#000000" stroke-width="1.0" d="M 0.0, 153.0L1280.0, 153.0"/>
<path fill="none" stroke="#000000" stroke-width="1.0" d="M 0.0, 159.0L1280.0, 159.0"/>
<path fill="none" stroke="#000000" stroke-width="1.0" d="M 0.0, 165.0L570.4959183673467, 165.0"/>
<path fill="none" stroke="#000000" stroke-width="1.0" d="M 609.5823529411766, 165.0L657.258823529412, 165.0"/>
<path fill="none" stroke="#000000" stroke-width="1.0" d="M 685.1968152866243, 165.0L1280.0, 165.0"/>
<path fill="none" stroke="#000000" stroke-width="1.0" d="M 0.0, 171.0L519.6666666666663, 171.0"/>
<path fill="none" stroke="#000000" stroke-width="1.0" d="M 535.1117647058825, 171.0L578.7394222080744, 171.0"/>
<path fill="none" stroke="#000000" stroke-width="1.0" d="M 597.517121889838, 171.0L669.8963334635248, 171.0"/>
<path fill="none" stroke="#000000" stroke-width="1.0" d="M 689.1840764331212, 171.0L738.8823529411767, 171.0"/>
<path fill="none" stroke="#000000" stroke-width="1.0" d="M 747.4285714285714, 171.0L1280.0, 171.0"/>
<path fill="none" stroke="#000000" stroke-width="1.0" d="M 0.0, 177.0L489.4823529411768, 177.0"/>
<path fill="none" stroke="#000000" stroke-width="1.0" d="M 525.5937869378996, 177.0L585.4888060814311, 177.0"/>
<path fill="none" stroke="#000000" stroke-width="1.0" d="M 595.7994394668924, 177.0L673.6891037961782, 177.0"/>
<path fill="none" stroke="#000000" stroke-width="1.0" d="M 693.171337579618, 177.0L746.4418433428457, 177.0"/>
<path fill="none" stroke="#000000" stroke-width="1.0" d="M 780.0576923076925, 177.0L1280.0, 177.0"/>
<path fill="none" stroke="#000000" stroke-width="1.0" d="M 0.0, 183.0L504.1382020696651, 183.0"/>
<path fill="none" stroke="#000000" stroke-width="1.0" d="M 522.0938543710042, 183.0L587.0311892247114, 183.0"/>
<path fill="none" stroke="#000000" stroke-width="1.0" d="M 595.9966394280472, 183.0L674.1739472785763, 183.0"/>
<path fill="none" stroke="#000000" stroke-width="1.0" d="M 697.1585987261149, 183.0L753.7276626344603, 183.0"/>
<path fill="none" stroke="#000000" stroke-width="1.0" d="M 766.5616766323285, 183.0L1280.0, 183.0"/>
<path fill="none" stroke="#000000" stroke-width="1.0" d="M 0.0, 189.0L506.1459802187387, 189.0"/>
<path fill="none" stroke="#000000" stroke-width="1.0" d="M 522.2014361152486, 189.0L588.1791568477628, 189.0"/>
<path fill="none" stroke="#000000" stroke-width="1.0" d="M 596.3895510664463, 189.0L673.60551101818, 189.0"/>
<path fill="none" stroke="#000000" stroke-width="1.0" d="M 681.0964788732394, 189.0L682.7040526849037, 189.0"/>
<path fill="none" stroke="#000000" stroke-width="1.0" d="M 701.1458598726116, 189.0L754.374102063704, 189.0"/>
<path fill="none" stroke="#000000" stroke-width="1.0" d="M 763.8366878242595, 189.0L832.1625, 189.0"/>
<path fill="none" stroke="#000000" stroke-width="1.0" d="M 834.8949152542374, 189.0L1280.0, 189.0"/>
<path fill="none" stroke="#000000" stroke-width="1.0" d="M 0.0, 195.0L507.03894573926965, 195.0"/>
<path fill="none" stroke="#000000" stroke-width="1.0" d="M 522.8523437500003, 195.0L589.1058200620332, 195.0"/>
<path fill="none" stroke="#000000" stroke-width="1.0" d="M 596.9142309614064, 195.0L672.9000000000001, 195.0"/>
<path fill="none" stroke="#000000" stroke-width="1.0" d="M 680.3781690140846, 195.0L686.6007092198582, 195.0"/>
<path fill="none" stroke="#000000" stroke-width="1.0" d="M 705.1331210191084, 195.0L754.1528184016921, 195.0"/>
<path fill="none" stroke="#000000" stroke-width="1.0" d="M 762.660337051308, 195.0L835.0622375012917, 195.0"/>
<path fill="none" stroke="#000000" stroke-width="1.0" d="M 850.8610169491526, 195.0L1280.0, 195.0"/>
<path fill="none" stroke="#000000" stroke-width="1.0" d="M 0.0, 201.0L507.7547619047622, 201.0"/>
<path fill="none" stroke="#000000" stroke-width="1.0" d="M 523.5554687500003, 201.0L589.9063440886681, 201.0"/>
<path fill="none" stroke="#000000" stroke-width="1.0" d="M 597.5293458633494, 201.0L672.1941176470589, 201.0"/>
<path fill="none" stroke="#000000" stroke-width="1.0" d="M 679.6598591549297, 201.0L690.4973657548127, 201.0"/>
<path fill="none" stroke="#000000" stroke-width="1.0" d="M 709.1203821656053, 201.0L753.7617563682053, 201.0"/>
<path fill="none" stroke="#000000" stroke-width="1.0" d="M 761.6606305182383, 201.0L841.6102475841308, 201.0"/>
<path fill="none" stroke="#000000" stroke-width="1.0" d="M 866.8271186440678, 201.0L1280.0, 201.0"/>
<path fill="none" stroke="#000000" stroke-width="1.0" d="M 0.0, 207.0L377.55159525014983, 207.0"/>
<path fill="none" stroke="#000000" stroke-width="1.0" d="M 428.53750160656375, 207.0L508.4690476190479, 207.0"/>
<path fill="none" stroke="#000000" stroke-width="1.0" d="M 524.2585937500003, 207.0L590.6333333333336, 207.0"/>
<path fill="none" stroke="#000000" stroke-width="1.0" d="M 598.2071942446045, 207.0L671.4882352941178, 207.0"/>
<path fill="none" stroke="#000000" stroke-width="1.0" d="M 678.9415492957747, 207.0L694.394022289767, 207.0"/>
<path fill="none" stroke="#000000" stroke-width="1.0" d="M 713.107643312102, 207.0L753.2353174565982, 207.0"/>
<path fill="none" stroke="#000000" stroke-width="1.0" d="M 760.7953574165299, 207.0L841.1816239398836, 207.0"/>
<path fill="none" stroke="#000000" stroke-width="1.0" d="M 882.7141221127986, 207.0L1280.0, 207.0"/>
<path fill="none" stroke="#000000" stroke-width="1.0" d="M 0.0, 213.0L367.2526147296622, 213.0"/>
<path fill="none" stroke="#000000" stroke-width="1.0" d="M 379.64284116382316, 213.0L410.4227737718037, 213.0"/>
<path fill="none" stroke="#000000" stroke-width="1.0" d="M 438.03276628103794, 213.0L509.1833333333336, 213.0"/>
<path fill="none" stroke="#000000" stroke-width="1.0" d="M 524.9617187500003, 213.0L591.3606060606063, 213.0"/>
<path fill="none" stroke="#000000" stroke-width="1.0" d="M 598.8978417266188, 213.0L670.7823529411766, 213.0"/>
<path fill="none" stroke="#000000" stroke-width="1.0" d="M 678.2232394366198, 213.0L698.2906788247215, 213.0"/>
<path fill="none" stroke="#000000" stroke-width="1.0" d="M 717.0949044585989, 213.0L752.6057045714772, 213.0"/>
<path fill="none" stroke="#000000" stroke-width="1.0" d="M 760.0272934037234, 213.0L839.1973820638416, 213.0"/>
<path fill="none" stroke="#000000" stroke-width="1.0" d="M 855.9981399405444, 213.0L880.9392668831533, 213.0"/>
<path fill="none" stroke="#000000" stroke-width="1.0" d="M 895.6494660357308, 213.0L1280.0, 213.0"/>
<path fill="none" stroke="#000000" stroke-width="1.0" d="M 0.0, 219.0L360.18232237843245, 219.0"/>
<path fill="none" stroke="#000000" stroke-width="1.0" d="M 370.4979716120032, 219.0L420.16627872244425, 219.0"/>
<path fill="none" stroke="#000000" stroke-width="1.0" d="M 444.5109625513886, 219.0L509.8976190476193, 219.0"/>
<path fill="none" stroke="#000000" stroke-width="1.0" d="M 525.6648437500003, 219.0L592.087878787879, 219.0"/>
<path fill="none" stroke="#000000" stroke-width="1.0" d="M 599.5884892086333, 219.0L670.0764705882353, 219.0"/>
<path fill="none" stroke="#000000" stroke-width="1.0" d="M 677.5049295774648, 219.0L702.1873353596758, 219.0"/>
<path fill="none" stroke="#000000" stroke-width="1.0" d="M 721.0821656050957, 219.0L751.9033898305087, 219.0"/>
<path fill="none" stroke="#000000" stroke-width="1.0" d="M 759.3222543352603, 219.0L836.952012383901, 219.0"/>
<path fill="none" stroke="#000000" stroke-width="1.0" d="M 853.6772455089821, 219.0L890.9496351769508, 219.0"/>
<path fill="none" stroke="#000000" stroke-width="1.0" d="M 905.1475869498713, 219.0L1280.0, 219.0"/>
<path fill="none" stroke="#000000" stroke-width="1.0" d="M 0.0, 225.0L354.9655571394401, 225.0"/>
<path fill="none" stroke="#000000" stroke-width="1.0" d="M 365.34980389068187, 225.0L426.44571381641396, 225.0"/>
<path fill="none" stroke="#000000" stroke-width="1.0" d="M 449.3116188755977, 225.0L510.611904761905, 225.0"/>
<path fill="none" stroke="#000000" stroke-width="1.0" d="M 526.3679687500003, 225.0L592.6551017915824, 225.0"/>
<path fill="none" stroke="#000000" stroke-width="1.0" d="M 600.2005587397297, 225.0L669.3705882352942, 225.0"/>
<path fill="none" stroke="#000000" stroke-width="1.0" d="M 676.7866197183099, 225.0L706.0839918946302, 225.0"/>
<path fill="none" stroke="#000000" stroke-width="1.0" d="M 725.0694267515926, 225.0L751.191525423729, 225.0"/>
<path fill="none" stroke="#000000" stroke-width="1.0" d="M 758.6112716763007, 225.0L834.7043343653252, 225.0"/>
<path fill="none" stroke="#000000" stroke-width="1.0" d="M 851.4317365269462, 225.0L897.517715108131, 225.0"/>
<path fill="none" stroke="#000000" stroke-width="1.0" d="M 912.1249146871746, 225.0L1280.0, 225.0"/>
<path fill="none" stroke="#000000" stroke-width="1.0" d="M 0.0, 231.0L351.03227381706165, 231.0"/>
<path fill="none" stroke="#000000" stroke-width="1.0" d="M 362.09845826868855, 231.0L431.1572287205656, 231.0"/>
<path fill="none" stroke="#000000" stroke-width="1.0" d="M 452.96387592659426, 231.0L511.32619047619073, 231.0"/>
<path fill="none" stroke="#000000" stroke-width="1.0" d="M 527.0710937500003, 231.0L592.9259611039483, 231.0"/>
<path fill="none" stroke="#000000" stroke-width="1.0" d="M 600.5588693788746, 231.0L668.6556186972277, 231.0"/>
<path fill="none" stroke="#000000" stroke-width="1.0" d="M 676.067861606942, 231.0L709.9806484295846, 231.0"/>
<path fill="none" stroke="#000000" stroke-width="1.0" d="M 729.0566878980894, 231.0L750.4796610169494, 231.0"/>
<path fill="none" stroke="#000000" stroke-width="1.0" d="M 757.9002890173412, 231.0L832.4566563467492, 231.0"/>
<path fill="none" stroke="#000000" stroke-width="1.0" d="M 849.1862275449103, 231.0L901.9977994441815, 231.0"/>
<path fill="none" stroke="#000000" stroke-width="1.0" d="M 917.1878849194479, 231.0L1280.0, 231.0"/>
<path fill="none" stroke="#000000" stroke-width="1.0" d="M 0.0, 237.0L348.08523988957694, 237.0"/>
<path fill="none" stroke="#000000" stroke-width="1.0" d="M 360.1082203802422, 237.0L434.88928172894686, 237.0"/>
<path fill="none" stroke="#000000" stroke-width="1.0" d="M 455.74526522556584, 237.0L512.0404761904764, 237.0"/>
<path fill="none" stroke="#000000" stroke-width="1.0" d="M 527.9050788385298, 237.0L592.8307237077609, 237.0"/>
<path fill="none" stroke="#000000" stroke-width="1.0" d="M 600.5901834395984, 237.0L667.8902903265507, 237.0"/>
<path fill="none" stroke="#000000" stroke-width="1.0" d="M 675.3851074456435, 237.0L713.877304964539, 237.0"/>
<path fill="none" stroke="#000000" stroke-width="1.0" d="M 733.0439490445862, 237.0L749.7677966101696, 237.0"/>
<path fill="none" stroke="#000000" stroke-width="1.0" d="M 757.1893063583816, 237.0L830.2089783281734, 237.0"/>
<path fill="none" stroke="#000000" stroke-width="1.0" d="M 846.9407185628743, 237.0L905.0501402435697, 237.0"/>
<path fill="none" stroke="#000000" stroke-width="1.0" d="M 920.7551408630881, 237.0L1280.0, 237.0"/>
<path fill="none" stroke="#000000" stroke-width="1.0" d="M 0.0, 243.0L345.9507398268719, 243.0"/>
<path fill="none" stroke="#000000" stroke-width="1.0" d="M 359.08046705412994, 243.0L437.9212110363838, 243.0"/>
<path fill="none" stroke="#000000" stroke-width="1.0" d="M 457.85184223791197, 243.0L512.8981028187891, 243.0"/>
<path fill="none" stroke="#000000" stroke-width="1.0" d="M 529.162122726223, 243.0L592.2675062836402, 243.0"/>
<path fill="none" stroke="#000000" stroke-width="1.0" d="M 600.1990235307048, 243.0L667.0623619882467, 243.0"/>
<path fill="none" stroke="#000000" stroke-width="1.0" d="M 674.7799405907123, 243.0L717.7739614994935, 243.0"/>
<path fill="none" stroke="#000000" stroke-width="1.0" d="M 737.031210191083, 243.0L749.0559322033901, 243.0"/>
<path fill="none" stroke="#000000" stroke-width="1.0" d="M 756.478323699422, 243.0L827.9613003095976, 243.0"/>
<path fill="none" stroke="#000000" stroke-width="1.0" d="M 844.6952095808383, 243.0L906.9370947477239, 243.0"/>
<path fill="none" stroke="#000000" stroke-width="1.0" d="M 923.2381520959996, 243.0L1280.0, 243.0"/>
<path fill="none" stroke="#000000" stroke-width="1.0" d="M 0.0, 249.0L344.52155224829994, 249.0"/>
<path fill="none" stroke="#000000" stroke-width="1.0" d="M 358.8457069502907, 249.0L440.4132121922938, 249.0"/>
<path fill="none" stroke="#000000" stroke-width="1.0" d="M 459.3920869138399, 249.0L514.1160387901795, 249.0"/>
<path fill="none" stroke="#000000" stroke-width="1.0" d="M 530.9756614177385, 249.0L591.0781894967595, 249.0"/>
<path fill="none" stroke="#000000" stroke-width="1.0" d="M 599.2576021009295, 249.0L666.1427272884957, 249.0"/>
<path fill="none" stroke="#000000" stroke-width="1.0" d="M 674.2787209603644, 249.0L721.6706180344479, 249.0"/>
<path fill="none" stroke="#000000" stroke-width="1.0" d="M 741.0184713375799, 249.0L748.3440677966104, 249.0"/>
<path fill="none" stroke="#000000" stroke-width="1.0" d="M 755.7673410404625, 249.0L825.7136222910217, 249.0"/>
<path fill="none" stroke="#000000" stroke-width="1.0" d="M 842.4497005988025, 249.0L907.8744650782634, 249.0"/>
<path fill="none" stroke="#000000" stroke-width="1.0" d="M 924.7766795129676, 249.0L1280.0, 249.0"/>
<path fill="none" stroke="#000000" stroke-width="1.0" d="M 0.0, 255.0L343.7311845704161, 255.0"/>
<path fill="none" stroke="#000000" stroke-width="1.0" d="M 359.29673304767414, 255.0L442.458316010358, 255.0"/>
<path fill="none" stroke="#000000" stroke-width="1.0" d="M 460.36252590792435, 255.0L515.8205954436309, 255.0"/>
<path fill="none" stroke="#000000" stroke-width="1.0" d="M 533.5654926099314, 255.0L588.9917639372546, 255.0"/>
<path fill="none" stroke="#000000" stroke-width="1.0" d="M 597.590704363863, 255.0L665.0785297952206, 255.0"/>
<path fill="none" stroke="#000000" stroke-width="1.0" d="M 673.9239502808975, 255.0L725.5672745694022, 255.0"/>
<path fill="none" stroke="#000000" stroke-width="1.0" d="M 745.0057324840766, 255.0L747.6322033898307, 255.0"/>
<path fill="none" stroke="#000000" stroke-width="1.0" d="M 755.056358381503, 255.0L823.4659442724459, 255.0"/>
<path fill="none" stroke="#000000" stroke-width="1.0" d="M 840.2041916167665, 255.0L907.9990877332615, 255.0"/>
<path fill="none" stroke="#000000" stroke-width="1.0" d="M 925.4960491384275, 255.0L1280.0, 255.0"/>
<path fill="none" stroke="#000000" stroke-width="1.0" d="M 0.0, 261.0L269.07727329588005, 261.0"/>
<path fill="none" stroke="#000000" stroke-width="1.0" d="M 276.4576852727854, 261.0L343.5411548262982, 261.0"/>
<path fill="none" stroke="#000000" stroke-width="1.0" d="M 360.3608430662821, 261.0L444.01205786963055, 261.0"/>
<path fill="none" stroke="#000000" stroke-width="1.0" d="M 460.7514991849909, 261.0L518.2185882290792, 261.0"/>
<path fill="none" stroke="#000000" stroke-width="1.0" d="M 537.3724153657855, 261.0L585.4627070747758, 261.0"/>
<path fill="none" stroke="#000000" stroke-width="1.0" d="M 594.9508663320969, 261.0L663.5575692310335, 261.0"/>
<path fill="none" stroke="#000000" stroke-width="1.0" d="M 673.8772180327496, 261.0L729.4639311043567, 261.0"/>
<path fill="none" stroke="#000000" stroke-width="1.0" d="M 754.3453757225434, 261.0L821.2182662538701, 261.0"/>
<path fill="none" stroke="#000000" stroke-width="1.0" d="M 837.9586826347305, 261.0L907.4006679018888, 261.0"/>
<path fill="none" stroke="#000000" stroke-width="1.0" d="M 925.470093615111, 261.0L1280.0, 261.0"/>
<path fill="none" stroke="#000000" stroke-width="1.0" d="M 0.0, 267.0L255.16175690276654, 267.0"/>
<path fill="none" stroke="#000000" stroke-width="1.0" d="M 281.375973572144, 267.0L343.93470556594104, 267.0"/>
<path fill="none" stroke="#000000" stroke-width="1.0" d="M 361.98633765312314, 267.0L445.0275898611079, 267.0"/>
<path fill="none" stroke="#000000" stroke-width="1.0" d="M 460.53798324483137, 267.0L521.6865021114186, 267.0"/>
<path fill="none" stroke="#000000" stroke-width="1.0" d="M 543.6182695026091, 267.0L578.9762921679899, 267.0"/>
<path fill="none" stroke="#000000" stroke-width="1.0" d="M 590.9856185358344, 267.0L657.5750880235787, 267.0"/>
<path fill="none" stroke="#000000" stroke-width="1.0" d="M 675.8572440607225, 267.0L733.3605876393111, 267.0"/>
<path fill="none" stroke="#000000" stroke-width="1.0" d="M 753.634393063584, 267.0L818.9705882352941, 267.0"/>
<path fill="none" stroke="#000000" stroke-width="1.0" d="M 835.7131736526946, 267.0L906.1379974136025, 267.0"/>
<path fill="none" stroke="#000000" stroke-width="1.0" d="M 924.7404571460182, 267.0L994.1791445249203, 267.0"/>
<path fill="none" stroke="#000000" stroke-width="1.0" d="M 1007.11151027134, 267.0L1280.0, 267.0"/>
<path fill="none" stroke="#000000" stroke-width="1.0" d="M 0.0, 273.0L247.00519241426662, 273.0"/>
<path fill="none" stroke="#000000" stroke-width="1.0" d="M 257.2256056125847, 273.0L274.0689004424474, 273.0"/>
<path fill="none" stroke="#000000" stroke-width="1.0" d="M 286.3594786294734, 273.0L344.91432231421953, 273.0"/>
<path fill="none" stroke="#000000" stroke-width="1.0" d="M 364.13072211594533, 273.0L445.44455531044326, 273.0"/>
<path fill="none" stroke="#000000" stroke-width="1.0" d="M 459.6887889333789, 273.0L527.0479272851644, 273.0"/>
<path fill="none" stroke="#000000" stroke-width="1.0" d="M 584.8907261209928, 273.0L650.6714285714289, 273.0"/>
<path fill="none" stroke="#000000" stroke-width="1.0" d="M 689.1510204081633, 273.0L737.2572441742655, 273.0"/>
<path fill="none" stroke="#000000" stroke-width="1.0" d="M 752.9234104046244, 273.0L816.7229102167183, 273.0"/>
<path fill="none" stroke="#000000" stroke-width="1.0" d="M 833.4676646706587, 273.0L904.2477648537437, 273.0"/>
<path fill="none" stroke="#000000" stroke-width="1.0" d="M 923.328134456515, 273.0L981.5228849204649, 273.0"/>
<path fill="none" stroke="#000000" stroke-width="1.0" d="M 1022.0775094236961, 273.0L1280.0, 273.0"/>
<path fill="none" stroke="#000000" stroke-width="1.0" d="M 0.0, 279.0L241.59619427423434, 279.0"/>
<path fill="none" stroke="#000000" stroke-width="1.0" d="M 249.31367874875303, 279.0L283.2768453376303, 279.0"/>
<path fill="none" stroke="#000000" stroke-width="1.0" d="M 289.44736842105266, 279.0L346.5021481865568, 279.0"/>
<path fill="none" stroke="#000000" stroke-width="1.0" d="M 366.8059506469049, 279.0L445.178958413385, 279.0"/>
<path fill="none" stroke="#000000" stroke-width="1.0" d="M 458.1539518712499, 279.0L536.6851847041427, 279.0"/>
<path fill="none" stroke="#000000" stroke-width="1.0" d="M 573.9167004303351, 279.0L741.1539007092199, 279.0"/>
<path fill="none" stroke="#000000" stroke-width="1.0" d="M 752.2124277456649, 279.0L814.4744449510453, 279.0"/>
<path fill="none" stroke="#000000" stroke-width="1.0" d="M 831.2221556886227, 279.0L901.7242908328988, 279.0"/>
<path fill="none" stroke="#000000" stroke-width="1.0" d="M 921.242133223307, 279.0L975.9667976960441, 279.0"/>
<path fill="none" stroke="#000000" stroke-width="1.0" d="M 993.4347848798859, 279.0L1019.4371356173701, 279.0"/>
<path fill="none" stroke="#000000" stroke-width="1.0" d="M 1030.0588500192107, 279.0L1280.0, 279.0"/>
<path fill="none" stroke="#000000" stroke-width="1.0" d="M 0.0, 285.0L238.0533579857098, 285.0"/>
<path fill="none" stroke="#000000" stroke-width="1.0" d="M 245.9735030443127, 285.0L348.7406565376872, 285.0"/>
<path fill="none" stroke="#000000" stroke-width="1.0" d="M 370.1267714070118, 285.0L444.1073662783032, 285.0"/>
<path fill="none" stroke="#000000" stroke-width="1.0" d="M 455.8588487234939, 285.0L745.0505572441743, 285.0"/>
<path fill="none" stroke="#000000" stroke-width="1.0" d="M 751.5014450867053, 285.0L811.954418394961, 285.0"/>
<path fill="none" stroke="#000000" stroke-width="1.0" d="M 829.0367063366598, 285.0L898.4772219778836, 285.0"/>
<path fill="none" stroke="#000000" stroke-width="1.0" d="M 918.5033870439162, 285.0L972.6931271521678, 285.0"/>
<path fill="none" stroke="#000000" stroke-width="1.0" d="M 989.2194594152238, 285.0L1024.3017582638804, 285.0"/>
<path fill="none" stroke="#000000" stroke-width="1.0" d="M 1036.0185446922746, 285.0L1280.0, 285.0"/>
<path fill="none" stroke="#000000" stroke-width="1.0" d="M 0.0, 291.0L235.98817638446928, 291.0"/>
<path fill="none" stroke="#000000" stroke-width="1.0" d="M 245.246497471349, 291.0L351.71589515947244, 291.0"/>
<path fill="none" stroke="#000000" stroke-width="1.0" d="M 374.26404737973945, 291.0L442.0337008786436, 291.0"/>
<path fill="none" stroke="#000000" stroke-width="1.0" d="M 452.68985164771755, 291.0L792.1555555555556, 291.0"/>
<path fill="none" stroke="#000000" stroke-width="1.0" d="M 827.9380688069155, 291.0L894.2838415922255, 291.0"/>
<path fill="none" stroke="#000000" stroke-width="1.0" d="M 914.9764441234299, 291.0L971.0320476022182, 291.0"/>
<path fill="none" stroke="#000000" stroke-width="1.0" d="M 987.3518205574385, 291.0L1026.164466415023, 291.0"/>
<path fill="none" stroke="#000000" stroke-width="1.0" d="M 1037.9142362635932, 291.0L1280.0, 291.0"/>
<path fill="none" stroke="#000000" stroke-width="1.0" d="M 0.0, 297.0L235.22243097590038, 297.0"/>
<path fill="none" stroke="#000000" stroke-width="1.0" d="M 246.61168396661714, 297.0L355.6029916165257, 297.0"/>
<path fill="none" stroke="#000000" stroke-width="1.0" d="M 379.5291538914839, 297.0L438.6066171377412, 297.0"/>
<path fill="none" stroke="#000000" stroke-width="1.0" d="M 448.46576449528555, 297.0L802.1114093959732, 297.0"/>
<path fill="none" stroke="#000000" stroke-width="1.0" d="M 829.481266357639, 297.0L888.6910072009862, 297.0"/>
<path fill="none" stroke="#000000" stroke-width="1.0" d="M 910.381572902294, 297.0L970.7385022205691, 297.0"/>
<path fill="none" stroke="#000000" stroke-width="1.0" d="M 987.4573335709845, 297.0L1026.3283999308164, 297.0"/>
<path fill="none" stroke="#000000" stroke-width="1.0" d="M 1035.1577923300497, 297.0L1280.0, 297.0"/>
<path fill="none" stroke="#000000" stroke-width="1.0" d="M 0.0, 303.0L235.70809011855425, 303.0"/>
<path fill="none" stroke="#000000" stroke-width="1.0" d="M 250.18024486409797, 303.0L360.7009468962258, 303.0"/>
<path fill="none" stroke="#000000" stroke-width="1.0" d="M 386.62569077842477, 303.0L433.04634358756164, 303.0"/>
<path fill="none" stroke="#000000" stroke-width="1.0" d="M 442.87292100341966, 303.0L818.1785234899328, 303.0"/>
<path fill="none" stroke="#000000" stroke-width="1.0" d="M 837.1135387387634, 303.0L880.4684578443438, 303.0"/>
<path fill="none" stroke="#000000" stroke-width="1.0" d="M 904.1877957383147, 303.0L971.6128105270292, 303.0"/>
<path fill="none" stroke="#000000" stroke-width="1.0" d="M 989.1382863822917, 303.0L1025.4272579806081, 303.0"/>
<path fill="none" stroke="#000000" stroke-width="1.0" d="M 1032.4111580638837, 303.0L1280.0, 303.0"/>
<path fill="none" stroke="#000000" stroke-width="1.0" d="M 0.0, 309.0L237.5140600383413, 309.0"/>
<path fill="none" stroke="#000000" stroke-width="1.0" d="M 258.5634314784426, 309.0L367.60745250427124, 309.0"/>
<path fill="none" stroke="#000000" stroke-width="1.0" d="M 398.3231588853931, 309.0L422.3609484894131, 309.0"/>
<path fill="none" stroke="#000000" stroke-width="1.0" d="M 435.2836028259721, 309.0L834.3046657841296, 309.0"/>
<path fill="none" stroke="#000000" stroke-width="1.0" d="M 895.0782096308017, 309.0L973.4733598166737, 309.0"/>
<path fill="none" stroke="#000000" stroke-width="1.0" d="M 991.9040484458164, 309.0L1024.2125, 309.0"/>
<path fill="none" stroke="#000000" stroke-width="1.0" d="M 1029.6107064920652, 309.0L1280.0, 309.0"/>
<path fill="none" stroke="#000000" stroke-width="1.0" d="M 0.0, 315.0L240.86970468206158, 315.0"/>
<path fill="none" stroke="#000000" stroke-width="1.0" d="M 316.95090804241715, 315.0L377.9901688457036, 315.0"/>
<path fill="none" stroke="#000000" stroke-width="1.0" d="M 424.0042406221614, 315.0L859.8238687421043, 315.0"/>
<path fill="none" stroke="#000000" stroke-width="1.0" d="M 874.8458052556648, 315.0L976.1373990136792, 315.0"/>
<path fill="none" stroke="#000000" stroke-width="1.0" d="M 995.315324881375, 315.0L1280.0, 315.0"/>
<path fill="none" stroke="#000000" stroke-width="1.0" d="M 0.0, 321.0L246.6378295494369, 321.0"/>
<path fill="none" stroke="#000000" stroke-width="1.0" d="M 323.1125040462855, 321.0L979.3900049294779, 321.0"/>
<path fill="none" stroke="#000000" stroke-width="1.0" d="M 998.8521411882169, 321.0L1280.0, 321.0"/>
<path fill="none" stroke="#000000" stroke-width="1.0" d="M 0.0, 327.0L261.8337827940472, 327.0"/>
<path fill="none" stroke="#000000" stroke-width="1.0" d="M 281.1807131068578, 327.0L300.1795050269783, 327.0"/>
<path fill="none" stroke="#000000" stroke-width="1.0" d="M 326.69743817955924, 327.0L942.5766880510671, 327.0"/>
<path fill="none" stroke="#000000" stroke-width="1.0" d="M 948.716869853185, 327.0L982.8765617893612, 327.0"/>
<path fill="none" stroke="#000000" stroke-width="1.0" d="M 1002.0975231557309, 327.0L1280.0, 327.0"/>
<path fill="none" stroke="#000000" stroke-width="1.0" d="M 0.0, 333.0L312.2362642294373, 333.0"/>
<path fill="none" stroke="#000000" stroke-width="1.0" d="M 328.71474093943687, 333.0L569.2481519020137, 333.0"/>
<path fill="none" stroke="#000000" stroke-width="1.0" d="M 597.3278114859402, 333.0L674.9488372093022, 333.0"/>
<path fill="none" stroke="#000000" stroke-width="1.0" d="M 688.5078651685388, 333.0L939.9102325285855, 333.0"/>
<path fill="none" stroke="#000000" stroke-width="1.0" d="M 947.3424223848766, 333.0L986.0517798930512, 333.0"/>
<path fill="none" stroke="#000000" stroke-width="1.0" d="M 1004.780137002924, 333.0L1280.0, 333.0"/>
<path fill="none" stroke="#000000" stroke-width="1.0" d="M 0.0, 339.0L316.4056344771642, 339.0"/>
<path fill="none" stroke="#000000" stroke-width="1.0" d="M 329.4322944113002, 339.0L555.5094997075703, 339.0"/>
<path fill="none" stroke="#000000" stroke-width="1.0" d="M 568.5607073549246, 339.0L590.8346927684421, 339.0"/>
<path fill="none" stroke="#000000" stroke-width="1.0" d="M 610.6745128262783, 339.0L684.2337913617316, 339.0"/>
<path fill="none" stroke="#000000" stroke-width="1.0" d="M 732.8674157303367, 339.0L937.3572963081231, 339.0"/>
<path fill="none" stroke="#000000" stroke-width="1.0" d="M 946.6726382946655, 339.0L988.5508543843749, 339.0"/>
<path fill="none" stroke="#000000" stroke-width="1.0" d="M 1006.6559768544223, 339.0L1280.0, 339.0"/>
<path fill="none" stroke="#000000" stroke-width="1.0" d="M 0.0, 345.0L318.51802785504583, 345.0"/>
<path fill="none" stroke="#000000" stroke-width="1.0" d="M 328.96162814251807, 345.0L547.8418333713041, 345.0"/>
<path fill="none" stroke="#000000" stroke-width="1.0" d="M 559.0791371488538, 345.0L600.8712067462346, 345.0"/>
<path fill="none" stroke="#000000" stroke-width="1.0" d="M 618.1886957505417, 345.0L685.8443537061004, 345.0"/>
<path fill="none" stroke="#000000" stroke-width="1.0" d="M 699.686455331412, 345.0L727.5412065162323, 345.0"/>
<path fill="none" stroke="#000000" stroke-width="1.0" d="M 740.5564024692108, 345.0L934.9500783871706, 345.0"/>
<path fill="none" stroke="#000000" stroke-width="1.0" d="M 946.8065143174192, 345.0L989.9357836353558, 345.0"/>
<path fill="none" stroke="#000000" stroke-width="1.0" d="M 1007.5053408485578, 345.0L1280.0, 345.0"/>
<path fill="none" stroke="#000000" stroke-width="1.0" d="M 0.0, 351.0L318.7119765853987, 351.0"/>
<path fill="none" stroke="#000000" stroke-width="1.0" d="M 327.31041469885633, 351.0L542.5498919828037, 351.0"/>
<path fill="none" stroke="#000000" stroke-width="1.0" d="M 554.1421112818966, 351.0L606.4215798104975, 351.0"/>
<path fill="none" stroke="#000000" stroke-width="1.0" d="M 623.3584619405891, 351.0L685.2910534050835, 351.0"/>
<path fill="none" stroke="#000000" stroke-width="1.0" d="M 698.8737752161383, 351.0L732.8728571703004, 351.0"/>
<path fill="none" stroke="#000000" stroke-width="1.0" d="M 740.156229521982, 351.0L934.6563620186384, 351.0"/>
<path fill="none" stroke="#000000" stroke-width="1.0" d="M 947.9695374875142, 351.0L989.7398583493904, 351.0"/>
<path fill="none" stroke="#000000" stroke-width="1.0" d="M 1007.1239842941609, 351.0L1280.0, 351.0"/>
<path fill="none" stroke="#000000" stroke-width="1.0" d="M 0.0, 357.0L267.9769230769231, 357.0"/>
<path fill="none" stroke="#000000" stroke-width="1.0" d="M 269.9671789746246, 357.0L316.6755044420117, 357.0"/>
<path fill="none" stroke="#000000" stroke-width="1.0" d="M 324.38622067706723, 357.0L538.7155183547744, 357.0"/>
<path fill="none" stroke="#000000" stroke-width="1.0" d="M 551.0756794709009, 357.0L610.1929507699571, 357.0"/>
<path fill="none" stroke="#000000" stroke-width="1.0" d="M 627.0529703007945, 357.0L684.4781034482756, 357.0"/>
<path fill="none" stroke="#000000" stroke-width="1.0" d="M 698.0610951008645, 357.0L734.4161613950262, 357.0"/>
<path fill="none" stroke="#000000" stroke-width="1.0" d="M 739.8348329344983, 357.0L939.3663957675326, 357.0"/>
<path fill="none" stroke="#000000" stroke-width="1.0" d="M 950.6179495815113, 357.0L987.5609403913633, 357.0"/>
<path fill="none" stroke="#000000" stroke-width="1.0" d="M 1005.3165020470419, 357.0L1280.0, 357.0"/>
<path fill="none" stroke="#000000" stroke-width="1.0" d="M 0.0, 363.0L267.8421700008046, 363.0"/>
<path fill="none" stroke="#000000" stroke-width="1.0" d="M 277.85639994121175, 363.0L311.5046562900365, 363.0"/>
<path fill="none" stroke="#000000" stroke-width="1.0" d="M 319.958467443714, 363.0L535.9468268316291, 363.0"/>
<path fill="none" stroke="#000000" stroke-width="1.0" d="M 549.1893482100811, 363.0L612.8781933092307, 363.0"/>
<path fill="none" stroke="#000000" stroke-width="1.0" d="M 629.6568446362646, 363.0L683.6608620689653, 363.0"/>
<path fill="none" stroke="#000000" stroke-width="1.0" d="M 697.2484149855907, 363.0L945.1762567544029, 363.0"/>
<path fill="none" stroke="#000000" stroke-width="1.0" d="M 955.8508408831667, 363.0L983.1251124306357, 363.0"/>
<path fill="none" stroke="#000000" stroke-width="1.0" d="M 1001.8822142296385, 363.0L1280.0, 363.0"/>
<path fill="none" stroke="#000000" stroke-width="1.0" d="M 0.0, 369.0L272.93759383355194, 369.0"/>
<path fill="none" stroke="#000000" stroke-width="1.0" d="M 313.5340718706907, 369.0L534.0419248600724, 369.0"/>
<path fill="none" stroke="#000000" stroke-width="1.0" d="M 548.1706514684032, 369.0L614.787946521442, 369.0"/>
<path fill="none" stroke="#000000" stroke-width="1.0" d="M 631.3817424771105, 369.0L682.843620689655, 369.0"/>
<path fill="none" stroke="#000000" stroke-width="1.0" d="M 696.4357348703169, 369.0L953.4444762487242, 369.0"/>
<path fill="none" stroke="#000000" stroke-width="1.0" d="M 996.1281872407949, 369.0L1280.0, 369.0"/>
<path fill="none" stroke="#000000" stroke-width="1.0" d="M 0.0, 375.0L278.2454420781892, 375.0"/>
<path fill="none" stroke="#000000" stroke-width="1.0" d="M 303.8426452815378, 375.0L532.8895351582014, 375.0"/>
<path fill="none" stroke="#000000" stroke-width="1.0" d="M 547.8438253928978, 375.0L616.0954450993219, 375.0"/>
<path fill="none" stroke="#000000" stroke-width="1.0" d="M 632.3590904892951, 375.0L682.0263793103446, 375.0"/>
<path fill="none" stroke="#000000" stroke-width="1.0" d="M 695.6230547550431, 375.0L726.7832626786587, 375.0"/>
<path fill="none" stroke="#000000" stroke-width="1.0" d="M 731.7954545454544, 375.0L968.881338568199, 375.0"/>
<path fill="none" stroke="#000000" stroke-width="1.0" d="M 983.0910199333357, 375.0L1280.0, 375.0"/>
<path fill="none" stroke="#000000" stroke-width="1.0" d="M 0.0, 381.0L532.4306506607675, 381.0"/>
<path fill="none" stroke="#000000" stroke-width="1.0" d="M 548.0971071906133, 381.0L616.9097630251113, 381.0"/>
<path fill="none" stroke="#000000" stroke-width="1.0" d="M 632.7172311216278, 381.0L681.2091379310343, 381.0"/>
<path fill="none" stroke="#000000" stroke-width="1.0" d="M 705.5000000000001, 381.0L723.3014795797859, 381.0"/>
<path fill="none" stroke="#000000" stroke-width="1.0" d="M 730.9772727272726, 381.0L1280.0, 381.0"/>
<path fill="none" stroke="#000000" stroke-width="1.0" d="M 0.0, 387.0L532.6420126485566, 387.0"/>
<path fill="none" stroke="#000000" stroke-width="1.0" d="M 548.8695766153074, 387.0L617.2590531628537, 387.0"/>
<path fill="none" stroke="#000000" stroke-width="1.0" d="M 632.4815059454181, 387.0L680.391896551724, 387.0"/>
<path fill="none" stroke="#000000" stroke-width="1.0" d="M 693.967300380228, 387.0L706.9499999999998, 387.0"/>
<path fill="none" stroke="#000000" stroke-width="1.0" d="M 730.1590909090908, 387.0L1280.0, 387.0"/>
<path fill="none" stroke="#000000" stroke-width="1.0" d="M 0.0, 393.0L533.519801944832, 393.0"/>
<path fill="none" stroke="#000000" stroke-width="1.0" d="M 550.1880461938574, 393.0L617.0908780236942, 393.0"/>
<path fill="none" stroke="#000000" stroke-width="1.0" d="M 631.5920846836475, 393.0L679.5746551724136, 393.0"/>
<path fill="none" stroke="#000000" stroke-width="1.0" d="M 693.1460076045627, 393.0L722.4396828088817, 393.0"/>
<path fill="none" stroke="#000000" stroke-width="1.0" d="M 729.340909090909, 393.0L1280.0, 393.0"/>
<path fill="none" stroke="#000000" stroke-width="1.0" d="M 0.0, 399.0L535.1141564061, 399.0"/>
<path fill="none" stroke="#000000" stroke-width="1.0" d="M 552.1349451361193, 399.0L616.3019057207746, 399.0"/>
<path fill="none" stroke="#000000" stroke-width="1.0" d="M 629.9645703645203, 399.0L678.7574137931033, 399.0"/>
<path fill="none" stroke="#000000" stroke-width="1.0" d="M 692.3247148288973, 399.0L723.4844672344981, 399.0"/>
<path fill="none" stroke="#000000" stroke-width="1.0" d="M 728.5227272727273, 399.0L1280.0, 399.0"/>
<path fill="none" stroke="#000000" stroke-width="1.0" d="M 0.0, 405.0L537.5374413862128, 405.0"/>
<path fill="none" stroke="#000000" stroke-width="1.0" d="M 554.8462177205737, 405.0L614.7330047146884, 405.0"/>
<path fill="none" stroke="#000000" stroke-width="1.0" d="M 627.4731928198528, 405.0L677.940172413793, 405.0"/>
<path fill="none" stroke="#000000" stroke-width="1.0" d="M 691.5034220532318, 405.0L1280.0, 405.0"/>
<path fill="none" stroke="#000000" stroke-width="1.0" d="M 0.0, 411.0L540.971541445261, 411.0"/>
<path fill="none" stroke="#000000" stroke-width="1.0" d="M 558.5665167846131, 411.0L612.1105827872417, 411.0"/>
<path fill="none" stroke="#000000" stroke-width="1.0" d="M 623.9173370662852, 411.0L677.12249346066, 411.0"/>
<path fill="none" stroke="#000000" stroke-width="1.0" d="M 690.6821292775664, 411.0L1280.0, 411.0"/>
<path fill="none" stroke="#000000" stroke-width="1.0" d="M 0.0, 417.0L545.7428599162864, 417.0"/>
<path fill="none" stroke="#000000" stroke-width="1.0" d="M 563.8217797866312, 417.0L607.8675024858486, 417.0"/>
<path fill="none" stroke="#000000" stroke-width="1.0" d="M 618.9409534453173, 417.0L675.9844405071535, 417.0"/>
<path fill="none" stroke="#000000" stroke-width="1.0" d="M 690.0229757818397, 417.0L1280.0, 417.0"/>
<path fill="none" stroke="#000000" stroke-width="1.0" d="M 0.0, 423.0L552.5551144238026, 423.0"/>
<path fill="none" stroke="#000000" stroke-width="1.0" d="M 572.3218019278042, 423.0L600.2164534972577, 423.0"/>
<path fill="none" stroke="#000000" stroke-width="1.0" d="M 611.782435144701, 423.0L662.242857142857, 423.0"/>
<path fill="none" stroke="#000000" stroke-width="1.0" d="M 690.8887559032146, 423.0L1280.0, 423.0"/>
<path fill="none" stroke="#000000" stroke-width="1.0" d="M 0.0, 429.0L563.7391073535315, 429.0"/>
<path fill="none" stroke="#000000" stroke-width="1.0" d="M 599.9379887490825, 429.0L677.8464285714283, 429.0"/>
<path fill="none" stroke="#000000" stroke-width="1.0" d="M 703.2857142857141, 429.0L1280.0, 429.0"/>
<path fill="none" stroke="#000000" stroke-width="1.0" d="M 0.0, 435.0L1280.0, 435.0"/>
<path fill="none" stroke="#000000" stroke-width="1.0" d="M 0.0, 441.0L1280.0, 441.0"/>
<path fill="none" stroke="#000000" stroke-width="1.0" d="M 0.0, 447.0L1280.0, 447.0"/>
<path fill="none" stroke="#000000" stroke-width="1.0" d="M 0.0, 453.0L1280.0, 453.0"/>
<path fill="none" stroke="#000000" stroke-width="1.0" d="M 0.0, 459.0L1280.0, 459.0"/>
<path fill="none" stroke="#000000" stroke-width="1.0" d="M 0.0, 465.0L1280.0, 465.0"/>
<path fill="none" stroke="#000000" stroke-width="1.0" d="M 0.0, 471.0L576.056862745098, 471.0"/>
<path fill="none" stroke="#000000" stroke-width="1.0" d="M 646.0462724993948, 471.0L1280.0, 471.0"/>
<path fill="none" stroke="#000000" stroke-width="1.0" d="M 0.0, 477.0L589.5121804368365, 477.0"/>
<path fill="none" stroke="#000000" stroke-width="1.0" d="M 607.1089279278765, 477.0L633.3045859990418, 477.0"/>
<path fill="none" stroke="#000000" stroke-width="1.0" d="M 654.0554251536524, 477.0L731.8528677094478, 477.0"/>
<path fill="none" stroke="#000000" stroke-width="1.0" d="M 738.7409694258307, 477.0L1280.0, 477.0"/>
<path fill="none" stroke="#000000" stroke-width="1.0" d="M 0.0, 483.0L591.1538148633998, 483.0"/>
<path fill="none" stroke="#000000" stroke-width="1.0" d="M 606.711737089202, 483.0L639.366503447176, 483.0"/>
<path fill="none" stroke="#000000" stroke-width="1.0" d="M 657.9826296275266, 483.0L729.2132076666401, 483.0"/>
<path fill="none" stroke="#000000" stroke-width="1.0" d="M 751.5600000000004, 483.0L1280.0, 483.0"/>
<path fill="none" stroke="#000000" stroke-width="1.0" d="M 0.0, 489.0L591.4887077289862, 489.0"/>
<path fill="none" stroke="#000000" stroke-width="1.0" d="M 606.8525821596245, 489.0L642.1394340984658, 489.0"/>
<path fill="none" stroke="#000000" stroke-width="1.0" d="M 659.9397789359825, 489.0L726.4850156621549, 489.0"/>
<path fill="none" stroke="#000000" stroke-width="1.0" d="M 738.222838043165, 489.0L748.111358579095, 489.0"/>
<path fill="none" stroke="#000000" stroke-width="1.0" d="M 767.9600000000004, 489.0L1280.0, 489.0"/>
<path fill="none" stroke="#000000" stroke-width="1.0" d="M 0.0, 495.0L591.6377713458754, 495.0"/>
<path fill="none" stroke="#000000" stroke-width="1.0" d="M 606.993427230047, 495.0L643.3175213083141, 495.0"/>
<path fill="none" stroke="#000000" stroke-width="1.0" d="M 660.6048165388335, 495.0L723.7154682539664, 495.0"/>
<path fill="none" stroke="#000000" stroke-width="1.0" d="M 731.6665960669004, 495.0L765.7750000000002, 495.0"/>
<path fill="none" stroke="#000000" stroke-width="1.0" d="M 784.3600000000004, 495.0L1280.0, 495.0"/>
<path fill="none" stroke="#000000" stroke-width="1.0" d="M 0.0, 501.0L591.7853835021707, 501.0"/>
<path fill="none" stroke="#000000" stroke-width="1.0" d="M 607.1342723004695, 501.0L643.4910132855246, 501.0"/>
<path fill="none" stroke="#000000" stroke-width="1.0" d="M 660.1578565002609, 501.0L720.9459242472411, 501.0"/>
<path fill="none" stroke="#000000" stroke-width="1.0" d="M 727.2313412346664, 501.0L765.7557788944723, 501.0"/>
<path fill="none" stroke="#000000" stroke-width="1.0" d="M 782.1633165829146, 501.0L782.4714285714284, 501.0"/>
<path fill="none" stroke="#000000" stroke-width="1.0" d="M 800.7600000000004, 501.0L1280.0, 501.0"/>
<path fill="none" stroke="#000000" stroke-width="1.0" d="M 0.0, 507.0L455.4804102564102, 507.0"/>
<path fill="none" stroke="#000000" stroke-width="1.0" d="M 465.2425812157492, 507.0L591.9329956584659, 507.0"/>
<path fill="none" stroke="#000000" stroke-width="1.0" d="M 607.2751173708921, 507.0L642.7022778490663, 507.0"/>
<path fill="none" stroke="#000000" stroke-width="1.0" d="M 658.3584781913614, 507.0L763.5547738693467, 507.0"/>
<path fill="none" stroke="#000000" stroke-width="1.0" d="M 779.962311557789, 507.0L798.5812676764858, 507.0"/>
<path fill="none" stroke="#000000" stroke-width="1.0" d="M 823.1402000165468, 507.0L1280.0, 507.0"/>
<path fill="none" stroke="#000000" stroke-width="1.0" d="M 0.0, 513.0L455.8250256410256, 513.0"/>
<path fill="none" stroke="#000000" stroke-width="1.0" d="M 471.28477917338284, 513.0L592.0806078147612, 513.0"/>
<path fill="none" stroke="#000000" stroke-width="1.0" d="M 607.4159624413146, 513.0L640.3588163175449, 513.0"/>
<path fill="none" stroke="#000000" stroke-width="1.0" d="M 654.7637492431547, 513.0L761.3537688442211, 513.0"/>
<path fill="none" stroke="#000000" stroke-width="1.0" d="M 777.7613065326634, 513.0L808.0453413806167, 513.0"/>
<path fill="none" stroke="#000000" stroke-width="1.0" d="M 821.1446145861613, 513.0L1280.0, 513.0"/>
<path fill="none" stroke="#000000" stroke-width="1.0" d="M 0.0, 519.0L456.16964102564106, 519.0"/>
<path fill="none" stroke="#000000" stroke-width="1.0" d="M 477.32206077789886, 519.0L592.2282199710563, 519.0"/>
<path fill="none" stroke="#000000" stroke-width="1.0" d="M 607.5568075117371, 519.0L635.4000855675005, 519.0"/>
<path fill="none" stroke="#000000" stroke-width="1.0" d="M 648.5861470180042, 519.0L759.1527638190955, 519.0"/>
<path fill="none" stroke="#000000" stroke-width="1.0" d="M 775.5603015075377, 519.0L810.2306631905506, 519.0"/>
<path fill="none" stroke="#000000" stroke-width="1.0" d="M 819.2975266182123, 519.0L1280.0, 519.0"/>
<path fill="none" stroke="#000000" stroke-width="1.0" d="M 0.0, 525.0L456.5142564102564, 525.0"/>
<path fill="none" stroke="#000000" stroke-width="1.0" d="M 483.35691646497673, 525.0L592.3758321273516, 525.0"/>
<path fill="none" stroke="#000000" stroke-width="1.0" d="M 607.6976525821597, 525.0L615.7, 525.0"/>
<path fill="none" stroke="#000000" stroke-width="1.0" d="M 639.2264288318264, 525.0L756.9517587939698, 525.0"/>
<path fill="none" stroke="#000000" stroke-width="1.0" d="M 773.3592964824121, 525.0L810.4997120778063, 525.0"/>
<path fill="none" stroke="#000000" stroke-width="1.0" d="M 817.5398731487917, 525.0L1280.0, 525.0"/>
<path fill="none" stroke="#000000" stroke-width="1.0" d="M 0.0, 531.0L456.85887179487173, 531.0"/>
<path fill="none" stroke="#000000" stroke-width="1.0" d="M 463.0909886658327, 531.0L467.76948640483386, 531.0"/>
<path fill="none" stroke="#000000" stroke-width="1.0" d="M 489.39174217975767, 531.0L592.5234442836468, 531.0"/>
<path fill="none" stroke="#000000" stroke-width="1.0" d="M 607.8025735294117, 531.0L618.3418388842734, 531.0"/>
<path fill="none" stroke="#000000" stroke-width="1.0" d="M 642.8791799979488, 531.0L754.7507537688442, 531.0"/>
<path fill="none" stroke="#000000" stroke-width="1.0" d="M 771.1582914572865, 531.0L810.02165627919, 531.0"/>
<path fill="none" stroke="#000000" stroke-width="1.0" d="M 815.8459404825458, 531.0L1280.0, 531.0"/>
<path fill="none" stroke="#000000" stroke-width="1.0" d="M 0.0, 537.0L457.2034871794872, 537.0"/>
<path fill="none" stroke="#000000" stroke-width="1.0" d="M 463.5136800057386, 537.0L473.60634441087615, 537.0"/>
<path fill="none" stroke="#000000" stroke-width="1.0" d="M 495.4288851558704, 537.0L592.671056439942, 537.0"/>
<path fill="none" stroke="#000000" stroke-width="1.0" d="M 607.9569852941177, 537.0L628.0343898664916, 537.0"/>
<path fill="none" stroke="#000000" stroke-width="1.0" d="M 646.7640873331181, 537.0L752.5497487437186, 537.0"/>
<path fill="none" stroke="#000000" stroke-width="1.0" d="M 768.9572864321608, 537.0L1280.0, 537.0"/>
<path fill="none" stroke="#000000" stroke-width="1.0" d="M 0.0, 543.0L457.5481025641025, 543.0"/>
<path fill="none" stroke="#000000" stroke-width="1.0" d="M 463.9829016086054, 543.0L479.4432024169183, 543.0"/>
<path fill="none" stroke="#000000" stroke-width="1.0" d="M 501.4706865599179, 543.0L592.8186685962372, 543.0"/>
<path fill="none" stroke="#000000" stroke-width="1.0" d="M 608.1113970588235, 543.0L631.8490998566216, 543.0"/>
<path fill="none" stroke="#000000" stroke-width="1.0" d="M 650.7741027223356, 543.0L750.3487437185929, 543.0"/>
<path fill="none" stroke="#000000" stroke-width="1.0" d="M 766.7562814070352, 543.0L1280.0, 543.0"/>
<path fill="none" stroke="#000000" stroke-width="1.0" d="M 0.0, 549.0L457.892717948718, 549.0"/>
<path fill="none" stroke="#000000" stroke-width="1.0" d="M 464.48722499672095, 549.0L485.28006042296073, 549.0"/>
<path fill="none" stroke="#000000" stroke-width="1.0" d="M 507.5195232279991, 549.0L592.9662807525325, 549.0"/>
<path fill="none" stroke="#000000" stroke-width="1.0" d="M 608.2658088235294, 549.0L635.6610831551546, 549.0"/>
<path fill="none" stroke="#000000" stroke-width="1.0" d="M 654.8909690998973, 549.0L748.1477386934673, 549.0"/>
<path fill="none" stroke="#000000" stroke-width="1.0" d="M 764.5552763819096, 549.0L880.7999999999998, 549.0"/>
<path fill="none" stroke="#000000" stroke-width="1.0" d="M 888.0110091743118, 549.0L1280.0, 549.0"/>
<path fill="none" stroke="#000000" stroke-width="1.0" d="M 0.0, 555.0L458.2373333333333, 555.0"/>
<path fill="none" stroke="#000000" stroke-width="1.0" d="M 465.01534173726725, 555.0L491.1169184290029, 555.0"/>
<path fill="none" stroke="#000000" stroke-width="1.0" d="M 513.5778506015067, 555.0L593.1138929088277, 555.0"/>
<path fill="none" stroke="#000000" stroke-width="1.0" d="M 608.4202205882352, 555.0L639.5715127666487, 555.0"/>
<path fill="none" stroke="#000000" stroke-width="1.0" d="M 659.3601923664878, 555.0L745.9467336683417, 555.0"/>
<path fill="none" stroke="#000000" stroke-width="1.0" d="M 762.3542713567839, 555.0L885.7150296934099, 555.0"/>
<path fill="none" stroke="#000000" stroke-width="1.0" d="M 894.0293577981649, 555.0L1280.0, 555.0"/>
<path fill="none" stroke="#000000" stroke-width="1.0" d="M 0.0, 561.0L458.5819487179487, 561.0"/>
<path fill="none" stroke="#000000" stroke-width="1.0" d="M 465.55582238599357, 561.0L491.6589552238807, 561.0"/>
<path fill="none" stroke="#000000" stroke-width="1.0" d="M 519.6482490624081, 561.0L593.2323799754774, 561.0"/>
<path fill="none" stroke="#000000" stroke-width="1.0" d="M 608.6064449480926, 561.0L643.6795171688735, 561.0"/>
<path fill="none" stroke="#000000" stroke-width="1.0" d="M 664.0311736861127, 561.0L743.7457286432161, 561.0"/>
<path fill="none" stroke="#000000" stroke-width="1.0" d="M 760.1532663316583, 561.0L887.9746971882481, 561.0"/>
<path fill="none" stroke="#000000" stroke-width="1.0" d="M 900.0477064220182, 561.0L1280.0, 561.0"/>
<path fill="none" stroke="#000000" stroke-width="1.0" d="M 0.0, 567.0L458.92656410256404, 567.0"/>
<path fill="none" stroke="#000000" stroke-width="1.0" d="M 466.0968583428087, 567.0L478.80820895522396, 567.0"/>
<path fill="none" stroke="#000000" stroke-width="1.0" d="M 495.91069182389947, 567.0L503.07299983771844, 567.0"/>
<path fill="none" stroke="#000000" stroke-width="1.0" d="M 525.7334761865243, 567.0L592.9262534730749, 567.0"/>
<path fill="none" stroke="#000000" stroke-width="1.0" d="M 609.2548713950583, 567.0L648.1384705939347, 567.0"/>
<path fill="none" stroke="#000000" stroke-width="1.0" d="M 669.4915477050208, 567.0L741.5447236180904, 567.0"/>
<path fill="none" stroke="#000000" stroke-width="1.0" d="M 757.9522613065327, 567.0L884.9462930204598, 567.0"/>
<path fill="none" stroke="#000000" stroke-width="1.0" d="M 906.0660550458714, 567.0L1280.0, 567.0"/>
<path fill="none" stroke="#000000" stroke-width="1.0" d="M 0.0, 573.0L459.2711794871795, 573.0"/>
<path fill="none" stroke="#000000" stroke-width="1.0" d="M 483.1559748427673, 573.0L509.00971559524356, 573.0"/>
<path fill="none" stroke="#000000" stroke-width="1.0" d="M 531.8307291347301, 573.0L589.6938109836989, 573.0"/>
<path fill="none" stroke="#000000" stroke-width="1.0" d="M 613.8207435972844, 573.0L654.0253101395291, 573.0"/>
<path fill="none" stroke="#000000" stroke-width="1.0" d="M 677.1094697109377, 573.0L739.3437185929648, 573.0"/>
<path fill="none" stroke="#000000" stroke-width="1.0" d="M 755.751256281407, 573.0L879.304480651731, 573.0"/>
<path fill="none" stroke="#000000" stroke-width="1.0" d="M 912.0844036697246, 573.0L1280.0, 573.0"/>
<path fill="none" stroke="#000000" stroke-width="1.0" d="M 0.0, 579.0L347.2253012048193, 579.0"/>
<path fill="none" stroke="#000000" stroke-width="1.0" d="M 349.99950116902266, 579.0L459.61579487179483, 579.0"/>
<path fill="none" stroke="#000000" stroke-width="1.0" d="M 470.40125786163526, 579.0L514.9121217604209, 579.0"/>
<path fill="none" stroke="#000000" stroke-width="1.0" d="M 538.9965420286891, 579.0L554.8, 579.0"/>
<path fill="none" stroke="#000000" stroke-width="1.0" d="M 554.8, 579.0L577.9673469387754, 579.0"/>
<path fill="none" stroke="#000000" stroke-width="1.0" d="M 624.6897959183674, 579.0L668.3269896593152, 579.0"/>
<path fill="none" stroke="#000000" stroke-width="1.0" d="M 681.8666666666666, 579.0L737.096274524691, 579.0"/>
<path fill="none" stroke="#000000" stroke-width="1.0" d="M 753.5502512562814, 579.0L873.3289205702646, 579.0"/>
<path fill="none" stroke="#000000" stroke-width="1.0" d="M 895.2803544058905, 579.0L910.3526566307813, 579.0"/>
<path fill="none" stroke="#000000" stroke-width="1.0" d="M 916.2999999999998, 579.0L1280.0, 579.0"/>
<path fill="none" stroke="#000000" stroke-width="1.0" d="M 0.0, 585.0L341.8036144578314, 585.0"/>
<path fill="none" stroke="#000000" stroke-width="1.0" d="M 357.5641075363833, 585.0L459.9604102564102, 585.0"/>
<path fill="none" stroke="#000000" stroke-width="1.0" d="M 467.4741724429692, 585.0L520.693851267491, 585.0"/>
<path fill="none" stroke="#000000" stroke-width="1.0" d="M 553.7235294117646, 585.0L716.6630434782609, 585.0"/>
<path fill="none" stroke="#000000" stroke-width="1.0" d="M 717.0522773236029, 585.0L733.6568932615937, 585.0"/>
<path fill="none" stroke="#000000" stroke-width="1.0" d="M 751.4826598009563, 585.0L867.3533604887982, 585.0"/>
<path fill="none" stroke="#000000" stroke-width="1.0" d="M 889.1111675126903, 585.0L1280.0, 585.0"/>
<path fill="none" stroke="#000000" stroke-width="1.0" d="M 0.0, 591.0L336.3819277108434, 591.0"/>
<path fill="none" stroke="#000000" stroke-width="1.0" d="M 365.2375303506882, 591.0L460.3050256410256, 591.0"/>
<path fill="none" stroke="#000000" stroke-width="1.0" d="M 468.1392322748377, 591.0L523.0379874425869, 591.0"/>
<path fill="none" stroke="#000000" stroke-width="1.0" d="M 541.0176470588235, 591.0L719.1271676300578, 591.0"/>
<path fill="none" stroke="#000000" stroke-width="1.0" d="M 750.5856440336545, 591.0L861.3778004073318, 591.0"/>
<path fill="none" stroke="#000000" stroke-width="1.0" d="M 883.1416243654821, 591.0L1280.0, 591.0"/>
<path fill="none" stroke="#000000" stroke-width="1.0" d="M 0.0, 597.0L330.9602409638554, 597.0"/>
<path fill="none" stroke="#000000" stroke-width="1.0" d="M 339.86810989583364, 597.0L363.8797841786794, 597.0"/>
<path fill="none" stroke="#000000" stroke-width="1.0" d="M 365.67727272727274, 597.0L460.649641025641, 597.0"/>
<path fill="none" stroke="#000000" stroke-width="1.0" d="M 468.84586322484256, 597.0L516.267191229312, 597.0"/>
<path fill="none" stroke="#000000" stroke-width="1.0" d="M 528.3117647058824, 597.0L735.6358381502889, 597.0"/>
<path fill="none" stroke="#000000" stroke-width="1.0" d="M 754.4568460964599, 597.0L855.4022403258655, 597.0"/>
<path fill="none" stroke="#000000" stroke-width="1.0" d="M 877.172081218274, 597.0L1280.0, 597.0"/>
<path fill="none" stroke="#000000" stroke-width="1.0" d="M 0.0, 603.0L325.5385542168675, 603.0"/>
<path fill="none" stroke="#000000" stroke-width="1.0" d="M 333.96620515430504, 603.0L460.9942564102564, 603.0"/>
<path fill="none" stroke="#000000" stroke-width="1.0" d="M 469.61825548088007, 603.0L752.14450867052, 603.0"/>
<path fill="none" stroke="#000000" stroke-width="1.0" d="M 764.004347826087, 603.0L849.426680244399, 603.0"/>
<path fill="none" stroke="#000000" stroke-width="1.0" d="M 872.2011904761902, 603.0L934.8226567254031, 603.0"/>
<path fill="none" stroke="#000000" stroke-width="1.0" d="M 942.1128048780486, 603.0L1280.0, 603.0"/>
<path fill="none" stroke="#000000" stroke-width="1.0" d="M 0.0, 609.0L320.11686746987954, 609.0"/>
<path fill="none" stroke="#000000" stroke-width="1.0" d="M 328.525, 609.0L371.31052631578945, 609.0"/>
<path fill="none" stroke="#000000" stroke-width="1.0" d="M 371.51071428571436, 609.0L461.14397934604483, 609.0"/>
<path fill="none" stroke="#000000" stroke-width="1.0" d="M 470.44218454127974, 609.0L843.4511201629327, 609.0"/>
<path fill="none" stroke="#000000" stroke-width="1.0" d="M 865.5, 609.0L868.1030952380953, 609.0"/>
<path fill="none" stroke="#000000" stroke-width="1.0" d="M 878.2154761904759, 609.0L939.5184293810556, 609.0"/>
<path fill="none" stroke="#000000" stroke-width="1.0" d="M 948.1310975609754, 609.0L1280.0, 609.0"/>
<path fill="none" stroke="#000000" stroke-width="1.0" d="M 0.0, 615.0L314.69518072289156, 615.0"/>
<path fill="none" stroke="#000000" stroke-width="1.0" d="M 323.18403141675003, 615.0L369.70313681886677, 615.0"/>
<path fill="none" stroke="#000000" stroke-width="1.0" d="M 378.15357142857147, 615.0L460.7902947838386, 615.0"/>
<path fill="none" stroke="#000000" stroke-width="1.0" d="M 487.0866666666667, 615.0L837.4755600814663, 615.0"/>
<path fill="none" stroke="#000000" stroke-width="1.0" d="M 859.4999999999998, 615.0L874.1173809523809, 615.0"/>
<path fill="none" stroke="#000000" stroke-width="1.0" d="M 884.2297619047616, 615.0L940.8451860058108, 615.0"/>
<path fill="none" stroke="#000000" stroke-width="1.0" d="M 954.1493902439022, 615.0L1280.0, 615.0"/>
<path fill="none" stroke="#000000" stroke-width="1.0" d="M 0.0, 621.0L309.27349397590365, 621.0"/>
<path fill="none" stroke="#000000" stroke-width="1.0" d="M 324.79131393385967, 621.0L372.91834250138, 621.0"/>
<path fill="none" stroke="#000000" stroke-width="1.0" d="M 384.7964285714286, 621.0L458.6830132066262, 621.0"/>
<path fill="none" stroke="#000000" stroke-width="1.0" d="M 477.10858895705525, 621.0L831.4999999999999, 621.0"/>
<path fill="none" stroke="#000000" stroke-width="1.0" d="M 853.4999999999999, 621.0L880.1316666666668, 621.0"/>
<path fill="none" stroke="#000000" stroke-width="1.0" d="M 890.2440476190473, 621.0L937.0070216429441, 621.0"/>
<path fill="none" stroke="#000000" stroke-width="1.0" d="M 960.167682926829, 621.0L1280.0, 621.0"/>
<path fill="none" stroke="#000000" stroke-width="1.0" d="M 0.0, 627.0L303.8518072289157, 627.0"/>
<path fill="none" stroke="#000000" stroke-width="1.0" d="M 331.42813688212925, 627.0L371.6363227304429, 627.0"/>
<path fill="none" stroke="#000000" stroke-width="1.0" d="M 391.43928571428575, 627.0L418.4, 627.0"/>
<path fill="none" stroke="#000000" stroke-width="1.0" d="M 418.4, 627.0L451.94316588542495, 627.0"/>
<path fill="none" stroke="#000000" stroke-width="1.0" d="M 464.2619631901841, 627.0L806.9091185410333, 627.0"/>
<path fill="none" stroke="#000000" stroke-width="1.0" d="M 815.3581187261645, 627.0L824.8239755622025, 627.0"/>
<path fill="none" stroke="#000000" stroke-width="1.0" d="M 847.4999999999998, 627.0L886.1459523809524, 627.0"/>
<path fill="none" stroke="#000000" stroke-width="1.0" d="M 896.258333333333, 627.0L931.2111675126902, 627.0"/>
<path fill="none" stroke="#000000" stroke-width="1.0" d="M 966.1859756097558, 627.0L1280.0, 627.0"/>
<path fill="none" stroke="#000000" stroke-width="1.0" d="M 0.0, 633.0L298.4301204819277, 633.0"/>
<path fill="none" stroke="#000000" stroke-width="1.0" d="M 307.17004189769006, 633.0L313.81812250154735, 633.0"/>
<path fill="none" stroke="#000000" stroke-width="1.0" d="M 338.0669201520913, 633.0L367.03801728514566, 633.0"/>
<path fill="none" stroke="#000000" stroke-width="1.0" d="M 377.20359878474653, 633.0L389.233375700282, 633.0"/>
<path fill="none" stroke="#000000" stroke-width="1.0" d="M 394.67894736842106, 633.0L415.5593516252404, 633.0"/>
<path fill="none" stroke="#000000" stroke-width="1.0" d="M 422.9131296250033, 633.0L812.945592705167, 633.0"/>
<path fill="none" stroke="#000000" stroke-width="1.0" d="M 841.5198718375783, 633.0L892.1602380952381, 633.0"/>
<path fill="none" stroke="#000000" stroke-width="1.0" d="M 902.2726190476187, 633.0L925.241624365482, 633.0"/>
<path fill="none" stroke="#000000" stroke-width="1.0" d="M 947.6016525339626, 633.0L964.9072241067885, 633.0"/>
<path fill="none" stroke="#000000" stroke-width="1.0" d="M 969.5166666666667, 633.0L1280.0, 633.0"/>
<path fill="none" stroke="#000000" stroke-width="1.0" d="M 0.0, 639.0L299.47647058823526, 639.0"/>
<path fill="none" stroke="#000000" stroke-width="1.0" d="M 299.91088052499623, 639.0L321.62249446521525, 639.0"/>
<path fill="none" stroke="#000000" stroke-width="1.0" d="M 344.70570342205326, 639.0L361.63, 639.0"/>
<path fill="none" stroke="#000000" stroke-width="1.0" d="M 371.19813583595436, 639.0L418.07235074776975, 639.0"/>
<path fill="none" stroke="#000000" stroke-width="1.0" d="M 427.3116499461827, 639.0L818.9820668693008, 639.0"/>
<path fill="none" stroke="#000000" stroke-width="1.0" d="M 836.4298546449824, 639.0L898.1745238095239, 639.0"/>
<path fill="none" stroke="#000000" stroke-width="1.0" d="M 908.2869047619045, 639.0L919.2720812182739, 639.0"/>
<path fill="none" stroke="#000000" stroke-width="1.0" d="M 941.519512195122, 639.0L1280.0, 639.0"/>
<path fill="none" stroke="#000000" stroke-width="1.0" d="M 0.0, 645.0L328.2657952069716, 645.0"/>
<path fill="none" stroke="#000000" stroke-width="1.0" d="M 351.34448669201527, 645.0L356.1800000000001, 645.0"/>
<path fill="none" stroke="#000000" stroke-width="1.0" d="M 365.75454545454545, 645.0L419.8968559467102, 645.0"/>
<path fill="none" stroke="#000000" stroke-width="1.0" d="M 431.59625632393625, 645.0L825.0185410334345, 645.0"/>
<path fill="none" stroke="#000000" stroke-width="1.0" d="M 835.2384733744627, 645.0L904.1888095238095, 645.0"/>
<path fill="none" stroke="#000000" stroke-width="1.0" d="M 935.5560975609757, 645.0L1280.0, 645.0"/>
<path fill="none" stroke="#000000" stroke-width="1.0" d="M 0.0, 651.0L334.9063180827886, 651.0"/>
<path fill="none" stroke="#000000" stroke-width="1.0" d="M 360.3, 651.0L420.56722208430375, 651.0"/>
<path fill="none" stroke="#000000" stroke-width="1.0" d="M 433.9061708860759, 651.0L831.0550151975683, 651.0"/>
<path fill="none" stroke="#000000" stroke-width="1.0" d="M 838.7763779793859, 651.0L907.5999999999998, 651.0"/>
<path fill="none" stroke="#000000" stroke-width="1.0" d="M 929.5926829268294, 651.0L1280.0, 651.0"/>
<path fill="none" stroke="#000000" stroke-width="1.0" d="M 0.0, 657.0L341.54684095860557, 657.0"/>
<path fill="none" stroke="#000000" stroke-width="1.0" d="M 364.7193548387099, 657.0L418.67456754743404, 657.0"/>
<path fill="none" stroke="#000000" stroke-width="1.0" d="M 428.4852848101266, 657.0L837.0914893617021, 657.0"/>
<path fill="none" stroke="#000000" stroke-width="1.0" d="M 839.8999999999999, 657.0L901.5999999999999, 657.0"/>
<path fill="none" stroke="#000000" stroke-width="1.0" d="M 923.6292682926828, 657.0L1280.0, 657.0"/>
<path fill="none" stroke="#000000" stroke-width="1.0" d="M 0.0, 663.0L348.18736383442257, 663.0"/>
<path fill="none" stroke="#000000" stroke-width="1.0" d="M 371.35529953917063, 663.0L414.57295159510306, 663.0"/>
<path fill="none" stroke="#000000" stroke-width="1.0" d="M 423.0643987341772, 663.0L895.5999999999999, 663.0"/>
<path fill="none" stroke="#000000" stroke-width="1.0" d="M 917.6658536585367, 663.0L1280.0, 663.0"/>
<path fill="none" stroke="#000000" stroke-width="1.0" d="M 0.0, 669.0L354.8278867102396, 669.0"/>
<path fill="none" stroke="#000000" stroke-width="1.0" d="M 377.99124423963144, 669.0L409.37594621860444, 669.0"/>
<path fill="none" stroke="#000000" stroke-width="1.0" d="M 417.6435126582278, 669.0L889.5999999999999, 669.0"/>
<path fill="none" stroke="#000000" stroke-width="1.0" d="M 911.7024390243903, 669.0L1280.0, 669.0"/>
<path fill="none" stroke="#000000" stroke-width="1.0" d="M 0.0, 675.0L361.4684095860566, 675.0"/>
<path fill="none" stroke="#000000" stroke-width="1.0" d="M 384.65849222959673, 675.0L403.6648699912045, 675.0"/>
<path fill="none" stroke="#000000" stroke-width="1.0" d="M 412.2226265822784, 675.0L860.5, 675.0"/>
<path fill="none" stroke="#000000" stroke-width="1.0" d="M 862.2448601705307, 675.0L883.5903156740226, 675.0"/>
<path fill="none" stroke="#000000" stroke-width="1.0" d="M 905.7390243902439, 675.0L1280.0, 675.0"/>
<path fill="none" stroke="#000000" stroke-width="1.0" d="M 0.0, 681.0L368.1089324618736, 681.0"/>
<path fill="none" stroke="#000000" stroke-width="1.0" d="M 406.80174050632905, 681.0L861.1097922848664, 681.0"/>
<path fill="none" stroke="#000000" stroke-width="1.0" d="M 870.7577867429839, 681.0L875.9450343361696, 681.0"/>
<path fill="none" stroke="#000000" stroke-width="1.0" d="M 899.7756097560975, 681.0L1280.0, 681.0"/>
<path fill="none" stroke="#000000" stroke-width="1.0" d="M 0.0, 687.0L374.72903191680314, 687.0"/>
<path fill="none" stroke="#000000" stroke-width="1.0" d="M 401.3808544303797, 687.0L867.1275964391692, 687.0"/>
<path fill="none" stroke="#000000" stroke-width="1.0" d="M 893.8490920210019, 687.0L1280.0, 687.0"/>
<path fill="none" stroke="#000000" stroke-width="1.0" d="M 0.0, 693.0L380.1098661019006, 693.0"/>
<path fill="none" stroke="#000000" stroke-width="1.0" d="M 395.9599683544304, 693.0L873.1454005934718, 693.0"/>
<path fill="none" stroke="#000000" stroke-width="1.0" d="M 889.0351115523615, 693.0L1280.0, 693.0"/>
<path fill="none" stroke="#000000" stroke-width="1.0" d="M 0.0, 699.0L380.85361933377226, 699.0"/>
<path fill="none" stroke="#000000" stroke-width="1.0" d="M 390.539082278481, 699.0L879.1632047477744, 699.0"/>
<path fill="none" stroke="#000000" stroke-width="1.0" d="M 888.689046278407, 699.0L1280.0, 699.0"/>
<path fill="none" stroke="#000000" stroke-width="1.0" d="M 0.0, 705.0L377.6058336002019, 705.0"/>
<path fill="none" stroke="#000000" stroke-width="1.0" d="M 385.11819620253164, 705.0L885.1810089020771, 705.0"/>
<path fill="none" stroke="#000000" stroke-width="1.0" d="M 892.6893381896273, 705.0L1280.0, 705.0"/>
<path fill="none" stroke="#000000" stroke-width="1.0" d="M 0.0, 711.0L375.4454545454545, 711.0"/>
<path fill="none" stroke="#000000" stroke-width="1.0" d="M 379.6973101265823, 711.0L891.1988130563797, 711.0"/>
<path fill="none" stroke="#000000" stroke-width="1.0" d="M 892.0, 711.0L1280.0, 711.0"/>
<path fill="none" stroke="#000000" stroke-width="1.0" d="M 0.0, 717.0L1280.0, 717.0"/>
</g>
</svg>