<?xml version="1.0" encoding="utf-8"?>
<!DOCTYPE svg PUBLIC "-//W3C//DTD SVG 1.1 Tiny//EN" "http://www.w3.org/Graphics/SVG/1.1/DTD/svg11-tiny.dtd">
<svg version="1.1" baseProfile="tiny" id="openrndr-svg" xmlns="http://www.w3.org/2000/svg" xmlns:xlink="http://www.w3.org/1999/xlink" x="0px" y="0px" width="1280px" height="720px"><g >
<path fill="none" stroke="#000000" stroke-width="1.0" d="M 0.0, 72.0L481.07844311377255, 72.0"/>
<path fill="none" stroke="#000000" stroke-width="1.0" d="M 496.757005988024, 72.0L593.4587301587302, 72.0"/>
<path fill="none" stroke="#000000" stroke-width="1.0" d="M 609.0105263157895, 72.0L668.4280701754386, 72.0"/>
<path fill="none" stroke="#000000" stroke-width="1.0" d="M 684.0825396825397, 72.0L755.1439169139467, 72.0"/>
<path fill="none" stroke="#000000" stroke-width="1.0" d="M 771.1475324675325, 72.0L805.4198386074875, 72.0"/>
<path fill="none" stroke="#000000" stroke-width="1.0" d="M 811.9402439024391, 72.0L1280.0, 72.0"/>
<path fill="none" stroke="#000000" stroke-width="1.0" d="M 0.0, 216.0L363.4308316183026, 216.0"/>
<path fill="none" stroke="#000000" stroke-width="1.0" d="M 374.26765820594477, 216.0L415.99643211032884, 216.0"/>
<path fill="none" stroke="#000000" stroke-width="1.0" d="M 441.5330311590345, 216.0L509.54047619047645, 216.0"/>
<path fill="none" stroke="#000000" stroke-width="1.0" d="M 525.3132812500003, 216.0L591.7242424242427, 216.0"/>
<path fill="none" stroke="#000000" stroke-width="1.0" d="M 599.2431654676261, 216.0L670.429411764706, 216.0"/>
<path fill="none" stroke="#000000" stroke-width="1.0" d="M 677.8640845070423, 216.0L700.2390070921986, 216.0"/>
<path fill="none" stroke="#000000" stroke-width="1.0" d="M 719.0885350318473, 216.0L752.259501733347, 216.0"/>
<path fill="none" stroke="#000000" stroke-width="1.0" d="M 759.6717134631077, 216.0L838.0758513931889, 216.0"/>
<path fill="none" stroke="#000000" stroke-width="1.0" d="M 854.8000000000001, 216.0L886.4995312476445, 216.0"/>
<path fill="none" stroke="#000000" stroke-width="1.0" d="M 900.7616652600492, 216.0L1280.0, 216.0"/>
<path fill="none" stroke="#000000" stroke-width="1.0" d="M 0.0, 360.0L265.3806522989802, 360.0"/>
<path fill="none" stroke="#000000" stroke-width="1.0" d="M 273.5439962544951, 360.0L314.58354382608576, 360.0"/>
<path fill="none" stroke="#000000" stroke-width="1.0" d="M 322.3824436829573, 360.0L537.213403005074, 360.0"/>
<path fill="none" stroke="#000000" stroke-width="1.0" d="M 550.0091437866101, 360.0L611.6472763086205, 360.0"/>
<path fill="none" stroke="#000000" stroke-width="1.0" d="M 628.4754687057303, 360.0L684.0694827586206, 360.0"/>
<path fill="none" stroke="#000000" stroke-width="1.0" d="M 697.6547550432276, 360.0L734.77606268981, 360.0"/>
<path fill="none" stroke="#000000" stroke-width="1.0" d="M 739.6948917322072, 360.0L942.0502842368976, 360.0"/>
<path fill="none" stroke="#000000" stroke-width="1.0" d="M 952.7872426919238, 360.0L985.6590785367866, 360.0"/>
<path fill="none" stroke="#000000" stroke-width="1.0" d="M 1003.8180094492157, 360.0L1280.0, 360.0"/>
<path fill="none" stroke="#000000" stroke-width="1.0" d="M 0.0, 504.0L457.33684210526314, 504.0"/>
<path fill="none" stroke="#000000" stroke-width="1.0" d="M 462.21882200011567, 504.0L591.8591895803182, 504.0"/>
<path fill="none" stroke="#000000" stroke-width="1.0" d="M 607.2046948356808, 504.0L643.2453226446089, 504.0"/>
<path fill="none" stroke="#000000" stroke-width="1.0" d="M 659.4497863436977, 504.0L764.6552763819095, 504.0"/>
<path fill="none" stroke="#000000" stroke-width="1.0" d="M 781.0628140703518, 504.0L790.6142857142856, 504.0"/>
<path fill="none" stroke="#000000" stroke-width="1.0" d="M 808.9600000000005, 504.0L819.9222975653654, 504.0"/>
<path fill="none" stroke="#000000" stroke-width="1.0" d="M 821.3500000000004, 504.0L1280.0, 504.0"/>
<path fill="none" stroke="#000000" stroke-width="1.0" d="M 0.0, 648.0L331.58605664488005, 648.0"/>
<path fill="none" stroke="#000000" stroke-width="1.0" d="M 363.02727272727276, 648.0L420.50000000000006, 648.0"/>
<path fill="none" stroke="#000000" stroke-width="1.0" d="M 433.6601305474262, 648.0L828.0367781155014, 648.0"/>
<path fill="none" stroke="#000000" stroke-width="1.0" d="M 836.6381845340155, 648.0L907.1959523809526, 648.0"/>
<path fill="none" stroke="#000000" stroke-width="1.0" d="M 932.5743902439025, 648.0L1280.0, 648.0"/>
</g>
</svg>