<?xml version="1.0" encoding="utf-8"?>
<!DOCTYPE svg PUBLIC "-//W3C//DTD SVG 1.1 Tiny//EN" "http://www.w3.org/Graphics/SVG/1.1/DTD/svg11-tiny.dtd">
<svg version="1.1" baseProfile="tiny" id="openrndr-svg" xmlns="http://www.w3.org/2000/svg" xmlns:xlink="http://www.w3.org/1999/xlink" x="0px" y="0px" width="1280px" height="720px"><g >
<path fill="none" stroke="#000000" stroke-width="1.0" d="M 0.0, 24.0L479.77213114754124, 24.0"/>
<path fill="none" stroke="#000000" stroke-width="1.0" d="M 529.58819800259, 24.0L593.8848922724413, 24.0"/>
<path fill="none" stroke="#000000" stroke-width="1.0" d="M 610.0094963986656, 24.0L668.5141854931575, 24.0"/>
<path fill="none" stroke="#000000" stroke-width="1.0" d="M 685.3642943587296, 24.0L755.4555286494976, 24.0"/>
<path fill="none" stroke="#000000" stroke-width="1.0" d="M 787.2829787234044, 24.0L1280.0, 24.0"/>
<path fill="none" stroke="#000000" stroke-width="1.0" d="M 0.0, 72.0L481.07844311377255, 72.0"/>
<path fill="none" stroke="#000000" stroke-width="1.0" d="M 496.757005988024, 72.0L593.4587301587302, 72.0"/>
<path fill="none" stroke="#000000" stroke-width="1.0" d="M 609.0105263157895, 72.0L668.4280701754386, 72.0"/>
<path fill="none" stroke="#000000" stroke-width="1.0" d="M 684.0825396825397, 72.0L755.1439169139467, 72.0"/>
<path fill="none" stroke="#000000" stroke-width="1.0" d="M 771.1475324675325, 72.0L805.4198386074875, 72.0"/>
<path fill="none" stroke="#000000" stroke-width="1.0" d="M 811.9402439024391, 72.0L1280.0, 72.0"/>
<path fill="none" stroke="#000000" stroke-width="1.0" d="M 0.0, 120.0L489.43200753536144, 120.0"/>
<path fill="none" stroke="#000000" stroke-width="1.0" d="M 505.73704535732935, 120.0L577.3448979591836, 120.0"/>
<path fill="none" stroke="#000000" stroke-width="1.0" d="M 624.0612244897959, 120.0L651.2693877551019, 120.0"/>
<path fill="none" stroke="#000000" stroke-width="1.0" d="M 698.9857142857143, 120.0L745.0737364257727, 120.0"/>
<path fill="none" stroke="#000000" stroke-width="1.0" d="M 763.0708358280419, 120.0L814.049383842268, 120.0"/>
<path fill="none" stroke="#000000" stroke-width="1.0" d="M 820.722477461546, 120.0L1280.0, 120.0"/>
<path fill="none" stroke="#000000" stroke-width="1.0" d="M 0.0, 168.0L567.4058823529414, 168.0"/>
<path fill="none" stroke="#000000" stroke-width="1.0" d="M 601.3914041577316, 168.0L665.6338391317815, 168.0"/>
<path fill="none" stroke="#000000" stroke-width="1.0" d="M 687.1904458598727, 168.0L1280.0, 168.0"/>
<path fill="none" stroke="#000000" stroke-width="1.0" d="M 0.0, 216.0L363.4308316183026, 216.0"/>
<path fill="none" stroke="#000000" stroke-width="1.0" d="M 374.26765820594477, 216.0L415.99643211032884, 216.0"/>
<path fill="none" stroke="#000000" stroke-width="1.0" d="M 441.5330311590345, 216.0L509.54047619047645, 216.0"/>
<path fill="none" stroke="#000000" stroke-width="1.0" d="M 525.3132812500003, 216.0L591.7242424242427, 216.0"/>
<path fill="none" stroke="#000000" stroke-width="1.0" d="M 599.2431654676261, 216.0L670.429411764706, 216.0"/>
<path fill="none" stroke="#000000" stroke-width="1.0" d="M 677.8640845070423, 216.0L700.2390070921986, 216.0"/>
<path fill="none" stroke="#000000" stroke-width="1.0" d="M 719.0885350318473, 216.0L752.259501733347, 216.0"/>
<path fill="none" stroke="#000000" stroke-width="1.0" d="M 759.6717134631077, 216.0L838.0758513931889, 216.0"/>
<path fill="none" stroke="#000000" stroke-width="1.0" d="M 854.8000000000001, 216.0L886.4995312476445, 216.0"/>
<path fill="none" stroke="#000000" stroke-width="1.0" d="M 900.7616652600492, 216.0L1280.0, 216.0"/>
<path fill="none" stroke="#000000" stroke-width="1.0" d="M 0.0, 264.0L261.03369731950517, 264.0"/>
<path fill="none" stroke="#000000" stroke-width="1.0" d="M 278.89933890787177, 264.0L343.6652696733647, 264.0"/>
<path fill="none" stroke="#000000" stroke-width="1.0" d="M 361.10605307511406, 264.0L444.59044030881, 264.0"/>
<path fill="none" stroke="#000000" stroke-width="1.0" d="M 460.72179885042533, 264.0L519.7837474484027, 264.0"/>
<path fill="none" stroke="#000000" stroke-width="1.0" d="M 540.0355828184748, 264.0L582.7810869452245, 264.0"/>
<path fill="none" stroke="#000000" stroke-width="1.0" d="M 593.159044814121, 264.0L661.887543538418, 264.0"/>
<path fill="none" stroke="#000000" stroke-width="1.0" d="M 674.3902732632025, 264.0L731.4122593718339, 264.0"/>
<path fill="none" stroke="#000000" stroke-width="1.0" d="M 753.9898843930637, 264.0L820.0944272445821, 264.0"/>
<path fill="none" stroke="#000000" stroke-width="1.0" d="M 836.8359281437125, 264.0L906.8496240308733, 264.0"/>
<path fill="none" stroke="#000000" stroke-width="1.0" d="M 925.191526885458, 264.0L1280.0, 264.0"/>
<path fill="none" stroke="#000000" stroke-width="1.0" d="M 0.0, 312.0L238.97420552267445, 312.0"/>
<path fill="none" stroke="#000000" stroke-width="1.0" d="M 311.4258854571854, 312.0L372.1510841571298, 312.0"/>
<path fill="none" stroke="#000000" stroke-width="1.0" d="M 430.3152572321959, 312.0L843.8971113585505, 312.0"/>
<path fill="none" stroke="#000000" stroke-width="1.0" d="M 888.1080068158219, 312.0L974.7171009554498, 312.0"/>
<path fill="none" stroke="#000000" stroke-width="1.0" d="M 993.5522273254127, 312.0L1280.0, 312.0"/>
<path fill="none" stroke="#000000" stroke-width="1.0" d="M 0.0, 360.0L265.3806522989802, 360.0"/>
<path fill="none" stroke="#000000" stroke-width="1.0" d="M 273.5439962544951, 360.0L314.58354382608576, 360.0"/>
<path fill="none" stroke="#000000" stroke-width="1.0" d="M 322.3824436829573, 360.0L537.213403005074, 360.0"/>
<path fill="none" stroke="#000000" stroke-width="1.0" d="M 550.0091437866101, 360.0L611.6472763086205, 360.0"/>
<path fill="none" stroke="#000000" stroke-width="1.0" d="M 628.4754687057303, 360.0L684.0694827586206, 360.0"/>
<path fill="none" stroke="#000000" stroke-width="1.0" d="M 697.6547550432276, 360.0L734.77606268981, 360.0"/>
<path fill="none" stroke="#000000" stroke-width="1.0" d="M 739.6948917322072, 360.0L942.0502842368976, 360.0"/>
<path fill="none" stroke="#000000" stroke-width="1.0" d="M 952.7872426919238, 360.0L985.6590785367866, 360.0"/>
<path fill="none" stroke="#000000" stroke-width="1.0" d="M 1003.8180094492157, 360.0L1280.0, 360.0"/>
<path fill="none" stroke="#000000" stroke-width="1.0" d="M 0.0, 408.0L539.1125534748434, 408.0"/>
<path fill="none" stroke="#000000" stroke-width="1.0" d="M 556.557656214622, 408.0L613.578227780647, 408.0"/>
<path fill="none" stroke="#000000" stroke-width="1.0" d="M 625.8453993720898, 408.0L677.5315517241378, 408.0"/>
<path fill="none" stroke="#000000" stroke-width="1.0" d="M 691.0927756653991, 408.0L1280.0, 408.0"/>
<path fill="none" stroke="#000000" stroke-width="1.0" d="M 0.0, 456.0L1280.0, 456.0"/>
<path fill="none" stroke="#000000" stroke-width="1.0" d="M 0.0, 504.0L457.33684210526314, 504.0"/>
<path fill="none" stroke="#000000" stroke-width="1.0" d="M 462.21882200011567, 504.0L591.8591895803182, 504.0"/>
<path fill="none" stroke="#000000" stroke-width="1.0" d="M 607.2046948356808, 504.0L643.2453226446089, 504.0"/>
<path fill="none" stroke="#000000" stroke-width="1.0" d="M 659.4497863436977, 504.0L764.6552763819095, 504.0"/>
<path fill="none" stroke="#000000" stroke-width="1.0" d="M 781.0628140703518, 504.0L790.6142857142856, 504.0"/>
<path fill="none" stroke="#000000" stroke-width="1.0" d="M 808.9600000000005, 504.0L819.9222975653654, 504.0"/>
<path fill="none" stroke="#000000" stroke-width="1.0" d="M 821.3500000000004, 504.0L1280.0, 504.0"/>
<path fill="none" stroke="#000000" stroke-width="1.0" d="M 0.0, 552.0L458.0650256410256, 552.0"/>
<path fill="none" stroke="#000000" stroke-width="1.0" d="M 464.7490177994309, 552.0L488.19848942598185, 552.0"/>
<path fill="none" stroke="#000000" stroke-width="1.0" d="M 510.54734280764757, 552.0L593.0400868306801, 552.0"/>
<path fill="none" stroke="#000000" stroke-width="1.0" d="M 608.3430147058823, 552.0L637.5984525332807, 552.0"/>
<path fill="none" stroke="#000000" stroke-width="1.0" d="M 657.1115131683244, 552.0L747.0472361809045, 552.0"/>
<path fill="none" stroke="#000000" stroke-width="1.0" d="M 763.4547738693468, 552.0L883.3831162192288, 552.0"/>
<path fill="none" stroke="#000000" stroke-width="1.0" d="M 891.0201834862384, 552.0L1280.0, 552.0"/>
<path fill="none" stroke="#000000" stroke-width="1.0" d="M 0.0, 600.0L328.24939759036147, 600.0"/>
<path fill="none" stroke="#000000" stroke-width="1.0" d="M 336.7937954367761, 600.0L460.8219487179487, 600.0"/>
<path fill="none" stroke="#000000" stroke-width="1.0" d="M 469.22235811863396, 600.0L516.2733333333333, 600.0"/>
<path fill="none" stroke="#000000" stroke-width="1.0" d="M 521.9588235294118, 600.0L743.8901734104045, 600.0"/>
<path fill="none" stroke="#000000" stroke-width="1.0" d="M 759.5969320810866, 600.0L852.4144602851322, 600.0"/>
<path fill="none" stroke="#000000" stroke-width="1.0" d="M 874.18730964467, 600.0L936.6999999999999, 600.0"/>
<path fill="none" stroke="#000000" stroke-width="1.0" d="M 939.1036585365852, 600.0L1280.0, 600.0"/>
<path fill="none" stroke="#000000" stroke-width="1.0" d="M 0.0, 648.0L331.58605664488005, 648.0"/>
<path fill="none" stroke="#000000" stroke-width="1.0" d="M 363.02727272727276, 648.0L420.50000000000006, 648.0"/>
<path fill="none" stroke="#000000" stroke-width="1.0" d="M 433.6601305474262, 648.0L828.0367781155014, 648.0"/>
<path fill="none" stroke="#000000" stroke-width="1.0" d="M 836.6381845340155, 648.0L907.1959523809526, 648.0"/>
<path fill="none" stroke="#000000" stroke-width="1.0" d="M 932.5743902439025, 648.0L1280.0, 648.0"/>
<path fill="none" stroke="#000000" stroke-width="1.0" d="M 0.0, 696.0L381.1900727606202, 696.0"/>
<path fill="none" stroke="#000000" stroke-width="1.0" d="M 393.24952531645573, 696.0L876.1543026706231, 696.0"/>
<path fill="none" stroke="#000000" stroke-width="1.0" d="M 888.1081415709382, 696.0L1280.0, 696.0"/>
</g>
</svg>