<?xml version="1.0" encoding="UTF-8"?>
<!DOCTYPE svg PUBLIC "-//W3C//DTD SVG 1.1//EN" "http://www.w3.org/Graphics/SVG/1.1/DTD/svg11.dtd">
<svg xmlns="http://www.w3.org/2000/svg" xml:space="preserve" width="1280px" height="720px" version="1.1" style="shape-rendering:geometricPrecision; text-rendering:geometricPrecision; image-rendering:optimizeQuality; fill-rule:evenodd; clip-rule:evenodd"
     viewBox="0 0 1280 720"
>
    <path d="M677.92 446.817l0 -29.667c0,-8.962 1.69,-16.15 5.04,-21.591 3.351,-5.412 8.448,-9.106 15.262,-11.053l36.367 -10.996c3.866,-1.174 6.443,-2.52 7.732,-3.98 1.288,-1.489 1.918,-3.723 1.918,-6.672l0 -5.04c0,-4.61 -1.059,-7.789 -3.178,-9.564 -2.119,-1.747 -5.87,-2.635 -11.225,-2.635l-5.527 0c-5.326,0 -9.02,0.917 -11.11,2.72 -2.091,1.833 -3.15,4.983 -3.15,9.479l0 7.044 -30.926 0 0 -11.168c0,-10.738 3.351,-18.985 10.051,-24.74 6.7,-5.728 16.351,-8.591 28.921,-8.591l18.184 0c12.342,0 22.078,2.892 29.151,8.676 7.073,5.813 10.595,13.745 10.595,23.796l0 10.338c0,9.192 -1.89,16.58 -5.699,22.164 -3.808,5.583 -9.535,9.42 -17.181,11.482l-35.393 9.507c-2.778,0.773 -4.696,1.718 -5.699,2.806 -1.002,1.089 -1.489,2.778 -1.489,5.069l0 4.954 64.602 0 0 27.662 -97.246 0zm149.848 -74.395l0 23.882c0,10.566 1.089,17.238 3.265,20.045 2.176,2.777 6.615,4.18 13.258,4.18l5.355 0c6.586,0 10.967,-1.317 13.086,-3.98 2.119,-2.663 3.179,-9.393 3.179,-20.245l0 -23.882c0,-10.853 -1.06,-17.582 -3.179,-20.245 -2.119,-2.663 -6.5,-3.98 -13.086,-3.98l-5.355 0c-6.643,0 -11.082,1.403 -13.258,4.18 -2.176,2.806 -3.265,9.478 -3.265,20.045zm-32.128 -1.002c0,-19.043 3.264,-32.301 9.765,-39.803 6.528,-7.503 17.896,-11.254 34.104,-11.254l14.919 0c16.15,0 27.49,3.751 34.019,11.282 6.5,7.531 9.764,20.79 9.764,39.775l0 25.886c0,18.985 -3.264,32.243 -9.764,39.775 -6.529,7.531 -17.869,11.282 -34.019,11.282l-14.919 0c-16.208,0 -27.576,-3.723 -34.104,-11.197 -6.501,-7.473 -9.765,-20.76 -9.765,-39.86l0 -25.886z"/>
</svg>
