<?xml version="1.0" encoding="UTF-8"?>
<!DOCTYPE svg PUBLIC "-//W3C//DTD SVG 1.1//EN" "http://www.w3.org/Graphics/SVG/1.1/DTD/svg11.dtd">
<svg xmlns="http://www.w3.org/2000/svg" xml:space="preserve" width="1280px" height="720px" version="1.1" style="shape-rendering:geometricPrecision; text-rendering:geometricPrecision; image-rendering:optimizeQuality; fill-rule:evenodd; clip-rule:evenodd"
     viewBox="0 0 1280 720"
>
 <path d="M549.568 508.263l0 -33.766 -11.89 0 0 22.488c-0.517,0.224 -0.98,0.403 -1.389,0.537 -0.409,0.135 -0.765,0.246 -1.066,0.336 -0.216,0.045 -0.539,0.067 -0.97,0.067 -0.387,0 -0.883,0 -1.486,0l-25.136 0 0 -2.887 24.425 0 0 -18.393 -36.056 0 0 8.123 23.908 0 0 2.551 -23.908 0 0 13.358c0,1.656 0.668,3.021 2.003,4.095 1.335,1.074 2.908,1.611 4.717,1.611l30.241 0c0.603,0 1.077,0 1.422,0 0.387,0 0.667,-0.022 0.84,-0.067 0.861,-0.089 1.68,-0.358 2.455,-0.806l0 2.753 11.89 0zm0.064 24.837l0 -22.891 -50.143 0 0 16.313c0,1.835 0.711,3.378 2.133,4.631 1.378,1.298 3.037,1.947 4.975,1.947l43.035 0zm-12.212 -8.324l-26.106 0 0 -6.242 26.106 0 0 6.242zm76.83 -12.553l0 -8.995 -7.367 0 0 -17.722 6.656 0 0 -8.861 -48.205 0 0 8.861 7.173 0 0 17.722 -7.754 0 0 8.995 49.497 0zm3.101 17.923l0 -8.994 -55.506 0 0 8.994 55.506 0zm-22.228 -26.918l-10.727 0 0 -17.722 10.727 0 0 17.722zm116.052 11.412l0 -40.143 -12.277 0 0 20.81c-1.034,0.492 -2.068,0.828 -3.101,1.007 -0.862,0.134 -1.896,0.201 -3.102,0.201l-23.327 0 0 -21.212 -12.213 0 0 23.025c0,1.879 0.733,3.446 2.198,4.699 1.464,1.298 3.166,1.946 5.104,1.946l28.755 0c0.56,0 1.098,-0.033 1.615,-0.1 0.517,-0.067 1.034,-0.146 1.551,-0.235 0.948,-0.134 1.788,-0.358 2.52,-0.672l0 10.674 12.277 0zm1.099 18.46l0 -8.794 -38.706 0 0 -13.559 -12.277 0 0 15.775c0,1.835 0.711,3.378 2.132,4.631 1.465,1.298 3.145,1.947 5.041,1.947l43.81 0zm71.725 -30.409l0 -8.727 -8.206 0 0 -19.467 -12.084 0 0 59.006 12.084 0 0 -30.812 8.206 0zm-22.099 9.868c-4.006,-1.029 -7.194,-2.775 -9.563,-5.236 -3.188,-3.312 -4.782,-7.72 -4.782,-13.224l0 -8.995 12.342 0 0 -8.459 -34.376 0 0 8.459 10.855 0 0 8.995c0,4.564 -1.098,8.48 -3.295,11.747 -2.455,3.715 -5.945,5.975 -10.468,6.78 0.043,0.224 0.624,1.634 1.745,4.229 0.732,1.701 1.249,3.133 1.55,4.297 4.265,-0.493 7.711,-1.612 10.339,-3.357 2.197,-1.522 4.222,-3.715 6.074,-6.579 2.412,3.178 4.911,5.617 7.496,7.318 2.714,1.79 5.471,2.796 8.271,3.02l3.812 -8.995z"/>
</svg>
