<?xml version="1.0" encoding="utf-8"?>
<!DOCTYPE svg PUBLIC "-//W3C//DTD SVG 1.1 Tiny//EN" "http://www.w3.org/Graphics/SVG/1.1/DTD/svg11-tiny.dtd">
<svg version="1.1" baseProfile="tiny" id="openrndr-svg" xmlns="http://www.w3.org/2000/svg" xmlns:xlink="http://www.w3.org/1999/xlink" x="0px" y="0px" width="1280px" height="720px"><g >
<path fill="none" stroke="#000000" stroke-width="1.0" d="M 689.9225317018338, 60.0L820.6000000000006, 60.0"/>
<path fill="none" stroke="#000000" stroke-width="1.0" d="M 662.511620353084, 84.0L842.2708968943772, 84.0"/>
<path fill="none" stroke="#000000" stroke-width="1.0" d="M 311.37856636974266, 84.1L389.9634859772699, 84.1"/>
<path fill="none" stroke="#000000" stroke-width="1.0" d="M 646.7549068568889, 108.0L857.4084548104963, 108.0"/>
<path fill="none" stroke="#000000" stroke-width="1.0" d="M 274.5, 108.1L414.43193450983097, 108.1"/>
<path fill="none" stroke="#000000" stroke-width="1.0" d="M 639.6391874592811, 132.0L862.3908945660075, 132.0"/>
<path fill="none" stroke="#000000" stroke-width="1.0" d="M 253.42487875263058, 132.1L426.61748542402574, 132.1"/>
<path fill="none" stroke="#000000" stroke-width="1.0" d="M 637.8379055323102, 156.0L870.5409660171254, 156.0"/>
<path fill="none" stroke="#000000" stroke-width="1.0" d="M 241.36667825743223, 156.1L424.7875298922087, 156.1"/>
<path fill="none" stroke="#000000" stroke-width="1.0" d="M 641.4049601255485, 180.0L880.932527101929, 180.0"/>
<path fill="none" stroke="#000000" stroke-width="1.0" d="M 234.7068894364923, 180.1L411.6311458981247, 180.1"/>
<path fill="none" stroke="#000000" stroke-width="1.0" d="M 654.5375442900106, 204.0L891.6342834053328, 204.0"/>
<path fill="none" stroke="#000000" stroke-width="1.0" d="M 231.1186441538722, 204.1L392.4127611608465, 204.1"/>
<path fill="none" stroke="#000000" stroke-width="1.0" d="M 663.9338977851048, 228.0L670.8749931714084, 228.0"/>
<path fill="none" stroke="#000000" stroke-width="1.0" d="M 678.1000000000005, 228.0L904.8144550227541, 228.0"/>
<path fill="none" stroke="#000000" stroke-width="1.0" d="M 231.0748756229819, 228.1L333.9794401776529, 228.1"/>
<path fill="none" stroke="#000000" stroke-width="1.0" d="M 374.14528987113886, 228.1L401.63396208143143, 228.1"/>
<path fill="none" stroke="#000000" stroke-width="1.0" d="M 648.7638614232494, 252.0L690.6816921502664, 252.0"/>
<path fill="none" stroke="#000000" stroke-width="1.0" d="M 691.9159499400055, 252.0L917.5712017358745, 252.0"/>
<path fill="none" stroke="#000000" stroke-width="1.0" d="M 232.50637372516877, 252.1L325.4045064816811, 252.1"/>
<path fill="none" stroke="#000000" stroke-width="1.0" d="M 347.0852623665302, 252.1L418.91332399457133, 252.1"/>
<path fill="none" stroke="#000000" stroke-width="1.0" d="M 642.4824560994559, 276.0L712.4414914216865, 276.0"/>
<path fill="none" stroke="#000000" stroke-width="1.0" d="M 719.0552615395247, 276.0L780.6147583760817, 276.0"/>
<path fill="none" stroke="#000000" stroke-width="1.0" d="M 815.5881778532264, 276.0L929.4421826775172, 276.0"/>
<path fill="none" stroke="#000000" stroke-width="1.0" d="M 235.98106557413064, 276.1L361.22337838358595, 276.1"/>
<path fill="none" stroke="#000000" stroke-width="1.0" d="M 410.3218297026172, 276.1L460.80397817973324, 276.1"/>
<path fill="none" stroke="#000000" stroke-width="1.0" d="M 713.8302329809762, 300.0L764.7533059887728, 300.0"/>
<path fill="none" stroke="#000000" stroke-width="1.0" d="M 793.7404048877377, 300.0L939.4249563561524, 300.0"/>
<path fill="none" stroke="#000000" stroke-width="1.0" d="M 241.59578528497704, 300.1L343.5871447396223, 300.1"/>
<path fill="none" stroke="#000000" stroke-width="1.0" d="M 703.8196608002789, 324.0L713.8815942052173, 324.0"/>
<path fill="none" stroke="#000000" stroke-width="1.0" d="M 746.0000000000003, 324.0L948.5897024759785, 324.0"/>
<path fill="none" stroke="#000000" stroke-width="1.0" d="M 254.68900452555994, 324.1L328.47915287844006, 324.1"/>
<path fill="none" stroke="#000000" stroke-width="1.0" d="M 330.0973647875572, 324.1L344.74749079028163, 324.1"/>
<path fill="none" stroke="#000000" stroke-width="1.0" d="M 647.0086337375928, 348.0L752.8363342486338, 348.0"/>
<path fill="none" stroke="#000000" stroke-width="1.0" d="M 785.3052613294902, 348.0L955.2603508847658, 348.0"/>
<path fill="none" stroke="#000000" stroke-width="1.0" d="M 318.59240975642086, 348.1L373.4874305823329, 348.1"/>
<path fill="none" stroke="#000000" stroke-width="1.0" d="M 675.943570969473, 372.0L694.929758776514, 372.0"/>
<path fill="none" stroke="#000000" stroke-width="1.0" d="M 730.8964103633625, 372.0L958.8390029026193, 372.0"/>
<path fill="none" stroke="#000000" stroke-width="1.0" d="M 333.1185116162436, 372.1L344.6728166496829, 372.1"/>
<path fill="none" stroke="#000000" stroke-width="1.0" d="M 681.4736126355207, 396.0L709.366178909681, 396.0"/>
<path fill="none" stroke="#000000" stroke-width="1.0" d="M 781.9894795597007, 396.0L792.2805482649384, 396.0"/>
<path fill="none" stroke="#000000" stroke-width="1.0" d="M 799.7796218236679, 396.0L961.5134264446207, 396.0"/>
<path fill="none" stroke="#000000" stroke-width="1.0" d="M 673.4191019737432, 420.0L689.8967709171891, 420.0"/>
<path fill="none" stroke="#000000" stroke-width="1.0" d="M 783.205510936355, 420.0L793.8130640382828, 420.0"/>
<path fill="none" stroke="#000000" stroke-width="1.0" d="M 802.2365637088042, 420.0L967.363284094342, 420.0"/>
<path fill="none" stroke="#000000" stroke-width="1.0" d="M 603.3755949085552, 444.0L675.0327150679905, 444.0"/>
<path fill="none" stroke="#000000" stroke-width="1.0" d="M 788.240680489335, 444.0L797.1050375991291, 444.0"/>
<path fill="none" stroke="#000000" stroke-width="1.0" d="M 808.062363652121, 444.0L970.3286875964311, 444.0"/>
<path fill="none" stroke="#000000" stroke-width="1.0" d="M 588.3928537767684, 468.0L607.4847243067456, 468.0"/>
<path fill="none" stroke="#000000" stroke-width="1.0" d="M 795.3234737228636, 468.0L807.5656607014383, 468.0"/>
<path fill="none" stroke="#000000" stroke-width="1.0" d="M 816.3127259463691, 468.0L970.4535947875008, 468.0"/>
<path fill="none" stroke="#000000" stroke-width="1.0" d="M 594.3063069683107, 492.0L611.963472808034, 492.0"/>
<path fill="none" stroke="#000000" stroke-width="1.0" d="M 812.9775102592632, 492.0L970.5111077875009, 492.0"/>
<path fill="none" stroke="#000000" stroke-width="1.0" d="M 602.3585117288804, 516.0L631.4895620026421, 516.0"/>
<path fill="none" stroke="#000000" stroke-width="1.0" d="M 829.9557002099119, 516.0L970.1384731589453, 516.0"/>
<path fill="none" stroke="#000000" stroke-width="1.0" d="M 598.8210568783328, 540.0L614.3806304497278, 540.0"/>
<path fill="none" stroke="#000000" stroke-width="1.0" d="M 778.6999994059396, 540.0L967.8462984396442, 540.0"/>
<path fill="none" stroke="#000000" stroke-width="1.0" d="M 583.4361044003945, 564.0L608.7457937695771, 564.0"/>
<path fill="none" stroke="#000000" stroke-width="1.0" d="M 783.769380064856, 564.0L945.6375515116224, 564.0"/>
<path fill="none" stroke="#000000" stroke-width="1.0" d="M 786.9977449686268, 588.0L848.1500035274137, 588.0"/>
<path fill="none" stroke="#000000" stroke-width="1.0" d="M 788.1662851508928, 612.0L815.5710944403949, 612.0"/>
<path fill="none" stroke="#000000" stroke-width="1.0" d="M 835.5127219769008, 612.0L868.6166371859968, 612.0"/>
<path fill="none" stroke="#000000" stroke-width="1.0" d="M 787.8416447763573, 636.0L815.5808641196952, 636.0"/>
<path fill="none" stroke="#000000" stroke-width="1.0" d="M 845.0012599406491, 636.0L889.4231480669325, 636.0"/>
<path fill="none" stroke="#000000" stroke-width="1.0" d="M 729.0476739925223, 660.0L865.1326330683097, 660.0"/>
</g>
</svg>