<?xml version="1.0" encoding="utf-8"?>
<!DOCTYPE svg PUBLIC "-//W3C//DTD SVG 1.1 Tiny//EN" "http://www.w3.org/Graphics/SVG/1.1/DTD/svg11-tiny.dtd">
<svg version="1.1" baseProfile="tiny" id="openrndr-svg" xmlns="http://www.w3.org/2000/svg" xmlns:xlink="http://www.w3.org/1999/xlink" x="0px" y="0px" width="1280px" height="720px"><g >
<path fill="none" stroke="#000000" stroke-width="1.0" d="M 728.325263559109, 42.0L778.1520142657297, 42.0"/>
<path fill="none" stroke="#000000" stroke-width="1.0" d="M 699.7156825971866, 54.0L812.6814664777683, 54.0"/>
<path fill="none" stroke="#000000" stroke-width="1.0" d="M 681.8797506056965, 66.0L826.8936272203175, 66.0"/>
<path fill="none" stroke="#000000" stroke-width="1.0" d="M 667.7087016862865, 78.0L837.4610486173563, 78.0"/>
<path fill="none" stroke="#000000" stroke-width="1.0" d="M 332.98630858852266, 78.1L376.29999999999933, 78.1"/>
<path fill="none" stroke="#000000" stroke-width="1.0" d="M 658.5250027286456, 90.0L846.7027295245007, 90.0"/>
<path fill="none" stroke="#000000" stroke-width="1.0" d="M 296.84495823368684, 90.1L399.19014188456407, 90.1"/>
<path fill="none" stroke="#000000" stroke-width="1.0" d="M 650.0304301554679, 102.0L854.9421817749333, 102.0"/>
<path fill="none" stroke="#000000" stroke-width="1.0" d="M 280.37318124140273, 102.1L410.85014648437476, 102.1"/>
<path fill="none" stroke="#000000" stroke-width="1.0" d="M 644.3098436966443, 114.0L860.6013447237526, 114.0"/>
<path fill="none" stroke="#000000" stroke-width="1.0" d="M 267.31015767473957, 114.1L419.07374512220474, 114.1"/>
<path fill="none" stroke="#000000" stroke-width="1.0" d="M 640.6729402188794, 126.0L862.3544183365194, 126.0"/>
<path fill="none" stroke="#000000" stroke-width="1.0" d="M 256.3659019621604, 126.1L424.64122924624166, 126.1"/>
<path fill="none" stroke="#000000" stroke-width="1.0" d="M 639.03288962822, 138.0L863.580315795165, 138.0"/>
<path fill="none" stroke="#000000" stroke-width="1.0" d="M 250.58479808511385, 138.1L427.55249007963477, 138.1"/>
<path fill="none" stroke="#000000" stroke-width="1.0" d="M 638.0784746759116, 150.0L868.7088725993918, 150.0"/>
<path fill="none" stroke="#000000" stroke-width="1.0" d="M 244.1975069037124, 150.1L426.99344857781216, 150.1"/>
<path fill="none" stroke="#000000" stroke-width="1.0" d="M 637.9165152938087, 162.0L872.1762112527994, 162.0"/>
<path fill="none" stroke="#000000" stroke-width="1.0" d="M 239.4078808718195, 162.1L422.6265135925979, 162.1"/>
<path fill="none" stroke="#000000" stroke-width="1.0" d="M 639.5550247198546, 174.0L878.305530734311, 174.0"/>
<path fill="none" stroke="#000000" stroke-width="1.0" d="M 236.0680607808269, 174.1L416.1371744086837, 174.1"/>
<path fill="none" stroke="#000000" stroke-width="1.0" d="M 644.1500277466771, 186.0L883.0844791270825, 186.0"/>
<path fill="none" stroke="#000000" stroke-width="1.0" d="M 233.4230101111565, 186.1L403.5867905204948, 186.1"/>
<path fill="none" stroke="#000000" stroke-width="1.0" d="M 651.1251319859055, 198.0L887.961449173632, 198.0"/>
<path fill="none" stroke="#000000" stroke-width="1.0" d="M 231.53672914972282, 198.1L390.8298996325833, 198.1"/>
<path fill="none" stroke="#000000" stroke-width="1.0" d="M 659.0594272664644, 210.0L895.6974350586245, 210.0"/>
<path fill="none" stroke="#000000" stroke-width="1.0" d="M 230.90401209083416, 210.1L382.41598823871084, 210.1"/>
<path fill="none" stroke="#000000" stroke-width="1.0" d="M 384.6210328455363, 210.1L390.6668929795465, 210.1"/>
<path fill="none" stroke="#000000" stroke-width="1.0" d="M 671.6941698057733, 222.0L901.4740807275404, 222.0"/>
<path fill="none" stroke="#000000" stroke-width="1.0" d="M 230.90066843745012, 222.1L341.3071230714328, 222.1"/>
<path fill="none" stroke="#000000" stroke-width="1.0" d="M 667.3634119696395, 234.0L677.0933379430334, 234.0"/>
<path fill="none" stroke="#000000" stroke-width="1.0" d="M 687.0395576376644, 234.0L908.0807164774958, 234.0"/>
<path fill="none" stroke="#000000" stroke-width="1.0" d="M 231.34139101806284, 234.1L327.5867086402048, 234.1"/>
<path fill="none" stroke="#000000" stroke-width="1.0" d="M 364.5153268012756, 234.1L409.9690965731676, 234.1"/>
<path fill="none" stroke="#000000" stroke-width="1.0" d="M 632.5631895131735, 246.0L656.7931678358627, 246.0"/>
<path fill="none" stroke="#000000" stroke-width="1.0" d="M 674.5513025485462, 246.0L687.2844390015135, 246.0"/>
<path fill="none" stroke="#000000" stroke-width="1.0" d="M 693.2858930611536, 246.0L913.403679785833, 246.0"/>
<path fill="none" stroke="#000000" stroke-width="1.0" d="M 232.07601317371677, 246.1L325.6407445133309, 246.1"/>
<path fill="none" stroke="#000000" stroke-width="1.0" d="M 351.5244530795287, 246.1L416.0795430653998, 246.1"/>
<path fill="none" stroke="#000000" stroke-width="1.0" d="M 627.37111701678, 258.0L643.4576962476658, 258.0"/>
<path fill="none" stroke="#000000" stroke-width="1.0" d="M 652.7629352758927, 258.0L922.5867949654946, 258.0"/>
<path fill="none" stroke="#000000" stroke-width="1.0" d="M 232.9536237828796, 258.1L324.24668529749636, 258.1"/>
<path fill="none" stroke="#000000" stroke-width="1.0" d="M 343.81093236936124, 258.1L426.3550201293133, 258.1"/>
<path fill="none" stroke="#000000" stroke-width="1.0" d="M 632.5474342262933, 270.0L642.988877756079, 270.0"/>
<path fill="none" stroke="#000000" stroke-width="1.0" d="M 650.2048990439879, 270.0L928.2636724521, 270.0"/>
<path fill="none" stroke="#000000" stroke-width="1.0" d="M 234.76772446962576, 270.1L322.72767638726066, 270.1"/>
<path fill="none" stroke="#000000" stroke-width="1.0" d="M 333.4111191219828, 270.1L379.2599577268192, 270.1"/>
<path fill="none" stroke="#000000" stroke-width="1.0" d="M 407.98823341129383, 270.1L466.59163523648783, 270.1"/>
<path fill="none" stroke="#000000" stroke-width="1.0" d="M 653.4109162124371, 282.0L719.6433028144035, 282.0"/>
<path fill="none" stroke="#000000" stroke-width="1.0" d="M 735.1992282792418, 282.0L774.0844993842823, 282.0"/>
<path fill="none" stroke="#000000" stroke-width="1.0" d="M 814.3135928889458, 282.0L930.610890782415, 282.0"/>
<path fill="none" stroke="#000000" stroke-width="1.0" d="M 237.40398446184966, 282.1L347.9873630915079, 282.1"/>
<path fill="none" stroke="#000000" stroke-width="1.0" d="M 412.5181223089105, 282.1L457.4860284903226, 282.1"/>
<path fill="none" stroke="#000000" stroke-width="1.0" d="M 705.238421539114, 294.0L749.3921894613813, 294.0"/>
<path fill="none" stroke="#000000" stroke-width="1.0" d="M 800.230054163563, 294.0L937.0748870850596, 294.0"/>
<path fill="none" stroke="#000000" stroke-width="1.0" d="M 240.17504370195587, 294.1L343.0731428497755, 294.1"/>
<path fill="none" stroke="#000000" stroke-width="1.0" d="M 420.05188762946807, 294.1L462.5749821424999, 294.1"/>
<path fill="none" stroke="#000000" stroke-width="1.0" d="M 689.6957751221946, 306.0L697.0069370276974, 306.0"/>
<path fill="none" stroke="#000000" stroke-width="1.0" d="M 721.953289076263, 306.0L942.7742148195756, 306.0"/>
<path fill="none" stroke="#000000" stroke-width="1.0" d="M 243.6264846669286, 306.1L343.7884765624999, 306.1"/>
<path fill="none" stroke="#000000" stroke-width="1.0" d="M 699.6953435604509, 318.0L710.1545496493152, 318.0"/>
<path fill="none" stroke="#000000" stroke-width="1.0" d="M 737.8142698643371, 318.0L947.5260048343575, 318.0"/>
<path fill="none" stroke="#000000" stroke-width="1.0" d="M 248.78589261135835, 318.1L321.35736751674756, 318.1"/>
<path fill="none" stroke="#000000" stroke-width="1.0" d="M 330.12784184522457, 318.1L344.26192814965236, 318.1"/>
<path fill="none" stroke="#000000" stroke-width="1.0" d="M 699.2157290153491, 330.0L717.4567416577988, 330.0"/>
<path fill="none" stroke="#000000" stroke-width="1.0" d="M 754.3761193375582, 330.0L950.9539486428413, 330.0"/>
<path fill="none" stroke="#000000" stroke-width="1.0" d="M 261.59988686305627, 330.1L345.8190199795153, 330.1"/>
<path fill="none" stroke="#000000" stroke-width="1.0" d="M 666.9924231354989, 342.0L737.0961740148747, 342.0"/>
<path fill="none" stroke="#000000" stroke-width="1.0" d="M 772.4015499033412, 342.0L953.9196524238637, 342.0"/>
<path fill="none" stroke="#000000" stroke-width="1.0" d="M 314.757936829893, 342.1L371.21291953179644, 342.1"/>
<path fill="none" stroke="#000000" stroke-width="1.0" d="M 675.5523531198622, 354.0L955.5109295500959, 354.0"/>
<path fill="none" stroke="#000000" stroke-width="1.0" d="M 320.2296187277757, 354.1L373.2484753966022, 354.1"/>
<path fill="none" stroke="#000000" stroke-width="1.0" d="M 684.9759145329895, 366.0L704.5316128610895, 366.0"/>
<path fill="none" stroke="#000000" stroke-width="1.0" d="M 719.7141830198425, 366.0L958.5658315797745, 366.0"/>
<path fill="none" stroke="#000000" stroke-width="1.0" d="M 324.122522362888, 366.1L347.87551100676734, 366.1"/>
<path fill="none" stroke="#000000" stroke-width="1.0" d="M 670.1238594502124, 378.0L682.0649452119148, 378.0"/>
<path fill="none" stroke="#000000" stroke-width="1.0" d="M 721.2454823102895, 378.0L959.1007369906391, 378.0"/>
<path fill="none" stroke="#000000" stroke-width="1.0" d="M 684.2802499530654, 390.0L750.0039143111064, 390.0"/>
<path fill="none" stroke="#000000" stroke-width="1.0" d="M 776.4647818113832, 390.0L792.8343169765244, 390.0"/>
<path fill="none" stroke="#000000" stroke-width="1.0" d="M 796.8928265167405, 390.0L960.1812605323856, 390.0"/>
<path fill="none" stroke="#000000" stroke-width="1.0" d="M 678.656130704529, 402.0L697.1982414421954, 402.0"/>
<path fill="none" stroke="#000000" stroke-width="1.0" d="M 782.5896511687331, 402.0L793.6109468687604, 402.0"/>
<path fill="none" stroke="#000000" stroke-width="1.0" d="M 800.9554690961879, 402.0L962.974452148149, 402.0"/>
<path fill="none" stroke="#000000" stroke-width="1.0" d="M 675.0143356929442, 414.0L691.0899204925566, 414.0"/>
<path fill="none" stroke="#000000" stroke-width="1.0" d="M 783.2297794600461, 414.0L793.3695243398578, 414.0"/>
<path fill="none" stroke="#000000" stroke-width="1.0" d="M 801.4215171855943, 414.0L965.958369185186, 414.0"/>
<path fill="none" stroke="#000000" stroke-width="1.0" d="M 670.1736276032032, 426.0L687.4915718202335, 426.0"/>
<path fill="none" stroke="#000000" stroke-width="1.0" d="M 786.021914615628, 426.0L794.3363315262268, 426.0"/>
<path fill="none" stroke="#000000" stroke-width="1.0" d="M 803.2165553581146, 426.0L967.8915583673421, 426.0"/>
<path fill="none" stroke="#000000" stroke-width="1.0" d="M 608.2182804237418, 438.0L679.4417812451459, 438.0"/>
<path fill="none" stroke="#000000" stroke-width="1.0" d="M 787.1550036259943, 438.0L796.5843872180039, 438.0"/>
<path fill="none" stroke="#000000" stroke-width="1.0" d="M 806.1064449616639, 438.0L969.6487247046523, 438.0"/>
<path fill="none" stroke="#000000" stroke-width="1.0" d="M 598.8117203375014, 450.0L669.8221277588807, 450.0"/>
<path fill="none" stroke="#000000" stroke-width="1.0" d="M 789.4316232873028, 450.0L798.4605368313155, 450.0"/>
<path fill="none" stroke="#000000" stroke-width="1.0" d="M 809.800522501914, 450.0L970.6172348288968, 450.0"/>
<path fill="none" stroke="#000000" stroke-width="1.0" d="M 592.8589682646577, 462.0L608.479837172544, 462.0"/>
<path fill="none" stroke="#000000" stroke-width="1.0" d="M 792.7470797238119, 462.0L803.2178081336684, 462.0"/>
<path fill="none" stroke="#000000" stroke-width="1.0" d="M 813.140079279708, 462.0L970.4742415375009, 462.0"/>
<path fill="none" stroke="#000000" stroke-width="1.0" d="M 584.0408369653468, 474.0L609.7790249036757, 474.0"/>
<path fill="none" stroke="#000000" stroke-width="1.0" d="M 798.1690024233919, 474.0L812.6509149551649, 474.0"/>
<path fill="none" stroke="#000000" stroke-width="1.0" d="M 817.4510748124139, 474.0L970.4595580375008, 474.0"/>
<path fill="none" stroke="#000000" stroke-width="1.0" d="M 583.7587061068388, 486.0L608.2694195961946, 486.0"/>
<path fill="none" stroke="#000000" stroke-width="1.0" d="M 806.3985034356758, 486.0L970.5009145375008, 486.0"/>
<path fill="none" stroke="#000000" stroke-width="1.0" d="M 600.4045957439627, 498.0L622.5072047475521, 498.0"/>
<path fill="none" stroke="#000000" stroke-width="1.0" d="M 833.9593275915697, 498.0L970.4975110375008, 498.0"/>
<path fill="none" stroke="#000000" stroke-width="1.0" d="M 607.7553556897026, 510.0L629.9768317556072, 510.0"/>
<path fill="none" stroke="#000000" stroke-width="1.0" d="M 844.509285636264, 510.0L970.3485475375008, 510.0"/>
<path fill="none" stroke="#000000" stroke-width="1.0" d="M 600.2193489094382, 522.0L629.9589581628522, 522.0"/>
<path fill="none" stroke="#000000" stroke-width="1.0" d="M 811.6064298210028, 522.0L969.7150827331968, 522.0"/>
<path fill="none" stroke="#000000" stroke-width="1.0" d="M 600.0154549767475, 534.0L616.0777345965193, 534.0"/>
<path fill="none" stroke="#000000" stroke-width="1.0" d="M 783.3718157490915, 534.0L968.4965978731655, 534.0"/>
<path fill="none" stroke="#000000" stroke-width="1.0" d="M 596.7667106097161, 546.0L614.3155506960569, 546.0"/>
<path fill="none" stroke="#000000" stroke-width="1.0" d="M 776.9827344711229, 546.0L967.0541249995631, 546.0"/>
<path fill="none" stroke="#000000" stroke-width="1.0" d="M 590.6369570506546, 558.0L612.3533068005912, 558.0"/>
<path fill="none" stroke="#000000" stroke-width="1.0" d="M 781.0377755358194, 558.0L957.6685779153653, 558.0"/>
<path fill="none" stroke="#000000" stroke-width="1.0" d="M 579.7118472231126, 570.0L605.8325684125439, 570.0"/>
<path fill="none" stroke="#000000" stroke-width="1.0" d="M 786.1885371961672, 570.0L839.8139318309557, 570.0"/>
<path fill="none" stroke="#000000" stroke-width="1.0" d="M 868.8246822598671, 570.0L925.8641331902969, 570.0"/>
<path fill="none" stroke="#000000" stroke-width="1.0" d="M 786.6833032024805, 582.0L844.1350622351005, 582.0"/>
<path fill="none" stroke="#000000" stroke-width="1.0" d="M 787.3271086815132, 594.0L852.6515340193644, 594.0"/>
<path fill="none" stroke="#000000" stroke-width="1.0" d="M 787.9387745829517, 606.0L815.6192161973975, 606.0"/>
<path fill="none" stroke="#000000" stroke-width="1.0" d="M 828.3985062078623, 606.0L863.3026503136823, 606.0"/>
<path fill="none" stroke="#000000" stroke-width="1.0" d="M 788.1843750000013, 618.0L815.55687505264, 618.0"/>
<path fill="none" stroke="#000000" stroke-width="1.0" d="M 842.0871686955117, 618.0L875.5807177990131, 618.0"/>
<path fill="none" stroke="#000000" stroke-width="1.0" d="M 788.1485382373124, 630.0L815.567007705701, 630.0"/>
<path fill="none" stroke="#000000" stroke-width="1.0" d="M 848.153234215067, 630.0L888.0625000000014, 630.0"/>
<path fill="none" stroke="#000000" stroke-width="1.0" d="M 785.4108154931008, 642.0L815.5935835074504, 642.0"/>
<path fill="none" stroke="#000000" stroke-width="1.0" d="M 835.6097987415819, 642.0L886.7489720881956, 642.0"/>
<path fill="none" stroke="#000000" stroke-width="1.0" d="M 734.4867170607001, 654.0L742.5055901581666, 654.0"/>
<path fill="none" stroke="#000000" stroke-width="1.0" d="M 766.5892394424156, 654.0L873.6385618512226, 654.0"/>
<path fill="none" stroke="#000000" stroke-width="1.0" d="M 729.4781802824352, 666.0L854.6321612466372, 666.0"/>
<path fill="none" stroke="#000000" stroke-width="1.0" d="M 738.3024952662377, 678.0L807.5449636494725, 678.0"/>
</g>
</svg>