<?xml version="1.0" encoding="utf-8"?>
<!DOCTYPE svg PUBLIC "-//W3C//DTD SVG 1.1 Tiny//EN" "http://www.w3.org/Graphics/SVG/1.1/DTD/svg11-tiny.dtd">
<svg version="1.1" baseProfile="tiny" id="openrndr-svg" xmlns="http://www.w3.org/2000/svg" xmlns:xlink="http://www.w3.org/1999/xlink" x="0px" y="0px" width="1280px" height="720px"><g >
<path fill="none" stroke="#000000" stroke-width="1.0" d="M 719.4868507767973, 45.0L784.898930766496, 45.0"/>
<path fill="none" stroke="#000000" stroke-width="1.0" d="M 705.8711185274503, 51.0L807.0689415527327, 51.0"/>
<path fill="none" stroke="#000000" stroke-width="1.0" d="M 694.5273270702628, 57.0L816.9250725692895, 57.0"/>
<path fill="none" stroke="#000000" stroke-width="1.0" d="M 685.7430602953879, 63.0L823.9413976135145, 63.0"/>
<path fill="none" stroke="#000000" stroke-width="1.0" d="M 678.2269789607155, 69.0L829.465446889368, 69.0"/>
<path fill="none" stroke="#000000" stroke-width="1.0" d="M 670.9660945143831, 75.0L833.5707670694773, 75.0"/>
<path fill="none" stroke="#000000" stroke-width="1.0" d="M 664.8813930746146, 81.0L839.9351081883167, 81.0"/>
<path fill="none" stroke="#000000" stroke-width="1.0" d="M 319.294293039185, 81.1L385.9940705717595, 81.1"/>
<path fill="none" stroke="#000000" stroke-width="1.0" d="M 660.5471622360034, 87.0L844.4496019718677, 87.0"/>
<path fill="none" stroke="#000000" stroke-width="1.0" d="M 303.3043882358889, 87.1L395.6220611178718, 87.1"/>
<path fill="none" stroke="#000000" stroke-width="1.0" d="M 656.3667674806463, 93.0L848.4471765139534, 93.0"/>
<path fill="none" stroke="#000000" stroke-width="1.0" d="M 292.54023123467437, 93.1L402.2994837644257, 93.1"/>
<path fill="none" stroke="#000000" stroke-width="1.0" d="M 652.0232916726894, 99.0L853.8575905905003, 99.0"/>
<path fill="none" stroke="#000000" stroke-width="1.0" d="M 284.46226624540753, 99.1L407.1358209933205, 99.1"/>
<path fill="none" stroke="#000000" stroke-width="1.0" d="M 648.2622724112786, 105.0L855.9640824806343, 105.0"/>
<path fill="none" stroke="#000000" stroke-width="1.0" d="M 277.6465534464477, 105.1L412.785470625327, 105.1"/>
<path fill="none" stroke="#000000" stroke-width="1.0" d="M 645.4540976816443, 111.0L859.0373285822272, 111.0"/>
<path fill="none" stroke="#000000" stroke-width="1.0" d="M 270.56799774806836, 111.1L416.6892428532624, 111.1"/>
<path fill="none" stroke="#000000" stroke-width="1.0" d="M 643.2833828038044, 117.0L861.6793614471421, 117.0"/>
<path fill="none" stroke="#000000" stroke-width="1.0" d="M 264.42014832612216, 117.1L420.5696156161332, 117.1"/>
<path fill="none" stroke="#000000" stroke-width="1.0" d="M 641.458236379244, 123.0L862.3752083269017, 123.0"/>
<path fill="none" stroke="#000000" stroke-width="1.0" d="M 259.07290919680685, 123.1L423.2954499544211, 123.1"/>
<path fill="none" stroke="#000000" stroke-width="1.0" d="M 640.0819097202052, 129.0L862.3012175332947, 129.0"/>
<path fill="none" stroke="#000000" stroke-width="1.0" d="M 254.8619042900035, 129.1L425.7924728551059, 129.1"/>
<path fill="none" stroke="#000000" stroke-width="1.0" d="M 639.3025060272, 135.0L862.8199891499324, 135.0"/>
<path fill="none" stroke="#000000" stroke-width="1.0" d="M 252.0016316667942, 135.1L427.1319408083748, 135.1"/>
<path fill="none" stroke="#000000" stroke-width="1.0" d="M 638.7728669571267, 141.0L864.6362964840912, 141.0"/>
<path fill="none" stroke="#000000" stroke-width="1.0" d="M 249.16711921401082, 141.1L427.81842747997206, 141.1"/>
<path fill="none" stroke="#000000" stroke-width="1.0" d="M 638.2802374445944, 147.0L867.4000000000008, 147.0"/>
<path fill="none" stroke="#000000" stroke-width="1.0" d="M 246.29999999999993, 147.1L427.6107271438276, 147.1"/>
<path fill="none" stroke="#000000" stroke-width="1.0" d="M 637.9260247194436, 153.0L869.7060542115419, 153.0"/>
<path fill="none" stroke="#000000" stroke-width="1.0" d="M 242.38701642717646, 153.1L425.9346272289242, 153.1"/>
<path fill="none" stroke="#000000" stroke-width="1.0" d="M 637.8294753079662, 159.0L871.3285247495755, 159.0"/>
<path fill="none" stroke="#000000" stroke-width="1.0" d="M 240.37532035572025, 159.1L423.72124572461803, 159.1"/>
<path fill="none" stroke="#000000" stroke-width="1.0" d="M 638.115318819072, 165.0L873.5843020656662, 165.0"/>
<path fill="none" stroke="#000000" stroke-width="1.0" d="M 238.47945858225705, 165.1L421.38904579745736, 165.1"/>
<path fill="none" stroke="#000000" stroke-width="1.0" d="M 638.9165400701659, 171.0L876.7498710203046, 171.0"/>
<path fill="none" stroke="#000000" stroke-width="1.0" d="M 236.7966277933857, 171.1L418.00698538657116, 171.1"/>
<path fill="none" stroke="#000000" stroke-width="1.0" d="M 640.3776559318727, 177.0L879.7190401265227, 177.0"/>
<path fill="none" stroke="#000000" stroke-width="1.0" d="M 235.3849616668328, 177.1L414.1017702797599, 177.1"/>
<path fill="none" stroke="#000000" stroke-width="1.0" d="M 642.658744756583, 183.0L882.0336894780803, 183.0"/>
<path fill="none" stroke="#000000" stroke-width="1.0" d="M 234.0481777309089, 183.1L408.21384531352845, 183.1"/>
<path fill="none" stroke="#000000" stroke-width="1.0" d="M 645.3869604486792, 189.0L884.1418457542793, 189.0"/>
<path fill="none" stroke="#000000" stroke-width="1.0" d="M 232.8454589867229, 189.1L398.66138295375146, 189.1"/>
<path fill="none" stroke="#000000" stroke-width="1.0" d="M 648.1231138561836, 195.0L886.5119441073052, 195.0"/>
<path fill="none" stroke="#000000" stroke-width="1.0" d="M 231.88870098987522, 195.1L389.9332805777476, 195.1"/>
<path fill="none" stroke="#000000" stroke-width="1.0" d="M 652.513158117967, 201.0L889.6892968711329, 201.0"/>
<path fill="none" stroke="#000000" stroke-width="1.0" d="M 231.28722642079535, 201.1L392.1720565554147, 201.1"/>
<path fill="none" stroke="#000000" stroke-width="1.0" d="M 656.7791015314215, 207.0L893.6812992537642, 207.0"/>
<path fill="none" stroke="#000000" stroke-width="1.0" d="M 230.99166528668223, 207.1L391.804054918112, 207.1"/>
<path fill="none" stroke="#000000" stroke-width="1.0" d="M 661.361576347749, 213.0L897.5391521391305, 213.0"/>
<path fill="none" stroke="#000000" stroke-width="1.0" d="M 230.85339381479582, 213.1L379.4030495955801, 213.1"/>
<path fill="none" stroke="#000000" stroke-width="1.0" d="M 668.6690206181345, 219.0L899.9115642183966, 219.0"/>
<path fill="none" stroke="#000000" stroke-width="1.0" d="M 230.85404039929756, 219.1L344.77612012201, 219.1"/>
<path fill="none" stroke="#000000" stroke-width="1.0" d="M 674.7781228677329, 225.0L903.133214408621, 225.0"/>
<path fill="none" stroke="#000000" stroke-width="1.0" d="M 230.97505997696265, 225.1L338.032835385669, 225.1"/>
<path fill="none" stroke="#000000" stroke-width="1.0" d="M 665.3080302960642, 231.0L674.1806810551636, 231.0"/>
<path fill="none" stroke="#000000" stroke-width="1.0" d="M 682.5951419700023, 231.0L906.4768015255437, 231.0"/>
<path fill="none" stroke="#000000" stroke-width="1.0" d="M 231.19776962459946, 231.1L330.4863528465628, 231.1"/>
<path fill="none" stroke="#000000" stroke-width="1.0" d="M 369.04810683050357, 231.1L407.1105277771104, 231.1"/>
<path fill="none" stroke="#000000" stroke-width="1.0" d="M 669.6235043329448, 237.0L680.0142124043996, 237.0"/>
<path fill="none" stroke="#000000" stroke-width="1.0" d="M 689.4421621907138, 237.0L909.5763324157239, 237.0"/>
<path fill="none" stroke="#000000" stroke-width="1.0" d="M 231.50338477504215, 237.1L324.38913922483925, 237.1"/>
<path fill="none" stroke="#000000" stroke-width="1.0" d="M 361.08870534034725, 237.1L412.07730953366325, 237.1"/>
<path fill="none" stroke="#000000" stroke-width="1.0" d="M 674.5469017627714, 243.0L683.5915216570206, 243.0"/>
<path fill="none" stroke="#000000" stroke-width="1.0" d="M 692.6685611458199, 243.0L912.0923985611332, 243.0"/>
<path fill="none" stroke="#000000" stroke-width="1.0" d="M 231.87305585576945, 243.1L325.4194280615414, 243.1"/>
<path fill="none" stroke="#000000" stroke-width="1.0" d="M 354.7359074329972, 243.1L415.0754879567439, 243.1"/>
<path fill="none" stroke="#000000" stroke-width="1.0" d="M 634.2000000000005, 249.0L688.6437363456253, 249.0"/>
<path fill="none" stroke="#000000" stroke-width="1.0" d="M 693.1113857428143, 249.0L915.0050495090795, 249.0"/>
<path fill="none" stroke="#000000" stroke-width="1.0" d="M 232.28790515031756, 249.1L325.64020367625085, 249.1"/>
<path fill="none" stroke="#000000" stroke-width="1.0" d="M 348.9, 249.1L417.2209926740374, 249.1"/>
<path fill="none" stroke="#000000" stroke-width="1.0" d="M 652.2000000000005, 255.0L920.5407634519195, 255.0"/>
<path fill="none" stroke="#000000" stroke-width="1.0" d="M 232.72906368091748, 255.1L324.9271620904607, 255.1"/>
<path fill="none" stroke="#000000" stroke-width="1.0" d="M 345.57784422925226, 255.1L421.54707918179463, 255.1"/>
<path fill="none" stroke="#000000" stroke-width="1.0" d="M 628.7876733204054, 261.0L924.1570892113384, 261.0"/>
<path fill="none" stroke="#000000" stroke-width="1.0" d="M 233.17770791120086, 261.1L323.6871870609401, 261.1"/>
<path fill="none" stroke="#000000" stroke-width="1.0" d="M 340.81360516674783, 261.1L392.16009450638785, 261.1"/>
<path fill="none" stroke="#000000" stroke-width="1.0" d="M 400.90025522164024, 261.1L436.95725085910414, 261.1"/>
<path fill="none" stroke="#000000" stroke-width="1.0" d="M 651.0354693387987, 267.0L927.3252060057571, 267.0"/>
<path fill="none" stroke="#000000" stroke-width="1.0" d="M 234.25330323961362, 267.1L322.94693487979146, 267.1"/>
<path fill="none" stroke="#000000" stroke-width="1.0" d="M 337.15418265344346, 267.1L383.12985822445546, 267.1"/>
<path fill="none" stroke="#000000" stroke-width="1.0" d="M 406.1915278248222, 267.1L465.262636539507, 267.1"/>
<path fill="none" stroke="#000000" stroke-width="1.0" d="M 635.1846149291039, 273.0L786.2783939586811, 273.0"/>
<path fill="none" stroke="#000000" stroke-width="1.0" d="M 810.048185779, 273.0L928.920160967659, 273.0"/>
<path fill="none" stroke="#000000" stroke-width="1.0" d="M 235.3453816977173, 273.1L372.5984149501342, 273.1"/>
<path fill="none" stroke="#000000" stroke-width="1.0" d="M 409.19724970341264, 273.1L465.0975279623689, 273.1"/>
<path fill="none" stroke="#000000" stroke-width="1.0" d="M 652.7803118187798, 279.0L713.9863817065093, 279.0"/>
<path fill="none" stroke="#000000" stroke-width="1.0" d="M 721.6823722362064, 279.0L776.9265851507919, 279.0"/>
<path fill="none" stroke="#000000" stroke-width="1.0" d="M 816.0435075932087, 279.0L929.9616993851776, 279.0"/>
<path fill="none" stroke="#000000" stroke-width="1.0" d="M 236.66922149590528, 279.1L353.87705363221284, 279.1"/>
<path fill="none" stroke="#000000" stroke-width="1.0" d="M 411.4516280642812, 279.1L458.3917012085327, 279.1"/>
<path fill="none" stroke="#000000" stroke-width="1.0" d="M 633.4283806560936, 285.0L639.2816012237039, 285.0"/>
<path fill="none" stroke="#000000" stroke-width="1.0" d="M 651.7294101928196, 285.0L725.6673689196449, 285.0"/>
<path fill="none" stroke="#000000" stroke-width="1.0" d="M 738.4946645944035, 285.0L770.9398043755973, 285.0"/>
<path fill="none" stroke="#000000" stroke-width="1.0" d="M 812.1526418214917, 285.0L931.5380411731811, 285.0"/>
<path fill="none" stroke="#000000" stroke-width="1.0" d="M 238.17922000678803, 285.1L344.22130238916293, 285.1"/>
<path fill="none" stroke="#000000" stroke-width="1.0" d="M 413.4591594526693, 285.1L457.6634379260428, 285.1"/>
<path fill="none" stroke="#000000" stroke-width="1.0" d="M 642.0709548369323, 291.0L653.5570449393554, 291.0"/>
<path fill="none" stroke="#000000" stroke-width="1.0" d="M 701.5691873449338, 291.0L742.4593151082036, 291.0"/>
<path fill="none" stroke="#000000" stroke-width="1.0" d="M 752.2748181838053, 291.0L760.3091429844343, 291.0"/>
<path fill="none" stroke="#000000" stroke-width="1.0" d="M 805.0290482008179, 291.0L935.0787236382656, 291.0"/>
<path fill="none" stroke="#000000" stroke-width="1.0" d="M 239.77485402431316, 291.1L342.34591278352553, 291.1"/>
<path fill="none" stroke="#000000" stroke-width="1.0" d="M 416.5363973594233, 291.1L462.30341765422844, 291.1"/>
<path fill="none" stroke="#000000" stroke-width="1.0" d="M 709.3826231381219, 297.0L757.8550843596078, 297.0"/>
<path fill="none" stroke="#000000" stroke-width="1.0" d="M 796.3803241869484, 297.0L938.0613108364875, 297.0"/>
<path fill="none" stroke="#000000" stroke-width="1.0" d="M 240.66100560422723, 297.1L343.4491038516622, 297.1"/>
<path fill="none" stroke="#000000" stroke-width="1.0" d="M 444.38728686030413, 297.1L457.2070756815587, 297.1"/>
<path fill="none" stroke="#000000" stroke-width="1.0" d="M 718.2997759124743, 303.0L771.0355685225333, 303.0"/>
<path fill="none" stroke="#000000" stroke-width="1.0" d="M 789.5617705487284, 303.0L941.0488473223929, 303.0"/>
<path fill="none" stroke="#000000" stroke-width="1.0" d="M 242.586641746446, 303.1L343.69586674140675, 303.1"/>
<path fill="none" stroke="#000000" stroke-width="1.0" d="M 690.1412014930013, 309.0L700.5898671979928, 309.0"/>
<path fill="none" stroke="#000000" stroke-width="1.0" d="M 724.352097339847, 309.0L944.424877416191, 309.0"/>
<path fill="none" stroke="#000000" stroke-width="1.0" d="M 244.72617329183745, 309.1L343.8781809083864, 309.1"/>
<path fill="none" stroke="#000000" stroke-width="1.0" d="M 695.6269490415491, 315.0L707.0893153852397, 315.0"/>
<path fill="none" stroke="#000000" stroke-width="1.0" d="M 733.0831023622487, 315.0L946.8973156679051, 315.0"/>
<path fill="none" stroke="#000000" stroke-width="1.0" d="M 247.2025932235934, 315.1L315.6035135297782, 315.1"/>
<path fill="none" stroke="#000000" stroke-width="1.0" d="M 329.3816203897693, 315.1L344.10169999647815, 315.1"/>
<path fill="none" stroke="#000000" stroke-width="1.0" d="M 702.1054345914189, 321.0L712.098770963004, 321.0"/>
<path fill="none" stroke="#000000" stroke-width="1.0" d="M 742.7280030276671, 321.0L947.7044227486889, 321.0"/>
<path fill="none" stroke="#000000" stroke-width="1.0" d="M 251.2006329817194, 321.1L324.86034103295475, 321.1"/>
<path fill="none" stroke="#000000" stroke-width="1.0" d="M 330.32520485957264, 321.1L344.4720776495585, 321.1"/>
<path fill="none" stroke="#000000" stroke-width="1.0" d="M 702.7794388852894, 327.0L715.5552414047046, 327.0"/>
<path fill="none" stroke="#000000" stroke-width="1.0" d="M 750.6085394036879, 327.0L950.043098113257, 327.0"/>
<path fill="none" stroke="#000000" stroke-width="1.0" d="M 258.42306796096847, 327.1L345.1891850895947, 327.1"/>
<path fill="none" stroke="#000000" stroke-width="1.0" d="M 656.025880557153, 333.0L720.1546566994331, 333.0"/>
<path fill="none" stroke="#000000" stroke-width="1.0" d="M 759.46614195747, 333.0L951.7326875732554, 333.0"/>
<path fill="none" stroke="#000000" stroke-width="1.0" d="M 266.17499999999984, 333.1L330.6891139741217, 333.1"/>
<path fill="none" stroke="#000000" stroke-width="1.0" d="M 332.2972672953655, 333.1L346.62861060808075, 333.1"/>
<path fill="none" stroke="#000000" stroke-width="1.0" d="M 659.8361244166016, 339.0L662.8767574035883, 339.0"/>
<path fill="none" stroke="#000000" stroke-width="1.0" d="M 676.583915266201, 339.0L730.7936395115057, 339.0"/>
<path fill="none" stroke="#000000" stroke-width="1.0" d="M 766.0872224654374, 339.0L953.2131399148819, 339.0"/>
<path fill="none" stroke="#000000" stroke-width="1.0" d="M 311.3050462716723, 339.1L331.10740740740744, 339.1"/>
<path fill="none" stroke="#000000" stroke-width="1.0" d="M 335.40195544406765, 339.1L349.76553557211133, 339.1"/>
<path fill="none" stroke="#000000" stroke-width="1.0" d="M 650.77103687928, 345.0L742.7173298261002, 345.0"/>
<path fill="none" stroke="#000000" stroke-width="1.0" d="M 776.8709900457466, 345.0L954.6068885568038, 345.0"/>
<path fill="none" stroke="#000000" stroke-width="1.0" d="M 317.12791407242645, 345.1L373.50027308718063, 345.1"/>
<path fill="none" stroke="#000000" stroke-width="1.0" d="M 676.9544268769453, 351.0L955.4534767841424, 351.0"/>
<path fill="none" stroke="#000000" stroke-width="1.0" d="M 319.5456280233244, 351.1L373.4703921437306, 351.1"/>
<path fill="none" stroke="#000000" stroke-width="1.0" d="M 653.8629295614257, 357.0L955.4738543737681, 357.0"/>
<path fill="none" stroke="#000000" stroke-width="1.0" d="M 320.7689960826016, 357.1L372.4940821643648, 357.1"/>
<path fill="none" stroke="#000000" stroke-width="1.0" d="M 687.9227339219458, 363.0L958.3455629486368, 363.0"/>
<path fill="none" stroke="#000000" stroke-width="1.0" d="M 322.25365548171783, 363.1L350.4397728022845, 363.1"/>
<path fill="none" stroke="#000000" stroke-width="1.0" d="M 363.5483586374885, 363.1L367.97308293801507, 363.1"/>
<path fill="none" stroke="#000000" stroke-width="1.0" d="M 681.5695834018284, 369.0L701.5745995233152, 369.0"/>
<path fill="none" stroke="#000000" stroke-width="1.0" d="M 725.6234053317464, 369.0L958.7108655697763, 369.0"/>
<path fill="none" stroke="#000000" stroke-width="1.0" d="M 327.4751385361993, 369.1L346.2858460727842, 369.1"/>
<path fill="none" stroke="#000000" stroke-width="1.0" d="M 666.2740740740744, 375.0L688.9650693448933, 375.0"/>
<path fill="none" stroke="#000000" stroke-width="1.0" d="M 730.3279208058302, 375.0L958.9642503997384, 375.0"/>
<path fill="none" stroke="#000000" stroke-width="1.0" d="M 339.2126046225056, 375.1L342.16612803961243, 375.1"/>
<path fill="none" stroke="#000000" stroke-width="1.0" d="M 701.441246498422, 381.0L959.2625465766394, 381.0"/>
<path fill="none" stroke="#000000" stroke-width="1.0" d="M 687.819758834768, 387.0L959.7252384836037, 387.0"/>
<path fill="none" stroke="#000000" stroke-width="1.0" d="M 682.5261889420615, 393.0L725.5024782631813, 393.0"/>
<path fill="none" stroke="#000000" stroke-width="1.0" d="M 780.6516135909212, 393.0L791.5050741905148, 393.0"/>
<path fill="none" stroke="#000000" stroke-width="1.0" d="M 798.4677303515393, 393.0L960.8056832837843, 393.0"/>
<path fill="none" stroke="#000000" stroke-width="1.0" d="M 680.1308559256463, 399.0L701.9060740833661, 399.0"/>
<path fill="none" stroke="#000000" stroke-width="1.0" d="M 782.3660377498331, 399.0L793.3198672401134, 399.0"/>
<path fill="none" stroke="#000000" stroke-width="1.0" d="M 800.5557045546823, 399.0L962.2355840000009, 399.0"/>
<path fill="none" stroke="#000000" stroke-width="1.0" d="M 677.3380739836184, 405.0L694.7215375308363, 405.0"/>
<path fill="none" stroke="#000000" stroke-width="1.0" d="M 782.7655605160048, 405.0L793.6191903893978, 405.0"/>
<path fill="none" stroke="#000000" stroke-width="1.0" d="M 801.1172132348981, 405.0L963.7232758518526, 405.0"/>
<path fill="none" stroke="#000000" stroke-width="1.0" d="M 675.6559103961206, 411.0L691.7078724981649, 411.0"/>
<path fill="none" stroke="#000000" stroke-width="1.0" d="M 783.0632324476728, 411.0L793.1335862488133, 411.0"/>
<path fill="none" stroke="#000000" stroke-width="1.0" d="M 801.2274686004209, 411.0L965.2223454814821, 411.0"/>
<path fill="none" stroke="#000000" stroke-width="1.0" d="M 674.3178605480773, 417.0L690.5312416503335, 417.0"/>
<path fill="none" stroke="#000000" stroke-width="1.0" d="M 783.2950160058315, 417.0L793.5901206170579, 417.0"/>
<path fill="none" stroke="#000000" stroke-width="1.0" d="M 801.8099372792174, 417.0L966.6759040000009, 417.0"/>
<path fill="none" stroke="#000000" stroke-width="1.0" d="M 672.1312795542108, 423.0L689.0319641094078, 423.0"/>
<path fill="none" stroke="#000000" stroke-width="1.0" d="M 783.7368806459928, 423.0L794.0558930391238, 423.0"/>
<path fill="none" stroke="#000000" stroke-width="1.0" d="M 802.700864915772, 423.0L967.7244977819392, 423.0"/>
<path fill="none" stroke="#000000" stroke-width="1.0" d="M 622.8895609745098, 429.0L631.3588117559167, 429.0"/>
<path fill="none" stroke="#000000" stroke-width="1.0" d="M 667.1846700829063, 429.0L685.4321925277444, 429.0"/>
<path fill="none" stroke="#000000" stroke-width="1.0" d="M 786.2431139808027, 429.0L794.6758886248367, 429.0"/>
<path fill="none" stroke="#000000" stroke-width="1.0" d="M 803.7981267793072, 429.0L968.2467149480876, 429.0"/>
<path fill="none" stroke="#000000" stroke-width="1.0" d="M 611.0951690877163, 435.0L681.4554728638618, 435.0"/>
<path fill="none" stroke="#000000" stroke-width="1.0" d="M 786.7492243013251, 435.0L796.1663550979832, 435.0"/>
<path fill="none" stroke="#000000" stroke-width="1.0" d="M 805.2239940301462, 435.0L969.2110657458827, 435.0"/>
<path fill="none" stroke="#000000" stroke-width="1.0" d="M 605.727062366416, 441.0L677.3269371601372, 441.0"/>
<path fill="none" stroke="#000000" stroke-width="1.0" d="M 787.6658380966693, 441.0L796.8056604459364, 441.0"/>
<path fill="none" stroke="#000000" stroke-width="1.0" d="M 807.107740984194, 441.0L970.0281370246178, 441.0"/>
<path fill="none" stroke="#000000" stroke-width="1.0" d="M 600.5840445316671, 447.0L672.4964544221326, 447.0"/>
<path fill="none" stroke="#000000" stroke-width="1.0" d="M 788.820894506375, 447.0L797.607572816302, 447.0"/>
<path fill="none" stroke="#000000" stroke-width="1.0" d="M 808.9532446877718, 447.0L970.5309796606161, 447.0"/>
<path fill="none" stroke="#000000" stroke-width="1.0" d="M 597.3185666681031, 453.0L617.1751140041474, 453.0"/>
<path fill="none" stroke="#000000" stroke-width="1.0" d="M 633.6000000000004, 453.0L665.9343009097472, 453.0"/>
<path fill="none" stroke="#000000" stroke-width="1.0" d="M 790.1001801204936, 453.0L799.8519223332479, 453.0"/>
<path fill="none" stroke="#000000" stroke-width="1.0" d="M 810.6237235358733, 453.0L970.5826679125009, 453.0"/>
<path fill="none" stroke="#000000" stroke-width="1.0" d="M 594.3929420912573, 459.0L610.9998554353208, 459.0"/>
<path fill="none" stroke="#000000" stroke-width="1.0" d="M 791.7266661269265, 459.0L802.5749948002858, 459.0"/>
<path fill="none" stroke="#000000" stroke-width="1.0" d="M 812.2744172908472, 459.0L970.4984811625011, 459.0"/>
<path fill="none" stroke="#000000" stroke-width="1.0" d="M 590.8284211829133, 465.0L607.3089236948531, 465.0"/>
<path fill="none" stroke="#000000" stroke-width="1.0" d="M 793.9512733060767, 465.0L804.2033471979694, 465.0"/>
<path fill="none" stroke="#000000" stroke-width="1.0" d="M 814.3079090595977, 465.0L970.459804412501, 465.0"/>
<path fill="none" stroke="#000000" stroke-width="1.0" d="M 586.1807163700558, 471.0L608.4804936222143, 471.0"/>
<path fill="none" stroke="#000000" stroke-width="1.0" d="M 796.71443093159, 471.0L810.8630948176002, 471.0"/>
<path fill="none" stroke="#000000" stroke-width="1.0" d="M 817.585096591554, 471.0L970.4540376625012, 471.0"/>
<path fill="none" stroke="#000000" stroke-width="1.0" d="M 582.055689288232, 477.0L610.3847703977628, 477.0"/>
<path fill="none" stroke="#000000" stroke-width="1.0" d="M 799.7582995207565, 477.0L970.4685809125007, 477.0"/>
<path fill="none" stroke="#000000" stroke-width="1.0" d="M 581.7660082865918, 483.0L608.8021349098219, 483.0"/>
<path fill="none" stroke="#000000" stroke-width="1.0" d="M 803.7233994522542, 483.0L970.4908341625008, 483.0"/>
<path fill="none" stroke="#000000" stroke-width="1.0" d="M 587.4153463102831, 489.0L609.0740133925402, 489.0"/>
<path fill="none" stroke="#000000" stroke-width="1.0" d="M 809.4614890645639, 489.0L970.5081974125009, 489.0"/>
<path fill="none" stroke="#000000" stroke-width="1.0" d="M 597.696277798868, 495.0L617.4665299877188, 495.0"/>
<path fill="none" stroke="#000000" stroke-width="1.0" d="M 817.7911197534672, 495.0L970.5080706625008, 495.0"/>
<path fill="none" stroke="#000000" stroke-width="1.0" d="M 604.0375902038162, 501.0L624.9802935211203, 501.0"/>
<path fill="none" stroke="#000000" stroke-width="1.0" d="M 838.6673530584872, 501.0L970.4778539125009, 501.0"/>
<path fill="none" stroke="#000000" stroke-width="1.0" d="M 608.0625417672488, 507.0L627.9625000000003, 507.0"/>
<path fill="none" stroke="#000000" stroke-width="1.0" d="M 841.8510814441298, 507.0L970.404947162501, 507.0"/>
<path fill="none" stroke="#000000" stroke-width="1.0" d="M 603.7757048161543, 513.0L631.050736519502, 513.0"/>
<path fill="none" stroke="#000000" stroke-width="1.0" d="M 846.3114176078991, 513.0L970.2720314643358, 513.0"/>
<path fill="none" stroke="#000000" stroke-width="1.0" d="M 601.2133771248693, 519.0L631.20903723961, 519.0"/>
<path fill="none" stroke="#000000" stroke-width="1.0" d="M 822.5582682712627, 519.0L969.9498070193831, 519.0"/>
<path fill="none" stroke="#000000" stroke-width="1.0" d="M 599.6048898395319, 525.0L627.1, 525.0"/>
<path fill="none" stroke="#000000" stroke-width="1.0" d="M 803.7344577512133, 525.0L969.4433499879345, 525.0"/>
<path fill="none" stroke="#000000" stroke-width="1.0" d="M 600.0541162890308, 531.0L617.9946320643484, 531.0"/>
<path fill="none" stroke="#000000" stroke-width="1.0" d="M 786.6348845578839, 531.0L968.8250578703713, 531.0"/>
<path fill="none" stroke="#000000" stroke-width="1.0" d="M 599.5810420589124, 537.0L614.8863976252577, 537.0"/>
<path fill="none" stroke="#000000" stroke-width="1.0" d="M 780.8319690231785, 537.0L968.167328167074, 537.0"/>
<path fill="none" stroke="#000000" stroke-width="1.0" d="M 597.8395471231271, 543.0L614.2556221145489, 543.0"/>
<path fill="none" stroke="#000000" stroke-width="1.0" d="M 776.819014999114, 543.0L967.542558378424, 543.0"/>
<path fill="none" stroke="#000000" stroke-width="1.0" d="M 595.7428935091766, 549.0L614.4007195815722, 549.0"/>
<path fill="none" stroke="#000000" stroke-width="1.0" d="M 777.9712883125826, 549.0L965.0621845716082, 549.0"/>
<path fill="none" stroke="#000000" stroke-width="1.0" d="M 593.355593196681, 555.0L613.7802108980517, 555.0"/>
<path fill="none" stroke="#000000" stroke-width="1.0" d="M 780.1922394864337, 555.0L960.7913490831965, 555.0"/>
<path fill="none" stroke="#000000" stroke-width="1.0" d="M 586.8659428921205, 561.0L610.3438507316324, 561.0"/>
<path fill="none" stroke="#000000" stroke-width="1.0" d="M 781.9588459274505, 561.0L952.9729730467612, 561.0"/>
<path fill="none" stroke="#000000" stroke-width="1.0" d="M 581.088152186922, 567.0L607.9169702687084, 567.0"/>
<path fill="none" stroke="#000000" stroke-width="1.0" d="M 785.4627109644698, 567.0L839.2014296370295, 567.0"/>
<path fill="none" stroke="#000000" stroke-width="1.0" d="M 859.6846787739619, 567.0L934.2809544001199, 567.0"/>
<path fill="none" stroke="#000000" stroke-width="1.0" d="M 579.7115042942618, 573.0L602.433386877944, 573.0"/>
<path fill="none" stroke="#000000" stroke-width="1.0" d="M 786.2898372933896, 573.0L840.4322546902398, 573.0"/>
<path fill="none" stroke="#000000" stroke-width="1.0" d="M 880.3754769555495, 573.0L905.2379709454236, 573.0"/>
<path fill="none" stroke="#000000" stroke-width="1.0" d="M 586.6100360669719, 579.0L593.286241426588, 579.0"/>
<path fill="none" stroke="#000000" stroke-width="1.0" d="M 786.5388520622907, 579.0L842.3453757069911, 579.0"/>
<path fill="none" stroke="#000000" stroke-width="1.0" d="M 786.83722403964, 585.0L846.0931369926744, 585.0"/>
<path fill="none" stroke="#000000" stroke-width="1.0" d="M 787.1619963842987, 591.0L850.3272377802544, 591.0"/>
<path fill="none" stroke="#000000" stroke-width="1.0" d="M 787.4902122551284, 597.0L855.1572312839564, 597.0"/>
<path fill="none" stroke="#000000" stroke-width="1.0" d="M 787.7989148109897, 603.0L816.3136863431946, 603.0"/>
<path fill="none" stroke="#000000" stroke-width="1.0" d="M 824.4504624753436, 603.0L860.6587323608844, 603.0"/>
<path fill="none" stroke="#000000" stroke-width="1.0" d="M 788.065147210745, 609.0L815.5853214812114, 609.0"/>
<path fill="none" stroke="#000000" stroke-width="1.0" d="M 832.0264409299537, 609.0L865.9229886470036, 609.0"/>
<path fill="none" stroke="#000000" stroke-width="1.0" d="M 788.1997642318256, 615.0L815.5618309564301, 615.0"/>
<path fill="none" stroke="#000000" stroke-width="1.0" d="M 838.9963796023542, 615.0L871.4949041791112, 615.0"/>
<path fill="none" stroke="#000000" stroke-width="1.0" d="M 788.1458376200287, 621.0L815.5555707523486, 621.0"/>
<path fill="none" stroke="#000000" stroke-width="1.0" d="M 846.154925262997, 621.0L882.2203434305459, 621.0"/>
<path fill="none" stroke="#000000" stroke-width="1.0" d="M 788.1021990740751, 627.0L815.5612930555552, 627.0"/>
<path fill="none" stroke="#000000" stroke-width="1.0" d="M 848.396464911071, 627.0L886.5729370838085, 627.0"/>
<path fill="none" stroke="#000000" stroke-width="1.0" d="M 788.1982493284984, 633.0L815.5737500526399, 633.0"/>
<path fill="none" stroke="#000000" stroke-width="1.0" d="M 847.0530991505566, 633.0L889.7614607946873, 633.0"/>
<path fill="none" stroke="#000000" stroke-width="1.0" d="M 786.9514604814725, 639.0L815.5876939301909, 639.0"/>
<path fill="none" stroke="#000000" stroke-width="1.0" d="M 841.4149737465202, 639.0L888.1579313438951, 639.0"/>
<path fill="none" stroke="#000000" stroke-width="1.0" d="M 783.0092493399137, 645.0L815.5978768747974, 645.0"/>
<path fill="none" stroke="#000000" stroke-width="1.0" d="M 832.7993166869111, 645.0L884.7689464868442, 645.0"/>
<path fill="none" stroke="#000000" stroke-width="1.0" d="M 774.8044150114199, 651.0L815.8205742436395, 651.0"/>
<path fill="none" stroke="#000000" stroke-width="1.0" d="M 820.1396736513632, 651.0L877.6792107093019, 651.0"/>
<path fill="none" stroke="#000000" stroke-width="1.0" d="M 729.8778559694726, 657.0L869.4186796593988, 657.0"/>
<path fill="none" stroke="#000000" stroke-width="1.0" d="M 728.8673707183149, 663.0L860.0153380259794, 663.0"/>
<path fill="none" stroke="#000000" stroke-width="1.0" d="M 732.0306469823919, 669.0L850.0018200274384, 669.0"/>
<path fill="none" stroke="#000000" stroke-width="1.0" d="M 735.3821013286527, 675.0L811.8115623492499, 675.0"/>
<path fill="none" stroke="#000000" stroke-width="1.0" d="M 824.019867773395, 675.0L831.7706128698552, 675.0"/>
<path fill="none" stroke="#000000" stroke-width="1.0" d="M 780.2484316180366, 681.0L802.2078878281034, 681.0"/>
</g>
</svg>