<?xml version="1.0" encoding="utf-8"?>
<!-- Generator: Adobe Illustrator 22.1.0, SVG Export Plug-In . SVG Version: 6.00 Build 0)  -->
<svg version="1.1" baseProfile="tiny" id="Layer_1" xmlns="http://www.w3.org/2000/svg" xmlns:xlink="http://www.w3.org/1999/xlink"
	 x="0px" y="0px" viewBox="0 0 1280 720" xml:space="preserve">
<path d="M1042.4,307.6c2.6,15.2,2.2,30.3,1,45.2c-1,13.1-2.4,26.3-2.5,39.5c0,5.7,0.3,11.4-0.1,17.1c-0.2,3.7-0.6,7.9-2.4,11
	c-1.7,2.8-5.3,4.6-8.2,6.6c-2,1.4-4.4,2.3-7.7,3.9c1.6-4.8,2.7-8.1,3.8-11.4c-0.5-0.2-0.9-0.4-1.4-0.6c-1.3,2.8-3.5,5.5-3.8,8.5
	c-0.8,7.5-0.6,15.2-1.2,22.8c-0.7,8.8-0.5,18.1-3.3,26.3c-4.3,12.4-2.1,24.7-1,36.8c0.4,4.9,1.7,10.2,1.2,15.2
	c-0.9,8.6-3,17.1-4.7,25.6c-0.9,4.6-1.8,9.3-3.2,13.8c-2.7,8.4-6.2,16.7-8.6,25.2c-1.3,4.7-1.5,9.9-1.1,14.7
	c0.5,5.8,0.9,11.4-2,16.7c-0.4,0.8,0.7,2.3,0.8,3.5c0.3,2.2,0.6,4.3,0.7,6.5c0.1,0.9-0.3,1.9-0.1,2.8c1,3.5-1.8,3.5-3.6,3.6
	c-4.3,0.3-8.7,0.3-13,0c-4.9-0.3-9.8-0.9-15.6-1.5c1.5-4.6,2.7-9.2,4.4-13.4c3.3-7.9,9.5-14.9,6.4-25.2c-1.9,0.4-4,0.7-6.1,1.2
	c-3.6,0.9-7.5,1.5-10.8,3c-4.4,2.1-7.7,0.5-11.2-1.9c-1.3-5.6,1.6-8.4,6.5-11.5c4.2-2.7,7.1-7.7,10.2-11.9c2-2.7,3.3-5.9,5.2-8.8
	c2.8-4.4,2.6-10.9-0.6-15.3c-6.2-8.7-12.6-17.3-18.2-26.4c-3.9-6.3-6.6-13.4-9.8-20.2c-2.8-6.2-5.6-12.4-8.2-18.7
	c-0.5-1.3-0.2-2.9-0.4-4.4c-1.3-10.2-1.9-20.6-4.1-30.7c-2.4-11.1-1.2-22.5-3.2-33.4c-2.1-11.3-1.4-22.5-1.3-33.8
	c0-0.1-0.1-0.1-0.1-0.2c-0.7-2.6-6-4.1-1.9-7.9c0.2-0.2-0.2-1.2-0.4-1.8c-1.8-6-5.3-12-5.1-17.9c0.3-12.2,0-24.4-0.6-36.5
	c-1.1,18.5-2.1,37-1.6,55.5c0.2,5.9-3.3,11.9-5.1,17.9c-0.2,0.6-0.6,1.6-0.4,1.8c4.2,3.8-1.2,5.3-1.9,7.9c-0.4,1.6-1.3,3-2.4,4.2
	c-0.6,8.3-0.4,16.8-2.2,25.1c-2.1,10.1-2.8,20.4-4.1,30.7c-0.2,1.5,0.1,3.1-0.4,4.4c-2.6,6.3-5.4,12.5-8.2,18.7
	c-3.1,6.8-5.9,13.9-9.8,20.2c-5.6,9.1-12,17.7-18.2,26.4c-3.1,4.4-3.4,10.9-0.6,15.3c1.8,2.8,3.2,6.1,5.2,8.8
	c3.1,4.2,6,9.2,10.2,11.9c4.8,3.1,7.7,5.9,6.5,11.5c-3.5,2.4-6.8,4-11.2,1.9c-3.3-1.6-7.2-2.1-10.8-3c-2.1-0.5-4.2-0.8-6.1-1.2
	c-3,10.3,3.1,17.3,6.4,25.2c1.8,4.2,2.9,8.8,4.4,13.4c-5.8,0.6-10.7,1.2-15.6,1.5c-4.3,0.2-8.7,0.2-13,0c-1.9-0.1-4.7-0.1-3.6-3.6
	c0.3-0.8-0.2-1.9-0.1-2.8c0.2-2.2,0.4-4.3,0.7-6.5c0.2-1.2,1.3-2.7,0.8-3.5c-2.9-5.4-2.6-10.9-2-16.7c0.5-4.8,0.2-10-1.1-14.7
	c-2.4-8.5-5.9-16.7-8.6-25.2c-1.4-4.5-2.3-9.2-3.2-13.8c-1.7-8.5-3.8-17-4.7-25.6c-0.5-4.9,0.8-10.2,1.2-15.2
	c1-12.1,3.2-24.4-1-36.8c-2.8-8.2-2.6-17.5-3.3-26.3c-0.6-7.6-0.4-15.2-1.2-22.8c-0.3-2.9-2.5-5.7-3.8-8.5c-0.5,0.2-0.9,0.4-1.4,0.6
	c1.1,3.3,2.2,6.6,3.8,11.4c-3.3-1.7-5.7-2.6-7.7-3.9c-0.8-0.5-1.6-1-2.4-1.6c-0.2,3.4-0.7,7.1-2.3,9.9c-1.7,2.9-5.2,4.7-8.1,6.7
	c-2,1.4-4.4,2.3-7.7,3.9c1.4-4.8,2.5-8.1,3.5-11.4c-0.7-0.2-1.5-0.4-2.2-0.6c-1,4.5-2.5,8.9-2.8,13.4c-0.7,8.6-0.3,17.3-1.3,25.8
	c-0.9,7.1-3.6,14-4.6,21.1c-1,6.5-0.9,13.2-1.1,19.8c-0.1,2.6,0.6,5.2,0.9,7.8c0.7,6.9,2.3,13.8,1.8,20.6c-0.7,9.1-3,18.1-4.7,27.1
	c-0.9,4.5-1.7,9-3.1,13.3c-2.7,8.4-6.3,16.6-8.6,25.2c-1.3,4.8-1.6,10.2-1.1,15.2c0.6,5.7,0.8,11-2,16.2c-0.4,0.8,0.6,2.3,0.8,3.5
	c0.4,2,1.2,4.1,0.8,6c-0.3,1.4-2.6,2.4,0.1,3.7c-1.3,1.1-2.4,3-3.8,3.1c-4.3,0.4-8.7,0.3-13,0.1c-4.9-0.3-9.8-0.9-15.8-1.5
	c1.7-4.7,3.4-9.1,5-13.6c2.8-7.9,9.6-14.7,5.9-25c-7.1,1.8-14.5,3.7-22.1,5.7c-1.7-1-3.7-2.2-5.9-3.4c-1.3-5.6,1.5-8.4,6.4-11.5
	c4.2-2.7,7.1-7.7,10.2-11.9c2-2.7,3.3-5.9,5.2-8.8c2.9-4.4,2.6-10.9-0.5-15.3c-6.2-8.7-12.6-17.3-18.2-26.4
	c-3.9-6.3-6.6-13.4-9.8-20.2c-2.9-6.2-5.6-12.4-8.2-18.7c-0.5-1.3-0.2-2.9-0.4-4.4c-1.3-10.2-1.9-20.6-4.1-30.7
	c-2.4-11.1-1.2-22.5-3.2-33.4c-2.9-15.8-0.3-31.5-1.7-47.2c-0.8-9.1-2.3-18.2-3.1-27.3c-0.4-4.9-0.2-9.8-0.2-14.7
	c0-0.5,0.3-1,0.3-1.4c1-14.8,2.1-29.6,3-44.4c0.2-4.2-0.5-8.5-0.8-12.7c-0.5-0.1-1-0.2-1.5-0.3c-1.2,4-3.2,8-3.5,12.1
	c-1,13.8-1.6,27.7-2.1,41.6c-0.5,16.1-0.7,32.2-1.1,48.3c-0.2,7.5-1.9,14.7-5.4,21.4c-0.3,0.5-0.6,1.6-0.4,1.8
	c4.2,3.9-1.3,5.3-1.9,7.9c-1.2,6-8.2,8.1-8.6,15.2c-0.5,8.2-3,16.4-5.8,24.3c-5.1,14.3-6.1,29-5.7,43.9c0.3,10,2.8,20,2.6,30
	c-0.1,7.5-2.9,15-4.6,22.5c-1,4.5-1.3,9.4-3.4,13.3c-4.2,7.8-3.4,16-3.9,24.2c-0.2,3.7-2,7.2-2.8,10.9c-0.9,4-1.6,8-2,12.1
	c-0.5,5.3-0.6,10.6-0.6,15.8c0,5.3-4.9,6.3-7.8,8.6c-4.6,3.7-10.8,3.6-16.5,3.5c-2.8,0-5.1-1.7-5.2-5.1c-0.2-9.7,2.7-18.6,7-27.2
	c0.9-1.8,1.1-3.9,1.5-5.9c1.2-7.4,3.5-14.9,3.3-22.3c-0.5-13.9-2.8-27.8-3.5-41.8c-0.3-6.1,1.5-12.3,2.4-18.5c0-0.3,0.2-0.6,0.2-0.9
	c0-9.5,2.4-19.9-0.5-28.4c-5.4-15.9-3.6-31.7-4.6-47.7c-0.5-7.8-2.4-15.5-4-23.1c-0.6-3-5.6-6-7.9-5.9c0,8.9-0.3,17.9,0.1,26.7
	c0.5,12.3-2.8,23.7-6.1,35.3c-1.6,5.8-3.1,12-2.7,17.9c0.5,7.3,3.4,14.3,4.4,21.6c0.5,3.9-0.7,8.1-1.1,12.2c-0.1,1-0.4,1.9-0.5,2.9
	c-1.6,11.4,1.1,22.5,3.5,33.3c1.2,5.6,1,10.8,1.4,16.2c0.1,1.8-1.2,3.7-1.9,5.5c-1.3,3.4-2.6,6.8-4.1,10.1c-1.5,3.3-5.7,3.4-9,1.9
	c-3.6-1.7-7.3-2.9-9.1-6.7c-1-2.2-2-4.8-1.8-7.1c0.7-8.2,1.9-16.3,3-24.4c1.2-8.6-3.8-14.5-8.1-21.1c-4-6.2-8.7-12.6-8-20.9
	c0.5-6.1,1.3-12.2,0.9-18.3c-0.6-8.6-1.9-17.3-3.5-25.8c-3.3-17.5-3.8-35.2-3.2-52.9c0.3-8,2.1-15.9,2.7-23.9c0.2-3-1.7-6.1-1.8-9.1
	c-0.2-11.5-0.1-23.1-0.1-34.6c0-12.5-0.1-25,0.1-37.5c0-1.7,1.1-3.5,1.5-5.2c0.3-1.4,0.6-3,0.3-4.4c-0.7-2.9-2.2-5.6-2.7-8.4
	c-0.1-0.6-0.2-1.2-0.3-1.8c-0.2,5.7-1,11.3-2.5,16.9c-2.6,9.4-4.6,18.9-3.6,28.8c0.1,1.3,0.1,2.7-0.1,4c-0.9,5.8-2.8,11.6-2.7,17.4
	c0,2.1,0,4.2-0.2,6.2c0.5,0.9,1,1.7,1.6,2.6c1.8,2.9,2.4,6.9,2.6,10.4c0.2,3.4-0.8,6.8-1.4,10.5c-4.1,1.1-8.4,2.4-12.9,3.2
	c-2.1,0.4-4.5,0.4-4.7-2.8c0-0.5-0.8-0.9-1.3-1.3c-3.1-2.3-4.8-5.1-5.8-8.2c-1.2-0.3-2.4-0.6-3.6-0.9c-0.5-3.8-1.6-7.3-1.4-10.6
	c0.2-3.4,0.8-7.3,2.5-10.1c-0.4-2.1-0.9-4.3-1.2-6.4c-0.2-1.3-0.2-2.7-0.1-4c0.9-9.9-1-19.4-3.7-28.8c-2.8-9.6-2.9-19.4-2.1-29
	c0.5-5.9,3.5-11.6,5-17.5c0.6-2.5,1.2-5.1,1.6-7.6c-1-2.3-1.9-4.7-3-7.3c-1.8,10.3-3.4,19.5-5.2,28.6c-0.4,2.1-1.9,4.1-1.8,6.1
	c0.1,2.7,1.6,5.4,1.7,8.1c0.5,16.1,1,32.2,1,48.3c0,10.5-0.1,20.9-2.3,31.5c-1.8,8.4,2,17.8,2.3,26.8c0.6,17.8,0.1,35.7-3.4,53.3
	c-1.7,8.3-2.8,16.8-3.3,25.3c-0.4,6.1,0.4,12.2,0.9,18.3c0.7,8.3-4,14.7-8,20.9c-4.3,6.6-9.2,12.5-8,21.1c1.1,8.1,2.3,16.2,3,24.4
	c0.2,2.3-0.8,4.9-1.8,7.1c-1.8,3.8-5.5,5-9.1,6.7c-3.3,1.6-7.5,1.5-9-1.9c-1.5-3.3-2.7-6.7-4.1-10.1c-0.7-1.8-2.1-3.8-1.9-5.5
	c0.4-5.4,0.1-10.7,1.4-16.2c2.4-10.8,5.1-21.9,3.5-33.3c-0.1-1-0.4-1.9-0.5-2.9c-0.5-4.1-1.7-8.3-1.2-12.2c1-7.3,3.9-14.3,4.4-21.6
	c0.4-5.9-1.1-12.1-2.7-17.9c-3.3-11.6-6.6-23-6.1-35.3c0.4-8.9,0.1-17.8,0.1-27.1c-4-0.3-6.8,3.3-7.7,6.3
	c-2.2,7.5-3.7,15.3-4.2,23.1c-1,15.9,0.8,31.8-4.6,47.7c-2.9,8.5-0.5,18.9-0.5,28.4c0,0.3,0.2,0.6,0.2,0.9
	c0.9,6.2,2.7,12.4,2.4,18.5c-0.7,13.9-3,27.8-3.5,41.8c-0.2,7.4,2,14.9,3.2,22.3c0.3,2,0.6,4.2,1.5,5.9c4.4,8.6,7.2,17.5,7,27.2
	c0,3.4-2.4,5.1-5.1,5.2c-5.7,0.1-11.5-0.2-16.6-3.4c-5-3.1-8.8-6.9-8.3-13.6c0.3-3.8,0.3-7.7,0-11.5c-0.3-3.9-1.1-7.8-2-11.6
	c-0.8-3.7-2.7-7.3-2.8-10.9c-0.2-8.6-0.2-17.1-4-25.2c-1.8-3.8-2.3-8.2-3.2-12.3c-1.7-7.7-4.3-15.3-4.6-23
	c-0.4-8.5,1.1-17.1,2.1-25.6c1.6-13.6,0.1-26.9-2.9-40.2c-1.5-6.7-3.8-13.2-5.4-19.9c-0.7-3-1.3-6-1.9-9c-0.3,0.5-0.5,1-0.7,1.5
	c-0.1,0.3-0.1,0.7-0.1,1c0.4,6.4-1.8,10.8-6.8,14.9c-1.5,1.2-2.6,3.3-3.1,5.2c-1.3,5.1-2,10.3-3.3,15.3c-1.7,6.7-3.9,13.2-5.4,19.9
	c-3,13.2-4.5,26.6-2.9,40.2c1,8.5,2.5,17.1,2.1,25.6c-0.4,7.7-2.9,15.4-4.6,23c-0.9,4.1-1.4,8.5-3.2,12.3c-3.8,8.1-3.8,16.6-4,25.2
	c-0.1,3.6-2,7.2-2.8,10.9c-0.8,3.8-1.6,7.7-2,11.6c-0.3,3.8-0.3,7.7,0,11.5c0.5,6.7-3.3,10.5-8.3,13.6c-5.1,3.1-10.9,3.5-16.6,3.4
	c-2.7-0.1-5.1-1.7-5.1-5.2c-0.1-9.7,2.7-18.7,7-27.2c0.9-1.8,1.1-3.9,1.5-5.9c1.2-7.4,3.5-14.9,3.2-22.3
	c-0.5-13.9-2.8-27.8-3.5-41.8c-0.3-6.1,1.5-12.3,2.4-18.5c0-0.3,0.2-0.6,0.2-0.9c0-9.5,2.4-19.9-0.5-28.4
	c-5.4-15.9-3.6-31.7-4.6-47.7c-0.5-7.8-2-15.6-4.2-23.1c-0.9-3-3.7-6.6-7.7-6.3c0,9.3-0.3,18.2,0.1,27.1c0.5,12.3-2.8,23.7-6.1,35.3
	c-1.6,5.8-3.1,12-2.7,17.9c0.5,7.3,3.4,14.3,4.4,21.6c0.5,3.9-0.7,8.1-1.2,12.2c-0.1,1-0.4,1.9-0.5,2.9c-1.6,11.4,1.1,22.5,3.5,33.3
	c1.2,5.6,1,10.8,1.4,16.2c0.1,1.8-1.2,3.7-1.9,5.5c-1.3,3.4-2.6,6.8-4.1,10.1c-1.5,3.3-5.7,3.4-9,1.9c-3.6-1.7-7.3-2.9-9.1-6.7
	c-1-2.2-2-4.8-1.8-7.1c0.7-8.2,1.9-16.3,3-24.4c1.2-8.5-3.8-14.5-8-21.1c-4-6.2-8.7-12.6-8-20.9c0.5-6.1,1.3-12.2,0.9-18.3
	c-0.6-8.5-1.7-17-3.3-25.3c-3.5-17.6-4-35.5-3.4-53.3c0.3-9,4.1-18.4,2.3-26.8c-2.3-10.6-2.3-21-2.3-31.5c0-16.1,0.5-32.2,1-48.3
	c0.1-2.7,1.6-5.4,1.7-8.1c0.1-2-1.4-4-1.8-6.1c-1.7-9.2-3.3-18.3-5.2-28.6c-1.4,3.3-2.5,6.2-3.8,9.1c-4.3,9.3-3.8,19.2-4.1,29.1
	c-0.4,12-1.8,24-2.9,35.9c-0.9,9.7,2.1,18.1,7.3,26.2c1.8,2.9,2.4,6.8,2.6,10.4c0.2,3.4-0.8,6.8-1.4,10.6c-4.2,1-8.7,2.4-13.3,3.1
	c-1.2,0.2-2.8-1.7-4.2-2.7c-0.5-0.3-0.8-0.9-1.3-1.3c-6.5-4.8-7-11.4-6.9-18.8c0.1-5.8-1.8-11.6-2.7-17.4c-0.2-1.3-0.2-2.7-0.1-4
	c0.9-9.9-1-19.4-3.6-28.8c-2.7-9.6-3.1-19.4-2.1-29c0.6-6.1,3.7-11.9,5.2-17.9c1.5-6,2.2-12.2,3.6-18.3c1.4-6.4,3.3-12.7,4.9-19
	c0.4-1.4,0.8-2.8,1-4.3c1.1-8.6,1.1-17.5,3.3-25.8c2.3-8.3,6.4-16.4,15.7-19.5c4.8-1.6,10.2-1.8,14.5-4.2c6.7-3.7,15.2-2.8,20.9-8.6
	c3.6-3.6,5.1-13.1,2.9-17.7c-0.3-0.7-0.4-1.6-0.4-2.4c0-8-0.2-16.1,0.1-24.1c0.1-1.7,1.7-3.5,2.8-5.1c2.9-4,5.5-8.4,9.2-11.7
	c2.6-2.3,6.6-3.7,10.1-4.1c6-0.7,12.1-0.2,18.2-0.2c8.6,0,15.1,4.7,21.3,9.8c5.5,4.5,7,11.3,5.9,17.8c-0.9,5-4.2,9.6-6.4,14.4
	c-0.3,0.7-1.3,1.6-1.1,1.8c5.1,6.8-2.2,9.1-4.6,13.1c-0.5,0.9-1.1,1.8-1.5,2.7c-2.2,4.8-4,9.7-6.6,14.2c-0.8,1.4-4,1.4-6.4,2.1
	c0.2,5.8,6.5,4.5,9.2,7.3c4.7,4.9,11.1,2.4,16.7,3.7c5.2,1.2,8.6,4,11.4,7.7c0.6-2.5,1.1-5,1.3-7.5c0.5-6.3,0.2-12.5,3.8-18.2
	c3.3-5.3,7-9.4,13.6-11c5.5-1.3,12,1.2,16.7-3.7c2.7-2.8,8.9-1.5,9.2-7.3c-2.4-0.7-5.5-0.7-6.4-2.1c-2.7-4.4-4.5-9.4-6.6-14.2
	c-0.4-0.9-1-1.8-1.5-2.7c-2.5-4-9.8-6.3-4.6-13.1c0.2-0.2-0.8-1.1-1.1-1.8c-2.3-4.8-5.6-9.4-6.4-14.4c-1.1-6.5,0.4-13.3,5.9-17.8
	c6.2-5,12.8-9.7,21.3-9.8c6.1,0,12.2-0.4,18.2,0.2c3.5,0.4,7.5,1.8,10.1,4.1c3.6,3.2,6.2,7.7,9.2,11.7c1.2,1.6,2.8,3.3,2.8,5.1
	c0.3,8,0.1,16.1,0.1,24.1c0,0.8,0,1.7-0.4,2.4c-2.2,4.6-0.6,14.1,2.9,17.7c5.7,5.8,14.2,4.8,20.9,8.6c4.3,2.4,9.7,2.6,14.5,4.2
	c9.3,3.1,13.5,11.1,15.7,19.5c2.6-4.2,6.2-7.7,11.7-9.5c4.8-1.5,9.8-2.6,14.6-4c2.8-0.8,5.6-1.8,8.3-3c4.1-1.7,8.5-3,11.9-5.7
	c4.7-3.5,5.8-12.5,3.4-17.9c-0.3-0.7-0.3-1.6-0.3-2.4c0-8-0.2-16.1,0.1-24.1c0.1-1.7,1.7-3.5,2.9-5.1c2.9-4,5.5-8.5,9.2-11.7
	c2.6-2.3,6.6-3.6,10.2-4c6-0.6,12.1-0.2,18.2-0.2c8.6,0.1,15.2,4.7,21.3,9.8c5.4,4.5,7.2,11.2,5.9,17.8c-1,5-4.3,9.6-6.6,14.4
	c-0.3,0.7-1.2,1.7-1,1.9c4.9,5.6-1.1,8.1-3.3,11.7c-1.1,1.8-2,3.7-2.9,5.6c-2.2,4.3-4,8.7-6.6,12.7c-0.9,1.3-3.8,1.2-7.1,2.1
	c1.6,1.6,2.7,3.1,4.2,4.2c7.3,5.3,15.9,5.8,24.4,7.1c5.2,0.8,8.5,5.3,11.3,9.7c3.7,5.9,4,12.4,4,19.1c0.1,4.7,1.3,9.4,2.1,14.1
	c0.1,0.4,1.3,0.6,2.4,1.1c0.3-4.1,0.6-7.7,0.9-11.4c0.4-6.6,3.8-11.1,10-12.9c2.8-0.8,5.8-1.1,8.5-2.1c2.3-0.8,4.3-2.4,6.4-3.7
	c3.7-2.2,7.5-4.3,11.1-6.7c3.2-2.1,3.2-6.7-0.1-7c-9-0.8-8.8-8.8-12.3-13.9c-3.5-5.2-3.4-10.9-3.3-16.8c0-1.2,0-2.8-0.7-3.7
	c-3-3.9-3.1-7.5,0-11.3c0.4-0.5,0.6-1.1,0.7-1.7c1.4-9.4,6.2-16.8,14-21.9c3.2-2.1,7.7-2.8,11.7-3.1c6.3-0.4,12.1-0.4,18.1,4
	c3.2,2.4,7.8,3.9,11.5,6.7c4.4,3.4,7.8,7.1,8.9,12.6c0.6,3,2.6,6.5,1.8,9c-3.2,10-2.4,20.3-3,30.5c-0.1,2.1-3.5,4.1-5.6,5.9
	c-1.6,1.5-3.4,2.7-5.2,4c1.5,1.7,2.6,4,4.5,5c3.9,2.2,8.1,3.8,12.2,5.4c5.5,2.2,11.4,3.7,16.5,6.6c4.1,2.3,8.4,5.6,10.5,9.5
	c3.6,6.7,5.6,14,7.1,21.6c0.2-4.1,0.6-8.2,1.4-12.2c1.6-8.3,3.2-16.6,7.5-23.8c2.5-4.2,6.7-7.9,10.9-10.4c5-3,11-4.4,16.5-6.6
	c4.1-1.6,8.4-3.1,12.3-5.3c1.8-1,2.8-3.5,4.1-5.3c-1.7-1.2-3.5-2.2-5-3.6c-2.1-1.8-5.5-3.8-5.7-5.8c-0.6-10.4-0.5-20.6-3-31
	c-1.5-6.5,2.1-13.2,7-18.1c3.5-3.4,7.7-6.2,11.8-8.9c2-1.3,4.6-1.8,6.9-2.7c2.1-0.8,4.1-2,6.3-2.3c2.3-0.4,4.7,0,7-0.1
	c9.8-0.5,16.5,4.8,21.9,12.1c1.1,1.4,1.2,3.5,1.9,5.3c2,5,4.2,9.9,5.9,15c0.5,1.4-0.7,3.4-1.2,5.1c-0.4,1.4-1.6,2.8-1.5,4.2
	c0.3,6.6-0.3,12.9-4,18.6c-3.1,4.7-3.2,11.6-11.4,12.2c-3.4,0.2-3.6,4.8-0.4,6.9c3.6,2.4,7.4,4.4,11.1,6.7c2,1.2,3.8,3,5.9,3.7
	c3.1,1.1,6.3,1.7,9.6,2.1c5.6,0.6,7.8,5,9,9.1c0.9,3.2,1.3,6.6,1.8,9.9c0,0,0,0,0.1,0c3.2-0.4,6.5-1,9.6-2.1
	c2.1-0.8,3.9-2.5,5.9-3.7c3.7-2.3,7.5-4.3,11.1-6.7c3.2-2.1,3-6.7-0.4-6.9c-8.2-0.5-8.3-7.4-11.4-12.2c-3.8-5.7-4.4-12-4-18.6
	c0.1-1.4-1.1-2.8-1.5-4.2c-0.5-1.7-1.7-3.7-1.2-5.1c1.7-5.1,3.9-10,5.9-15c0.7-1.7,0.8-3.8,1.9-5.3c5.4-7.4,12.1-12.6,21.9-12.1
	c2.3,0.1,4.7-0.3,7,0.1c2.2,0.4,4.2,1.5,6.3,2.3c2.3,0.9,4.8,1.4,6.9,2.7c4.1,2.7,8.3,5.5,11.8,8.9c4.9,4.9,8.5,11.5,7,18.1
	c-2.4,10.3-2.3,20.6-3,31c-0.1,2.1-3.6,4-5.7,5.8c-1.5,1.3-3.3,2.4-5,3.6c1.3,1.8,2.3,4.3,4.1,5.3c3.9,2.2,8.1,3.7,12.3,5.3
	c5.5,2.2,11.4,3.6,16.5,6.6c4.2,2.5,8.4,6.2,10.9,10.4c4.3,7.2,5.9,15.4,7.5,23.8c2,10.2,1.2,20.4,2.9,30.5
	C1041.3,282.7,1040.3,295.4,1042.4,307.6z M382.1,377.8c0.7,3.5,2.3,6.8,3.9,11.2c1-4.8,1.9-9,2.8-13.1c-0.4-1.1-0.7-2.1-0.8-3.2
	c-0.7-8.9-0.8-17.8-0.9-26.7c-1-8-1.3-16.2-2.1-24.3c-0.1-1.3-0.1-2.7-0.1-4c0-4.9-0.1-9.7,0.1-14.6c0.1-2.6,0.1-5.3,0-7.9
	c-0.3-3.2-0.6-6.4-0.9-9.6c-0.4-2.1-0.8-4.2-1.5-6.2c-1.4,0.6-3.2,1-3.3,1.6c-1.2,5.9-2.7,11.9-3,17.9c-0.7,11.1-0.9,22.2-1,33.2
	c0,3.2-0.2,7,1.2,9.7c4,7.5,5.1,15.3,4.8,23.5C381,369.6,381.3,373.8,382.1,377.8z M419.4,313c1.4-2.7,1.3-6.4,1.2-9.7
	c-0.2-11.1-0.3-22.2-1-33.2c-0.4-6-1.8-11.9-3-17.9c-0.1-0.7-2-1-3.3-1.6c-2.3,7.1-2.6,15.3-2.4,23.6c0,0.7,0,1.5,0,2.2
	c0.5,1.1,0.9,2.3,1,3.5c0.7,5.4,1.1,10.9,1.1,16.3c0,5.3-0.5,10.5-0.9,15.8c-1.2,13.6-2.8,27.2-3.8,40.8c0.5,2.3,1,4.7,1.5,7.2
	c1.6-4.4,3.2-7.7,3.9-11.2c0.8-4,1.2-8.2,1-12.2C414.4,328.2,415.5,320.4,419.4,313z M657,351.1c1-5.5-0.6-10.7-1.6-16.2
	c-2.1-10.9-2.5-22.2-3.3-33.3c-0.4-6.7,0.2-13.4-0.1-20.1c-0.4-7.3-1.3-14.5-1.9-21.8c-0.6,0-1.2,0.1-1.8,0.1
	c-0.7,0.8-1.9,1.5-2.1,2.4c-1.2,5.8-2.6,11.5-3,17.4c-0.7,11.6-0.9,23.2-1.1,34.7c0,2.9-0.1,6.2,1.2,8.7c3.8,7.1,5.1,14.6,4.8,22.5
	c-0.1,4.4,0.2,8.9,1,13.2c0.6,3.5,2.3,6.8,3.8,11.1C654.5,362.8,655.9,357,657,351.1z M744,504.9c0.6-6.9-3-12.7-4.6-19
	c-2.1-8-3-16.5-3.2-24.8c-0.5-17.1-0.1-34.3-0.1-51.4c0-1.8,0-3.7,0-5.5c-1.5,4.5-2.7,9-2.9,13.5c-0.5,12-0.7,23.9-2.6,36
	c-1.4,9.3-2.7,19.5,1.4,29c3.5,8.1,6.6,16.4,9.9,24.6c0.6-0.2,1.2-0.4,1.9-0.5C743.8,506.1,743.9,505.5,744,504.9z M782.7,363.9
	c0.4-0.8,1.2-1.5,1.1-2.3c-0.9-11.1-2-22.3-2.8-33.4c-0.6-7.7,0.4-15.3-2.7-23c-2.4-5.9-2.2-12.8-3.2-19.6
	c-1.2,4.1-2.8,7.3-2.9,10.7c-0.4,8.9-0.1,17.8-0.1,26.6c0,0.3,0.3,0.6,0.4,0.9c1.5,4.2,3.5,8.3,4.4,12.7c1.7,8.5,2.8,17.1,4.2,25.7
	C781.2,362.8,782.1,363.3,782.7,363.9z M821.1,308.4c0.9-4.9,0.8-10.1,0.5-15.1c-0.4-7.4-1.4-14.7-2.2-22.1
	c-0.4-0.1-0.7-0.2-1.1-0.3c-1,6.4-0.8,13.3-3.2,19.2c-3.3,8.2-2.1,16.3-2.7,24.5c-0.7,10.5-1.7,21-2.5,31.5
	c-0.1,0.9,0.5,1.8,0.8,2.7c0.6-0.7,1.6-1.4,1.7-2.2c1.4-8.5,2.5-17.2,4.2-25.6C817.6,316.7,820.4,312.7,821.1,308.4z M863.3,464.1
	c1.4-4.2,0.5-9.3,0.2-13.9c-0.5-8.4-1.4-16.7-2-25.1c-0.4-5.8-0.5-11.5-1-17.3c-0.3-2.9-1.2-5.7-1.8-8.6c-0.1-0.3-0.1-0.7-0.1-1
	c0.2-1.5,0.7-3,0.6-4.4c-0.1-1.7-0.8-3.3-1.2-5c-0.2,0-0.3,0-0.5,0c0,18.5,0.7,37-0.2,55.4c-0.7,12.7-1.1,25.7-7.4,37.5
	c-1.4,2.6-0.2,6.5,0.8,10.2c0.9-1.7,1.8-3.3,2.6-5C856.7,479.4,860.7,472,863.3,464.1z M982.8,511c1-3.7,2.1-7.6,0.8-10.2
	c-6.3-11.8-6.7-24.8-7.4-37.5c-1-18.4-0.2-36.9-0.2-55.4c-0.2,0-0.3,0-0.5,0c-0.4,1.6-1,3.3-1.2,5c-0.1,1.4,0.4,2.9,0.6,4.4
	c0,0.3,0,0.7-0.1,1c-0.6,2.9-1.5,5.7-1.8,8.6c-0.5,5.7-0.6,11.5-1,17.3c-0.6,8.4-1.5,16.7-2,25.1c-0.3,4.6-1.2,9.7,0.2,13.9
	c2.6,7.9,6.6,15.3,10,22.9C981,507.7,982,509.3,982.8,511z M1022.8,367.9c0.3-0.9,0.9-1.8,0.8-2.7c-0.8-10.5-1.8-21-2.5-31.5
	c-0.6-8.2,0.6-16.3-2.7-24.5c-2.4-5.8-2.2-12.7-3.2-19.2c-0.4,0.1-0.7,0.2-1.1,0.3c-0.7,7.4-1.7,14.7-2.2,22.1
	c-0.3,5-0.3,10.2,0.5,15.1c0.8,4.3,3.5,8.3,4.4,12.6c1.7,8.5,2.8,17.1,4.2,25.6C1021.2,366.5,1022.2,367.1,1022.8,367.9z"/>
</svg>
