<?xml version="1.0" encoding="utf-8"?>
<!-- Generator: Adobe Illustrator 22.1.0, SVG Export Plug-In . SVG Version: 6.00 Build 0)  -->
<svg version="1.1" baseProfile="tiny"
	 id="svg2" inkscape:version="0.47 r22583" sodipodi:docname="Neues Dokument 1" xmlns:cc="http://creativecommons.org/ns#" xmlns:dc="http://purl.org/dc/elements/1.1/" xmlns:inkscape="http://www.inkscape.org/namespaces/inkscape" xmlns:rdf="http://www.w3.org/1999/02/22-rdf-syntax-ns#" xmlns:sodipodi="http://sodipodi.sourceforge.net/DTD/sodipodi-0.dtd" xmlns:svg="http://www.w3.org/2000/svg"
	 xmlns="http://www.w3.org/2000/svg" xmlns:xlink="http://www.w3.org/1999/xlink" x="0px" y="0px" viewBox="0 0 1280 720"
	 xml:space="preserve">
<path d="M319.6,640.8c-4.6-1.7-5.9-3.4-4.8-6.3c0.5-1.3,1.5-2.4,2.2-2.4c0.7,0,3.7,1.6,6.6,3.5c3,1.9,6.6,3.9,8.1,4.5l2.7,1
	l-3.3,0.1c-1.8,0-4.5,0.2-5.9,0.4C323.7,641.8,321.2,641.4,319.6,640.8L319.6,640.8z"/>
<path d="M309.2,632c-0.9-0.5-2.3-0.6-3.2-0.4c-1.1,0.4-2-0.2-2.8-1.7c-0.7-1.2-1.9-2.5-2.7-2.8c-1.8-0.6-5.6-6.8-7.8-12.6
	c-1.1-2.9-2.5-4.9-4.2-5.9c-3-1.7-3.3-2.5-0.9-3.3c2.7-0.9,3.2-5.6,0.9-8.8c-1.1-1.5-1.6-3.3-1.3-4.1c0.4-1-0.7-2.8-3.2-5.4
	c-3.2-3.3-3.8-4.5-4-8c-0.1-2.3-0.6-4.7-1.2-5.4c-0.7-0.9-0.9-4-0.5-10.2c0.4-6.7,0.2-10.9-1-16.7c-1.7-8.6-2.6-24.6-2.2-39.2
	c0.1-3.1-0.3-7.4-0.9-9.5c-1.4-5.1-8-11.6-16.2-15.9c-5.8-3.1-6.7-3.9-9-8.6c-1.4-2.9-4-7.1-5.9-9.5c-1.8-2.4-3.9-5.8-4.5-7.7
	c-1.9-6-5.3-11.9-7.6-13.5c-1.2-0.8-2.6-2.9-3.1-4.7c-0.8-2.8-0.6-3.6,1.9-7.2c2.7-3.9,2.7-4,0.9-4.5c-4.4-1.2-2.6-7.1,5.4-17.1
	c5.3-6.7,6.8-11.8,5.4-17.6c-0.6-2.2-1.1-4.6-1.1-5.2c-0.1-0.6-0.5-1.1-0.9-1.1s-0.3-0.8,0.2-1.8c0.8-1.5,0.6-2-1.4-2.9
	c-2.9-1.3-7.2,0-7.3,2.2c0,2.6-1.2,2.8-5,0.8c-2-1.1-4.1-1.9-4.7-1.9s-2.7-1.4-4.7-3.2c-2.1-1.8-4.2-3.6-4.9-4.1
	c-0.6-0.5-1.1-1.8-1.1-3c0-1.1-0.8-2.8-1.8-3.7c-1-0.9-2.2-3-2.8-4.8c-0.8-2.3-1.3-2.9-2-2.2c-1.5,1.5-3.7,1.2-9.1-1.2
	c-2.8-1.2-5.7-3.4-6.9-5c-1.1-1.6-3.2-3.5-4.7-4.2c-2.5-1.3-3.1-1.3-6.6,0.1l-3.9,1.5l-12.1-5.9c-7.4-3.6-13.2-7-15-8.9
	c-2.8-2.9-2.9-3.3-1.9-6.9c0.8-3.3,0.7-4.4-1.1-8.2c-1.2-2.4-3.7-6.1-5.6-8.2c-1.9-2.1-3.3-4.2-3-4.6c0.3-0.4-1.1-3.4-3-6.5
	c-2.2-3.6-3.7-7.4-4.1-10.2c-0.5-3.6-1.1-4.7-2.9-5.5c-1.9-0.9-2.5-0.8-3.6,0.7c-1.6,2.1-1.1,4.4,2.3,11.8c1.4,3,2.8,7.5,3.2,10
	c0.4,2.5,1.5,6,2.4,7.9c2.3,4.5,0.8,4.4-2.8-0.1c-2.1-2.7-2.7-4.1-2.3-5.8c0.4-1.8,0-2.6-2.2-4.3c-3.3-2.5-4-4.1-2.8-6.3
	c0.7-1.3,0.4-2.8-1.4-6.4c-1.8-3.6-2.2-5.4-1.8-8.1c0.7-4.4-1.2-8.4-4.9-9.9c-2.1-0.9-2.9-1.9-3.3-4.4c-0.3-1.8-0.9-4.6-1.3-6.2
	c-0.4-1.7-0.4-3.2,0.1-3.4c0.5-0.3,0.2-1.5-0.7-2.8c-1.2-1.8-1.3-2.7-0.4-4.6c0.6-1.3,0.8-2.7,0.5-3.2c-0.3-0.5,0.5-2,1.7-3.3
	c1.3-1.3,2.9-4,3.7-5.9c0.8-1.9,3.2-5.5,5.4-7.9c2.2-2.4,4.9-6.7,6.1-9.4c1.7-3.8,2.6-5,4.1-5c1.1,0,1.9,0.5,1.8,1.1
	c-0.3,2.6,1.8,1.8,4.1-1.6c1.4-2,2.1-3.8,1.6-3.9c-0.5-0.2-0.8-0.9-0.8-1.7s-1.9-3.2-4.2-5.4c-3.8-3.7-4-4.2-2.8-5.6
	c1-1.1,1.1-2,0.5-3.2c-1.2-2.1,0.7-7,2.7-7c0.8,0,1.1-0.3,0.6-0.7c-1.2-0.9-1.7-2.8-1.5-5.7c0.3-4.5-0.7-6.4-4.1-7.8
	c-1.8-0.8-4.6-2.4-6.2-3.6s-3.6-2.2-4.4-2.2s-4.8-0.8-8.8-1.8c-6.4-1.6-7.5-1.7-9.7-0.6c-4.6,2.3-9.4,3.3-11.4,2.2
	c-1.5-0.8-3.1-0.3-8.7,2.6c-3.8,2-8.3,3.9-10.1,4.3c-1.7,0.4-5.1,1.6-7.4,2.8c-6.6,3.3-16.1,6.7-18.8,6.6c-1.7,0-0.5-0.8,4-2.6
	c7.7-3,15.5-7,16.3-8.2c0.9-1.5-1.1-2-3.4-0.9c-1.7,0.8-2.8,0.7-4.8-0.3l-2.6-1.3l2.8-1.4c3.1-1.6,4.1-3.5,3.4-6.3
	c-0.7-2.8,3.2-4.8,11.5-6.1c4.5-0.7,7.9-1.8,10.1-3.3c4-2.7,3.3-4.8-1-3c-2.1,0.9-3.6,0.9-6.6,0c-3.7-1-3.8-1.1-2.2-2.3
	c2.8-2,8.5-3.2,12.3-2.6c2.4,0.4,4.3,0.1,6.3-0.9l2.9-1.5l-1.9-2c-1-1.1-1.9-2.3-1.9-2.6c0-0.8,5.5-2.5,8.2-2.5c1.4,0,5.1-1,8.3-2.2
	c3.2-1.2,10.6-2.9,16.4-3.7c9.5-1.3,11.5-1.3,18.5-0.1c4.4,0.7,10.4,1.6,13.4,1.9c3,0.3,8.3,1.4,11.8,2.3c8.1,2.2,13.3,2.2,22.4-0.1
	c4-1,8-1.6,9-1.3c0.9,0.3,2.5,0.1,3.5-0.4c1.4-0.7,2.5-0.7,4.5,0.4c1.8,0.9,4,1.2,7,0.8c3.2-0.4,6,0,10,1.4c3.1,1,6.5,1.9,7.7,1.9
	c2,0,2,0,0.3,1.3c-1.7,1.2-1.7,1.3-0.1,1.9c0.9,0.4,4.1,0.4,7,0.1c5.3-0.6,5.4-0.5,6.9,2.3l1.5,2.9l1.9-2.4c1.1-1.4,3.8-3,6.2-3.7
	c3.7-1.1,4.9-1.1,8.6,0c2.6,0.8,5.8,1.1,8.2,0.8c3-0.4,4.4-0.2,6.4,1.2c2.5,1.8,2.6,1.8,4.8,0.1c1.2-1,3.8-2.2,5.6-2.7
	c4.5-1.2,6-3.9,3.3-5.8c-1.9-1.3-1.8-1.4,3.2-3.9c3.7-1.8,5.4-2.2,6.1-1.5c0.7,0.7,0.7,1.5,0,2.9c-1.3,2.4,0.3,5.9,2.3,5.2
	c0.7-0.3,1.9-0.3,2.6,0c1.1,0.4,1.1,0.8-0.1,2.7c-3.5,5.3,4.3,3.8,9.6-1.9c2.2-2.3,5.5-3,8.6-1.8c2,0.8,1.8,1.4-1.5,5.1
	c-4,4.4-6,5.3-12,5.3c-2.9,0-6.3,0.6-7.9,1.4c-2.2,1.1-3.3,1.2-5,0.4c-3.2-1.5-4.4-0.2-2,2.2l2,2.1l-4,1.1c-2.2,0.6-5.8,1.2-8,1.3
	c-3.3,0.1-4.1,0.5-4.1,1.7c0,1.1-1.6,2.3-5,3.6c-11,4.5-20.4,12.6-17,14.7c0.6,0.4,1.6,1.8,2.2,3.2c0.7,1.6,2,2.7,3.6,3
	c1.4,0.3,5,1.7,8,3.2c3,1.5,6.7,2.9,8.2,3.3c4.1,0.9,4.2,1,2.2,5.9c-1.6,4.2-1.7,4.8-0.4,7.2c0.8,1.5,1.9,2.7,2.5,2.6
	c3-0.1,5.8-2.8,7.5-7.4c1.6-4.3,2.4-5.1,7.1-7.7c7-3.7,9.9-7.4,9.1-11.5c-0.5-2.7-0.2-3.3,2.1-5c1.5-1,3.4-3.5,4.3-5.5
	c2-4.4,5.2-6,10.7-5.1c4.8,0.8,10.5,3.8,11.2,6c0.3,0.9,0,2.5-0.5,3.6c-0.9,1.6-0.7,2.3,1,4.1l2,2.1l3.3-1.7
	c1.8-0.9,4.7-2.8,6.4-4.1l3.1-2.4l0.7,2c0.4,1.1,0.5,2.6,0.3,3.3s-0.1,2.1,0.5,3c0.6,1.1,0.6,2.3,0.1,3.2c-0.6,1-0.2,2.6,1.3,5.2
	c2.1,3.7,2.1,3.7,0.3,5c-2.4,1.7-0.9,3.5,1.8,2.1c2.6-1.4,5.6-1.2,7.5,0.5c2.7,2.5,0.5,5.5-6.8,8.9c-7.9,3.7-11.5,4.5-21.8,4.6
	c-7.6,0.1-8.7,0.3-16.1,3.9c-4.4,2.1-7.9,4.2-7.9,4.6c0,1.9,1.4,1.7,6.7-0.8c3.1-1.5,7.1-2.6,9-2.6c3.3,0,3.4,0.1,2.4,2
	c-0.6,1.1-1.9,2.6-2.8,3.4c-1.5,1.2-1.6,1.7-0.7,3.8c1.4,3.1,5.1,4.6,9.6,3.9l3.5-0.6l-2.7,1.9c-1.5,1-3.9,2.1-5.4,2.5
	c-1.5,0.3-4.6,1.5-6.9,2.7c-2.3,1.2-4.6,1.8-5.3,1.4c-1.4-0.9,0.1-2.2,4.7-4.2c4.1-1.7,3.5-3.6-1-2.7c-1.7,0.3-7.4,2.5-12.5,4.7
	c-8.1,3.5-9.5,4.5-9.9,6.6c-0.6,2.6-2.5,3.9-9.5,6c-2.2,0.7-5.1,2.3-6.3,3.6c-1.3,1.3-3.7,3.3-5.5,4.4c-1.7,1.1-3.4,3-3.7,4.2
	c-0.5,2-0.6,2.1-1.2,0.5c-1.1-3-2.8-0.1-2.9,5c-0.1,5.2-2.7,8.7-8.4,11.4c-5.9,2.8-14.2,9.3-15.9,12.4c-1.5,2.8-1.6,3.9-0.6,11
	c0.9,6.7,0.8,8.3-0.3,10.5c-0.8,1.6-1.8,2.4-2.7,2.1c-1.9-0.7-4.3-8.8-3.7-12.3c0.5-2.5,0.2-3.4-1.7-5.1c-1.5-1.4-2.9-1.9-4-1.6
	c-1,0.3-3.7-0.3-6.1-1.3c-3.7-1.6-4.8-1.7-7.4-0.8c-1.8,0.6-3.5,2-4.1,3.2c-0.9,1.9-1.4,2.1-3.8,1.6c-1.5-0.3-3.9-1.2-5.2-1.8
	c-3.3-1.7-5.2-1.6-8.9,0.6c-1.7,1-5.3,2.9-7.9,4.2c-3,1.5-5,3.3-5.6,4.8c-0.5,1.3-2.1,6.3-3.7,11.1l-2.9,8.7l1.5,5.6
	c2.7,10.4,6.4,13.5,14.2,11.8c5.9-1.3,9.4-3.8,10.7-7.7c0.8-2.5,1.7-3.3,4.4-4.1c4-1.1,5.7-1.2,7.2-0.2c1.3,0.8,0.8,2.1-4.9,14.4
	c-3.9,8.4-3.6,9.2,3.1,8.2c6.1-0.9,11.6-0.2,12.3,1.5c0.3,0.7-0.2,5.1-0.9,9.9c-1.4,8.6-1.3,8.7,0.6,11.9c1.1,1.8,3.1,3.8,4.5,4.5
	c2.2,1.2,3,1.2,5.8,0c4.5-1.9,6.9-1.7,10,0.8c2.5,2,2.8,2.1,4.8,0.8c1.2-0.8,2.8-2.7,3.5-4.2c1.8-3.5,4.7-5.9,7.2-6c1,0,2.8-1,4-2.3
	c2.4-2.5,6.6-3.4,4.5-0.9c-1.7,2.1-2.7,8.7-1.6,10.8c0.9,1.7,1,1.7,2.7-0.4c1.2-1.5,1.4-2.4,0.8-3.1c-1.6-1.6-1.1-2.9,1.8-5
	c3-2.2,5.3-2,7.9,0.8c1.9,2,12.1,4.8,15,4.1c4.4-1.1,16.4,6.2,20.9,12.7c2.1,3.1,9,6.3,12,5.5c6.2-1.6,14.7,4.7,16.7,12.2
	c0.6,2.2,1.5,4.3,2,4.6c1.3,0.8-0.7,4.1-5,8.2c-2.8,2.6-3.4,3.8-2.6,4.5c0.8,0.8,2.1,0.1,5.1-2.7c4.5-4.1,6-4.5,8.2-2.3
	c1.4,1.4,1.3,1.6-0.5,3.6c-1.1,1.2-2.7,2.2-3.5,2.2c-0.8,0-0.5,0.4,0.8,0.9c1.8,0.7,2.7,0.5,4.5-1c4.8-3.9,5.9-4.1,10.2-1.7
	c2.8,1.5,3.9,2.7,3.7,4c-0.4,3.5,0.4,4.2,2.8,2.7c1.9-1.2,3.2-1.3,9.6-0.4c6.8,0.9,7.7,1.3,10.9,4.6c2.4,2.4,5.1,4,8.5,5
	c4.6,1.3,5.1,1.7,5.9,4.8c1.2,4.5-0.2,9.4-4,14.2c-1.6,2-3.6,5-4.4,6.6c-0.8,1.6-2.5,4-3.8,5.3c-2.2,2.2-2.3,2.7-1.8,8
	c1.1,10.2-3.9,29.2-8.7,33.3c-1.6,1.3-2.9,1.6-5.4,1.3c-2-0.3-3.6-0.1-4,0.5c-0.4,0.6-2.3,1.8-4.4,2.7s-5.1,2.8-6.8,4.3
	c-2.9,2.5-3,2.8-2,5.8c1.1,3.4,0.4,7.5-2.1,11c-0.8,1.1-1.4,3-1.4,4.3s-0.9,3.5-2.1,5c-1.2,1.5-3.4,5.1-5,7.8c-3.9,6.8-6.2,8-11.8,6
	c-4.9-1.7-7.5-1.9-7.5-0.6c0,0.5,1,1.4,2.2,1.9c1.2,0.5,3,2.7,4.1,4.9c1.6,3.2,1.8,4.3,0.9,6.1c-1.3,2.8-6.2,5.2-10.8,5.2
	c-4.1,0-5.1,1-3.7,3.6c0.9,1.6,0.3,4.2-1.4,6.2c-0.1,0.2-1.6-0.4-3.2-1.2c-3.8-2-5.2-0.7-3.2,3c0.8,1.5,2.3,3,3.3,3.4
	c1.8,0.6,1.8,0.7,0.4,2.3c-0.8,0.9-1.3,2.4-1,3.2c0.3,0.9-0.4,2.7-1.8,4.6c-2.3,3-2.3,3.2-0.9,5.4c0.8,1.3,2.1,2.6,2.9,2.8
	c2.7,1,3.2,4.6,1.1,8.7c-2.1,4.1-2.4,8.2-0.8,10.1C316.3,629.8,311.4,633.2,309.2,632L309.2,632z M242.3,239.3
	c2.4-5.1,6.9-8.8,10.6-8.8c2.6,0,2.6,0.4,0.3,3.5l-1.9,2.4l1.9,1.6c1.6,1.3,2.4,1.4,4.1,0.6c1.2-0.6,2.5-1.8,2.8-2.8
	c0.4-1.3,1.1-1.6,2.7-1.2c1.5,0.4,2.4,0.1,3-1c1.8-3.3-2.8-7.5-6.3-5.7c-2.5,1.3-5.7-1.3-5-4.1c0.3-1-0.3-2.8-1.2-4
	c-1.9-2.5-4.7-2.7-11-1c-2.2,0.6-4.8,1.1-5.7,1.1c-0.9,0-1.4,0.3-1.1,0.8c0.3,0.5,0.2,0.9-0.2,0.9c-0.4,0-1.7,0.8-3,1.8l-2.3,1.7
	l2.5,1c2,0.8,3.1,0.6,5.3-0.5c2.6-1.3,3.1-1.3,5.9,0c1.7,0.8,4,1.2,5.2,0.9c1.2-0.3,2.4-0.1,2.7,0.4c0.3,0.5-1,1.2-2.9,1.5
	c-5.3,0.9-8.1,3.1-11.9,9.5c-3.2,5.4-3.4,6-2.1,7.5c1.3,1.4,1.6,1.4,3.3,0.2C239.2,244.6,241.1,241.9,242.3,239.3L242.3,239.3z"/>
<path d="M258.8,244.9c3.2-1.6,3.5-2.1,2.4-3.2c-1.1-1.1-1.9-1.1-5.6,0.6c-4.3,1.9-5.7,4.5-2.4,4.5
	C254.3,246.7,256.8,245.9,258.8,244.9z"/>
<path d="M274.9,238c1.9-1.3,2-1.6,0.6-2.3c-2-1.1-7.8,0.8-7.8,2.5C267.7,240,272.2,239.9,274.9,238z"/>
<path d="M343,629.6c0-0.4,0.5-1.2,1.1-1.8c0.6-0.6,0.7-1.1,0.3-1.1s-1.3,0.7-1.8,1.5c-0.9,1.2-1.5,1.3-2.8,0.5c-1-0.6-1.2-1-0.5-1
	c0.7,0,0.9-0.4,0.6-0.9c-0.6-1,1-1.2,5.4-0.9c4,0.3,4.4,0.9,1.9,2.8C344.9,630.4,343,630.8,343,629.6L343,629.6z"/>
<path d="M1100.2,606.8c-2.6-1.6,2.8-5.3,16.2-10.9c3.7-1.6,9.4-4.8,12.7-7.3c5.5-4.1,5.9-4.3,7-2.8c1.7,2.4,0.7,4.1-3.4,5.9
	c-1.9,0.9-4.3,2.6-5.4,3.7c-1,1.2-2.7,2.2-3.7,2.2c-1,0-3.3,1.4-5.2,3.1C1112,606.4,1103.9,609.2,1100.2,606.8L1100.2,606.8z"/>
<path d="M1036.7,595c-0.9-0.6-1-1.2-0.2-2.6c0.6-1,1-3.1,1-4.7c0-2.6,0.2-2.8,2-2.1c1.1,0.4,3.5,0.8,5.2,0.8s3.5,0.2,3.9,0.3
	c1.5,0.3-2.5,4.9-6.1,7C1038.2,596.1,1038.4,596.1,1036.7,595L1036.7,595z"/>
<path d="M1141.5,587.1c-0.3-0.3,0.4-1.4,1.7-2.3c1.9-1.5,2.1-2.1,1.3-3.6c-1.2-2.2,0.6-4.5,4.6-6.2c3.1-1.3,3.9-3.9,3.1-10.2
	c-0.6-4.4-0.5-4.6,0.9-3.5c1.1,0.9,1.4,2.1,1,4.2c-0.4,2.3,0,3.5,1.9,5.8c2.1,2.5,2.7,2.7,4.3,1.9c1.6-0.9,1.8-0.8,1.3,0.5
	c-0.3,0.8-0.6,1.7-0.6,1.9c0,0.2-1.3,1-2.9,1.9c-1.6,0.8-4.8,3-7,4.9c-3.6,3-7.4,5.4-8.4,5.4
	C1142.2,587.7,1141.8,587.4,1141.5,587.1L1141.5,587.1z"/>
<path d="M1045.6,575.4c-1.9-2-2.3-2.1-4.1-0.9c-2.3,1.5-6.7,0.6-10.3-2.1c-1.9-1.5-2-1.9-1-3.7c0.8-1.5,0.9-2.6,0.1-4.3
	c-0.6-1.2-1-3-1-4c0-2.2-1.4-2.3-2.6-0.2c-0.5,0.9-1.1,1.3-1.5,1c-0.3-0.3,0.7-2.1,2.3-3.9c3.9-4.5,2.4-5.7-2.8-2.2
	c-2.2,1.5-4.2,3.1-4.4,3.6c-0.2,0.5-1.3-1.1-2.4-3.5c-1.2-2.6-3.4-5.2-5.3-6.5c-2.9-1.9-3.9-2.1-9.4-1.5c-8.1,0.8-15.9,2.8-21.1,5.4
	c-2.3,1.2-6.9,2.4-10.4,2.7c-3.4,0.4-8.9,1.7-12.1,2.9c-5,1.9-6.4,2.1-8.9,1.2c-3.4-1.1-4.8-3.4-2.6-4.2c0.8-0.3,2.2-2.4,3.2-4.6
	c1.5-3.6,1.6-4.7,0.7-9.3c-0.8-3.8-0.8-7.5-0.1-13.4c0.5-4.5,0.7-9,0.4-10.1c-0.3-1.1,0.2-3.7,1-5.8c1.4-3.8,1.8-4,11.5-8.1
	c5.5-2.3,11.2-4.2,12.5-4.2c3.7,0,8.4-3.6,10.9-8.4c1.6-3,2.7-4.1,3.6-3.8c2.6,1,3.2,0.8,3-1.1c-0.1-1.3,0.4-2.2,1.5-2.5
	c0.9-0.3,2.7-1.9,3.8-3.7c1.2-1.8,3.7-3.7,5.7-4.5c3.3-1.3,3.6-1.3,5.4,0.3c3.3,3,5.7,3.9,6.8,2.5c0.5-0.7,0.7-1.5,0.4-1.8
	c-1-1,3.7-7,6-7.6c1.2-0.3,3.8-1.3,5.7-2.3c2.9-1.5,4-1.6,7.3-0.7c7.1,1.9,7.3,2.2,4.7,6.2c-3.4,5.1-2.5,7.1,5.8,13
	c3.8,2.7,7.5,4.8,8.1,4.6c0.6-0.2,2.5-2.3,4.2-4.6c2.3-3.2,3.2-5.5,3.6-9.2c0.5-5.3,3.1-12.7,4.4-12.7c0.4,0,1.4,2.2,2.2,4.9
	c0.8,2.7,2.4,5.8,3.6,6.9c2.8,2.7,4.5,10.1,3.2,14.5c-0.8,2.9-0.7,3.4,2.2,6.3c1.7,1.8,4.4,6.1,6,9.6c1.6,3.5,4.5,8.4,6.4,11
	l3.5,4.6l-1,7.2c-0.7,5.2-1.8,8.6-4.1,12.6c-3.4,6.1-8.5,11.8-11.2,12.7c-1,0.3-3.2,2.6-5,5c-1.8,2.5-3.6,4.5-4.1,4.5
	c-0.5,0-2.6,2.1-4.6,4.7c-3.4,4.3-4,4.7-7.6,4.8c-2.7,0.1-4.8,0.8-7.1,2.5l-3.2,2.4L1045.6,575.4L1045.6,575.4z"/>
<path d="M603.5,556.3c-1.9-1.9-2.2-2.9-1.8-5.5c0.4-2.5,0-4-1.7-6.5c-1.2-1.8-2.2-3.7-2.2-4.3c0-0.5-1.6-3.1-3.6-5.8
	c-3-4.1-3.7-5.7-4.2-10.8c-0.9-9.1-3.8-18.9-7.7-26c-1.9-3.5-3.7-8-4.1-10.1c-0.7-4.4,1.1-10.9,5.1-18.7l2.7-5.2l-1.5-4.6
	c-0.8-2.5-1.3-5.6-0.9-6.8c0.4-1.5,0-3.3-1.2-5.2c-1-1.6-2.4-5.1-3.2-7.9c-1-3.7-2.5-6-5.5-9c-5.7-5.6-6.5-7.9-4.7-14
	c3.6-12.5-0.3-19.8-9.9-18.3c-3.7,0.6-3.9,0.5-4.4-2.1c-0.4-2-1.5-3.2-4.3-4.6c-3.6-1.8-5.1-1.8-9.5,0c-1,0.4-5.1,1.8-9.1,3.1
	c-6,2-7.8,2.2-10.4,1.5c-2.5-0.7-4.6-0.5-9.6,0.9c-5.2,1.4-7.1,1.6-10,0.8c-5.9-1.6-16-10.8-17.5-15.7c-1.1-3.9-8.1-12.9-10.4-13.5
	c-1.5-0.4-1.7-0.7-0.8-1.3c0.9-0.6,0.8-0.9-0.7-1.3c-2.3-0.6-2.5-2.5-0.3-2.5c1.4,0,1.4-0.1,0.2-0.9c-0.9-0.6-1-0.9-0.3-0.9
	c0.7,0,0.4-1.1-0.8-3.2c-1.7-2.9-1.8-3.3-0.4-4.8c4.1-4.5,4.9-14.1,1.9-20.2c-1.5-2.9-0.5-6.9,2.6-11.1c1.2-1.6,3.5-5.4,5.1-8.5
	c2.9-5.4,9.3-13,11-13c1.9,0,8.1-6.6,8.1-8.7c0-4.6,2.8-9.3,7.3-12.2c2.4-1.6,5.3-4.2,6.3-5.9c2.2-3.5,2.5-3.6,5-1.8
	c1,0.7,3.4,1.5,5.4,1.9c3.1,0.5,4.5,0.1,9.1-2.3c7.8-4.2,12.7-5.2,21.6-4.7c5.9,0.4,8.6,0.1,11.4-1c4.2-1.7,7.9-0.7,6.9,1.9
	c-0.3,0.8-0.1,1.9,0.4,2.5c0.7,0.8,0.6,1.9,0,3.7c-0.8,2.2-0.6,2.8,1.4,5c1.3,1.4,3.6,2.7,5.2,3c7.3,1.5,9.4,2.4,10.9,4.9
	c1.1,1.9,2.5,2.8,4.9,3.3c1.9,0.3,4.6,1.2,6,2c2.4,1.3,2.8,1.2,4.8-0.7c1.4-1.3,2-2.7,1.7-3.7c-0.3-0.9-0.1-2.4,0.5-3.5
	c1.4-2.6,5.4-2.4,11.6,0.7c6.8,3.4,19.6,5.8,24.2,4.6c2.2-0.6,4.3-0.6,6.2,0c6.3,1.9,9.5,0.4,10.3-4.9c0.3-1.8,0.8-3.2,1.1-3.2
	c0.6,0,0.9-2.6,1-8.4c0-1.9,0.5-3.4,1-3.4c0.6,0,0.6-0.7-0.1-1.9c-1.1-2.1-3.4-2-8.8,0.2c-2.6,1.1-3.3,1-5.6-0.3c-3-1.8-6-2-6.9-0.6
	c-0.7,1.1-5.3,0.3-7.8-1.3c-1.8-1.1-3.5-4.5-3.5-7c0-0.9-0.9-2.4-2-3.2c-1.7-1.2-1.8-1.6-0.7-2.3c0.7-0.5,2.3-0.7,3.4-0.4
	c1.4,0.3,2.8-0.2,4.4-1.9c1.6-1.6,3.5-2.4,5.6-2.6c1.8-0.1,4.4-0.9,5.8-1.8c3-2,9.8-1.4,15.1,1.2c7.1,3.6,13.4,3.4,16-0.5
	c1.3-2,1.3-2.4,0.1-4.4c-0.8-1.2-4.4-3.9-8.2-6l-6.8-3.9l1.3-2.5c0.7-1.4,1-2.7,0.8-3c-0.3-0.3-0.2-1,0.2-1.7
	c0.4-0.7,0.8-1.7,0.9-2.4c0.2-1.4-1.3-1-8.5,2.2c-4.2,1.9-4.8,2.4-3.9,3.5c0.6,0.7,2,1.4,3,1.4c1.5,0,1.1,0.5-1.5,1.9
	c-3.3,1.7-3.6,1.7-5.7,0.4c-1.8-1.2-2-1.7-1.2-2.8c0.9-1,0.7-1.4-0.6-1.9c-0.9-0.3-2.1-1.2-2.7-1.9c-2.6-3.5-10.8,5.6-13.2,14.6
	c-1.1,4.2-1.1,4.4,1,6l2.2,1.7l-4,0.8c-2.2,0.5-5.2,0.5-6.6,0.1c-2.6-0.7-6,0.4-6,2c0,0.5-0.6,0.6-1.4,0.3c-0.8-0.3-2,0-2.7,0.5
	c-1.1,0.9-1,1.7,0.8,5.1c2,3.7,2,4.2,0.8,6.7c-1.5,3.1-3,2.9-5.2-0.8c-1.5-2.6-1.5-2.6,0.5-2.9c2.5-0.4,2.7-2,0.2-2.4
	c-5.6-0.9-8.6-3.9-8.6-8.5c0-3.6-3.4-7.6-7.4-8.9c-2.1-0.6-4.4-2-5.1-3c-0.7-1-2.7-2.4-4.5-3.2c-1.8-0.8-3.8-2.1-4.5-3.1
	c-0.9-1.4-1.6-1.5-3-0.8c-1,0.5-1.8,1.5-1.8,2.2c0,2.4,11.6,13,17.2,15.9c6,3,6.9,4.1,2.8,3.2c-3.7-0.8-4.7,0-3.5,2.8
	c0.9,2,0.7,2.6-1,4.3l-2.1,2l0.5-2.7c0.8-4.3-4.9-10.4-9.6-10.4c-1.7,0-8.3-6.4-10.1-9.7c-1.8-3.6-3.9-4.3-6.8-2.3
	c-4.4,3-7.7,4-11.1,3.4c-4.6-0.8-7.4,0.8-6.7,3.7c0.4,1.5,0.2,2.2-0.7,2.2c-0.7,0-2.4,1-3.9,2.3s-2.9,2.3-3.3,2.3
	c-1.1,0-4.3,5.7-4.3,7.8c0,1.9-3.5,5.8-7,7.5c-1.1,0.6-3.6,1-5.6,1c-2.8,0-3.9,0.5-4.7,1.9c-1,1.9-1,1.9-3.3-0.5
	c-2.2-2.2-3.4-2.7-7.8-3.4c-2.3-0.4-2.7-5.6-1-13c0.7-3.2,1.1-6.8,0.8-7.9c-0.9-3.4,1.8-5.4,6.3-4.8c10.4,1.6,16.5,1.7,17.9,0.3
	c2-2,2.8-8.4,1.6-12c-0.8-2.4-1.9-3.3-5-4.5c-4.7-1.8-4.8-3.5-0.2-3.6c1.8,0,4.3-0.7,5.6-1.6c1.3-0.9,2.8-1.4,3.3-1.1
	c1.3,0.8,6.1-2,7.7-4.5c0.8-1.2,2.3-2.4,3.4-2.7c1.1-0.3,4-2.4,6.5-4.7c3.5-3.3,5.4-4.3,8.4-4.7c3.8-0.4,7.5-3.5,5.8-4.7
	c-1.1-0.7-2-5.1-1.4-6.7c0.3-0.8,1.6-2.1,2.9-2.9l2.3-1.5l-0.6,3.7c-0.5,3.2-0.4,3.7,1,3.5c0.9-0.1,2.5-0.8,3.7-1.4
	c1.7-0.9,2.1-0.9,2.6,0.3c0.8,2-1.4,4.4-2.9,3.2c-0.8-0.7-1.3-0.7-1.8,0.1c-0.5,0.8-0.8,0.7-1.4-0.2c-0.4-0.7-1-1-1.2-0.7
	c-0.3,0.3,0.5,1.6,1.6,3.1c1.9,2.4,2.3,2.5,5,1.6c2.3-0.8,3.5-0.8,5.5,0.3c2.3,1.2,3,1.1,7.4-0.5c3.8-1.4,5.3-1.6,7-0.9
	c1.5,0.7,2.7,0.7,4.1-0.1c4.1-2.1,5.2-3.7,4.7-6.6c-0.8-4.3,0.6-5.7,4.2-4.4c2.5,0.9,3.2,0.9,4.3-0.2c1.2-1.2,1.1-1.6-0.9-3.7
	c-1.9-2-2-2.5-0.9-3.2c0.7-0.5,3.5-0.7,6.1-0.4c4.8,0.5,10.8-1.4,9.8-3.1c-0.9-1.5-6.4-1.9-11.1-0.9c-4.2,0.9-5.2,0.9-8.4-0.6
	c-4.9-2.2-5.5-4.8-2.1-9.6c4.4-6.1,5.2-8,3.9-9.5c-1.8-2.2-3.6-1.5-7.9,3.1c-2.2,2.4-5.3,5-6.7,5.6s-3.3,2.3-4.1,3.8
	c-1.2,2.4-1.2,2.9,0,4.8c0.8,1.2,2.2,2.4,3.2,2.7c2.8,0.9,2.2,2.5-1.7,5.3c-1.2,0.8-2.9,3.2-3.6,5.3c-1,2.6-2.4,4.3-4.7,5.7
	c-3.2,1.9-3.4,1.9-5.2,0.3c-1-0.9-2.1-2.8-2.4-4.1c-0.3-1.4-1.7-3.8-3-5.5l-2.5-3l-3.1,1.9c-1.7,1.1-4,1.9-5,1.9
	c-2.9,0-6.2-3.1-6.4-6c-0.1-1.4-0.5-3.3-0.8-4.1c-0.8-2,3.2-5.8,7.5-7c4.2-1.2,12.8-7.2,14.3-10c0.7-1.3,2.9-3.8,4.9-5.6
	c2-1.8,3.7-3.7,3.7-4.2s1.9-1.6,4.3-2.4s6.3-2.4,8.8-3.4c3.1-1.3,6.9-1.9,11.8-2.1c8.6-0.2,14.2,0.9,18.8,3.8
	c2.3,1.4,4.1,1.9,5.9,1.6c3.1-0.6,19.8,4.5,20.5,6.4c0.7,1.8-4.1,3.5-8.2,2.9c-1.9-0.3-5.8-1-8.7-1.6c-3.9-0.8-5.5-0.9-6.3-0.1
	c-0.8,0.8-0.4,1.3,1.5,2.1c1.4,0.6,3.1,2.3,3.8,3.7c1.8,3.5,7.7,6.4,10.7,5.3c2.9-1.1,2.9-1.5-0.2-3.1c-2.8-1.5-1.5-1.9,2-0.5
	c2.9,1.1,6.1-0.3,5.3-2.2c-0.4-0.9,0.6-1.6,3.4-2.3c6-1.5,6.4-1.8,5.9-3c-1.9-4.6-1.9-4.5,0.8-4.1c1.5,0.2,2.5,0.8,2.4,1.4
	c-0.1,0.6,0.6,1.6,1.7,2.1c1.6,0.8,2.8,0.5,7.1-1.7c6.3-3.3,11.3-4.4,13.1-2.9c1,0.9,2.7,0.9,7.7,0c3.5-0.6,6.7-0.8,7.2-0.5
	s1.1,0.1,1.5-0.4c0.7-1.2-1.3-3.8-2.3-3.1c-1.3,0.8-5.6-0.6-4.7-1.6c0.9-0.9,26.2,4.9,27.7,6.5c1,1,4.2-0.3,4.2-1.8
	c0-0.5-1.8-1.8-4-2.8c-6.8-3.3-7.3-8.6-0.8-10.2c3.7-0.9,5.3,0.1,10.5,7c6.7,8.9,6.5,8.5,4.3,11.5c-1.6,2.3-1.7,2.8-0.6,3.2
	c2.1,0.8,6.7-2,7.3-4.6c0.8-3-0.7-5.5-4-7.3c-2.6-1.4-4.5-3.9-4.5-5.9c0-0.7,1-0.9,2.9-0.5c2.9,0.5,5.4-0.5,12-5.3
	c1.5-1.1,4.1-1.8,6.7-1.9c5.3-0.1,7-1,5.5-2.8c-0.6-0.7-0.9-1.5-0.7-1.7c1.2-1.2,16.1-3.2,19.5-2.7c3.3,0.5,4.3,0.2,7.1-1.8
	c1.8-1.3,3.2-2.8,3.2-3.2c0-1.1-7.9-1-8.6,0.1c-0.9,1.5-2.2,1-1.8-0.8c0.3-1.5-0.5-1.8-7.1-2.3c-18-1.4-19.5-1.7-17.3-3.9
	c1.9-1.9,6.6-1.9,10.5,0.1c1.6,0.8,4.3,1.5,5.9,1.5c1.6,0,3.2,0.4,3.5,0.9c0.3,0.5,1.9,0.9,3.5,0.9c4.5,0,13.3,2,12.7,2.8
	c-0.3,0.4,0.6,0.8,1.9,0.8c1.3,0,3.7,0.7,5.3,1.6c2.1,1.2,5.1,1.6,11.5,1.6c6.8,0,9.1,0.4,11.1,1.7c1.4,0.9,2.5,1.9,2.5,2.3
	c0,0.3-2.1,1.7-4.7,3.1c-6.2,3.4-4.9,4.9,2.6,2.9c4.8-1.3,5.9-1.3,9.9-0.1c3.3,1,5.3,1.1,7.5,0.5c2.2-0.6,4.5-0.5,8.4,0.5
	c4,1,6.1,1.2,8.7,0.4c5.8-1.6,13-1.2,17.2,1.1c2.1,1.1,5.9,3.2,8.5,4.6c4.6,2.5,4.8,2.5,8,1.1c2.7-1.2,4.2-1.3,8.1-0.5
	c3.9,0.7,5.3,0.7,7.5-0.5c2.2-1.1,2.5-1.7,1.7-2.7c-1.6-1.9,4.1-2.6,11-1.4c3.2,0.6,7.2,1.1,9,1.3c1.7,0.1,5.2,1.1,7.6,2.2
	c3.7,1.7,6.5,2,17.3,2.3c10.3,0.3,13.5,0.7,16,2c2.5,1.3,5.4,1.7,14.9,1.8c8.8,0.1,12.7,0.5,15.3,1.6c4.2,1.8,5.9,1.1,3.6-1.4
	c-1.6-1.8-1.6-1.8,4.7-1.2c10.6,1.1,23.3,3.4,27.7,5c2.2,0.9,6.5,1.9,9.5,2.2c3,0.4,7.3,1.6,9.7,2.8c3.5,1.8,4.7,2,7,1.2
	c3.1-1.1,5.1-0.3,9.9,3.8l3,2.6l-2.2,0.6c-2.2,0.6-8.2-0.9-10.2-2.5c-0.6-0.5-1.4-0.6-1.9-0.4c-0.4,0.3-2.6-0.1-4.7-0.9
	c-5.1-1.7-7.3-1.1-5,1.5c1.6,1.7,1.5,1.8-1.5,1.6c-5.6-0.4-4.1,1.3,4.2,4.5c4.5,1.8,8.4,3.4,8.6,3.6c0.9,0.8-2,1.8-4,1.5
	c-2.2-0.4-7.8,2-7.8,3.4c0,0.5-0.9,1.7-1.9,2.7c-1.8,1.7-2.2,1.7-4.5,0.5c-2.2-1.2-2.9-1.2-5.1-0.1c-1.4,0.7-3.7,1.6-5.2,1.9
	c-1.5,0.4-3.2,1.1-3.8,1.6c-1.8,1.5,1.4,5.9,5.9,8.1c2.5,1.2,4.3,2.8,4.8,4.3c0.5,1.3,1.5,3.5,2.2,4.8c1.2,2.1,1.2,2.5-0.1,3
	c-1,0.4-1.2,1.1-0.8,2.1c0.3,0.9,0.7,2.6,0.9,3.8c0.1,1.2,0.5,2.9,0.9,3.8c0.5,1.1,0.1,1.7-1.3,2.1c-1.6,0.5-2.7-0.1-5.3-3
	c-1.8-2-4.8-4.7-6.7-6.1c-1.9-1.4-5.2-4.9-7.5-7.9c-3.9-5.2-4-5.5-2.7-8c0.7-1.4,1.4-3.5,1.4-4.7c0-1.1,0.6-3.1,1.3-4.3
	c1.3-2.4,0.8-4.3-2-7.5c-1.8-2.1-5.1-0.5-4.3,2.1c0.8,2.4-1.6,3.2-4.3,1.4c-1.2-0.8-3.8-1.7-5.9-2c-3.6-0.6-3.9-0.5-4.8,2
	c-0.5,1.4-0.8,3.7-0.5,5c0.4,2.1,0.1,2.5-2,3c-1.5,0.3-4-0.1-6-0.9c-2.2-0.9-4.3-1.2-5.9-0.8c-1.3,0.4-5.7,0.7-9.8,0.7
	c-6.5,0.1-7.7,0.3-9.7,2.2c-1.2,1.2-2.7,4-3.3,6.3c-0.6,2.3-1.6,5.1-2.4,6.3c-1.2,1.9-1.1,2.1,2.4,3.9c3.9,2,8.1,2.5,11.2,1.4
	c2.5-0.8,10,5,12.3,9.6c1,1.9,2.5,3.8,3.5,4.4c3.7,2,4.5,15,1.4,23.5c-2.1,5.9-4.5,7.8-8.1,6.5c-1.3-0.5-2.6-0.9-2.8-0.9
	c-0.2,0-1.2,1.7-2.2,3.7c-1.4,2.7-1.7,4-1,4.9c1.3,1.6,0.3,3.7-2.3,4.9c-1.2,0.6-2.2,1.4-2.2,1.9c0,0.5,2.8,2.8,6.3,5.2
	c4.4,3,6.8,5.4,7.8,7.8c0.8,1.9,1.4,3.6,1.2,3.8c-0.2,0.2-2.1,1.2-4.1,2.2l-3.7,1.9l-2.3-5.2c-2.5-5.8-4.7-8.1-8.5-9.2
	c-1.9-0.5-2.6-1.3-2.6-2.8c0-1.5-0.9-2.7-2.9-3.9c-2.9-1.7-3-1.7-6.1,0.2c-3.1,1.9-3.1,1.9-4.1,0.1c-0.5-1-1-2.4-1-3.2
	s-0.8-1.8-1.7-2.3c-1.4-0.7-2.3-0.3-4.8,2.5c-1.7,1.9-3.9,3.8-4.9,4.4c-1.5,0.9-1.6,1.2-0.5,2.5c0.7,0.8,3,2.4,5.1,3.6
	c3.4,1.9,4.1,2,5.2,0.9c1.1-1.1,2-1.1,5.3-0.2l4,1.1l-2.2,1.5c-4.1,2.7-5.4,4.2-6,6.7c-0.5,2-0.2,2.6,1.6,3.5
	c1.2,0.6,3.1,2.8,4.1,4.9c1,2.2,3.1,4.6,4.6,5.5c3.3,2,4.3,4,2.4,5.1c-1.8,1-0.9,2.5,1.4,2.5c2.8,0,2.8,1.7,0.1,11.4
	c-3.3,11.8-6.3,15.7-14.1,18.6c-3.1,1.1-6.8,2.1-8.3,2.2c-3.5,0.2-6.2,1.7-8.5,4.7l-1.9,2.4l-0.9-2.3c-1.1-3-3.7-3.7-7.5-2.2
	c-3.4,1.5-5.7,3.8-6.6,6.8c-0.8,2.7,2.1,7.4,6.9,11.2c3.9,3.1,8.3,10.9,9.4,16.6c0.9,4.9-0.7,8.2-5,10.1c-1.9,0.9-3.8,2.3-4.1,3.2
	c-0.7,2.1-4.7,4.8-5.4,3.6c-0.3-0.5-0.3-1.7,0-2.6c0.3-0.9,0.3-2.3,0-3.1c-0.4-1.2-0.9-1.3-2.4-0.5c-1.5,0.8-2.1,0.6-3.3-1.2
	c-3-4.3-11.5-11.2-13.9-11.2c-0.8,0-1.2,1-1,3.2c0.1,1.7-0.2,5.1-0.8,7.6c-0.9,3.9-0.8,4.7,0.9,6.9c1,1.4,2.1,3.6,2.5,4.8
	c0.3,1.3,2.9,4.2,5.9,6.6c5,4,5.5,4.8,7.6,11.5c1.2,3.9,2.3,7.5,2.3,8c0,1.5-1.9,0.9-5.8-1.9c-4.1-2.9-6.7-7.6-8.9-15.8
	c-0.9-3.6-2-5.1-4.9-7.3c-3.6-2.7-3.7-2.9-3.4-7.3c0.2-2.5,0.6-6,0.9-7.9c0.5-2.6,0.1-4.4-1.7-8.2c-1.3-2.7-2.8-6.8-3.4-9.1
	c-1.3-5.2-3.1-6.1-6.3-3c-1.3,1.3-2.7,2.3-3,2.3c-1.4,0-3.4-3.1-3-4.6c0.9-2.7-4.4-12.2-7.6-13.5c-1.7-0.7-3.3-2.4-4.3-4.7
	c-1.8-4-3.8-5.5-5.9-4.4c-0.7,0.4-3.7,1.2-6.5,1.8c-5.2,1.1-7.1,2.7-6.4,5.4c0.3,1-0.7,2-2.9,3c-1.8,0.9-3.7,2.6-4.3,3.8
	s-1.8,2.5-2.8,2.8c-1,0.3-2.4,1.7-3.3,3.1c-0.8,1.4-3.4,3.9-5.6,5.7c-3.1,2.4-4,3.7-3.9,5.3c0.9,9.7-0.5,17.8-3.8,22.6
	c-3.2,4.7-3.5,4.8-6.2,3.6c-1.5-0.7-2.4-2-2.8-4.1c-0.3-1.7-2.1-6.4-4.1-10.5C804.7,342.2,803,337.5,804,333c0.7-3-0.9-7.6-2.5-7.1
	c-0.6,0.2-1.1,1-1.2,1.7c-0.1,4.1-4.7,4.8-8.4,1.1l-2.4-2.4l2.1-0.8c2.3-0.9,2.1-3.2-0.3-2.8c-0.8,0.2-2.8-0.8-4.3-2
	c-1.5-1.3-3.1-2.3-3.5-2.3c-0.4,0-1-0.8-1.4-1.8c-0.8-2.6-5.6-4.9-8.1-3.8c-2.2,1-21.9,0.8-25.1-0.3c-1.2-0.4-3.4-2.1-4.9-3.8
	c-2.7-3.1-2.7-3.1-6.8-2c-3.8,1-4.4,0.9-9.6-1.7c-4.5-2.3-5.8-3.5-7.2-6.5c-1.8-3.9-5.7-6.7-8.1-5.8c-0.7,0.3-1.6,1.7-1.9,3.2
	c-0.5,2.1,0,3.5,2.2,6.5c1.5,2.1,3.2,5.4,3.7,7.3c1.1,4.1,3.3,5.3,5.1,2.8c1.1-1.5,1.4-1.5,2.1-0.4c0.5,0.7,0.7,1.8,0.6,2.3
	c-0.5,1.6,4.7,4.1,7.2,3.5c1.2-0.3,3.9-2.4,5.9-4.7c3.1-3.6,4.2-3.8,3.7-0.8c-0.4,2,1.2,4.4,3.8,5.7c4,2.1,9.7,6.8,9.7,8
	c0,0.6-1.1,2-2.4,3.2c-1.3,1.2-3.2,3.8-4.1,5.7c-2.4,4.7-9.3,11.5-11.7,11.5c-2.7,0-6.7,2.3-8.3,4.7c-0.8,1.2-2.8,2.8-4.4,3.6
	c-8.6,4.3-19,8.7-21.9,9.2c-3.1,0.6-3.4,0.4-5-2.8c-1-1.9-2-5.7-2.4-8.4c-0.5-3.6-1.4-5.8-3.3-8c-1.4-1.6-2.6-3.4-2.6-3.9
	s-1.6-2.6-3.6-4.6c-2.5-2.6-4.1-5.4-5.1-8.8c-0.8-2.8-2.5-6.3-3.7-7.8c-8.3-10.3-10.8-14-12-17.8c-1.6-5-3-5.9-3.7-2.2l-0.5,2.6
	l-3.1-3.9c-4.7-6-5.3-3.3-0.9,4c2.1,3.4,5.4,9.5,7.4,13.5c2,4,4.6,8.5,5.7,10.1c1.2,1.6,2.1,4.1,2.1,5.7c0,3.4,1,5.5,5,10.5
	c1.6,2,3.2,4.9,3.5,6.5c0.4,2,2.2,4.1,5.9,7.1c5.7,4.6,9.4,9.4,10.3,13.4c0.3,1.5,1.7,3,3.3,3.9c2.5,1.3,3.4,1.3,11.4-0.5
	c4.8-1,9.8-2.5,11.2-3.2l2.6-1.3l0.6,3.6c0.6,3.3,0,4.8-6.5,17.2c-6.9,13.3-7.3,13.8-14.2,19.2c-3.9,3.1-7.9,6.8-9,8.3
	c-1.1,1.5-4.6,5.6-7.7,9.1c-9.2,10.2-10.5,19.2-4.4,31.3c1.6,3.1,2.2,5.4,1.8,6.8c-0.3,1.2-0.1,4.3,0.4,6.8c0.9,4,0.8,5.1-0.7,8
	c-2.1,4.2-3.8,5.7-9.8,8.7c-2.6,1.3-4.8,2.8-4.8,3.2s-1.8,2.9-4.1,5.5c-2.2,2.5-4.1,5-4.1,5.5c0,0.5,0.8,2.6,1.9,4.6
	c3.1,6,1,10.4-6.4,13.5c-3.1,1.3-4.1,3.9-3.4,8.7c0.4,2.5,0.1,3.3-1.3,4.1c-1,0.5-2.7,2.5-3.9,4.3c-3.7,5.8-14.4,16.2-19.3,18.6
	c-4.1,2-5.1,2.2-8.1,1.4c-2.6-0.7-4.7-0.6-9.1,0.5C605.5,559,606.3,559.1,603.5,556.3L603.5,556.3z M722.9,267.1
	c2.3-1.2,2.7-1.9,2.7-5.3c0-2.5-0.5-4.4-1.4-5.1c-0.8-0.6-2-2.4-2.8-3.9c-1.3-2.4-1.3-2.6,0.1-2.1c1.7,0.7,4.2-0.1,4.2-1.4
	c0-0.5-0.8-2.1-1.9-3.5c-1.6-2.2-2.2-2.5-3.6-1.7c-1.2,0.6-1.8,0.6-1.8,0c0-0.5-1.6-1.7-3.6-2.8c-4.4-2.2-5.9-4.7-4.6-7.3
	c1-1.9,4.7-3.3,6.3-2.3c2.1,1.3,2.8-0.6,1-3.1c-4.3-6-10.2-5.6-17.5,1.2c-4.7,4.4-5.2,5.5-2.5,6.9c1,0.5,1.8,1.6,1.8,2.3
	c0,0.7,1.6,3.1,3.6,5.2c4.5,4.9,5.4,7.2,4.8,13l-0.5,4.7l6.2,3.2c3.4,1.8,6.4,3.2,6.5,3.2C720.1,268.5,721.5,267.9,722.9,267.1
	L722.9,267.1z"/>
<path d="M697.9,520.4c-2.6-1.5-2.9-2.2-3.6-7.6c-0.5-4.3-0.3-5.2,2.2-9.4c2.6-4.2,2.8-5,2.2-9.6c-0.8-6.6,0.6-10.1,4.4-11
	c3.6-0.8,11.5-7.7,13.4-11.8l1.4-3.1l1,2.2c2.5,5.5,2.3,7.9-2.1,20c-2.3,6.5-4.9,14.2-5.6,17.2c-2.3,9.6-3.7,11.9-7.5,13
	C699.8,521.7,700.2,521.7,697.9,520.4L697.9,520.4z"/>
<path d="M1144.6,504.6c-2.9-3.2-4.6-5.9-4.6-7.3c0-3,0.5-2.8,3.1,1.7c1.3,2.1,3.5,5.1,5,6.5c1.5,1.4,2.8,3,2.8,3.4
	C1150.9,510.7,1148.9,509.4,1144.6,504.6L1144.6,504.6z"/>
<circle cx="741" cy="503.3" r="0.9"/>
<path d="M1217.6,501.7c-0.3-0.5-0.1-1.2,0.4-1.5c1.3-0.8,1.8-0.2,0.9,1.3C1218.4,502.2,1218,502.3,1217.6,501.7L1217.6,501.7z"/>
<path d="M746.5,500.2c0-0.2,0.4-0.7,0.9-1s0.9-0.1,0.9,0.4c0,0.5-0.4,1-0.9,1S746.5,500.4,746.5,500.2z"/>
<path d="M1194,491c-0.9-2.3,0.2-3.1,2.7-2c2.2,1,2.2,1.1,0.7,2.2C1195.3,492.8,1194.7,492.8,1194,491z"/>
<path d="M1199.8,487c-1.8-1.1-0.5-2,2.3-1.6c2.2,0.3,2.3,0.4,0.7,1.3C1201.7,487.3,1200.5,487.5,1199.8,487L1199.8,487z"/>
<path d="M1157.4,483.7c-1.9-4-1.2-5.5,0.7-1.7c2,4,2,4.1,1.1,4.1C1158.9,486.1,1158,485,1157.4,483.7z"/>
<path d="M1160.9,483c0-1,0.2-1.5,0.5-1.2c0.3,0.3,0.3,1.1,0.1,1.7C1161.2,484.3,1160.9,484.1,1160.9,483L1160.9,483z"/>
<path d="M1234.7,474.3c-0.8-1.3,0-2,1.9-1.7c1.4,0.3,1.4,0.4,0.2,1.5C1235.7,475,1235.2,475,1234.7,474.3L1234.7,474.3z"/>
<path d="M698.9,469.8c-0.3-0.5-0.1-0.9,0.4-0.9s1,0.4,1,0.9s-0.2,0.9-0.4,0.9C699.6,470.7,699.2,470.3,698.9,469.8z"/>
<path d="M1096.9,461.3c-5.7-1.8-8.3-3.5-10.6-6.8c-2.6-3.8-7.3-6.7-9.7-6c-1,0.3-2.6,2-3.6,3.7c-1.8,3-2.1,3.1-5.3,2.6
	c-1.9-0.3-4.5-1.6-5.8-2.9c-1.7-1.6-3-2.1-4.3-1.6c-1,0.3-2.5,0.2-3.3-0.2c-1.2-0.7-1.1-1,0.9-2.3c2.3-1.5,2.3-1.5,0.8-4.8
	c-1.2-2.6-3-4-8.6-6.8c-3.9-1.9-8.2-3.5-9.7-3.5c-3.4,0-4.8-3.1-2.2-5c1.5-1.1,1.3-1.4-2.7-3.3c-4.2-2-4.2-2.1-2.2-3.2
	c1.1-0.6,2.9-1.2,4-1.2c2.1,0,4.8,3,4.8,5.5c0,0.8,0.9,2.6,2,4c1.9,2.5,2,2.5,3.4,0.7c0.8-1,3.3-2.9,5.6-4.2l4.2-2.4l5.8,2.6
	c3.2,1.4,7.7,3.3,10.1,4.1c2.3,0.8,7,3.4,10.4,5.6c6.5,4.2,9.3,7.8,7.7,9.8c-1.3,1.6,3.8,8.8,9.2,12.8
	C1103.4,462.9,1103.3,463.3,1096.9,461.3L1096.9,461.3z"/>
<path d="M1136.4,461.2c-0.7-0.9-0.8-1.4-0.2-1.4c1.1,0,2.4,1.7,1.7,2.3C1137.7,462.4,1137,462,1136.4,461.2L1136.4,461.2z"/>
<path d="M984,457.5c-1.3-0.7-1.7-1.3-0.9-1.3c1.6,0,4.2,1.5,3.6,2.1C986.5,458.6,985.3,458.2,984,457.5z"/>
<path d="M999.3,456.3c2.6-3.6,6.6-5.2,10.3-4c2.7,0.9,2.8,0.9,0.6,1c-1.3,0.1-4.2,1.3-6.6,2.8C998.3,459.6,997,459.6,999.3,456.3
	L999.3,456.3z"/>
<path d="M1130.9,457.6c-1.2-1.5-0.9-1.7,1.3-0.8c0.8,0.3,1.4,0.9,1.4,1.4C1133.6,459.4,1132.2,459.1,1130.9,457.6z"/>
<path d="M1135.1,456.8c-0.3-0.9-0.6-2.3-0.6-3.1c0-1,0.4-0.8,0.9,0.7c0.5,1.2,0.7,2.6,0.6,3.1C1135.9,458,1135.5,457.6,1135.1,456.8
	L1135.1,456.8z"/>
<path d="M1205.3,457.6c0-0.2,0.4-0.7,0.9-1c0.5-0.3,0.9-0.1,0.9,0.4c0,0.5-0.4,1-0.9,1C1205.7,458,1205.3,457.8,1205.3,457.6z"/>
<path d="M973.4,453.8c-0.6-0.3-0.9-0.9-0.6-1.3c0.7-1.1,6.5-1.1,7.2,0.1c0.3,0.5,0,0.9-0.6,0.9c-0.7,0-2,0.2-3,0.4
	C975.3,454.1,974,454.1,973.4,453.8L973.4,453.8z"/>
<path d="M986.8,453.1c-1.6-2,0.3-2.6,4.5-1.4c4.3,1.2,4.3,1.3-0.2,2.1C988.9,454.2,987.6,454,986.8,453.1z"/>
<path d="M1123,452.6c-0.6-1-0.7-1.8-0.3-1.8c0.5,0,1.3,0.8,1.9,1.8c0.5,1,0.6,1.8,0.3,1.8S1123.6,453.6,1123,452.6z"/>
<path d="M1128.6,451.7c-2.4-2.7-1.1-3.1,1.4-0.4c1.2,1.2,1.7,2.3,1.2,2.3S1129.5,452.7,1128.6,451.7L1128.6,451.7z"/>
<path d="M958.6,451.5c-3.2-0.4-7.8-1.4-10.2-2.2c-2.3-0.8-5.1-1.1-6.1-0.8c-2.1,0.7-10.9-1.9-10.9-3.2c0-2.9,8.1-3.1,12.4-0.3
	c1.6,1,2.9,1.1,6.3,0.3c3.8-0.8,4.6-0.7,6.8,0.9c1.4,1,2.9,1.9,3.4,1.9c1.8,0,7.2,3,6.8,3.8c-0.3,0.4-1,0.7-1.5,0.6
	C965,452.4,961.9,452,958.6,451.5L958.6,451.5z"/>
<path d="M1121.4,447.1c-0.9-1-1.2-1.8-0.7-1.8s1.6,0.8,2.5,1.8c0.9,1,1.2,1.8,0.7,1.8C1123.4,448.9,1122.3,448.1,1121.4,447.1
	L1121.4,447.1z"/>
<path d="M1115.7,446c-0.5-0.6-1.2-2.4-1.5-3.8c-0.5-2.4-0.5-2.5,0.5-0.9c0.6,1,1.7,2.5,2.4,3.3c0.8,0.9,0.9,1.7,0.4,2
	C1117,446.9,1116.2,446.6,1115.7,446z"/>
<path d="M1096.5,443.1l-2.3-1.2l3.5-0.7c1.9-0.4,4.9-1.9,6.6-3.3c1.8-1.6,3.1-2.2,3.1-1.5c0,1.8-1.1,3.3-4.5,5.8
	C1099.2,444.8,1099.4,444.7,1096.5,443.1L1096.5,443.1z"/>
<path d="M926.4,439.6c-3.3-1.9-9.3-9.2-11.3-13.8c-1.1-2.5-3.5-6.5-5.4-9c-1.9-2.5-4.1-5.8-4.8-7.3c-0.8-1.5-3.1-4.4-5.2-6.3
	c-4.4-4.2-7.1-8.6-5.2-8.6c2.4,0,8.5,3.4,11.1,6.2c7.2,7.6,8.7,8.9,12.2,11c3.3,2,4.9,4.2,5,6.8c0,0.5,1,1.9,2.1,3.2
	c1.1,1.2,3.2,3.6,4.7,5.2c1.5,1.6,2.9,4.1,3.2,5.6C933.8,437.4,930,441.6,926.4,439.6L926.4,439.6z"/>
<circle cx="744.6" cy="439" r="0.9"/>
<path d="M983.6,439c-0.3-0.5-0.3-1.7,0-2.7c0.3-1-0.1-2.7-0.8-3.9c-1.3-1.9-1.3-2.3,0.1-4.3c0.8-1.2,1.8-4.4,2.2-7.1
	c0.5-3.4,1.4-5.6,2.8-7.1c2-2,2.5-2.1,6.9-1.2c3.8,0.7,5.3,0.6,7.4-0.4c3.5-1.8,3.7-1.7,2.6,0.8c-1.5,3.2-4.4,4.3-7.5,2.6
	c-5.5-2.9-12.9,1.4-9,5.3c1.4,1.4,2.2,1.6,4.8,0.8c4.5-1.3,6.3-1.1,3.5,0.5c-3.2,1.7-3.8,3.6-2.1,6.8c0.7,1.4,1.4,3.7,1.4,5
	c0,2.1-0.2,2.2-1.8,1.4c-1-0.5-2.4-2.5-3.2-4.3c-1.4-3.3-1.4-3.3-3.2-1.5c-1.5,1.5-1.6,2.2-0.8,5.3c0.8,2.8,0.7,3.7-0.2,4.3
	C985,440.1,984.2,440.1,983.6,439L983.6,439z"/>
<path d="M1108,434.1c-0.9-1.3-2.8-3-4.3-3.8c-1.5-0.8-2.6-1.6-2.3-1.9c1.4-1.4,9.3,5,8.6,7C1109.7,436,1108.8,435.5,1108,434.1
	L1108,434.1z"/>
<path d="M965.6,431.1c-1.4-0.7-3.2-1.1-4.1-0.8c-2.3,0.7-11.2-1.1-12.1-2.5c-0.7-1.1-2.8-7.7-3.9-12.5c-0.3-1.3,0-3,0.7-4
	c1-1.4,1.6-1.5,3.2-0.6c1.7,0.9,2.1,0.8,3.1-1.3c0.6-1.3,2.6-3.1,4.4-4.1c1.9-1,3.8-2.8,4.4-4.4c0.8-1.8,2.1-3.1,4.2-3.7
	c1.7-0.6,4.2-2.4,5.5-4.1c1.3-1.7,2.8-3.1,3.4-3.1c0.6,0,2.4,1.3,4,3l2.9,3l-2.3,3.1c-2.6,3.6-2.5,6.6,0.5,10.8l1.8,2.5L979,414
	c-1.2,0.8-2.3,2-2.3,2.6c0,2.1-5.8,14-7.3,15C968.5,432.1,967.3,432,965.6,431.1L965.6,431.1z"/>
<path d="M1018.2,431.1c-1.9-0.5-2.1-2.1-0.3-2.1c0.7,0,2.6,0.3,4.3,0.6c2.6,0.5,2.7,0.7,1.2,1.3
	C1021.4,431.7,1020.6,431.7,1018.2,431.1L1018.2,431.1z"/>
<path d="M1162.6,419.5c0-0.2,0.4-0.7,0.9-1c0.5-0.3,0.9-0.1,0.9,0.4c0,0.5-0.4,1-0.9,1C1163,419.9,1162.6,419.8,1162.6,419.5z"/>
<path d="M1015.1,417.1c-0.7-0.7-0.8-1.6-0.1-2.7c0.5-0.9,0.7-2.1,0.4-2.6c-0.8-1.3,1.2-4.5,2.9-4.5c1.3,0,1.3,0.2-0.1,1.7
	c-1.2,1.3-1.3,2.2-0.6,4.1C1019,416.8,1017.4,419.4,1015.1,417.1L1015.1,417.1z"/>
<path d="M559.7,414.1c0-0.2,0.4-0.7,0.9-1c0.5-0.3,0.9-0.1,0.9,0.4c0,0.5-0.4,1-0.9,1C560.1,414.5,559.7,414.3,559.7,414.1z"/>
<path d="M1188.5,411.8c-0.3-0.5-0.1-0.9,0.4-0.9c0.5,0,1,0.4,1,0.9c0,0.5-0.2,0.9-0.4,0.9S1188.8,412.3,1188.5,411.8z"/>
<path d="M565.1,403.2c0-0.2,0.4-0.7,0.9-1c0.5-0.3,0.9-0.1,0.9,0.4c0,0.5-0.4,1-0.9,1S565.1,403.4,565.1,403.2z"/>
<path d="M1001.3,389.6c-1.7-4-2-4.2-4.6-3.6c-2.7,0.6-2.7,0.5-1.8-1.3c0.8-1.5,1.6-1.8,3.5-1.4c1.9,0.4,3.1,0,4.9-1.7
	c1.3-1.2,2.4-3,2.5-3.9c0-2.3,3.4,5.4,4.2,9.5c0.6,3.1,0.5,3.3-0.9,2.1c-2.1-1.7-4.1,0.1-2.4,2.1c0.7,0.8,0.8,1.4,0.2,1.4
	c-0.5,0-1.6,0.2-2.4,0.5C1003.4,393.7,1002.6,392.7,1001.3,389.6L1001.3,389.6z"/>
<path d="M835.9,391.2c-1-1.6-1.6-9-0.9-11c0.8-2.1,0.8-2.1,3.1,1.4c2.8,4.1,3.7,6.7,2.7,8.1C840.1,391,836.5,392.1,835.9,391.2
	L835.9,391.2z"/>
<path d="M1038.4,386.5c0-0.5,0.4-1.2,0.9-1.5s0.9-0.2,0.9,0.3c0,0.5-0.4,1.2-0.9,1.5S1038.4,387,1038.4,386.5z"/>
<path d="M1180.8,386.4c0-0.5,0.2-0.9,0.4-0.9c0.2,0,0.7,0.4,1,0.9c0.3,0.5,0.1,0.9-0.4,0.9S1180.8,386.9,1180.8,386.4z"/>
<path d="M974.9,381.1c0-0.4,1.8-2.7,4-5.2c3.3-3.6,4-4.1,4.1-2.6c0,1-1.3,3.4-3,5.2C977.2,381.6,974.9,382.8,974.9,381.1z"/>
<path d="M994.6,378.7c-0.3-0.9-0.3-2.2,0.1-2.9c0.6-1.1,0.9-1.2,1.8-0.1c0.8,1,0.8,1.7-0.1,2.9C995.3,380.2,995.2,380.2,994.6,378.7
	z"/>
<path d="M300.2,375.2c0.6-0.7,0.7-1.5,0.4-1.8c-0.3-0.3,0.2-0.6,1.3-0.6c1.4,0,1.8,0.4,1.4,1.8c-0.3,1.1-1.2,1.8-2.3,1.8
	C299.6,376.4,299.5,376.1,300.2,375.2L300.2,375.2z"/>
<path d="M1000.7,375c-0.3-0.9-0.8-2-1-2.4c-0.2-0.4,0-0.7,0.5-0.7c0.9,0,2.2,3.7,1.5,4.4C1001.5,376.5,1001,375.9,1000.7,375z"/>
<path d="M991.5,372.6c-1.3-1.5,0-3.7,1.9-3.3c1.2,0.3,1.2,0.6,0.3,2.4C992.7,373.4,992.3,373.6,991.5,372.6z"/>
<path d="M1002.2,369.5c-1-1.3-1.7-2.6-1.6-2.7c0.7-0.7,3.3,0.9,4.6,3C1007.4,372.9,1004.7,372.7,1002.2,369.5z"/>
<path d="M987.3,366c-0.8-0.8-1.5-1.9-1.5-2.5c0-0.6,0.9-0.1,2,0.9c1.1,1.1,1.8,2.2,1.5,2.5C989,367.2,988.1,366.8,987.3,366z"/>
<path d="M275.6,365.8c-0.3-0.3-0.6-1-0.6-1.5c0-0.6,0.4-0.5,1.1,0.1c0.6,0.6,0.9,1.3,0.6,1.5C276.4,366.2,275.9,366.2,275.6,365.8z"
	/>
<path d="M270.4,364.6c0-0.5,0.2-0.9,0.4-0.9s0.7,0.4,1,0.9c0.3,0.5,0.1,0.9-0.4,0.9C270.9,365.5,270.4,365.1,270.4,364.6z"/>
<path d="M313.1,362.8c0-0.5,0.2-0.9,0.4-0.9c0.2,0,0.7,0.4,1,0.9s0.1,0.9-0.4,0.9C313.5,363.7,313.1,363.3,313.1,362.8z"/>
<path d="M996.4,362.7c-0.9-0.5-2.6-0.7-3.8-0.4c-1.8,0.4-3-0.3-6.3-3.6c-4.6-4.8-5.5-6.8-4.2-9.3c0.5-1,1-3,1-4.5
	c0-4.9,3.3-4.7,5.7,0.3c1.3,2.8,1.3,3.4,0.1,6.4c-1.4,3.2-1.3,3.4,1.1,5.9c1.7,1.8,3.1,2.4,4.4,2.1c1.2-0.3,2.4,0.1,3.1,0.9
	C999.2,362.4,998.5,363.8,996.4,362.7L996.4,362.7z"/>
<path d="M307.6,357c0-0.2,0.4-0.7,0.9-1c0.5-0.3,0.9-0.1,0.9,0.4c0,0.5-0.4,1-0.9,1S307.6,357.2,307.6,357z"/>
<circle cx="450.9" cy="353.7" r="0.9"/>
<path d="M304.9,350.2c0-0.5,0.4-1.2,0.9-1.5s0.9-0.2,0.9,0.3c0,0.5-0.4,1.2-0.9,1.5S304.9,350.7,304.9,350.2z"/>
<path d="M297.2,346.5c-0.3-0.5,0-0.7,0.9-0.4c1.6,0.6,1.9,1.3,0.6,1.3C298.1,347.4,297.5,347,297.2,346.5z"/>
<path d="M441.4,346.5c-0.3-0.5-0.1-0.9,0.4-0.9c0.5,0,1,0.4,1,0.9s-0.2,0.9-0.4,0.9C442.1,347.4,441.7,347,441.4,346.5z"/>
<path d="M300.8,344.7c-0.3-0.5-0.1-0.9,0.4-0.9c0.5,0,1,0.4,1,0.9s-0.2,0.9-0.4,0.9S301.1,345.2,300.8,344.7z"/>
<path d="M304.9,344.7c0-0.5,0.2-0.9,0.4-0.9s0.7,0.4,1,0.9c0.3,0.5,0.1,0.9-0.4,0.9C305.3,345.6,304.9,345.2,304.9,344.7z"/>
<path d="M242.6,342.3c-0.6-0.3-1.1-0.8-1.1-1.3c0-1.3,4-1,5.9,0.5c1.7,1.3,1.6,1.3-1,1.3C244.9,342.7,243.2,342.5,242.6,342.3z"/>
<path d="M265.5,341.7c-0.8-0.5-2.6-0.6-4-0.3c-1.4,0.3-3.5,0.2-4.7-0.3c-2-0.8-1.8-0.9,1.5-0.8c4.8,0.1,6.1-0.7,4.9-3
	c-0.9-1.6-0.6-1.8,3.7-1.8c4.2,0,10.2,1.9,11.2,3.6C278.8,340.3,267.1,342.7,265.5,341.7L265.5,341.7z"/>
<path d="M282.9,342.3c-1.1-1.1,0.3-2.2,2.6-2.2c1.4,0,2.1,0.4,1.9,1.1C287,342.5,283.8,343.3,282.9,342.3z"/>
<path d="M938.9,340.9c-2.4-2.4,0-5.3,4.4-5.3c1.9,0,1.9,0,0.3,2.9C941.6,341.8,940.4,342.4,938.9,340.9z"/>
<path d="M290.4,340.7c0-0.2,0.6-0.6,1.4-0.9c0.7-0.3,1.4-0.1,1.4,0.4c0,0.5-0.6,0.9-1.4,0.9C291,341,290.4,340.9,290.4,340.7z"/>
<path d="M251.2,334.2c-0.3-0.3-2.2-0.5-4.3-0.6c-2.8,0-3.5-0.3-2.8-1.2c0.7-0.8-0.3-1.9-3.6-4.1c-6.5-4.2-10.2-5.1-14.6-3.3
	c-4.1,1.6-4.4,1.7-4.4,0.7c0-1.9,7.2-4,12.4-3.6c5,0.4,7.8,1.4,17.5,6.7c8,4.3,8,4.3,5.4,5C253.9,334.7,251.8,334.8,251.2,334.2z"/>
<path d="M257.7,326.5c1.8-1.1,2.7-1.1,2.7,0c0,0.5-0.9,0.9-2,0.9C256.8,327.4,256.6,327.2,257.7,326.5z"/>
<path d="M979.8,324.9c-0.5-0.4-1.5-1.6-2.1-2.7c-0.9-1.7-0.8-2.6,0.6-4.9c2.1-3.6,3.5-4.1,4.2-1.3
	C983.3,318.8,981.2,325.8,979.8,324.9L979.8,324.9z"/>
<path d="M263.7,323.7c0.6-1,4-1.1,4-0.1c0,0.4-1,0.7-2.3,0.8C264.2,324.5,263.4,324.2,263.7,323.7L263.7,323.7z"/>
<path d="M245.8,315c-1.5-1.7-1.2-3.9,0.4-3.9c0.5,0,0.7,0.8,0.5,1.8c-0.3,1,0,1.9,0.6,2.1c0.6,0.2,0.8,0.6,0.5,1
	C247.4,316.3,246.5,315.9,245.8,315z"/>
<path d="M251,307.9c-0.3-0.8-0.4-1.7-0.1-2c0.2-0.2,0.7,0.2,1,1.1c0.3,0.8,0.4,1.7,0.1,2C251.8,309.2,251.4,308.7,251,307.9z"/>
<path d="M245.4,307c0-0.7,0.8-1.4,1.7-1.4c1.5,0,1.6,0.2,0.4,1.4c-0.7,0.7-1.5,1.4-1.7,1.4S245.4,307.8,245.4,307z"/>
<path d="M1005.8,287.2c0-0.7-1-2.5-2.2-3.9c-2.9-3.4-1.9-5.7,1.5-3.5c2.4,1.6,3.7,4.9,2.8,7.2
	C1007.3,288.8,1005.8,288.9,1005.8,287.2z"/>
<path d="M302.2,281.7c0-0.2,0.4-0.7,0.9-1s0.9-0.1,0.9,0.4c0,0.5-0.4,1-0.9,1S302.2,281.9,302.2,281.7z"/>
<path d="M1010.8,280.6c-0.6-1.5,0.8-3,2.9-3c1.4,0,1.5,2,0,3.4C1012.3,282.5,1011.5,282.4,1010.8,280.6L1010.8,280.6z"/>
<path d="M1019.1,277.3c-1.8-2.7-4.2-3.1-9.9-1.5c-2.3,0.6-3.9,0.7-5,0c-0.9-0.5-1.1-0.9-0.5-1c0.6,0,2.3-1.1,3.8-2.3
	c1.9-1.6,3.4-2.1,4.9-1.8c1.6,0.4,3.4-0.4,7.1-3.1c7.2-5.4,7.8-7.1,4.9-12.8c-2.8-5.5-2-7.3,2.1-4.9c3,1.8,5.9,6.9,5,9.1
	c-0.3,0.8,0.1,3.2,1,5.4c1.2,3.1,1.3,4.4,0.5,5.9c-1.2,2.2-4.4,3.6-8.1,3.6c-2.1,0-2.7,0.5-3.4,2.9l-0.8,2.9L1019.1,277.3
	L1019.1,277.3z"/>
<path d="M651.8,274.2c-1.1-1.1-0.5-2.1,1.2-2.1c1,0,2-0.4,2.3-0.9c0.8-1.4,2.3-1.1,1.7,0.3C656.5,273,652.6,275,651.8,274.2
	L651.8,274.2z"/>
<path d="M620.9,272.6l-2.7-1.2l3.6-0.1c4.5-0.1,7.8,0.8,7.2,1.8C628.2,274.3,624,274.1,620.9,272.6L620.9,272.6z"/>
<path d="M584.3,263.6c-3.6-1.9-3.8-2.1-1.9-2.6c2.3-0.6,7.3,0.1,7.2,1.1c0,0.3-0.3,1.2-0.7,2.1C588.3,265.5,587.9,265.4,584.3,263.6
	z"/>
<path d="M566.1,253.8c-0.8-2.3-0.7-3.1,0.3-4.1c1.8-1.8,3.3-0.5,3.3,3C569.7,256.7,567.4,257.5,566.1,253.8L566.1,253.8z"/>
<path d="M544.8,254.5c0.6-1.7,3.4-2,2.8-0.3c-0.2,0.6-1.1,1.3-1.9,1.4C544.7,255.9,544.4,255.5,544.8,254.5L544.8,254.5z"/>
<path d="M1018.6,244.2c-1.7-2.3-1.7-2.8-0.5-4.5c1.2-1.7,1.2-2.2,0-4.6c-2-3.9-1.8-4.2,1.8-1.5c1.7,1.3,5.2,3,7.7,3.8
	c5.1,1.5,6.3,2.7,3.7,3.5c-1,0.3-1.8,1.2-1.8,1.9c0,1-0.6,1.2-2.5,0.7c-4.8-1.2-6.1-0.9-5.8,1.3
	C1021.4,247.4,1020.8,247.3,1018.6,244.2L1018.6,244.2z"/>
<path d="M567.5,245.2c-1.1-1.1-0.7-2.8,0.8-3.4c1-0.4,1.4,0.1,1.4,1.7C569.7,245.8,568.8,246.5,567.5,245.2z"/>
<path d="M1012.8,226.1c-0.8-0.9-2.6-4-4.1-7c-1.5-3-5.5-8.5-8.8-12.2c-3.7-4.2-5.6-6.9-4.9-7.2c0.6-0.2,2,0.7,3,2.1
	c2.5,3.3,5.6,6.2,10.4,9.8c4,3,6,5.7,3.4,4.7c-3-1.1-2.2,1.6,1.6,5.9c2.3,2.5,4.1,4.8,4.1,5C1017.6,228.4,1014.1,227.5,1012.8,226.1
	L1012.8,226.1z"/>
<path d="M349.3,224.5c0-0.7,0.4-1.4,0.9-1.4s0.6,0.6,0.4,1.4c-0.3,0.7-0.7,1.4-0.9,1.4C349.5,225.9,349.3,225.3,349.3,224.5z"/>
<path d="M344.6,221.6l-3.4-0.4l6.4-6.3c3.5-3.5,6.8-6.3,7.4-6.3c0.6,0,0.4,0.7-0.4,1.6c-1.9,2.1-0.6,4.4,2.8,5.2
	c1.5,0.3,3,1.5,3.6,2.8c0.9,2,0.8,2.3-2.4,3.1C355.3,222.2,351.4,222.3,344.6,221.6L344.6,221.6z"/>
<path d="M123.6,215.1c-3.1-2.9-3.5-4.2-1.4-5c1.9-0.7,5.3,1.6,6.6,4.5c1.4,3,1.3,3.1-0.7,3.1C127.2,217.7,125.2,216.6,123.6,215.1z"
	/>
<path d="M523,210.5c1-0.5,3-1.3,4.4-1.8c3.1-1.1,2.6-2.3-1.3-3.1c-2.7-0.5-2.8-0.7-1.2-1.8c0.9-0.7,1.4-1.6,1.1-2.2
	c-0.3-0.5,0.6-1.4,2.1-1.9c1.5-0.5,2.7-1.4,2.7-1.8c0-2.1-1.9-5.6-2.9-5.5c-2.4,0.3-3.5-0.1-3.2-1.2c0.2-0.6,0-1.8-0.4-2.7
	c-1.2-2.3,1.5-7,4-7c0.4,0,0.6,0.5,0.5,1.1c-0.1,0.6,0.7,1.3,1.9,1.4l2.1,0.3l-2,2.2l-2,2.2l2.3,0.9c2.5,0.9,4.8,4,7.2,9.3
	c1.2,2.6,1.9,3.2,3.3,2.9c2.8-0.7,3.1,1.2,0.5,2.9c-1.8,1.2-2.1,1.8-1.3,2.6c0.8,0.8-0.7,1.3-6,2.1c-3.9,0.6-8.5,1.3-10.2,1.6
	C521.9,211.3,521.6,211.2,523,210.5L523,210.5z"/>
<path d="M507.7,205.5c-0.3-0.8,0-2.6,0.8-4.1c0.9-1.6,1-2.8,0.4-3.2c-1.6-1-1-2.2,1.3-2.8c1.2-0.3,2.7-1.1,3.3-1.8
	c1.2-1.5,6.8-1.7,7.6-0.4c0.3,0.5-0.1,1.8-0.9,2.9c-0.8,1.1-1.4,3.1-1.4,4.4c0,2-0.6,2.6-3.9,3.7c-2.1,0.7-4.5,1.6-5.3,2
	C508.8,206.7,508,206.4,507.7,205.5z"/>
<path d="M524.3,196.5c0-0.2,0.4-0.7,0.9-1c0.5-0.3,0.9-0.1,0.9,0.4c0,0.5-0.4,1-0.9,1S524.3,196.7,524.3,196.5z"/>
<path d="M121.9,192.1c-0.9-1.1-0.8-1.6,0.3-2.5c1.8-1.5,2.8-0.5,1.7,1.9C123.1,193.2,122.9,193.3,121.9,192.1L121.9,192.1z"/>
<path d="M120.5,185.3c-0.3-0.5,0.1-1.4,0.8-2c1.5-1.2,1.8-0.3,0.5,1.7C121.4,185.7,120.8,185.8,120.5,185.3z"/>
<path d="M61.9,184.7c0-0.6,2.7-1.8,6.6-2.7c1.5-0.4,2.4-0.3,2.1,0.2c-0.3,0.5-1.6,1.1-3,1.3c-1.4,0.3-3.2,0.8-4.1,1.1
	C62.6,185,61.9,185,61.9,184.7L61.9,184.7z"/>
<path d="M600.7,174.5c-1.7-0.7-1.4-1.7,0.5-1.9c0.9-0.1,1.7,0.5,1.7,1.2C602.9,175.2,602.6,175.3,600.7,174.5L600.7,174.5z"/>
<path d="M401.5,169.9c-5.7-3.1-8.5-7.9-6.8-12c0.8-1.9,0.8-3.1,0.1-4.4c-1.5-2.8,0.5-6.1,5.5-9.2c2.4-1.5,4.8-3.5,5.3-4.4
	c1.5-2.7,0.2-7.4-2.4-8.5c-1.3-0.6-2-1.5-1.7-2.2c0.6-1.7-2.4-7.4-5.4-10.2c-2.2-2.1-3.2-2.3-10.7-2.3c-10.3-0.1-12.2-0.6-12.1-3.6
	c0.1-1.2,0.3-2.2,0.6-2.2s3.9-0.4,8.2-0.9c5.4-0.7,10.2-2,16.2-4.6c9.3-4,10-4,32.2-3.5c7,0.2,13.5-0.4,21.8-1.8
	c7.7-1.3,13.4-1.8,16.5-1.4c2.6,0.3,6.4,0.1,8.5-0.5c4.9-1.3,17.8,0.3,22.8,2.8c3,1.5,4.6,1.7,9.6,1.2c5.4-0.5,5.9-0.5,4.2,0.7
	c-1,0.7-4.1,1.6-6.8,2c-6,0.8-11.4,5-10,7.7c0.6,1.2,0.2,2.2-1.8,4.1c-1.5,1.4-2.9,3.2-3.1,4.1c-0.6,2-8.6,5.7-12.6,5.8
	c-4.4,0.2-4.9,1.1-1.5,3c1.6,0.9,4,2.4,5.2,3.4l2.3,1.7l-2.1,0.8c-1.6,0.6-2.9,0.2-5.5-1.6c-3.6-2.5-7.5-2.5-5.4,0
	c0.8,1,0.6,1.3-0.9,1.7c-3.4,0.9-1,2.6,2.7,2c2.4-0.4,3.7-0.2,4.4,0.7c0.9,1.1-0.3,1.6-6.9,2.9c-4.4,0.9-10.2,1.7-12.9,1.7
	c-5.1,0.1-8.8,1.5-14.2,5.6c-1.8,1.3-5.5,2.7-9.9,3.5c-9.2,1.8-12.2,3.8-17.8,11.6c-4.4,6.3-7.1,8.7-9.9,8.7
	C406.6,172.4,403.9,171.2,401.5,169.9L401.5,169.9z"/>
<path d="M337.2,163.8c-1.9-1.2-4.3-3.4-5.3-5c-1.9-3-3.6-3.4-8.7-1.9c-1.7,0.5-3.7,0.5-4.4,0.1c-2.7-1.5,2.2-3,7.6-2.3
	c4.1,0.5,5,0.4,5.5-0.9c1-2.5,5.4-4.3,7.8-3.2c1.5,0.7,2.9,0.7,4.8-0.1c2.6-1,2.6-1.1,0.9-2.3c-1-0.7-2.1-1.3-2.5-1.3
	s-1.8-1.8-3.1-4c-1.3-2.2-3.7-4.9-5.4-5.9c-2.9-1.8-3.2-1.8-5.8-0.5c-2.2,1.2-3.5,1.2-7.1,0.4c-2.4-0.5-5.7-0.7-7.4-0.4
	c-2.9,0.5-8.3-0.9-8.3-2.2c0-2.4,7.7-7.9,12.2-8.7l3.6-0.6l-2.6,2.8c-3.6,3.8-2.2,5.6,1.7,2.2c1.6-1.4,4.5-2.9,6.3-3.3
	c2.8-0.5,4-0.2,7.5,2.1c4.7,3.1,5,3.2,7.7,1.8c1.6-0.9,2.2-0.6,3.9,1.5c1.2,1.5,3.9,3.1,6.5,3.9c4.1,1.3,4.4,1.6,4.4,4.5
	c0,2.1,0.6,3.5,2.1,4.5c6.1,4.4,6,4.2,4.6,6.3c-1.8,2.9-3.2,3.1-7.2,1.1c-2.8-1.4-4-1.6-5.4-0.9c-1.7,0.9-1.7,1.1-0.4,3.8
	c1.1,2.2,1.2,3.3,0.5,5c-0.9,2.1-1.1,2.1-3.7,0.8c-5.1-2.6-8.5-0.9-3.7,1.9c1.5,0.9,2.5,1.9,2.2,2.3
	C345.2,166.7,340.7,166,337.2,163.8L337.2,163.8z"/>
<ellipse cx="524.8" cy="165" rx="1.4" ry="0.8"/>
<path d="M303,160.1c-1.8-0.9-3.2-1-5.7-0.3c-4.3,1.2-5.7,0.3-3.6-2.1c2.8-3.1,4.6-3.7,8-2.6c3.8,1.2,5.4,3.1,4.4,4.9
	C305.5,161.2,305,161.2,303,160.1z"/>
<path d="M483.1,159.7c-1.5-1-3.4-1.6-4.2-1.3c-1.1,0.4-1.4,0-1-1.3c0.5-2.1,8.5-5,11.2-4.2c0.9,0.3,3.3,0.1,5.3-0.5
	c3.1-0.9,4-0.9,6.1,0.5l2.5,1.6l-2.2,1.7c-1.8,1.4-5.3,2.7-13.5,4.9C486.4,161.3,484.6,160.7,483.1,159.7z"/>
<path d="M236.9,142.8c-1.2-0.2-4.3-1.3-6.7-2.4l-4.5-2l6.3-0.5c3.5-0.2,6.3-0.9,6.3-1.4c0-0.5-2.4-1.1-5.4-1.4
	c-4-0.4-4.7-0.6-2.7-0.9c3.3-0.5,3.5-1.9,0.5-2.7c-2.2-0.6-2.2-0.6,0.9-1.9c5.4-2.3,11.2-2.8,16.3-1.3c4.2,1.2,4.9,1.2,6.8-0.1
	c1.4-0.9,2.2-1.1,2.3-0.4c0.1,0.6,0.2,1.5,0.2,2.1c0.2,2,2,1.7,4.2-0.6c2-2.1,5.5-3.1,5.5-1.6c0,0.4-0.8,2-1.8,3.6l-1.8,2.9l2.9,1.5
	l2.9,1.5l-4.8,2.2c-4.3,2-5.2,2.1-9.1,1.2c-3.8-0.9-4.8-0.8-8.6,0.8C242.2,143.4,241.3,143.5,236.9,142.8L236.9,142.8z"/>
<path d="M273.3,142.1c-0.8-1-0.5-1.5,1.6-2.3c1.5-0.6,3.6-0.8,4.7-0.5c2,0.6,1.9,0.7-1.1,2.3C274.7,143.7,274.5,143.7,273.3,142.1
	L273.3,142.1z"/>
<path d="M523.4,137.9c1.8-1.1,2.7-1.1,2.7,0c0,0.5-0.9,0.9-2,0.9C522.4,138.8,522.3,138.7,523.4,137.9z"/>
<path d="M689.8,135.4c-4.6-1.8-4.5-1.7-3.2-3.4c0.6-0.8,0.8-1.4,0.4-1.4c-0.4,0,0-0.6,1-1.4c1-0.8,1.8-1.7,1.8-2
	c0-1.3,3.7-4.9,6.3-6.1c1.5-0.7,5.4-1.4,8.6-1.7c3.2-0.3,7.6-0.7,9.6-1c2.2-0.3,4-0.2,4.3,0.3c0.6,1-0.6,1.5-7.6,2.7
	c-7,1.3-11.2,3.2-13.9,6.5c-2.9,3.5-3,5.6-0.3,7.5l2,1.4l-2.7,0C694.6,136.9,691.8,136.2,689.8,135.4L689.8,135.4z"/>
<path d="M214.9,132.8c-1.5-1.5-1.1-1.8,5.9-5.6c8.2-4.5,12.4-5.1,19.7-2.9l4.1,1.2l-5.4,1.1c-4.4,0.9-13.9,4-21.3,7.1
	C217.1,134.1,215.8,133.7,214.9,132.8z"/>
<path d="M280.4,131.6c0-0.5-1.1-1.5-2.5-2.3l-2.5-1.4l3.3,0.5c2.4,0.4,3.6,0.2,4.1-0.8c0.6-1.1,6.4-3.3,8.7-3.3
	c0.4,0,0.1,1.2-0.7,2.7C289,130.6,280.4,134.3,280.4,131.6L280.4,131.6z"/>
<path d="M294.5,129c-1.3-2.1,7.6-5.4,11.3-4.2c2.7,0.9,0.9,2.4-3.9,3.2c-2.1,0.4-4.6,0.9-5.4,1.3C295.8,129.6,294.8,129.5,294.5,129
	L294.5,129z"/>
<path d="M323.5,122.3c-6-0.5-11-1-11.1-1.1c-0.8-0.8,1.2-3.2,3.4-4.1c2.1-0.9,3.1-0.8,6.1,0.7c2.9,1.5,4.7,1.7,10,1.3
	c3.6-0.3,7.7-0.2,9.1,0.2l2.6,0.6l-3.2,1.7c-1.7,0.9-3.8,1.7-4.5,1.6C335,123.2,329.5,122.8,323.5,122.3L323.5,122.3z"/>
<path d="M584.4,118.6c-4.5-2.3-4.9-3.3-1.4-3.3c1.4,0,3.1-0.5,3.9-1c1.2-0.8,1.2-0.9-0.1-0.5c-0.8,0.3-2,0-2.5-0.6
	c-0.8-0.8-1.2-0.8-1.7,0.1c-0.5,0.8-1.5,0.9-3.4,0.3c-4.8-1.4-5.8-2.1-5.8-3.5c0-1.2,1.2-1.3,8.6-0.8c5.6,0.4,8.6,0.3,8.6-0.3
	c0-1.8,2.5-0.9,3.2,1.1l0.7,2l0.4-2c0.2-1.1,1-2,1.7-2s1.3-0.5,1.3-1.1c0-0.8,0.2-0.8,1.1,0c0.6,0.6,3.7,1.1,7.3,1.1
	c6.5,0,8,1.2,3.7,2.8c-2.2,0.9-6.2,0.6-10.4-0.6c-0.9-0.3-1.6-0.1-1.6,0.3c0,0.8,5.1,3.9,6.5,3.9c0.5,0,1.5,0.6,2.2,1.3
	c1.1,1.1,1.1,1.3-0.1,1.8c-0.7,0.3-1.3,0.1-1.3-0.5c0-0.6-1.2-0.8-3.3-0.4c-2.3,0.4-3.1,0.3-2.6-0.4c0.3-0.6,0.1-1.6-0.5-2.3
	c-1.2-1.4-4.5-1.8-4.5-0.6c0,0.4-1.3,2.2-2.9,4l-2.9,3.3L584.4,118.6L584.4,118.6z"/>
<path d="M343.9,116.6c-1.6-0.9-3.8-1.2-7.3-0.9c-3.2,0.3-5.7,0-7.1-0.7c-1.9-1.1-1.4-1.2,4.3-1.1c7.1,0.1,10.2-1.5,6.4-3.1
	c-1.8-0.8-1.6-0.8,1.6-0.4c4.1,0.6,5.7-0.5,3.4-2.4c-2.4-2,0.2-2.6,8.7-2c5.2,0.3,8.5,0.1,9.8-0.6c2.6-1.4,1.6-3.1-1.4-2.4
	c-2,0.5-16.1-0.3-15.5-0.9c0.4-0.4,20.4-2.3,33.4-3.1c6.8-0.4,14.3-1,16.8-1.3l4.4-0.5l-7.3,3.5c-6.9,3.3-18,6.5-22.6,6.5
	c-1.1,0-4.3,1.2-7.1,2.7c-2.8,1.5-5.7,2.7-6.3,2.7c-0.7,0-3.7,1.2-6.6,2.7c-2.9,1.5-5.3,2.7-5.3,2.7
	C346.1,117.9,345.1,117.3,343.9,116.6L343.9,116.6z"/>
<path d="M326.2,108.3c-4.4-1-4.6-1.3-1.3-3c4.7-2.4,9.2-3.1,11.2-1.6c1.6,1.2,1.5,1.4-1.6,3.2C331.1,108.9,329.8,109.1,326.2,108.3z
	"/>
</svg>
