<?xml version="1.0" encoding="utf-8"?>
<!DOCTYPE svg PUBLIC "-//W3C//DTD SVG 1.1 Tiny//EN" "http://www.w3.org/Graphics/SVG/1.1/DTD/svg11-tiny.dtd">
<svg version="1.1" baseProfile="tiny" id="openrndr-svg" xmlns="http://www.w3.org/2000/svg" xmlns:xlink="http://www.w3.org/1999/xlink" x="0px" y="0px" width="1280px" height="720px"><g >
<path fill="none" stroke="#000000" stroke-width="1.0" d="M 513.6081967213116, 18.0L528.2363986309603, 18.0"/>
<path fill="none" stroke="#000000" stroke-width="1.0" d="M 432.98521486833704, 30.0L439.52140867968336, 30.0"/>
<path fill="none" stroke="#000000" stroke-width="1.0" d="M 445.9389200701608, 30.0L489.3126946107785, 30.0"/>
<path fill="none" stroke="#000000" stroke-width="1.0" d="M 522.0391752659292, 30.0L531.0257404737856, 30.0"/>
<path fill="none" stroke="#000000" stroke-width="1.0" d="M 434.4104302625492, 42.0L444.1467714320464, 42.0"/>
<path fill="none" stroke="#000000" stroke-width="1.0" d="M 475.7610778443115, 42.0L491.43964071856294, 42.0"/>
<path fill="none" stroke="#000000" stroke-width="1.0" d="M 528.7035676135913, 42.0L533.0400000000002, 42.0"/>
<path fill="none" stroke="#000000" stroke-width="1.0" d="M 435.57917936597687, 54.0L441.7330935636131, 54.0"/>
<path fill="none" stroke="#000000" stroke-width="1.0" d="M 477.8880239520959, 54.0L493.56658682634736, 54.0"/>
<path fill="none" stroke="#000000" stroke-width="1.0" d="M 480.0149700598804, 66.0L495.6935329341318, 66.0"/>
<path fill="none" stroke="#000000" stroke-width="1.0" d="M 482.1419161676648, 78.0L497.82047904191626, 78.0"/>
<path fill="none" stroke="#000000" stroke-width="1.0" d="M 484.26886227544924, 90.0L499.9474251497007, 90.0"/>
<path fill="none" stroke="#000000" stroke-width="1.0" d="M 486.39580838323366, 102.0L502.0743712574851, 102.0"/>
<path fill="none" stroke="#000000" stroke-width="1.0" d="M 488.522754491018, 114.0L504.2059617977382, 114.0"/>
<path fill="none" stroke="#000000" stroke-width="1.0" d="M 489.2483040278412, 126.0L524.7102040816328, 126.0"/>
<path fill="none" stroke="#000000" stroke-width="1.0" d="M 475.2795918367349, 138.0L482.24157303370816, 138.0"/>
<path fill="none" stroke="#000000" stroke-width="1.0" d="M 591.4822072609597, 18.0L612.8988299905875, 18.0"/>
<path fill="none" stroke="#000000" stroke-width="1.0" d="M 664.4002473932335, 18.0L690.6643742717645, 18.0"/>
<path fill="none" stroke="#000000" stroke-width="1.0" d="M 594.1148456139451, 30.0L609.5495287246132, 30.0"/>
<path fill="none" stroke="#000000" stroke-width="1.0" d="M 668.9130885140867, 30.0L684.7723258696553, 30.0"/>
<path fill="none" stroke="#000000" stroke-width="1.0" d="M 593.9349206349207, 42.0L609.3183453237411, 42.0"/>
<path fill="none" stroke="#000000" stroke-width="1.0" d="M 668.7363309352515, 42.0L684.5587301587302, 42.0"/>
<path fill="none" stroke="#000000" stroke-width="1.0" d="M 593.7444444444445, 54.0L609.1025179856117, 54.0"/>
<path fill="none" stroke="#000000" stroke-width="1.0" d="M 668.5205035971221, 54.0L684.3682539682542, 54.0"/>
<path fill="none" stroke="#000000" stroke-width="1.0" d="M 593.5539682539683, 66.0L684.1777777777779, 66.0"/>
<path fill="none" stroke="#000000" stroke-width="1.0" d="M 593.3634920634921, 78.0L608.9052631578948, 78.0"/>
<path fill="none" stroke="#000000" stroke-width="1.0" d="M 668.3228070175438, 78.0L683.9873015873018, 78.0"/>
<path fill="none" stroke="#000000" stroke-width="1.0" d="M 593.1730158730159, 90.0L608.6947368421053, 90.0"/>
<path fill="none" stroke="#000000" stroke-width="1.0" d="M 668.1122807017545, 90.0L683.7968253968255, 90.0"/>
<path fill="none" stroke="#000000" stroke-width="1.0" d="M 592.9815935625923, 102.0L608.489714405727, 102.0"/>
<path fill="none" stroke="#000000" stroke-width="1.0" d="M 667.901754385965, 102.0L683.6063492063493, 102.0"/>
<path fill="none" stroke="#000000" stroke-width="1.0" d="M 590.4906395404686, 114.0L610.456593246019, 114.0"/>
<path fill="none" stroke="#000000" stroke-width="1.0" d="M 666.1718102904802, 114.0L684.7003878303083, 114.0"/>
<path fill="none" stroke="#000000" stroke-width="1.0" d="M 749.9559999999999, 18.0L754.4744680851065, 18.0"/>
<path fill="none" stroke="#000000" stroke-width="1.0" d="M 761.779090269773, 30.0L779.6338361213848, 30.0"/>
<path fill="none" stroke="#000000" stroke-width="1.0" d="M 784.9000000000001, 30.0L820.0914893617023, 30.0"/>
<path fill="none" stroke="#000000" stroke-width="1.0" d="M 760.6632047477746, 42.0L776.6800000000001, 42.0"/>
<path fill="none" stroke="#000000" stroke-width="1.0" d="M 816.5347955986194, 42.0L825.9142701722569, 42.0"/>
<path fill="none" stroke="#000000" stroke-width="1.0" d="M 758.4554896142433, 54.0L774.4670129870132, 54.0"/>
<path fill="none" stroke="#000000" stroke-width="1.0" d="M 818.8596590954419, 54.0L824.566739500788, 54.0"/>
<path fill="none" stroke="#000000" stroke-width="1.0" d="M 756.2477744807122, 66.0L772.254025974026, 66.0"/>
<path fill="none" stroke="#000000" stroke-width="1.0" d="M 754.040059347181, 78.0L810.8426829268292, 78.0"/>
<path fill="none" stroke="#000000" stroke-width="1.0" d="M 751.83234421365, 90.0L767.8213836477988, 90.0"/>
<path fill="none" stroke="#000000" stroke-width="1.0" d="M 800.9662621116295, 90.0L808.6475609756097, 90.0"/>
<path fill="none" stroke="#000000" stroke-width="1.0" d="M 749.6246290801187, 102.0L765.6327044025156, 102.0"/>
<path fill="none" stroke="#000000" stroke-width="1.0" d="M 747.3426137734518, 114.0L763.4738658425968, 114.0"/>
<path fill="none" stroke="#000000" stroke-width="1.0" d="M 727.5938775510206, 126.0L765.6000000000001, 126.0"/>
<path fill="none" stroke="#000000" stroke-width="1.0" d="M 809.2511496747892, 126.0L818.3473888605047, 126.0"/>
<path fill="none" stroke="#000000" stroke-width="1.0" d="M 783.8922077922077, 138.0L813.3619687477683, 138.0"/>
<path fill="none" stroke="#000000" stroke-width="1.0" d="M 250.64330234508913, 270.0L283.8669271450171, 270.0"/>
<path fill="none" stroke="#000000" stroke-width="1.0" d="M 239.6223576046907, 282.0L247.25116267035048, 282.0"/>
<path fill="none" stroke="#000000" stroke-width="1.0" d="M 235.44853432480784, 294.0L245.6743522336799, 294.0"/>
<path fill="none" stroke="#000000" stroke-width="1.0" d="M 236.4365147677914, 306.0L253.18850391247227, 306.0"/>
<path fill="none" stroke="#000000" stroke-width="1.0" d="M 243.32419688055631, 318.0L320.50867725240767, 318.0"/>
<path fill="none" stroke="#000000" stroke-width="1.0" d="M 308.52775405171127, 330.0L327.88049301125477, 330.0"/>
<path fill="none" stroke="#000000" stroke-width="1.0" d="M 317.694561753975, 342.0L329.342795008493, 342.0"/>
<path fill="none" stroke="#000000" stroke-width="1.0" d="M 318.0081549218017, 354.0L326.01778918639445, 354.0"/>
<path fill="none" stroke="#000000" stroke-width="1.0" d="M 270.36504617574894, 366.0L283.50865957432575, 366.0"/>
<path fill="none" stroke="#000000" stroke-width="1.0" d="M 306.96544205985424, 366.0L317.0442518391914, 366.0"/>
<path fill="none" stroke="#000000" stroke-width="1.0" d="M 281.0314196867234, 378.0L296.265664326552, 378.0"/>
<path fill="none" stroke="#000000" stroke-width="1.0" d="M 371.84167374379166, 210.0L390.2851078837655, 210.0"/>
<path fill="none" stroke="#000000" stroke-width="1.0" d="M 399.81590269021376, 210.0L433.8223135713489, 210.0"/>
<path fill="none" stroke="#000000" stroke-width="1.0" d="M 357.38722671154176, 222.0L367.61996791180786, 222.0"/>
<path fill="none" stroke="#000000" stroke-width="1.0" d="M 423.56345166436756, 222.0L447.07913060819027, 222.0"/>
<path fill="none" stroke="#000000" stroke-width="1.0" d="M 349.4483341161766, 234.0L360.96866514339536, 234.0"/>
<path fill="none" stroke="#000000" stroke-width="1.0" d="M 433.1242651423381, 234.0L454.4511628762459, 234.0"/>
<path fill="none" stroke="#000000" stroke-width="1.0" d="M 345.15290199763433, 246.0L358.87169632412747, 246.0"/>
<path fill="none" stroke="#000000" stroke-width="1.0" d="M 439.22733176073706, 246.0L458.6927747024179, 246.0"/>
<path fill="none" stroke="#000000" stroke-width="1.0" d="M 343.56263979444236, 258.0L359.7557706442115, 258.0"/>
<path fill="none" stroke="#000000" stroke-width="1.0" d="M 443.2993543573018, 258.0L460.630763971599, 258.0"/>
<path fill="none" stroke="#000000" stroke-width="1.0" d="M 344.35035645106393, 270.0L362.9973236158681, 270.0"/>
<path fill="none" stroke="#000000" stroke-width="1.0" d="M 445.3154542262164, 270.0L460.19550421440806, 270.0"/>
<path fill="none" stroke="#000000" stroke-width="1.0" d="M 347.5371534999656, 282.0L368.3770463005401, 282.0"/>
<path fill="none" stroke="#000000" stroke-width="1.0" d="M 444.75387324466044, 282.0L457.1073854359554, 282.0"/>
<path fill="none" stroke="#000000" stroke-width="1.0" d="M 353.53079688803257, 294.0L376.7264254308547, 294.0"/>
<path fill="none" stroke="#000000" stroke-width="1.0" d="M 440.52199222081083, 294.0L450.72499357214423, 294.0"/>
<path fill="none" stroke="#000000" stroke-width="1.0" d="M 363.8680971204034, 306.0L391.44967552245856, 306.0"/>
<path fill="none" stroke="#000000" stroke-width="1.0" d="M 428.82472348108456, 306.0L439.39047123767654, 306.0"/>
<path fill="none" stroke="#000000" stroke-width="1.0" d="M 386.69644023620674, 318.0L414.8763013480943, 318.0"/>
<path fill="none" stroke="#000000" stroke-width="1.0" d="M 595.9653061224487, 162.0L608.994117647059, 162.0"/>
<path fill="none" stroke="#000000" stroke-width="1.0" d="M 494.2777777777775, 174.0L535.4647058823532, 174.0"/>
<path fill="none" stroke="#000000" stroke-width="1.0" d="M 583.9600815779966, 174.0L596.1443376282771, 174.0"/>
<path fill="none" stroke="#000000" stroke-width="1.0" d="M 505.43375818565005, 186.0L522.0193763733029, 186.0"/>
<path fill="none" stroke="#000000" stroke-width="1.0" d="M 587.6419869435201, 186.0L596.1731625554689, 186.0"/>
<path fill="none" stroke="#000000" stroke-width="1.0" d="M 507.39761904761934, 198.0L523.2039062500003, 198.0"/>
<path fill="none" stroke="#000000" stroke-width="1.0" d="M 589.5182135518689, 198.0L597.2123215053846, 198.0"/>
<path fill="none" stroke="#000000" stroke-width="1.0" d="M 508.82619047619073, 210.0L524.6101562500003, 210.0"/>
<path fill="none" stroke="#000000" stroke-width="1.0" d="M 590.9969696969699, 210.0L598.5525179856116, 210.0"/>
<path fill="none" stroke="#000000" stroke-width="1.0" d="M 510.2547619047622, 222.0L526.0164062500003, 222.0"/>
<path fill="none" stroke="#000000" stroke-width="1.0" d="M 592.4052002659694, 222.0L599.9222209377072, 222.0"/>
<path fill="none" stroke="#000000" stroke-width="1.0" d="M 511.68333333333356, 234.0L527.4429321202672, 234.0"/>
<path fill="none" stroke="#000000" stroke-width="1.0" d="M 592.9295292040254, 234.0L600.6207437429839, 234.0"/>
<path fill="none" stroke="#000000" stroke-width="1.0" d="M 513.4554741475046, 246.0L529.988574508797, 246.0"/>
<path fill="none" stroke="#000000" stroke-width="1.0" d="M 591.764348373522, 246.0L599.8067056391913, 246.0"/>
<path fill="none" stroke="#000000" stroke-width="1.0" d="M 516.9150701589974, 258.0L535.2725356264818, 258.0"/>
<path fill="none" stroke="#000000" stroke-width="1.0" d="M 587.4624520443911, 258.0L596.4116836757626, 258.0"/>
<path fill="none" stroke="#000000" stroke-width="1.0" d="M 524.0432379312233, 270.0L549.2097902115436, 270.0"/>
<path fill="none" stroke="#000000" stroke-width="1.0" d="M 572.7103305374544, 270.0L588.3095977639053, 270.0"/>
<path fill="none" stroke="#000000" stroke-width="1.0" d="M 548.2521407542711, 282.0L560.7896828816816, 282.0"/>
<path fill="none" stroke="#000000" stroke-width="1.0" d="M 657.6117647058825, 162.0L671.4258064516131, 162.0"/>
<path fill="none" stroke="#000000" stroke-width="1.0" d="M 672.2348294125594, 174.0L691.1777070063697, 174.0"/>
<path fill="none" stroke="#000000" stroke-width="1.0" d="M 738.5294117647061, 174.0L772.7142857142856, 174.0"/>
<path fill="none" stroke="#000000" stroke-width="1.0" d="M 673.9281615402356, 186.0L699.1522292993633, 186.0"/>
<path fill="none" stroke="#000000" stroke-width="1.0" d="M 754.3431102577402, 186.0L764.7360681395885, 186.0"/>
<path fill="none" stroke="#000000" stroke-width="1.0" d="M 672.5470588235295, 198.0L680.019014084507, 198.0"/>
<path fill="none" stroke="#000000" stroke-width="1.0" d="M 688.5490374873353, 198.0L707.1267515923569, 198.0"/>
<path fill="none" stroke="#000000" stroke-width="1.0" d="M 753.9766380016611, 198.0L762.1407749407374, 198.0"/>
<path fill="none" stroke="#000000" stroke-width="1.0" d="M 671.1352941176472, 210.0L678.5823943661973, 210.0"/>
<path fill="none" stroke="#000000" stroke-width="1.0" d="M 696.3423505572441, 210.0L715.1012738853505, 210.0"/>
<path fill="none" stroke="#000000" stroke-width="1.0" d="M 752.9318133396841, 210.0L760.4009447595724, 210.0"/>
<path fill="none" stroke="#000000" stroke-width="1.0" d="M 669.7235294117648, 222.0L677.1457746478874, 222.0"/>
<path fill="none" stroke="#000000" stroke-width="1.0" d="M 704.1356636271531, 222.0L723.075796178344, 222.0"/>
<path fill="none" stroke="#000000" stroke-width="1.0" d="M 751.5474576271188, 222.0L758.9667630057804, 222.0"/>
<path fill="none" stroke="#000000" stroke-width="1.0" d="M 668.2795129941127, 234.0L675.7180125472662, 234.0"/>
<path fill="none" stroke="#000000" stroke-width="1.0" d="M 711.9289766970619, 234.0L731.0503184713377, 234.0"/>
<path fill="none" stroke="#000000" stroke-width="1.0" d="M 750.1237288135594, 234.0L757.5447976878614, 234.0"/>
<path fill="none" stroke="#000000" stroke-width="1.0" d="M 666.6165562491867, 246.0L674.5141599380183, 246.0"/>
<path fill="none" stroke="#000000" stroke-width="1.0" d="M 719.7222897669707, 246.0L739.0248407643314, 246.0"/>
<path fill="none" stroke="#000000" stroke-width="1.0" d="M 748.7000000000002, 246.0L756.1228323699422, 246.0"/>
<path fill="none" stroke="#000000" stroke-width="1.0" d="M 664.4650918743316, 258.0L673.8201672936325, 258.0"/>
<path fill="none" stroke="#000000" stroke-width="1.0" d="M 727.5156028368795, 258.0L754.7008670520233, 258.0"/>
<path fill="none" stroke="#000000" stroke-width="1.0" d="M 647.6183673469387, 270.0L679.7716493727321, 270.0"/>
<path fill="none" stroke="#000000" stroke-width="1.0" d="M 735.3089159067882, 270.0L753.2789017341042, 270.0"/>
<path fill="none" stroke="#000000" stroke-width="1.0" d="M 743.1022289766972, 282.0L751.8569364161851, 282.0"/>
<path fill="none" stroke="#000000" stroke-width="1.0" d="M 839.7124485975687, 198.0L858.8440677966103, 198.0"/>
<path fill="none" stroke="#000000" stroke-width="1.0" d="M 840.2630674213813, 210.0L857.4560741988975, 210.0"/>
<path fill="none" stroke="#000000" stroke-width="1.0" d="M 873.7611856328826, 210.0L889.6859784371619, 210.0"/>
<path fill="none" stroke="#000000" stroke-width="1.0" d="M 835.828173374613, 222.0L852.5544910179642, 222.0"/>
<path fill="none" stroke="#000000" stroke-width="1.0" d="M 894.5659765581129, 222.0L908.9079634316564, 222.0"/>
<path fill="none" stroke="#000000" stroke-width="1.0" d="M 831.3328173374613, 234.0L848.0634730538924, 234.0"/>
<path fill="none" stroke="#000000" stroke-width="1.0" d="M 903.6876766595858, 234.0L919.1375371681269, 234.0"/>
<path fill="none" stroke="#000000" stroke-width="1.0" d="M 826.8374613003095, 246.0L843.5724550898204, 246.0"/>
<path fill="none" stroke="#000000" stroke-width="1.0" d="M 907.5145551525534, 246.0L924.1162034974534, 246.0"/>
<path fill="none" stroke="#000000" stroke-width="1.0" d="M 822.3421052631578, 258.0L839.0814371257486, 258.0"/>
<path fill="none" stroke="#000000" stroke-width="1.0" d="M 907.7859872403927, 258.0L925.5730529166401, 258.0"/>
<path fill="none" stroke="#000000" stroke-width="1.0" d="M 817.8467492260062, 270.0L834.5904191616767, 270.0"/>
<path fill="none" stroke="#000000" stroke-width="1.0" d="M 905.2697453872786, 270.0L924.1189406971819, 270.0"/>
<path fill="none" stroke="#000000" stroke-width="1.0" d="M 813.2976551638671, 282.0L830.0994011976048, 282.0"/>
<path fill="none" stroke="#000000" stroke-width="1.0" d="M 900.201916837441, 282.0L919.9589231303369, 282.0"/>
<path fill="none" stroke="#000000" stroke-width="1.0" d="M 794.0778523489934, 294.0L828.2352403237117, 294.0"/>
<path fill="none" stroke="#000000" stroke-width="1.0" d="M 891.7077726729979, 294.0L912.8369618871583, 294.0"/>
<path fill="none" stroke="#000000" stroke-width="1.0" d="M 826.2120805369126, 306.0L844.8960270043008, 306.0"/>
<path fill="none" stroke="#000000" stroke-width="1.0" d="M 873.9215725834313, 306.0L900.1520649945454, 306.0"/>
<path fill="none" stroke="#000000" stroke-width="1.0" d="M 985.9681363442057, 270.0L1016.4491184803167, 270.0"/>
<path fill="none" stroke="#000000" stroke-width="1.0" d="M 974.1080201010268, 282.0L990.9593441954735, 282.0"/>
<path fill="none" stroke="#000000" stroke-width="1.0" d="M 1022.3814027106996, 282.0L1033.1902987708654, 282.0"/>
<path fill="none" stroke="#000000" stroke-width="1.0" d="M 970.7274335034517, 294.0L987.1785157985219, 294.0"/>
<path fill="none" stroke="#000000" stroke-width="1.0" d="M 1026.4110542278715, 294.0L1036.527429759082, 294.0"/>
<path fill="none" stroke="#000000" stroke-width="1.0" d="M 972.4309310455303, 306.0L990.4153637701021, 306.0"/>
<path fill="none" stroke="#000000" stroke-width="1.0" d="M 1024.7087288770504, 306.0L1031.0191924404924, 306.0"/>
<path fill="none" stroke="#000000" stroke-width="1.0" d="M 977.7062465430979, 318.0L997.1042695274491, 318.0"/>
<path fill="none" stroke="#000000" stroke-width="1.0" d="M 941.2284424302039, 330.0L947.9432972858207, 330.0"/>
<path fill="none" stroke="#000000" stroke-width="1.0" d="M 984.5242286570299, 330.0L1003.5251200674736, 330.0"/>
<path fill="none" stroke="#000000" stroke-width="1.0" d="M 936.1293819266314, 342.0L946.628561828914, 342.0"/>
<path fill="none" stroke="#000000" stroke-width="1.0" d="M 989.4120370407466, 342.0L1007.2220099517283, 342.0"/>
<path fill="none" stroke="#000000" stroke-width="1.0" d="M 936.8464017446813, 354.0L949.063825696192, 354.0"/>
<path fill="none" stroke="#000000" stroke-width="1.0" d="M 988.918042846457, 354.0L1006.4105263273043, 354.0"/>
<path fill="none" stroke="#000000" stroke-width="1.0" d="M 948.8997593148632, 366.0L960.4062303614277, 366.0"/>
<path fill="none" stroke="#000000" stroke-width="1.0" d="M 979.396269373502, 366.0L999.3978119363027, 366.0"/>
<path fill="none" stroke="#000000" stroke-width="1.0" d="M 344.5144578313253, 582.0L353.7611203657848, 582.0"/>
<path fill="none" stroke="#000000" stroke-width="1.0" d="M 333.6710843373494, 594.0L343.61859536136154, 594.0"/>
<path fill="none" stroke="#000000" stroke-width="1.0" d="M 357.27699215065616, 594.0L367.7227272727273, 594.0"/>
<path fill="none" stroke="#000000" stroke-width="1.0" d="M 322.8277108433735, 606.0L331.24375000000003, 606.0"/>
<path fill="none" stroke="#000000" stroke-width="1.0" d="M 311.9843373493976, 618.0L322.21098743183245, 618.0"/>
<path fill="none" stroke="#000000" stroke-width="1.0" d="M 371.67121020671334, 618.0L381.475, 618.0"/>
<path fill="none" stroke="#000000" stroke-width="1.0" d="M 301.1409638554217, 630.0L334.7475285171103, 630.0"/>
<path fill="none" stroke="#000000" stroke-width="1.0" d="M 369.54014972536294, 630.0L394.7607142857143, 630.0"/>
<path fill="none" stroke="#000000" stroke-width="1.0" d="M 414.88571428571436, 630.0L420.67636991480396, 630.0"/>
<path fill="none" stroke="#000000" stroke-width="1.0" d="M 324.9455337690631, 642.0L348.0250950570343, 642.0"/>
<path fill="none" stroke="#000000" stroke-width="1.0" d="M 358.90500000000003, 642.0L368.48181818181814, 642.0"/>
<path fill="none" stroke="#000000" stroke-width="1.0" d="M 419.0746812789023, 642.0L429.4720235843979, 642.0"/>
<path fill="none" stroke="#000000" stroke-width="1.0" d="M 338.22657952069704, 654.0L361.4013824884794, 654.0"/>
<path fill="none" stroke="#000000" stroke-width="1.0" d="M 419.96352248991786, 654.0L431.1957278481013, 654.0"/>
<path fill="none" stroke="#000000" stroke-width="1.0" d="M 351.50762527233104, 666.0L374.673271889401, 666.0"/>
<path fill="none" stroke="#000000" stroke-width="1.0" d="M 412.05731656457317, 666.0L420.3539556962025, 666.0"/>
<path fill="none" stroke="#000000" stroke-width="1.0" d="M 364.7886710239651, 678.0L388.5006491629922, 678.0"/>
<path fill="none" stroke="#000000" stroke-width="1.0" d="M 400.1833871148975, 678.0L409.51218354430375, 678.0"/>
<path fill="none" stroke="#000000" stroke-width="1.0" d="M 377.7709847282007, 690.0L398.670411392405, 690.0"/>
<path fill="none" stroke="#000000" stroke-width="1.0" d="M 379.50269466317144, 702.0L387.8286392405063, 702.0"/>
<path fill="none" stroke="#000000" stroke-width="1.0" d="M 455.65271794871796, 510.0L468.26445543794466, 510.0"/>
<path fill="none" stroke="#000000" stroke-width="1.0" d="M 456.3419487179487, 522.0L480.3396404574865, 522.0"/>
<path fill="none" stroke="#000000" stroke-width="1.0" d="M 457.03117948717954, 534.0L463.29579259759896, 534.0"/>
<path fill="none" stroke="#000000" stroke-width="1.0" d="M 470.687915407855, 534.0L492.4098780334146, 534.0"/>
<path fill="none" stroke="#000000" stroke-width="1.0" d="M 457.7204102564102, 546.0L464.2313823903321, 546.0"/>
<path fill="none" stroke="#000000" stroke-width="1.0" d="M 482.36163141993956, 546.0L504.49407438389306, 546.0"/>
<path fill="none" stroke="#000000" stroke-width="1.0" d="M 458.40964102564106, 558.0L465.28476251010943, 558.0"/>
<path fill="none" stroke="#000000" stroke-width="1.0" d="M 494.0353474320241, 558.0L516.6113734159128, 558.0"/>
<path fill="none" stroke="#000000" stroke-width="1.0" d="M 459.0988717948718, 570.0L466.3637196765354, 570.0"/>
<path fill="none" stroke="#000000" stroke-width="1.0" d="M 472.38283582089565, 570.0L489.5333333333333, 570.0"/>
<path fill="none" stroke="#000000" stroke-width="1.0" d="M 506.0417006653455, 570.0L528.7825755260462, 570.0"/>
<path fill="none" stroke="#000000" stroke-width="1.0" d="M 459.7881025641026, 582.0L467.1501996630483, 582.0"/>
<path fill="none" stroke="#000000" stroke-width="1.0" d="M 517.8219648110797, 582.0L556.2, 582.0"/>
<path fill="none" stroke="#000000" stroke-width="1.0" d="M 460.4773333333333, 594.0L468.48584531434693, 594.0"/>
<path fill="none" stroke="#000000" stroke-width="1.0" d="M 520.4085003446214, 594.0L534.6647058823529, 594.0"/>
<path fill="none" stroke="#000000" stroke-width="1.0" d="M 461.10261160926643, 606.0L469.94684278302526, 606.0"/>
<path fill="none" stroke="#000000" stroke-width="1.0" d="M 460.11712619628645, 618.0L483.53190184049083, 618.0"/>
<path fill="none" stroke="#000000" stroke-width="1.0" d="M 451.58000000000004, 630.0L457.8386503067485, 630.0"/>
<path fill="none" stroke="#000000" stroke-width="1.0" d="M 584.3601611582335, 474.0L610.5737605599516, 474.0"/>
<path fill="none" stroke="#000000" stroke-width="1.0" d="M 626.2390691679639, 474.0L650.820582650679, 474.0"/>
<path fill="none" stroke="#000000" stroke-width="1.0" d="M 591.3731897959882, 486.0L606.7821596244132, 486.0"/>
<path fill="none" stroke="#000000" stroke-width="1.0" d="M 641.0108098500878, 486.0L659.1515620222378, 486.0"/>
<path fill="none" stroke="#000000" stroke-width="1.0" d="M 591.7115774240231, 498.0L607.0638497652583, 498.0"/>
<path fill="none" stroke="#000000" stroke-width="1.0" d="M 643.5030231300877, 498.0L660.5301911079042, 498.0"/>
<path fill="none" stroke="#000000" stroke-width="1.0" d="M 592.0068017366135, 510.0L607.3455399061035, 510.0"/>
<path fill="none" stroke="#000000" stroke-width="1.0" d="M 641.7775221020634, 510.0L656.8231605216838, 510.0"/>
<path fill="none" stroke="#000000" stroke-width="1.0" d="M 592.302026049204, 522.0L607.6272300469484, 522.0"/>
<path fill="none" stroke="#000000" stroke-width="1.0" d="M 631.0808094387436, 522.0L644.0670271348744, 522.0"/>
<path fill="none" stroke="#000000" stroke-width="1.0" d="M 592.5972503617944, 534.0L607.8797794117647, 534.0"/>
<path fill="none" stroke="#000000" stroke-width="1.0" d="M 625.5389290386403, 534.0L644.8027644407575, 534.0"/>
<path fill="none" stroke="#000000" stroke-width="1.0" d="M 592.892474674385, 546.0L608.1886029411763, 546.0"/>
<path fill="none" stroke="#000000" stroke-width="1.0" d="M 633.748199751908, 546.0L652.818433707085, 546.0"/>
<path fill="none" stroke="#000000" stroke-width="1.0" d="M 593.1876989869754, 558.0L608.4974264705882, 558.0"/>
<path fill="none" stroke="#000000" stroke-width="1.0" d="M 641.5931568713777, 558.0L661.6497063188926, 558.0"/>
<path fill="none" stroke="#000000" stroke-width="1.0" d="M 592.1575348913134, 570.0L610.2975572652015, 570.0"/>
<path fill="none" stroke="#000000" stroke-width="1.0" d="M 650.768000518259, 570.0L672.7289083700832, 570.0"/>
<path fill="none" stroke="#000000" stroke-width="1.0" d="M 733.120874738459, 474.0L737.4628132436195, 474.0"/>
<path fill="none" stroke="#000000" stroke-width="1.0" d="M 727.8570021252024, 486.0L759.7600000000004, 486.0"/>
<path fill="none" stroke="#000000" stroke-width="1.0" d="M 722.328144035258, 498.0L729.3832473875668, 498.0"/>
<path fill="none" stroke="#000000" stroke-width="1.0" d="M 766.8562814070353, 498.0L792.5600000000005, 498.0"/>
<path fill="none" stroke="#000000" stroke-width="1.0" d="M 762.4542713567839, 510.0L778.8618090452261, 510.0"/>
<path fill="none" stroke="#000000" stroke-width="1.0" d="M 804.6878323588912, 510.0L822.1174315881419, 510.0"/>
<path fill="none" stroke="#000000" stroke-width="1.0" d="M 758.0522613065327, 522.0L774.4597989949749, 522.0"/>
<path fill="none" stroke="#000000" stroke-width="1.0" d="M 810.5004251794685, 522.0L818.409550324942, 522.0"/>
<path fill="none" stroke="#000000" stroke-width="1.0" d="M 753.6502512562815, 534.0L770.0577889447236, 534.0"/>
<path fill="none" stroke="#000000" stroke-width="1.0" d="M 811.6615384615387, 534.0L815.0185988678817, 534.0"/>
<path fill="none" stroke="#000000" stroke-width="1.0" d="M 749.2482412060302, 546.0L765.6557788944724, 546.0"/>
<path fill="none" stroke="#000000" stroke-width="1.0" d="M 744.8462311557789, 558.0L761.2537688442211, 558.0"/>
<path fill="none" stroke="#000000" stroke-width="1.0" d="M 740.4442211055277, 570.0L756.8517587939698, 570.0"/>
<path fill="none" stroke="#000000" stroke-width="1.0" d="M 735.7235974290081, 582.0L752.4623050124833, 582.0"/>
<path fill="none" stroke="#000000" stroke-width="1.0" d="M 727.3815028901732, 594.0L751.5418056374741, 594.0"/>
<path fill="none" stroke="#000000" stroke-width="1.0" d="M 760.3988439306356, 606.0L762.895652173913, 606.0"/>
<path fill="none" stroke="#000000" stroke-width="1.0" d="M 883.8, 546.0L885.0018348623853, 546.0"/>
<path fill="none" stroke="#000000" stroke-width="1.0" d="M 887.4300576401275, 558.0L897.0385321100916, 558.0"/>
<path fill="none" stroke="#000000" stroke-width="1.0" d="M 882.2509580610508, 570.0L909.0752293577981, 570.0"/>
<path fill="none" stroke="#000000" stroke-width="1.0" d="M 870.3411405295315, 582.0L892.1048438272238, 582.0"/>
<path fill="none" stroke="#000000" stroke-width="1.0" d="M 858.3900203665986, 594.0L880.1568527918779, 594.0"/>
<path fill="none" stroke="#000000" stroke-width="1.0" d="M 846.438900203666, 606.0L875.2083333333331, 606.0"/>
<path fill="none" stroke="#000000" stroke-width="1.0" d="M 937.3462100577899, 606.0L945.121951219512, 606.0"/>
<path fill="none" stroke="#000000" stroke-width="1.0" d="M 834.487780040733, 618.0L856.4999999999999, 618.0"/>
<path fill="none" stroke="#000000" stroke-width="1.0" d="M 877.1245238095237, 618.0L887.2369047619045, 618.0"/>
<path fill="none" stroke="#000000" stroke-width="1.0" d="M 939.3885448546209, 618.0L957.1585365853656, 618.0"/>
<path fill="none" stroke="#000000" stroke-width="1.0" d="M 809.9273556231002, 630.0L844.4999999999999, 630.0"/>
<path fill="none" stroke="#000000" stroke-width="1.0" d="M 889.1530952380953, 630.0L899.2654761904759, 630.0"/>
<path fill="none" stroke="#000000" stroke-width="1.0" d="M 928.2263959390862, 630.0L951.1891348424293, 630.0"/>
<path fill="none" stroke="#000000" stroke-width="1.0" d="M 960.9517068002256, 630.0L969.1951219512192, 630.0"/>
<path fill="none" stroke="#000000" stroke-width="1.0" d="M 822.0003039513676, 642.0L835.1186420294006, 642.0"/>
<path fill="none" stroke="#000000" stroke-width="1.0" d="M 901.1816666666666, 642.0L911.2940476190473, 642.0"/>
<path fill="none" stroke="#000000" stroke-width="1.0" d="M 916.2873096446699, 642.0L938.5378048780487, 642.0"/>
<path fill="none" stroke="#000000" stroke-width="1.0" d="M 834.0732522796351, 654.0L841.2354221480607, 654.0"/>
<path fill="none" stroke="#000000" stroke-width="1.0" d="M 904.5999999999999, 654.0L926.6109756097562, 654.0"/>
<path fill="none" stroke="#000000" stroke-width="1.0" d="M 892.5999999999999, 666.0L914.6841463414635, 666.0"/>
<path fill="none" stroke="#000000" stroke-width="1.0" d="M 858.1008902077151, 678.0L865.928886602958, 678.0"/>
<path fill="none" stroke="#000000" stroke-width="1.0" d="M 880.3733607363376, 678.0L902.7573170731707, 678.0"/>
<path fill="none" stroke="#000000" stroke-width="1.0" d="M 870.1364985163204, 690.0L891.140704402187, 690.0"/>
<path fill="none" stroke="#000000" stroke-width="1.0" d="M 882.1721068249258, 702.0L890.4072832472834, 702.0"/>
<path fill="none" stroke="#000000" stroke-width="1.0" d="M 551.2769071601028, 342.0L562.8186704413641, 342.0"/>
<path fill="none" stroke="#000000" stroke-width="1.0" d="M 596.8531809941059, 342.0L614.8200436124285, 342.0"/>
<path fill="none" stroke="#000000" stroke-width="1.0" d="M 540.4814009499047, 354.0L552.4324329341438, 354.0"/>
<path fill="none" stroke="#000000" stroke-width="1.0" d="M 608.4719468250848, 354.0L625.3602257871071, 354.0"/>
<path fill="none" stroke="#000000" stroke-width="1.0" d="M 534.8948771736451, 366.0L548.5845502066004, 366.0"/>
<path fill="none" stroke="#000000" stroke-width="1.0" d="M 613.917156577189, 366.0L630.6196433558422, 366.0"/>
<path fill="none" stroke="#000000" stroke-width="1.0" d="M 532.5755850742592, 378.0L547.9033714848476, 378.0"/>
<path fill="none" stroke="#000000" stroke-width="1.0" d="M 616.5590587864286, 378.0L632.6091886154552, 378.0"/>
<path fill="none" stroke="#000000" stroke-width="1.0" d="M 532.9966767501608, 390.0L549.4563363617033, 390.0"/>
<path fill="none" stroke="#000000" stroke-width="1.0" d="M 617.2451771161027, 390.0L632.1230533401092, 390.0"/>
<path fill="none" stroke="#000000" stroke-width="1.0" d="M 536.2129944040068, 402.0L553.3833566558275, 402.0"/>
<path fill="none" stroke="#000000" stroke-width="1.0" d="M 615.6282516158138, 402.0L628.8370596300083, 402.0"/>
<path fill="none" stroke="#000000" stroke-width="1.0" d="M 543.1599155954431, 414.0L560.9469727073358, 414.0"/>
<path fill="none" stroke="#000000" stroke-width="1.0" d="M 610.2503543552968, 414.0L621.6394322760059, 414.0"/>
<path fill="none" stroke="#000000" stroke-width="1.0" d="M 557.2652903807488, 426.0L581.6668083405125, 426.0"/>
<path fill="none" stroke="#000000" stroke-width="1.0" d="M 591.1555890652019, 426.0L606.8049645821284, 426.0"/>
<path fill="none" stroke="#000000" stroke-width="1.0" d="M 685.6694049538778, 342.0L700.251050950149, 342.0"/>
<path fill="none" stroke="#000000" stroke-width="1.0" d="M 713.2666666666667, 342.0L740.807832399013, 342.0"/>
<path fill="none" stroke="#000000" stroke-width="1.0" d="M 684.886724137931, 354.0L698.4674351585013, 354.0"/>
<path fill="none" stroke="#000000" stroke-width="1.0" d="M 733.8401855084373, 354.0L739.9879018957004, 354.0"/>
<path fill="none" stroke="#000000" stroke-width="1.0" d="M 683.2522413793101, 366.0L696.8420749279538, 366.0"/>
<path fill="none" stroke="#000000" stroke-width="1.0" d="M 681.6177586206895, 378.0L695.2167146974061, 378.0"/>
<path fill="none" stroke="#000000" stroke-width="1.0" d="M 725.5756558714188, 378.0L731.3863636363635, 378.0"/>
<path fill="none" stroke="#000000" stroke-width="1.0" d="M 679.9832758620688, 390.0L693.5566539923954, 390.0"/>
<path fill="none" stroke="#000000" stroke-width="1.0" d="M 719.8118377761928, 390.0L729.7499999999999, 390.0"/>
<path fill="none" stroke="#000000" stroke-width="1.0" d="M 678.3487931034482, 402.0L691.9140684410647, 402.0"/>
<path fill="none" stroke="#000000" stroke-width="1.0" d="M 727.3499999999997, 402.0L728.1136363636363, 402.0"/>
<path fill="none" stroke="#000000" stroke-width="1.0" d="M 676.651328723903, 414.0L690.2976641589889, 414.0"/>
<path fill="none" stroke="#000000" stroke-width="1.0" d="M 661.8142857142856, 426.0L694.8969659677747, 426.0"/>
</g>
</svg>