<?xml version="1.0" encoding="utf-8"?>
<!DOCTYPE svg PUBLIC "-//W3C//DTD SVG 1.1 Tiny//EN" "http://www.w3.org/Graphics/SVG/1.1/DTD/svg11-tiny.dtd">
<svg version="1.1" baseProfile="tiny" id="openrndr-svg" xmlns="http://www.w3.org/2000/svg" xmlns:xlink="http://www.w3.org/1999/xlink" x="0px" y="0px" width="1280px" height="720px"><g >
<path fill="none" stroke="#000000" stroke-width="1.0" d="M 521.2021461404704, 15.0L527.6074134432889, 15.0"/>
<path fill="none" stroke="#000000" stroke-width="1.0" d="M 496.69016393442644, 21.0L528.8993024130091, 21.0"/>
<path fill="none" stroke="#000000" stroke-width="1.0" d="M 462.85409836065605, 27.0L499.30000000000007, 27.0"/>
<path fill="none" stroke="#000000" stroke-width="1.0" d="M 518.758483109001, 27.0L530.2981104824163, 27.0"/>
<path fill="none" stroke="#000000" stroke-width="1.0" d="M 433.3816707074051, 33.0L465.2333333333336, 33.0"/>
<path fill="none" stroke="#000000" stroke-width="1.0" d="M 474.1658682634732, 33.0L489.84443113772465, 33.0"/>
<path fill="none" stroke="#000000" stroke-width="1.0" d="M 524.2069567110611, 33.0L531.7688456832074, 33.0"/>
<path fill="none" stroke="#000000" stroke-width="1.0" d="M 434.08867364942495, 39.0L446.2766275665202, 39.0"/>
<path fill="none" stroke="#000000" stroke-width="1.0" d="M 475.2293413173653, 39.0L490.9079041916168, 39.0"/>
<path fill="none" stroke="#000000" stroke-width="1.0" d="M 527.3850870746346, 39.0L533.2960500620484, 39.0"/>
<path fill="none" stroke="#000000" stroke-width="1.0" d="M 434.7168837857412, 45.0L443.10363143632304, 45.0"/>
<path fill="none" stroke="#000000" stroke-width="1.0" d="M 476.29281437125763, 45.0L491.9713772455091, 45.0"/>
<path fill="none" stroke="#000000" stroke-width="1.0" d="M 435.29808371318484, 51.0L442.06475551391054, 51.0"/>
<path fill="none" stroke="#000000" stroke-width="1.0" d="M 477.35628742514973, 51.0L493.0348502994012, 51.0"/>
<path fill="none" stroke="#000000" stroke-width="1.0" d="M 435.85794792896775, 57.0L441.4494515355293, 57.0"/>
<path fill="none" stroke="#000000" stroke-width="1.0" d="M 478.41976047904205, 57.0L494.0983233532935, 57.0"/>
<path fill="none" stroke="#000000" stroke-width="1.0" d="M 479.4832335329343, 63.0L495.16179640718576, 63.0"/>
<path fill="none" stroke="#000000" stroke-width="1.0" d="M 480.5467065868265, 69.0L496.2252694610779, 69.0"/>
<path fill="none" stroke="#000000" stroke-width="1.0" d="M 481.6101796407187, 75.0L497.2887425149702, 75.0"/>
<path fill="none" stroke="#000000" stroke-width="1.0" d="M 482.67365269461095, 81.0L498.35221556886233, 81.0"/>
<path fill="none" stroke="#000000" stroke-width="1.0" d="M 483.7371257485031, 87.0L499.4156886227546, 87.0"/>
<path fill="none" stroke="#000000" stroke-width="1.0" d="M 484.80059880239537, 93.0L500.4791616766468, 93.0"/>
<path fill="none" stroke="#000000" stroke-width="1.0" d="M 485.8640718562875, 99.0L501.54263473053896, 99.0"/>
<path fill="none" stroke="#000000" stroke-width="1.0" d="M 486.9275449101798, 105.0L502.60610778443123, 105.0"/>
<path fill="none" stroke="#000000" stroke-width="1.0" d="M 487.991017964072, 111.0L503.6695808383234, 111.0"/>
<path fill="none" stroke="#000000" stroke-width="1.0" d="M 489.028963804903, 117.0L504.8407845873881, 117.0"/>
<path fill="none" stroke="#000000" stroke-width="1.0" d="M 489.6057778799687, 123.0L507.36454201879883, 123.0"/>
<path fill="none" stroke="#000000" stroke-width="1.0" d="M 487.54973459342375, 129.0L525.261224489796, 129.0"/>
<path fill="none" stroke="#000000" stroke-width="1.0" d="M 474.7285714285716, 135.0L499.0955056179778, 135.0"/>
<path fill="none" stroke="#000000" stroke-width="1.0" d="M 580.6055523314642, 15.0L624.8117647058823, 15.0"/>
<path fill="none" stroke="#000000" stroke-width="1.0" d="M 654.0215686274508, 15.0L700.6, 15.0"/>
<path fill="none" stroke="#000000" stroke-width="1.0" d="M 593.2944007174228, 21.0L610.7436632907836, 21.0"/>
<path fill="none" stroke="#000000" stroke-width="1.0" d="M 667.611250677676, 21.0L686.4472466667669, 21.0"/>
<path fill="none" stroke="#000000" stroke-width="1.0" d="M 594.0812943427778, 27.0L609.694589183666, 27.0"/>
<path fill="none" stroke="#000000" stroke-width="1.0" d="M 668.8273842489538, 27.0L684.946539650178, 27.0"/>
<path fill="none" stroke="#000000" stroke-width="1.0" d="M 594.0777777777778, 33.0L609.4802158273382, 33.0"/>
<path fill="none" stroke="#000000" stroke-width="1.0" d="M 668.8982014388488, 33.0L684.7014015227913, 33.0"/>
<path fill="none" stroke="#000000" stroke-width="1.0" d="M 593.9825396825397, 39.0L609.3723021582734, 39.0"/>
<path fill="none" stroke="#000000" stroke-width="1.0" d="M 668.7902877697841, 39.0L684.6063492063494, 39.0"/>
<path fill="none" stroke="#000000" stroke-width="1.0" d="M 593.8873015873015, 45.0L609.2643884892087, 45.0"/>
<path fill="none" stroke="#000000" stroke-width="1.0" d="M 668.6823741007192, 45.0L684.5111111111112, 45.0"/>
<path fill="none" stroke="#000000" stroke-width="1.0" d="M 593.7920634920634, 51.0L609.156474820144, 51.0"/>
<path fill="none" stroke="#000000" stroke-width="1.0" d="M 668.5744604316545, 51.0L684.4158730158731, 51.0"/>
<path fill="none" stroke="#000000" stroke-width="1.0" d="M 593.6968253968255, 57.0L609.0485611510793, 57.0"/>
<path fill="none" stroke="#000000" stroke-width="1.0" d="M 668.4665467625898, 57.0L684.320634920635, 57.0"/>
<path fill="none" stroke="#000000" stroke-width="1.0" d="M 593.6015873015874, 63.0L684.225396825397, 63.0"/>
<path fill="none" stroke="#000000" stroke-width="1.0" d="M 593.5063492063493, 69.0L609.063157894737, 69.0"/>
<path fill="none" stroke="#000000" stroke-width="1.0" d="M 668.4807017543859, 69.0L684.1301587301588, 69.0"/>
<path fill="none" stroke="#000000" stroke-width="1.0" d="M 593.4111111111112, 75.0L608.9578947368421, 75.0"/>
<path fill="none" stroke="#000000" stroke-width="1.0" d="M 668.3754385964913, 75.0L684.0349206349207, 75.0"/>
<path fill="none" stroke="#000000" stroke-width="1.0" d="M 593.3158730158731, 81.0L608.8526315789475, 81.0"/>
<path fill="none" stroke="#000000" stroke-width="1.0" d="M 668.2701754385965, 81.0L683.9396825396825, 81.0"/>
<path fill="none" stroke="#000000" stroke-width="1.0" d="M 593.2206349206349, 87.0L608.7473684210527, 87.0"/>
<path fill="none" stroke="#000000" stroke-width="1.0" d="M 668.1649122807017, 87.0L683.8444444444445, 87.0"/>
<path fill="none" stroke="#000000" stroke-width="1.0" d="M 593.1253968253968, 93.0L608.6421052631579, 93.0"/>
<path fill="none" stroke="#000000" stroke-width="1.0" d="M 668.0596491228071, 93.0L683.7492063492065, 93.0"/>
<path fill="none" stroke="#000000" stroke-width="1.0" d="M 593.0301587301587, 99.0L608.5368421052631, 99.0"/>
<path fill="none" stroke="#000000" stroke-width="1.0" d="M 667.9543859649124, 99.0L683.6539682539684, 99.0"/>
<path fill="none" stroke="#000000" stroke-width="1.0" d="M 592.8812057861221, 105.0L608.5008845252574, 105.0"/>
<path fill="none" stroke="#000000" stroke-width="1.0" d="M 667.8322246541613, 105.0L683.5829365101353, 105.0"/>
<path fill="none" stroke="#000000" stroke-width="1.0" d="M 592.0645304753696, 111.0L609.1070546863077, 111.0"/>
<path fill="none" stroke="#000000" stroke-width="1.0" d="M 667.2392387461323, 111.0L683.9104787290786, 111.0"/>
<path fill="none" stroke="#000000" stroke-width="1.0" d="M 581.1009794805698, 117.0L616.2468843819211, 117.0"/>
<path fill="none" stroke="#000000" stroke-width="1.0" d="M 662.2794317542596, 117.0L687.4309244532836, 117.0"/>
<path fill="none" stroke="#000000" stroke-width="1.0" d="M 651.208163265306, 123.0L698.9244897959184, 123.0"/>
<path fill="none" stroke="#000000" stroke-width="1.0" d="M 749.4159999999999, 21.0L770.8787234042555, 21.0"/>
<path fill="none" stroke="#000000" stroke-width="1.0" d="M 760.5055824384228, 27.0L803.6872340425534, 27.0"/>
<path fill="none" stroke="#000000" stroke-width="1.0" d="M 761.9191082641337, 33.0L778.3476268088365, 33.0"/>
<path fill="none" stroke="#000000" stroke-width="1.0" d="M 801.2417810033821, 33.0L826.9783849488624, 33.0"/>
<path fill="none" stroke="#000000" stroke-width="1.0" d="M 761.1950421605947, 39.0L777.2332467532469, 39.0"/>
<path fill="none" stroke="#000000" stroke-width="1.0" d="M 815.097870324385, 39.0L826.2594628062337, 39.0"/>
<path fill="none" stroke="#000000" stroke-width="1.0" d="M 760.1112759643918, 45.0L776.1267532467533, 45.0"/>
<path fill="none" stroke="#000000" stroke-width="1.0" d="M 817.4379517910829, 45.0L825.5736741749126, 45.0"/>
<path fill="none" stroke="#000000" stroke-width="1.0" d="M 759.0074183976262, 51.0L775.0202597402599, 51.0"/>
<path fill="none" stroke="#000000" stroke-width="1.0" d="M 818.5595945904357, 51.0L824.9007814350139, 51.0"/>
<path fill="none" stroke="#000000" stroke-width="1.0" d="M 757.9035608308607, 57.0L773.9137662337663, 57.0"/>
<path fill="none" stroke="#000000" stroke-width="1.0" d="M 756.799703264095, 63.0L772.8072727272729, 63.0"/>
<path fill="none" stroke="#000000" stroke-width="1.0" d="M 755.6958456973293, 69.0L771.7007792207793, 69.0"/>
<path fill="none" stroke="#000000" stroke-width="1.0" d="M 806.7790039706317, 69.0L812.4890243902439, 69.0"/>
<path fill="none" stroke="#000000" stroke-width="1.0" d="M 754.5919881305639, 75.0L783.0620689655173, 75.0"/>
<path fill="none" stroke="#000000" stroke-width="1.0" d="M 803.3154460576761, 75.0L811.3914634146341, 75.0"/>
<path fill="none" stroke="#000000" stroke-width="1.0" d="M 753.4881305637982, 81.0L769.4628930817609, 81.0"/>
<path fill="none" stroke="#000000" stroke-width="1.0" d="M 776.9172413793104, 81.0L810.2939024390244, 81.0"/>
<path fill="none" stroke="#000000" stroke-width="1.0" d="M 752.3842729970328, 87.0L768.3685534591194, 87.0"/>
<path fill="none" stroke="#000000" stroke-width="1.0" d="M 799.2020104286031, 87.0L809.1963414634147, 87.0"/>
<path fill="none" stroke="#000000" stroke-width="1.0" d="M 751.2804154302671, 93.0L767.2742138364779, 93.0"/>
<path fill="none" stroke="#000000" stroke-width="1.0" d="M 801.5439582525818, 93.0L808.0987804878049, 93.0"/>
<path fill="none" stroke="#000000" stroke-width="1.0" d="M 750.1765578635016, 99.0L766.1798742138365, 99.0"/>
<path fill="none" stroke="#000000" stroke-width="1.0" d="M 801.7983406323061, 99.0L807.0012195121951, 99.0"/>
<path fill="none" stroke="#000000" stroke-width="1.0" d="M 749.072700296736, 105.0L765.085534591195, 105.0"/>
<path fill="none" stroke="#000000" stroke-width="1.0" d="M 747.9688568868985, 111.0L763.9911949685534, 111.0"/>
<path fill="none" stroke="#000000" stroke-width="1.0" d="M 746.5060744812426, 117.0L763.1207998704408, 117.0"/>
<path fill="none" stroke="#000000" stroke-width="1.0" d="M 816.0794332288017, 117.0L821.8631013218671, 117.0"/>
<path fill="none" stroke="#000000" stroke-width="1.0" d="M 728.1448979591837, 123.0L731.683308116193, 123.0"/>
<path fill="none" stroke="#000000" stroke-width="1.0" d="M 739.827214298514, 123.0L763.6283493992614, 123.0"/>
<path fill="none" stroke="#000000" stroke-width="1.0" d="M 811.7917542750511, 123.0L819.5457755327853, 123.0"/>
<path fill="none" stroke="#000000" stroke-width="1.0" d="M 734.9181818181819, 129.0L771.8671870853364, 129.0"/>
<path fill="none" stroke="#000000" stroke-width="1.0" d="M 806.289325354839, 129.0L817.1311178820442, 129.0"/>
<path fill="none" stroke="#000000" stroke-width="1.0" d="M 767.5675324675325, 135.0L814.6429893102313, 135.0"/>
<path fill="none" stroke="#000000" stroke-width="1.0" d="M 800.2168831168831, 141.0L812.0367308939879, 141.0"/>
<path fill="none" stroke="#000000" stroke-width="1.0" d="M 269.07727329588005, 261.0L276.4576852727854, 261.0"/>
<path fill="none" stroke="#000000" stroke-width="1.0" d="M 255.16175690276654, 267.0L281.375973572144, 267.0"/>
<path fill="none" stroke="#000000" stroke-width="1.0" d="M 247.00519241426662, 273.0L257.2256056125847, 273.0"/>
<path fill="none" stroke="#000000" stroke-width="1.0" d="M 274.0689004424474, 273.0L286.3594786294734, 273.0"/>
<path fill="none" stroke="#000000" stroke-width="1.0" d="M 241.59619427423434, 279.0L249.31367874875303, 279.0"/>
<path fill="none" stroke="#000000" stroke-width="1.0" d="M 283.2768453376303, 279.0L289.4473684210527, 279.0"/>
<path fill="none" stroke="#000000" stroke-width="1.0" d="M 238.0533579857098, 285.0L245.9735030443127, 285.0"/>
<path fill="none" stroke="#000000" stroke-width="1.0" d="M 235.98817638446928, 291.0L245.246497471349, 291.0"/>
<path fill="none" stroke="#000000" stroke-width="1.0" d="M 235.22243097590038, 297.0L246.61168396661714, 297.0"/>
<path fill="none" stroke="#000000" stroke-width="1.0" d="M 235.70809011855425, 303.0L250.18024486409797, 303.0"/>
<path fill="none" stroke="#000000" stroke-width="1.0" d="M 237.5140600383413, 309.0L258.5634314784426, 309.0"/>
<path fill="none" stroke="#000000" stroke-width="1.0" d="M 240.86970468206158, 315.0L316.95090804241715, 315.0"/>
<path fill="none" stroke="#000000" stroke-width="1.0" d="M 246.6378295494369, 321.0L323.1125040462855, 321.0"/>
<path fill="none" stroke="#000000" stroke-width="1.0" d="M 261.8337827940472, 327.0L281.1807131068578, 327.0"/>
<path fill="none" stroke="#000000" stroke-width="1.0" d="M 300.1795050269783, 327.0L326.69743817955924, 327.0"/>
<path fill="none" stroke="#000000" stroke-width="1.0" d="M 312.2362642294373, 333.0L328.7147409394369, 333.0"/>
<path fill="none" stroke="#000000" stroke-width="1.0" d="M 316.4056344771642, 339.0L329.4322944113001, 339.0"/>
<path fill="none" stroke="#000000" stroke-width="1.0" d="M 318.51802785504583, 345.0L328.9616281425181, 345.0"/>
<path fill="none" stroke="#000000" stroke-width="1.0" d="M 318.7119765853987, 351.0L327.31041469885633, 351.0"/>
<path fill="none" stroke="#000000" stroke-width="1.0" d="M 267.9769230769231, 357.0L269.9671789746246, 357.0"/>
<path fill="none" stroke="#000000" stroke-width="1.0" d="M 316.6755044420117, 357.0L324.38622067706723, 357.0"/>
<path fill="none" stroke="#000000" stroke-width="1.0" d="M 267.8421700008046, 363.0L277.85639994121175, 363.0"/>
<path fill="none" stroke="#000000" stroke-width="1.0" d="M 311.5046562900365, 363.0L319.958467443714, 363.0"/>
<path fill="none" stroke="#000000" stroke-width="1.0" d="M 272.93759383355194, 369.0L313.5340718706907, 369.0"/>
<path fill="none" stroke="#000000" stroke-width="1.0" d="M 278.2454420781892, 375.0L303.8426452815378, 375.0"/>
<path fill="none" stroke="#000000" stroke-width="1.0" d="M 377.55159525014983, 207.0L428.53750160656375, 207.0"/>
<path fill="none" stroke="#000000" stroke-width="1.0" d="M 367.2526147296622, 213.0L379.64284116382316, 213.0"/>
<path fill="none" stroke="#000000" stroke-width="1.0" d="M 410.4227737718037, 213.0L438.03276628103794, 213.0"/>
<path fill="none" stroke="#000000" stroke-width="1.0" d="M 360.18232237843245, 219.0L370.4979716120032, 219.0"/>
<path fill="none" stroke="#000000" stroke-width="1.0" d="M 420.1662787224442, 219.0L444.5109625513886, 219.0"/>
<path fill="none" stroke="#000000" stroke-width="1.0" d="M 354.9655571394401, 225.0L365.3498038906819, 225.0"/>
<path fill="none" stroke="#000000" stroke-width="1.0" d="M 426.445713816414, 225.0L449.3116188755977, 225.0"/>
<path fill="none" stroke="#000000" stroke-width="1.0" d="M 351.03227381706165, 231.0L362.0984582686886, 231.0"/>
<path fill="none" stroke="#000000" stroke-width="1.0" d="M 431.1572287205656, 231.0L452.96387592659426, 231.0"/>
<path fill="none" stroke="#000000" stroke-width="1.0" d="M 348.08523988957694, 237.0L360.10822038024213, 237.0"/>
<path fill="none" stroke="#000000" stroke-width="1.0" d="M 434.8892817289468, 237.0L455.7452652255658, 237.0"/>
<path fill="none" stroke="#000000" stroke-width="1.0" d="M 345.9507398268719, 243.0L359.08046705412994, 243.0"/>
<path fill="none" stroke="#000000" stroke-width="1.0" d="M 437.9212110363838, 243.0L457.85184223791197, 243.0"/>
<path fill="none" stroke="#000000" stroke-width="1.0" d="M 344.52155224829994, 249.0L358.8457069502907, 249.0"/>
<path fill="none" stroke="#000000" stroke-width="1.0" d="M 440.4132121922938, 249.0L459.39208691383993, 249.0"/>
<path fill="none" stroke="#000000" stroke-width="1.0" d="M 343.7311845704161, 255.0L359.29673304767414, 255.0"/>
<path fill="none" stroke="#000000" stroke-width="1.0" d="M 442.458316010358, 255.0L460.36252590792435, 255.0"/>
<path fill="none" stroke="#000000" stroke-width="1.0" d="M 343.5411548262982, 261.0L360.3608430662821, 261.0"/>
<path fill="none" stroke="#000000" stroke-width="1.0" d="M 444.01205786963055, 261.0L460.7514991849908, 261.0"/>
<path fill="none" stroke="#000000" stroke-width="1.0" d="M 343.93470556594093, 267.0L361.98633765312314, 267.0"/>
<path fill="none" stroke="#000000" stroke-width="1.0" d="M 445.0275898611079, 267.0L460.53798324483154, 267.0"/>
<path fill="none" stroke="#000000" stroke-width="1.0" d="M 344.9143223142196, 273.0L364.13072211594545, 273.0"/>
<path fill="none" stroke="#000000" stroke-width="1.0" d="M 445.44455531044315, 273.0L459.68878893337904, 273.0"/>
<path fill="none" stroke="#000000" stroke-width="1.0" d="M 346.5021481865568, 279.0L366.80595064690493, 279.0"/>
<path fill="none" stroke="#000000" stroke-width="1.0" d="M 445.178958413385, 279.0L458.1539518712498, 279.0"/>
<path fill="none" stroke="#000000" stroke-width="1.0" d="M 348.7406565376872, 285.0L370.1267714070118, 285.0"/>
<path fill="none" stroke="#000000" stroke-width="1.0" d="M 444.10736627830306, 285.0L455.8588487234939, 285.0"/>
<path fill="none" stroke="#000000" stroke-width="1.0" d="M 351.71589515947244, 291.0L374.2640473797395, 291.0"/>
<path fill="none" stroke="#000000" stroke-width="1.0" d="M 442.0337008786435, 291.0L452.6898516477176, 291.0"/>
<path fill="none" stroke="#000000" stroke-width="1.0" d="M 355.60299161652557, 297.0L379.5291538914839, 297.0"/>
<path fill="none" stroke="#000000" stroke-width="1.0" d="M 438.6066171377411, 297.0L448.4657644952855, 297.0"/>
<path fill="none" stroke="#000000" stroke-width="1.0" d="M 360.7009468962258, 303.0L386.6256907784248, 303.0"/>
<path fill="none" stroke="#000000" stroke-width="1.0" d="M 433.0463435875617, 303.0L442.87292100341966, 303.0"/>
<path fill="none" stroke="#000000" stroke-width="1.0" d="M 367.60745250427124, 309.0L398.3231588853933, 309.0"/>
<path fill="none" stroke="#000000" stroke-width="1.0" d="M 422.360948489413, 309.0L435.283602825972, 309.0"/>
<path fill="none" stroke="#000000" stroke-width="1.0" d="M 377.99016884570364, 315.0L424.0042406221612, 315.0"/>
<path fill="none" stroke="#000000" stroke-width="1.0" d="M 570.4959183673467, 165.0L609.5823529411765, 165.0"/>
<path fill="none" stroke="#000000" stroke-width="1.0" d="M 519.6666666666663, 171.0L535.1117647058825, 171.0"/>
<path fill="none" stroke="#000000" stroke-width="1.0" d="M 578.7394222080745, 171.0L597.5171218898381, 171.0"/>
<path fill="none" stroke="#000000" stroke-width="1.0" d="M 489.4823529411768, 177.0L525.5937869378996, 177.0"/>
<path fill="none" stroke="#000000" stroke-width="1.0" d="M 585.4888060814311, 177.0L595.7994394668924, 177.0"/>
<path fill="none" stroke="#000000" stroke-width="1.0" d="M 504.1382020696651, 183.0L522.0938543710042, 183.0"/>
<path fill="none" stroke="#000000" stroke-width="1.0" d="M 587.0311892247114, 183.0L595.9966394280472, 183.0"/>
<path fill="none" stroke="#000000" stroke-width="1.0" d="M 506.1459802187387, 189.0L522.2014361152486, 189.0"/>
<path fill="none" stroke="#000000" stroke-width="1.0" d="M 588.1791568477628, 189.0L596.3895510664463, 189.0"/>
<path fill="none" stroke="#000000" stroke-width="1.0" d="M 507.03894573926965, 195.0L522.8523437500003, 195.0"/>
<path fill="none" stroke="#000000" stroke-width="1.0" d="M 589.1058200620332, 195.0L596.9142309614064, 195.0"/>
<path fill="none" stroke="#000000" stroke-width="1.0" d="M 507.7547619047622, 201.0L523.5554687500003, 201.0"/>
<path fill="none" stroke="#000000" stroke-width="1.0" d="M 589.9063440886681, 201.0L597.5293458633494, 201.0"/>
<path fill="none" stroke="#000000" stroke-width="1.0" d="M 508.4690476190479, 207.0L524.2585937500003, 207.0"/>
<path fill="none" stroke="#000000" stroke-width="1.0" d="M 590.6333333333336, 207.0L598.2071942446044, 207.0"/>
<path fill="none" stroke="#000000" stroke-width="1.0" d="M 509.18333333333356, 213.0L524.9617187500003, 213.0"/>
<path fill="none" stroke="#000000" stroke-width="1.0" d="M 591.3606060606063, 213.0L598.8978417266187, 213.0"/>
<path fill="none" stroke="#000000" stroke-width="1.0" d="M 509.89761904761934, 219.0L525.6648437500003, 219.0"/>
<path fill="none" stroke="#000000" stroke-width="1.0" d="M 592.087878787879, 219.0L599.5884892086332, 219.0"/>
<path fill="none" stroke="#000000" stroke-width="1.0" d="M 510.61190476190507, 225.0L526.3679687500003, 225.0"/>
<path fill="none" stroke="#000000" stroke-width="1.0" d="M 592.6551017915824, 225.0L600.2005587397297, 225.0"/>
<path fill="none" stroke="#000000" stroke-width="1.0" d="M 511.32619047619073, 231.0L527.0710937500003, 231.0"/>
<path fill="none" stroke="#000000" stroke-width="1.0" d="M 592.9259611039483, 231.0L600.5588693788748, 231.0"/>
<path fill="none" stroke="#000000" stroke-width="1.0" d="M 512.0404761904765, 237.0L527.9050788385298, 237.0"/>
<path fill="none" stroke="#000000" stroke-width="1.0" d="M 592.8307237077609, 237.0L600.5901834395985, 237.0"/>
<path fill="none" stroke="#000000" stroke-width="1.0" d="M 512.8981028187891, 243.0L529.1621227262231, 243.0"/>
<path fill="none" stroke="#000000" stroke-width="1.0" d="M 592.2675062836402, 243.0L600.199023530705, 243.0"/>
<path fill="none" stroke="#000000" stroke-width="1.0" d="M 514.1160387901796, 249.0L530.9756614177385, 249.0"/>
<path fill="none" stroke="#000000" stroke-width="1.0" d="M 591.0781894967595, 249.0L599.2576021009295, 249.0"/>
<path fill="none" stroke="#000000" stroke-width="1.0" d="M 515.8205954436309, 255.0L533.5654926099313, 255.0"/>
<path fill="none" stroke="#000000" stroke-width="1.0" d="M 588.9917639372546, 255.0L597.590704363863, 255.0"/>
<path fill="none" stroke="#000000" stroke-width="1.0" d="M 518.218588229079, 261.0L537.3724153657856, 261.0"/>
<path fill="none" stroke="#000000" stroke-width="1.0" d="M 585.4627070747757, 261.0L594.9508663320969, 261.0"/>
<path fill="none" stroke="#000000" stroke-width="1.0" d="M 521.6865021114186, 267.0L543.6182695026091, 267.0"/>
<path fill="none" stroke="#000000" stroke-width="1.0" d="M 578.9762921679899, 267.0L590.9856185358345, 267.0"/>
<path fill="none" stroke="#000000" stroke-width="1.0" d="M 527.0479272851644, 273.0L584.890726120993, 273.0"/>
<path fill="none" stroke="#000000" stroke-width="1.0" d="M 536.6851847041426, 279.0L573.9167004303351, 279.0"/>
<path fill="none" stroke="#000000" stroke-width="1.0" d="M 657.258823529412, 165.0L685.1968152866243, 165.0"/>
<path fill="none" stroke="#000000" stroke-width="1.0" d="M 669.8963334635246, 171.0L689.1840764331212, 171.0"/>
<path fill="none" stroke="#000000" stroke-width="1.0" d="M 738.8823529411768, 171.0L747.4285714285716, 171.0"/>
<path fill="none" stroke="#000000" stroke-width="1.0" d="M 673.6891037961782, 177.0L693.171337579618, 177.0"/>
<path fill="none" stroke="#000000" stroke-width="1.0" d="M 746.4418433428457, 177.0L780.0576923076924, 177.0"/>
<path fill="none" stroke="#000000" stroke-width="1.0" d="M 674.1739472785763, 183.0L697.1585987261149, 183.0"/>
<path fill="none" stroke="#000000" stroke-width="1.0" d="M 753.7276626344608, 183.0L766.5616766323285, 183.0"/>
<path fill="none" stroke="#000000" stroke-width="1.0" d="M 673.6055110181801, 189.0L681.0964788732394, 189.0"/>
<path fill="none" stroke="#000000" stroke-width="1.0" d="M 682.7040526849038, 189.0L701.1458598726115, 189.0"/>
<path fill="none" stroke="#000000" stroke-width="1.0" d="M 754.374102063704, 189.0L763.8366878242593, 189.0"/>
<path fill="none" stroke="#000000" stroke-width="1.0" d="M 672.9000000000001, 195.0L680.3781690140845, 195.0"/>
<path fill="none" stroke="#000000" stroke-width="1.0" d="M 686.6007092198582, 195.0L705.1331210191084, 195.0"/>
<path fill="none" stroke="#000000" stroke-width="1.0" d="M 754.1528184016922, 195.0L762.660337051308, 195.0"/>
<path fill="none" stroke="#000000" stroke-width="1.0" d="M 672.194117647059, 201.0L679.6598591549297, 201.0"/>
<path fill="none" stroke="#000000" stroke-width="1.0" d="M 690.4973657548126, 201.0L709.1203821656053, 201.0"/>
<path fill="none" stroke="#000000" stroke-width="1.0" d="M 753.7617563682054, 201.0L761.6606305182385, 201.0"/>
<path fill="none" stroke="#000000" stroke-width="1.0" d="M 671.4882352941177, 207.0L678.9415492957746, 207.0"/>
<path fill="none" stroke="#000000" stroke-width="1.0" d="M 694.394022289767, 207.0L713.107643312102, 207.0"/>
<path fill="none" stroke="#000000" stroke-width="1.0" d="M 753.2353174565982, 207.0L760.7953574165299, 207.0"/>
<path fill="none" stroke="#000000" stroke-width="1.0" d="M 670.7823529411767, 213.0L678.2232394366198, 213.0"/>
<path fill="none" stroke="#000000" stroke-width="1.0" d="M 698.2906788247215, 213.0L717.094904458599, 213.0"/>
<path fill="none" stroke="#000000" stroke-width="1.0" d="M 752.605704571477, 213.0L760.0272934037233, 213.0"/>
<path fill="none" stroke="#000000" stroke-width="1.0" d="M 670.0764705882353, 219.0L677.5049295774647, 219.0"/>
<path fill="none" stroke="#000000" stroke-width="1.0" d="M 702.1873353596759, 219.0L721.0821656050956, 219.0"/>
<path fill="none" stroke="#000000" stroke-width="1.0" d="M 751.9033898305087, 219.0L759.3222543352603, 219.0"/>
<path fill="none" stroke="#000000" stroke-width="1.0" d="M 669.3705882352941, 225.0L676.7866197183099, 225.0"/>
<path fill="none" stroke="#000000" stroke-width="1.0" d="M 706.0839918946301, 225.0L725.0694267515925, 225.0"/>
<path fill="none" stroke="#000000" stroke-width="1.0" d="M 751.1915254237289, 225.0L758.6112716763007, 225.0"/>
<path fill="none" stroke="#000000" stroke-width="1.0" d="M 668.6556186972277, 231.0L676.0678616069421, 231.0"/>
<path fill="none" stroke="#000000" stroke-width="1.0" d="M 709.9806484295847, 231.0L729.0566878980894, 231.0"/>
<path fill="none" stroke="#000000" stroke-width="1.0" d="M 750.4796610169494, 231.0L757.9002890173413, 231.0"/>
<path fill="none" stroke="#000000" stroke-width="1.0" d="M 667.8902903265505, 237.0L675.3851074456435, 237.0"/>
<path fill="none" stroke="#000000" stroke-width="1.0" d="M 713.8773049645391, 237.0L733.0439490445862, 237.0"/>
<path fill="none" stroke="#000000" stroke-width="1.0" d="M 749.7677966101696, 237.0L757.1893063583816, 237.0"/>
<path fill="none" stroke="#000000" stroke-width="1.0" d="M 667.0623619882467, 243.0L674.7799405907123, 243.0"/>
<path fill="none" stroke="#000000" stroke-width="1.0" d="M 717.7739614994935, 243.0L737.031210191083, 243.0"/>
<path fill="none" stroke="#000000" stroke-width="1.0" d="M 749.0559322033901, 243.0L756.4783236994222, 243.0"/>
<path fill="none" stroke="#000000" stroke-width="1.0" d="M 666.142727288496, 249.0L674.2787209603644, 249.0"/>
<path fill="none" stroke="#000000" stroke-width="1.0" d="M 721.6706180344479, 249.0L741.0184713375796, 249.0"/>
<path fill="none" stroke="#000000" stroke-width="1.0" d="M 748.3440677966104, 249.0L755.7673410404625, 249.0"/>
<path fill="none" stroke="#000000" stroke-width="1.0" d="M 665.0785297952202, 255.0L673.9239502808974, 255.0"/>
<path fill="none" stroke="#000000" stroke-width="1.0" d="M 725.5672745694022, 255.0L745.0057324840766, 255.0"/>
<path fill="none" stroke="#000000" stroke-width="1.0" d="M 747.6322033898307, 255.0L755.056358381503, 255.0"/>
<path fill="none" stroke="#000000" stroke-width="1.0" d="M 663.5575692310335, 261.0L673.8772180327495, 261.0"/>
<path fill="none" stroke="#000000" stroke-width="1.0" d="M 729.4639311043567, 261.0L754.3453757225434, 261.0"/>
<path fill="none" stroke="#000000" stroke-width="1.0" d="M 657.5750880235786, 267.0L675.8572440607221, 267.0"/>
<path fill="none" stroke="#000000" stroke-width="1.0" d="M 733.3605876393112, 267.0L753.634393063584, 267.0"/>
<path fill="none" stroke="#000000" stroke-width="1.0" d="M 650.6714285714288, 273.0L689.1510204081632, 273.0"/>
<path fill="none" stroke="#000000" stroke-width="1.0" d="M 737.2572441742655, 273.0L752.9234104046243, 273.0"/>
<path fill="none" stroke="#000000" stroke-width="1.0" d="M 741.1539007092199, 279.0L752.2124277456649, 279.0"/>
<path fill="none" stroke="#000000" stroke-width="1.0" d="M 745.0505572441743, 285.0L751.5014450867054, 285.0"/>
<path fill="none" stroke="#000000" stroke-width="1.0" d="M 832.1625, 189.0L834.8949152542373, 189.0"/>
<path fill="none" stroke="#000000" stroke-width="1.0" d="M 835.0622375012917, 195.0L850.8610169491525, 195.0"/>
<path fill="none" stroke="#000000" stroke-width="1.0" d="M 841.6102475841305, 201.0L866.8271186440679, 201.0"/>
<path fill="none" stroke="#000000" stroke-width="1.0" d="M 841.1816239398837, 207.0L882.7141221127986, 207.0"/>
<path fill="none" stroke="#000000" stroke-width="1.0" d="M 839.1973820638416, 213.0L855.9981399405444, 213.0"/>
<path fill="none" stroke="#000000" stroke-width="1.0" d="M 880.9392668831531, 213.0L895.6494660357305, 213.0"/>
<path fill="none" stroke="#000000" stroke-width="1.0" d="M 836.9520123839009, 219.0L853.6772455089822, 219.0"/>
<path fill="none" stroke="#000000" stroke-width="1.0" d="M 890.9496351769506, 219.0L905.1475869498714, 219.0"/>
<path fill="none" stroke="#000000" stroke-width="1.0" d="M 834.704334365325, 225.0L851.4317365269463, 225.0"/>
<path fill="none" stroke="#000000" stroke-width="1.0" d="M 897.5177151081307, 225.0L912.1249146871749, 225.0"/>
<path fill="none" stroke="#000000" stroke-width="1.0" d="M 832.4566563467492, 231.0L849.1862275449105, 231.0"/>
<path fill="none" stroke="#000000" stroke-width="1.0" d="M 901.9977994441815, 231.0L917.1878849194479, 231.0"/>
<path fill="none" stroke="#000000" stroke-width="1.0" d="M 830.2089783281734, 237.0L846.9407185628744, 237.0"/>
<path fill="none" stroke="#000000" stroke-width="1.0" d="M 905.0501402435697, 237.0L920.7551408630882, 237.0"/>
<path fill="none" stroke="#000000" stroke-width="1.0" d="M 827.9613003095974, 243.0L844.6952095808384, 243.0"/>
<path fill="none" stroke="#000000" stroke-width="1.0" d="M 906.937094747724, 243.0L923.2381520959997, 243.0"/>
<path fill="none" stroke="#000000" stroke-width="1.0" d="M 825.7136222910217, 249.0L842.4497005988027, 249.0"/>
<path fill="none" stroke="#000000" stroke-width="1.0" d="M 907.8744650782633, 249.0L924.7766795129676, 249.0"/>
<path fill="none" stroke="#000000" stroke-width="1.0" d="M 823.4659442724457, 255.0L840.2041916167666, 255.0"/>
<path fill="none" stroke="#000000" stroke-width="1.0" d="M 907.9990877332615, 255.0L925.4960491384272, 255.0"/>
<path fill="none" stroke="#000000" stroke-width="1.0" d="M 821.2182662538698, 261.0L837.9586826347305, 261.0"/>
<path fill="none" stroke="#000000" stroke-width="1.0" d="M 907.4006679018885, 261.0L925.470093615111, 261.0"/>
<path fill="none" stroke="#000000" stroke-width="1.0" d="M 818.970588235294, 267.0L835.7131736526946, 267.0"/>
<path fill="none" stroke="#000000" stroke-width="1.0" d="M 906.1379974136028, 267.0L924.7404571460181, 267.0"/>
<path fill="none" stroke="#000000" stroke-width="1.0" d="M 816.7229102167182, 273.0L833.4676646706587, 273.0"/>
<path fill="none" stroke="#000000" stroke-width="1.0" d="M 904.2477648537438, 273.0L923.328134456515, 273.0"/>
<path fill="none" stroke="#000000" stroke-width="1.0" d="M 814.4744449510451, 279.0L831.2221556886228, 279.0"/>
<path fill="none" stroke="#000000" stroke-width="1.0" d="M 901.7242908328988, 279.0L921.2421332233068, 279.0"/>
<path fill="none" stroke="#000000" stroke-width="1.0" d="M 811.954418394961, 285.0L829.0367063366598, 285.0"/>
<path fill="none" stroke="#000000" stroke-width="1.0" d="M 898.4772219778835, 285.0L918.5033870439165, 285.0"/>
<path fill="none" stroke="#000000" stroke-width="1.0" d="M 792.1555555555556, 291.0L827.9380688069155, 291.0"/>
<path fill="none" stroke="#000000" stroke-width="1.0" d="M 894.2838415922255, 291.0L914.9764441234299, 291.0"/>
<path fill="none" stroke="#000000" stroke-width="1.0" d="M 802.1114093959732, 297.0L829.481266357639, 297.0"/>
<path fill="none" stroke="#000000" stroke-width="1.0" d="M 888.6910072009864, 297.0L910.381572902294, 297.0"/>
<path fill="none" stroke="#000000" stroke-width="1.0" d="M 818.1785234899327, 303.0L837.1135387387635, 303.0"/>
<path fill="none" stroke="#000000" stroke-width="1.0" d="M 880.4684578443437, 303.0L904.1877957383147, 303.0"/>
<path fill="none" stroke="#000000" stroke-width="1.0" d="M 834.3046657841295, 309.0L895.0782096308018, 309.0"/>
<path fill="none" stroke="#000000" stroke-width="1.0" d="M 859.8238687421037, 315.0L874.8458052556651, 315.0"/>
<path fill="none" stroke="#000000" stroke-width="1.0" d="M 994.1791445249202, 267.0L1007.1115102713402, 267.0"/>
<path fill="none" stroke="#000000" stroke-width="1.0" d="M 981.5228849204648, 273.0L1022.0775094236961, 273.0"/>
<path fill="none" stroke="#000000" stroke-width="1.0" d="M 975.9667976960442, 279.0L993.4347848798857, 279.0"/>
<path fill="none" stroke="#000000" stroke-width="1.0" d="M 1019.43713561737, 279.0L1030.0588500192107, 279.0"/>
<path fill="none" stroke="#000000" stroke-width="1.0" d="M 972.6931271521677, 285.0L989.219459415224, 285.0"/>
<path fill="none" stroke="#000000" stroke-width="1.0" d="M 1024.3017582638804, 285.0L1036.0185446922746, 285.0"/>
<path fill="none" stroke="#000000" stroke-width="1.0" d="M 971.0320476022182, 291.0L987.3518205574383, 291.0"/>
<path fill="none" stroke="#000000" stroke-width="1.0" d="M 1026.1644664150228, 291.0L1037.9142362635932, 291.0"/>
<path fill="none" stroke="#000000" stroke-width="1.0" d="M 970.738502220569, 297.0L987.4573335709846, 297.0"/>
<path fill="none" stroke="#000000" stroke-width="1.0" d="M 1026.3283999308162, 297.0L1035.1577923300497, 297.0"/>
<path fill="none" stroke="#000000" stroke-width="1.0" d="M 971.6128105270292, 303.0L989.1382863822917, 303.0"/>
<path fill="none" stroke="#000000" stroke-width="1.0" d="M 1025.4272579806084, 303.0L1032.4111580638837, 303.0"/>
<path fill="none" stroke="#000000" stroke-width="1.0" d="M 973.4733598166733, 309.0L991.9040484458164, 309.0"/>
<path fill="none" stroke="#000000" stroke-width="1.0" d="M 1024.2125, 309.0L1029.6107064920652, 309.0"/>
<path fill="none" stroke="#000000" stroke-width="1.0" d="M 976.1373990136794, 315.0L995.3153248813751, 315.0"/>
<path fill="none" stroke="#000000" stroke-width="1.0" d="M 979.3900049294778, 321.0L998.8521411882169, 321.0"/>
<path fill="none" stroke="#000000" stroke-width="1.0" d="M 942.5766880510671, 327.0L948.7168698531852, 327.0"/>
<path fill="none" stroke="#000000" stroke-width="1.0" d="M 982.8765617893613, 327.0L1002.0975231557306, 327.0"/>
<path fill="none" stroke="#000000" stroke-width="1.0" d="M 939.9102325285855, 333.0L947.3424223848765, 333.0"/>
<path fill="none" stroke="#000000" stroke-width="1.0" d="M 986.0517798930512, 333.0L1004.7801370029239, 333.0"/>
<path fill="none" stroke="#000000" stroke-width="1.0" d="M 937.3572963081231, 339.0L946.6726382946658, 339.0"/>
<path fill="none" stroke="#000000" stroke-width="1.0" d="M 988.550854384375, 339.0L1006.6559768544223, 339.0"/>
<path fill="none" stroke="#000000" stroke-width="1.0" d="M 934.9500783871704, 345.0L946.8065143174189, 345.0"/>
<path fill="none" stroke="#000000" stroke-width="1.0" d="M 989.9357836353561, 345.0L1007.5053408485579, 345.0"/>
<path fill="none" stroke="#000000" stroke-width="1.0" d="M 934.6563620186383, 351.0L947.9695374875142, 351.0"/>
<path fill="none" stroke="#000000" stroke-width="1.0" d="M 989.7398583493905, 351.0L1007.1239842941609, 351.0"/>
<path fill="none" stroke="#000000" stroke-width="1.0" d="M 939.3663957675325, 357.0L950.6179495815112, 357.0"/>
<path fill="none" stroke="#000000" stroke-width="1.0" d="M 987.5609403913636, 357.0L1005.3165020470419, 357.0"/>
<path fill="none" stroke="#000000" stroke-width="1.0" d="M 945.1762567544026, 363.0L955.8508408831668, 363.0"/>
<path fill="none" stroke="#000000" stroke-width="1.0" d="M 983.1251124306357, 363.0L1001.8822142296383, 363.0"/>
<path fill="none" stroke="#000000" stroke-width="1.0" d="M 953.4444762487242, 369.0L996.1281872407951, 369.0"/>
<path fill="none" stroke="#000000" stroke-width="1.0" d="M 968.881338568199, 375.0L983.0910199333354, 375.0"/>
<path fill="none" stroke="#000000" stroke-width="1.0" d="M 347.2253012048193, 579.0L349.9995011690227, 579.0"/>
<path fill="none" stroke="#000000" stroke-width="1.0" d="M 341.8036144578314, 585.0L357.5641075363833, 585.0"/>
<path fill="none" stroke="#000000" stroke-width="1.0" d="M 336.3819277108434, 591.0L365.2375303506882, 591.0"/>
<path fill="none" stroke="#000000" stroke-width="1.0" d="M 330.9602409638554, 597.0L339.86810989583364, 597.0"/>
<path fill="none" stroke="#000000" stroke-width="1.0" d="M 363.8797841786794, 597.0L365.67727272727274, 597.0"/>
<path fill="none" stroke="#000000" stroke-width="1.0" d="M 325.5385542168675, 603.0L333.9662051543051, 603.0"/>
<path fill="none" stroke="#000000" stroke-width="1.0" d="M 320.11686746987954, 609.0L328.525, 609.0"/>
<path fill="none" stroke="#000000" stroke-width="1.0" d="M 371.31052631578945, 609.0L371.5107142857143, 609.0"/>
<path fill="none" stroke="#000000" stroke-width="1.0" d="M 314.69518072289156, 615.0L323.18403141675003, 615.0"/>
<path fill="none" stroke="#000000" stroke-width="1.0" d="M 369.7031368188668, 615.0L378.15357142857147, 615.0"/>
<path fill="none" stroke="#000000" stroke-width="1.0" d="M 309.27349397590365, 621.0L324.7913139338597, 621.0"/>
<path fill="none" stroke="#000000" stroke-width="1.0" d="M 372.91834250138004, 621.0L384.7964285714286, 621.0"/>
<path fill="none" stroke="#000000" stroke-width="1.0" d="M 303.8518072289157, 627.0L331.42813688212925, 627.0"/>
<path fill="none" stroke="#000000" stroke-width="1.0" d="M 371.6363227304429, 627.0L391.4392857142858, 627.0"/>
<path fill="none" stroke="#000000" stroke-width="1.0" d="M 298.4301204819277, 633.0L307.17004189769006, 633.0"/>
<path fill="none" stroke="#000000" stroke-width="1.0" d="M 313.81812250154735, 633.0L338.0669201520913, 633.0"/>
<path fill="none" stroke="#000000" stroke-width="1.0" d="M 367.03801728514566, 633.0L377.20359878474653, 633.0"/>
<path fill="none" stroke="#000000" stroke-width="1.0" d="M 389.233375700282, 633.0L394.678947368421, 633.0"/>
<path fill="none" stroke="#000000" stroke-width="1.0" d="M 415.5593516252404, 633.0L422.91312962500325, 633.0"/>
<path fill="none" stroke="#000000" stroke-width="1.0" d="M 299.47647058823526, 639.0L299.91088052499623, 639.0"/>
<path fill="none" stroke="#000000" stroke-width="1.0" d="M 321.62249446521525, 639.0L344.70570342205326, 639.0"/>
<path fill="none" stroke="#000000" stroke-width="1.0" d="M 361.63000000000005, 639.0L371.1981358359544, 639.0"/>
<path fill="none" stroke="#000000" stroke-width="1.0" d="M 418.07235074776975, 639.0L427.3116499461827, 639.0"/>
<path fill="none" stroke="#000000" stroke-width="1.0" d="M 328.2657952069716, 645.0L351.34448669201527, 645.0"/>
<path fill="none" stroke="#000000" stroke-width="1.0" d="M 356.18000000000006, 645.0L365.75454545454545, 645.0"/>
<path fill="none" stroke="#000000" stroke-width="1.0" d="M 419.8968559467102, 645.0L431.59625632393625, 645.0"/>
<path fill="none" stroke="#000000" stroke-width="1.0" d="M 334.9063180827886, 651.0L360.3, 651.0"/>
<path fill="none" stroke="#000000" stroke-width="1.0" d="M 420.5672220843037, 651.0L433.90617088607587, 651.0"/>
<path fill="none" stroke="#000000" stroke-width="1.0" d="M 341.54684095860557, 657.0L364.7193548387098, 657.0"/>
<path fill="none" stroke="#000000" stroke-width="1.0" d="M 418.674567547434, 657.0L428.48528481012653, 657.0"/>
<path fill="none" stroke="#000000" stroke-width="1.0" d="M 348.18736383442257, 663.0L371.35529953917063, 663.0"/>
<path fill="none" stroke="#000000" stroke-width="1.0" d="M 414.57295159510306, 663.0L423.06439873417713, 663.0"/>
<path fill="none" stroke="#000000" stroke-width="1.0" d="M 354.8278867102396, 669.0L377.99124423963144, 669.0"/>
<path fill="none" stroke="#000000" stroke-width="1.0" d="M 409.37594621860444, 669.0L417.64351265822785, 669.0"/>
<path fill="none" stroke="#000000" stroke-width="1.0" d="M 361.4684095860566, 675.0L384.65849222959673, 675.0"/>
<path fill="none" stroke="#000000" stroke-width="1.0" d="M 403.66486999120457, 675.0L412.22262658227845, 675.0"/>
<path fill="none" stroke="#000000" stroke-width="1.0" d="M 368.1089324618736, 681.0L406.80174050632905, 681.0"/>
<path fill="none" stroke="#000000" stroke-width="1.0" d="M 374.72903191680314, 687.0L401.3808544303797, 687.0"/>
<path fill="none" stroke="#000000" stroke-width="1.0" d="M 380.1098661019006, 693.0L395.9599683544304, 693.0"/>
<path fill="none" stroke="#000000" stroke-width="1.0" d="M 380.85361933377226, 699.0L390.539082278481, 699.0"/>
<path fill="none" stroke="#000000" stroke-width="1.0" d="M 377.6058336002019, 705.0L385.11819620253164, 705.0"/>
<path fill="none" stroke="#000000" stroke-width="1.0" d="M 375.4454545454545, 711.0L379.6973101265823, 711.0"/>
<path fill="none" stroke="#000000" stroke-width="1.0" d="M 455.4804102564102, 507.0L465.2425812157493, 507.0"/>
<path fill="none" stroke="#000000" stroke-width="1.0" d="M 455.8250256410256, 513.0L471.28477917338284, 513.0"/>
<path fill="none" stroke="#000000" stroke-width="1.0" d="M 456.16964102564106, 519.0L477.32206077789886, 519.0"/>
<path fill="none" stroke="#000000" stroke-width="1.0" d="M 456.5142564102564, 525.0L483.35691646497673, 525.0"/>
<path fill="none" stroke="#000000" stroke-width="1.0" d="M 456.85887179487173, 531.0L463.0909886658327, 531.0"/>
<path fill="none" stroke="#000000" stroke-width="1.0" d="M 467.76948640483386, 531.0L489.3917421797577, 531.0"/>
<path fill="none" stroke="#000000" stroke-width="1.0" d="M 457.2034871794872, 537.0L463.5136800057386, 537.0"/>
<path fill="none" stroke="#000000" stroke-width="1.0" d="M 473.6063444108761, 537.0L495.4288851558704, 537.0"/>
<path fill="none" stroke="#000000" stroke-width="1.0" d="M 457.5481025641025, 543.0L463.9829016086054, 543.0"/>
<path fill="none" stroke="#000000" stroke-width="1.0" d="M 479.4432024169183, 543.0L501.47068655991785, 543.0"/>
<path fill="none" stroke="#000000" stroke-width="1.0" d="M 457.892717948718, 549.0L464.48722499672095, 549.0"/>
<path fill="none" stroke="#000000" stroke-width="1.0" d="M 485.2800604229607, 549.0L507.51952322799906, 549.0"/>
<path fill="none" stroke="#000000" stroke-width="1.0" d="M 458.2373333333333, 555.0L465.01534173726725, 555.0"/>
<path fill="none" stroke="#000000" stroke-width="1.0" d="M 491.1169184290029, 555.0L513.5778506015067, 555.0"/>
<path fill="none" stroke="#000000" stroke-width="1.0" d="M 458.5819487179487, 561.0L465.55582238599357, 561.0"/>
<path fill="none" stroke="#000000" stroke-width="1.0" d="M 491.6589552238807, 561.0L519.6482490624081, 561.0"/>
<path fill="none" stroke="#000000" stroke-width="1.0" d="M 458.92656410256404, 567.0L466.0968583428087, 567.0"/>
<path fill="none" stroke="#000000" stroke-width="1.0" d="M 478.80820895522396, 567.0L495.9106918238994, 567.0"/>
<path fill="none" stroke="#000000" stroke-width="1.0" d="M 503.0729998377184, 567.0L525.7334761865243, 567.0"/>
<path fill="none" stroke="#000000" stroke-width="1.0" d="M 459.2711794871795, 573.0L483.1559748427673, 573.0"/>
<path fill="none" stroke="#000000" stroke-width="1.0" d="M 509.00971559524356, 573.0L531.8307291347301, 573.0"/>
<path fill="none" stroke="#000000" stroke-width="1.0" d="M 459.61579487179483, 579.0L470.40125786163526, 579.0"/>
<path fill="none" stroke="#000000" stroke-width="1.0" d="M 514.912121760421, 579.0L538.996542028689, 579.0"/>
<path fill="none" stroke="#000000" stroke-width="1.0" d="M 459.9604102564103, 585.0L467.4741724429691, 585.0"/>
<path fill="none" stroke="#000000" stroke-width="1.0" d="M 520.693851267491, 585.0L553.7235294117646, 585.0"/>
<path fill="none" stroke="#000000" stroke-width="1.0" d="M 460.3050256410256, 591.0L468.13923227483764, 591.0"/>
<path fill="none" stroke="#000000" stroke-width="1.0" d="M 523.037987442587, 591.0L541.0176470588235, 591.0"/>
<path fill="none" stroke="#000000" stroke-width="1.0" d="M 460.64964102564096, 597.0L468.8458632248425, 597.0"/>
<path fill="none" stroke="#000000" stroke-width="1.0" d="M 516.2671912293121, 597.0L528.3117647058823, 597.0"/>
<path fill="none" stroke="#000000" stroke-width="1.0" d="M 460.99425641025647, 603.0L469.6182554808802, 603.0"/>
<path fill="none" stroke="#000000" stroke-width="1.0" d="M 461.14397934604483, 609.0L470.44218454127974, 609.0"/>
<path fill="none" stroke="#000000" stroke-width="1.0" d="M 460.79029478383853, 615.0L487.0866666666667, 615.0"/>
<path fill="none" stroke="#000000" stroke-width="1.0" d="M 458.68301320662613, 621.0L477.1085889570553, 621.0"/>
<path fill="none" stroke="#000000" stroke-width="1.0" d="M 451.94316588542483, 627.0L464.2619631901841, 627.0"/>
<path fill="none" stroke="#000000" stroke-width="1.0" d="M 576.056862745098, 471.0L646.0462724993948, 471.0"/>
<path fill="none" stroke="#000000" stroke-width="1.0" d="M 589.5121804368365, 477.0L607.1089279278765, 477.0"/>
<path fill="none" stroke="#000000" stroke-width="1.0" d="M 633.3045859990418, 477.0L654.0554251536524, 477.0"/>
<path fill="none" stroke="#000000" stroke-width="1.0" d="M 591.1538148633998, 483.0L606.711737089202, 483.0"/>
<path fill="none" stroke="#000000" stroke-width="1.0" d="M 639.366503447176, 483.0L657.9826296275266, 483.0"/>
<path fill="none" stroke="#000000" stroke-width="1.0" d="M 591.4887077289862, 489.0L606.8525821596245, 489.0"/>
<path fill="none" stroke="#000000" stroke-width="1.0" d="M 642.1394340984658, 489.0L659.9397789359825, 489.0"/>
<path fill="none" stroke="#000000" stroke-width="1.0" d="M 591.6377713458754, 495.0L606.993427230047, 495.0"/>
<path fill="none" stroke="#000000" stroke-width="1.0" d="M 643.3175213083141, 495.0L660.6048165388335, 495.0"/>
<path fill="none" stroke="#000000" stroke-width="1.0" d="M 591.7853835021707, 501.0L607.1342723004695, 501.0"/>
<path fill="none" stroke="#000000" stroke-width="1.0" d="M 643.4910132855246, 501.0L660.157856500261, 501.0"/>
<path fill="none" stroke="#000000" stroke-width="1.0" d="M 591.9329956584659, 507.0L607.2751173708921, 507.0"/>
<path fill="none" stroke="#000000" stroke-width="1.0" d="M 642.7022778490661, 507.0L658.3584781913612, 507.0"/>
<path fill="none" stroke="#000000" stroke-width="1.0" d="M 592.0806078147612, 513.0L607.4159624413146, 513.0"/>
<path fill="none" stroke="#000000" stroke-width="1.0" d="M 640.358816317545, 513.0L654.7637492431546, 513.0"/>
<path fill="none" stroke="#000000" stroke-width="1.0" d="M 592.2282199710563, 519.0L607.5568075117371, 519.0"/>
<path fill="none" stroke="#000000" stroke-width="1.0" d="M 635.4000855675005, 519.0L648.5861470180043, 519.0"/>
<path fill="none" stroke="#000000" stroke-width="1.0" d="M 592.3758321273515, 525.0L607.6976525821597, 525.0"/>
<path fill="none" stroke="#000000" stroke-width="1.0" d="M 615.7, 525.0L639.2264288318265, 525.0"/>
<path fill="none" stroke="#000000" stroke-width="1.0" d="M 592.5234442836469, 531.0L607.8025735294117, 531.0"/>
<path fill="none" stroke="#000000" stroke-width="1.0" d="M 618.3418388842726, 531.0L642.879179997949, 531.0"/>
<path fill="none" stroke="#000000" stroke-width="1.0" d="M 592.671056439942, 537.0L607.9569852941177, 537.0"/>
<path fill="none" stroke="#000000" stroke-width="1.0" d="M 628.0343898664917, 537.0L646.7640873331183, 537.0"/>
<path fill="none" stroke="#000000" stroke-width="1.0" d="M 592.8186685962373, 543.0L608.1113970588235, 543.0"/>
<path fill="none" stroke="#000000" stroke-width="1.0" d="M 631.8490998566217, 543.0L650.7741027223354, 543.0"/>
<path fill="none" stroke="#000000" stroke-width="1.0" d="M 592.9662807525325, 549.0L608.2658088235295, 549.0"/>
<path fill="none" stroke="#000000" stroke-width="1.0" d="M 635.6610831551549, 549.0L654.8909690998975, 549.0"/>
<path fill="none" stroke="#000000" stroke-width="1.0" d="M 593.1138929088278, 555.0L608.4202205882353, 555.0"/>
<path fill="none" stroke="#000000" stroke-width="1.0" d="M 639.5715127666487, 555.0L659.3601923664877, 555.0"/>
<path fill="none" stroke="#000000" stroke-width="1.0" d="M 593.2323799754774, 561.0L608.6064449480926, 561.0"/>
<path fill="none" stroke="#000000" stroke-width="1.0" d="M 643.6795171688734, 561.0L664.0311736861128, 561.0"/>
<path fill="none" stroke="#000000" stroke-width="1.0" d="M 592.9262534730749, 567.0L609.2548713950584, 567.0"/>
<path fill="none" stroke="#000000" stroke-width="1.0" d="M 648.1384705939347, 567.0L669.4915477050208, 567.0"/>
<path fill="none" stroke="#000000" stroke-width="1.0" d="M 589.6938109836988, 573.0L613.8207435972845, 573.0"/>
<path fill="none" stroke="#000000" stroke-width="1.0" d="M 654.0253101395292, 573.0L677.1094697109376, 573.0"/>
<path fill="none" stroke="#000000" stroke-width="1.0" d="M 577.9673469387756, 579.0L624.6897959183673, 579.0"/>
<path fill="none" stroke="#000000" stroke-width="1.0" d="M 668.3269896593154, 579.0L681.8666666666664, 579.0"/>
<path fill="none" stroke="#000000" stroke-width="1.0" d="M 731.8528677094478, 477.0L738.7409694258307, 477.0"/>
<path fill="none" stroke="#000000" stroke-width="1.0" d="M 729.21320766664, 483.0L751.5600000000004, 483.0"/>
<path fill="none" stroke="#000000" stroke-width="1.0" d="M 726.4850156621548, 489.0L738.222838043165, 489.0"/>
<path fill="none" stroke="#000000" stroke-width="1.0" d="M 748.1113585790949, 489.0L767.9600000000004, 489.0"/>
<path fill="none" stroke="#000000" stroke-width="1.0" d="M 723.7154682539665, 495.0L731.6665960669004, 495.0"/>
<path fill="none" stroke="#000000" stroke-width="1.0" d="M 765.7750000000001, 495.0L784.3600000000005, 495.0"/>
<path fill="none" stroke="#000000" stroke-width="1.0" d="M 720.9459242472412, 501.0L727.2313412346664, 501.0"/>
<path fill="none" stroke="#000000" stroke-width="1.0" d="M 765.7557788944724, 501.0L782.1633165829146, 501.0"/>
<path fill="none" stroke="#000000" stroke-width="1.0" d="M 782.4714285714286, 501.0L800.7600000000004, 501.0"/>
<path fill="none" stroke="#000000" stroke-width="1.0" d="M 763.5547738693468, 507.0L779.9623115577889, 507.0"/>
<path fill="none" stroke="#000000" stroke-width="1.0" d="M 798.5812676764858, 507.0L823.1402000165468, 507.0"/>
<path fill="none" stroke="#000000" stroke-width="1.0" d="M 761.3537688442211, 513.0L777.7613065326633, 513.0"/>
<path fill="none" stroke="#000000" stroke-width="1.0" d="M 808.0453413806167, 513.0L821.1446145861615, 513.0"/>
<path fill="none" stroke="#000000" stroke-width="1.0" d="M 759.1527638190955, 519.0L775.5603015075377, 519.0"/>
<path fill="none" stroke="#000000" stroke-width="1.0" d="M 810.2306631905504, 519.0L819.2975266182123, 519.0"/>
<path fill="none" stroke="#000000" stroke-width="1.0" d="M 756.9517587939698, 525.0L773.359296482412, 525.0"/>
<path fill="none" stroke="#000000" stroke-width="1.0" d="M 810.4997120778064, 525.0L817.5398731487916, 525.0"/>
<path fill="none" stroke="#000000" stroke-width="1.0" d="M 754.7507537688442, 531.0L771.1582914572864, 531.0"/>
<path fill="none" stroke="#000000" stroke-width="1.0" d="M 810.0216562791902, 531.0L815.8459404825455, 531.0"/>
<path fill="none" stroke="#000000" stroke-width="1.0" d="M 752.5497487437187, 537.0L768.9572864321608, 537.0"/>
<path fill="none" stroke="#000000" stroke-width="1.0" d="M 750.348743718593, 543.0L766.7562814070352, 543.0"/>
<path fill="none" stroke="#000000" stroke-width="1.0" d="M 748.1477386934673, 549.0L764.5552763819094, 549.0"/>
<path fill="none" stroke="#000000" stroke-width="1.0" d="M 745.9467336683417, 555.0L762.3542713567839, 555.0"/>
<path fill="none" stroke="#000000" stroke-width="1.0" d="M 743.7457286432161, 561.0L760.1532663316583, 561.0"/>
<path fill="none" stroke="#000000" stroke-width="1.0" d="M 741.5447236180905, 567.0L757.9522613065326, 567.0"/>
<path fill="none" stroke="#000000" stroke-width="1.0" d="M 739.3437185929647, 573.0L755.7512562814069, 573.0"/>
<path fill="none" stroke="#000000" stroke-width="1.0" d="M 737.0962745246911, 579.0L753.5502512562814, 579.0"/>
<path fill="none" stroke="#000000" stroke-width="1.0" d="M 716.6630434782609, 585.0L717.0522773236028, 585.0"/>
<path fill="none" stroke="#000000" stroke-width="1.0" d="M 733.6568932615938, 585.0L751.4826598009564, 585.0"/>
<path fill="none" stroke="#000000" stroke-width="1.0" d="M 719.1271676300578, 591.0L750.5856440336545, 591.0"/>
<path fill="none" stroke="#000000" stroke-width="1.0" d="M 735.6358381502889, 597.0L754.4568460964601, 597.0"/>
<path fill="none" stroke="#000000" stroke-width="1.0" d="M 752.14450867052, 603.0L764.0043478260868, 603.0"/>
<path fill="none" stroke="#000000" stroke-width="1.0" d="M 880.7999999999998, 549.0L888.0110091743119, 549.0"/>
<path fill="none" stroke="#000000" stroke-width="1.0" d="M 885.7150296934099, 555.0L894.029357798165, 555.0"/>
<path fill="none" stroke="#000000" stroke-width="1.0" d="M 887.9746971882481, 561.0L900.0477064220182, 561.0"/>
<path fill="none" stroke="#000000" stroke-width="1.0" d="M 884.9462930204601, 567.0L906.0660550458714, 567.0"/>
<path fill="none" stroke="#000000" stroke-width="1.0" d="M 879.304480651731, 573.0L912.0844036697247, 573.0"/>
<path fill="none" stroke="#000000" stroke-width="1.0" d="M 873.3289205702646, 579.0L895.2803544058906, 579.0"/>
<path fill="none" stroke="#000000" stroke-width="1.0" d="M 910.3526566307813, 579.0L916.2999999999997, 579.0"/>
<path fill="none" stroke="#000000" stroke-width="1.0" d="M 867.3533604887983, 585.0L889.1111675126903, 585.0"/>
<path fill="none" stroke="#000000" stroke-width="1.0" d="M 861.377800407332, 591.0L883.1416243654822, 591.0"/>
<path fill="none" stroke="#000000" stroke-width="1.0" d="M 855.4022403258655, 597.0L877.172081218274, 597.0"/>
<path fill="none" stroke="#000000" stroke-width="1.0" d="M 849.4266802443991, 603.0L872.2011904761903, 603.0"/>
<path fill="none" stroke="#000000" stroke-width="1.0" d="M 934.822656725403, 603.0L942.1128048780486, 603.0"/>
<path fill="none" stroke="#000000" stroke-width="1.0" d="M 843.4511201629329, 609.0L865.4999999999998, 609.0"/>
<path fill="none" stroke="#000000" stroke-width="1.0" d="M 868.1030952380951, 609.0L878.2154761904759, 609.0"/>
<path fill="none" stroke="#000000" stroke-width="1.0" d="M 939.5184293810557, 609.0L948.1310975609755, 609.0"/>
<path fill="none" stroke="#000000" stroke-width="1.0" d="M 837.4755600814663, 615.0L859.4999999999997, 615.0"/>
<path fill="none" stroke="#000000" stroke-width="1.0" d="M 874.1173809523809, 615.0L884.2297619047616, 615.0"/>
<path fill="none" stroke="#000000" stroke-width="1.0" d="M 940.8451860058108, 615.0L954.1493902439022, 615.0"/>
<path fill="none" stroke="#000000" stroke-width="1.0" d="M 831.4999999999999, 621.0L853.4999999999999, 621.0"/>
<path fill="none" stroke="#000000" stroke-width="1.0" d="M 880.1316666666667, 621.0L890.2440476190475, 621.0"/>
<path fill="none" stroke="#000000" stroke-width="1.0" d="M 937.0070216429444, 621.0L960.1676829268291, 621.0"/>
<path fill="none" stroke="#000000" stroke-width="1.0" d="M 806.9091185410332, 627.0L815.3581187261642, 627.0"/>
<path fill="none" stroke="#000000" stroke-width="1.0" d="M 824.8239755622026, 627.0L847.4999999999998, 627.0"/>
<path fill="none" stroke="#000000" stroke-width="1.0" d="M 886.1459523809524, 627.0L896.2583333333332, 627.0"/>
<path fill="none" stroke="#000000" stroke-width="1.0" d="M 931.2111675126903, 627.0L966.1859756097558, 627.0"/>
<path fill="none" stroke="#000000" stroke-width="1.0" d="M 812.945592705167, 633.0L841.5198718375782, 633.0"/>
<path fill="none" stroke="#000000" stroke-width="1.0" d="M 892.160238095238, 633.0L902.2726190476187, 633.0"/>
<path fill="none" stroke="#000000" stroke-width="1.0" d="M 925.241624365482, 633.0L947.6016525339624, 633.0"/>
<path fill="none" stroke="#000000" stroke-width="1.0" d="M 964.9072241067886, 633.0L969.5166666666665, 633.0"/>
<path fill="none" stroke="#000000" stroke-width="1.0" d="M 818.9820668693008, 639.0L836.4298546449825, 639.0"/>
<path fill="none" stroke="#000000" stroke-width="1.0" d="M 898.1745238095239, 639.0L908.2869047619045, 639.0"/>
<path fill="none" stroke="#000000" stroke-width="1.0" d="M 919.272081218274, 639.0L941.5195121951222, 639.0"/>
<path fill="none" stroke="#000000" stroke-width="1.0" d="M 825.0185410334345, 645.0L835.2384733744626, 645.0"/>
<path fill="none" stroke="#000000" stroke-width="1.0" d="M 904.1888095238096, 645.0L935.5560975609757, 645.0"/>
<path fill="none" stroke="#000000" stroke-width="1.0" d="M 831.0550151975683, 651.0L838.7763779793861, 651.0"/>
<path fill="none" stroke="#000000" stroke-width="1.0" d="M 907.5999999999999, 651.0L929.5926829268294, 651.0"/>
<path fill="none" stroke="#000000" stroke-width="1.0" d="M 837.091489361702, 657.0L839.9, 657.0"/>
<path fill="none" stroke="#000000" stroke-width="1.0" d="M 901.5999999999998, 657.0L923.629268292683, 657.0"/>
<path fill="none" stroke="#000000" stroke-width="1.0" d="M 895.5999999999999, 663.0L917.6658536585367, 663.0"/>
<path fill="none" stroke="#000000" stroke-width="1.0" d="M 889.5999999999998, 669.0L911.7024390243903, 669.0"/>
<path fill="none" stroke="#000000" stroke-width="1.0" d="M 860.4999999999998, 675.0L862.2448601705311, 675.0"/>
<path fill="none" stroke="#000000" stroke-width="1.0" d="M 883.5903156740223, 675.0L905.7390243902439, 675.0"/>
<path fill="none" stroke="#000000" stroke-width="1.0" d="M 861.1097922848666, 681.0L870.7577867429837, 681.0"/>
<path fill="none" stroke="#000000" stroke-width="1.0" d="M 875.9450343361697, 681.0L899.7756097560977, 681.0"/>
<path fill="none" stroke="#000000" stroke-width="1.0" d="M 867.1275964391691, 687.0L893.849092021002, 687.0"/>
<path fill="none" stroke="#000000" stroke-width="1.0" d="M 873.1454005934718, 693.0L889.0351115523613, 693.0"/>
<path fill="none" stroke="#000000" stroke-width="1.0" d="M 879.1632047477744, 699.0L888.6890462784069, 699.0"/>
<path fill="none" stroke="#000000" stroke-width="1.0" d="M 885.1810089020771, 705.0L892.6893381896273, 705.0"/>
<path fill="none" stroke="#000000" stroke-width="1.0" d="M 891.1988130563798, 711.0L891.9999999999999, 711.0"/>
<path fill="none" stroke="#000000" stroke-width="1.0" d="M 569.2481519020135, 333.0L597.3278114859402, 333.0"/>
<path fill="none" stroke="#000000" stroke-width="1.0" d="M 555.5094997075702, 339.0L568.5607073549247, 339.0"/>
<path fill="none" stroke="#000000" stroke-width="1.0" d="M 590.8346927684421, 339.0L610.674512826278, 339.0"/>
<path fill="none" stroke="#000000" stroke-width="1.0" d="M 547.841833371304, 345.0L559.0791371488538, 345.0"/>
<path fill="none" stroke="#000000" stroke-width="1.0" d="M 600.8712067462346, 345.0L618.1886957505417, 345.0"/>
<path fill="none" stroke="#000000" stroke-width="1.0" d="M 542.5498919828037, 351.0L554.1421112818969, 351.0"/>
<path fill="none" stroke="#000000" stroke-width="1.0" d="M 606.4215798104975, 351.0L623.3584619405891, 351.0"/>
<path fill="none" stroke="#000000" stroke-width="1.0" d="M 538.7155183547746, 357.0L551.0756794709009, 357.0"/>
<path fill="none" stroke="#000000" stroke-width="1.0" d="M 610.192950769957, 357.0L627.0529703007944, 357.0"/>
<path fill="none" stroke="#000000" stroke-width="1.0" d="M 535.9468268316291, 363.0L549.189348210081, 363.0"/>
<path fill="none" stroke="#000000" stroke-width="1.0" d="M 612.8781933092306, 363.0L629.6568446362646, 363.0"/>
<path fill="none" stroke="#000000" stroke-width="1.0" d="M 534.0419248600724, 369.0L548.1706514684033, 369.0"/>
<path fill="none" stroke="#000000" stroke-width="1.0" d="M 614.7879465214421, 369.0L631.3817424771106, 369.0"/>
<path fill="none" stroke="#000000" stroke-width="1.0" d="M 532.8895351582014, 375.0L547.8438253928977, 375.0"/>
<path fill="none" stroke="#000000" stroke-width="1.0" d="M 616.0954450993219, 375.0L632.3590904892951, 375.0"/>
<path fill="none" stroke="#000000" stroke-width="1.0" d="M 532.4306506607675, 381.0L548.0971071906133, 381.0"/>
<path fill="none" stroke="#000000" stroke-width="1.0" d="M 616.9097630251113, 381.0L632.7172311216278, 381.0"/>
<path fill="none" stroke="#000000" stroke-width="1.0" d="M 532.6420126485566, 387.0L548.8695766153074, 387.0"/>
<path fill="none" stroke="#000000" stroke-width="1.0" d="M 617.2590531628537, 387.0L632.4815059454181, 387.0"/>
<path fill="none" stroke="#000000" stroke-width="1.0" d="M 533.519801944832, 393.0L550.1880461938574, 393.0"/>
<path fill="none" stroke="#000000" stroke-width="1.0" d="M 617.0908780236942, 393.0L631.5920846836475, 393.0"/>
<path fill="none" stroke="#000000" stroke-width="1.0" d="M 535.1141564061, 399.0L552.1349451361193, 399.0"/>
<path fill="none" stroke="#000000" stroke-width="1.0" d="M 616.3019057207746, 399.0L629.9645703645203, 399.0"/>
<path fill="none" stroke="#000000" stroke-width="1.0" d="M 537.5374413862128, 405.0L554.8462177205737, 405.0"/>
<path fill="none" stroke="#000000" stroke-width="1.0" d="M 614.7330047146884, 405.0L627.4731928198528, 405.0"/>
<path fill="none" stroke="#000000" stroke-width="1.0" d="M 540.971541445261, 411.0L558.5665167846131, 411.0"/>
<path fill="none" stroke="#000000" stroke-width="1.0" d="M 612.1105827872417, 411.0L623.9173370662852, 411.0"/>
<path fill="none" stroke="#000000" stroke-width="1.0" d="M 545.7428599162864, 417.0L563.8217797866312, 417.0"/>
<path fill="none" stroke="#000000" stroke-width="1.0" d="M 607.8675024858486, 417.0L618.9409534453173, 417.0"/>
<path fill="none" stroke="#000000" stroke-width="1.0" d="M 552.5551144238026, 423.0L572.3218019278042, 423.0"/>
<path fill="none" stroke="#000000" stroke-width="1.0" d="M 600.2164534972577, 423.0L611.782435144701, 423.0"/>
<path fill="none" stroke="#000000" stroke-width="1.0" d="M 563.7391073535315, 429.0L599.9379887490825, 429.0"/>
<path fill="none" stroke="#000000" stroke-width="1.0" d="M 674.948837209302, 333.0L688.5078651685388, 333.0"/>
<path fill="none" stroke="#000000" stroke-width="1.0" d="M 684.2337913617316, 339.0L732.8674157303367, 339.0"/>
<path fill="none" stroke="#000000" stroke-width="1.0" d="M 685.8443537061004, 345.0L699.6864553314119, 345.0"/>
<path fill="none" stroke="#000000" stroke-width="1.0" d="M 727.5412065162324, 345.0L740.5564024692108, 345.0"/>
<path fill="none" stroke="#000000" stroke-width="1.0" d="M 685.2910534050835, 351.0L698.8737752161381, 351.0"/>
<path fill="none" stroke="#000000" stroke-width="1.0" d="M 732.8728571703004, 351.0L740.156229521982, 351.0"/>
<path fill="none" stroke="#000000" stroke-width="1.0" d="M 684.4781034482758, 357.0L698.0610951008645, 357.0"/>
<path fill="none" stroke="#000000" stroke-width="1.0" d="M 734.4161613950263, 357.0L739.8348329344981, 357.0"/>
<path fill="none" stroke="#000000" stroke-width="1.0" d="M 683.6608620689653, 363.0L697.2484149855907, 363.0"/>
<path fill="none" stroke="#000000" stroke-width="1.0" d="M 682.843620689655, 369.0L696.4357348703169, 369.0"/>
<path fill="none" stroke="#000000" stroke-width="1.0" d="M 682.0263793103447, 375.0L695.6230547550432, 375.0"/>
<path fill="none" stroke="#000000" stroke-width="1.0" d="M 726.7832626786585, 375.0L731.7954545454544, 375.0"/>
<path fill="none" stroke="#000000" stroke-width="1.0" d="M 681.2091379310344, 381.0L705.5000000000001, 381.0"/>
<path fill="none" stroke="#000000" stroke-width="1.0" d="M 723.3014795797858, 381.0L730.9772727272725, 381.0"/>
<path fill="none" stroke="#000000" stroke-width="1.0" d="M 680.3918965517241, 387.0L693.9673003802282, 387.0"/>
<path fill="none" stroke="#000000" stroke-width="1.0" d="M 706.9499999999998, 387.0L730.1590909090907, 387.0"/>
<path fill="none" stroke="#000000" stroke-width="1.0" d="M 679.5746551724137, 393.0L693.1460076045626, 393.0"/>
<path fill="none" stroke="#000000" stroke-width="1.0" d="M 722.4396828088818, 393.0L729.340909090909, 393.0"/>
<path fill="none" stroke="#000000" stroke-width="1.0" d="M 678.7574137931033, 399.0L692.3247148288974, 399.0"/>
<path fill="none" stroke="#000000" stroke-width="1.0" d="M 723.4844672344982, 399.0L728.522727272727, 399.0"/>
<path fill="none" stroke="#000000" stroke-width="1.0" d="M 677.9401724137929, 405.0L691.5034220532318, 405.0"/>
<path fill="none" stroke="#000000" stroke-width="1.0" d="M 677.1224934606598, 411.0L690.6821292775664, 411.0"/>
<path fill="none" stroke="#000000" stroke-width="1.0" d="M 675.9844405071533, 417.0L690.0229757818396, 417.0"/>
<path fill="none" stroke="#000000" stroke-width="1.0" d="M 662.242857142857, 423.0L690.8887559032144, 423.0"/>
<path fill="none" stroke="#000000" stroke-width="1.0" d="M 677.8464285714283, 429.0L703.2857142857142, 429.0"/>
</g>
</svg>