<?xml version="1.0" encoding="utf-8"?>
<!DOCTYPE svg PUBLIC "-//W3C//DTD SVG 1.1 Tiny//EN" "http://www.w3.org/Graphics/SVG/1.1/DTD/svg11-tiny.dtd">
<svg version="1.1" baseProfile="tiny" id="openrndr-svg" xmlns="http://www.w3.org/2000/svg" xmlns:xlink="http://www.w3.org/1999/xlink" x="0px" y="0px" width="1280px" height="720px"><g >
<path fill="none" stroke="#000000" stroke-width="1.0" d="M 523.3403839996764, 12.0L527.0262228320432, 12.0"/>
<path fill="none" stroke="#000000" stroke-width="1.0" d="M 433.7474222097536, 36.0L451.9599412321899, 36.0"/>
<path fill="none" stroke="#000000" stroke-width="1.0" d="M 474.69760479041923, 36.0L490.3761676646707, 36.0"/>
<path fill="none" stroke="#000000" stroke-width="1.0" d="M 525.9161572163706, 36.0L532.5259224025765, 36.0"/>
<path fill="none" stroke="#000000" stroke-width="1.0" d="M 478.95149700598813, 60.0L494.63005988023957, 60.0"/>
<path fill="none" stroke="#000000" stroke-width="1.0" d="M 483.20538922155697, 84.0L498.8839520958084, 84.0"/>
<path fill="none" stroke="#000000" stroke-width="1.0" d="M 487.4592814371259, 108.0L503.13784431137736, 108.0"/>
<path fill="none" stroke="#000000" stroke-width="1.0" d="M 482.34436333837084, 132.0L515.9494382022474, 132.0"/>
<path fill="none" stroke="#000000" stroke-width="1.0" d="M 578.5549019607844, 12.0L624.870588235294, 12.0"/>
<path fill="none" stroke="#000000" stroke-width="1.0" d="M 654.0803921568627, 12.0L700.5999999999999, 12.0"/>
<path fill="none" stroke="#000000" stroke-width="1.0" d="M 594.0301587301587, 36.0L609.4262589928059, 36.0"/>
<path fill="none" stroke="#000000" stroke-width="1.0" d="M 668.8442446043164, 36.0L684.6539682539684, 36.0"/>
<path fill="none" stroke="#000000" stroke-width="1.0" d="M 593.6492063492063, 60.0L626.8199999999977, 60.0"/>
<path fill="none" stroke="#000000" stroke-width="1.0" d="M 668.4125899280573, 60.0L684.2730158730158, 60.0"/>
<path fill="none" stroke="#000000" stroke-width="1.0" d="M 593.268253968254, 84.0L608.8, 84.0"/>
<path fill="none" stroke="#000000" stroke-width="1.0" d="M 668.2175438596491, 84.0L683.8920634920637, 84.0"/>
<path fill="none" stroke="#000000" stroke-width="1.0" d="M 592.6397088222598, 108.0L608.6463327140397, 108.0"/>
<path fill="none" stroke="#000000" stroke-width="1.0" d="M 667.6575121004857, 108.0L683.6457697446781, 108.0"/>
<path fill="none" stroke="#000000" stroke-width="1.0" d="M 761.6458681674591, 36.0L777.7864935064936, 36.0"/>
<path fill="none" stroke="#000000" stroke-width="1.0" d="M 811.247508086275, 36.0L826.6119892904609, 36.0"/>
<path fill="none" stroke="#000000" stroke-width="1.0" d="M 757.3516320474779, 60.0L773.3605194805195, 60.0"/>
<path fill="none" stroke="#000000" stroke-width="1.0" d="M 752.9362017804156, 84.0L768.9157232704404, 84.0"/>
<path fill="none" stroke="#000000" stroke-width="1.0" d="M 792.6185294937432, 84.0L809.7451219512195, 84.0"/>
<path fill="none" stroke="#000000" stroke-width="1.0" d="M 748.5207715133532, 108.0L764.5383647798742, 108.0"/>
<path fill="none" stroke="#000000" stroke-width="1.0" d="M 751.2428571428572, 132.0L786.3402140610029, 132.0"/>
<path fill="none" stroke="#000000" stroke-width="1.0" d="M 801.2079897085061, 132.0L815.8971599874519, 132.0"/>
<path fill="none" stroke="#000000" stroke-width="1.0" d="M 244.03021508146134, 276.0L252.43240185257014, 276.0"/>
<path fill="none" stroke="#000000" stroke-width="1.0" d="M 279.3231606525654, 276.0L288.8466635507181, 276.0"/>
<path fill="none" stroke="#000000" stroke-width="1.0" d="M 235.30744300747503, 300.0L248.09424139259883, 300.0"/>
<path fill="none" stroke="#000000" stroke-width="1.0" d="M 251.55242638010918, 324.0L325.1274735447327, 324.0"/>
<path fill="none" stroke="#000000" stroke-width="1.0" d="M 318.86599537648056, 348.0L328.2868178382942, 348.0"/>
<path fill="none" stroke="#000000" stroke-width="1.0" d="M 275.5603916160169, 372.0L309.25861672588275, 372.0"/>
<path fill="none" stroke="#000000" stroke-width="1.0" d="M 385.1062657264171, 204.0L421.2351850146117, 204.0"/>
<path fill="none" stroke="#000000" stroke-width="1.0" d="M 352.8609872074168, 228.0L363.539136061589, 228.0"/>
<path fill="none" stroke="#000000" stroke-width="1.0" d="M 428.94936773015286, 228.0L451.2604379291831, 228.0"/>
<path fill="none" stroke="#000000" stroke-width="1.0" d="M 344.04948135750783, 252.0L358.99064916522434, 252.0"/>
<path fill="none" stroke="#000000" stroke-width="1.0" d="M 441.494168250797, 252.0L459.9490657167984, 252.0"/>
<path fill="none" stroke="#000000" stroke-width="1.0" d="M 345.6299871367587, 276.0L365.3953055446651, 276.0"/>
<path fill="none" stroke="#000000" stroke-width="1.0" d="M 445.4036027850402, 276.0L459.01103677885754, 276.0"/>
<path fill="none" stroke="#000000" stroke-width="1.0" d="M 357.973897577726, 300.0L382.77141326646586, 300.0"/>
<path fill="none" stroke="#000000" stroke-width="1.0" d="M 436.17777627250337, 300.0L445.86859097273805, 300.0"/>
<path fill="none" stroke="#000000" stroke-width="1.0" d="M 499.42279122739296, 180.0L522.7989864705903, 180.0"/>
<path fill="none" stroke="#000000" stroke-width="1.0" d="M 586.3187401491257, 180.0L595.8680079166891, 180.0"/>
<path fill="none" stroke="#000000" stroke-width="1.0" d="M 508.11190476190507, 204.0L523.9070312500003, 204.0"/>
<path fill="none" stroke="#000000" stroke-width="1.0" d="M 590.2749754360766, 204.0L597.8626270478449, 204.0"/>
<path fill="none" stroke="#000000" stroke-width="1.0" d="M 510.9690476190479, 228.0L526.7195312500003, 228.0"/>
<path fill="none" stroke="#000000" stroke-width="1.0" d="M 592.831341454644, 228.0L600.4155943816394, 228.0"/>
<path fill="none" stroke="#000000" stroke-width="1.0" d="M 514.8970920431391, 252.0L532.1538547690478, 252.0"/>
<path fill="none" stroke="#000000" stroke-width="1.0" d="M 590.1714380067339, 252.0L598.5282255325795, 252.0"/>
<path fill="none" stroke="#000000" stroke-width="1.0" d="M 531.068557229542, 276.0L580.376154721223, 276.0"/>
<path fill="none" stroke="#000000" stroke-width="1.0" d="M 674.2155536632408, 180.0L695.1649681528664, 180.0"/>
<path fill="none" stroke="#000000" stroke-width="1.0" d="M 751.8096653353416, 180.0L775.0853864389117, 180.0"/>
<path fill="none" stroke="#000000" stroke-width="1.0" d="M 777.5318658227384, 180.0L779.7115384615386, 180.0"/>
<path fill="none" stroke="#000000" stroke-width="1.0" d="M 671.8411764705884, 204.0L679.3007042253521, 204.0"/>
<path fill="none" stroke="#000000" stroke-width="1.0" d="M 692.4456940222899, 204.0L711.1140127388536, 204.0"/>
<path fill="none" stroke="#000000" stroke-width="1.0" d="M 753.5131868764539, 204.0L761.2138675407845, 204.0"/>
<path fill="none" stroke="#000000" stroke-width="1.0" d="M 669.0176470588237, 228.0L676.4274647887326, 228.0"/>
<path fill="none" stroke="#000000" stroke-width="1.0" d="M 708.0323201621075, 228.0L727.063057324841, 228.0"/>
<path fill="none" stroke="#000000" stroke-width="1.0" d="M 750.8355932203392, 228.0L758.255780346821, 228.0"/>
<path fill="none" stroke="#000000" stroke-width="1.0" d="M 665.6334294509461, 252.0L674.0795201915328, 252.0"/>
<path fill="none" stroke="#000000" stroke-width="1.0" d="M 723.6189463019251, 252.0L743.0121019108282, 252.0"/>
<path fill="none" stroke="#000000" stroke-width="1.0" d="M 747.9881355932205, 252.0L755.4118497109828, 252.0"/>
<path fill="none" stroke="#000000" stroke-width="1.0" d="M 675.9571428571434, 276.0L688.7836734693877, 276.0"/>
<path fill="none" stroke="#000000" stroke-width="1.0" d="M 739.2055724417428, 276.0L752.5679190751446, 276.0"/>
<path fill="none" stroke="#000000" stroke-width="1.0" d="M 841.7736416508351, 204.0L874.8101694915255, 204.0"/>
<path fill="none" stroke="#000000" stroke-width="1.0" d="M 833.5804953560371, 228.0L850.3089820359282, 228.0"/>
<path fill="none" stroke="#000000" stroke-width="1.0" d="M 899.9300090781979, 228.0L914.866113694017, 228.0"/>
<path fill="none" stroke="#000000" stroke-width="1.0" d="M 824.5897832817336, 252.0L841.3269461077846, 252.0"/>
<path fill="none" stroke="#000000" stroke-width="1.0" d="M 908.031897362366, 252.0L925.2331951607015, 252.0"/>
<path fill="none" stroke="#000000" stroke-width="1.0" d="M 815.5990712074304, 276.0L832.3449101796408, 276.0"/>
<path fill="none" stroke="#000000" stroke-width="1.0" d="M 903.0673871745149, 276.0L922.3684052688624, 276.0"/>
<path fill="none" stroke="#000000" stroke-width="1.0" d="M 810.1449664429529, 300.0L832.1939106098025, 300.0"/>
<path fill="none" stroke="#000000" stroke-width="1.0" d="M 885.0612176683026, 300.0L907.5359329982555, 300.0"/>
<path fill="none" stroke="#000000" stroke-width="1.0" d="M 978.3668135723335, 276.0L997.2736663042751, 276.0"/>
<path fill="none" stroke="#000000" stroke-width="1.0" d="M 1014.8861830119477, 276.0L1026.4523183596052, 276.0"/>
<path fill="none" stroke="#000000" stroke-width="1.0" d="M 971.0412491543469, 300.0L988.1314126286411, 300.0"/>
<path fill="none" stroke="#000000" stroke-width="1.0" d="M 1025.9826165289621, 300.0L1033.788961338909, 300.0"/>
<path fill="none" stroke="#000000" stroke-width="1.0" d="M 943.9637275187972, 324.0L945.7937499999998, 324.0"/>
<path fill="none" stroke="#000000" stroke-width="1.0" d="M 981.145281020464, 324.0L1000.5286708826278, 324.0"/>
<path fill="none" stroke="#000000" stroke-width="1.0" d="M 933.8648344870454, 348.0L947.238550637964, 348.0"/>
<path fill="none" stroke="#000000" stroke-width="1.0" d="M 990.0633184562747, 348.0L1007.480856104062, 348.0"/>
<path fill="none" stroke="#000000" stroke-width="1.0" d="M 959.2734320213806, 372.0L991.5206003034339, 372.0"/>
<path fill="none" stroke="#000000" stroke-width="1.0" d="M 339.09277108433736, 588.0L361.3910852166458, 588.0"/>
<path fill="none" stroke="#000000" stroke-width="1.0" d="M 317.4060240963855, 612.0L325.80625, 612.0"/>
<path fill="none" stroke="#000000" stroke-width="1.0" d="M 368.62631578947367, 612.0L374.8321428571429, 612.0"/>
<path fill="none" stroke="#000000" stroke-width="1.0" d="M 296.12352941176465, 636.0L303.1584604121718, 636.0"/>
<path fill="none" stroke="#000000" stroke-width="1.0" d="M 318.1468375841578, 636.0L341.3863117870723, 636.0"/>
<path fill="none" stroke="#000000" stroke-width="1.0" d="M 364.355, 636.0L373.9885317385026, 636.0"/>
<path fill="none" stroke="#000000" stroke-width="1.0" d="M 416.9015173366837, 636.0L425.1242983823384, 636.0"/>
<path fill="none" stroke="#000000" stroke-width="1.0" d="M 344.8671023965141, 660.0L368.03732718894025, 660.0"/>
<path fill="none" stroke="#000000" stroke-width="1.0" d="M 416.8236473207517, 660.0L425.77484177215183, 660.0"/>
<path fill="none" stroke="#000000" stroke-width="1.0" d="M 371.42919389978204, 684.0L404.0912974683544, 684.0"/>
<path fill="none" stroke="#000000" stroke-width="1.0" d="M 375.451334013738, 708.0L382.40775316455694, 708.0"/>
<path fill="none" stroke="#000000" stroke-width="1.0" d="M 455.99733333333336, 516.0L474.30387608439617, 516.0"/>
<path fill="none" stroke="#000000" stroke-width="1.0" d="M 457.3757948717949, 540.0L463.74319439361216, 540.0"/>
<path fill="none" stroke="#000000" stroke-width="1.0" d="M 476.5247734138972, 540.0L498.4490563302885, 540.0"/>
<path fill="none" stroke="#000000" stroke-width="1.0" d="M 458.7542564102564, 564.0L465.82703147981147, 564.0"/>
<path fill="none" stroke="#000000" stroke-width="1.0" d="M 485.2335820895524, 564.0L522.6888281736447, 564.0"/>
<path fill="none" stroke="#000000" stroke-width="1.0" d="M 460.132717948718, 588.0L467.8029721856773, 588.0"/>
<path fill="none" stroke="#000000" stroke-width="1.0" d="M 522.9836127058884, 588.0L547.370588235294, 588.0"/>
<path fill="none" stroke="#000000" stroke-width="1.0" d="M 461.07075364359355, 612.0L471.5460627881266, 612.0"/>
<path fill="none" stroke="#000000" stroke-width="1.0" d="M 484.34692650788315, 612.0L485.6866666666667, 612.0"/>
<path fill="none" stroke="#000000" stroke-width="1.0" d="M 579.9909090909075, 468.0L636.9825088652466, 468.0"/>
<path fill="none" stroke="#000000" stroke-width="1.0" d="M 591.5639652677278, 492.0L606.9230046948358, 492.0"/>
<path fill="none" stroke="#000000" stroke-width="1.0" d="M 642.881411624485, 492.0L660.4097650587996, 492.0"/>
<path fill="none" stroke="#000000" stroke-width="1.0" d="M 592.1544138929088, 516.0L607.4863849765259, 516.0"/>
<path fill="none" stroke="#000000" stroke-width="1.0" d="M 638.2974118558818, 516.0L652.0706431137073, 516.0"/>
<path fill="none" stroke="#000000" stroke-width="1.0" d="M 592.7448625180896, 540.0L608.0341911764705, 540.0"/>
<path fill="none" stroke="#000000" stroke-width="1.0" d="M 629.9523880059712, 540.0L648.7557190500959, 540.0"/>
<path fill="none" stroke="#000000" stroke-width="1.0" d="M 593.1831376606889, 564.0L608.8156348867751, 564.0"/>
<path fill="none" stroke="#000000" stroke-width="1.0" d="M 645.8524526855218, 564.0L666.5974158837272, 564.0"/>
<path fill="none" stroke="#000000" stroke-width="1.0" d="M 725.1027763306661, 492.0L734.2837615699366, 492.0"/>
<path fill="none" stroke="#000000" stroke-width="1.0" d="M 757.5234242744455, 492.0L776.1600000000004, 492.0"/>
<path fill="none" stroke="#000000" stroke-width="1.0" d="M 760.2532663316583, 516.0L776.6608040201005, 516.0"/>
<path fill="none" stroke="#000000" stroke-width="1.0" d="M 809.5120111528116, 516.0L820.2074319461565, 516.0"/>
<path fill="none" stroke="#000000" stroke-width="1.0" d="M 751.4492462311558, 540.0L767.8567839195979, 540.0"/>
<path fill="none" stroke="#000000" stroke-width="1.0" d="M 742.6452261306532, 564.0L759.0527638190954, 564.0"/>
<path fill="none" stroke="#000000" stroke-width="1.0" d="M 715.554347826087, 588.0L750.7589852488184, 588.0"/>
<path fill="none" stroke="#000000" stroke-width="1.0" d="M 887.0358670067817, 564.0L903.0568807339448, 564.0"/>
<path fill="none" stroke="#000000" stroke-width="1.0" d="M 864.365580448065, 588.0L886.1263959390863, 588.0"/>
<path fill="none" stroke="#000000" stroke-width="1.0" d="M 840.4633401221995, 612.0L862.4999999999999, 612.0"/>
<path fill="none" stroke="#000000" stroke-width="1.0" d="M 871.110238095238, 612.0L881.2226190476188, 612.0"/>
<path fill="none" stroke="#000000" stroke-width="1.0" d="M 940.8699615265313, 612.0L951.1402439024388, 612.0"/>
<path fill="none" stroke="#000000" stroke-width="1.0" d="M 815.963829787234, 636.0L838.7316557828165, 636.0"/>
<path fill="none" stroke="#000000" stroke-width="1.0" d="M 895.167380952381, 636.0L905.2797619047617, 636.0"/>
<path fill="none" stroke="#000000" stroke-width="1.0" d="M 922.256852791878, 636.0L944.5012195121953, 636.0"/>
<path fill="none" stroke="#000000" stroke-width="1.0" d="M 898.5999999999999, 660.0L920.64756097561, 660.0"/>
<path fill="none" stroke="#000000" stroke-width="1.0" d="M 864.1186943620178, 684.0L896.7939024390242, 684.0"/>
<path fill="none" stroke="#000000" stroke-width="1.0" d="M 888.1899109792284, 708.0L894.9999999999998, 708.0"/>
<path fill="none" stroke="#000000" stroke-width="1.0" d="M 544.9760996819523, 348.0L556.3018679281138, 348.0"/>
<path fill="none" stroke="#000000" stroke-width="1.0" d="M 603.9442929371484, 348.0L620.9940176594395, 348.0"/>
<path fill="none" stroke="#000000" stroke-width="1.0" d="M 533.3763205725498, 372.0L547.9287881560286, 372.0"/>
<path fill="none" stroke="#000000" stroke-width="1.0" d="M 615.50910340963, 372.0L631.9575982516237, 372.0"/>
<path fill="none" stroke="#000000" stroke-width="1.0" d="M 534.2215317289211, 396.0L551.0760913417215, 396.0"/>
<path fill="none" stroke="#000000" stroke-width="1.0" d="M 616.782197392829, 396.0L630.8772100347048, 396.0"/>
<path fill="none" stroke="#000000" stroke-width="1.0" d="M 548.8195935252206, 420.0L567.4237326481465, 420.0"/>
<path fill="none" stroke="#000000" stroke-width="1.0" d="M 604.7186608006592, 420.0L615.7145921656278, 420.0"/>
<path fill="none" stroke="#000000" stroke-width="1.0" d="M 685.6391682303754, 348.0L699.2801152737752, 348.0"/>
<path fill="none" stroke="#000000" stroke-width="1.0" d="M 731.2991555924029, 348.0L740.3435374002396, 348.0"/>
<path fill="none" stroke="#000000" stroke-width="1.0" d="M 682.435, 372.0L696.0293948126799, 372.0"/>
<path fill="none" stroke="#000000" stroke-width="1.0" d="M 679.1660344827585, 396.0L692.7353612167299, 396.0"/>
<path fill="none" stroke="#000000" stroke-width="1.0" d="M 723.2072334740332, 396.0L728.931818181818, 396.0"/>
<path fill="none" stroke="#000000" stroke-width="1.0" d="M 674.7042016231394, 420.0L690.0367676002979, 420.0"/>
</g>
</svg>