<?xml version="1.0" encoding="utf-8"?>
<!DOCTYPE svg PUBLIC "-//W3C//DTD SVG 1.1 Tiny//EN" "http://www.w3.org/Graphics/SVG/1.1/DTD/svg11-tiny.dtd">
<svg version="1.1" baseProfile="tiny" id="openrndr-svg" xmlns="http://www.w3.org/2000/svg" xmlns:xlink="http://www.w3.org/1999/xlink" x="0px" y="0px" width="1280px" height="720px"><g >
<path fill="none" stroke="#000000" stroke-width="1.0" d="M 427.05410810810474, 90.0L466.34935462989574, 90.0"/>
<path fill="none" stroke="#000000" stroke-width="1.0" d="M 413.46578149041454, 102.0L476.2554073713159, 102.0"/>
<path fill="none" stroke="#000000" stroke-width="1.0" d="M 593.7181084650058, 102.0L638.9563271808522, 102.0"/>
<path fill="none" stroke="#000000" stroke-width="1.0" d="M 852.741694499043, 102.0L889.691357099147, 102.0"/>
<path fill="none" stroke="#000000" stroke-width="1.0" d="M 411.9669906475027, 114.0L479.6453697858296, 114.0"/>
<path fill="none" stroke="#000000" stroke-width="1.0" d="M 584.6527371169072, 114.0L649.9927286021904, 114.0"/>
<path fill="none" stroke="#000000" stroke-width="1.0" d="M 708.110552019296, 114.0L733.8045588861387, 114.0"/>
<path fill="none" stroke="#000000" stroke-width="1.0" d="M 838.6024778650342, 114.0L897.5801261221598, 114.0"/>
<path fill="none" stroke="#000000" stroke-width="1.0" d="M 322.52771335947733, 126.0L378.09505667252574, 126.0"/>
<path fill="none" stroke="#000000" stroke-width="1.0" d="M 417.06836624895345, 126.0L479.6250598742829, 126.0"/>
<path fill="none" stroke="#000000" stroke-width="1.0" d="M 582.7388637390675, 126.0L650.14136067205, 126.0"/>
<path fill="none" stroke="#000000" stroke-width="1.0" d="M 696.199149196661, 126.0L752.0607634009499, 126.0"/>
<path fill="none" stroke="#000000" stroke-width="1.0" d="M 834.3667705394987, 126.0L902.413978114807, 126.0"/>
<path fill="none" stroke="#000000" stroke-width="1.0" d="M 939.4375688629887, 126.0L988.2648283248895, 126.0"/>
<path fill="none" stroke="#000000" stroke-width="1.0" d="M 315.7555660503682, 138.0L383.5996566333471, 138.0"/>
<path fill="none" stroke="#000000" stroke-width="1.0" d="M 418.912499999998, 138.0L478.2637338117788, 138.0"/>
<path fill="none" stroke="#000000" stroke-width="1.0" d="M 582.7883403501514, 138.0L644.2929657209517, 138.0"/>
<path fill="none" stroke="#000000" stroke-width="1.0" d="M 692.2684477318119, 138.0L757.7736901222374, 138.0"/>
<path fill="none" stroke="#000000" stroke-width="1.0" d="M 836.3589000780692, 138.0L900.6950396825381, 138.0"/>
<path fill="none" stroke="#000000" stroke-width="1.0" d="M 934.2673130707988, 138.0L998.1793698691769, 138.0"/>
<path fill="none" stroke="#000000" stroke-width="1.0" d="M 315.6424906388228, 150.0L380.8275259908199, 150.0"/>
<path fill="none" stroke="#000000" stroke-width="1.0" d="M 427.2105696794191, 150.0L480.70612191910766, 150.0"/>
<path fill="none" stroke="#000000" stroke-width="1.0" d="M 584.3232774943976, 150.0L641.4892373123523, 150.0"/>
<path fill="none" stroke="#000000" stroke-width="1.0" d="M 692.195234794031, 150.0L757.2227055736, 150.0"/>
<path fill="none" stroke="#000000" stroke-width="1.0" d="M 837.2513974834792, 150.0L899.6844915066753, 150.0"/>
<path fill="none" stroke="#000000" stroke-width="1.0" d="M 930.6476100984212, 150.0L998.6648319692711, 150.0"/>
<path fill="none" stroke="#000000" stroke-width="1.0" d="M 315.7819260076331, 162.0L377.25742178208395, 162.0"/>
<path fill="none" stroke="#000000" stroke-width="1.0" d="M 436.3167488959576, 162.0L506.581822704115, 162.0"/>
<path fill="none" stroke="#000000" stroke-width="1.0" d="M 579.6999999999996, 162.0L634.7439224334863, 162.0"/>
<path fill="none" stroke="#000000" stroke-width="1.0" d="M 692.9911870136851, 162.0L756.1017405586541, 162.0"/>
<path fill="none" stroke="#000000" stroke-width="1.0" d="M 839.3065233152571, 162.0L894.1073812741645, 162.0"/>
<path fill="none" stroke="#000000" stroke-width="1.0" d="M 933.1222804197789, 162.0L997.1326566639647, 162.0"/>
<path fill="none" stroke="#000000" stroke-width="1.0" d="M 316.5158800587346, 174.0L370.3255144032912, 174.0"/>
<path fill="none" stroke="#000000" stroke-width="1.0" d="M 410.9621880343019, 174.0L529.0410732611256, 174.0"/>
<path fill="none" stroke="#000000" stroke-width="1.0" d="M 547.2451566165915, 174.0L624.4248272958179, 174.0"/>
<path fill="none" stroke="#000000" stroke-width="1.0" d="M 697.9610457025444, 174.0L755.7283096918902, 174.0"/>
<path fill="none" stroke="#000000" stroke-width="1.0" d="M 844.6218153858526, 174.0L883.2075685214003, 174.0"/>
<path fill="none" stroke="#000000" stroke-width="1.0" d="M 936.1689772794844, 174.0L996.4631677835374, 174.0"/>
<path fill="none" stroke="#000000" stroke-width="1.0" d="M 303.0772096880246, 186.0L364.89817546963263, 186.0"/>
<path fill="none" stroke="#000000" stroke-width="1.0" d="M 398.24524384536414, 186.0L656.6083614298564, 186.0"/>
<path fill="none" stroke="#000000" stroke-width="1.0" d="M 710.6583744100312, 186.0L746.14491484872, 186.0"/>
<path fill="none" stroke="#000000" stroke-width="1.0" d="M 815.6680332559038, 186.0L901.3737443075391, 186.0"/>
<path fill="none" stroke="#000000" stroke-width="1.0" d="M 943.1667518046629, 186.0L988.2731030599396, 186.0"/>
<path fill="none" stroke="#000000" stroke-width="1.0" d="M 270.41779646691106, 198.0L364.87470577269926, 198.0"/>
<path fill="none" stroke="#000000" stroke-width="1.0" d="M 395.5984374999987, 198.0L665.1388855142134, 198.0"/>
<path fill="none" stroke="#000000" stroke-width="1.0" d="M 696.9811516571192, 198.0L770.4467677268639, 198.0"/>
<path fill="none" stroke="#000000" stroke-width="1.0" d="M 803.7506616734448, 198.0L920.6624455320766, 198.0"/>
<path fill="none" stroke="#000000" stroke-width="1.0" d="M 943.8082497176676, 198.0L1000.5816253293381, 198.0"/>
<path fill="none" stroke="#000000" stroke-width="1.0" d="M 263.09008893740076, 210.0L393.84737957954184, 210.0"/>
<path fill="none" stroke="#000000" stroke-width="1.0" d="M 394.04778287407277, 210.0L666.9760030655614, 210.0"/>
<path fill="none" stroke="#000000" stroke-width="1.0" d="M 674.1011426350645, 210.0L788.0705158747561, 210.0"/>
<path fill="none" stroke="#000000" stroke-width="1.0" d="M 799.2964789646396, 210.0L1024.84360763891, 210.0"/>
<path fill="none" stroke="#000000" stroke-width="1.0" d="M 260.4690376541399, 222.0L668.2030889109335, 222.0"/>
<path fill="none" stroke="#000000" stroke-width="1.0" d="M 671.9540009443778, 222.0L793.1351840898541, 222.0"/>
<path fill="none" stroke="#000000" stroke-width="1.0" d="M 796.7844990089878, 222.0L1032.4268730171632, 222.0"/>
<path fill="none" stroke="#000000" stroke-width="1.0" d="M 259.3371086701135, 234.0L1035.7582978775536, 234.0"/>
<path fill="none" stroke="#000000" stroke-width="1.0" d="M 257.09832795799525, 246.0L1037.766760682919, 246.0"/>
<path fill="none" stroke="#000000" stroke-width="1.0" d="M 253.91034236980067, 258.0L411.6154675509342, 258.0"/>
<path fill="none" stroke="#000000" stroke-width="1.0" d="M 417.7870937059786, 258.0L512.8049917295422, 258.0"/>
<path fill="none" stroke="#000000" stroke-width="1.0" d="M 517.0392350229147, 258.0L1038.5404665047495, 258.0"/>
<path fill="none" stroke="#000000" stroke-width="1.0" d="M 251.39823951096716, 270.0L410.8486894289987, 270.0"/>
<path fill="none" stroke="#000000" stroke-width="1.0" d="M 419.59324031436086, 270.0L510.6196429639058, 270.0"/>
<path fill="none" stroke="#000000" stroke-width="1.0" d="M 513.5212003196341, 270.0L644.5671776819993, 270.0"/>
<path fill="none" stroke="#000000" stroke-width="1.0" d="M 651.0668578685479, 270.0L682.4774270838147, 270.0"/>
<path fill="none" stroke="#000000" stroke-width="1.0" d="M 684.1072164229171, 270.0L1039.7246006272035, 270.0"/>
<path fill="none" stroke="#000000" stroke-width="1.0" d="M 248.92191194750094, 282.0L278.1699653307508, 282.0"/>
<path fill="none" stroke="#000000" stroke-width="1.0" d="M 281.68056203272124, 282.0L379.0942032988825, 282.0"/>
<path fill="none" stroke="#000000" stroke-width="1.0" d="M 383.35380965641804, 282.0L412.15635382151453, 282.0"/>
<path fill="none" stroke="#000000" stroke-width="1.0" d="M 420.15491793734446, 282.0L507.70433858132776, 282.0"/>
<path fill="none" stroke="#000000" stroke-width="1.0" d="M 510.92005221749304, 282.0L551.6889155649295, 282.0"/>
<path fill="none" stroke="#000000" stroke-width="1.0" d="M 551.7499999999989, 282.0L643.062140978089, 282.0"/>
<path fill="none" stroke="#000000" stroke-width="1.0" d="M 652.0207465555812, 282.0L679.0783248994466, 282.0"/>
<path fill="none" stroke="#000000" stroke-width="1.0" d="M 684.9225710004932, 282.0L817.0630437574689, 282.0"/>
<path fill="none" stroke="#000000" stroke-width="1.0" d="M 820.6227131851533, 282.0L1040.6194396081814, 282.0"/>
<path fill="none" stroke="#000000" stroke-width="1.0" d="M 244.94761973399596, 294.0L274.0188057483157, 294.0"/>
<path fill="none" stroke="#000000" stroke-width="1.0" d="M 283.850144448783, 294.0L376.78180179525083, 294.0"/>
<path fill="none" stroke="#000000" stroke-width="1.0" d="M 384.88750000000005, 294.0L412.9782186527693, 294.0"/>
<path fill="none" stroke="#000000" stroke-width="1.0" d="M 420.44054443118256, 294.0L509.52393960886167, 294.0"/>
<path fill="none" stroke="#000000" stroke-width="1.0" d="M 510.79439359169294, 294.0L550.2763436115342, 294.0"/>
<path fill="none" stroke="#000000" stroke-width="1.0" d="M 554.7845493703162, 294.0L642.5522183720018, 294.0"/>
<path fill="none" stroke="#000000" stroke-width="1.0" d="M 651.9724604742926, 294.0L678.3081103544157, 294.0"/>
<path fill="none" stroke="#000000" stroke-width="1.0" d="M 684.172280269677, 294.0L772.478294193597, 294.0"/>
<path fill="none" stroke="#000000" stroke-width="1.0" d="M 775.9927523772749, 294.0L813.8430162990855, 294.0"/>
<path fill="none" stroke="#000000" stroke-width="1.0" d="M 821.6405420454807, 294.0L1013.7279221554254, 294.0"/>
<path fill="none" stroke="#000000" stroke-width="1.0" d="M 1015.6929023880822, 294.0L1041.0596701436875, 294.0"/>
<path fill="none" stroke="#000000" stroke-width="1.0" d="M 243.62021089446296, 306.0L272.8866876631988, 306.0"/>
<path fill="none" stroke="#000000" stroke-width="1.0" d="M 286.168677353167, 306.0L375.9165208937063, 306.0"/>
<path fill="none" stroke="#000000" stroke-width="1.0" d="M 384.913386430403, 306.0L412.5656810435017, 306.0"/>
<path fill="none" stroke="#000000" stroke-width="1.0" d="M 420.6515531662945, 306.0L509.87871881815363, 306.0"/>
<path fill="none" stroke="#000000" stroke-width="1.0" d="M 512.5074683695148, 306.0L547.3263449083103, 306.0"/>
<path fill="none" stroke="#000000" stroke-width="1.0" d="M 552.840268799999, 306.0L642.2509933262176, 306.0"/>
<path fill="none" stroke="#000000" stroke-width="1.0" d="M 652.4004144611888, 306.0L677.6956848235329, 306.0"/>
<path fill="none" stroke="#000000" stroke-width="1.0" d="M 683.3542882455127, 306.0L771.9932493441179, 306.0"/>
<path fill="none" stroke="#000000" stroke-width="1.0" d="M 778.6076913080933, 306.0L812.6388622457359, 306.0"/>
<path fill="none" stroke="#000000" stroke-width="1.0" d="M 821.4617224966028, 306.0L1012.4399061069928, 306.0"/>
<path fill="none" stroke="#000000" stroke-width="1.0" d="M 1017.3423652614147, 306.0L1042.142314031897, 306.0"/>
<path fill="none" stroke="#000000" stroke-width="1.0" d="M 244.25335014375696, 318.0L272.5463828674402, 318.0"/>
<path fill="none" stroke="#000000" stroke-width="1.0" d="M 285.9813443072689, 318.0L375.513056569486, 318.0"/>
<path fill="none" stroke="#000000" stroke-width="1.0" d="M 384.90004476252716, 318.0L411.5478170160799, 318.0"/>
<path fill="none" stroke="#000000" stroke-width="1.0" d="M 417.19757989218476, 318.0L510.17215540517805, 318.0"/>
<path fill="none" stroke="#000000" stroke-width="1.0" d="M 515.550151451238, 318.0L545.4835881318993, 318.0"/>
<path fill="none" stroke="#000000" stroke-width="1.0" d="M 552.776166399999, 318.0L642.1537415148957, 318.0"/>
<path fill="none" stroke="#000000" stroke-width="1.0" d="M 653.2357225439639, 318.0L677.1961174536302, 318.0"/>
<path fill="none" stroke="#000000" stroke-width="1.0" d="M 682.5179360057639, 318.0L772.0754737795439, 318.0"/>
<path fill="none" stroke="#000000" stroke-width="1.0" d="M 780.6487243727169, 318.0L812.1634768183578, 318.0"/>
<path fill="none" stroke="#000000" stroke-width="1.0" d="M 817.5566546738104, 318.0L1011.7155496008288, 318.0"/>
<path fill="none" stroke="#000000" stroke-width="1.0" d="M 1020.5054816846364, 318.0L1043.7383934663812, 318.0"/>
<path fill="none" stroke="#000000" stroke-width="1.0" d="M 246.87285159024998, 330.0L271.71320710641913, 330.0"/>
<path fill="none" stroke="#000000" stroke-width="1.0" d="M 285.5613482293654, 330.0L375.3203965188458, 330.0"/>
<path fill="none" stroke="#000000" stroke-width="1.0" d="M 385.6908770789237, 330.0L410.3640698147772, 330.0"/>
<path fill="none" stroke="#000000" stroke-width="1.0" d="M 414.78549890624686, 330.0L510.3582424032338, 330.0"/>
<path fill="none" stroke="#000000" stroke-width="1.0" d="M 517.0794848570287, 330.0L545.6411525571887, 330.0"/>
<path fill="none" stroke="#000000" stroke-width="1.0" d="M 552.7882495999991, 330.0L646.2284827081495, 330.0"/>
<path fill="none" stroke="#000000" stroke-width="1.0" d="M 654.5671249114024, 330.0L676.8079088647065, 330.0"/>
<path fill="none" stroke="#000000" stroke-width="1.0" d="M 681.5939234187812, 330.0L774.8963929940553, 330.0"/>
<path fill="none" stroke="#000000" stroke-width="1.0" d="M 781.132217220478, 330.0L811.2166474622768, 330.0"/>
<path fill="none" stroke="#000000" stroke-width="1.0" d="M 814.9820945659116, 330.0L916.731318721497, 330.0"/>
<path fill="none" stroke="#000000" stroke-width="1.0" d="M 917.3833779163331, 330.0L1013.0620645394296, 330.0"/>
<path fill="none" stroke="#000000" stroke-width="1.0" d="M 1020.9298418605531, 330.0L1044.321617916477, 330.0"/>
<path fill="none" stroke="#000000" stroke-width="1.0" d="M 249.35324733200926, 342.0L270.58828092856265, 342.0"/>
<path fill="none" stroke="#000000" stroke-width="1.0" d="M 285.23730582723624, 342.0L376.6059428641329, 342.0"/>
<path fill="none" stroke="#000000" stroke-width="1.0" d="M 386.6542951133892, 342.0L409.20169448402197, 342.0"/>
<path fill="none" stroke="#000000" stroke-width="1.0" d="M 414.62986627420855, 342.0L510.39260192054314, 342.0"/>
<path fill="none" stroke="#000000" stroke-width="1.0" d="M 517.09049372864, 342.0L543.4200673345442, 342.0"/>
<path fill="none" stroke="#000000" stroke-width="1.0" d="M 552.7979972406845, 342.0L648.1246756611998, 342.0"/>
<path fill="none" stroke="#000000" stroke-width="1.0" d="M 656.7896201436253, 342.0L676.525143657507, 342.0"/>
<path fill="none" stroke="#000000" stroke-width="1.0" d="M 681.7199480060423, 342.0L777.9230433547216, 342.0"/>
<path fill="none" stroke="#000000" stroke-width="1.0" d="M 782.1103545659638, 342.0L810.2214432006781, 342.0"/>
<path fill="none" stroke="#000000" stroke-width="1.0" d="M 813.1310813541756, 342.0L916.0946966852898, 342.0"/>
<path fill="none" stroke="#000000" stroke-width="1.0" d="M 917.7391092756252, 342.0L1017.1700788551709, 342.0"/>
<path fill="none" stroke="#000000" stroke-width="1.0" d="M 1021.7066717217162, 342.0L1044.0971293399057, 342.0"/>
<path fill="none" stroke="#000000" stroke-width="1.0" d="M 249.96003342545896, 354.0L269.6438200266719, 354.0"/>
<path fill="none" stroke="#000000" stroke-width="1.0" d="M 285.00182683600616, 354.0L380.6407388438183, 354.0"/>
<path fill="none" stroke="#000000" stroke-width="1.0" d="M 387.20602704200866, 354.0L408.5589262948931, 354.0"/>
<path fill="none" stroke="#000000" stroke-width="1.0" d="M 412.1111789157892, 354.0L510.0757154697988, 354.0"/>
<path fill="none" stroke="#000000" stroke-width="1.0" d="M 516.1220196194645, 354.0L542.6837200665314, 354.0"/>
<path fill="none" stroke="#000000" stroke-width="1.0" d="M 552.776204886649, 354.0L648.4265331474592, 354.0"/>
<path fill="none" stroke="#000000" stroke-width="1.0" d="M 656.4351289840331, 354.0L676.2817910851144, 354.0"/>
<path fill="none" stroke="#000000" stroke-width="1.0" d="M 683.0039035226685, 354.0L779.8266491667374, 354.0"/>
<path fill="none" stroke="#000000" stroke-width="1.0" d="M 783.1596233249836, 354.0L915.6156076678574, 354.0"/>
<path fill="none" stroke="#000000" stroke-width="1.0" d="M 917.8022687532293, 354.0L1019.182213638807, 354.0"/>
<path fill="none" stroke="#000000" stroke-width="1.0" d="M 1022.6932894375855, 354.0L1043.3073481341808, 354.0"/>
<path fill="none" stroke="#000000" stroke-width="1.0" d="M 251.0009584238781, 366.0L271.8521143488703, 366.0"/>
<path fill="none" stroke="#000000" stroke-width="1.0" d="M 284.90091822237576, 366.0L381.25639766848235, 366.0"/>
<path fill="none" stroke="#000000" stroke-width="1.0" d="M 387.5768972504859, 366.0L508.8034484056882, 366.0"/>
<path fill="none" stroke="#000000" stroke-width="1.0" d="M 516.6967926297018, 366.0L546.6411763937244, 366.0"/>
<path fill="none" stroke="#000000" stroke-width="1.0" d="M 552.8073189077353, 366.0L651.4649140735318, 366.0"/>
<path fill="none" stroke="#000000" stroke-width="1.0" d="M 653.7737472758705, 366.0L676.031844180828, 366.0"/>
<path fill="none" stroke="#000000" stroke-width="1.0" d="M 684.4644975918848, 366.0L915.3789587823027, 366.0"/>
<path fill="none" stroke="#000000" stroke-width="1.0" d="M 918.4973555909849, 366.0L1021.1145198405123, 366.0"/>
<path fill="none" stroke="#000000" stroke-width="1.0" d="M 1023.530539043845, 366.0L1042.323866140745, 366.0"/>
<path fill="none" stroke="#000000" stroke-width="1.0" d="M 252.59628303378167, 378.0L277.9357939999221, 378.0"/>
<path fill="none" stroke="#000000" stroke-width="1.0" d="M 284.9932972867863, 378.0L382.14101722845874, 378.0"/>
<path fill="none" stroke="#000000" stroke-width="1.0" d="M 388.3409715244376, 378.0L507.78230236278176, 378.0"/>
<path fill="none" stroke="#000000" stroke-width="1.0" d="M 527.0540510151761, 378.0L545.4836795790211, 378.0"/>
<path fill="none" stroke="#000000" stroke-width="1.0" d="M 553.8669041751916, 378.0L675.3468709548829, 378.0"/>
<path fill="none" stroke="#000000" stroke-width="1.0" d="M 685.3051693091844, 378.0L915.4696571417286, 378.0"/>
<path fill="none" stroke="#000000" stroke-width="1.0" d="M 922.7698435133208, 378.0L1041.4371381248993, 378.0"/>
<path fill="none" stroke="#000000" stroke-width="1.0" d="M 254.25984687680486, 390.0L279.58473208034826, 390.0"/>
<path fill="none" stroke="#000000" stroke-width="1.0" d="M 285.7771542142182, 390.0L462.2010894929126, 390.0"/>
<path fill="none" stroke="#000000" stroke-width="1.0" d="M 464.6001029093368, 390.0L509.6937505570452, 390.0"/>
<path fill="none" stroke="#000000" stroke-width="1.0" d="M 553.8924127862322, 390.0L671.9336452083514, 390.0"/>
<path fill="none" stroke="#000000" stroke-width="1.0" d="M 685.254459750008, 390.0L857.5009584917143, 390.0"/>
<path fill="none" stroke="#000000" stroke-width="1.0" d="M 858.3245933619519, 390.0L912.9944511300553, 390.0"/>
<path fill="none" stroke="#000000" stroke-width="1.0" d="M 925.1767197689926, 390.0L1040.930247710833, 390.0"/>
<path fill="none" stroke="#000000" stroke-width="1.0" d="M 287.63669988131517, 402.0L455.3088197126243, 402.0"/>
<path fill="none" stroke="#000000" stroke-width="1.0" d="M 464.69076105033173, 402.0L510.54625860815133, 402.0"/>
<path fill="none" stroke="#000000" stroke-width="1.0" d="M 552.3197378648825, 402.0L597.7962211249647, 402.0"/>
<path fill="none" stroke="#000000" stroke-width="1.0" d="M 602.4055854668276, 402.0L668.4843856868652, 402.0"/>
<path fill="none" stroke="#000000" stroke-width="1.0" d="M 685.1846990113681, 402.0L807.4333333333328, 402.0"/>
<path fill="none" stroke="#000000" stroke-width="1.0" d="M 809.4553194682463, 402.0L857.5878615272145, 402.0"/>
<path fill="none" stroke="#000000" stroke-width="1.0" d="M 859.3485108763873, 402.0L911.5424692275908, 402.0"/>
<path fill="none" stroke="#000000" stroke-width="1.0" d="M 925.0085409427741, 402.0L1041.0070699016503, 402.0"/>
<path fill="none" stroke="#000000" stroke-width="1.0" d="M 286.46535650880566, 414.0L402.93363623880293, 414.0"/>
<path fill="none" stroke="#000000" stroke-width="1.0" d="M 404.3444949245528, 414.0L453.1666898428577, 414.0"/>
<path fill="none" stroke="#000000" stroke-width="1.0" d="M 464.6038875770803, 414.0L510.5707337281889, 414.0"/>
<path fill="none" stroke="#000000" stroke-width="1.0" d="M 551.8178353799638, 414.0L597.6978349628703, 414.0"/>
<path fill="none" stroke="#000000" stroke-width="1.0" d="M 607.3929570560236, 414.0L660.6133043774021, 414.0"/>
<path fill="none" stroke="#000000" stroke-width="1.0" d="M 686.0300291818883, 414.0L733.5753829802369, 414.0"/>
<path fill="none" stroke="#000000" stroke-width="1.0" d="M 736.0923412397765, 414.0L799.28883522174, 414.0"/>
<path fill="none" stroke="#000000" stroke-width="1.0" d="M 812.5406249999994, 414.0L857.7177252431413, 414.0"/>
<path fill="none" stroke="#000000" stroke-width="1.0" d="M 860.9153249284234, 414.0L905.5135039217213, 414.0"/>
<path fill="none" stroke="#000000" stroke-width="1.0" d="M 925.452546365745, 414.0L974.326767389721, 414.0"/>
<path fill="none" stroke="#000000" stroke-width="1.0" d="M 975.9744586155821, 414.0L1040.383975414589, 414.0"/>
<path fill="none" stroke="#000000" stroke-width="1.0" d="M 284.8834377875406, 426.0L330.6545946456691, 426.0"/>
<path fill="none" stroke="#000000" stroke-width="1.0" d="M 338.71701341999074, 426.0L398.47905393851914, 426.0"/>
<path fill="none" stroke="#000000" stroke-width="1.0" d="M 407.2493364039341, 426.0L452.4115375133178, 426.0"/>
<path fill="none" stroke="#000000" stroke-width="1.0" d="M 464.79057860238015, 426.0L510.0752511428574, 426.0"/>
<path fill="none" stroke="#000000" stroke-width="1.0" d="M 551.8659959867686, 426.0L597.8615193768857, 426.0"/>
<path fill="none" stroke="#000000" stroke-width="1.0" d="M 609.4200600511792, 426.0L658.5141375410278, 426.0"/>
<path fill="none" stroke="#000000" stroke-width="1.0" d="M 687.6168495893958, 426.0L732.8770164084632, 426.0"/>
<path fill="none" stroke="#000000" stroke-width="1.0" d="M 736.020723409897, 426.0L781.2359407600642, 426.0"/>
<path fill="none" stroke="#000000" stroke-width="1.0" d="M 782.7346088778856, 426.0L784.1910535941943, 426.0"/>
<path fill="none" stroke="#000000" stroke-width="1.0" d="M 812.9973060030613, 426.0L857.7507026842673, 426.0"/>
<path fill="none" stroke="#000000" stroke-width="1.0" d="M 861.5654294033461, 426.0L904.8845515329216, 426.0"/>
<path fill="none" stroke="#000000" stroke-width="1.0" d="M 927.1239767871866, 426.0L973.1118000511669, 426.0"/>
<path fill="none" stroke="#000000" stroke-width="1.0" d="M 975.8348783179517, 426.0L1021.3731345391157, 426.0"/>
<path fill="none" stroke="#000000" stroke-width="1.0" d="M 1024.1333333333334, 426.0L1031.7135935167805, 426.0"/>
<path fill="none" stroke="#000000" stroke-width="1.0" d="M 284.6838321014984, 438.0L330.6046869874775, 438.0"/>
<path fill="none" stroke="#000000" stroke-width="1.0" d="M 341.4305707151202, 438.0L391.9614173478026, 438.0"/>
<path fill="none" stroke="#000000" stroke-width="1.0" d="M 410.60215592851563, 438.0L452.20802474525846, 438.0"/>
<path fill="none" stroke="#000000" stroke-width="1.0" d="M 466.8357176704415, 438.0L508.92585242737823, 438.0"/>
<path fill="none" stroke="#000000" stroke-width="1.0" d="M 552.4441017909978, 438.0L597.3967160055547, 438.0"/>
<path fill="none" stroke="#000000" stroke-width="1.0" d="M 610.0296422954639, 438.0L655.2420983578038, 438.0"/>
<path fill="none" stroke="#000000" stroke-width="1.0" d="M 688.2355949289249, 438.0L732.2789675709928, 438.0"/>
<path fill="none" stroke="#000000" stroke-width="1.0" d="M 735.9532127367662, 438.0L780.5421449271496, 438.0"/>
<path fill="none" stroke="#000000" stroke-width="1.0" d="M 813.7299630138023, 438.0L857.5458527138394, 438.0"/>
<path fill="none" stroke="#000000" stroke-width="1.0" d="M 862.5678579822187, 438.0L903.1214129722821, 438.0"/>
<path fill="none" stroke="#000000" stroke-width="1.0" d="M 927.9311068219367, 438.0L972.3452008514341, 438.0"/>
<path fill="none" stroke="#000000" stroke-width="1.0" d="M 975.7087438331289, 438.0L1020.4504060337749, 438.0"/>
<path fill="none" stroke="#000000" stroke-width="1.0" d="M 284.95118694621533, 450.0L330.82503048718576, 450.0"/>
<path fill="none" stroke="#000000" stroke-width="1.0" d="M 342.7111900736285, 450.0L389.3635662554787, 450.0"/>
<path fill="none" stroke="#000000" stroke-width="1.0" d="M 412.99508748168375, 450.0L451.56316330234216, 450.0"/>
<path fill="none" stroke="#000000" stroke-width="1.0" d="M 470.00286980202145, 450.0L506.97954907752245, 450.0"/>
<path fill="none" stroke="#000000" stroke-width="1.0" d="M 553.6760090986456, 450.0L595.1133955240155, 450.0"/>
<path fill="none" stroke="#000000" stroke-width="1.0" d="M 610.2388928817812, 450.0L651.4184267206635, 450.0"/>
<path fill="none" stroke="#000000" stroke-width="1.0" d="M 689.5934947149142, 450.0L731.1308957311754, 450.0"/>
<path fill="none" stroke="#000000" stroke-width="1.0" d="M 735.9887978278723, 450.0L780.0759022445883, 450.0"/>
<path fill="none" stroke="#000000" stroke-width="1.0" d="M 814.8214050691587, 450.0L856.980216846931, 450.0"/>
<path fill="none" stroke="#000000" stroke-width="1.0" d="M 863.4880188690804, 450.0L901.3136285740992, 450.0"/>
<path fill="none" stroke="#000000" stroke-width="1.0" d="M 928.8155782733844, 450.0L971.545445467333, 450.0"/>
<path fill="none" stroke="#000000" stroke-width="1.0" d="M 975.754539701207, 450.0L1019.9156042522272, 450.0"/>
<path fill="none" stroke="#000000" stroke-width="1.0" d="M 285.81691888744314, 462.0L329.48668775236536, 462.0"/>
<path fill="none" stroke="#000000" stroke-width="1.0" d="M 343.0091318595902, 462.0L385.97554253084, 462.0"/>
<path fill="none" stroke="#000000" stroke-width="1.0" d="M 414.34186618311435, 462.0L449.5216530225414, 462.0"/>
<path fill="none" stroke="#000000" stroke-width="1.0" d="M 472.8627957012757, 462.0L504.96248047331096, 462.0"/>
<path fill="none" stroke="#000000" stroke-width="1.0" d="M 555.6605730507181, 462.0L591.856901409652, 462.0"/>
<path fill="none" stroke="#000000" stroke-width="1.0" d="M 611.0400573029144, 462.0L649.1238767367311, 462.0"/>
<path fill="none" stroke="#000000" stroke-width="1.0" d="M 691.661056517627, 462.0L729.5345558270209, 462.0"/>
<path fill="none" stroke="#000000" stroke-width="1.0" d="M 736.2244311721173, 462.0L778.0936630660523, 462.0"/>
<path fill="none" stroke="#000000" stroke-width="1.0" d="M 817.8799063319186, 462.0L855.889188698604, 462.0"/>
<path fill="none" stroke="#000000" stroke-width="1.0" d="M 863.8106426967596, 462.0L899.9699718681525, 462.0"/>
<path fill="none" stroke="#000000" stroke-width="1.0" d="M 930.9592165016188, 462.0L970.5198425599077, 462.0"/>
<path fill="none" stroke="#000000" stroke-width="1.0" d="M 976.1323171246825, 462.0L1019.1642797319262, 462.0"/>
<path fill="none" stroke="#000000" stroke-width="1.0" d="M 287.41960842453915, 474.0L326.6646209425366, 474.0"/>
<path fill="none" stroke="#000000" stroke-width="1.0" d="M 343.35702361055996, 474.0L383.1626183295812, 474.0"/>
<path fill="none" stroke="#000000" stroke-width="1.0" d="M 414.4054543891018, 474.0L446.76149703851155, 474.0"/>
<path fill="none" stroke="#000000" stroke-width="1.0" d="M 472.80751576804187, 474.0L503.7745757590442, 474.0"/>
<path fill="none" stroke="#000000" stroke-width="1.0" d="M 557.5466481974714, 474.0L589.2807945882523, 474.0"/>
<path fill="none" stroke="#000000" stroke-width="1.0" d="M 613.3923867912531, 474.0L648.1382876498349, 474.0"/>
<path fill="none" stroke="#000000" stroke-width="1.0" d="M 693.0181491380845, 474.0L729.6243258295351, 474.0"/>
<path fill="none" stroke="#000000" stroke-width="1.0" d="M 737.1359122241179, 474.0L775.2683038384841, 474.0"/>
<path fill="none" stroke="#000000" stroke-width="1.0" d="M 819.0746374406476, 474.0L853.1862255745134, 474.0"/>
<path fill="none" stroke="#000000" stroke-width="1.0" d="M 859.3562135035186, 474.0L897.8292767425829, 474.0"/>
<path fill="none" stroke="#000000" stroke-width="1.0" d="M 932.4722359995321, 474.0L969.6085799918969, 474.0"/>
<path fill="none" stroke="#000000" stroke-width="1.0" d="M 976.8530927962161, 474.0L1017.3561902202434, 474.0"/>
<path fill="none" stroke="#000000" stroke-width="1.0" d="M 289.55545439467716, 486.0L323.4074650134967, 486.0"/>
<path fill="none" stroke="#000000" stroke-width="1.0" d="M 344.71299557238774, 486.0L381.3619337725486, 486.0"/>
<path fill="none" stroke="#000000" stroke-width="1.0" d="M 413.1312327460031, 486.0L447.12303297930987, 486.0"/>
<path fill="none" stroke="#000000" stroke-width="1.0" d="M 469.97942805060717, 486.0L503.93733440243784, 486.0"/>
<path fill="none" stroke="#000000" stroke-width="1.0" d="M 558.7407181903126, 486.0L589.9536791116316, 486.0"/>
<path fill="none" stroke="#000000" stroke-width="1.0" d="M 615.7201216075783, 486.0L648.0973364071324, 486.0"/>
<path fill="none" stroke="#000000" stroke-width="1.0" d="M 694.263299046952, 486.0L733.4009911603865, 486.0"/>
<path fill="none" stroke="#000000" stroke-width="1.0" d="M 739.4255746280512, 486.0L774.213931586312, 486.0"/>
<path fill="none" stroke="#000000" stroke-width="1.0" d="M 818.3709907021073, 486.0L849.3497387754472, 486.0"/>
<path fill="none" stroke="#000000" stroke-width="1.0" d="M 853.7109550210348, 486.0L892.5590319317203, 486.0"/>
<path fill="none" stroke="#000000" stroke-width="1.0" d="M 933.8125898059404, 486.0L971.1842171015056, 486.0"/>
<path fill="none" stroke="#000000" stroke-width="1.0" d="M 978.442523300628, 486.0L1014.4482669117983, 486.0"/>
<path fill="none" stroke="#000000" stroke-width="1.0" d="M 291.0833048612025, 498.0L321.9535633481131, 498.0"/>
<path fill="none" stroke="#000000" stroke-width="1.0" d="M 347.850880000558, 498.0L380.7511666505773, 498.0"/>
<path fill="none" stroke="#000000" stroke-width="1.0" d="M 411.87783251186283, 498.0L448.10080058736577, 498.0"/>
<path fill="none" stroke="#000000" stroke-width="1.0" d="M 469.181163360793, 498.0L504.4614504970001, 498.0"/>
<path fill="none" stroke="#000000" stroke-width="1.0" d="M 558.3003112840078, 498.0L592.8463827818614, 498.0"/>
<path fill="none" stroke="#000000" stroke-width="1.0" d="M 615.1333679475671, 498.0L649.1896481814804, 498.0"/>
<path fill="none" stroke="#000000" stroke-width="1.0" d="M 699.3968388883293, 498.0L738.2211279441951, 498.0"/>
<path fill="none" stroke="#000000" stroke-width="1.0" d="M 743.3546594448514, 498.0L774.184529408789, 498.0"/>
<path fill="none" stroke="#000000" stroke-width="1.0" d="M 817.1728120590594, 498.0L887.1943863248314, 498.0"/>
<path fill="none" stroke="#000000" stroke-width="1.0" d="M 937.4826838459333, 498.0L976.4178133032733, 498.0"/>
<path fill="none" stroke="#000000" stroke-width="1.0" d="M 982.222584619466, 498.0L1014.1974364976556, 498.0"/>
<path fill="none" stroke="#000000" stroke-width="1.0" d="M 291.66295304207904, 510.0L324.089207948757, 510.0"/>
<path fill="none" stroke="#000000" stroke-width="1.0" d="M 348.5131349098581, 510.0L381.54416937354216, 510.0"/>
<path fill="none" stroke="#000000" stroke-width="1.0" d="M 412.21490582777176, 510.0L450.0774089914379, 510.0"/>
<path fill="none" stroke="#000000" stroke-width="1.0" d="M 470.9477842352684, 510.0L499.44042912577214, 510.0"/>
<path fill="none" stroke="#000000" stroke-width="1.0" d="M 558.3081438092004, 510.0L592.9393103365232, 510.0"/>
<path fill="none" stroke="#000000" stroke-width="1.0" d="M 613.9611166645191, 510.0L650.5283028481472, 510.0"/>
<path fill="none" stroke="#000000" stroke-width="1.0" d="M 704.8598751897448, 510.0L775.8454062308542, 510.0"/>
<path fill="none" stroke="#000000" stroke-width="1.0" d="M 816.464735458386, 510.0L881.0617712739963, 510.0"/>
<path fill="none" stroke="#000000" stroke-width="1.0" d="M 942.8662444791778, 510.0L982.3037677225898, 510.0"/>
<path fill="none" stroke="#000000" stroke-width="1.0" d="M 983.0698662314674, 510.0L1015.2789351104582, 510.0"/>
<path fill="none" stroke="#000000" stroke-width="1.0" d="M 290.73320121263083, 522.0L326.51316907441964, 522.0"/>
<path fill="none" stroke="#000000" stroke-width="1.0" d="M 347.73557310808195, 522.0L383.01658554072253, 522.0"/>
<path fill="none" stroke="#000000" stroke-width="1.0" d="M 414.8175288185948, 522.0L449.6952268282224, 522.0"/>
<path fill="none" stroke="#000000" stroke-width="1.0" d="M 470.555779161431, 522.0L491.69509635510315, 522.0"/>
<path fill="none" stroke="#000000" stroke-width="1.0" d="M 564.1736837507442, 522.0L591.4515017226219, 522.0"/>
<path fill="none" stroke="#000000" stroke-width="1.0" d="M 612.1944612957504, 522.0L650.1328893454038, 522.0"/>
<path fill="none" stroke="#000000" stroke-width="1.0" d="M 710.5573941492769, 522.0L776.7707378590428, 522.0"/>
<path fill="none" stroke="#000000" stroke-width="1.0" d="M 818.4027466461441, 522.0L873.1398820209405, 522.0"/>
<path fill="none" stroke="#000000" stroke-width="1.0" d="M 948.3094446395185, 522.0L1016.6676797913523, 522.0"/>
<path fill="none" stroke="#000000" stroke-width="1.0" d="M 293.10878062424047, 534.0L324.9815145287001, 534.0"/>
<path fill="none" stroke="#000000" stroke-width="1.0" d="M 345.8993027864074, 534.0L383.51742732607136, 534.0"/>
<path fill="none" stroke="#000000" stroke-width="1.0" d="M 417.4984890535445, 534.0L448.52752958768133, 534.0"/>
<path fill="none" stroke="#000000" stroke-width="1.0" d="M 468.42832592557016, 534.0L488.4496053601572, 534.0"/>
<path fill="none" stroke="#000000" stroke-width="1.0" d="M 571.7648330188595, 534.0L592.1959623995881, 534.0"/>
<path fill="none" stroke="#000000" stroke-width="1.0" d="M 612.8646460426944, 534.0L647.2481264812066, 534.0"/>
<path fill="none" stroke="#000000" stroke-width="1.0" d="M 718.1599357766615, 534.0L775.2648464303559, 534.0"/>
<path fill="none" stroke="#000000" stroke-width="1.0" d="M 820.8982522764102, 534.0L864.5878309981928, 534.0"/>
<path fill="none" stroke="#000000" stroke-width="1.0" d="M 955.2508143483124, 534.0L1016.0743361238171, 534.0"/>
<path fill="none" stroke="#000000" stroke-width="1.0" d="M 300.46197055614266, 546.0L324.30832689742306, 546.0"/>
<path fill="none" stroke="#000000" stroke-width="1.0" d="M 345.2413551765369, 546.0L381.67303103605366, 546.0"/>
<path fill="none" stroke="#000000" stroke-width="1.0" d="M 421.5417835646844, 546.0L447.3523399563392, 546.0"/>
<path fill="none" stroke="#000000" stroke-width="1.0" d="M 466.20067085270296, 546.0L490.0324649013689, 546.0"/>
<path fill="none" stroke="#000000" stroke-width="1.0" d="M 573.845600460829, 546.0L594.486981762069, 546.0"/>
<path fill="none" stroke="#000000" stroke-width="1.0" d="M 614.0627232150184, 546.0L644.7028833442408, 546.0"/>
<path fill="none" stroke="#000000" stroke-width="1.0" d="M 726.6294877869136, 546.0L772.869304114876, 546.0"/>
<path fill="none" stroke="#000000" stroke-width="1.0" d="M 823.4951041189411, 546.0L860.3253686350204, 546.0"/>
<path fill="none" stroke="#000000" stroke-width="1.0" d="M 963.5195545420024, 546.0L1013.7891236602513, 546.0"/>
<path fill="none" stroke="#000000" stroke-width="1.0" d="M 306.4536783023385, 558.0L325.87037037036896, 558.0"/>
<path fill="none" stroke="#000000" stroke-width="1.0" d="M 346.2603800642503, 558.0L378.7713777958437, 558.0"/>
<path fill="none" stroke="#000000" stroke-width="1.0" d="M 423.350336673764, 558.0L446.6928578190034, 558.0"/>
<path fill="none" stroke="#000000" stroke-width="1.0" d="M 465.95431022608756, 558.0L491.42896846981466, 558.0"/>
<path fill="none" stroke="#000000" stroke-width="1.0" d="M 572.219367054934, 558.0L596.384222439754, 558.0"/>
<path fill="none" stroke="#000000" stroke-width="1.0" d="M 615.1987395760665, 558.0L640.342077412596, 558.0"/>
<path fill="none" stroke="#000000" stroke-width="1.0" d="M 732.9243361899221, 558.0L770.4420610045706, 558.0"/>
<path fill="none" stroke="#000000" stroke-width="1.0" d="M 827.4777680846362, 558.0L865.7129979104802, 558.0"/>
<path fill="none" stroke="#000000" stroke-width="1.0" d="M 971.7695252378414, 558.0L1011.3291578213776, 558.0"/>
<path fill="none" stroke="#000000" stroke-width="1.0" d="M 305.9310852786558, 570.0L328.4191886214835, 570.0"/>
<path fill="none" stroke="#000000" stroke-width="1.0" d="M 347.49111071588015, 570.0L375.5610726133268, 570.0"/>
<path fill="none" stroke="#000000" stroke-width="1.0" d="M 424.3030612102309, 570.0L448.23976744474675, 570.0"/>
<path fill="none" stroke="#000000" stroke-width="1.0" d="M 470.91249958474214, 570.0L487.4971345020201, 570.0"/>
<path fill="none" stroke="#000000" stroke-width="1.0" d="M 570.8999999999991, 570.0L595.7135824437539, 570.0"/>
<path fill="none" stroke="#000000" stroke-width="1.0" d="M 615.6227301679546, 570.0L639.0283856454216, 570.0"/>
<path fill="none" stroke="#000000" stroke-width="1.0" d="M 729.0724864674013, 570.0L766.7304615008658, 570.0"/>
<path fill="none" stroke="#000000" stroke-width="1.0" d="M 831.690366382418, 570.0L874.5789519683151, 570.0"/>
<path fill="none" stroke="#000000" stroke-width="1.0" d="M 971.5165189813722, 570.0L1008.2087905911854, 570.0"/>
<path fill="none" stroke="#000000" stroke-width="1.0" d="M 304.3848055705323, 582.0L329.4214594389433, 582.0"/>
<path fill="none" stroke="#000000" stroke-width="1.0" d="M 348.44916461029044, 582.0L372.3634622476021, 582.0"/>
<path fill="none" stroke="#000000" stroke-width="1.0" d="M 427.5023778281536, 582.0L450.47936120028, 582.0"/>
<path fill="none" stroke="#000000" stroke-width="1.0" d="M 577.9394962712975, 582.0L590.7532528846449, 582.0"/>
<path fill="none" stroke="#000000" stroke-width="1.0" d="M 613.704237761895, 582.0L637.479884984727, 582.0"/>
<path fill="none" stroke="#000000" stroke-width="1.0" d="M 721.1221860529996, 582.0L762.4072682908998, 582.0"/>
<path fill="none" stroke="#000000" stroke-width="1.0" d="M 834.1676449822858, 582.0L855.9149273567448, 582.0"/>
<path fill="none" stroke="#000000" stroke-width="1.0" d="M 857.5353040138579, 582.0L884.3631432080294, 582.0"/>
<path fill="none" stroke="#000000" stroke-width="1.0" d="M 964.1561034049548, 582.0L1003.9345102941778, 582.0"/>
<path fill="none" stroke="#000000" stroke-width="1.0" d="M 304.6965748334065, 594.0L326.39114750925006, 594.0"/>
<path fill="none" stroke="#000000" stroke-width="1.0" d="M 347.9828115901514, 594.0L371.7203782984926, 594.0"/>
<path fill="none" stroke="#000000" stroke-width="1.0" d="M 428.62457833689126, 594.0L455.45493668465446, 594.0"/>
<path fill="none" stroke="#000000" stroke-width="1.0" d="M 611.2110709194291, 594.0L634.6521312778724, 594.0"/>
<path fill="none" stroke="#000000" stroke-width="1.0" d="M 709.2289141370204, 594.0L759.3085061352364, 594.0"/>
<path fill="none" stroke="#000000" stroke-width="1.0" d="M 833.615209678346, 594.0L856.3996547648147, 594.0"/>
<path fill="none" stroke="#000000" stroke-width="1.0" d="M 952.2359867652461, 594.0L1000.0658136227589, 594.0"/>
<path fill="none" stroke="#000000" stroke-width="1.0" d="M 345.6749477609616, 606.0L368.8579162016125, 606.0"/>
<path fill="none" stroke="#000000" stroke-width="1.0" d="M 429.29514734265024, 606.0L458.1639147970334, 606.0"/>
<path fill="none" stroke="#000000" stroke-width="1.0" d="M 606.264792713682, 606.0L633.5502032287535, 606.0"/>
<path fill="none" stroke="#000000" stroke-width="1.0" d="M 737.9175933311396, 606.0L759.3828459883529, 606.0"/>
<path fill="none" stroke="#000000" stroke-width="1.0" d="M 836.1256781419384, 606.0L862.0109547544373, 606.0"/>
<path fill="none" stroke="#000000" stroke-width="1.0" d="M 978.040024588604, 606.0L999.0799465640225, 606.0"/>
<path fill="none" stroke="#000000" stroke-width="1.0" d="M 341.79190461501923, 618.0L366.8551811515219, 618.0"/>
<path fill="none" stroke="#000000" stroke-width="1.0" d="M 603.9852063331132, 618.0L632.6760103951738, 618.0"/>
<path fill="none" stroke="#000000" stroke-width="1.0" d="M 732.8308433178325, 618.0L758.2483382729863, 618.0"/>
<path fill="none" stroke="#000000" stroke-width="1.0" d="M 834.6578892933101, 618.0L866.0776769006213, 618.0"/>
<path fill="none" stroke="#000000" stroke-width="1.0" d="M 974.7363787013198, 618.0L999.301135279749, 618.0"/>
<path fill="none" stroke="#000000" stroke-width="1.0" d="M 337.9519083878043, 630.0L366.94409566729024, 630.0"/>
<path fill="none" stroke="#000000" stroke-width="1.0" d="M 728.2139122721358, 630.0L758.7433701781357, 630.0"/>
<path fill="none" stroke="#000000" stroke-width="1.0" d="M 969.3424459141322, 630.0L998.2700292982933, 630.0"/>
<path fill="none" stroke="#000000" stroke-width="1.0" d="M 337.0230996038671, 642.0L359.3857620597377, 642.0"/>
</g>
</svg>