<?xml version="1.0" encoding="utf-8"?>
<!DOCTYPE svg PUBLIC "-//W3C//DTD SVG 1.1 Tiny//EN" "http://www.w3.org/Graphics/SVG/1.1/DTD/svg11-tiny.dtd">
<svg version="1.1" baseProfile="tiny" id="openrndr-svg" xmlns="http://www.w3.org/2000/svg" xmlns:xlink="http://www.w3.org/1999/xlink" x="0px" y="0px" width="1280px" height="720px"><g >
<path fill="none" stroke="#000000" stroke-width="1.0" d="M 435.1721085794828, 87.0L458.7505909653724, 87.0"/>
<path fill="none" stroke="#000000" stroke-width="1.0" d="M 422.32945951123446, 93.0L469.58541633691954, 93.0"/>
<path fill="none" stroke="#000000" stroke-width="1.0" d="M 415.340789031747, 99.0L474.13045261112507, 99.0"/>
<path fill="none" stroke="#000000" stroke-width="1.0" d="M 597.6642234443982, 99.0L633.707614832216, 99.0"/>
<path fill="none" stroke="#000000" stroke-width="1.0" d="M 859.8674644913742, 99.0L885.3913062431357, 99.0"/>
<path fill="none" stroke="#000000" stroke-width="1.0" d="M 412.34597962904206, 105.0L478.5010449639113, 105.0"/>
<path fill="none" stroke="#000000" stroke-width="1.0" d="M 591.1134857212336, 105.0L642.9922923962629, 105.0"/>
<path fill="none" stroke="#000000" stroke-width="1.0" d="M 848.3290407620118, 105.0L892.7524197045084, 105.0"/>
<path fill="none" stroke="#000000" stroke-width="1.0" d="M 411.67511132728646, 111.0L479.5970974584869, 111.0"/>
<path fill="none" stroke="#000000" stroke-width="1.0" d="M 586.8623258720064, 111.0L648.6120779880735, 111.0"/>
<path fill="none" stroke="#000000" stroke-width="1.0" d="M 841.1151692898675, 111.0L896.6999999999985, 111.0"/>
<path fill="none" stroke="#000000" stroke-width="1.0" d="M 332.87502367372326, 117.0L364.04599753077605, 117.0"/>
<path fill="none" stroke="#000000" stroke-width="1.0" d="M 412.69914724355147, 117.0L479.66417108459154, 117.0"/>
<path fill="none" stroke="#000000" stroke-width="1.0" d="M 582.9935768133115, 117.0L650.7528803263843, 117.0"/>
<path fill="none" stroke="#000000" stroke-width="1.0" d="M 703.6944258402691, 117.0L738.48442085628, 117.0"/>
<path fill="none" stroke="#000000" stroke-width="1.0" d="M 836.6958511018886, 117.0L898.8049473091148, 117.0"/>
<path fill="none" stroke="#000000" stroke-width="1.0" d="M 950.5248607744998, 117.0L971.5685161534665, 117.0"/>
<path fill="none" stroke="#000000" stroke-width="1.0" d="M 324.83435493331217, 123.0L374.39315307943093, 123.0"/>
<path fill="none" stroke="#000000" stroke-width="1.0" d="M 415.43898317121995, 123.0L479.64595994671095, 123.0"/>
<path fill="none" stroke="#000000" stroke-width="1.0" d="M 582.765641794343, 123.0L650.8020101419088, 123.0"/>
<path fill="none" stroke="#000000" stroke-width="1.0" d="M 698.0678109988146, 123.0L748.7615730859368, 123.0"/>
<path fill="none" stroke="#000000" stroke-width="1.0" d="M 834.5621893267091, 123.0L901.2615259428705, 123.0"/>
<path fill="none" stroke="#000000" stroke-width="1.0" d="M 942.045550024227, 123.0L984.1383745775454, 123.0"/>
<path fill="none" stroke="#000000" stroke-width="1.0" d="M 320.42859824378985, 129.0L380.68714835803723, 129.0"/>
<path fill="none" stroke="#000000" stroke-width="1.0" d="M 418.6241269510632, 129.0L479.607037664259, 129.0"/>
<path fill="none" stroke="#000000" stroke-width="1.0" d="M 582.7358209975704, 129.0L648.9955307553621, 129.0"/>
<path fill="none" stroke="#000000" stroke-width="1.0" d="M 694.779871136189, 129.0L754.4511633669854, 129.0"/>
<path fill="none" stroke="#000000" stroke-width="1.0" d="M 834.8182381424467, 129.0L903.4591781043151, 129.0"/>
<path fill="none" stroke="#000000" stroke-width="1.0" d="M 937.5313573758997, 129.0L991.7821524657808, 129.0"/>
<path fill="none" stroke="#000000" stroke-width="1.0" d="M 316.31471816610065, 135.0L383.19702474159254, 135.0"/>
<path fill="none" stroke="#000000" stroke-width="1.0" d="M 417.67872675220656, 135.0L478.87175397474385, 135.0"/>
<path fill="none" stroke="#000000" stroke-width="1.0" d="M 582.7686043522074, 135.0L645.8763381014617, 135.0"/>
<path fill="none" stroke="#000000" stroke-width="1.0" d="M 692.9944980650507, 135.0L756.8999999999987, 135.0"/>
<path fill="none" stroke="#000000" stroke-width="1.0" d="M 835.9571797330955, 135.0L901.7588151927423, 135.0"/>
<path fill="none" stroke="#000000" stroke-width="1.0" d="M 935.5070406442364, 135.0L996.6459846593702, 135.0"/>
<path fill="none" stroke="#000000" stroke-width="1.0" d="M 315.68302656370963, 141.0L383.57042836342566, 141.0"/>
<path fill="none" stroke="#000000" stroke-width="1.0" d="M 421.89381158247323, 141.0L478.2355040929266, 141.0"/>
<path fill="none" stroke="#000000" stroke-width="1.0" d="M 582.7995072976884, 141.0L643.4153115880365, 141.0"/>
<path fill="none" stroke="#000000" stroke-width="1.0" d="M 690.3635813314679, 141.0L758.6754769999316, 141.0"/>
<path fill="none" stroke="#000000" stroke-width="1.0" d="M 836.6714844152342, 141.0L900.7669481328198, 141.0"/>
<path fill="none" stroke="#000000" stroke-width="1.0" d="M 933.0386570793996, 141.0L999.1492337673158, 141.0"/>
<path fill="none" stroke="#000000" stroke-width="1.0" d="M 315.6346945252336, 147.0L382.1844149363381, 147.0"/>
<path fill="none" stroke="#000000" stroke-width="1.0" d="M 425.9466914149283, 147.0L479.39080569928456, 147.0"/>
<path fill="none" stroke="#000000" stroke-width="1.0" d="M 583.9965419622189, 147.0L644.0768723528083, 147.0"/>
<path fill="none" stroke="#000000" stroke-width="1.0" d="M 690.3720437203049, 147.0L757.8566995464895, 147.0"/>
<path fill="none" stroke="#000000" stroke-width="1.0" d="M 837.0998007239991, 147.0L900.3266911663072, 147.0"/>
<path fill="none" stroke="#000000" stroke-width="1.0" d="M 930.7712180538422, 147.0L999.3039460628457, 147.0"/>
<path fill="none" stroke="#000000" stroke-width="1.0" d="M 315.66082777305905, 153.0L379.2533978216005, 153.0"/>
<path fill="none" stroke="#000000" stroke-width="1.0" d="M 428.479210303531, 153.0L483.30940143375705, 153.0"/>
<path fill="none" stroke="#000000" stroke-width="1.0" d="M 584.1743961476111, 153.0L639.2272100961869, 153.0"/>
<path fill="none" stroke="#000000" stroke-width="1.0" d="M 692.6991272180392, 153.0L756.7631379942763, 153.0"/>
<path fill="none" stroke="#000000" stroke-width="1.0" d="M 837.3853265464968, 153.0L898.6548271195658, 153.0"/>
<path fill="none" stroke="#000000" stroke-width="1.0" d="M 931.7299036281165, 153.0L998.1375385405831, 153.0"/>
<path fill="none" stroke="#000000" stroke-width="1.0" d="M 315.69692552417285, 159.0L375.9296296296288, 159.0"/>
<path fill="none" stroke="#000000" stroke-width="1.0" d="M 431.3806274837988, 159.0L499.672629813664, 159.0"/>
<path fill="none" stroke="#000000" stroke-width="1.0" d="M 582.2736708557306, 159.0L636.1965505708615, 159.0"/>
<path fill="none" stroke="#000000" stroke-width="1.0" d="M 692.7223056124799, 159.0L756.2345653874229, 159.0"/>
<path fill="none" stroke="#000000" stroke-width="1.0" d="M 837.6716711050856, 159.0L895.439234384733, 159.0"/>
<path fill="none" stroke="#000000" stroke-width="1.0" d="M 933.1141722322945, 159.0L997.3895947655104, 159.0"/>
<path fill="none" stroke="#000000" stroke-width="1.0" d="M 316.7231704227185, 165.0L377.38729947422036, 165.0"/>
<path fill="none" stroke="#000000" stroke-width="1.0" d="M 437.92356111442564, 165.0L518.3442256093406, 165.0"/>
<path fill="none" stroke="#000000" stroke-width="1.0" d="M 574.5278763980004, 165.0L633.2847158351813, 165.0"/>
<path fill="none" stroke="#000000" stroke-width="1.0" d="M 693.6097639443594, 165.0L756.015179892341, 165.0"/>
<path fill="none" stroke="#000000" stroke-width="1.0" d="M 843.0409598964782, 165.0L892.486532389976, 165.0"/>
<path fill="none" stroke="#000000" stroke-width="1.0" d="M 933.3581930142351, 165.0L996.9295663920849, 165.0"/>
<path fill="none" stroke="#000000" stroke-width="1.0" d="M 317.01215135406426, 171.0L372.3580393690232, 171.0"/>
<path fill="none" stroke="#000000" stroke-width="1.0" d="M 428.0221772733722, 171.0L526.8641703415634, 171.0"/>
<path fill="none" stroke="#000000" stroke-width="1.0" d="M 558.453126895194, 171.0L629.6632030263096, 171.0"/>
<path fill="none" stroke="#000000" stroke-width="1.0" d="M 696.5074060149016, 171.0L755.8589018607261, 171.0"/>
<path fill="none" stroke="#000000" stroke-width="1.0" d="M 847.0695282191888, 171.0L882.7166552902295, 171.0"/>
<path fill="none" stroke="#000000" stroke-width="1.0" d="M 934.7943221320884, 171.0L996.6127422683394, 171.0"/>
<path fill="none" stroke="#000000" stroke-width="1.0" d="M 315.5882156885367, 177.0L368.8930384893273, 177.0"/>
<path fill="none" stroke="#000000" stroke-width="1.0" d="M 405.399908570963, 177.0L530.6578565488322, 177.0"/>
<path fill="none" stroke="#000000" stroke-width="1.0" d="M 540.0456307641895, 177.0L627.5792957748793, 177.0"/>
<path fill="none" stroke="#000000" stroke-width="1.0" d="M 699.2202510572355, 177.0L754.2558435659882, 177.0"/>
<path fill="none" stroke="#000000" stroke-width="1.0" d="M 838.4075429791386, 177.0L886.7634680070737, 177.0"/>
<path fill="none" stroke="#000000" stroke-width="1.0" d="M 937.950955488642, 177.0L996.2958223267767, 177.0"/>
<path fill="none" stroke="#000000" stroke-width="1.0" d="M 310.61226921978704, 183.0L366.2901789839585, 183.0"/>
<path fill="none" stroke="#000000" stroke-width="1.0" d="M 400.0690015023564, 183.0L532.870853366124, 183.0"/>
<path fill="none" stroke="#000000" stroke-width="1.0" d="M 533.9845921112211, 183.0L645.4128927273575, 183.0"/>
<path fill="none" stroke="#000000" stroke-width="1.0" d="M 704.2055408353601, 183.0L746.8571420308003, 183.0"/>
<path fill="none" stroke="#000000" stroke-width="1.0" d="M 822.1883476896818, 183.0L896.77878918123, 183.0"/>
<path fill="none" stroke="#000000" stroke-width="1.0" d="M 940.7480949284311, 183.0L992.1678281514821, 183.0"/>
<path fill="none" stroke="#000000" stroke-width="1.0" d="M 293.2720241292266, 189.0L363.3284478945104, 189.0"/>
<path fill="none" stroke="#000000" stroke-width="1.0" d="M 397.01321435420596, 189.0L659.7276821896312, 189.0"/>
<path fill="none" stroke="#000000" stroke-width="1.0" d="M 710.283271113048, 189.0L748.7658507512297, 189.0"/>
<path fill="none" stroke="#000000" stroke-width="1.0" d="M 811.3307278050886, 189.0L914.2807203800226, 189.0"/>
<path fill="none" stroke="#000000" stroke-width="1.0" d="M 950.7345379631367, 189.0L986.22424455318, 189.0"/>
<path fill="none" stroke="#000000" stroke-width="1.0" d="M 274.71629385507356, 195.0L358.14574840365333, 195.0"/>
<path fill="none" stroke="#000000" stroke-width="1.0" d="M 395.83848666052563, 195.0L663.8098093319907, 195.0"/>
<path fill="none" stroke="#000000" stroke-width="1.0" d="M 702.0801779338358, 195.0L762.1058515840402, 195.0"/>
<path fill="none" stroke="#000000" stroke-width="1.0" d="M 805.5781654438579, 195.0L919.6670902041366, 195.0"/>
<path fill="none" stroke="#000000" stroke-width="1.0" d="M 948.6981604219569, 195.0L993.1553443689132, 195.0"/>
<path fill="none" stroke="#000000" stroke-width="1.0" d="M 267.6933633863139, 201.0L369.0357158435271, 201.0"/>
<path fill="none" stroke="#000000" stroke-width="1.0" d="M 395.41909434250323, 201.0L666.0197980553177, 201.0"/>
<path fill="none" stroke="#000000" stroke-width="1.0" d="M 692.1081595747114, 201.0L777.3754249619517, 201.0"/>
<path fill="none" stroke="#000000" stroke-width="1.0" d="M 802.2975618493647, 201.0L921.3205318647957, 201.0"/>
<path fill="none" stroke="#000000" stroke-width="1.0" d="M 938.7131354769215, 201.0L1008.8764928776934, 201.0"/>
<path fill="none" stroke="#000000" stroke-width="1.0" d="M 264.2535552222057, 207.0L391.14510959192467, 207.0"/>
<path fill="none" stroke="#000000" stroke-width="1.0" d="M 394.6978522074062, 207.0L666.8532242358311, 207.0"/>
<path fill="none" stroke="#000000" stroke-width="1.0" d="M 676.3347287960268, 207.0L785.6476993446162, 207.0"/>
<path fill="none" stroke="#000000" stroke-width="1.0" d="M 800.1253002638991, 207.0L922.2548441997775, 207.0"/>
<path fill="none" stroke="#000000" stroke-width="1.0" d="M 924.5474941804391, 207.0L1021.2678752076927, 207.0"/>
<path fill="none" stroke="#000000" stroke-width="1.0" d="M 262.1557833954795, 213.0L667.0078624196939, 213.0"/>
<path fill="none" stroke="#000000" stroke-width="1.0" d="M 672.9434853110423, 213.0L789.6679377234759, 213.0"/>
<path fill="none" stroke="#000000" stroke-width="1.0" d="M 798.5814562355347, 213.0L1027.573791297255, 213.0"/>
<path fill="none" stroke="#000000" stroke-width="1.0" d="M 260.892790321232, 219.0L667.6590476098731, 219.0"/>
<path fill="none" stroke="#000000" stroke-width="1.0" d="M 672.1966165330582, 219.0L792.1489448212444, 219.0"/>
<path fill="none" stroke="#000000" stroke-width="1.0" d="M 797.3510169697445, 219.0L1031.1538868364698, 219.0"/>
<path fill="none" stroke="#000000" stroke-width="1.0" d="M 260.1340381353851, 225.0L668.7771813567306, 225.0"/>
<path fill="none" stroke="#000000" stroke-width="1.0" d="M 671.7180113384311, 225.0L793.9896422987795, 225.0"/>
<path fill="none" stroke="#000000" stroke-width="1.0" d="M 796.3371723014421, 225.0L1033.4758661943845, 225.0"/>
<path fill="none" stroke="#000000" stroke-width="1.0" d="M 259.5993051679358, 231.0L795.3963146116944, 231.0"/>
<path fill="none" stroke="#000000" stroke-width="1.0" d="M 795.7824678666011, 231.0L1035.1008604383073, 231.0"/>
<path fill="none" stroke="#000000" stroke-width="1.0" d="M 259.03697248242463, 237.0L1036.3587634405862, 237.0"/>
<path fill="none" stroke="#000000" stroke-width="1.0" d="M 257.88563101742943, 243.0L1037.4120722384146, 243.0"/>
<path fill="none" stroke="#000000" stroke-width="1.0" d="M 256.29320890360816, 249.0L514.3854715874529, 249.0"/>
<path fill="none" stroke="#000000" stroke-width="1.0" d="M 515.4457849289331, 249.0L1038.0269458412204, 249.0"/>
<path fill="none" stroke="#000000" stroke-width="1.0" d="M 254.6796908041327, 255.0L412.1446748618499, 255.0"/>
<path fill="none" stroke="#000000" stroke-width="1.0" d="M 417.1713448137883, 255.0L513.3345418830609, 255.0"/>
<path fill="none" stroke="#000000" stroke-width="1.0" d="M 517.6176084920471, 255.0L1038.3837161040965, 255.0"/>
<path fill="none" stroke="#000000" stroke-width="1.0" d="M 253.19131145556844, 261.0L411.2494920976907, 261.0"/>
<path fill="none" stroke="#000000" stroke-width="1.0" d="M 418.37218490195755, 261.0L512.2705456613057, 261.0"/>
<path fill="none" stroke="#000000" stroke-width="1.0" d="M 516.3619953367465, 261.0L647.0228243961072, 261.0"/>
<path fill="none" stroke="#000000" stroke-width="1.0" d="M 650.2099414516421, 261.0L1038.7231597567827, 261.0"/>
<path fill="none" stroke="#000000" stroke-width="1.0" d="M 251.9371533695649, 267.0L410.8894956639432, 267.0"/>
<path fill="none" stroke="#000000" stroke-width="1.0" d="M 419.3095462332999, 267.0L511.17976184669135, 267.0"/>
<path fill="none" stroke="#000000" stroke-width="1.0" d="M 514.5811843714484, 267.0L645.1829345229482, 267.0"/>
<path fill="none" stroke="#000000" stroke-width="1.0" d="M 650.7729115037171, 267.0L1039.2888914623363, 267.0"/>
<path fill="none" stroke="#000000" stroke-width="1.0" d="M 250.8699762972975, 273.0L410.87472157619163, 273.0"/>
<path fill="none" stroke="#000000" stroke-width="1.0" d="M 419.7709972101333, 273.0L510.04714835033053, 273.0"/>
<path fill="none" stroke="#000000" stroke-width="1.0" d="M 512.5143046295802, 273.0L644.0138601057511, 273.0"/>
<path fill="none" stroke="#000000" stroke-width="1.0" d="M 651.351971741095, 273.0L681.4450211162856, 273.0"/>
<path fill="none" stroke="#000000" stroke-width="1.0" d="M 684.3732082114177, 273.0L818.0118986163186, 273.0"/>
<path fill="none" stroke="#000000" stroke-width="1.0" d="M 819.598321613608, 273.0L1040.0471929722996, 273.0"/>
<path fill="none" stroke="#000000" stroke-width="1.0" d="M 249.68106201040365, 279.0L279.39638721272235, 279.0"/>
<path fill="none" stroke="#000000" stroke-width="1.0" d="M 281.1329651204612, 279.0L411.7715639905291, 279.0"/>
<path fill="none" stroke="#000000" stroke-width="1.0" d="M 420.0484011859867, 279.0L508.3669205538779, 279.0"/>
<path fill="none" stroke="#000000" stroke-width="1.0" d="M 511.15938598254246, 279.0L643.2441322135272, 279.0"/>
<path fill="none" stroke="#000000" stroke-width="1.0" d="M 651.8444066879566, 279.0L679.5199231688086, 279.0"/>
<path fill="none" stroke="#000000" stroke-width="1.0" d="M 684.882310394501, 279.0L817.4053309535421, 279.0"/>
<path fill="none" stroke="#000000" stroke-width="1.0" d="M 820.2858587115927, 279.0L1040.478888123662, 279.0"/>
<path fill="none" stroke="#000000" stroke-width="1.0" d="M 247.96326189913424, 285.0L276.8893420006823, 285.0"/>
<path fill="none" stroke="#000000" stroke-width="1.0" d="M 282.2251130695769, 285.0L378.46079183101534, 285.0"/>
<path fill="none" stroke="#000000" stroke-width="1.0" d="M 383.98543856127753, 285.0L412.46662826489626, 285.0"/>
<path fill="none" stroke="#000000" stroke-width="1.0" d="M 420.2442428613442, 285.0L508.2730357650227, 285.0"/>
<path fill="none" stroke="#000000" stroke-width="1.0" d="M 510.75755132039785, 285.0L551.515651823028, 285.0"/>
<path fill="none" stroke="#000000" stroke-width="1.0" d="M 552.3555382218972, 285.0L642.908369550217, 285.0"/>
<path fill="none" stroke="#000000" stroke-width="1.0" d="M 652.0848812175354, 285.0L678.8684680764372, 285.0"/>
<path fill="none" stroke="#000000" stroke-width="1.0" d="M 684.7523483307989, 285.0L816.5764406658187, 285.0"/>
<path fill="none" stroke="#000000" stroke-width="1.0" d="M 820.9383963797447, 285.0L1040.7311728404932, 285.0"/>
<path fill="none" stroke="#000000" stroke-width="1.0" d="M 245.85386435036483, 291.0L274.70971364132834, 291.0"/>
<path fill="none" stroke="#000000" stroke-width="1.0" d="M 283.30881957190826, 291.0L377.2631389403648, 291.0"/>
<path fill="none" stroke="#000000" stroke-width="1.0" d="M 384.60625, 291.0L412.88076521569525, 291.0"/>
<path fill="none" stroke="#000000" stroke-width="1.0" d="M 420.3839316332688, 291.0L509.4310514632196, 291.0"/>
<path fill="none" stroke="#000000" stroke-width="1.0" d="M 510.6833231350628, 291.0L550.813748427754, 291.0"/>
<path fill="none" stroke="#000000" stroke-width="1.0" d="M 554.4572661268562, 291.0L642.6553317348092, 291.0"/>
<path fill="none" stroke="#000000" stroke-width="1.0" d="M 652.0228345783767, 291.0L678.4840862702645, 291.0"/>
<path fill="none" stroke="#000000" stroke-width="1.0" d="M 684.3697451286196, 291.0L773.3068180331933, 291.0"/>
<path fill="none" stroke="#000000" stroke-width="1.0" d="M 775.7122923153794, 291.0L814.7554235260543, 291.0"/>
<path fill="none" stroke="#000000" stroke-width="1.0" d="M 821.4570351672132, 291.0L1014.0328856894706, 291.0"/>
<path fill="none" stroke="#000000" stroke-width="1.0" d="M 1015.3444903919028, 291.0L1040.9342617758016, 291.0"/>
<path fill="none" stroke="#000000" stroke-width="1.0" d="M 244.29660984386285, 297.0L273.5323333076872, 297.0"/>
<path fill="none" stroke="#000000" stroke-width="1.0" d="M 284.3927221392267, 297.0L376.43335748573816, 297.0"/>
<path fill="none" stroke="#000000" stroke-width="1.0" d="M 385.05297735500994, 297.0L412.99627233302243, 297.0"/>
<path fill="none" stroke="#000000" stroke-width="1.0" d="M 420.49247273200206, 297.0L509.6158692760308, 297.0"/>
<path fill="none" stroke="#000000" stroke-width="1.0" d="M 511.01988183629607, 297.0L549.6095891009018, 297.0"/>
<path fill="none" stroke="#000000" stroke-width="1.0" d="M 554.2020483686993, 297.0L642.4621491246934, 297.0"/>
<path fill="none" stroke="#000000" stroke-width="1.0" d="M 651.959723978558, 297.0L678.1419886381726, 297.0"/>
<path fill="none" stroke="#000000" stroke-width="1.0" d="M 683.9714469034401, 297.0L772.1699646523581, 297.0"/>
<path fill="none" stroke="#000000" stroke-width="1.0" d="M 776.3281180721975, 297.0L813.2432555572767, 297.0"/>
<path fill="none" stroke="#000000" stroke-width="1.0" d="M 821.7726087705169, 297.0L1013.4038340665834, 297.0"/>
<path fill="none" stroke="#000000" stroke-width="1.0" d="M 1015.980688343765, 297.0L1041.2244955506817, 297.0"/>
<path fill="none" stroke="#000000" stroke-width="1.0" d="M 243.73795807204436, 303.0L273.0051272747912, 303.0"/>
<path fill="none" stroke="#000000" stroke-width="1.0" d="M 285.4867609268106, 303.0L376.06342400887854, 303.0"/>
<path fill="none" stroke="#000000" stroke-width="1.0" d="M 385.0037950138484, 303.0L412.7701981073822, 303.0"/>
<path fill="none" stroke="#000000" stroke-width="1.0" d="M 420.59461843012764, 303.0L509.7939777395315, 303.0"/>
<path fill="none" stroke="#000000" stroke-width="1.0" d="M 511.8634019309691, 303.0L548.0380221157773, 303.0"/>
<path fill="none" stroke="#000000" stroke-width="1.0" d="M 552.877414399999, 303.0L642.3134617707971, 303.0"/>
<path fill="none" stroke="#000000" stroke-width="1.0" d="M 652.19886553061, 303.0L677.8364769576401, 303.0"/>
<path fill="none" stroke="#000000" stroke-width="1.0" d="M 683.5618956429029, 303.0L772.0152903381975, 303.0"/>
<path fill="none" stroke="#000000" stroke-width="1.0" d="M 777.531406029466, 303.0L812.7103361541378, 303.0"/>
<path fill="none" stroke="#000000" stroke-width="1.0" d="M 821.7213476665743, 303.0L1012.7474321264444, 303.0"/>
<path fill="none" stroke="#000000" stroke-width="1.0" d="M 1016.7108161005608, 303.0L1041.7464331255617, 303.0"/>
<path fill="none" stroke="#000000" stroke-width="1.0" d="M 243.6072804288631, 309.0L272.8160684055355, 309.0"/>
<path fill="none" stroke="#000000" stroke-width="1.0" d="M 287.3317287481758, 309.0L375.78978265581435, 309.0"/>
<path fill="none" stroke="#000000" stroke-width="1.0" d="M 384.878132972201, 309.0L412.33380262660654, 309.0"/>
<path fill="none" stroke="#000000" stroke-width="1.0" d="M 420.5016992457622, 309.0L509.95962598288406, 309.0"/>
<path fill="none" stroke="#000000" stroke-width="1.0" d="M 513.3143876088646, 309.0L546.6993692202154, 309.0"/>
<path fill="none" stroke="#000000" stroke-width="1.0" d="M 552.812799999999, 309.0L642.1938632676761, 309.0"/>
<path fill="none" stroke="#000000" stroke-width="1.0" d="M 652.5956203015521, 309.0L677.5619414541973, 309.0"/>
<path fill="none" stroke="#000000" stroke-width="1.0" d="M 683.1455333346485, 309.0L771.9967665368146, 309.0"/>
<path fill="none" stroke="#000000" stroke-width="1.0" d="M 779.5241883464578, 309.0L812.6044140053644, 309.0"/>
<path fill="none" stroke="#000000" stroke-width="1.0" d="M 820.9886973268751, 309.0L1012.1625833428843, 309.0"/>
<path fill="none" stroke="#000000" stroke-width="1.0" d="M 1018.3184404141971, 309.0L1042.6310994317303, 309.0"/>
<path fill="none" stroke="#000000" stroke-width="1.0" d="M 243.91788602661762, 315.0L272.6755419377324, 315.0"/>
<path fill="none" stroke="#000000" stroke-width="1.0" d="M 286.7055733373966, 315.0L375.5897959693999, 315.0"/>
<path fill="none" stroke="#000000" stroke-width="1.0" d="M 384.8923153627791, 315.0L411.8292037706086, 315.0"/>
<path fill="none" stroke="#000000" stroke-width="1.0" d="M 418.4176065987805, 315.0L510.107063135251, 315.0"/>
<path fill="none" stroke="#000000" stroke-width="1.0" d="M 514.8868253209981, 315.0L545.7630513124341, 315.0"/>
<path fill="none" stroke="#000000" stroke-width="1.0" d="M 552.7819775999991, 315.0L642.0988546439181, 315.0"/>
<path fill="none" stroke="#000000" stroke-width="1.0" d="M 653.0040378576539, 315.0L677.3128432587381, 315.0"/>
<path fill="none" stroke="#000000" stroke-width="1.0" d="M 682.726801966319, 315.0L772.0464504588798, 315.0"/>
<path fill="none" stroke="#000000" stroke-width="1.0" d="M 780.4701695189392, 315.0L812.3731892324242, 315.0"/>
<path fill="none" stroke="#000000" stroke-width="1.0" d="M 818.8303692702139, 315.0L1011.7741973029084, 315.0"/>
<path fill="none" stroke="#000000" stroke-width="1.0" d="M 1020.0688977203721, 315.0L1043.43910095477, 315.0"/>
<path fill="none" stroke="#000000" stroke-width="1.0" d="M 244.71759052010623, 321.0L272.3810958661627, 321.0"/>
<path fill="none" stroke="#000000" stroke-width="1.0" d="M 285.8348237034588, 321.0L375.44949504171655, 321.0"/>
<path fill="none" stroke="#000000" stroke-width="1.0" d="M 384.95567233732027, 321.0L411.2582249898229, 321.0"/>
<path fill="none" stroke="#000000" stroke-width="1.0" d="M 416.25365382279193, 321.0L510.2305383257946, 321.0"/>
<path fill="none" stroke="#000000" stroke-width="1.0" d="M 516.113495984553, 321.0L545.3484434048919, 321.0"/>
<path fill="none" stroke="#000000" stroke-width="1.0" d="M 552.7751167999991, 321.0L642.5655992190214, 321.0"/>
<path fill="none" stroke="#000000" stroke-width="1.0" d="M 653.4981701417339, 321.0L677.0836974202026, 321.0"/>
<path fill="none" stroke="#000000" stroke-width="1.0" d="M 682.3101435255553, 321.0L772.0957176402029, 321.0"/>
<path fill="none" stroke="#000000" stroke-width="1.0" d="M 780.7322088859851, 321.0L811.9403749215146, 321.0"/>
<path fill="none" stroke="#000000" stroke-width="1.0" d="M 816.5999999999999, 321.0L1011.7699147905553, 321.0"/>
<path fill="none" stroke="#000000" stroke-width="1.0" d="M 1020.740383366958, 321.0L1043.9726778760325, 321.0"/>
<path fill="none" stroke="#000000" stroke-width="1.0" d="M 246.06149876452403, 327.0L271.96003965316567, 327.0"/>
<path fill="none" stroke="#000000" stroke-width="1.0" d="M 285.6508054214404, 327.0L375.3549188716103, 327.0"/>
<path fill="none" stroke="#000000" stroke-width="1.0" d="M 385.46367416212826, 327.0L410.66396613576217, 327.0"/>
<path fill="none" stroke="#000000" stroke-width="1.0" d="M 415.0751593500758, 327.0L510.32430068367705, 327.0"/>
<path fill="none" stroke="#000000" stroke-width="1.0" d="M 516.8898603617412, 327.0L545.5612024105072, 327.0"/>
<path fill="none" stroke="#000000" stroke-width="1.0" d="M 552.7823871999989, 327.0L645.1653943773483, 327.0"/>
<path fill="none" stroke="#000000" stroke-width="1.0" d="M 654.1538512429972, 327.0L676.8901498321052, 327.0"/>
<path fill="none" stroke="#000000" stroke-width="1.0" d="M 681.8999999999992, 327.0L773.7184578504337, 327.0"/>
<path fill="none" stroke="#000000" stroke-width="1.0" d="M 780.9186020789372, 327.0L811.4643687306786, 327.0"/>
<path fill="none" stroke="#000000" stroke-width="1.0" d="M 815.4832300877886, 327.0L916.9051387124158, 327.0"/>
<path fill="none" stroke="#000000" stroke-width="1.0" d="M 917.2558652164788, 327.0L1012.3212792366088, 327.0"/>
<path fill="none" stroke="#000000" stroke-width="1.0" d="M 1020.8828477163274, 327.0L1044.2606651070098, 327.0"/>
<path fill="none" stroke="#000000" stroke-width="1.0" d="M 247.62257191185586, 333.0L271.44813031473325, 333.0"/>
<path fill="none" stroke="#000000" stroke-width="1.0" d="M 285.4745508150528, 333.0L375.2963043313479, 333.0"/>
<path fill="none" stroke="#000000" stroke-width="1.0" d="M 385.9098148081879, 333.0L410.06550923570126, 333.0"/>
<path fill="none" stroke="#000000" stroke-width="1.0" d="M 414.6617994266799, 333.0L510.38259933806125, 333.0"/>
<path fill="none" stroke="#000000" stroke-width="1.0" d="M 517.1224314173026, 333.0L545.228690074304, 333.0"/>
<path fill="none" stroke="#000000" stroke-width="1.0" d="M 552.7939583999993, 333.0L647.032814815802, 333.0"/>
<path fill="none" stroke="#000000" stroke-width="1.0" d="M 655.0514373627229, 333.0L676.7310066224021, 333.0"/>
<path fill="none" stroke="#000000" stroke-width="1.0" d="M 681.5657605501351, 333.0L775.9639439202581, 333.0"/>
<path fill="none" stroke="#000000" stroke-width="1.0" d="M 781.3627045522016, 333.0L810.9659027622805, 333.0"/>
<path fill="none" stroke="#000000" stroke-width="1.0" d="M 814.5057620334851, 333.0L916.5620378496831, 333.0"/>
<path fill="none" stroke="#000000" stroke-width="1.0" d="M 917.4964054391494, 333.0L1014.2219995502879, 333.0"/>
<path fill="none" stroke="#000000" stroke-width="1.0" d="M 1021.0529931136434, 333.0L1044.3320670309631, 333.0"/>
<path fill="none" stroke="#000000" stroke-width="1.0" d="M 248.8767912629039, 339.0L270.8811673234833, 339.0"/>
<path fill="none" stroke="#000000" stroke-width="1.0" d="M 285.3118107551335, 339.0L375.6016108162067, 339.0"/>
<path fill="none" stroke="#000000" stroke-width="1.0" d="M 386.3776131977005, 339.0L409.48193631691436, 339.0"/>
<path fill="none" stroke="#000000" stroke-width="1.0" d="M 414.74975889656446, 339.0L510.3998298289969, 339.0"/>
<path fill="none" stroke="#000000" stroke-width="1.0" d="M 516.8343863487826, 339.0L543.9983403264667, 339.0"/>
<path fill="none" stroke="#000000" stroke-width="1.0" d="M 552.7999999999989, 339.0L647.9595446546415, 339.0"/>
<path fill="none" stroke="#000000" stroke-width="1.0" d="M 656.2169654182228, 339.0L676.5903428776571, 339.0"/>
<path fill="none" stroke="#000000" stroke-width="1.0" d="M 681.5879735169549, 339.0L777.383026088338, 339.0"/>
<path fill="none" stroke="#000000" stroke-width="1.0" d="M 781.8538982982517, 339.0L810.4657091186855, 339.0"/>
<path fill="none" stroke="#000000" stroke-width="1.0" d="M 813.5895678913845, 339.0L916.242400157937, 339.0"/>
<path fill="none" stroke="#000000" stroke-width="1.0" d="M 917.675219415974, 339.0L1016.5310835032085, 339.0"/>
<path fill="none" stroke="#000000" stroke-width="1.0" d="M 1021.4764302071208, 339.0L1044.2161284609174, 339.0"/>
<path fill="none" stroke="#000000" stroke-width="1.0" d="M 249.7116714543008, 345.0L270.295160652312, 345.0"/>
<path fill="none" stroke="#000000" stroke-width="1.0" d="M 285.1683361125202, 345.0L378.02718749598586, 345.0"/>
<path fill="none" stroke="#000000" stroke-width="1.0" d="M 386.9786791130813, 345.0L408.9323294066762, 345.0"/>
<path fill="none" stroke="#000000" stroke-width="1.0" d="M 414.3271779660464, 345.0L510.3670466748513, 345.0"/>
<path fill="none" stroke="#000000" stroke-width="1.0" d="M 517.6420846485521, 345.0L542.9894018706057, 345.0"/>
<path fill="none" stroke="#000000" stroke-width="1.0" d="M 552.7930461067926, 345.0L648.1168582031981, 345.0"/>
<path fill="none" stroke="#000000" stroke-width="1.0" d="M 657.1961816810463, 345.0L676.4624077270324, 345.0"/>
<path fill="none" stroke="#000000" stroke-width="1.0" d="M 681.9767328911021, 345.0L778.428483604061, 345.0"/>
<path fill="none" stroke="#000000" stroke-width="1.0" d="M 782.3712457223264, 345.0L809.9845199022582, 345.0"/>
<path fill="none" stroke="#000000" stroke-width="1.0" d="M 812.6598497130137, 345.0L915.9568390263158, 345.0"/>
<path fill="none" stroke="#000000" stroke-width="1.0" d="M 917.7847186851182, 345.0L1017.7182206866191, 345.0"/>
<path fill="none" stroke="#000000" stroke-width="1.0" d="M 1021.9460699148558, 345.0L1043.9424084772788, 345.0"/>
<path fill="none" stroke="#000000" stroke-width="1.0" d="M 250.0261228267974, 351.0L269.7343718236364, 351.0"/>
<path fill="none" stroke="#000000" stroke-width="1.0" d="M 285.04987775805046, 351.0L380.01624601294554, 351.0"/>
<path fill="none" stroke="#000000" stroke-width="1.0" d="M 387.16012005886466, 351.0L408.43577053226124, 351.0"/>
<path fill="none" stroke="#000000" stroke-width="1.0" d="M 413.14544700668785, 351.0L510.21903281832994, 351.0"/>
<path fill="none" stroke="#000000" stroke-width="1.0" d="M 516.8121835213747, 351.0L542.7914333585396, 351.0"/>
<path fill="none" stroke="#000000" stroke-width="1.0" d="M 552.7805887197156, 351.0L648.1888552366065, 351.0"/>
<path fill="none" stroke="#000000" stroke-width="1.0" d="M 657.0179018312249, 351.0L676.3414502996911, 351.0"/>
<path fill="none" stroke="#000000" stroke-width="1.0" d="M 682.6364327291622, 351.0L779.371474228846, 351.0"/>
<path fill="none" stroke="#000000" stroke-width="1.0" d="M 782.8979704496634, 351.0L915.7159678439577, 351.0"/>
<path fill="none" stroke="#000000" stroke-width="1.0" d="M 917.8172636581285, 351.0L1018.7152077646448, 351.0"/>
<path fill="none" stroke="#000000" stroke-width="1.0" d="M 1022.4419702855864, 351.0L1043.5408577290075, 351.0"/>
<path fill="none" stroke="#000000" stroke-width="1.0" d="M 249.75678804575045, 357.0L269.8049958007312, 357.0"/>
<path fill="none" stroke="#000000" stroke-width="1.0" d="M 284.9621865625618, 357.0L381.05411300931064, 357.0"/>
<path fill="none" stroke="#000000" stroke-width="1.0" d="M 387.26555164521807, 357.0L409.19007993367177, 357.0"/>
<path fill="none" stroke="#000000" stroke-width="1.0" d="M 410.9411701065437, 357.0L509.87246221056114, 357.0"/>
<path fill="none" stroke="#000000" stroke-width="1.0" d="M 515.7619257763971, 357.0L543.8055470759645, 357.0"/>
<path fill="none" stroke="#000000" stroke-width="1.0" d="M 552.7751257350379, 357.0L648.8110429713349, 357.0"/>
<path fill="none" stroke="#000000" stroke-width="1.0" d="M 655.8068975769775, 357.0L676.2217197247949, 357.0"/>
<path fill="none" stroke="#000000" stroke-width="1.0" d="M 683.3815923314648, 357.0L780.2825546204472, 357.0"/>
<path fill="none" stroke="#000000" stroke-width="1.0" d="M 783.417337588887, 357.0L915.5303999999998, 357.0"/>
<path fill="none" stroke="#000000" stroke-width="1.0" d="M 917.765130370189, 357.0L1019.6401824648603, 357.0"/>
<path fill="none" stroke="#000000" stroke-width="1.0" d="M 1022.9433992169472, 357.0L1043.06802730945, 357.0"/>
<path fill="none" stroke="#000000" stroke-width="1.0" d="M 250.37999200459075, 363.0L270.90645228692114, 363.0"/>
<path fill="none" stroke="#000000" stroke-width="1.0" d="M 284.91101339689186, 363.0L381.34623744921527, 363.0"/>
<path fill="none" stroke="#000000" stroke-width="1.0" d="M 387.4458801419321, 363.0L509.24604223087164, 363.0"/>
<path fill="none" stroke="#000000" stroke-width="1.0" d="M 516.1352849725891, 363.0L546.1905123261846, 363.0"/>
<path fill="none" stroke="#000000" stroke-width="1.0" d="M 552.7891152430171, 363.0L650.3079073276198, 363.0"/>
<path fill="none" stroke="#000000" stroke-width="1.0" d="M 654.4644566022986, 363.0L676.0974651315064, 363.0"/>
<path fill="none" stroke="#000000" stroke-width="1.0" d="M 684.1230362918436, 363.0L781.6564072911547, 363.0"/>
<path fill="none" stroke="#000000" stroke-width="1.0" d="M 783.2718782558505, 363.0L915.41074888358, 363.0"/>
<path fill="none" stroke="#000000" stroke-width="1.0" d="M 917.8604815226017, 363.0L1020.5648098461952, 363.0"/>
<path fill="none" stroke="#000000" stroke-width="1.0" d="M 1023.4296246065741, 363.0L1042.5717963081927, 363.0"/>
<path fill="none" stroke="#000000" stroke-width="1.0" d="M 251.62499999999847, 369.0L273.05900949513136, 369.0"/>
<path fill="none" stroke="#000000" stroke-width="1.0" d="M 284.90042981613817, 369.0L381.18781832676103, 369.0"/>
<path fill="none" stroke="#000000" stroke-width="1.0" d="M 387.74195840920345, 369.0L508.2621565915525, 369.0"/>
<path fill="none" stroke="#000000" stroke-width="1.0" d="M 519.0999999999964, 369.0L546.8257308211079, 369.0"/>
<path fill="none" stroke="#000000" stroke-width="1.0" d="M 552.8351054688723, 369.0L652.6148412540126, 369.0"/>
<path fill="none" stroke="#000000" stroke-width="1.0" d="M 653.0831624088843, 369.0L675.962935648988, 369.0"/>
<path fill="none" stroke="#000000" stroke-width="1.0" d="M 684.7715892041327, 369.0L915.3676278838368, 369.0"/>
<path fill="none" stroke="#000000" stroke-width="1.0" d="M 919.4596362111101, 369.0L1042.0820060954875, 369.0"/>
<path fill="none" stroke="#000000" stroke-width="1.0" d="M 252.5132898027785, 375.0L276.22539687731944, 375.0"/>
<path fill="none" stroke="#000000" stroke-width="1.0" d="M 284.93510722752114, 375.0L381.6272581713487, 375.0"/>
<path fill="none" stroke="#000000" stroke-width="1.0" d="M 388.4912610288078, 375.0L507.61968806145927, 375.0"/>
<path fill="none" stroke="#000000" stroke-width="1.0" d="M 523.7212403382114, 375.0L546.0523817482358, 375.0"/>
<path fill="none" stroke="#000000" stroke-width="1.0" d="M 553.0614392214578, 375.0L675.7036444956444, 375.0"/>
<path fill="none" stroke="#000000" stroke-width="1.0" d="M 685.2045763364641, 375.0L915.4116503899074, 375.0"/>
<path fill="none" stroke="#000000" stroke-width="1.0" d="M 921.7461261831079, 375.0L1041.6342257634108, 375.0"/>
<path fill="none" stroke="#000000" stroke-width="1.0" d="M 252.61450488737796, 381.0L278.92181503566826, 381.0"/>
<path fill="none" stroke="#000000" stroke-width="1.0" d="M 285.09475703086457, 381.0L382.9716082584251, 381.0"/>
<path fill="none" stroke="#000000" stroke-width="1.0" d="M 387.69210215262876, 381.0L508.1490880559399, 381.0"/>
<path fill="none" stroke="#000000" stroke-width="1.0" d="M 528.5136352099776, 381.0L535.9124987614573, 381.0"/>
<path fill="none" stroke="#000000" stroke-width="1.0" d="M 554.6162368943454, 381.0L674.8058851570064, 381.0"/>
<path fill="none" stroke="#000000" stroke-width="1.0" d="M 685.3457179465552, 381.0L915.4521528519998, 381.0"/>
<path fill="none" stroke="#000000" stroke-width="1.0" d="M 922.2202210526505, 381.0L1041.263793729584, 381.0"/>
<path fill="none" stroke="#000000" stroke-width="1.0" d="M 253.29518747505153, 387.0L279.7103925483799, 387.0"/>
<path fill="none" stroke="#000000" stroke-width="1.0" d="M 285.475025969625, 387.0L385.2483729019332, 387.0"/>
<path fill="none" stroke="#000000" stroke-width="1.0" d="M 386.4181520492524, 387.0L509.1775924381908, 387.0"/>
<path fill="none" stroke="#000000" stroke-width="1.0" d="M 554.2764623280657, 387.0L673.1158393918219, 387.0"/>
<path fill="none" stroke="#000000" stroke-width="1.0" d="M 685.3056367833151, 387.0L914.0876690938892, 387.0"/>
<path fill="none" stroke="#000000" stroke-width="1.0" d="M 924.7350778215072, 387.0L1041.0059430856322, 387.0"/>
<path fill="none" stroke="#000000" stroke-width="1.0" d="M 255.9636948362865, 393.0L279.1107988846691, 393.0"/>
<path fill="none" stroke="#000000" stroke-width="1.0" d="M 286.16907262226107, 393.0L458.383498756079, 393.0"/>
<path fill="none" stroke="#000000" stroke-width="1.0" d="M 464.61103625488045, 393.0L510.11702629612944, 393.0"/>
<path fill="none" stroke="#000000" stroke-width="1.0" d="M 553.4722408953552, 393.0L670.4999999999994, 393.0"/>
<path fill="none" stroke="#000000" stroke-width="1.0" d="M 685.2021287743753, 393.0L857.5110297397773, 393.0"/>
<path fill="none" stroke="#000000" stroke-width="1.0" d="M 859.111070910001, 393.0L911.8312383943131, 393.0"/>
<path fill="none" stroke="#000000" stroke-width="1.0" d="M 925.1273980292053, 393.0L1040.9014395592505, 393.0"/>
<path fill="none" stroke="#000000" stroke-width="1.0" d="M 262.25731298469543, 399.0L272.0464360387963, 399.0"/>
<path fill="none" stroke="#000000" stroke-width="1.0" d="M 287.2618363904218, 399.0L456.06209853832087, 399.0"/>
<path fill="none" stroke="#000000" stroke-width="1.0" d="M 464.66412165819037, 399.0L510.474044653323, 399.0"/>
<path fill="none" stroke="#000000" stroke-width="1.0" d="M 552.6534352191385, 399.0L671.1283600386822, 399.0"/>
<path fill="none" stroke="#000000" stroke-width="1.0" d="M 685.1526395676933, 399.0L857.556659225206, 399.0"/>
<path fill="none" stroke="#000000" stroke-width="1.0" d="M 858.6493747065749, 399.0L910.1088868435421, 399.0"/>
<path fill="none" stroke="#000000" stroke-width="1.0" d="M 925.0290055647397, 399.0L1040.9780155277447, 399.0"/>
<path fill="none" stroke="#000000" stroke-width="1.0" d="M 287.6499022213719, 405.0L454.64110484362755, 405.0"/>
<path fill="none" stroke="#000000" stroke-width="1.0" d="M 464.70657892638053, 405.0L510.59402604616866, 405.0"/>
<path fill="none" stroke="#000000" stroke-width="1.0" d="M 552.0792778508406, 405.0L597.776790222732, 405.0"/>
<path fill="none" stroke="#000000" stroke-width="1.0" d="M 605.2927658383331, 405.0L667.3966385542459, 405.0"/>
<path fill="none" stroke="#000000" stroke-width="1.0" d="M 685.2740251436664, 405.0L735.8366394960119, 405.0"/>
<path fill="none" stroke="#000000" stroke-width="1.0" d="M 736.0999999999999, 405.0L808.4333333333328, 405.0"/>
<path fill="none" stroke="#000000" stroke-width="1.0" d="M 811.0735010996366, 405.0L857.6217507218416, 405.0"/>
<path fill="none" stroke="#000000" stroke-width="1.0" d="M 860.0488280798982, 405.0L909.2857916111547, 405.0"/>
<path fill="none" stroke="#000000" stroke-width="1.0" d="M 925.0263623928959, 405.0L1040.986770358291, 405.0"/>
<path fill="none" stroke="#000000" stroke-width="1.0" d="M 286.98152573988773, 411.0L403.58509629629555, 411.0"/>
<path fill="none" stroke="#000000" stroke-width="1.0" d="M 403.7400010973923, 411.0L453.56810914955787, 411.0"/>
<path fill="none" stroke="#000000" stroke-width="1.0" d="M 464.67176374018146, 411.0L510.60826843229864, 411.0"/>
<path fill="none" stroke="#000000" stroke-width="1.0" d="M 551.8744705157243, 411.0L597.7191866699435, 411.0"/>
<path fill="none" stroke="#000000" stroke-width="1.0" d="M 606.7532807347288, 411.0L662.6282676646725, 411.0"/>
<path fill="none" stroke="#000000" stroke-width="1.0" d="M 685.6823164821906, 411.0L734.1511378956458, 411.0"/>
<path fill="none" stroke="#000000" stroke-width="1.0" d="M 736.0992507631395, 411.0L800.0679805228389, 411.0"/>
<path fill="none" stroke="#000000" stroke-width="1.0" d="M 809.0998447450097, 411.0L810.4333333333327, 411.0"/>
<path fill="none" stroke="#000000" stroke-width="1.0" d="M 812.3451291186756, 411.0L857.6888664703386, 411.0"/>
<path fill="none" stroke="#000000" stroke-width="1.0" d="M 860.7402103569686, 411.0L905.6999999999997, 411.0"/>
<path fill="none" stroke="#000000" stroke-width="1.0" d="M 925.2341406588, 411.0L974.6603289798443, 411.0"/>
<path fill="none" stroke="#000000" stroke-width="1.0" d="M 975.9929653043232, 411.0L1040.6994031649726, 411.0"/>
<path fill="none" stroke="#000000" stroke-width="1.0" d="M 285.92683228378206, 417.0L402.8163023964527, 417.0"/>
<path fill="none" stroke="#000000" stroke-width="1.0" d="M 404.9726924554169, 417.0L452.8585791125431, 417.0"/>
<path fill="none" stroke="#000000" stroke-width="1.0" d="M 464.49220125616205, 417.0L510.50072755380506, 417.0"/>
<path fill="none" stroke="#000000" stroke-width="1.0" d="M 551.7868087158124, 417.0L597.6927048119736, 417.0"/>
<path fill="none" stroke="#000000" stroke-width="1.0" d="M 608.0013215083565, 417.0L659.6888026121864, 417.0"/>
<path fill="none" stroke="#000000" stroke-width="1.0" d="M 686.49248958685, 417.0L733.2390793679824, 417.0"/>
<path fill="none" stroke="#000000" stroke-width="1.0" d="M 736.079474810266, 417.0L783.2768579687511, 417.0"/>
<path fill="none" stroke="#000000" stroke-width="1.0" d="M 785.5084387310649, 417.0L797.7672016536218, 417.0"/>
<path fill="none" stroke="#000000" stroke-width="1.0" d="M 812.6789879173343, 417.0L857.7405339550698, 417.0"/>
<path fill="none" stroke="#000000" stroke-width="1.0" d="M 861.0636742407984, 417.0L905.3677594824599, 417.0"/>
<path fill="none" stroke="#000000" stroke-width="1.0" d="M 925.7660566266043, 417.0L974.8562620035251, 417.0"/>
<path fill="none" stroke="#000000" stroke-width="1.0" d="M 975.9469342744237, 417.0L1039.7757498536346, 417.0"/>
<path fill="none" stroke="#000000" stroke-width="1.0" d="M 285.0652497990089, 423.0L330.68132302921725, 423.0"/>
<path fill="none" stroke="#000000" stroke-width="1.0" d="M 337.6031857319334, 423.0L400.78522787326824, 423.0"/>
<path fill="none" stroke="#000000" stroke-width="1.0" d="M 406.4150038972533, 423.0L452.5054042126239, 423.0"/>
<path fill="none" stroke="#000000" stroke-width="1.0" d="M 464.55576936833177, 423.0L510.2550740033886, 423.0"/>
<path fill="none" stroke="#000000" stroke-width="1.0" d="M 551.8090160986885, 423.0L597.7656272752192, 423.0"/>
<path fill="none" stroke="#000000" stroke-width="1.0" d="M 609.0362812267085, 423.0L659.04587991565, 423.0"/>
<path fill="none" stroke="#000000" stroke-width="1.0" d="M 687.3558323058621, 423.0L732.9920810508555, 423.0"/>
<path fill="none" stroke="#000000" stroke-width="1.0" d="M 736.0421124235114, 423.0L781.790869922354, 423.0"/>
<path fill="none" stroke="#000000" stroke-width="1.0" d="M 783.6367311571862, 423.0L790.0552323393966, 423.0"/>
<path fill="none" stroke="#000000" stroke-width="1.0" d="M 812.8827257070996, 423.0L857.7592236323884, 423.0"/>
<path fill="none" stroke="#000000" stroke-width="1.0" d="M 861.366816393015, 423.0L905.0819100143211, 423.0"/>
<path fill="none" stroke="#000000" stroke-width="1.0" d="M 926.7072699688639, 423.0L973.6938449670338, 423.0"/>
<path fill="none" stroke="#000000" stroke-width="1.0" d="M 975.8746809282011, 423.0L1022.665308898509, 423.0"/>
<path fill="none" stroke="#000000" stroke-width="1.0" d="M 1025.1333333333334, 423.0L1036.057061887347, 423.0"/>
<path fill="none" stroke="#000000" stroke-width="1.0" d="M 284.7967634593323, 429.0L330.6253806668532, 429.0"/>
<path fill="none" stroke="#000000" stroke-width="1.0" d="M 339.5239704779898, 429.0L395.26652539641555, 429.0"/>
<path fill="none" stroke="#000000" stroke-width="1.0" d="M 408.11862264799004, 429.0L452.34979278195976, 429.0"/>
<path fill="none" stroke="#000000" stroke-width="1.0" d="M 465.1477868363811, 429.0L509.85459973569743, 429.0"/>
<path fill="none" stroke="#000000" stroke-width="1.0" d="M 551.956078796406, 429.0L597.9491990876894, 429.0"/>
<path fill="none" stroke="#000000" stroke-width="1.0" d="M 609.6868722608663, 429.0L657.8511141396561, 429.0"/>
<path fill="none" stroke="#000000" stroke-width="1.0" d="M 687.8051246044815, 429.0L732.7551252615391, 429.0"/>
<path fill="none" stroke="#000000" stroke-width="1.0" d="M 735.9995938791058, 429.0L780.9380026710691, 429.0"/>
<path fill="none" stroke="#000000" stroke-width="1.0" d="M 813.1531641820959, 429.0L857.7273264222304, 429.0"/>
<path fill="none" stroke="#000000" stroke-width="1.0" d="M 861.7980531526198, 429.0L904.6126510522753, 429.0"/>
<path fill="none" stroke="#000000" stroke-width="1.0" d="M 927.4229225375257, 429.0L972.8329035433613, 429.0"/>
<path fill="none" stroke="#000000" stroke-width="1.0" d="M 975.7959124051902, 429.0L1020.944115738013, 429.0"/>
<path fill="none" stroke="#000000" stroke-width="1.0" d="M 1023.1333333333332, 429.0L1026.57298356927, 429.0"/>
<path fill="none" stroke="#000000" stroke-width="1.0" d="M 284.69497648056915, 435.0L330.5920000390356, 435.0"/>
<path fill="none" stroke="#000000" stroke-width="1.0" d="M 340.882033402654, 435.0L392.6111510395906, 435.0"/>
<path fill="none" stroke="#000000" stroke-width="1.0" d="M 409.8282245026371, 435.0L452.26296296296175, 435.0"/>
<path fill="none" stroke="#000000" stroke-width="1.0" d="M 466.1832656437848, 435.0L509.2821201478954, 435.0"/>
<path fill="none" stroke="#000000" stroke-width="1.0" d="M 552.2431990511858, 435.0L597.7102873569548, 435.0"/>
<path fill="none" stroke="#000000" stroke-width="1.0" d="M 609.9577386472395, 435.0L656.1983371927548, 435.0"/>
<path fill="none" stroke="#000000" stroke-width="1.0" d="M 688.0849940120581, 435.0L732.4630276623677, 435.0"/>
<path fill="none" stroke="#000000" stroke-width="1.0" d="M 735.9642939932583, 435.0L780.6305027219272, 435.0"/>
<path fill="none" stroke="#000000" stroke-width="1.0" d="M 813.5622699300611, 435.0L857.627130881292, 435.0"/>
<path fill="none" stroke="#000000" stroke-width="1.0" d="M 862.3065808609763, 435.0L903.7268635549401, 435.0"/>
<path fill="none" stroke="#000000" stroke-width="1.0" d="M 927.7959422075808, 435.0L972.4870606019332, 435.0"/>
<path fill="none" stroke="#000000" stroke-width="1.0" d="M 975.7303702302943, 435.0L1020.5647219450678, 435.0"/>
<path fill="none" stroke="#000000" stroke-width="1.0" d="M 284.7018527429203, 441.0L330.64842642277614, 441.0"/>
<path fill="none" stroke="#000000" stroke-width="1.0" d="M 341.88974197840696, 441.0L391.36707245482813, 441.0"/>
<path fill="none" stroke="#000000" stroke-width="1.0" d="M 411.28839850082466, 441.0L452.1255022353764, 441.0"/>
<path fill="none" stroke="#000000" stroke-width="1.0" d="M 467.55918342518845, 441.0L508.51987010768346, 441.0"/>
<path fill="none" stroke="#000000" stroke-width="1.0" d="M 552.685841017438, 441.0L596.9677315729692, 441.0"/>
<path fill="none" stroke="#000000" stroke-width="1.0" d="M 610.0788755321544, 441.0L654.2219974043278, 441.0"/>
<path fill="none" stroke="#000000" stroke-width="1.0" d="M 688.4321653995572, 441.0L732.0604219091147, 441.0"/>
<path fill="none" stroke="#000000" stroke-width="1.0" d="M 735.9485716112426, 441.0L780.4660745156806, 441.0"/>
<path fill="none" stroke="#000000" stroke-width="1.0" d="M 813.90540504593, 441.0L857.4407999736355, 441.0"/>
<path fill="none" stroke="#000000" stroke-width="1.0" d="M 862.8239713647174, 441.0L902.5850527483792, 441.0"/>
<path fill="none" stroke="#000000" stroke-width="1.0" d="M 928.0714686520396, 441.0L972.1946374429731, 441.0"/>
<path fill="none" stroke="#000000" stroke-width="1.0" d="M 975.6978554492705, 441.0L1020.3528625614891, 441.0"/>
<path fill="none" stroke="#000000" stroke-width="1.0" d="M 284.8334819351849, 447.0L330.83892613505265, 447.0"/>
<path fill="none" stroke="#000000" stroke-width="1.0" d="M 342.53044024222424, 447.0L390.1189257486474, 447.0"/>
<path fill="none" stroke="#000000" stroke-width="1.0" d="M 412.4858565122182, 447.0L451.8179980789499, 447.0"/>
<path fill="none" stroke="#000000" stroke-width="1.0" d="M 469.1584761348521, 447.0L507.54939213703096, 447.0"/>
<path fill="none" stroke="#000000" stroke-width="1.0" d="M 553.2997784257778, 447.0L595.8125350710193, 447.0"/>
<path fill="none" stroke="#000000" stroke-width="1.0" d="M 610.1685822280901, 447.0L652.2426349167009, 447.0"/>
<path fill="none" stroke="#000000" stroke-width="1.0" d="M 689.0808794105856, 447.0L731.4929646542171, 447.0"/>
<path fill="none" stroke="#000000" stroke-width="1.0" d="M 735.964808867305, 447.0L780.2568386667617, 447.0"/>
<path fill="none" stroke="#000000" stroke-width="1.0" d="M 814.4149181515747, 447.0L857.1483000984962, 447.0"/>
<path fill="none" stroke="#000000" stroke-width="1.0" d="M 863.2912951548325, 447.0L901.6931276827165, 447.0"/>
<path fill="none" stroke="#000000" stroke-width="1.0" d="M 928.48433899004, 447.0L971.7895798194947, 447.0"/>
<path fill="none" stroke="#000000" stroke-width="1.0" d="M 975.7182540143266, 447.0L1020.110057983979, 447.0"/>
<path fill="none" stroke="#000000" stroke-width="1.0" d="M 285.10625577287084, 453.0L330.67300670301813, 453.0"/>
<path fill="none" stroke="#000000" stroke-width="1.0" d="M 342.83285993733784, 453.0L388.54545500856045, 453.0"/>
<path fill="none" stroke="#000000" stroke-width="1.0" d="M 413.43922174841157, 453.0L451.2210379734292, 453.0"/>
<path fill="none" stroke="#000000" stroke-width="1.0" d="M 470.8463791021343, 453.0L506.39461600750775, 453.0"/>
<path fill="none" stroke="#000000" stroke-width="1.0" d="M 554.1011445288868, 453.0L594.3526954579162, 453.0"/>
<path fill="none" stroke="#000000" stroke-width="1.0" d="M 610.3461639711263, 453.0L650.7008682596729, 453.0"/>
<path fill="none" stroke="#000000" stroke-width="1.0" d="M 690.214647161823, 453.0L730.708068730854, 453.0"/>
<path fill="none" stroke="#000000" stroke-width="1.0" d="M 736.0254505653861, 453.0L779.8112437912699, 453.0"/>
<path fill="none" stroke="#000000" stroke-width="1.0" d="M 815.3841732563603, 453.0L856.7886415016737, 453.0"/>
<path fill="none" stroke="#000000" stroke-width="1.0" d="M 863.728013491768, 453.0L900.962903764892, 453.0"/>
<path fill="none" stroke="#000000" stroke-width="1.0" d="M 929.270151416396, 453.0L971.289053792461, 453.0"/>
<path fill="none" stroke="#000000" stroke-width="1.0" d="M 975.8115625118385, 453.0L1019.7039231667559, 453.0"/>
<path fill="none" stroke="#000000" stroke-width="1.0" d="M 285.5369621837107, 459.0L329.9927554952138, 459.0"/>
<path fill="none" stroke="#000000" stroke-width="1.0" d="M 342.96712965342795, 459.0L386.8243434274975, 459.0"/>
<path fill="none" stroke="#000000" stroke-width="1.0" d="M 414.11642883178837, 459.0L450.2152093985605, 459.0"/>
<path fill="none" stroke="#000000" stroke-width="1.0" d="M 472.31397909330735, 459.0L505.3871151723784, 459.0"/>
<path fill="none" stroke="#000000" stroke-width="1.0" d="M 555.1064847847393, 459.0L592.7085813342082, 459.0"/>
<path fill="none" stroke="#000000" stroke-width="1.0" d="M 610.7317184922894, 459.0L649.5598418230605, 459.0"/>
<path fill="none" stroke="#000000" stroke-width="1.0" d="M 691.2423535938428, 459.0L729.8599025210931, 459.0"/>
<path fill="none" stroke="#000000" stroke-width="1.0" d="M 736.1430440320819, 459.0L778.8077456553763, 459.0"/>
<path fill="none" stroke="#000000" stroke-width="1.0" d="M 817.1071880634568, 459.0L856.2619176060434, 459.0"/>
<path fill="none" stroke="#000000" stroke-width="1.0" d="M 864.0587527710168, 459.0L900.3022916541246, 459.0"/>
<path fill="none" stroke="#000000" stroke-width="1.0" d="M 930.4543863804724, 459.0L970.7688704508495, 459.0"/>
<path fill="none" stroke="#000000" stroke-width="1.0" d="M 975.9979143267367, 459.0L1019.3619330082581, 459.0"/>
<path fill="none" stroke="#000000" stroke-width="1.0" d="M 286.14288421105766, 465.0L328.8866702649514, 465.0"/>
<path fill="none" stroke="#000000" stroke-width="1.0" d="M 343.0541593481645, 465.0L385.1708112940116, 465.0"/>
<path fill="none" stroke="#000000" stroke-width="1.0" d="M 414.4869529573434, 465.0L448.68109983409033, 465.0"/>
<path fill="none" stroke="#000000" stroke-width="1.0" d="M 473.2296053540006, 465.0L504.5894818055493, 465.0"/>
<path fill="none" stroke="#000000" stroke-width="1.0" d="M 556.1851929809726, 465.0L591.0501056643928, 465.0"/>
<path fill="none" stroke="#000000" stroke-width="1.0" d="M 611.4454221695369, 465.0L648.7695429977705, 465.0"/>
<path fill="none" stroke="#000000" stroke-width="1.0" d="M 692.0347468757436, 465.0L729.3166447160067, 465.0"/>
<path fill="none" stroke="#000000" stroke-width="1.0" d="M 736.3467924783154, 465.0L777.3201451590617, 465.0"/>
<path fill="none" stroke="#000000" stroke-width="1.0" d="M 818.4396708758072, 465.0L855.4172388305783, 465.0"/>
<path fill="none" stroke="#000000" stroke-width="1.0" d="M 862.997117802932, 465.0L899.6214765335219, 465.0"/>
<path fill="none" stroke="#000000" stroke-width="1.0" d="M 931.399734363544, 465.0L970.2879839428829, 465.0"/>
<path fill="none" stroke="#000000" stroke-width="1.0" d="M 976.2923703802505, 465.0L1018.9035629628786, 465.0"/>
<path fill="none" stroke="#000000" stroke-width="1.0" d="M 286.9419052838961, 471.0L327.46070706627495, 471.0"/>
<path fill="none" stroke="#000000" stroke-width="1.0" d="M 343.213095521699, 471.0L383.77189925263184, 471.0"/>
<path fill="none" stroke="#000000" stroke-width="1.0" d="M 414.5220819888285, 471.0L447.08574518210014, 471.0"/>
<path fill="none" stroke="#000000" stroke-width="1.0" d="M 473.21672634971577, 471.0L503.9959626680428, 471.0"/>
<path fill="none" stroke="#000000" stroke-width="1.0" d="M 557.1312672888599, 471.0L589.7197226466221, 471.0"/>
<path fill="none" stroke="#000000" stroke-width="1.0" d="M 612.6068093439321, 471.0L648.282424255175, 471.0"/>
<path fill="none" stroke="#000000" stroke-width="1.0" d="M 692.7002281990218, 471.0L729.3285968621658, 471.0"/>
<path fill="none" stroke="#000000" stroke-width="1.0" d="M 736.7968643859449, 471.0L775.8456675824591, 471.0"/>
<path fill="none" stroke="#000000" stroke-width="1.0" d="M 819.0135441685334, 471.0L854.0894983888106, 471.0"/>
<path fill="none" stroke="#000000" stroke-width="1.0" d="M 860.6747995663916, 471.0L899.0700530045077, 471.0"/>
<path fill="none" stroke="#000000" stroke-width="1.0" d="M 932.1429155989249, 471.0L969.8689649638839, 471.0"/>
<path fill="none" stroke="#000000" stroke-width="1.0" d="M 976.6372399105717, 471.0L1018.043293631319, 471.0"/>
<path fill="none" stroke="#000000" stroke-width="1.0" d="M 287.9526226827693, 477.0L325.8339179140687, 477.0"/>
<path fill="none" stroke="#000000" stroke-width="1.0" d="M 343.5639711956211, 477.0L382.61331921760143, 477.0"/>
<path fill="none" stroke="#000000" stroke-width="1.0" d="M 414.19514819661424, 477.0L446.667398645308, 477.0"/>
<path fill="none" stroke="#000000" stroke-width="1.0" d="M 472.20923885594414, 477.0L503.6153691278113, 477.0"/>
<path fill="none" stroke="#000000" stroke-width="1.0" d="M 557.9193700928996, 477.0L589.0541748173107, 477.0"/>
<path fill="none" stroke="#000000" stroke-width="1.0" d="M 614.3338442184394, 477.0L648.0530601135699, 477.0"/>
<path fill="none" stroke="#000000" stroke-width="1.0" d="M 693.3435602461261, 477.0L730.1614494033079, 477.0"/>
<path fill="none" stroke="#000000" stroke-width="1.0" d="M 737.5598251174804, 477.0L774.838389227207, 477.0"/>
<path fill="none" stroke="#000000" stroke-width="1.0" d="M 819.0168004458711, 477.0L852.0877739757917, 477.0"/>
<path fill="none" stroke="#000000" stroke-width="1.0" d="M 857.9693899844011, 477.0L896.5446478749299, 477.0"/>
<path fill="none" stroke="#000000" stroke-width="1.0" d="M 932.790813541054, 477.0L969.4451077371191, 477.0"/>
<path fill="none" stroke="#000000" stroke-width="1.0" d="M 977.1223017384414, 477.0L1016.4300991340011, 477.0"/>
<path fill="none" stroke="#000000" stroke-width="1.0" d="M 289.06420339137, 483.0L324.15887904355003, 483.0"/>
<path fill="none" stroke="#000000" stroke-width="1.0" d="M 344.22699387403634, 483.0L381.7093652749629, 483.0"/>
<path fill="none" stroke="#000000" stroke-width="1.0" d="M 413.51795697687703, 483.0L446.9030182965388, 483.0"/>
<path fill="none" stroke="#000000" stroke-width="1.0" d="M 470.7228769491038, 483.0L503.7263916363032, 483.0"/>
<path fill="none" stroke="#000000" stroke-width="1.0" d="M 558.523310953377, 483.0L589.4170102036734, 483.0"/>
<path fill="none" stroke="#000000" stroke-width="1.0" d="M 615.5505019849294, 483.0L648.0378411402917, 483.0"/>
<path fill="none" stroke="#000000" stroke-width="1.0" d="M 693.9792885688073, 483.0L732.1294087218155, 483.0"/>
<path fill="none" stroke="#000000" stroke-width="1.0" d="M 738.69506357465, 483.0L774.3371952132748, 483.0"/>
<path fill="none" stroke="#000000" stroke-width="1.0" d="M 818.6405821249072, 483.0L849.42532516844, 483.0"/>
<path fill="none" stroke="#000000" stroke-width="1.0" d="M 855.1144565218391, 483.0L893.903640881209, 483.0"/>
<path fill="none" stroke="#000000" stroke-width="1.0" d="M 933.4478719663925, 483.0L970.1352720861584, 483.0"/>
<path fill="none" stroke="#000000" stroke-width="1.0" d="M 977.8968851644363, 483.0L1014.8990067614673, 483.0"/>
<path fill="none" stroke="#000000" stroke-width="1.0" d="M 290.0022659385084, 489.0L322.7665292094748, 489.0"/>
<path fill="none" stroke="#000000" stroke-width="1.0" d="M 345.32182507834307, 489.0L381.0889324391102, 489.0"/>
<path fill="none" stroke="#000000" stroke-width="1.0" d="M 412.75104054154065, 489.0L447.34540010038376, 489.0"/>
<path fill="none" stroke="#000000" stroke-width="1.0" d="M 469.3315548856989, 489.0L504.1990303153115, 489.0"/>
<path fill="none" stroke="#000000" stroke-width="1.0" d="M 558.8078559683645, 489.0L590.6365098015224, 489.0"/>
<path fill="none" stroke="#000000" stroke-width="1.0" d="M 615.7052497340474, 489.0L648.2442471814803, 489.0"/>
<path fill="none" stroke="#000000" stroke-width="1.0" d="M 695.5070634117494, 489.0L734.637721922426, 489.0"/>
<path fill="none" stroke="#000000" stroke-width="1.0" d="M 740.3326286659571, 489.0L774.1355066547212, 489.0"/>
<path fill="none" stroke="#000000" stroke-width="1.0" d="M 818.0801112935115, 489.0L849.9287012218613, 489.0"/>
<path fill="none" stroke="#000000" stroke-width="1.0" d="M 852.2485335900844, 489.0L891.2064238398133, 489.0"/>
<path fill="none" stroke="#000000" stroke-width="1.0" d="M 933.9254662727477, 489.0L972.3638507503641, 489.0"/>
<path fill="none" stroke="#000000" stroke-width="1.0" d="M 979.122716953085, 489.0L1014.1763275085095, 489.0"/>
<path fill="none" stroke="#000000" stroke-width="1.0" d="M 290.76559405148845, 495.0L321.9909750327636, 495.0"/>
<path fill="none" stroke="#000000" stroke-width="1.0" d="M 346.96686347557227, 495.0L380.78013029164083, 495.0"/>
<path fill="none" stroke="#000000" stroke-width="1.0" d="M 412.101497310886, 495.0L447.59964855236296, 495.0"/>
<path fill="none" stroke="#000000" stroke-width="1.0" d="M 468.83130211326, 495.0L504.6692195135553, 495.0"/>
<path fill="none" stroke="#000000" stroke-width="1.0" d="M 558.5480016193221, 495.0L592.1553458449087, 495.0"/>
<path fill="none" stroke="#000000" stroke-width="1.0" d="M 615.3604532436415, 495.0L648.8199345148138, 495.0"/>
<path fill="none" stroke="#000000" stroke-width="1.0" d="M 698.0744466296552, 495.0L737.0398168019235, 495.0"/>
<path fill="none" stroke="#000000" stroke-width="1.0" d="M 742.4668239589687, 495.0L773.9965457947701, 495.0"/>
<path fill="none" stroke="#000000" stroke-width="1.0" d="M 817.5289677609483, 495.0L888.5266174416432, 495.0"/>
<path fill="none" stroke="#000000" stroke-width="1.0" d="M 936.1810190757508, 495.0L975.0098871616296, 495.0"/>
<path fill="none" stroke="#000000" stroke-width="1.0" d="M 980.9849441835679, 495.0L1014.074695435871, 495.0"/>
<path fill="none" stroke="#000000" stroke-width="1.0" d="M 291.3589775591546, 501.0L322.20723288169467, 501.0"/>
<path fill="none" stroke="#000000" stroke-width="1.0" d="M 348.36493348496583, 501.0L380.8103090890577, 501.0"/>
<path fill="none" stroke="#000000" stroke-width="1.0" d="M 411.7523656177443, 501.0L448.64416823665255, 501.0"/>
<path fill="none" stroke="#000000" stroke-width="1.0" d="M 469.6798467058734, 501.0L503.7953056221248, 501.0"/>
<path fill="none" stroke="#000000" stroke-width="1.0" d="M 558.0269800360178, 501.0L593.3982884616181, 501.0"/>
<path fill="none" stroke="#000000" stroke-width="1.0" d="M 614.9345341298476, 501.0L649.5747418481471, 501.0"/>
<path fill="none" stroke="#000000" stroke-width="1.0" d="M 700.7471592044157, 501.0L739.3996636339903, 501.0"/>
<path fill="none" stroke="#000000" stroke-width="1.0" d="M 743.9206548847374, 501.0L774.6592676882613, 501.0"/>
<path fill="none" stroke="#000000" stroke-width="1.0" d="M 816.7681603022969, 501.0L885.8224379847269, 501.0"/>
<path fill="none" stroke="#000000" stroke-width="1.0" d="M 938.8065454667379, 501.0L977.8402500097128, 501.0"/>
<path fill="none" stroke="#000000" stroke-width="1.0" d="M 983.6941850654605, 501.0L1014.4037882901229, 501.0"/>
<path fill="none" stroke="#000000" stroke-width="1.0" d="M 291.70572754743404, 507.0L323.3440813755411, 507.0"/>
<path fill="none" stroke="#000000" stroke-width="1.0" d="M 348.6235904286294, 507.0L381.206084803394, 507.0"/>
<path fill="none" stroke="#000000" stroke-width="1.0" d="M 411.8867518116708, 507.0L449.7087535533167, 507.0"/>
<path fill="none" stroke="#000000" stroke-width="1.0" d="M 470.64112502261054, 507.0L501.2123112365325, 507.0"/>
<path fill="none" stroke="#000000" stroke-width="1.0" d="M 557.8086618416238, 507.0L593.3841157516955, 507.0"/>
<path fill="none" stroke="#000000" stroke-width="1.0" d="M 614.4791136233648, 507.0L650.2734691814806, 507.0"/>
<path fill="none" stroke="#000000" stroke-width="1.0" d="M 703.5158536115898, 507.0L741.7793741425467, 507.0"/>
<path fill="none" stroke="#000000" stroke-width="1.0" d="M 742.8575433529963, 507.0L775.4259722599833, 507.0"/>
<path fill="none" stroke="#000000" stroke-width="1.0" d="M 816.2872158310349, 507.0L882.8037181150463, 507.0"/>
<path fill="none" stroke="#000000" stroke-width="1.0" d="M 941.4970789283645, 507.0L980.6681031200562, 507.0"/>
<path fill="none" stroke="#000000" stroke-width="1.0" d="M 983.8014658333318, 507.0L1014.9694109302092, 507.0"/>
<path fill="none" stroke="#000000" stroke-width="1.0" d="M 291.5046622600312, 513.0L324.85635246927757, 513.0"/>
<path fill="none" stroke="#000000" stroke-width="1.0" d="M 348.3196219407503, 513.0L381.923151968536, 513.0"/>
<path fill="none" stroke="#000000" stroke-width="1.0" d="M 412.7147611018861, 513.0L450.2325505267885, 513.0"/>
<path fill="none" stroke="#000000" stroke-width="1.0" d="M 471.07567890542157, 513.0L497.5098313191296, 513.0"/>
<path fill="none" stroke="#000000" stroke-width="1.0" d="M 559.254132658576, 513.0L592.4994974858587, 513.0"/>
<path fill="none" stroke="#000000" stroke-width="1.0" d="M 613.3977068945674, 513.0L650.6809165148139, 513.0"/>
<path fill="none" stroke="#000000" stroke-width="1.0" d="M 706.1937641662989, 513.0L776.2453577653694, 513.0"/>
<path fill="none" stroke="#000000" stroke-width="1.0" d="M 816.8432713710455, 513.0L879.1791306469152, 513.0"/>
<path fill="none" stroke="#000000" stroke-width="1.0" d="M 944.225752305158, 513.0L1015.5725099473896, 513.0"/>
<path fill="none" stroke="#000000" stroke-width="1.0" d="M 291.0001354494171, 519.0L326.1684734815493, 519.0"/>
<path fill="none" stroke="#000000" stroke-width="1.0" d="M 347.8820232984914, 519.0L382.6822135834956, 519.0"/>
<path fill="none" stroke="#000000" stroke-width="1.0" d="M 414.0593858548373, 519.0L449.92897891762857, 519.0"/>
<path fill="none" stroke="#000000" stroke-width="1.0" d="M 470.8622807674012, 519.0L493.54375844202326, 519.0"/>
<path fill="none" stroke="#000000" stroke-width="1.0" d="M 562.2836796564728, 519.0L591.6430349005144, 519.0"/>
<path fill="none" stroke="#000000" stroke-width="1.0" d="M 612.4371903133612, 519.0L650.5349096910828, 519.0"/>
<path fill="none" stroke="#000000" stroke-width="1.0" d="M 708.9965529071715, 519.0L776.7648178802979, 519.0"/>
<path fill="none" stroke="#000000" stroke-width="1.0" d="M 817.8273542433342, 519.0L875.2082371203178, 519.0"/>
<path fill="none" stroke="#000000" stroke-width="1.0" d="M 946.9061291675991, 519.0L1016.2948860342831, 519.0"/>
<path fill="none" stroke="#000000" stroke-width="1.0" d="M 290.6532463093061, 525.0L326.3711181717867, 525.0"/>
<path fill="none" stroke="#000000" stroke-width="1.0" d="M 347.49999999999875, 525.0L383.2904437462686, 525.0"/>
<path fill="none" stroke="#000000" stroke-width="1.0" d="M 415.57488748054834, 525.0L449.43058335946245, 525.0"/>
<path fill="none" stroke="#000000" stroke-width="1.0" d="M 470.1401317375037, 525.0L490.170712948434, 525.0"/>
<path fill="none" stroke="#000000" stroke-width="1.0" d="M 566.1278327116822, 525.0L591.4282410018243, 525.0"/>
<path fill="none" stroke="#000000" stroke-width="1.0" d="M 612.2152444471968, 525.0L649.5491564071323, 525.0"/>
<path fill="none" stroke="#000000" stroke-width="1.0" d="M 712.2999999999989, 525.0L776.5510374487658, 525.0"/>
<path fill="none" stroke="#000000" stroke-width="1.0" d="M 819.0132013580999, 525.0L871.0312451873591, 525.0"/>
<path fill="none" stroke="#000000" stroke-width="1.0" d="M 949.8148613596052, 525.0L1016.891793181259, 525.0"/>
<path fill="none" stroke="#000000" stroke-width="1.0" d="M 291.859997418038, 531.0L325.4403609990385, 531.0"/>
<path fill="none" stroke="#000000" stroke-width="1.0" d="M 346.44814280153935, 531.0L383.5643918725607, 531.0"/>
<path fill="none" stroke="#000000" stroke-width="1.0" d="M 416.9077627089856, 531.0L448.83911937519304, 531.0"/>
<path fill="none" stroke="#000000" stroke-width="1.0" d="M 469.0568312717037, 531.0L488.51604815533716, 531.0"/>
<path fill="none" stroke="#000000" stroke-width="1.0" d="M 570.0823275979155, 531.0L591.8181910662028, 531.0"/>
<path fill="none" stroke="#000000" stroke-width="1.0" d="M 612.6120315232471, 531.0L648.0527305305891, 531.0"/>
<path fill="none" stroke="#000000" stroke-width="1.0" d="M 716.141423648203, 531.0L775.7717899052287, 531.0"/>
<path fill="none" stroke="#000000" stroke-width="1.0" d="M 820.2767295808085, 531.0L866.7423641008921, 531.0"/>
<path fill="none" stroke="#000000" stroke-width="1.0" d="M 953.3218448653237, 531.0L1016.5056707576099, 531.0"/>
<path fill="none" stroke="#000000" stroke-width="1.0" d="M 294.70981725087313, 537.0L324.5246436812188, 537.0"/>
<path fill="none" stroke="#000000" stroke-width="1.0" d="M 345.4363108007798, 537.0L383.28924354610285, 537.0"/>
<path fill="none" stroke="#000000" stroke-width="1.0" d="M 418.2164440852272, 537.0L448.2154986176257, 537.0"/>
<path fill="none" stroke="#000000" stroke-width="1.0" d="M 467.7690136963913, 537.0L488.804702473135, 537.0"/>
<path fill="none" stroke="#000000" stroke-width="1.0" d="M 573.0383889647727, 537.0L592.6710899247156, 537.0"/>
<path fill="none" stroke="#000000" stroke-width="1.0" d="M 613.1435157629589, 537.0L646.477987617009, 537.0"/>
<path fill="none" stroke="#000000" stroke-width="1.0" d="M 720.2298227142518, 537.0L774.7031593538211, 537.0"/>
<path fill="none" stroke="#000000" stroke-width="1.0" d="M 821.4917651662049, 537.0L862.4653886956955, 537.0"/>
<path fill="none" stroke="#000000" stroke-width="1.0" d="M 957.2457503616804, 537.0L1015.571780608904, 537.0"/>
<path fill="none" stroke="#000000" stroke-width="1.0" d="M 298.50603664045747, 543.0L324.21893999394564, 543.0"/>
<path fill="none" stroke="#000000" stroke-width="1.0" d="M 345.08005849870915, 543.0L382.32864197363745, 543.0"/>
<path fill="none" stroke="#000000" stroke-width="1.0" d="M 420.53792411468436, 543.0L447.62037505355283, 543.0"/>
<path fill="none" stroke="#000000" stroke-width="1.0" d="M 466.53313295215264, 543.0L489.629055294595, 543.0"/>
<path fill="none" stroke="#000000" stroke-width="1.0" d="M 574.0809828674212, 543.0L593.836548714572, 543.0"/>
<path fill="none" stroke="#000000" stroke-width="1.0" d="M 613.7500837061614, 543.0L645.2725953130498, 543.0"/>
<path fill="none" stroke="#000000" stroke-width="1.0" d="M 724.4770564847129, 543.0L773.4872691769809, 543.0"/>
<path fill="none" stroke="#000000" stroke-width="1.0" d="M 822.7528297882241, 543.0L860.378827410834, 543.0"/>
<path fill="none" stroke="#000000" stroke-width="1.0" d="M 961.3916672651665, 543.0L1014.413719583098, 543.0"/>
<path fill="none" stroke="#000000" stroke-width="1.0" d="M 302.40623824878526, 549.0L324.53626976343145, 549.0"/>
<path fill="none" stroke="#000000" stroke-width="1.0" d="M 345.45005122369906, 549.0L380.9508455304414, 549.0"/>
<path fill="none" stroke="#000000" stroke-width="1.0" d="M 422.2769125223521, 549.0L447.1139678580761, 549.0"/>
<path fill="none" stroke="#000000" stroke-width="1.0" d="M 466.0218658229109, 549.0L490.42088138708584, 549.0"/>
<path fill="none" stroke="#000000" stroke-width="1.0" d="M 573.4340797529726, 549.0L595.1549297266198, 549.0"/>
<path fill="none" stroke="#000000" stroke-width="1.0" d="M 614.3715112866823, 549.0L643.9157003794307, 549.0"/>
<path fill="none" stroke="#000000" stroke-width="1.0" d="M 728.7838750739519, 549.0L772.2689745289711, 549.0"/>
<path fill="none" stroke="#000000" stroke-width="1.0" d="M 824.3636937148636, 549.0L860.9078522996638, 549.0"/>
<path fill="none" stroke="#000000" stroke-width="1.0" d="M 965.6675477133572, 549.0L1013.1550310444381, 549.0"/>
<path fill="none" stroke="#000000" stroke-width="1.0" d="M 305.5348553921448, 555.0L325.3359372600823, 555.0"/>
<path fill="none" stroke="#000000" stroke-width="1.0" d="M 345.96700487816065, 555.0L379.45927956466403, 555.0"/>
<path fill="none" stroke="#000000" stroke-width="1.0" d="M 423.13624245359836, 555.0L446.75588859011856, 555.0"/>
<path fill="none" stroke="#000000" stroke-width="1.0" d="M 465.778388463213, 555.0L491.1257440924943, 555.0"/>
<path fill="none" stroke="#000000" stroke-width="1.0" d="M 572.6140719625424, 555.0L596.1511718618344, 555.0"/>
<path fill="none" stroke="#000000" stroke-width="1.0" d="M 614.9471363065426, 555.0L641.2869986974979, 555.0"/>
<path fill="none" stroke="#000000" stroke-width="1.0" d="M 732.2846369089341, 555.0L771.0855242395768, 555.0"/>
<path fill="none" stroke="#000000" stroke-width="1.0" d="M 826.3998014956778, 555.0L864.0530428249431, 555.0"/>
<path fill="none" stroke="#000000" stroke-width="1.0" d="M 969.972000866302, 555.0L1011.924007671962, 555.0"/>
<path fill="none" stroke="#000000" stroke-width="1.0" d="M 306.8602179038345, 561.0L326.46873600049094, 561.0"/>
<path fill="none" stroke="#000000" stroke-width="1.0" d="M 346.56702968042055, 561.0L378.1804642529186, 561.0"/>
<path fill="none" stroke="#000000" stroke-width="1.0" d="M 423.476711515844, 561.0L446.8535911809088, 561.0"/>
<path fill="none" stroke="#000000" stroke-width="1.0" d="M 467.30160875043214, 561.0L491.6102789035744, 561.0"/>
<path fill="none" stroke="#000000" stroke-width="1.0" d="M 571.8439550606773, 561.0L596.5282384121545, 561.0"/>
<path fill="none" stroke="#000000" stroke-width="1.0" d="M 615.4160353026281, 561.0L639.7231258500566, 561.0"/>
<path fill="none" stroke="#000000" stroke-width="1.0" d="M 732.9421706326732, 561.0L769.7000374876758, 561.0"/>
<path fill="none" stroke="#000000" stroke-width="1.0" d="M 828.5674837019228, 561.0L867.692994597318, 561.0"/>
<path fill="none" stroke="#000000" stroke-width="1.0" d="M 972.6948962001759, 561.0L1010.6958051010458, 561.0"/>
<path fill="none" stroke="#000000" stroke-width="1.0" d="M 306.3442309372474, 567.0L327.7763015091523, 567.0"/>
<path fill="none" stroke="#000000" stroke-width="1.0" d="M 347.1899731251467, 567.0L376.75436233169944, 567.0"/>
<path fill="none" stroke="#000000" stroke-width="1.0" d="M 423.67176295582567, 567.0L447.67665742754275, 567.0"/>
<path fill="none" stroke="#000000" stroke-width="1.0" d="M 469.6960229857051, 567.0L489.7999999999992, 567.0"/>
<path fill="none" stroke="#000000" stroke-width="1.0" d="M 571.1777431238858, 567.0L596.7732464640752, 567.0"/>
<path fill="none" stroke="#000000" stroke-width="1.0" d="M 615.7097483565087, 567.0L639.1411034749501, 567.0"/>
<path fill="none" stroke="#000000" stroke-width="1.0" d="M 730.8061962109024, 567.0L767.794824433091, 567.0"/>
<path fill="none" stroke="#000000" stroke-width="1.0" d="M 830.6952357751145, 567.0L872.0005596942148, 567.0"/>
<path fill="none" stroke="#000000" stroke-width="1.0" d="M 972.6026708550423, 567.0L1009.1727206491585, 567.0"/>
<path fill="none" stroke="#000000" stroke-width="1.0" d="M 305.52171857213716, 573.0L328.8647872278789, 573.0"/>
<path fill="none" stroke="#000000" stroke-width="1.0" d="M 347.77522129468355, 573.0L374.3594899332122, 573.0"/>
<path fill="none" stroke="#000000" stroke-width="1.0" d="M 425.26425218045495, 573.0L448.8387355019038, 573.0"/>
<path fill="none" stroke="#000000" stroke-width="1.0" d="M 472.445831285688, 573.0L482.2276560611682, 573.0"/>
<path fill="none" stroke="#000000" stroke-width="1.0" d="M 571.1929325462932, 573.0L594.4407883861936, 573.0"/>
<path fill="none" stroke="#000000" stroke-width="1.0" d="M 615.3257336353491, 573.0L638.9397258672559, 573.0"/>
<path fill="none" stroke="#000000" stroke-width="1.0" d="M 727.4209123985725, 573.0L765.6346021145935, 573.0"/>
<path fill="none" stroke="#000000" stroke-width="1.0" d="M 832.6122918139199, 573.0L878.3605373218816, 573.0"/>
<path fill="none" stroke="#000000" stroke-width="1.0" d="M 969.7339140547854, 573.0L1007.1747153172681, 573.0"/>
<path fill="none" stroke="#000000" stroke-width="1.0" d="M 304.74179744690696, 579.0L329.29427562757826, 579.0"/>
<path fill="none" stroke="#000000" stroke-width="1.0" d="M 348.26187522057546, 579.0L372.8109447672956, 579.0"/>
<path fill="none" stroke="#000000" stroke-width="1.0" d="M 426.8825699942404, 579.0L449.9448639919448, 579.0"/>
<path fill="none" stroke="#000000" stroke-width="1.0" d="M 573.9132946115842, 579.0L592.062014205182, 579.0"/>
<path fill="none" stroke="#000000" stroke-width="1.0" d="M 614.3144315633637, 579.0L638.3539307427727, 579.0"/>
<path fill="none" stroke="#000000" stroke-width="1.0" d="M 723.3144364183474, 579.0L763.448329863322, 579.0"/>
<path fill="none" stroke="#000000" stroke-width="1.0" d="M 833.895856808656, 579.0L883.9419490535811, 579.0"/>
<path fill="none" stroke="#000000" stroke-width="1.0" d="M 966.2964106128416, 579.0L1005.0170591492936, 579.0"/>
<path fill="none" stroke="#000000" stroke-width="1.0" d="M 304.0586690773135, 585.0L329.5926590563243, 585.0"/>
<path fill="none" stroke="#000000" stroke-width="1.0" d="M 348.5889304118635, 585.0L372.072490856299, 585.0"/>
<path fill="none" stroke="#000000" stroke-width="1.0" d="M 428.00685768311564, 585.0L451.60338192092263, 585.0"/>
<path fill="none" stroke="#000000" stroke-width="1.0" d="M 613.0933080148075, 585.0L636.5196874405965, 585.0"/>
<path fill="none" stroke="#000000" stroke-width="1.0" d="M 718.5218979848001, 585.0L761.4324307616739, 585.0"/>
<path fill="none" stroke="#000000" stroke-width="1.0" d="M 834.2225486180964, 585.0L855.3226938328228, 585.0"/>
<path fill="none" stroke="#000000" stroke-width="1.0" d="M 870.680656826539, 585.0L882.5609225498833, 585.0"/>
<path fill="none" stroke="#000000" stroke-width="1.0" d="M 962.0254645200539, 585.0L1002.8767558013574, 585.0"/>
<path fill="none" stroke="#000000" stroke-width="1.0" d="M 303.82339008869064, 591.0L327.54704445523436, 591.0"/>
<path fill="none" stroke="#000000" stroke-width="1.0" d="M 348.3812424460394, 591.0L371.79101689251354, 591.0"/>
<path fill="none" stroke="#000000" stroke-width="1.0" d="M 428.553543747213, 591.0L454.3323808494495, 591.0"/>
<path fill="none" stroke="#000000" stroke-width="1.0" d="M 612.0001162684136, 591.0L635.1710680890232, 591.0"/>
<path fill="none" stroke="#000000" stroke-width="1.0" d="M 711.0100524422653, 591.0L759.8016407343755, 591.0"/>
<path fill="none" stroke="#000000" stroke-width="1.0" d="M 833.7832403899478, 591.0L855.5813571646283, 591.0"/>
<path fill="none" stroke="#000000" stroke-width="1.0" d="M 956.4637435945293, 591.0L1000.9154438777061, 591.0"/>
<path fill="none" stroke="#000000" stroke-width="1.0" d="M 306.117886432491, 597.0L325.1933991581356, 597.0"/>
<path fill="none" stroke="#000000" stroke-width="1.0" d="M 347.45968195646776, 597.0L371.4589606877996, 597.0"/>
<path fill="none" stroke="#000000" stroke-width="1.0" d="M 428.573879079539, 597.0L456.40501863240485, 597.0"/>
<path fill="none" stroke="#000000" stroke-width="1.0" d="M 609.7880835531854, 597.0L634.2316276653489, 597.0"/>
<path fill="none" stroke="#000000" stroke-width="1.0" d="M 708.9056915217185, 597.0L735.6238043465726, 597.0"/>
<path fill="none" stroke="#000000" stroke-width="1.0" d="M 737.3390299861685, 597.0L759.0396717690188, 597.0"/>
<path fill="none" stroke="#000000" stroke-width="1.0" d="M 833.6729431717451, 597.0L857.5919945846865, 597.0"/>
<path fill="none" stroke="#000000" stroke-width="1.0" d="M 949.6734260384966, 597.0L999.4775219311008, 597.0"/>
<path fill="none" stroke="#000000" stroke-width="1.0" d="M 315.61221672099964, 603.0L321.3172814951133, 603.0"/>
<path fill="none" stroke="#000000" stroke-width="1.0" d="M 346.25247860811976, 603.0L369.6744406188185, 603.0"/>
<path fill="none" stroke="#000000" stroke-width="1.0" d="M 428.477229442747, 603.0L457.76367362918484, 603.0"/>
<path fill="none" stroke="#000000" stroke-width="1.0" d="M 607.2813973523705, 603.0L633.699755137662, 603.0"/>
<path fill="none" stroke="#000000" stroke-width="1.0" d="M 738.2701948199785, 603.0L759.1034434759681, 603.0"/>
<path fill="none" stroke="#000000" stroke-width="1.0" d="M 834.9150662777406, 603.0L860.5689493256589, 603.0"/>
<path fill="none" stroke="#000000" stroke-width="1.0" d="M 949.0771649956015, 603.0L966.7491893849877, 603.0"/>
<path fill="none" stroke="#000000" stroke-width="1.0" d="M 977.7341258208425, 603.0L999.0175032723439, 603.0"/>
<path fill="none" stroke="#000000" stroke-width="1.0" d="M 345.14320960824705, 609.0L368.2394428295954, 609.0"/>
<path fill="none" stroke="#000000" stroke-width="1.0" d="M 431.130994220822, 609.0L458.37481893656604, 609.0"/>
<path fill="none" stroke="#000000" stroke-width="1.0" d="M 605.4196355355672, 609.0L633.4582997375902, 609.0"/>
<path fill="none" stroke="#000000" stroke-width="1.0" d="M 737.0662801256781, 609.0L759.5585941528477, 609.0"/>
<path fill="none" stroke="#000000" stroke-width="1.0" d="M 835.1864229432027, 609.0L863.2351143413798, 609.0"/>
<path fill="none" stroke="#000000" stroke-width="1.0" d="M 977.8526057646654, 609.0L999.3012072648518, 609.0"/>
<path fill="none" stroke="#000000" stroke-width="1.0" d="M 343.1595496634884, 615.0L367.1933156790282, 615.0"/>
<path fill="none" stroke="#000000" stroke-width="1.0" d="M 439.37439612296805, 615.0L457.43554547080333, 615.0"/>
<path fill="none" stroke="#000000" stroke-width="1.0" d="M 604.2742302755339, 615.0L633.3994142847233, 615.0"/>
<path fill="none" stroke="#000000" stroke-width="1.0" d="M 734.3366387108767, 615.0L759.1076307161558, 615.0"/>
<path fill="none" stroke="#000000" stroke-width="1.0" d="M 834.5364827040414, 615.0L865.1796641156199, 615.0"/>
<path fill="none" stroke="#000000" stroke-width="1.0" d="M 976.1171012644837, 615.0L999.5398591651053, 615.0"/>
<path fill="none" stroke="#000000" stroke-width="1.0" d="M 340.5813898595835, 621.0L366.70622319988627, 621.0"/>
<path fill="none" stroke="#000000" stroke-width="1.0" d="M 603.8902864685042, 621.0L629.6072157340311, 621.0"/>
<path fill="none" stroke="#000000" stroke-width="1.0" d="M 731.5208924059131, 621.0L757.1258445345138, 621.0"/>
<path fill="none" stroke="#000000" stroke-width="1.0" d="M 834.8955513151011, 621.0L860.221970597968, 621.0"/>
<path fill="none" stroke="#000000" stroke-width="1.0" d="M 973.2029838389835, 621.0L998.6569038155124, 621.0"/>
<path fill="none" stroke="#000000" stroke-width="1.0" d="M 338.65642752847634, 627.0L366.77538741319654, 627.0"/>
<path fill="none" stroke="#000000" stroke-width="1.0" d="M 609.0999968272246, 627.0L613.9765234454375, 627.0"/>
<path fill="none" stroke="#000000" stroke-width="1.0" d="M 729.3300871092146, 627.0L758.731230639228, 627.0"/>
<path fill="none" stroke="#000000" stroke-width="1.0" d="M 970.4070944753184, 627.0L997.7558527642717, 627.0"/>
<path fill="none" stroke="#000000" stroke-width="1.0" d="M 337.42452814062455, 633.0L366.6213991476901, 633.0"/>
<path fill="none" stroke="#000000" stroke-width="1.0" d="M 727.1028640208042, 633.0L758.0769479377424, 633.0"/>
<path fill="none" stroke="#000000" stroke-width="1.0" d="M 968.3855050892179, 633.0L998.6020756374362, 633.0"/>
<path fill="none" stroke="#000000" stroke-width="1.0" d="M 336.9120604723273, 639.0L363.17075161667805, 639.0"/>
<path fill="none" stroke="#000000" stroke-width="1.0" d="M 966.5297012621351, 639.0L998.7836696748562, 639.0"/>
<path fill="none" stroke="#000000" stroke-width="1.0" d="M 338.9856083868795, 645.0L352.4660657377139, 645.0"/>
</g>
</svg>