<?xml version="1.0" encoding="utf-8"?>
<!DOCTYPE svg PUBLIC "-//W3C//DTD SVG 1.1 Tiny//EN" "http://www.w3.org/Graphics/SVG/1.1/DTD/svg11-tiny.dtd">
<svg version="1.1" baseProfile="tiny" id="openrndr-svg" xmlns="http://www.w3.org/2000/svg" xmlns:xlink="http://www.w3.org/1999/xlink" x="0px" y="0px" width="1280px" height="720px"><g >
<path fill="none" stroke="#000000" stroke-width="1.0" d="M 165.50102054801638, 9.0L1124.4989794519834, 9.0"/>
<path fill="none" stroke="#000000" stroke-width="1.0" d="M 165.52552996102304, 3.0L1124.474470038977, 3.0"/>
<path fill="none" stroke="#000000" stroke-width="1.0" d="M 165.55005509034294, 15.0L1124.4499449096568, 15.0"/>
<path fill="none" stroke="#000000" stroke-width="1.0" d="M 165.67281434904964, 21.0L1124.32718565095, 21.0"/>
<path fill="none" stroke="#000000" stroke-width="1.0" d="M 165.86954195054858, 27.0L1124.1304580494516, 27.0"/>
<path fill="none" stroke="#000000" stroke-width="1.0" d="M 166.14050551722542, 33.0L1123.859494482775, 33.0"/>
<path fill="none" stroke="#000000" stroke-width="1.0" d="M 166.48599741172464, 39.0L1123.5140025882754, 39.0"/>
<path fill="none" stroke="#000000" stroke-width="1.0" d="M 166.90633553503113, 45.0L1123.093664464969, 45.0"/>
<path fill="none" stroke="#000000" stroke-width="1.0" d="M 167.40186418203558, 51.0L1122.5981358179647, 51.0"/>
<path fill="none" stroke="#000000" stroke-width="1.0" d="M 167.97295495861036, 57.0L1122.0270450413898, 57.0"/>
<path fill="none" stroke="#000000" stroke-width="1.0" d="M 168.62000776460022, 63.0L1121.3799922354, 63.0"/>
<path fill="none" stroke="#000000" stroke-width="1.0" d="M 169.34345184754517, 69.0L1120.6565481524551, 69.0"/>
<path fill="none" stroke="#000000" stroke-width="1.0" d="M 170.14374693241277, 75.0L1119.8562530675872, 75.0"/>
<path fill="none" stroke="#000000" stroke-width="1.0" d="M 171.02138443312583, 81.0L1118.9786155668744, 81.0"/>
<path fill="none" stroke="#000000" stroke-width="1.0" d="M 171.9768887522356, 87.0L1118.0231112477645, 87.0"/>
<path fill="none" stroke="#000000" stroke-width="1.0" d="M 173.0108186757177, 93.0L1116.9891813242825, 93.0"/>
<path fill="none" stroke="#000000" stroke-width="1.0" d="M 174.12376887056777, 99.0L1115.8762311294322, 99.0"/>
<path fill="none" stroke="#000000" stroke-width="1.0" d="M 175.31637149365136, 105.0L1114.6836285063487, 105.0"/>
<path fill="none" stroke="#000000" stroke-width="1.0" d="M 176.58929792113423, 111.0L1113.410702078866, 111.0"/>
<path fill="none" stroke="#000000" stroke-width="1.0" d="M 177.94326060879274, 117.0L1112.0567393912074, 117.0"/>
<path fill="none" stroke="#000000" stroke-width="1.0" d="M 179.37901509459581, 123.0L1110.6209849054046, 123.0"/>
<path fill="none" stroke="#000000" stroke-width="1.0" d="M 180.89736215617745, 129.0L1109.1026378438223, 129.0"/>
<path fill="none" stroke="#000000" stroke-width="1.0" d="M 182.49915013719834, 135.0L1107.500849862802, 135.0"/>
<path fill="none" stroke="#000000" stroke-width="1.0" d="M 184.18527745815152, 141.0L1105.8147225418484, 141.0"/>
<path fill="none" stroke="#000000" stroke-width="1.0" d="M 185.95669532892634, 147.0L1104.0433046710737, 147.0"/>
<path fill="none" stroke="#000000" stroke-width="1.0" d="M 187.81441068243413, 153.0L1102.185589317566, 153.0"/>
<path fill="none" stroke="#000000" stroke-width="1.0" d="M 189.75948935085898, 159.0L1100.240510649141, 159.0"/>
<path fill="none" stroke="#000000" stroke-width="1.0" d="M 191.79305950866564, 165.0L1098.2069404913343, 165.0"/>
<path fill="none" stroke="#000000" stroke-width="1.0" d="M 193.91631540941933, 171.0L1096.0836845905806, 171.0"/>
<path fill="none" stroke="#000000" stroke-width="1.0" d="M 196.1305214468228, 177.0L1093.8694785531775, 177.0"/>
<path fill="none" stroke="#000000" stroke-width="1.0" d="M 198.43701657419618, 183.0L1091.5629834258038, 183.0"/>
<path fill="none" stroke="#000000" stroke-width="1.0" d="M 200.83721912102732, 189.0L1089.1627808789729, 189.0"/>
<path fill="none" stroke="#000000" stroke-width="1.0" d="M 203.3326320502747, 195.0L1086.667367949725, 195.0"/>
<path fill="none" stroke="#000000" stroke-width="1.0" d="M 205.92484870594632, 201.0L1084.0751512940537, 201.0"/>
<path fill="none" stroke="#000000" stroke-width="1.0" d="M 208.61555910723507, 207.0L1081.3844408927648, 207.0"/>
<path fill="none" stroke="#000000" stroke-width="1.0" d="M 211.40655685333738, 213.0L1078.5934431466628, 213.0"/>
<path fill="none" stroke="#000000" stroke-width="1.0" d="M 214.29974671221402, 219.0L1075.700253287786, 219.0"/>
<path fill="none" stroke="#000000" stroke-width="1.0" d="M 217.29715297722584, 225.0L1072.702847022774, 225.0"/>
<path fill="none" stroke="#000000" stroke-width="1.0" d="M 220.4009286880799, 231.0L1069.59907131192, 231.0"/>
<path fill="none" stroke="#000000" stroke-width="1.0" d="M 223.61336582722862, 237.0L1066.3866341727712, 237.0"/>
<path fill="none" stroke="#000000" stroke-width="1.0" d="M 226.93690662022573, 243.0L1063.0630933797747, 243.0"/>
<path fill="none" stroke="#000000" stroke-width="1.0" d="M 230.37415608910413, 249.0L1059.6258439108963, 249.0"/>
<path fill="none" stroke="#000000" stroke-width="1.0" d="M 233.9278960323091, 255.0L1056.072103967691, 255.0"/>
<path fill="none" stroke="#000000" stroke-width="1.0" d="M 237.6011006339345, 261.0L1052.3988993660657, 261.0"/>
<path fill="none" stroke="#000000" stroke-width="1.0" d="M 241.39695394006253, 267.0L1048.6030460599377, 267.0"/>
<path fill="none" stroke="#000000" stroke-width="1.0" d="M 245.3188694822485, 273.0L1044.6811305177516, 273.0"/>
<path fill="none" stroke="#000000" stroke-width="1.0" d="M 249.3705123793378, 279.0L1040.629487620662, 279.0"/>
<path fill="none" stroke="#000000" stroke-width="1.0" d="M 253.55582431105665, 285.0L1036.444175688943, 285.0"/>
<path fill="none" stroke="#000000" stroke-width="1.0" d="M 257.87905183297715, 291.0L1032.1209481670228, 291.0"/>
<path fill="none" stroke="#000000" stroke-width="1.0" d="M 262.3447785961798, 297.0L1027.6552214038204, 297.0"/>
<path fill="none" stroke="#000000" stroke-width="1.0" d="M 266.95796215093225, 303.0L1023.042037849068, 303.0"/>
<path fill="none" stroke="#000000" stroke-width="1.0" d="M 271.72397615819773, 309.0L1018.2760238418022, 309.0"/>
<path fill="none" stroke="#000000" stroke-width="1.0" d="M 276.6486590139726, 315.0L1013.3513409860275, 315.0"/>
<path fill="none" stroke="#000000" stroke-width="1.0" d="M 281.73837012027406, 321.0L1008.2616298797259, 321.0"/>
<path fill="none" stroke="#000000" stroke-width="1.0" d="M 287.0000553277815, 327.0L1002.9999446722186, 327.0"/>
<path fill="none" stroke="#000000" stroke-width="1.0" d="M 292.4413234486658, 333.0L997.5586765513342, 333.0"/>
<path fill="none" stroke="#000000" stroke-width="1.0" d="M 298.0705362214809, 339.0L991.9294637785192, 339.0"/>
<path fill="none" stroke="#000000" stroke-width="1.0" d="M 303.89691474125135, 345.0L986.1030852587485, 345.0"/>
<path fill="none" stroke="#000000" stroke-width="1.0" d="M 309.93066620056464, 351.0L980.0693337994353, 351.0"/>
<path fill="none" stroke="#000000" stroke-width="1.0" d="M 316.18313589774453, 357.0L973.8168641022555, 357.0"/>
<path fill="none" stroke="#000000" stroke-width="1.0" d="M 322.6669909658325, 363.0L967.3330090341673, 363.0"/>
<path fill="none" stroke="#000000" stroke-width="1.0" d="M 329.396444321961, 369.0L960.603555678039, 369.0"/>
<path fill="none" stroke="#000000" stroke-width="1.0" d="M 336.38753017002284, 375.0L953.6124698299772, 375.0"/>
<path fill="none" stroke="#000000" stroke-width="1.0" d="M 343.6584463727236, 381.0L946.3415536272764, 381.0"/>
<path fill="none" stroke="#000000" stroke-width="1.0" d="M 351.2299847017672, 387.0L938.7700152982328, 387.0"/>
<path fill="none" stroke="#000000" stroke-width="1.0" d="M 359.1260782597856, 393.0L930.8739217402144, 393.0"/>
<path fill="none" stroke="#000000" stroke-width="1.0" d="M 367.3745076702751, 399.0L922.6254923297249, 399.0"/>
<path fill="none" stroke="#000000" stroke-width="1.0" d="M 376.00782631550953, 405.0L913.9921736844902, 405.0"/>
<path fill="none" stroke="#000000" stroke-width="1.0" d="M 385.06459400116916, 411.0L904.9354059988309, 411.0"/>
<path fill="none" stroke="#000000" stroke-width="1.0" d="M 394.5910550569414, 417.0L895.4089449430587, 417.0"/>
<path fill="none" stroke="#000000" stroke-width="1.0" d="M 404.6434740785629, 423.0L885.3565259214372, 423.0"/>
<path fill="none" stroke="#000000" stroke-width="1.0" d="M 415.2914751975153, 429.0L874.7085248024845, 429.0"/>
<path fill="none" stroke="#000000" stroke-width="1.0" d="M 426.62296900410547, 435.0L863.3770309958948, 435.0"/>
<path fill="none" stroke="#000000" stroke-width="1.0" d="M 438.751701742776, 441.0L851.248298257224, 441.0"/>
<path fill="none" stroke="#000000" stroke-width="1.0" d="M 451.8293679768216, 447.0L838.1706320231783, 447.0"/>
<path fill="none" stroke="#000000" stroke-width="1.0" d="M 466.06619756265724, 453.0L823.9338024373428, 453.0"/>
<path fill="none" stroke="#000000" stroke-width="1.0" d="M 481.76864259551644, 459.0L808.2313574044836, 459.0"/>
<path fill="none" stroke="#000000" stroke-width="1.0" d="M 499.41561098604546, 465.0L790.5843890139545, 465.0"/>
<path fill="none" stroke="#000000" stroke-width="1.0" d="M 519.8363345992503, 471.0L770.1636654007496, 471.0"/>
<path fill="none" stroke="#000000" stroke-width="1.0" d="M 544.7305298757466, 477.0L745.2694701242528, 477.0"/>
<path fill="none" stroke="#000000" stroke-width="1.0" d="M 579.0363814808209, 483.0L710.9636185191803, 483.0"/>
</g>
</svg>