<?xml version="1.0" encoding="utf-8"?>
<!DOCTYPE svg PUBLIC "-//W3C//DTD SVG 1.1 Tiny//EN" "http://www.w3.org/Graphics/SVG/1.1/DTD/svg11-tiny.dtd">
<svg version="1.1" baseProfile="tiny" id="openrndr-svg" xmlns="http://www.w3.org/2000/svg" xmlns:xlink="http://www.w3.org/1999/xlink" x="0px" y="0px" width="2676px" height="2048px"><g >
<path fill="none" stroke="#ffffff" stroke-width="7.397564587396488" d="M 568.0, 36.0L592.0, 36.0"/>
<path fill="none" stroke="#ffffff" stroke-width="5.194537550507046" d="M 592.0, 36.0L616.0, 36.0"/>
<path fill="none" stroke="#ffffff" stroke-width="3.242298249684418" d="M 616.0, 36.0L640.0, 36.0"/>
<path fill="none" stroke="#ffffff" stroke-width="4.677212754110247" d="M 640.0, 36.0L664.0, 36.0"/>
<path fill="none" stroke="#ffffff" stroke-width="7.166604478928016" d="M 664.0, 36.0L688.0, 36.0"/>
<path fill="none" stroke="#ffffff" stroke-width="11.814682747872482" d="M 688.0, 36.0L712.0, 36.0"/>
<path fill="none" stroke="#ffffff" stroke-width="13.941689994631638" d="M 712.0, 36.0L736.0, 36.0"/>
<path fill="none" stroke="#ffffff" stroke-width="5.109567121185547" d="M 736.0, 36.0L760.0, 36.0"/>
<path fill="none" stroke="#ffffff" stroke-width="9.907780122971928" d="M 568.0, 60.0L592.0, 60.0"/>
<path fill="none" stroke="#ffffff" stroke-width="6.455108951682206" d="M 592.0, 60.0L616.0, 60.0"/>
<path fill="none" stroke="#ffffff" stroke-width="4.305059480581495" d="M 616.0, 60.0L640.0, 60.0"/>
<path fill="none" stroke="#ffffff" stroke-width="4.837994780232183" d="M 640.0, 60.0L664.0, 60.0"/>
<path fill="none" stroke="#ffffff" stroke-width="5.3012246041081665" d="M 664.0, 60.0L688.0, 60.0"/>
<path fill="none" stroke="#ffffff" stroke-width="13.120203131400928" d="M 688.0, 60.0L712.0, 60.0"/>
<path fill="none" stroke="#ffffff" stroke-width="18.833884018405826" d="M 712.0, 60.0L736.0, 60.0"/>
<path fill="none" stroke="#ffffff" stroke-width="10.366385567467052" d="M 736.0, 60.0L760.0, 60.0"/>
<path fill="none" stroke="#ffffff" stroke-width="7.081079929200811" d="M 568.0, 84.0L592.0, 84.0"/>
<path fill="none" stroke="#ffffff" stroke-width="5.4773851081015765" d="M 592.0, 84.0L616.0, 84.0"/>
<path fill="none" stroke="#ffffff" stroke-width="2.321721503423467" d="M 616.0, 84.0L640.0, 84.0"/>
<path fill="none" stroke="#ffffff" stroke-width="1.7802865933540608" d="M 640.0, 84.0L664.0, 84.0"/>
<path fill="none" stroke="#ffffff" stroke-width="1.8859730604679532" d="M 664.0, 84.0L688.0, 84.0"/>
<path fill="none" stroke="#ffffff" stroke-width="3.645750066141614" d="M 688.0, 84.0L712.0, 84.0"/>
<path fill="none" stroke="#ffffff" stroke-width="13.118081131734378" d="M 712.0, 84.0L736.0, 84.0"/>
<path fill="none" stroke="#ffffff" stroke-width="13.71981052635184" d="M 736.0, 84.0L760.0, 84.0"/>
<path fill="none" stroke="#ffffff" stroke-width="6.354484696418492" d="M 568.0, 108.0L592.0, 108.0"/>
<path fill="none" stroke="#ffffff" stroke-width="3.9542251317875046" d="M 592.0, 108.0L616.0, 108.0"/>
<path fill="none" stroke="#ffffff" stroke-width="3.6613846294076593" d="M 616.0, 108.0L640.0, 108.0"/>
<path fill="none" stroke="#ffffff" stroke-width="6.119727664373076" d="M 640.0, 108.0L664.0, 108.0"/>
<path fill="none" stroke="#ffffff" stroke-width="3.908070058992805" d="M 664.0, 108.0L688.0, 108.0"/>
<path fill="none" stroke="#ffffff" stroke-width="7.226924850204483" d="M 688.0, 108.0L712.0, 108.0"/>
<path fill="none" stroke="#ffffff" stroke-width="8.363707520041876" d="M 712.0, 108.0L736.0, 108.0"/>
<path fill="none" stroke="#ffffff" stroke-width="15.972997804249795" d="M 736.0, 108.0L760.0, 108.0"/>
<path fill="none" stroke="#ffffff" stroke-width="1.0291482081023884" d="M 544.0, 132.0L568.0, 132.0"/>
<path fill="none" stroke="#ffffff" stroke-width="5.746557449763877" d="M 568.0, 132.0L592.0, 132.0"/>
<path fill="none" stroke="#ffffff" stroke-width="4.959684857430462" d="M 592.0, 132.0L616.0, 132.0"/>
<path fill="none" stroke="#ffffff" stroke-width="5.8529868279045" d="M 616.0, 132.0L640.0, 132.0"/>
<path fill="none" stroke="#ffffff" stroke-width="6.308583714354132" d="M 640.0, 132.0L664.0, 132.0"/>
<path fill="none" stroke="#ffffff" stroke-width="5.684235174375065" d="M 664.0, 132.0L688.0, 132.0"/>
<path fill="none" stroke="#ffffff" stroke-width="4.301680493671772" d="M 688.0, 132.0L712.0, 132.0"/>
<path fill="none" stroke="#ffffff" stroke-width="8.443505766489142" d="M 712.0, 132.0L736.0, 132.0"/>
<path fill="none" stroke="#ffffff" stroke-width="17.264228162718375" d="M 736.0, 132.0L760.0, 132.0"/>
<path fill="none" stroke="#ffffff" stroke-width="3.5477561703840292" d="M 544.0, 156.0L568.0, 156.0"/>
<path fill="none" stroke="#ffffff" stroke-width="5.641422595234768" d="M 568.0, 156.0L592.0, 156.0"/>
<path fill="none" stroke="#ffffff" stroke-width="5.38024911770616" d="M 592.0, 156.0L616.0, 156.0"/>
<path fill="none" stroke="#ffffff" stroke-width="3.3486281733190952" d="M 616.0, 156.0L640.0, 156.0"/>
<path fill="none" stroke="#ffffff" stroke-width="2.599944555725747" d="M 640.0, 156.0L664.0, 156.0"/>
<path fill="none" stroke="#ffffff" stroke-width="3.413753269265942" d="M 664.0, 156.0L688.0, 156.0"/>
<path fill="none" stroke="#ffffff" stroke-width="4.146701872731242" d="M 688.0, 156.0L712.0, 156.0"/>
<path fill="none" stroke="#ffffff" stroke-width="15.303823568553405" d="M 712.0, 156.0L736.0, 156.0"/>
<path fill="none" stroke="#ffffff" stroke-width="16.063670943442013" d="M 736.0, 156.0L760.0, 156.0"/>
<path fill="none" stroke="#ffffff" stroke-width="4.329205580725155" d="M 760.0, 156.0L784.0, 156.0"/>
<path fill="none" stroke="#ffffff" stroke-width="3.9901533367493283" d="M 544.0, 180.0L568.0, 180.0"/>
<path fill="none" stroke="#ffffff" stroke-width="3.961896706997259" d="M 568.0, 180.0L592.0, 180.0"/>
<path fill="none" stroke="#ffffff" stroke-width="4.437541734353341" d="M 592.0, 180.0L616.0, 180.0"/>
<path fill="none" stroke="#ffffff" stroke-width="7.077223041465389" d="M 616.0, 180.0L640.0, 180.0"/>
<path fill="none" stroke="#ffffff" stroke-width="5.807487894033073" d="M 640.0, 180.0L664.0, 180.0"/>
<path fill="none" stroke="#ffffff" stroke-width="5.862055170796564" d="M 664.0, 180.0L688.0, 180.0"/>
<path fill="none" stroke="#ffffff" stroke-width="12.387895703509665" d="M 688.0, 180.0L712.0, 180.0"/>
<path fill="none" stroke="#ffffff" stroke-width="13.109217130538408" d="M 712.0, 180.0L736.0, 180.0"/>
<path fill="none" stroke="#ffffff" stroke-width="9.072429081847575" d="M 736.0, 180.0L760.0, 180.0"/>
<path fill="none" stroke="#ffffff" stroke-width="16.745849300884537" d="M 760.0, 180.0L784.0, 180.0"/>
<path fill="none" stroke="#ffffff" stroke-width="3.419707749079475" d="M 784.0, 180.0L808.0, 180.0"/>
<path fill="none" stroke="#ffffff" stroke-width="3.7080544430302447" d="M 544.0, 204.0L568.0, 204.0"/>
<path fill="none" stroke="#ffffff" stroke-width="5.496331939535715" d="M 568.0, 204.0L592.0, 204.0"/>
<path fill="none" stroke="#ffffff" stroke-width="6.319542182403841" d="M 592.0, 204.0L616.0, 204.0"/>
<path fill="none" stroke="#ffffff" stroke-width="5.9617389641246" d="M 616.0, 204.0L640.0, 204.0"/>
<path fill="none" stroke="#ffffff" stroke-width="6.553168704125455" d="M 640.0, 204.0L664.0, 204.0"/>
<path fill="none" stroke="#ffffff" stroke-width="6.211465546656809" d="M 664.0, 204.0L688.0, 204.0"/>
<path fill="none" stroke="#ffffff" stroke-width="8.450526696413839" d="M 688.0, 204.0L712.0, 204.0"/>
<path fill="none" stroke="#ffffff" stroke-width="9.99054454074354" d="M 712.0, 204.0L736.0, 204.0"/>
<path fill="none" stroke="#ffffff" stroke-width="9.588875216298444" d="M 736.0, 204.0L760.0, 204.0"/>
<path fill="none" stroke="#ffffff" stroke-width="14.608854710971276" d="M 760.0, 204.0L784.0, 204.0"/>
<path fill="none" stroke="#ffffff" stroke-width="13.285982617893783" d="M 784.0, 204.0L808.0, 204.0"/>
<path fill="none" stroke="#ffffff" stroke-width="5.991882925735993" d="M 544.0, 228.0L568.0, 228.0"/>
<path fill="none" stroke="#ffffff" stroke-width="8.619519693513015" d="M 568.0, 228.0L592.0, 228.0"/>
<path fill="none" stroke="#ffffff" stroke-width="8.179190072174208" d="M 592.0, 228.0L616.0, 228.0"/>
<path fill="none" stroke="#ffffff" stroke-width="5.219001012599172" d="M 616.0, 228.0L640.0, 228.0"/>
<path fill="none" stroke="#ffffff" stroke-width="9.623084645393636" d="M 640.0, 228.0L664.0, 228.0"/>
<path fill="none" stroke="#ffffff" stroke-width="8.009454648147523" d="M 664.0, 228.0L688.0, 228.0"/>
<path fill="none" stroke="#ffffff" stroke-width="10.602360878023726" d="M 688.0, 228.0L712.0, 228.0"/>
<path fill="none" stroke="#ffffff" stroke-width="7.697232223681391" d="M 712.0, 228.0L736.0, 228.0"/>
<path fill="none" stroke="#ffffff" stroke-width="10.016617317712413" d="M 736.0, 228.0L760.0, 228.0"/>
<path fill="none" stroke="#ffffff" stroke-width="12.360959484429916" d="M 760.0, 228.0L784.0, 228.0"/>
<path fill="none" stroke="#ffffff" stroke-width="14.879999978626572" d="M 784.0, 228.0L808.0, 228.0"/>
<path fill="none" stroke="#ffffff" stroke-width="2.261130499319571" d="M 808.0, 228.0L832.0, 228.0"/>
<path fill="none" stroke="#ffffff" stroke-width="7.289223935728884" d="M 544.0, 252.0L568.0, 252.0"/>
<path fill="none" stroke="#ffffff" stroke-width="9.817587841909912" d="M 568.0, 252.0L592.0, 252.0"/>
<path fill="none" stroke="#ffffff" stroke-width="7.29798242943321" d="M 592.0, 252.0L616.0, 252.0"/>
<path fill="none" stroke="#ffffff" stroke-width="4.896311666907824" d="M 616.0, 252.0L640.0, 252.0"/>
<path fill="none" stroke="#ffffff" stroke-width="9.7673739414527" d="M 640.0, 252.0L664.0, 252.0"/>
<path fill="none" stroke="#ffffff" stroke-width="10.499958920863802" d="M 664.0, 252.0L688.0, 252.0"/>
<path fill="none" stroke="#ffffff" stroke-width="8.984184922408513" d="M 688.0, 252.0L712.0, 252.0"/>
<path fill="none" stroke="#ffffff" stroke-width="9.475738747794404" d="M 712.0, 252.0L736.0, 252.0"/>
<path fill="none" stroke="#ffffff" stroke-width="8.395543922789898" d="M 736.0, 252.0L760.0, 252.0"/>
<path fill="none" stroke="#ffffff" stroke-width="10.750573308347896" d="M 760.0, 252.0L784.0, 252.0"/>
<path fill="none" stroke="#ffffff" stroke-width="15.333055942947038" d="M 784.0, 252.0L808.0, 252.0"/>
<path fill="none" stroke="#ffffff" stroke-width="9.139940918661061" d="M 808.0, 252.0L832.0, 252.0"/>
<path fill="none" stroke="#ffffff" stroke-width="1.2876568346537636" d="M 520.0, 276.0L544.0, 276.0"/>
<path fill="none" stroke="#ffffff" stroke-width="8.238750366086565" d="M 544.0, 276.0L568.0, 276.0"/>
<path fill="none" stroke="#ffffff" stroke-width="9.186815394561972" d="M 568.0, 276.0L592.0, 276.0"/>
<path fill="none" stroke="#ffffff" stroke-width="5.808283710454552" d="M 592.0, 276.0L616.0, 276.0"/>
<path fill="none" stroke="#ffffff" stroke-width="6.501975506176463" d="M 616.0, 276.0L640.0, 276.0"/>
<path fill="none" stroke="#ffffff" stroke-width="4.3857018967897785" d="M 640.0, 276.0L664.0, 276.0"/>
<path fill="none" stroke="#ffffff" stroke-width="4.504886033737686" d="M 664.0, 276.0L688.0, 276.0"/>
<path fill="none" stroke="#ffffff" stroke-width="6.731664677977885" d="M 688.0, 276.0L712.0, 276.0"/>
<path fill="none" stroke="#ffffff" stroke-width="4.78230285762915" d="M 712.0, 276.0L736.0, 276.0"/>
<path fill="none" stroke="#ffffff" stroke-width="13.261224112463516" d="M 736.0, 276.0L760.0, 276.0"/>
<path fill="none" stroke="#ffffff" stroke-width="16.576467682808207" d="M 760.0, 276.0L784.0, 276.0"/>
<path fill="none" stroke="#ffffff" stroke-width="15.401410221705756" d="M 784.0, 276.0L808.0, 276.0"/>
<path fill="none" stroke="#ffffff" stroke-width="10.806959187631684" d="M 808.0, 276.0L832.0, 276.0"/>
<path fill="none" stroke="#ffffff" stroke-width="3.7094261960473487" d="M 520.0, 300.0L544.0, 300.0"/>
<path fill="none" stroke="#ffffff" stroke-width="7.526465004951669" d="M 544.0, 300.0L568.0, 300.0"/>
<path fill="none" stroke="#ffffff" stroke-width="9.337706745630797" d="M 568.0, 300.0L592.0, 300.0"/>
<path fill="none" stroke="#ffffff" stroke-width="4.849815596101155" d="M 592.0, 300.0L616.0, 300.0"/>
<path fill="none" stroke="#ffffff" stroke-width="6.2459026420239585" d="M 616.0, 300.0L640.0, 300.0"/>
<path fill="none" stroke="#ffffff" stroke-width="3.9585797382429284" d="M 640.0, 300.0L664.0, 300.0"/>
<path fill="none" stroke="#ffffff" stroke-width="7.562733480043569" d="M 664.0, 300.0L688.0, 300.0"/>
<path fill="none" stroke="#ffffff" stroke-width="3.789189334531594" d="M 688.0, 300.0L712.0, 300.0"/>
<path fill="none" stroke="#ffffff" stroke-width="5.519722764619954" d="M 712.0, 300.0L736.0, 300.0"/>
<path fill="none" stroke="#ffffff" stroke-width="11.240815883547386" d="M 736.0, 300.0L760.0, 300.0"/>
<path fill="none" stroke="#ffffff" stroke-width="16.371430657755667" d="M 760.0, 300.0L784.0, 300.0"/>
<path fill="none" stroke="#ffffff" stroke-width="13.00105875873054" d="M 784.0, 300.0L808.0, 300.0"/>
<path fill="none" stroke="#ffffff" stroke-width="2.6219277674654835" d="M 808.0, 300.0L832.0, 300.0"/>
<path fill="none" stroke="#ffffff" stroke-width="2.912454478719083" d="M 520.0, 324.0L544.0, 324.0"/>
<path fill="none" stroke="#ffffff" stroke-width="6.9491590481347485" d="M 544.0, 324.0L568.0, 324.0"/>
<path fill="none" stroke="#ffffff" stroke-width="9.625149005715125" d="M 568.0, 324.0L592.0, 324.0"/>
<path fill="none" stroke="#ffffff" stroke-width="4.264102550244236" d="M 592.0, 324.0L616.0, 324.0"/>
<path fill="none" stroke="#ffffff" stroke-width="7.611258370773992" d="M 616.0, 324.0L640.0, 324.0"/>
<path fill="none" stroke="#ffffff" stroke-width="3.194881769766162" d="M 640.0, 324.0L664.0, 324.0"/>
<path fill="none" stroke="#ffffff" stroke-width="8.875973403683528" d="M 664.0, 324.0L688.0, 324.0"/>
<path fill="none" stroke="#ffffff" stroke-width="6.722217882703325" d="M 688.0, 324.0L712.0, 324.0"/>
<path fill="none" stroke="#ffffff" stroke-width="6.862778905166478" d="M 712.0, 324.0L736.0, 324.0"/>
<path fill="none" stroke="#ffffff" stroke-width="19.84257573107803" d="M 736.0, 324.0L760.0, 324.0"/>
<path fill="none" stroke="#ffffff" stroke-width="10.298729312345992" d="M 760.0, 324.0L784.0, 324.0"/>
<path fill="none" stroke="#ffffff" stroke-width="3.364879513902157" d="M 520.0, 348.0L544.0, 348.0"/>
<path fill="none" stroke="#ffffff" stroke-width="8.025995240929818" d="M 544.0, 348.0L568.0, 348.0"/>
<path fill="none" stroke="#ffffff" stroke-width="8.115957155243812" d="M 568.0, 348.0L592.0, 348.0"/>
<path fill="none" stroke="#ffffff" stroke-width="6.880257334168754" d="M 592.0, 348.0L616.0, 348.0"/>
<path fill="none" stroke="#ffffff" stroke-width="4.654001418911147" d="M 616.0, 348.0L640.0, 348.0"/>
<path fill="none" stroke="#ffffff" stroke-width="5.69115911959596" d="M 640.0, 348.0L664.0, 348.0"/>
<path fill="none" stroke="#ffffff" stroke-width="6.819472872966625" d="M 664.0, 348.0L688.0, 348.0"/>
<path fill="none" stroke="#ffffff" stroke-width="11.095292193106937" d="M 688.0, 348.0L712.0, 348.0"/>
<path fill="none" stroke="#ffffff" stroke-width="16.139309360824882" d="M 712.0, 348.0L736.0, 348.0"/>
<path fill="none" stroke="#ffffff" stroke-width="19.069168573776643" d="M 736.0, 348.0L760.0, 348.0"/>
<path fill="none" stroke="#ffffff" stroke-width="6.4052580945035285" d="M 760.0, 348.0L784.0, 348.0"/>
<path fill="none" stroke="#ffffff" stroke-width="5.162380245102206" d="M 520.0, 372.0L544.0, 372.0"/>
<path fill="none" stroke="#ffffff" stroke-width="9.676584732239213" d="M 544.0, 372.0L568.0, 372.0"/>
<path fill="none" stroke="#ffffff" stroke-width="3.6068389599037864" d="M 568.0, 372.0L592.0, 372.0"/>
<path fill="none" stroke="#ffffff" stroke-width="6.7419414849944905" d="M 592.0, 372.0L616.0, 372.0"/>
<path fill="none" stroke="#ffffff" stroke-width="6.48079429669902" d="M 616.0, 372.0L640.0, 372.0"/>
<path fill="none" stroke="#ffffff" stroke-width="7.0251717676766345" d="M 640.0, 372.0L664.0, 372.0"/>
<path fill="none" stroke="#ffffff" stroke-width="10.05330422712861" d="M 664.0, 372.0L688.0, 372.0"/>
<path fill="none" stroke="#ffffff" stroke-width="12.857601027841618" d="M 688.0, 372.0L712.0, 372.0"/>
<path fill="none" stroke="#ffffff" stroke-width="15.635716790813742" d="M 712.0, 372.0L736.0, 372.0"/>
<path fill="none" stroke="#ffffff" stroke-width="17.122916369027617" d="M 736.0, 372.0L760.0, 372.0"/>
<path fill="none" stroke="#ffffff" stroke-width="9.229339165433771" d="M 760.0, 372.0L784.0, 372.0"/>
<path fill="none" stroke="#ffffff" stroke-width="3.6171840975781384" d="M 520.0, 396.0L544.0, 396.0"/>
<path fill="none" stroke="#ffffff" stroke-width="3.1961438260758848" d="M 544.0, 396.0L568.0, 396.0"/>
<path fill="none" stroke="#ffffff" stroke-width="0.7732061828980653" d="M 568.0, 396.0L592.0, 396.0"/>
<path fill="none" stroke="#ffffff" stroke-width="4.669801409039483" d="M 592.0, 396.0L616.0, 396.0"/>
<path fill="none" stroke="#ffffff" stroke-width="7.17970823844623" d="M 616.0, 396.0L640.0, 396.0"/>
<path fill="none" stroke="#ffffff" stroke-width="9.307323661382203" d="M 640.0, 396.0L664.0, 396.0"/>
<path fill="none" stroke="#ffffff" stroke-width="10.966462848646467" d="M 664.0, 396.0L688.0, 396.0"/>
<path fill="none" stroke="#ffffff" stroke-width="12.783515803910749" d="M 688.0, 396.0L712.0, 396.0"/>
<path fill="none" stroke="#ffffff" stroke-width="15.435408364627857" d="M 712.0, 396.0L736.0, 396.0"/>
<path fill="none" stroke="#ffffff" stroke-width="16.40628500164074" d="M 736.0, 396.0L760.0, 396.0"/>
<path fill="none" stroke="#ffffff" stroke-width="16.611063476721505" d="M 760.0, 396.0L784.0, 396.0"/>
<path fill="none" stroke="#ffffff" stroke-width="3.5476585524255047" d="M 520.0, 420.0L544.0, 420.0"/>
<path fill="none" stroke="#ffffff" stroke-width="3.5595290953569325" d="M 544.0, 420.0L568.0, 420.0"/>
<path fill="none" stroke="#ffffff" stroke-width="1.362984815925525" d="M 568.0, 420.0L592.0, 420.0"/>
<path fill="none" stroke="#ffffff" stroke-width="7.024440190425876" d="M 592.0, 420.0L616.0, 420.0"/>
<path fill="none" stroke="#ffffff" stroke-width="9.635967631644661" d="M 616.0, 420.0L640.0, 420.0"/>
<path fill="none" stroke="#ffffff" stroke-width="11.443610650768557" d="M 640.0, 420.0L664.0, 420.0"/>
<path fill="none" stroke="#ffffff" stroke-width="14.680362168936748" d="M 664.0, 420.0L688.0, 420.0"/>
<path fill="none" stroke="#ffffff" stroke-width="12.911590190388484" d="M 688.0, 420.0L712.0, 420.0"/>
<path fill="none" stroke="#ffffff" stroke-width="13.441075190248409" d="M 712.0, 420.0L736.0, 420.0"/>
<path fill="none" stroke="#ffffff" stroke-width="15.764474429074834" d="M 736.0, 420.0L760.0, 420.0"/>
<path fill="none" stroke="#ffffff" stroke-width="19.85263810119486" d="M 760.0, 420.0L784.0, 420.0"/>
<path fill="none" stroke="#ffffff" stroke-width="2.4686787771759042" d="M 784.0, 420.0L808.0, 420.0"/>
<path fill="none" stroke="#ffffff" stroke-width="3.449802101540473" d="M 520.0, 444.0L544.0, 444.0"/>
<path fill="none" stroke="#ffffff" stroke-width="3.8647848522579653" d="M 544.0, 444.0L568.0, 444.0"/>
<path fill="none" stroke="#ffffff" stroke-width="2.9938984161196363" d="M 568.0, 444.0L592.0, 444.0"/>
<path fill="none" stroke="#ffffff" stroke-width="9.65800067465135" d="M 592.0, 444.0L616.0, 444.0"/>
<path fill="none" stroke="#ffffff" stroke-width="10.325599199987888" d="M 616.0, 444.0L640.0, 444.0"/>
<path fill="none" stroke="#ffffff" stroke-width="11.55480626931848" d="M 640.0, 444.0L664.0, 444.0"/>
<path fill="none" stroke="#ffffff" stroke-width="13.818720660361585" d="M 664.0, 444.0L688.0, 444.0"/>
<path fill="none" stroke="#ffffff" stroke-width="13.751610363291178" d="M 688.0, 444.0L712.0, 444.0"/>
<path fill="none" stroke="#ffffff" stroke-width="17.280793685305717" d="M 712.0, 444.0L736.0, 444.0"/>
<path fill="none" stroke="#ffffff" stroke-width="13.83400455120043" d="M 736.0, 444.0L760.0, 444.0"/>
<path fill="none" stroke="#ffffff" stroke-width="18.417388679054845" d="M 760.0, 444.0L784.0, 444.0"/>
<path fill="none" stroke="#ffffff" stroke-width="4.4922273451815276" d="M 784.0, 444.0L808.0, 444.0"/>
<path fill="none" stroke="#ffffff" stroke-width="0.946763086805341" d="M 568.0, 468.0L592.0, 468.0"/>
<path fill="none" stroke="#ffffff" stroke-width="8.625556030982978" d="M 592.0, 468.0L616.0, 468.0"/>
<path fill="none" stroke="#ffffff" stroke-width="10.076606813622293" d="M 616.0, 468.0L640.0, 468.0"/>
<path fill="none" stroke="#ffffff" stroke-width="13.403229630013904" d="M 640.0, 468.0L664.0, 468.0"/>
<path fill="none" stroke="#ffffff" stroke-width="5.09986254280094" d="M 664.0, 468.0L688.0, 468.0"/>
<path fill="none" stroke="#ffffff" stroke-width="4.730475220739289" d="M 688.0, 468.0L712.0, 468.0"/>
<path fill="none" stroke="#ffffff" stroke-width="20.550985764721375" d="M 712.0, 468.0L736.0, 468.0"/>
<path fill="none" stroke="#ffffff" stroke-width="12.551380960086107" d="M 736.0, 468.0L760.0, 468.0"/>
<path fill="none" stroke="#ffffff" stroke-width="16.999955152120627" d="M 760.0, 468.0L784.0, 468.0"/>
<path fill="none" stroke="#ffffff" stroke-width="7.106365564563053" d="M 784.0, 468.0L808.0, 468.0"/>
<path fill="none" stroke="#ffffff" stroke-width="1.9793900521429615" d="M 568.0, 492.0L592.0, 492.0"/>
<path fill="none" stroke="#ffffff" stroke-width="8.792036140652968" d="M 592.0, 492.0L616.0, 492.0"/>
<path fill="none" stroke="#ffffff" stroke-width="11.074199380329027" d="M 616.0, 492.0L640.0, 492.0"/>
<path fill="none" stroke="#ffffff" stroke-width="15.771009267123912" d="M 640.0, 492.0L664.0, 492.0"/>
<path fill="none" stroke="#ffffff" stroke-width="17.783107364904723" d="M 712.0, 492.0L736.0, 492.0"/>
<path fill="none" stroke="#ffffff" stroke-width="13.09317986164054" d="M 736.0, 492.0L760.0, 492.0"/>
<path fill="none" stroke="#ffffff" stroke-width="13.892998170204118" d="M 760.0, 492.0L784.0, 492.0"/>
<path fill="none" stroke="#ffffff" stroke-width="9.229836050894813" d="M 784.0, 492.0L808.0, 492.0"/>
<path fill="none" stroke="#ffffff" stroke-width="3.0647024654554196" d="M 568.0, 516.0L592.0, 516.0"/>
<path fill="none" stroke="#ffffff" stroke-width="9.517067597656858" d="M 592.0, 516.0L616.0, 516.0"/>
<path fill="none" stroke="#ffffff" stroke-width="11.4180696606502" d="M 616.0, 516.0L640.0, 516.0"/>
<path fill="none" stroke="#ffffff" stroke-width="15.229701971212027" d="M 640.0, 516.0L664.0, 516.0"/>
<path fill="none" stroke="#ffffff" stroke-width="12.95992449678404" d="M 712.0, 516.0L736.0, 516.0"/>
<path fill="none" stroke="#ffffff" stroke-width="14.375237412153886" d="M 736.0, 516.0L760.0, 516.0"/>
<path fill="none" stroke="#ffffff" stroke-width="9.751302498838253" d="M 760.0, 516.0L784.0, 516.0"/>
<path fill="none" stroke="#ffffff" stroke-width="12.195704755689645" d="M 784.0, 516.0L808.0, 516.0"/>
<path fill="none" stroke="#ffffff" stroke-width="3.1777597173696663" d="M 568.0, 540.0L592.0, 540.0"/>
<path fill="none" stroke="#ffffff" stroke-width="9.397817725268752" d="M 592.0, 540.0L616.0, 540.0"/>
<path fill="none" stroke="#ffffff" stroke-width="6.655247201919753" d="M 616.0, 540.0L640.0, 540.0"/>
<path fill="none" stroke="#ffffff" stroke-width="11.069582544158209" d="M 640.0, 540.0L664.0, 540.0"/>
<path fill="none" stroke="#ffffff" stroke-width="5.208148329990081" d="M 712.0, 540.0L736.0, 540.0"/>
<path fill="none" stroke="#ffffff" stroke-width="13.915664720987888" d="M 736.0, 540.0L760.0, 540.0"/>
<path fill="none" stroke="#ffffff" stroke-width="10.661307425866555" d="M 760.0, 540.0L784.0, 540.0"/>
<path fill="none" stroke="#ffffff" stroke-width="12.982642289301182" d="M 784.0, 540.0L808.0, 540.0"/>
<path fill="none" stroke="#ffffff" stroke-width="3.003648535115578" d="M 568.0, 564.0L592.0, 564.0"/>
<path fill="none" stroke="#ffffff" stroke-width="8.375966153926981" d="M 592.0, 564.0L616.0, 564.0"/>
<path fill="none" stroke="#ffffff" stroke-width="8.519833628262392" d="M 616.0, 564.0L640.0, 564.0"/>
<path fill="none" stroke="#ffffff" stroke-width="7.160098534212894" d="M 640.0, 564.0L664.0, 564.0"/>
<path fill="none" stroke="#ffffff" stroke-width="9.984790250734015" d="M 736.0, 564.0L760.0, 564.0"/>
<path fill="none" stroke="#ffffff" stroke-width="8.451165494338003" d="M 760.0, 564.0L784.0, 564.0"/>
<path fill="none" stroke="#ffffff" stroke-width="8.243719434019745" d="M 784.0, 564.0L808.0, 564.0"/>
<path fill="none" stroke="#ffffff" stroke-width="1.2148430122796086" d="M 568.0, 588.0L592.0, 588.0"/>
<path fill="none" stroke="#ffffff" stroke-width="5.471659764979434" d="M 592.0, 588.0L616.0, 588.0"/>
<path fill="none" stroke="#ffffff" stroke-width="6.863975329872137" d="M 616.0, 588.0L640.0, 588.0"/>
<path fill="none" stroke="#ffffff" stroke-width="3.218011531907168" d="M 736.0, 588.0L760.0, 588.0"/>
<path fill="none" stroke="#ffffff" stroke-width="3.516972851624299" d="M 760.0, 588.0L784.0, 588.0"/>
<path fill="none" stroke="#ffffff" stroke-width="4.702460327246076" d="M 784.0, 588.0L808.0, 588.0"/>
<path fill="none" stroke="#ffffff" stroke-width="1.9025371437593286" d="M 808.0, 588.0L832.0, 588.0"/>
<path fill="none" stroke="#ffffff" stroke-width="1.9816059957548258" d="M 568.0, 612.0L592.0, 612.0"/>
<path fill="none" stroke="#ffffff" stroke-width="2.3243102782140292" d="M 592.0, 612.0L616.0, 612.0"/>
<path fill="none" stroke="#ffffff" stroke-width="5.832599368557906" d="M 616.0, 612.0L640.0, 612.0"/>
<path fill="none" stroke="#ffffff" stroke-width="2.9535373166278323" d="M 760.0, 612.0L784.0, 612.0"/>
<path fill="none" stroke="#ffffff" stroke-width="2.768739632663275" d="M 784.0, 612.0L808.0, 612.0"/>
<path fill="none" stroke="#ffffff" stroke-width="4.008545285342303" d="M 808.0, 612.0L832.0, 612.0"/>
<path fill="none" stroke="#ffffff" stroke-width="1.1545361916077577" d="M 568.0, 636.0L592.0, 636.0"/>
<path fill="none" stroke="#ffffff" stroke-width="2.7841951923532786" d="M 592.0, 636.0L616.0, 636.0"/>
<path fill="none" stroke="#ffffff" stroke-width="3.326795066462102" d="M 616.0, 636.0L640.0, 636.0"/>
</g>
</svg>