<?xml version="1.0" encoding="utf-8"?>
<!DOCTYPE svg PUBLIC "-//W3C//DTD SVG 1.1 Tiny//EN" "http://www.w3.org/Graphics/SVG/1.1/DTD/svg11-tiny.dtd">
<svg version="1.1" baseProfile="tiny" id="openrndr-svg" xmlns="http://www.w3.org/2000/svg" xmlns:xlink="http://www.w3.org/1999/xlink" x="0px" y="0px" width="2676px" height="2048px"><g >
<path fill="none" stroke="#ffffff" stroke-width="3.255632360152646" d="M 544.0, 24.0L592.0, 24.0"/>
<path fill="none" stroke="#ffffff" stroke-width="3.9337621798075144" d="M 592.0, 24.0L640.0, 24.0"/>
<path fill="none" stroke="#ffffff" stroke-width="5.878045149743972" d="M 640.0, 24.0L688.0, 24.0"/>
<path fill="none" stroke="#ffffff" stroke-width="12.330983118833673" d="M 688.0, 24.0L736.0, 24.0"/>
<path fill="none" stroke="#ffffff" stroke-width="2.224068267773716" d="M 736.0, 24.0L784.0, 24.0"/>
<path fill="none" stroke="#ffffff" stroke-width="8.3037198133317" d="M 544.0, 72.0L592.0, 72.0"/>
<path fill="none" stroke="#ffffff" stroke-width="9.228684550748849" d="M 592.0, 72.0L640.0, 72.0"/>
<path fill="none" stroke="#ffffff" stroke-width="6.830072515072098" d="M 640.0, 72.0L688.0, 72.0"/>
<path fill="none" stroke="#ffffff" stroke-width="24.091839319073404" d="M 688.0, 72.0L736.0, 72.0"/>
<path fill="none" stroke="#ffffff" stroke-width="11.226671005375264" d="M 736.0, 72.0L784.0, 72.0"/>
<path fill="none" stroke="#ffffff" stroke-width="6.393422009052315" d="M 544.0, 120.0L592.0, 120.0"/>
<path fill="none" stroke="#ffffff" stroke-width="9.199547396652894" d="M 592.0, 120.0L640.0, 120.0"/>
<path fill="none" stroke="#ffffff" stroke-width="10.994298481543812" d="M 640.0, 120.0L688.0, 120.0"/>
<path fill="none" stroke="#ffffff" stroke-width="14.128003119683427" d="M 688.0, 120.0L736.0, 120.0"/>
<path fill="none" stroke="#ffffff" stroke-width="15.504650165906513" d="M 736.0, 120.0L784.0, 120.0"/>
<path fill="none" stroke="#ffffff" stroke-width="8.557700093668432" d="M 544.0, 168.0L592.0, 168.0"/>
<path fill="none" stroke="#ffffff" stroke-width="10.088342439988036" d="M 592.0, 168.0L640.0, 168.0"/>
<path fill="none" stroke="#ffffff" stroke-width="8.797074580014606" d="M 640.0, 168.0L688.0, 168.0"/>
<path fill="none" stroke="#ffffff" stroke-width="22.296705862223433" d="M 688.0, 168.0L736.0, 168.0"/>
<path fill="none" stroke="#ffffff" stroke-width="22.872300175743646" d="M 736.0, 168.0L784.0, 168.0"/>
<path fill="none" stroke="#ffffff" stroke-width="1.4885142536346287" d="M 784.0, 168.0L832.0, 168.0"/>
<path fill="none" stroke="#ffffff" stroke-width="11.86097426670371" d="M 544.0, 216.0L592.0, 216.0"/>
<path fill="none" stroke="#ffffff" stroke-width="12.823447650039046" d="M 592.0, 216.0L640.0, 216.0"/>
<path fill="none" stroke="#ffffff" stroke-width="15.177255825113134" d="M 640.0, 216.0L688.0, 216.0"/>
<path fill="none" stroke="#ffffff" stroke-width="18.35685821348953" d="M 688.0, 216.0L736.0, 216.0"/>
<path fill="none" stroke="#ffffff" stroke-width="23.25664130441593" d="M 736.0, 216.0L784.0, 216.0"/>
<path fill="none" stroke="#ffffff" stroke-width="14.514535078758557" d="M 784.0, 216.0L832.0, 216.0"/>
<path fill="none" stroke="#ffffff" stroke-width="0.8136518698055821" d="M 496.0, 264.0L544.0, 264.0"/>
<path fill="none" stroke="#ffffff" stroke-width="17.25641446030775" d="M 544.0, 264.0L592.0, 264.0"/>
<path fill="none" stroke="#ffffff" stroke-width="12.240540644091874" d="M 592.0, 264.0L640.0, 264.0"/>
<path fill="none" stroke="#ffffff" stroke-width="14.474363129962377" d="M 640.0, 264.0L688.0, 264.0"/>
<path fill="none" stroke="#ffffff" stroke-width="14.94197051611479" d="M 688.0, 264.0L736.0, 264.0"/>
<path fill="none" stroke="#ffffff" stroke-width="24.423391914790137" d="M 736.0, 264.0L784.0, 264.0"/>
<path fill="none" stroke="#ffffff" stroke-width="25.284801845941026" d="M 784.0, 264.0L832.0, 264.0"/>
<path fill="none" stroke="#ffffff" stroke-width="3.0871770043000204" d="M 496.0, 312.0L544.0, 312.0"/>
<path fill="none" stroke="#ffffff" stroke-width="16.704879621934026" d="M 544.0, 312.0L592.0, 312.0"/>
<path fill="none" stroke="#ffffff" stroke-width="11.459213362480313" d="M 592.0, 312.0L640.0, 312.0"/>
<path fill="none" stroke="#ffffff" stroke-width="11.706180307171042" d="M 640.0, 312.0L688.0, 312.0"/>
<path fill="none" stroke="#ffffff" stroke-width="11.421150636414623" d="M 688.0, 312.0L736.0, 312.0"/>
<path fill="none" stroke="#ffffff" stroke-width="28.782596921201062" d="M 736.0, 312.0L784.0, 312.0"/>
<path fill="none" stroke="#ffffff" stroke-width="7.126990584261539" d="M 784.0, 312.0L832.0, 312.0"/>
<path fill="none" stroke="#ffffff" stroke-width="3.970004164318896" d="M 496.0, 360.0L544.0, 360.0"/>
<path fill="none" stroke="#ffffff" stroke-width="14.63997072436372" d="M 544.0, 360.0L592.0, 360.0"/>
<path fill="none" stroke="#ffffff" stroke-width="12.36586236100981" d="M 592.0, 360.0L640.0, 360.0"/>
<path fill="none" stroke="#ffffff" stroke-width="14.76398793813381" d="M 640.0, 360.0L688.0, 360.0"/>
<path fill="none" stroke="#ffffff" stroke-width="27.835743686023612" d="M 688.0, 360.0L736.0, 360.0"/>
<path fill="none" stroke="#ffffff" stroke-width="25.70762124443838" d="M 736.0, 360.0L784.0, 360.0"/>
<path fill="none" stroke="#ffffff" stroke-width="3.3425029792865883" d="M 496.0, 408.0L544.0, 408.0"/>
<path fill="none" stroke="#ffffff" stroke-width="4.383811286383747" d="M 544.0, 408.0L592.0, 408.0"/>
<path fill="none" stroke="#ffffff" stroke-width="14.214802361395158" d="M 592.0, 408.0L640.0, 408.0"/>
<path fill="none" stroke="#ffffff" stroke-width="23.169894948172214" d="M 640.0, 408.0L688.0, 408.0"/>
<path fill="none" stroke="#ffffff" stroke-width="27.278445281945253" d="M 688.0, 408.0L736.0, 408.0"/>
<path fill="none" stroke="#ffffff" stroke-width="34.304307685321234" d="M 736.0, 408.0L784.0, 408.0"/>
<path fill="none" stroke="#ffffff" stroke-width="1.1664605459069457" d="M 784.0, 408.0L832.0, 408.0"/>
<path fill="none" stroke="#ffffff" stroke-width="1.652710423642872" d="M 496.0, 456.0L544.0, 456.0"/>
<path fill="none" stroke="#ffffff" stroke-width="3.933017935521039" d="M 544.0, 456.0L592.0, 456.0"/>
<path fill="none" stroke="#ffffff" stroke-width="19.33884151356025" d="M 592.0, 456.0L640.0, 456.0"/>
<path fill="none" stroke="#ffffff" stroke-width="21.81962129711216" d="M 640.0, 456.0L688.0, 456.0"/>
<path fill="none" stroke="#ffffff" stroke-width="27.886877270406703" d="M 688.0, 456.0L736.0, 456.0"/>
<path fill="none" stroke="#ffffff" stroke-width="30.86853265286544" d="M 736.0, 456.0L784.0, 456.0"/>
<path fill="none" stroke="#ffffff" stroke-width="5.398319117005625" d="M 784.0, 456.0L832.0, 456.0"/>
<path fill="none" stroke="#ffffff" stroke-width="2.348156510311526" d="M 544.0, 504.0L592.0, 504.0"/>
<path fill="none" stroke="#ffffff" stroke-width="20.39014221707601" d="M 592.0, 504.0L640.0, 504.0"/>
<path fill="none" stroke="#ffffff" stroke-width="14.594192882486333" d="M 640.0, 504.0L688.0, 504.0"/>
<path fill="none" stroke="#ffffff" stroke-width="14.414794137911102" d="M 688.0, 504.0L736.0, 504.0"/>
<path fill="none" stroke="#ffffff" stroke-width="25.531795518833597" d="M 736.0, 504.0L784.0, 504.0"/>
<path fill="none" stroke="#ffffff" stroke-width="9.986630641139692" d="M 784.0, 504.0L832.0, 504.0"/>
<path fill="none" stroke="#ffffff" stroke-width="2.8836249068804447" d="M 544.0, 552.0L592.0, 552.0"/>
<path fill="none" stroke="#ffffff" stroke-width="16.46318100747363" d="M 592.0, 552.0L640.0, 552.0"/>
<path fill="none" stroke="#ffffff" stroke-width="8.495512506239532" d="M 640.0, 552.0L688.0, 552.0"/>
<path fill="none" stroke="#ffffff" stroke-width="2.650172211690799" d="M 688.0, 552.0L736.0, 552.0"/>
<path fill="none" stroke="#ffffff" stroke-width="21.473809531584756" d="M 736.0, 552.0L784.0, 552.0"/>
<path fill="none" stroke="#ffffff" stroke-width="9.879797992887566" d="M 784.0, 552.0L832.0, 552.0"/>
<path fill="none" stroke="#ffffff" stroke-width="1.4872526277882052" d="M 544.0, 600.0L592.0, 600.0"/>
<path fill="none" stroke="#ffffff" stroke-width="10.186895683664348" d="M 592.0, 600.0L640.0, 600.0"/>
<path fill="none" stroke="#ffffff" stroke-width="4.950741509975897" d="M 736.0, 600.0L784.0, 600.0"/>
<path fill="none" stroke="#ffffff" stroke-width="6.657909049097475" d="M 784.0, 600.0L832.0, 600.0"/>
<path fill="none" stroke="#ffffff" stroke-width="2.8498546154096513" d="M 592.0, 648.0L640.0, 648.0"/>
</g>
</svg>