<?xml version="1.0" encoding="utf-8"?>
<!DOCTYPE svg PUBLIC "-//W3C//DTD SVG 1.1 Tiny//EN" "http://www.w3.org/Graphics/SVG/1.1/DTD/svg11-tiny.dtd">
<svg version="1.1" baseProfile="tiny" id="openrndr-svg" xmlns="http://www.w3.org/2000/svg" xmlns:xlink="http://www.w3.org/1999/xlink" x="0px" y="0px" width="1280px" height="720px"><g >
<path fill="none" stroke="#000000" stroke-width="1.0" d="M 106.0, 6.0L1174.0, 6.0"/>
<path fill="none" stroke="#000000" stroke-width="1.0" d="M 106.0, 18.0L1174.0, 18.0"/>
<path fill="none" stroke="#000000" stroke-width="1.0" d="M 106.0, 30.0L1174.0, 30.0"/>
<path fill="none" stroke="#000000" stroke-width="1.0" d="M 106.0, 42.0L1174.0, 42.0"/>
<path fill="none" stroke="#000000" stroke-width="1.0" d="M 106.0, 54.0L1174.0, 54.0"/>
<path fill="none" stroke="#000000" stroke-width="1.0" d="M 106.0, 66.0L1174.0, 66.0"/>
<path fill="none" stroke="#000000" stroke-width="1.0" d="M 106.0, 78.0L1174.0, 78.0"/>
<path fill="none" stroke="#000000" stroke-width="1.0" d="M 106.0, 90.0L406.2051647762406, 90.0"/>
<path fill="none" stroke="#000000" stroke-width="1.0" d="M 499.79483522375926, 90.0L827.2051647762408, 90.0"/>
<path fill="none" stroke="#000000" stroke-width="1.0" d="M 920.7948352237596, 90.0L1174.0, 90.0"/>
<path fill="none" stroke="#000000" stroke-width="1.0" d="M 106.0, 102.0L382.17091951601867, 102.0"/>
<path fill="none" stroke="#000000" stroke-width="1.0" d="M 523.8290804839813, 102.0L803.1709195160187, 102.0"/>
<path fill="none" stroke="#000000" stroke-width="1.0" d="M 944.8290804839813, 102.0L1174.0, 102.0"/>
<path fill="none" stroke="#000000" stroke-width="1.0" d="M 106.0, 114.0L366.07028111816317, 114.0"/>
<path fill="none" stroke="#000000" stroke-width="1.0" d="M 539.9297188818368, 114.0L787.0702811181632, 114.0"/>
<path fill="none" stroke="#000000" stroke-width="1.0" d="M 960.929718881837, 114.0L1174.0, 114.0"/>
<path fill="none" stroke="#000000" stroke-width="1.0" d="M 106.0, 126.0L353.9412877188068, 126.0"/>
<path fill="none" stroke="#000000" stroke-width="1.0" d="M 552.0587122811932, 126.0L774.9412877188067, 126.0"/>
<path fill="none" stroke="#000000" stroke-width="1.0" d="M 973.0587122811933, 126.0L1174.0, 126.0"/>
<path fill="none" stroke="#000000" stroke-width="1.0" d="M 106.0, 138.0L344.44932186252834, 138.0"/>
<path fill="none" stroke="#000000" stroke-width="1.0" d="M 561.5506781374716, 138.0L765.4493218625286, 138.0"/>
<path fill="none" stroke="#000000" stroke-width="1.0" d="M 982.5506781374717, 138.0L1174.0, 138.0"/>
<path fill="none" stroke="#000000" stroke-width="1.0" d="M 106.0, 150.0L336.9537499538465, 150.0"/>
<path fill="none" stroke="#000000" stroke-width="1.0" d="M 569.0462500461534, 150.0L757.9537499538466, 150.0"/>
<path fill="none" stroke="#000000" stroke-width="1.0" d="M 990.0462500461534, 150.0L1174.0, 150.0"/>
<path fill="none" stroke="#000000" stroke-width="1.0" d="M 106.0, 162.0L331.09315238277964, 162.0"/>
<path fill="none" stroke="#000000" stroke-width="1.0" d="M 574.9068476172204, 162.0L752.0931523827796, 162.0"/>
<path fill="none" stroke="#000000" stroke-width="1.0" d="M 995.9068476172203, 162.0L1174.0, 162.0"/>
<path fill="none" stroke="#000000" stroke-width="1.0" d="M 106.0, 174.0L326.6446732883894, 174.0"/>
<path fill="none" stroke="#000000" stroke-width="1.0" d="M 579.3553267116106, 174.0L747.6446732883894, 174.0"/>
<path fill="none" stroke="#000000" stroke-width="1.0" d="M 1000.3553267116106, 174.0L1174.0, 174.0"/>
<path fill="none" stroke="#000000" stroke-width="1.0" d="M 106.0, 186.0L323.4640560554697, 186.0"/>
<path fill="none" stroke="#000000" stroke-width="1.0" d="M 582.5359439445303, 186.0L744.4640560554697, 186.0"/>
<path fill="none" stroke="#000000" stroke-width="1.0" d="M 1003.5359439445302, 186.0L1174.0, 186.0"/>
<path fill="none" stroke="#000000" stroke-width="1.0" d="M 106.0, 198.0L321.4561922724551, 198.0"/>
<path fill="none" stroke="#000000" stroke-width="1.0" d="M 584.5438077275448, 198.0L742.4561922724552, 198.0"/>
<path fill="none" stroke="#000000" stroke-width="1.0" d="M 1005.5438077275448, 198.0L1174.0, 198.0"/>
<path fill="none" stroke="#000000" stroke-width="1.0" d="M 106.0, 210.0L320.5592239919938, 210.0"/>
<path fill="none" stroke="#000000" stroke-width="1.0" d="M 585.4407760080062, 210.0L741.5592239919939, 210.0"/>
<path fill="none" stroke="#000000" stroke-width="1.0" d="M 1006.4407760080063, 210.0L1174.0, 210.0"/>
<path fill="none" stroke="#000000" stroke-width="1.0" d="M 106.0, 222.0L320.73753546034726, 222.0"/>
<path fill="none" stroke="#000000" stroke-width="1.0" d="M 585.2624645396529, 222.0L741.7375354603473, 222.0"/>
<path fill="none" stroke="#000000" stroke-width="1.0" d="M 1006.2624645396527, 222.0L1174.0, 222.0"/>
<path fill="none" stroke="#000000" stroke-width="1.0" d="M 106.0, 234.0L321.9995565506951, 234.0"/>
<path fill="none" stroke="#000000" stroke-width="1.0" d="M 584.0004434493048, 234.0L742.999556550695, 234.0"/>
<path fill="none" stroke="#000000" stroke-width="1.0" d="M 1005.000443449305, 234.0L1174.0, 234.0"/>
<path fill="none" stroke="#000000" stroke-width="1.0" d="M 106.0, 246.0L324.3900582858162, 246.0"/>
<path fill="none" stroke="#000000" stroke-width="1.0" d="M 581.6099417141838, 246.0L745.3900582858162, 246.0"/>
<path fill="none" stroke="#000000" stroke-width="1.0" d="M 1002.6099417141836, 246.0L1174.0, 246.0"/>
<path fill="none" stroke="#000000" stroke-width="1.0" d="M 106.0, 258.0L327.98071822575446, 258.0"/>
<path fill="none" stroke="#000000" stroke-width="1.0" d="M 578.0192817742454, 258.0L748.9807182257546, 258.0"/>
<path fill="none" stroke="#000000" stroke-width="1.0" d="M 999.0192817742454, 258.0L1174.0, 258.0"/>
<path fill="none" stroke="#000000" stroke-width="1.0" d="M 106.0, 270.0L332.8807871397676, 270.0"/>
<path fill="none" stroke="#000000" stroke-width="1.0" d="M 573.1192128602322, 270.0L753.8807871397676, 270.0"/>
<path fill="none" stroke="#000000" stroke-width="1.0" d="M 994.1192128602324, 270.0L1174.0, 270.0"/>
<path fill="none" stroke="#000000" stroke-width="1.0" d="M 106.0, 282.0L339.25645126554923, 282.0"/>
<path fill="none" stroke="#000000" stroke-width="1.0" d="M 566.7435487344507, 282.0L760.2564512655492, 282.0"/>
<path fill="none" stroke="#000000" stroke-width="1.0" d="M 987.7435487344508, 282.0L1174.0, 282.0"/>
<path fill="none" stroke="#000000" stroke-width="1.0" d="M 106.0, 294.0L347.36770144683123, 294.0"/>
<path fill="none" stroke="#000000" stroke-width="1.0" d="M 558.6322985531685, 294.0L768.3677014468313, 294.0"/>
<path fill="none" stroke="#000000" stroke-width="1.0" d="M 979.6322985531684, 294.0L1174.0, 294.0"/>
<path fill="none" stroke="#000000" stroke-width="1.0" d="M 106.0, 306.0L357.6465207858096, 306.0"/>
<path fill="none" stroke="#000000" stroke-width="1.0" d="M 548.3534792141903, 306.0L778.6465207858096, 306.0"/>
<path fill="none" stroke="#000000" stroke-width="1.0" d="M 969.3534792141903, 306.0L1174.0, 306.0"/>
<path fill="none" stroke="#000000" stroke-width="1.0" d="M 106.0, 318.0L370.892245739471, 318.0"/>
<path fill="none" stroke="#000000" stroke-width="1.0" d="M 535.1077542605291, 318.0L791.8922457394709, 318.0"/>
<path fill="none" stroke="#000000" stroke-width="1.0" d="M 956.1077542605291, 318.0L1174.0, 318.0"/>
<path fill="none" stroke="#000000" stroke-width="1.0" d="M 106.0, 330.0L388.91638833179957, 330.0"/>
<path fill="none" stroke="#000000" stroke-width="1.0" d="M 517.0836116682003, 330.0L809.9163883317996, 330.0"/>
<path fill="none" stroke="#000000" stroke-width="1.0" d="M 938.0836116682005, 330.0L1174.0, 330.0"/>
<path fill="none" stroke="#000000" stroke-width="1.0" d="M 106.0, 342.0L418.63475564461527, 342.0"/>
<path fill="none" stroke="#000000" stroke-width="1.0" d="M 487.3652443553847, 342.0L839.6347556446153, 342.0"/>
<path fill="none" stroke="#000000" stroke-width="1.0" d="M 908.3652443553844, 342.0L1174.0, 342.0"/>
<path fill="none" stroke="#000000" stroke-width="1.0" d="M 106.0, 354.0L1174.0, 354.0"/>
<path fill="none" stroke="#000000" stroke-width="1.0" d="M 106.0, 366.0L1174.0, 366.0"/>
<path fill="none" stroke="#000000" stroke-width="1.0" d="M 106.0, 378.0L1174.0, 378.0"/>
<path fill="none" stroke="#000000" stroke-width="1.0" d="M 106.0, 390.0L1174.0, 390.0"/>
<path fill="none" stroke="#000000" stroke-width="1.0" d="M 106.0, 402.0L673.5, 402.0"/>
<path fill="none" stroke="#000000" stroke-width="1.0" d="M 1043.5, 402.0L1174.0, 402.0"/>
<path fill="none" stroke="#000000" stroke-width="1.0" d="M 106.0, 414.0L673.5, 414.0"/>
<path fill="none" stroke="#000000" stroke-width="1.0" d="M 1043.5, 414.0L1174.0, 414.0"/>
<path fill="none" stroke="#000000" stroke-width="1.0" d="M 106.0, 426.0L403.63829849558425, 426.0"/>
<path fill="none" stroke="#000000" stroke-width="1.0" d="M 502.36170150441575, 426.0L673.5, 426.0"/>
<path fill="none" stroke="#000000" stroke-width="1.0" d="M 1043.5, 426.0L1174.0, 426.0"/>
<path fill="none" stroke="#000000" stroke-width="1.0" d="M 106.0, 438.0L380.61700461624247, 438.0"/>
<path fill="none" stroke="#000000" stroke-width="1.0" d="M 525.3829953837575, 438.0L673.5, 438.0"/>
<path fill="none" stroke="#000000" stroke-width="1.0" d="M 1043.5, 438.0L1174.0, 438.0"/>
<path fill="none" stroke="#000000" stroke-width="1.0" d="M 106.0, 450.0L364.9340014398124, 450.0"/>
<path fill="none" stroke="#000000" stroke-width="1.0" d="M 541.0659985601876, 450.0L673.5, 450.0"/>
<path fill="none" stroke="#000000" stroke-width="1.0" d="M 1043.5, 450.0L1174.0, 450.0"/>
<path fill="none" stroke="#000000" stroke-width="1.0" d="M 106.0, 462.0L353.0611903570265, 462.0"/>
<path fill="none" stroke="#000000" stroke-width="1.0" d="M 552.9388096429736, 462.0L673.5, 462.0"/>
<path fill="none" stroke="#000000" stroke-width="1.0" d="M 1043.5, 462.0L1174.0, 462.0"/>
<path fill="none" stroke="#000000" stroke-width="1.0" d="M 106.0, 474.0L343.7547064872828, 474.0"/>
<path fill="none" stroke="#000000" stroke-width="1.0" d="M 562.2452935127172, 474.0L673.5, 474.0"/>
<path fill="none" stroke="#000000" stroke-width="1.0" d="M 1043.5, 474.0L1174.0, 474.0"/>
<path fill="none" stroke="#000000" stroke-width="1.0" d="M 106.0, 486.0L336.40668215775713, 486.0"/>
<path fill="none" stroke="#000000" stroke-width="1.0" d="M 569.5933178422429, 486.0L673.5, 486.0"/>
<path fill="none" stroke="#000000" stroke-width="1.0" d="M 1043.5, 486.0L1174.0, 486.0"/>
<path fill="none" stroke="#000000" stroke-width="1.0" d="M 106.0, 498.0L330.6709125615063, 498.0"/>
<path fill="none" stroke="#000000" stroke-width="1.0" d="M 575.3290874384936, 498.0L673.5, 498.0"/>
<path fill="none" stroke="#000000" stroke-width="1.0" d="M 1043.5, 498.0L1174.0, 498.0"/>
<path fill="none" stroke="#000000" stroke-width="1.0" d="M 106.0, 510.0L326.3327768863833, 510.0"/>
<path fill="none" stroke="#000000" stroke-width="1.0" d="M 579.6672231136167, 510.0L673.5, 510.0"/>
<path fill="none" stroke="#000000" stroke-width="1.0" d="M 1043.5, 510.0L1174.0, 510.0"/>
<path fill="none" stroke="#000000" stroke-width="1.0" d="M 106.0, 522.0L323.2529825789443, 522.0"/>
<path fill="none" stroke="#000000" stroke-width="1.0" d="M 582.7470174210557, 522.0L673.5, 522.0"/>
<path fill="none" stroke="#000000" stroke-width="1.0" d="M 1043.5, 522.0L1174.0, 522.0"/>
<path fill="none" stroke="#000000" stroke-width="1.0" d="M 106.0, 534.0L321.33967608431345, 534.0"/>
<path fill="none" stroke="#000000" stroke-width="1.0" d="M 584.6603239156865, 534.0L673.5, 534.0"/>
<path fill="none" stroke="#000000" stroke-width="1.0" d="M 1043.5, 534.0L1174.0, 534.0"/>
<path fill="none" stroke="#000000" stroke-width="1.0" d="M 106.0, 546.0L320.5332926416345, 546.0"/>
<path fill="none" stroke="#000000" stroke-width="1.0" d="M 585.4667073583655, 546.0L673.5, 546.0"/>
<path fill="none" stroke="#000000" stroke-width="1.0" d="M 1043.5, 546.0L1174.0, 546.0"/>
<path fill="none" stroke="#000000" stroke-width="1.0" d="M 106.0, 558.0L320.80084813774704, 558.0"/>
<path fill="none" stroke="#000000" stroke-width="1.0" d="M 585.199151862253, 558.0L673.5, 558.0"/>
<path fill="none" stroke="#000000" stroke-width="1.0" d="M 1043.5, 558.0L1174.0, 558.0"/>
<path fill="none" stroke="#000000" stroke-width="1.0" d="M 106.0, 570.0L322.15487338803837, 570.0"/>
<path fill="none" stroke="#000000" stroke-width="1.0" d="M 583.8451266119616, 570.0L673.5, 570.0"/>
<path fill="none" stroke="#000000" stroke-width="1.0" d="M 1043.5, 570.0L1174.0, 570.0"/>
<path fill="none" stroke="#000000" stroke-width="1.0" d="M 106.0, 582.0L324.64222082563674, 582.0"/>
<path fill="none" stroke="#000000" stroke-width="1.0" d="M 581.3577791743631, 582.0L673.5, 582.0"/>
<path fill="none" stroke="#000000" stroke-width="1.0" d="M 1043.5, 582.0L1174.0, 582.0"/>
<path fill="none" stroke="#000000" stroke-width="1.0" d="M 106.0, 594.0L328.3371996326655, 594.0"/>
<path fill="none" stroke="#000000" stroke-width="1.0" d="M 577.6628003673345, 594.0L673.5, 594.0"/>
<path fill="none" stroke="#000000" stroke-width="1.0" d="M 1043.5, 594.0L1174.0, 594.0"/>
<path fill="none" stroke="#000000" stroke-width="1.0" d="M 106.0, 606.0L333.3529055471769, 606.0"/>
<path fill="none" stroke="#000000" stroke-width="1.0" d="M 572.6470944528231, 606.0L673.5, 606.0"/>
<path fill="none" stroke="#000000" stroke-width="1.0" d="M 1043.5, 606.0L1174.0, 606.0"/>
<path fill="none" stroke="#000000" stroke-width="1.0" d="M 106.0, 618.0L339.86158588859865, 618.0"/>
<path fill="none" stroke="#000000" stroke-width="1.0" d="M 566.1384141114013, 618.0L673.5, 618.0"/>
<path fill="none" stroke="#000000" stroke-width="1.0" d="M 1043.5, 618.0L1174.0, 618.0"/>
<path fill="none" stroke="#000000" stroke-width="1.0" d="M 106.0, 630.0L348.1337082381489, 630.0"/>
<path fill="none" stroke="#000000" stroke-width="1.0" d="M 557.8662917618509, 630.0L673.5, 630.0"/>
<path fill="none" stroke="#000000" stroke-width="1.0" d="M 1043.5, 630.0L1174.0, 630.0"/>
<path fill="none" stroke="#000000" stroke-width="1.0" d="M 106.0, 642.0L358.62173522434017, 642.0"/>
<path fill="none" stroke="#000000" stroke-width="1.0" d="M 547.3782647756598, 642.0L673.5, 642.0"/>
<path fill="none" stroke="#000000" stroke-width="1.0" d="M 1043.5, 642.0L1174.0, 642.0"/>
<path fill="none" stroke="#000000" stroke-width="1.0" d="M 106.0, 654.0L372.17314507975993, 654.0"/>
<path fill="none" stroke="#000000" stroke-width="1.0" d="M 533.82685492024, 654.0L673.5, 654.0"/>
<path fill="none" stroke="#000000" stroke-width="1.0" d="M 1043.5, 654.0L1174.0, 654.0"/>
<path fill="none" stroke="#000000" stroke-width="1.0" d="M 106.0, 666.0L390.756922123288, 666.0"/>
<path fill="none" stroke="#000000" stroke-width="1.0" d="M 515.2430778767123, 666.0L673.5, 666.0"/>
<path fill="none" stroke="#000000" stroke-width="1.0" d="M 1043.5, 666.0L1174.0, 666.0"/>
<path fill="none" stroke="#000000" stroke-width="1.0" d="M 106.0, 678.0L422.6164876131666, 678.0"/>
<path fill="none" stroke="#000000" stroke-width="1.0" d="M 483.38351238683356, 678.0L1174.0, 678.0"/>
<path fill="none" stroke="#000000" stroke-width="1.0" d="M 106.0, 690.0L1174.0, 690.0"/>
<path fill="none" stroke="#000000" stroke-width="1.0" d="M 106.0, 702.0L1174.0, 702.0"/>
<path fill="none" stroke="#000000" stroke-width="1.0" d="M 106.0, 714.0L1174.0, 714.0"/>
</g>
</svg>