<?xml version="1.0" encoding="utf-8"?>
<!DOCTYPE svg PUBLIC "-//W3C//DTD SVG 1.1 Tiny//EN" "http://www.w3.org/Graphics/SVG/1.1/DTD/svg11-tiny.dtd">
<svg version="1.1" baseProfile="tiny" id="openrndr-svg" xmlns="http://www.w3.org/2000/svg" xmlns:xlink="http://www.w3.org/1999/xlink" x="0px" y="0px" width="1280px" height="720px"><g >
<path fill="none" stroke="#000000" stroke-width="1.0" d="M 106.0, 3.0L1174.0, 3.0"/>
<path fill="none" stroke="#000000" stroke-width="1.0" d="M 106.0, 9.0L1174.0, 9.0"/>
<path fill="none" stroke="#000000" stroke-width="1.0" d="M 106.0, 15.0L1174.0, 15.0"/>
<path fill="none" stroke="#000000" stroke-width="1.0" d="M 106.0, 21.0L1174.0, 21.0"/>
<path fill="none" stroke="#000000" stroke-width="1.0" d="M 106.0, 27.0L1174.0, 27.0"/>
<path fill="none" stroke="#000000" stroke-width="1.0" d="M 106.0, 33.0L1174.0, 33.0"/>
<path fill="none" stroke="#000000" stroke-width="1.0" d="M 106.0, 39.0L1174.0, 39.0"/>
<path fill="none" stroke="#000000" stroke-width="1.0" d="M 106.0, 45.0L1174.0, 45.0"/>
<path fill="none" stroke="#000000" stroke-width="1.0" d="M 106.0, 51.0L1174.0, 51.0"/>
<path fill="none" stroke="#000000" stroke-width="1.0" d="M 106.0, 57.0L1174.0, 57.0"/>
<path fill="none" stroke="#000000" stroke-width="1.0" d="M 106.0, 63.0L1174.0, 63.0"/>
<path fill="none" stroke="#000000" stroke-width="1.0" d="M 106.0, 69.0L1174.0, 69.0"/>
<path fill="none" stroke="#000000" stroke-width="1.0" d="M 106.0, 75.0L1174.0, 75.0"/>
<path fill="none" stroke="#000000" stroke-width="1.0" d="M 106.0, 81.0L1174.0, 81.0"/>
<path fill="none" stroke="#000000" stroke-width="1.0" d="M 106.0, 87.0L415.09916398561546, 87.0"/>
<path fill="none" stroke="#000000" stroke-width="1.0" d="M 490.9008360143847, 87.0L836.0991639856153, 87.0"/>
<path fill="none" stroke="#000000" stroke-width="1.0" d="M 911.9008360143847, 87.0L1174.0, 87.0"/>
<path fill="none" stroke="#000000" stroke-width="1.0" d="M 106.0, 93.0L398.92626228274344, 93.0"/>
<path fill="none" stroke="#000000" stroke-width="1.0" d="M 507.0737377172565, 93.0L819.9262622827434, 93.0"/>
<path fill="none" stroke="#000000" stroke-width="1.0" d="M 928.0737377172566, 93.0L1174.0, 93.0"/>
<path fill="none" stroke="#000000" stroke-width="1.0" d="M 106.0, 99.0L387.14247264703585, 99.0"/>
<path fill="none" stroke="#000000" stroke-width="1.0" d="M 518.8575273529643, 99.0L808.1424726470357, 99.0"/>
<path fill="none" stroke="#000000" stroke-width="1.0" d="M 939.8575273529643, 99.0L1174.0, 99.0"/>
<path fill="none" stroke="#000000" stroke-width="1.0" d="M 106.0, 105.0L377.644625450812, 105.0"/>
<path fill="none" stroke="#000000" stroke-width="1.0" d="M 528.3553745491881, 105.0L798.6446254508119, 105.0"/>
<path fill="none" stroke="#000000" stroke-width="1.0" d="M 949.3553745491879, 105.0L1174.0, 105.0"/>
<path fill="none" stroke="#000000" stroke-width="1.0" d="M 106.0, 111.0L369.6428527312948, 111.0"/>
<path fill="none" stroke="#000000" stroke-width="1.0" d="M 536.3571472687053, 111.0L790.6428527312949, 111.0"/>
<path fill="none" stroke="#000000" stroke-width="1.0" d="M 957.3571472687054, 111.0L1174.0, 111.0"/>
<path fill="none" stroke="#000000" stroke-width="1.0" d="M 106.0, 117.0L362.7370949755799, 117.0"/>
<path fill="none" stroke="#000000" stroke-width="1.0" d="M 543.2629050244201, 117.0L783.7370949755799, 117.0"/>
<path fill="none" stroke="#000000" stroke-width="1.0" d="M 964.26290502442, 117.0L1174.0, 117.0"/>
<path fill="none" stroke="#000000" stroke-width="1.0" d="M 106.0, 123.0L356.69144031621113, 123.0"/>
<path fill="none" stroke="#000000" stroke-width="1.0" d="M 549.3085596837889, 123.0L777.691440316211, 123.0"/>
<path fill="none" stroke="#000000" stroke-width="1.0" d="M 970.3085596837886, 123.0L1174.0, 123.0"/>
<path fill="none" stroke="#000000" stroke-width="1.0" d="M 106.0, 129.0L351.35308867821675, 129.0"/>
<path fill="none" stroke="#000000" stroke-width="1.0" d="M 554.6469113217831, 129.0L772.353088678217, 129.0"/>
<path fill="none" stroke="#000000" stroke-width="1.0" d="M 975.6469113217831, 129.0L1174.0, 129.0"/>
<path fill="none" stroke="#000000" stroke-width="1.0" d="M 106.0, 135.0L346.61655955952733, 135.0"/>
<path fill="none" stroke="#000000" stroke-width="1.0" d="M 559.3834404404727, 135.0L767.6165595595273, 135.0"/>
<path fill="none" stroke="#000000" stroke-width="1.0" d="M 980.3834404404727, 135.0L1174.0, 135.0"/>
<path fill="none" stroke="#000000" stroke-width="1.0" d="M 106.0, 141.0L342.40562363643636, 141.0"/>
<path fill="none" stroke="#000000" stroke-width="1.0" d="M 563.5943763635637, 141.0L763.4056236364363, 141.0"/>
<path fill="none" stroke="#000000" stroke-width="1.0" d="M 984.5943763635637, 141.0L1174.0, 141.0"/>
<path fill="none" stroke="#000000" stroke-width="1.0" d="M 106.0, 147.0L338.66327760625086, 147.0"/>
<path fill="none" stroke="#000000" stroke-width="1.0" d="M 567.3367223937491, 147.0L759.6632776062507, 147.0"/>
<path fill="none" stroke="#000000" stroke-width="1.0" d="M 988.3367223937491, 147.0L1174.0, 147.0"/>
<path fill="none" stroke="#000000" stroke-width="1.0" d="M 106.0, 153.0L335.34577401909195, 153.0"/>
<path fill="none" stroke="#000000" stroke-width="1.0" d="M 570.6542259809081, 153.0L756.3457740190919, 153.0"/>
<path fill="none" stroke="#000000" stroke-width="1.0" d="M 991.654225980908, 153.0L1174.0, 153.0"/>
<path fill="none" stroke="#000000" stroke-width="1.0" d="M 106.0, 159.0L332.4188647194022, 159.0"/>
<path fill="none" stroke="#000000" stroke-width="1.0" d="M 573.5811352805979, 159.0L753.418864719402, 159.0"/>
<path fill="none" stroke="#000000" stroke-width="1.0" d="M 994.5811352805979, 159.0L1174.0, 159.0"/>
<path fill="none" stroke="#000000" stroke-width="1.0" d="M 106.0, 165.0L329.85533070458723, 165.0"/>
<path fill="none" stroke="#000000" stroke-width="1.0" d="M 576.1446692954128, 165.0L750.8553307045871, 165.0"/>
<path fill="none" stroke="#000000" stroke-width="1.0" d="M 997.1446692954128, 165.0L1174.0, 165.0"/>
<path fill="none" stroke="#000000" stroke-width="1.0" d="M 106.0, 171.0L327.6332984135244, 171.0"/>
<path fill="none" stroke="#000000" stroke-width="1.0" d="M 578.3667015864755, 171.0L748.6332984135242, 171.0"/>
<path fill="none" stroke="#000000" stroke-width="1.0" d="M 999.3667015864755, 171.0L1174.0, 171.0"/>
<path fill="none" stroke="#000000" stroke-width="1.0" d="M 106.0, 177.0L325.7350573961194, 177.0"/>
<path fill="none" stroke="#000000" stroke-width="1.0" d="M 580.2649426038806, 177.0L746.7350573961195, 177.0"/>
<path fill="none" stroke="#000000" stroke-width="1.0" d="M 1001.2649426038806, 177.0L1174.0, 177.0"/>
<path fill="none" stroke="#000000" stroke-width="1.0" d="M 106.0, 183.0L324.1462091774277, 183.0"/>
<path fill="none" stroke="#000000" stroke-width="1.0" d="M 581.8537908225724, 183.0L745.1462091774279, 183.0"/>
<path fill="none" stroke="#000000" stroke-width="1.0" d="M 1002.8537908225723, 183.0L1174.0, 183.0"/>
<path fill="none" stroke="#000000" stroke-width="1.0" d="M 106.0, 189.0L322.8550416767743, 189.0"/>
<path fill="none" stroke="#000000" stroke-width="1.0" d="M 583.1449583232256, 189.0L743.8550416767746, 189.0"/>
<path fill="none" stroke="#000000" stroke-width="1.0" d="M 1004.1449583232256, 189.0L1174.0, 189.0"/>
<path fill="none" stroke="#000000" stroke-width="1.0" d="M 106.0, 195.0L321.8520613948214, 195.0"/>
<path fill="none" stroke="#000000" stroke-width="1.0" d="M 584.1479386051785, 195.0L742.8520613948216, 195.0"/>
<path fill="none" stroke="#000000" stroke-width="1.0" d="M 1005.1479386051783, 195.0L1174.0, 195.0"/>
<path fill="none" stroke="#000000" stroke-width="1.0" d="M 106.0, 201.0L321.12963860952374, 201.0"/>
<path fill="none" stroke="#000000" stroke-width="1.0" d="M 584.8703613904763, 201.0L742.1296386095238, 201.0"/>
<path fill="none" stroke="#000000" stroke-width="1.0" d="M 1005.8703613904763, 201.0L1174.0, 201.0"/>
<path fill="none" stroke="#000000" stroke-width="1.0" d="M 106.0, 207.0L320.6817352869752, 207.0"/>
<path fill="none" stroke="#000000" stroke-width="1.0" d="M 585.318264713025, 207.0L741.681735286975, 207.0"/>
<path fill="none" stroke="#000000" stroke-width="1.0" d="M 1006.318264713025, 207.0L1174.0, 207.0"/>
<path fill="none" stroke="#000000" stroke-width="1.0" d="M 106.0, 213.0L320.5036947599834, 213.0"/>
<path fill="none" stroke="#000000" stroke-width="1.0" d="M 585.4963052400167, 213.0L741.5036947599834, 213.0"/>
<path fill="none" stroke="#000000" stroke-width="1.0" d="M 1006.4963052400167, 213.0L1174.0, 213.0"/>
<path fill="none" stroke="#000000" stroke-width="1.0" d="M 106.0, 219.0L320.5925972044999, 219.0"/>
<path fill="none" stroke="#000000" stroke-width="1.0" d="M 585.4074027954999, 219.0L741.5925972044998, 219.0"/>
<path fill="none" stroke="#000000" stroke-width="1.0" d="M 1006.4074027955002, 219.0L1174.0, 219.0"/>
<path fill="none" stroke="#000000" stroke-width="1.0" d="M 106.0, 225.0L320.95009197745765, 225.0"/>
<path fill="none" stroke="#000000" stroke-width="1.0" d="M 585.0499080225421, 225.0L741.9500919774575, 225.0"/>
<path fill="none" stroke="#000000" stroke-width="1.0" d="M 1006.0499080225422, 225.0L1174.0, 225.0"/>
<path fill="none" stroke="#000000" stroke-width="1.0" d="M 106.0, 231.0L321.58040942135904, 231.0"/>
<path fill="none" stroke="#000000" stroke-width="1.0" d="M 584.4195905786411, 231.0L742.580409421359, 231.0"/>
<path fill="none" stroke="#000000" stroke-width="1.0" d="M 1005.4195905786407, 231.0L1174.0, 231.0"/>
<path fill="none" stroke="#000000" stroke-width="1.0" d="M 106.0, 237.0L322.4891063236732, 237.0"/>
<path fill="none" stroke="#000000" stroke-width="1.0" d="M 583.5108936763268, 237.0L743.4891063236734, 237.0"/>
<path fill="none" stroke="#000000" stroke-width="1.0" d="M 1004.5108936763269, 237.0L1174.0, 237.0"/>
<path fill="none" stroke="#000000" stroke-width="1.0" d="M 106.0, 243.0L323.68325502284443, 243.0"/>
<path fill="none" stroke="#000000" stroke-width="1.0" d="M 582.3167449771555, 243.0L744.6832550228444, 243.0"/>
<path fill="none" stroke="#000000" stroke-width="1.0" d="M 1003.3167449771553, 243.0L1174.0, 243.0"/>
<path fill="none" stroke="#000000" stroke-width="1.0" d="M 106.0, 249.0L325.1716929378472, 249.0"/>
<path fill="none" stroke="#000000" stroke-width="1.0" d="M 580.8283070621528, 249.0L746.1716929378472, 249.0"/>
<path fill="none" stroke="#000000" stroke-width="1.0" d="M 1001.8283070621527, 249.0L1174.0, 249.0"/>
<path fill="none" stroke="#000000" stroke-width="1.0" d="M 106.0, 255.0L326.96534697807425, 255.0"/>
<path fill="none" stroke="#000000" stroke-width="1.0" d="M 579.0346530219259, 255.0L747.9653469780742, 255.0"/>
<path fill="none" stroke="#000000" stroke-width="1.0" d="M 1000.0346530219259, 255.0L1174.0, 255.0"/>
<path fill="none" stroke="#000000" stroke-width="1.0" d="M 106.0, 261.0L329.07765956241326, 261.0"/>
<path fill="none" stroke="#000000" stroke-width="1.0" d="M 576.9223404375867, 261.0L750.0776595624133, 261.0"/>
<path fill="none" stroke="#000000" stroke-width="1.0" d="M 997.9223404375869, 261.0L1174.0, 261.0"/>
<path fill="none" stroke="#000000" stroke-width="1.0" d="M 106.0, 267.0L331.52515544467224, 267.0"/>
<path fill="none" stroke="#000000" stroke-width="1.0" d="M 574.4748445553278, 267.0L752.5251554446722, 267.0"/>
<path fill="none" stroke="#000000" stroke-width="1.0" d="M 995.4748445553278, 267.0L1174.0, 267.0"/>
<path fill="none" stroke="#000000" stroke-width="1.0" d="M 106.0, 273.0L334.32820819814503, 273.0"/>
<path fill="none" stroke="#000000" stroke-width="1.0" d="M 571.6717918018551, 273.0L755.3282081981449, 273.0"/>
<path fill="none" stroke="#000000" stroke-width="1.0" d="M 992.671791801855, 273.0L1174.0, 273.0"/>
<path fill="none" stroke="#000000" stroke-width="1.0" d="M 106.0, 279.0L337.5120971633437, 279.0"/>
<path fill="none" stroke="#000000" stroke-width="1.0" d="M 568.4879028366564, 279.0L758.5120971633437, 279.0"/>
<path fill="none" stroke="#000000" stroke-width="1.0" d="M 989.4879028366563, 279.0L1174.0, 279.0"/>
<path fill="none" stroke="#000000" stroke-width="1.0" d="M 106.0, 285.0L341.1084994524274, 285.0"/>
<path fill="none" stroke="#000000" stroke-width="1.0" d="M 564.8915005475725, 285.0L762.1084994524274, 285.0"/>
<path fill="none" stroke="#000000" stroke-width="1.0" d="M 985.8915005475728, 285.0L1174.0, 285.0"/>
<path fill="none" stroke="#000000" stroke-width="1.0" d="M 106.0, 291.0L345.1576559011024, 291.0"/>
<path fill="none" stroke="#000000" stroke-width="1.0" d="M 560.8423440988976, 291.0L766.1576559011023, 291.0"/>
<path fill="none" stroke="#000000" stroke-width="1.0" d="M 981.8423440988977, 291.0L1174.0, 291.0"/>
<path fill="none" stroke="#000000" stroke-width="1.0" d="M 106.0, 297.0L349.7116232124408, 297.0"/>
<path fill="none" stroke="#000000" stroke-width="1.0" d="M 556.2883767875592, 297.0L770.7116232124408, 297.0"/>
<path fill="none" stroke="#000000" stroke-width="1.0" d="M 977.288376787559, 297.0L1174.0, 297.0"/>
<path fill="none" stroke="#000000" stroke-width="1.0" d="M 106.0, 303.0L354.8393617946257, 303.0"/>
<path fill="none" stroke="#000000" stroke-width="1.0" d="M 551.1606382053744, 303.0L775.8393617946258, 303.0"/>
<path fill="none" stroke="#000000" stroke-width="1.0" d="M 972.1606382053744, 303.0L1174.0, 303.0"/>
<path fill="none" stroke="#000000" stroke-width="1.0" d="M 106.0, 309.0L360.6351116871298, 309.0"/>
<path fill="none" stroke="#000000" stroke-width="1.0" d="M 545.3648883128704, 309.0L781.6351116871297, 309.0"/>
<path fill="none" stroke="#000000" stroke-width="1.0" d="M 966.3648883128704, 309.0L1174.0, 309.0"/>
<path fill="none" stroke="#000000" stroke-width="1.0" d="M 106.0, 315.0L367.23310513292256, 315.0"/>
<path fill="none" stroke="#000000" stroke-width="1.0" d="M 538.7668948670772, 315.0L788.2331051329224, 315.0"/>
<path fill="none" stroke="#000000" stroke-width="1.0" d="M 959.7668948670773, 315.0L1174.0, 315.0"/>
<path fill="none" stroke="#000000" stroke-width="1.0" d="M 106.0, 321.0L374.8357125347351, 321.0"/>
<path fill="none" stroke="#000000" stroke-width="1.0" d="M 531.164287465265, 321.0L795.8357125347349, 321.0"/>
<path fill="none" stroke="#000000" stroke-width="1.0" d="M 952.1642874652648, 321.0L1174.0, 321.0"/>
<path fill="none" stroke="#000000" stroke-width="1.0" d="M 106.0, 327.0L383.7740367607811, 327.0"/>
<path fill="none" stroke="#000000" stroke-width="1.0" d="M 522.225963239219, 327.0L804.7740367607811, 327.0"/>
<path fill="none" stroke="#000000" stroke-width="1.0" d="M 943.225963239219, 327.0L1174.0, 327.0"/>
<path fill="none" stroke="#000000" stroke-width="1.0" d="M 106.0, 333.0L394.66353592212806, 333.0"/>
<path fill="none" stroke="#000000" stroke-width="1.0" d="M 511.33646407787194, 333.0L815.6635359221281, 333.0"/>
<path fill="none" stroke="#000000" stroke-width="1.0" d="M 932.3364640778718, 333.0L1174.0, 333.0"/>
<path fill="none" stroke="#000000" stroke-width="1.0" d="M 106.0, 339.0L408.9452511649529, 339.0"/>
<path fill="none" stroke="#000000" stroke-width="1.0" d="M 497.05474883504723, 339.0L829.9452511649529, 339.0"/>
<path fill="none" stroke="#000000" stroke-width="1.0" d="M 918.0547488350471, 339.0L1174.0, 339.0"/>
<path fill="none" stroke="#000000" stroke-width="1.0" d="M 106.0, 345.0L432.997071241015, 345.0"/>
<path fill="none" stroke="#000000" stroke-width="1.0" d="M 473.0029287589854, 345.0L853.997071241015, 345.0"/>
<path fill="none" stroke="#000000" stroke-width="1.0" d="M 894.0029287589853, 345.0L1174.0, 345.0"/>
<path fill="none" stroke="#000000" stroke-width="1.0" d="M 106.0, 351.0L1174.0, 351.0"/>
<path fill="none" stroke="#000000" stroke-width="1.0" d="M 106.0, 357.0L1174.0, 357.0"/>
<path fill="none" stroke="#000000" stroke-width="1.0" d="M 106.0, 363.0L1174.0, 363.0"/>
<path fill="none" stroke="#000000" stroke-width="1.0" d="M 106.0, 369.0L1174.0, 369.0"/>
<path fill="none" stroke="#000000" stroke-width="1.0" d="M 106.0, 375.0L1174.0, 375.0"/>
<path fill="none" stroke="#000000" stroke-width="1.0" d="M 106.0, 381.0L1174.0, 381.0"/>
<path fill="none" stroke="#000000" stroke-width="1.0" d="M 106.0, 387.0L1174.0, 387.0"/>
<path fill="none" stroke="#000000" stroke-width="1.0" d="M 106.0, 393.0L1174.0, 393.0"/>
<path fill="none" stroke="#000000" stroke-width="1.0" d="M 106.0, 399.0L1174.0, 399.0"/>
<path fill="none" stroke="#000000" stroke-width="1.0" d="M 106.0, 405.0L673.5, 405.0"/>
<path fill="none" stroke="#000000" stroke-width="1.0" d="M 1043.5, 405.0L1174.0, 405.0"/>
<path fill="none" stroke="#000000" stroke-width="1.0" d="M 106.0, 411.0L673.5, 411.0"/>
<path fill="none" stroke="#000000" stroke-width="1.0" d="M 1043.5, 411.0L1174.0, 411.0"/>
<path fill="none" stroke="#000000" stroke-width="1.0" d="M 106.0, 417.0L441.40883450970796, 417.0"/>
<path fill="none" stroke="#000000" stroke-width="1.0" d="M 464.59116549029255, 417.0L673.5, 417.0"/>
<path fill="none" stroke="#000000" stroke-width="1.0" d="M 1043.5, 417.0L1174.0, 417.0"/>
<path fill="none" stroke="#000000" stroke-width="1.0" d="M 106.0, 423.0L411.8935572443903, 423.0"/>
<path fill="none" stroke="#000000" stroke-width="1.0" d="M 494.10644275560963, 423.0L673.5, 423.0"/>
<path fill="none" stroke="#000000" stroke-width="1.0" d="M 1043.5, 423.0L1174.0, 423.0"/>
<path fill="none" stroke="#000000" stroke-width="1.0" d="M 106.0, 429.0L396.7454348660586, 429.0"/>
<path fill="none" stroke="#000000" stroke-width="1.0" d="M 509.2545651339416, 429.0L673.5, 429.0"/>
<path fill="none" stroke="#000000" stroke-width="1.0" d="M 1043.5, 429.0L1174.0, 429.0"/>
<path fill="none" stroke="#000000" stroke-width="1.0" d="M 106.0, 435.0L385.4298846904506, 435.0"/>
<path fill="none" stroke="#000000" stroke-width="1.0" d="M 520.5701153095494, 435.0L673.5, 435.0"/>
<path fill="none" stroke="#000000" stroke-width="1.0" d="M 1043.5, 435.0L1174.0, 435.0"/>
<path fill="none" stroke="#000000" stroke-width="1.0" d="M 106.0, 441.0L376.220887333845, 441.0"/>
<path fill="none" stroke="#000000" stroke-width="1.0" d="M 529.779112666155, 441.0L673.5, 441.0"/>
<path fill="none" stroke="#000000" stroke-width="1.0" d="M 1043.5, 441.0L1174.0, 441.0"/>
<path fill="none" stroke="#000000" stroke-width="1.0" d="M 106.0, 447.0L368.42356758168523, 447.0"/>
<path fill="none" stroke="#000000" stroke-width="1.0" d="M 537.5764324183148, 447.0L673.5, 447.0"/>
<path fill="none" stroke="#000000" stroke-width="1.0" d="M 1043.5, 447.0L1174.0, 447.0"/>
<path fill="none" stroke="#000000" stroke-width="1.0" d="M 106.0, 453.0L361.67465299967637, 453.0"/>
<path fill="none" stroke="#000000" stroke-width="1.0" d="M 544.3253470003237, 453.0L673.5, 453.0"/>
<path fill="none" stroke="#000000" stroke-width="1.0" d="M 1043.5, 453.0L1174.0, 453.0"/>
<path fill="none" stroke="#000000" stroke-width="1.0" d="M 106.0, 459.0L355.75590529707904, 459.0"/>
<path fill="none" stroke="#000000" stroke-width="1.0" d="M 550.2440947029211, 459.0L673.5, 459.0"/>
<path fill="none" stroke="#000000" stroke-width="1.0" d="M 1043.5, 459.0L1174.0, 459.0"/>
<path fill="none" stroke="#000000" stroke-width="1.0" d="M 106.0, 465.0L350.52422684406963, 465.0"/>
<path fill="none" stroke="#000000" stroke-width="1.0" d="M 555.4757731559304, 465.0L673.5, 465.0"/>
<path fill="none" stroke="#000000" stroke-width="1.0" d="M 1043.5, 465.0L1174.0, 465.0"/>
<path fill="none" stroke="#000000" stroke-width="1.0" d="M 106.0, 471.0L345.8799753354298, 471.0"/>
<path fill="none" stroke="#000000" stroke-width="1.0" d="M 560.1200246645703, 471.0L673.5, 471.0"/>
<path fill="none" stroke="#000000" stroke-width="1.0" d="M 1043.5, 471.0L1174.0, 471.0"/>
<path fill="none" stroke="#000000" stroke-width="1.0" d="M 106.0, 477.0L341.75067949718306, 477.0"/>
<path fill="none" stroke="#000000" stroke-width="1.0" d="M 564.249320502817, 477.0L673.5, 477.0"/>
<path fill="none" stroke="#000000" stroke-width="1.0" d="M 1043.5, 477.0L1174.0, 477.0"/>
<path fill="none" stroke="#000000" stroke-width="1.0" d="M 106.0, 483.0L338.08188411251695, 483.0"/>
<path fill="none" stroke="#000000" stroke-width="1.0" d="M 567.918115887483, 483.0L673.5, 483.0"/>
<path fill="none" stroke="#000000" stroke-width="1.0" d="M 1043.5, 483.0L1174.0, 483.0"/>
<path fill="none" stroke="#000000" stroke-width="1.0" d="M 106.0, 489.0L334.8316426735656, 489.0"/>
<path fill="none" stroke="#000000" stroke-width="1.0" d="M 571.1683573264344, 489.0L673.5, 489.0"/>
<path fill="none" stroke="#000000" stroke-width="1.0" d="M 1043.5, 489.0L1174.0, 489.0"/>
<path fill="none" stroke="#000000" stroke-width="1.0" d="M 106.0, 495.0L331.9670241712505, 495.0"/>
<path fill="none" stroke="#000000" stroke-width="1.0" d="M 574.0329758287495, 495.0L673.5, 495.0"/>
<path fill="none" stroke="#000000" stroke-width="1.0" d="M 1043.5, 495.0L1174.0, 495.0"/>
<path fill="none" stroke="#000000" stroke-width="1.0" d="M 106.0, 501.0L329.46180115726827, 501.0"/>
<path fill="none" stroke="#000000" stroke-width="1.0" d="M 576.5381988427316, 501.0L673.5, 501.0"/>
<path fill="none" stroke="#000000" stroke-width="1.0" d="M 1043.5, 501.0L1174.0, 501.0"/>
<path fill="none" stroke="#000000" stroke-width="1.0" d="M 106.0, 507.0L327.29486541518946, 507.0"/>
<path fill="none" stroke="#000000" stroke-width="1.0" d="M 578.7051345848106, 507.0L673.5, 507.0"/>
<path fill="none" stroke="#000000" stroke-width="1.0" d="M 1043.5, 507.0L1174.0, 507.0"/>
<path fill="none" stroke="#000000" stroke-width="1.0" d="M 106.0, 513.0L325.449110451225, 513.0"/>
<path fill="none" stroke="#000000" stroke-width="1.0" d="M 580.5508895487751, 513.0L673.5, 513.0"/>
<path fill="none" stroke="#000000" stroke-width="1.0" d="M 1043.5, 513.0L1174.0, 513.0"/>
<path fill="none" stroke="#000000" stroke-width="1.0" d="M 106.0, 519.0L323.91062401793585, 519.0"/>
<path fill="none" stroke="#000000" stroke-width="1.0" d="M 582.0893759820641, 519.0L673.5, 519.0"/>
<path fill="none" stroke="#000000" stroke-width="1.0" d="M 1043.5, 519.0L1174.0, 519.0"/>
<path fill="none" stroke="#000000" stroke-width="1.0" d="M 106.0, 525.0L322.66809277349205, 525.0"/>
<path fill="none" stroke="#000000" stroke-width="1.0" d="M 583.3319072265078, 525.0L673.5, 525.0"/>
<path fill="none" stroke="#000000" stroke-width="1.0" d="M 1043.5, 525.0L1174.0, 525.0"/>
<path fill="none" stroke="#000000" stroke-width="1.0" d="M 106.0, 531.0L321.71235593874627, 531.0"/>
<path fill="none" stroke="#000000" stroke-width="1.0" d="M 584.2876440612537, 531.0L673.5, 531.0"/>
<path fill="none" stroke="#000000" stroke-width="1.0" d="M 1043.5, 531.0L1174.0, 531.0"/>
<path fill="none" stroke="#000000" stroke-width="1.0" d="M 106.0, 537.0L321.03606608025416, 537.0"/>
<path fill="none" stroke="#000000" stroke-width="1.0" d="M 584.9639339197458, 537.0L673.5, 537.0"/>
<path fill="none" stroke="#000000" stroke-width="1.0" d="M 1043.5, 537.0L1174.0, 537.0"/>
<path fill="none" stroke="#000000" stroke-width="1.0" d="M 106.0, 543.0L320.63342857183613, 543.0"/>
<path fill="none" stroke="#000000" stroke-width="1.0" d="M 585.3665714281639, 543.0L673.5, 543.0"/>
<path fill="none" stroke="#000000" stroke-width="1.0" d="M 1043.5, 543.0L1174.0, 543.0"/>
<path fill="none" stroke="#000000" stroke-width="1.0" d="M 106.0, 549.0L320.5, 549.0"/>
<path fill="none" stroke="#000000" stroke-width="1.0" d="M 585.5, 549.0L673.5, 549.0"/>
<path fill="none" stroke="#000000" stroke-width="1.0" d="M 1043.5, 549.0L1174.0, 549.0"/>
<path fill="none" stroke="#000000" stroke-width="1.0" d="M 106.0, 555.0L320.6334285718361, 555.0"/>
<path fill="none" stroke="#000000" stroke-width="1.0" d="M 585.366571428164, 555.0L673.5, 555.0"/>
<path fill="none" stroke="#000000" stroke-width="1.0" d="M 1043.5, 555.0L1174.0, 555.0"/>
<path fill="none" stroke="#000000" stroke-width="1.0" d="M 106.0, 561.0L321.0360660802541, 561.0"/>
<path fill="none" stroke="#000000" stroke-width="1.0" d="M 584.963933919746, 561.0L673.5, 561.0"/>
<path fill="none" stroke="#000000" stroke-width="1.0" d="M 1043.5, 561.0L1174.0, 561.0"/>
<path fill="none" stroke="#000000" stroke-width="1.0" d="M 106.0, 567.0L321.7123559387462, 567.0"/>
<path fill="none" stroke="#000000" stroke-width="1.0" d="M 584.2876440612539, 567.0L673.5, 567.0"/>
<path fill="none" stroke="#000000" stroke-width="1.0" d="M 1043.5, 567.0L1174.0, 567.0"/>
<path fill="none" stroke="#000000" stroke-width="1.0" d="M 106.0, 573.0L322.66809277349216, 573.0"/>
<path fill="none" stroke="#000000" stroke-width="1.0" d="M 583.3319072265076, 573.0L673.5, 573.0"/>
<path fill="none" stroke="#000000" stroke-width="1.0" d="M 1043.5, 573.0L1174.0, 573.0"/>
<path fill="none" stroke="#000000" stroke-width="1.0" d="M 106.0, 579.0L323.9106240179358, 579.0"/>
<path fill="none" stroke="#000000" stroke-width="1.0" d="M 582.0893759820642, 579.0L673.5, 579.0"/>
<path fill="none" stroke="#000000" stroke-width="1.0" d="M 1043.5, 579.0L1174.0, 579.0"/>
<path fill="none" stroke="#000000" stroke-width="1.0" d="M 106.0, 585.0L325.4491104512249, 585.0"/>
<path fill="none" stroke="#000000" stroke-width="1.0" d="M 580.5508895487752, 585.0L673.5, 585.0"/>
<path fill="none" stroke="#000000" stroke-width="1.0" d="M 1043.5, 585.0L1174.0, 585.0"/>
<path fill="none" stroke="#000000" stroke-width="1.0" d="M 106.0, 591.0L327.29486541518946, 591.0"/>
<path fill="none" stroke="#000000" stroke-width="1.0" d="M 578.7051345848106, 591.0L673.5, 591.0"/>
<path fill="none" stroke="#000000" stroke-width="1.0" d="M 1043.5, 591.0L1174.0, 591.0"/>
<path fill="none" stroke="#000000" stroke-width="1.0" d="M 106.0, 597.0L329.4618011572684, 597.0"/>
<path fill="none" stroke="#000000" stroke-width="1.0" d="M 576.5381988427315, 597.0L673.5, 597.0"/>
<path fill="none" stroke="#000000" stroke-width="1.0" d="M 1043.5, 597.0L1174.0, 597.0"/>
<path fill="none" stroke="#000000" stroke-width="1.0" d="M 106.0, 603.0L331.9670241712505, 603.0"/>
<path fill="none" stroke="#000000" stroke-width="1.0" d="M 574.0329758287495, 603.0L673.5, 603.0"/>
<path fill="none" stroke="#000000" stroke-width="1.0" d="M 1043.5, 603.0L1174.0, 603.0"/>
<path fill="none" stroke="#000000" stroke-width="1.0" d="M 106.0, 609.0L334.8316426735656, 609.0"/>
<path fill="none" stroke="#000000" stroke-width="1.0" d="M 571.1683573264344, 609.0L673.5, 609.0"/>
<path fill="none" stroke="#000000" stroke-width="1.0" d="M 1043.5, 609.0L1174.0, 609.0"/>
<path fill="none" stroke="#000000" stroke-width="1.0" d="M 106.0, 615.0L338.0818841125169, 615.0"/>
<path fill="none" stroke="#000000" stroke-width="1.0" d="M 567.9181158874832, 615.0L673.5, 615.0"/>
<path fill="none" stroke="#000000" stroke-width="1.0" d="M 1043.5, 615.0L1174.0, 615.0"/>
<path fill="none" stroke="#000000" stroke-width="1.0" d="M 106.0, 621.0L341.75067949718306, 621.0"/>
<path fill="none" stroke="#000000" stroke-width="1.0" d="M 564.249320502817, 621.0L673.5, 621.0"/>
<path fill="none" stroke="#000000" stroke-width="1.0" d="M 1043.5, 621.0L1174.0, 621.0"/>
<path fill="none" stroke="#000000" stroke-width="1.0" d="M 106.0, 627.0L345.8799753354297, 627.0"/>
<path fill="none" stroke="#000000" stroke-width="1.0" d="M 560.1200246645703, 627.0L673.5, 627.0"/>
<path fill="none" stroke="#000000" stroke-width="1.0" d="M 1043.5, 627.0L1174.0, 627.0"/>
<path fill="none" stroke="#000000" stroke-width="1.0" d="M 106.0, 633.0L350.52422684406974, 633.0"/>
<path fill="none" stroke="#000000" stroke-width="1.0" d="M 555.4757731559303, 633.0L673.5, 633.0"/>
<path fill="none" stroke="#000000" stroke-width="1.0" d="M 1043.5, 633.0L1174.0, 633.0"/>
<path fill="none" stroke="#000000" stroke-width="1.0" d="M 106.0, 639.0L355.75590529707904, 639.0"/>
<path fill="none" stroke="#000000" stroke-width="1.0" d="M 550.2440947029211, 639.0L673.5, 639.0"/>
<path fill="none" stroke="#000000" stroke-width="1.0" d="M 1043.5, 639.0L1174.0, 639.0"/>
<path fill="none" stroke="#000000" stroke-width="1.0" d="M 106.0, 645.0L361.6746529996765, 645.0"/>
<path fill="none" stroke="#000000" stroke-width="1.0" d="M 544.3253470003235, 645.0L673.5, 645.0"/>
<path fill="none" stroke="#000000" stroke-width="1.0" d="M 1043.5, 645.0L1174.0, 645.0"/>
<path fill="none" stroke="#000000" stroke-width="1.0" d="M 106.0, 651.0L368.42356758168523, 651.0"/>
<path fill="none" stroke="#000000" stroke-width="1.0" d="M 537.5764324183147, 651.0L673.5, 651.0"/>
<path fill="none" stroke="#000000" stroke-width="1.0" d="M 1043.5, 651.0L1174.0, 651.0"/>
<path fill="none" stroke="#000000" stroke-width="1.0" d="M 106.0, 657.0L376.22088733384516, 657.0"/>
<path fill="none" stroke="#000000" stroke-width="1.0" d="M 529.779112666155, 657.0L673.5, 657.0"/>
<path fill="none" stroke="#000000" stroke-width="1.0" d="M 1043.5, 657.0L1174.0, 657.0"/>
<path fill="none" stroke="#000000" stroke-width="1.0" d="M 106.0, 663.0L385.42988469045054, 663.0"/>
<path fill="none" stroke="#000000" stroke-width="1.0" d="M 520.5701153095495, 663.0L673.5, 663.0"/>
<path fill="none" stroke="#000000" stroke-width="1.0" d="M 1043.5, 663.0L1174.0, 663.0"/>
<path fill="none" stroke="#000000" stroke-width="1.0" d="M 106.0, 669.0L396.7454348660586, 669.0"/>
<path fill="none" stroke="#000000" stroke-width="1.0" d="M 509.2545651339416, 669.0L1174.0, 669.0"/>
<path fill="none" stroke="#000000" stroke-width="1.0" d="M 106.0, 675.0L411.89355724439037, 675.0"/>
<path fill="none" stroke="#000000" stroke-width="1.0" d="M 494.10644275560975, 675.0L1174.0, 675.0"/>
<path fill="none" stroke="#000000" stroke-width="1.0" d="M 106.0, 681.0L441.4088345097075, 681.0"/>
<path fill="none" stroke="#000000" stroke-width="1.0" d="M 464.5911654902921, 681.0L1174.0, 681.0"/>
<path fill="none" stroke="#000000" stroke-width="1.0" d="M 106.0, 687.0L1174.0, 687.0"/>
<path fill="none" stroke="#000000" stroke-width="1.0" d="M 106.0, 693.0L1174.0, 693.0"/>
<path fill="none" stroke="#000000" stroke-width="1.0" d="M 106.0, 699.0L1174.0, 699.0"/>
<path fill="none" stroke="#000000" stroke-width="1.0" d="M 106.0, 705.0L1174.0, 705.0"/>
<path fill="none" stroke="#000000" stroke-width="1.0" d="M 106.0, 711.0L1174.0, 711.0"/>
<path fill="none" stroke="#000000" stroke-width="1.0" d="M 106.0, 717.0L1174.0, 717.0"/>
</g>
</svg>