<?xml version="1.0" encoding="utf-8"?>
<!DOCTYPE svg PUBLIC "-//W3C//DTD SVG 1.1 Tiny//EN" "http://www.w3.org/Graphics/SVG/1.1/DTD/svg11-tiny.dtd">
<svg version="1.1" baseProfile="tiny" id="openrndr-svg" xmlns="http://www.w3.org/2000/svg" xmlns:xlink="http://www.w3.org/1999/xlink" x="0px" y="0px" width="1280px" height="720px"><g >
<path fill="none" stroke="#000000" stroke-width="1.0" d="M 106.0, 12.0L1174.0, 12.0"/>
<path fill="none" stroke="#000000" stroke-width="1.0" d="M 106.0, 36.0L1174.0, 36.0"/>
<path fill="none" stroke="#000000" stroke-width="1.0" d="M 106.0, 60.0L691.9347088149692, 60.0"/>
<path fill="none" stroke="#000000" stroke-width="1.0" d="M 830.7209742086535, 60.0L1174.0, 60.0"/>
<path fill="none" stroke="#000000" stroke-width="1.0" d="M 106.0, 84.0L315.0591222696931, 84.0"/>
<path fill="none" stroke="#000000" stroke-width="1.0" d="M 385.03919169479195, 84.0L667.3157007104029, 84.0"/>
<path fill="none" stroke="#000000" stroke-width="1.0" d="M 853.6100111912328, 84.0L1174.0, 84.0"/>
<path fill="none" stroke="#000000" stroke-width="1.0" d="M 106.0, 108.0L280.10968621750976, 108.0"/>
<path fill="none" stroke="#000000" stroke-width="1.0" d="M 414.245205619961, 108.0L652.2991422953598, 108.0"/>
<path fill="none" stroke="#000000" stroke-width="1.0" d="M 868.252163524292, 108.0L1174.0, 108.0"/>
<path fill="none" stroke="#000000" stroke-width="1.0" d="M 106.0, 132.0L259.5747153149069, 132.0"/>
<path fill="none" stroke="#000000" stroke-width="1.0" d="M 428.10824975380376, 132.0L643.9388108312794, 132.0"/>
<path fill="none" stroke="#000000" stroke-width="1.0" d="M 877.3762971870705, 132.0L1174.0, 132.0"/>
<path fill="none" stroke="#000000" stroke-width="1.0" d="M 106.0, 156.0L243.15994293707308, 156.0"/>
<path fill="none" stroke="#000000" stroke-width="1.0" d="M 431.3877815303317, 156.0L640.2625688815103, 156.0"/>
<path fill="none" stroke="#000000" stroke-width="1.0" d="M 884.5040453968294, 156.0L1174.0, 156.0"/>
<path fill="none" stroke="#000000" stroke-width="1.0" d="M 106.0, 180.0L235.94542354457295, 180.0"/>
<path fill="none" stroke="#000000" stroke-width="1.0" d="M 425.80866817817184, 180.0L638.0659470776844, 180.0"/>
<path fill="none" stroke="#000000" stroke-width="1.0" d="M 891.3131832881654, 180.0L1174.0, 180.0"/>
<path fill="none" stroke="#000000" stroke-width="1.0" d="M 106.0, 204.0L231.23953043342655, 204.0"/>
<path fill="none" stroke="#000000" stroke-width="1.0" d="M 402.6700982752665, 204.0L653.2220741417451, 204.0"/>
<path fill="none" stroke="#000000" stroke-width="1.0" d="M 902.6013717670784, 204.0L1174.0, 204.0"/>
<path fill="none" stroke="#000000" stroke-width="1.0" d="M 106.0, 228.0L230.7167889320457, 228.0"/>
<path fill="none" stroke="#000000" stroke-width="1.0" d="M 381.57208168361433, 228.0L669.3301704624903, 228.0"/>
<path fill="none" stroke="#000000" stroke-width="1.0" d="M 917.9326001409813, 228.0L1174.0, 228.0"/>
<path fill="none" stroke="#000000" stroke-width="1.0" d="M 106.0, 252.0L231.86727858809707, 252.0"/>
<path fill="none" stroke="#000000" stroke-width="1.0" d="M 331.94618165112126, 252.0L369.49467445954787, 252.0"/>
<path fill="none" stroke="#000000" stroke-width="1.0" d="M 418.99071442011905, 252.0L678.2233458035286, 252.0"/>
<path fill="none" stroke="#000000" stroke-width="1.0" d="M 687.7015782916206, 252.0L696.8318857614344, 252.0"/>
<path fill="none" stroke="#000000" stroke-width="1.0" d="M 930.8531849446483, 252.0L1174.0, 252.0"/>
<path fill="none" stroke="#000000" stroke-width="1.0" d="M 106.0, 276.0L238.38273386882577, 276.0"/>
<path fill="none" stroke="#000000" stroke-width="1.0" d="M 329.8284178282825, 276.0L347.67574578384045, 276.0"/>
<path fill="none" stroke="#000000" stroke-width="1.0" d="M 443.6909232305108, 276.0L632.6375595989913, 276.0"/>
<path fill="none" stroke="#000000" stroke-width="1.0" d="M 942.3206886813311, 276.0L1174.0, 276.0"/>
<path fill="none" stroke="#000000" stroke-width="1.0" d="M 106.0, 300.0L244.73594702329686, 300.0"/>
<path fill="none" stroke="#000000" stroke-width="1.0" d="M 356.47395609789976, 300.0L419.30624307066745, 300.0"/>
<path fill="none" stroke="#000000" stroke-width="1.0" d="M 469.89539926218293, 300.0L642.2480943303568, 300.0"/>
<path fill="none" stroke="#000000" stroke-width="1.0" d="M 735.4551555605268, 300.0L752.002314189315, 300.0"/>
<path fill="none" stroke="#000000" stroke-width="1.0" d="M 776.9714830544515, 300.0L819.2504399203417, 300.0"/>
<path fill="none" stroke="#000000" stroke-width="1.0" d="M 951.650536829071, 300.0L1174.0, 300.0"/>
<path fill="none" stroke="#000000" stroke-width="1.0" d="M 106.0, 324.0L251.75746150828402, 324.0"/>
<path fill="none" stroke="#000000" stroke-width="1.0" d="M 350.9488981877342, 324.0L702.2721343430749, 324.0"/>
<path fill="none" stroke="#000000" stroke-width="1.0" d="M 707.5777726972508, 324.0L735.1051584392361, 324.0"/>
<path fill="none" stroke="#000000" stroke-width="1.0" d="M 964.5371929353818, 324.0L1174.0, 324.0"/>
<path fill="none" stroke="#000000" stroke-width="1.0" d="M 106.0, 348.0L267.8967934872727, 348.0"/>
<path fill="none" stroke="#000000" stroke-width="1.0" d="M 356.3300953204777, 348.0L669.2490810006176, 348.0"/>
<path fill="none" stroke="#000000" stroke-width="1.0" d="M 728.6415589197433, 348.0L769.0764529420185, 348.0"/>
<path fill="none" stroke="#000000" stroke-width="1.0" d="M 971.133391142291, 348.0L1174.0, 348.0"/>
<path fill="none" stroke="#000000" stroke-width="1.0" d="M 106.0, 372.0L328.24898701610846, 372.0"/>
<path fill="none" stroke="#000000" stroke-width="1.0" d="M 383.50363510835524, 372.0L659.4700344982098, 372.0"/>
<path fill="none" stroke="#000000" stroke-width="1.0" d="M 975.806912009944, 372.0L1174.0, 372.0"/>
<path fill="none" stroke="#000000" stroke-width="1.0" d="M 106.0, 396.0L681.6709744537616, 396.0"/>
<path fill="none" stroke="#000000" stroke-width="1.0" d="M 689.28312088851, 396.0L723.086015834477, 396.0"/>
<path fill="none" stroke="#000000" stroke-width="1.0" d="M 979.5252669008169, 396.0L1174.0, 396.0"/>
<path fill="none" stroke="#000000" stroke-width="1.0" d="M 106.0, 420.0L689.0448286570951, 420.0"/>
<path fill="none" stroke="#000000" stroke-width="1.0" d="M 709.2423951767857, 420.0L796.3667694145412, 420.0"/>
<path fill="none" stroke="#000000" stroke-width="1.0" d="M 980.3964134366456, 420.0L1174.0, 420.0"/>
<path fill="none" stroke="#000000" stroke-width="1.0" d="M 106.0, 444.0L676.4254912826437, 444.0"/>
<path fill="none" stroke="#000000" stroke-width="1.0" d="M 699.023288268711, 444.0L798.6769083224631, 444.0"/>
<path fill="none" stroke="#000000" stroke-width="1.0" d="M 808.3158531978792, 444.0L816.1178736824636, 444.0"/>
<path fill="none" stroke="#000000" stroke-width="1.0" d="M 985.4624930390744, 444.0L1174.0, 444.0"/>
<path fill="none" stroke="#000000" stroke-width="1.0" d="M 106.0, 468.0L607.8283478021049, 468.0"/>
<path fill="none" stroke="#000000" stroke-width="1.0" d="M 682.535798257905, 468.0L803.1872366737057, 468.0"/>
<path fill="none" stroke="#000000" stroke-width="1.0" d="M 814.6819777838571, 468.0L823.8371872354455, 468.0"/>
<path fill="none" stroke="#000000" stroke-width="1.0" d="M 995.1970463952094, 468.0L1174.0, 468.0"/>
<path fill="none" stroke="#000000" stroke-width="1.0" d="M 106.0, 492.0L594.2357021636111, 492.0"/>
<path fill="none" stroke="#000000" stroke-width="1.0" d="M 625.3392388093345, 492.0L813.4081361675873, 492.0"/>
<path fill="none" stroke="#000000" stroke-width="1.0" d="M 996.7817293859716, 492.0L1174.0, 492.0"/>
<path fill="none" stroke="#000000" stroke-width="1.0" d="M 106.0, 516.0L611.1587320929522, 516.0"/>
<path fill="none" stroke="#000000" stroke-width="1.0" d="M 645.699442438675, 516.0L854.7205370619015, 516.0"/>
<path fill="none" stroke="#000000" stroke-width="1.0" d="M 993.9235592828046, 516.0L1174.0, 516.0"/>
<path fill="none" stroke="#000000" stroke-width="1.0" d="M 106.0, 540.0L617.7465841900871, 540.0"/>
<path fill="none" stroke="#000000" stroke-width="1.0" d="M 644.0576195976075, 540.0L806.0932048393538, 540.0"/>
<path fill="none" stroke="#000000" stroke-width="1.0" d="M 990.1349085631249, 540.0L1174.0, 540.0"/>
<path fill="none" stroke="#000000" stroke-width="1.0" d="M 106.0, 564.0L603.5881958062447, 564.0"/>
<path fill="none" stroke="#000000" stroke-width="1.0" d="M 632.3697965927312, 564.0L790.8, 564.0"/>
<path fill="none" stroke="#000000" stroke-width="1.0" d="M 981.5088290026835, 564.0L1174.0, 564.0"/>
<path fill="none" stroke="#000000" stroke-width="1.0" d="M 106.0, 588.0L591.5063461204502, 588.0"/>
<path fill="none" stroke="#000000" stroke-width="1.0" d="M 619.1020874575272, 588.0L802.6702471777749, 588.0"/>
<path fill="none" stroke="#000000" stroke-width="1.0" d="M 859.4168959387971, 588.0L1174.0, 588.0"/>
<path fill="none" stroke="#000000" stroke-width="1.0" d="M 106.0, 612.0L805.4425233578042, 612.0"/>
<path fill="none" stroke="#000000" stroke-width="1.0" d="M 880.9259877493967, 612.0L1174.0, 612.0"/>
<path fill="none" stroke="#000000" stroke-width="1.0" d="M 106.0, 636.0L805.937785985231, 636.0"/>
<path fill="none" stroke="#000000" stroke-width="1.0" d="M 834.8318348950303, 636.0L866.1704609550892, 636.0"/>
<path fill="none" stroke="#000000" stroke-width="1.0" d="M 907.7430833292763, 636.0L1174.0, 636.0"/>
<path fill="none" stroke="#000000" stroke-width="1.0" d="M 106.0, 660.0L750.8704099681265, 660.0"/>
<path fill="none" stroke="#000000" stroke-width="1.0" d="M 897.3888281805134, 660.0L1174.0, 660.0"/>
<path fill="none" stroke="#000000" stroke-width="1.0" d="M 106.0, 684.0L751.150253796051, 684.0"/>
<path fill="none" stroke="#000000" stroke-width="1.0" d="M 825.4047394124962, 684.0L1174.0, 684.0"/>
<path fill="none" stroke="#000000" stroke-width="1.0" d="M 106.0, 708.0L1174.0, 708.0"/>
</g>
</svg>