<?xml version="1.0" encoding="utf-8"?>
<!DOCTYPE svg PUBLIC "-//W3C//DTD SVG 1.1 Tiny//EN" "http://www.w3.org/Graphics/SVG/1.1/DTD/svg11-tiny.dtd">
<svg version="1.1" baseProfile="tiny" id="openrndr-svg" xmlns="http://www.w3.org/2000/svg" xmlns:xlink="http://www.w3.org/1999/xlink" x="0px" y="0px" width="1280px" height="720px"><g >
<path fill="none" stroke="#000000" stroke-width="1.0" d="M 124.66589968763398, 216.0L129.42662016755278, 216.0"/>
<path fill="none" stroke="#000000" stroke-width="1.0" d="M 133.41878810583415, 216.0L311.2015370099378, 216.0"/>
<path fill="none" stroke="#000000" stroke-width="1.0" d="M 319.6993300545046, 216.0L324.8267782757621, 216.0"/>
<path fill="none" stroke="#000000" stroke-width="1.0" d="M 346.4825396825397, 216.0L358.91720083529, 216.0"/>
<path fill="none" stroke="#000000" stroke-width="1.0" d="M 533.11507317835, 216.0L999.8193628736686, 216.0"/>
<path fill="none" stroke="#000000" stroke-width="1.0" d="M 1006.8658014314146, 216.0L1012.904318381721, 216.0"/>
<path fill="none" stroke="#000000" stroke-width="1.0" d="M 195.8160478875358, 360.0L221.00365413499316, 360.0"/>
<path fill="none" stroke="#000000" stroke-width="1.0" d="M 472.2250771926384, 360.0L689.8999239461269, 360.0"/>
<path fill="none" stroke="#000000" stroke-width="1.0" d="M 696.0608132219907, 360.0L712.341863170291, 360.0"/>
<path fill="none" stroke="#000000" stroke-width="1.0" d="M 812.2231029667881, 360.0L832.6385783199019, 360.0"/>
<path fill="none" stroke="#000000" stroke-width="1.0" d="M 900.5787276367637, 360.0L941.0077620121615, 360.0"/>
<path fill="none" stroke="#000000" stroke-width="1.0" d="M 987.6367997905875, 360.0L996.9207195249503, 360.0"/>
<path fill="none" stroke="#000000" stroke-width="1.0" d="M 275.0371255049997, 504.0L383.13976175064084, 504.0"/>
<path fill="none" stroke="#000000" stroke-width="1.0" d="M 585.3483394402725, 504.0L662.5502843658523, 504.0"/>
<path fill="none" stroke="#000000" stroke-width="1.0" d="M 696.1456119771733, 504.0L712.1264353594661, 504.0"/>
<path fill="none" stroke="#000000" stroke-width="1.0" d="M 740.4342665289845, 504.0L741.5657334710154, 504.0"/>
<path fill="none" stroke="#000000" stroke-width="1.0" d="M 964.5634334658735, 504.0L1084.622006805026, 504.0"/>
<path fill="none" stroke="#000000" stroke-width="1.0" d="M 1144.065127086573, 504.0L1146.7083299293215, 504.0"/>
</g>
</svg>