<?xml version="1.0" encoding="utf-8"?>
<!DOCTYPE svg PUBLIC "-//W3C//DTD SVG 1.1 Tiny//EN" "http://www.w3.org/Graphics/SVG/1.1/DTD/svg11-tiny.dtd">
<svg version="1.1" baseProfile="tiny" id="openrndr-svg" xmlns="http://www.w3.org/2000/svg" xmlns:xlink="http://www.w3.org/1999/xlink" x="0px" y="0px" width="1280px" height="720px"><g >
<path fill="none" stroke="#000000" stroke-width="1.0" d="M 347.1372484691857, 102.0L391.1591616283881, 102.0"/>
<path fill="none" stroke="#000000" stroke-width="1.0" d="M 409.22575980641915, 102.0L502.5011751916902, 102.0"/>
<path fill="none" stroke="#000000" stroke-width="1.0" d="M 511.9421031649165, 102.0L514.7225890903306, 102.0"/>
<path fill="none" stroke="#000000" stroke-width="1.0" d="M 328.79999999999995, 114.0L354.19510349066695, 114.0"/>
<path fill="none" stroke="#000000" stroke-width="1.0" d="M 373.3477742269742, 114.0L497.30504996484325, 114.0"/>
<path fill="none" stroke="#000000" stroke-width="1.0" d="M 587.3396993113978, 114.0L594.1369382851238, 114.0"/>
<path fill="none" stroke="#000000" stroke-width="1.0" d="M 598.9000000000001, 114.0L602.8867965291802, 114.0"/>
<path fill="none" stroke="#000000" stroke-width="1.0" d="M 786.9621981229623, 114.0L788.6694721204526, 114.0"/>
<path fill="none" stroke="#000000" stroke-width="1.0" d="M 797.2792520043827, 114.0L802.1297820367338, 114.0"/>
<path fill="none" stroke="#000000" stroke-width="1.0" d="M 223.07893657737904, 126.0L242.14545454545458, 126.0"/>
<path fill="none" stroke="#000000" stroke-width="1.0" d="M 285.37431721587535, 126.0L291.2802086521664, 126.0"/>
<path fill="none" stroke="#000000" stroke-width="1.0" d="M 297.4344094734103, 126.0L307.01699107366716, 126.0"/>
<path fill="none" stroke="#000000" stroke-width="1.0" d="M 316.484597351759, 126.0L320.6714285714286, 126.0"/>
<path fill="none" stroke="#000000" stroke-width="1.0" d="M 400.86148217167306, 126.0L482.9412368194429, 126.0"/>
<path fill="none" stroke="#000000" stroke-width="1.0" d="M 690.3254790462377, 126.0L699.010023743708, 126.0"/>
<path fill="none" stroke="#000000" stroke-width="1.0" d="M 761.4970294143611, 126.0L823.3446576140929, 126.0"/>
<path fill="none" stroke="#000000" stroke-width="1.0" d="M 104.52768096173094, 138.0L152.50701214647972, 138.0"/>
<path fill="none" stroke="#000000" stroke-width="1.0" d="M 194.98285479295163, 138.0L199.12040766953777, 138.0"/>
<path fill="none" stroke="#000000" stroke-width="1.0" d="M 230.7400000000001, 138.0L267.3545454545454, 138.0"/>
<path fill="none" stroke="#000000" stroke-width="1.0" d="M 284.436601293505, 138.0L293.8326995515511, 138.0"/>
<path fill="none" stroke="#000000" stroke-width="1.0" d="M 335.7390909079685, 138.0L356.6098712128445, 138.0"/>
<path fill="none" stroke="#000000" stroke-width="1.0" d="M 406.18680881352526, 138.0L478.5141412107389, 138.0"/>
<path fill="none" stroke="#000000" stroke-width="1.0" d="M 523.2639343373862, 138.0L526.087862349903, 138.0"/>
<path fill="none" stroke="#000000" stroke-width="1.0" d="M 600.1502999452655, 138.0L627.9358102980395, 138.0"/>
<path fill="none" stroke="#000000" stroke-width="1.0" d="M 725.9955047939875, 138.0L739.6788203690885, 138.0"/>
<path fill="none" stroke="#000000" stroke-width="1.0" d="M 743.5963535683597, 138.0L975.7034811957008, 138.0"/>
<path fill="none" stroke="#000000" stroke-width="1.0" d="M 84.7933333333337, 150.0L239.53448275862064, 150.0"/>
<path fill="none" stroke="#000000" stroke-width="1.0" d="M 240.71250000000032, 150.0L309.1160959398401, 150.0"/>
<path fill="none" stroke="#000000" stroke-width="1.0" d="M 345.73741314398774, 150.0L364.44426901834606, 150.0"/>
<path fill="none" stroke="#000000" stroke-width="1.0" d="M 394.62653428475164, 150.0L441.9591725276865, 150.0"/>
<path fill="none" stroke="#000000" stroke-width="1.0" d="M 581.4673015143615, 150.0L634.0709304895415, 150.0"/>
<path fill="none" stroke="#000000" stroke-width="1.0" d="M 646.263998466311, 150.0L654.9549305768822, 150.0"/>
<path fill="none" stroke="#000000" stroke-width="1.0" d="M 666.3938115603145, 150.0L741.8709127559625, 150.0"/>
<path fill="none" stroke="#000000" stroke-width="1.0" d="M 747.1726501602577, 150.0L1063.9078004835198, 150.0"/>
<path fill="none" stroke="#000000" stroke-width="1.0" d="M 1067.072807815578, 150.0L1072.5886721198053, 150.0"/>
<path fill="none" stroke="#000000" stroke-width="1.0" d="M 66.89532555004536, 162.0L274.0930659106888, 162.0"/>
<path fill="none" stroke="#000000" stroke-width="1.0" d="M 334.8217659620552, 162.0L342.3626973515647, 162.0"/>
<path fill="none" stroke="#000000" stroke-width="1.0" d="M 394.40454582549137, 162.0L418.27494533551896, 162.0"/>
<path fill="none" stroke="#000000" stroke-width="1.0" d="M 567.8706049318042, 162.0L595.284323049011, 162.0"/>
<path fill="none" stroke="#000000" stroke-width="1.0" d="M 607.1159172034717, 162.0L1062.7758025081139, 162.0"/>
<path fill="none" stroke="#000000" stroke-width="1.0" d="M 51.84142591393691, 174.0L78.00514288199325, 174.0"/>
<path fill="none" stroke="#000000" stroke-width="1.0" d="M 115.5913939014718, 174.0L254.35227781847937, 174.0"/>
<path fill="none" stroke="#000000" stroke-width="1.0" d="M 306.8091869423869, 174.0L330.9010969009305, 174.0"/>
<path fill="none" stroke="#000000" stroke-width="1.0" d="M 344.8500000000005, 174.0L346.82000000000016, 174.0"/>
<path fill="none" stroke="#000000" stroke-width="1.0" d="M 557.6429714374567, 174.0L596.9874081676874, 174.0"/>
<path fill="none" stroke="#000000" stroke-width="1.0" d="M 599.857550253253, 174.0L602.8975953407528, 174.0"/>
<path fill="none" stroke="#000000" stroke-width="1.0" d="M 628.5768940240089, 174.0L1006.6999200615553, 174.0"/>
<path fill="none" stroke="#000000" stroke-width="1.0" d="M 1028.4354634136398, 174.0L1039.8434379008982, 174.0"/>
<path fill="none" stroke="#000000" stroke-width="1.0" d="M 44.25504993305225, 186.0L49.84035407009224, 186.0"/>
<path fill="none" stroke="#000000" stroke-width="1.0" d="M 128.1403031699315, 186.0L261.09284256367584, 186.0"/>
<path fill="none" stroke="#000000" stroke-width="1.0" d="M 301.682057536764, 186.0L347.79684299917466, 186.0"/>
<path fill="none" stroke="#000000" stroke-width="1.0" d="M 524.1558235369664, 186.0L531.2545454545456, 186.0"/>
<path fill="none" stroke="#000000" stroke-width="1.0" d="M 567.025377989423, 186.0L570.7135135135128, 186.0"/>
<path fill="none" stroke="#000000" stroke-width="1.0" d="M 577.9152611088446, 186.0L588.6641197040794, 186.0"/>
<path fill="none" stroke="#000000" stroke-width="1.0" d="M 605.6904159388107, 186.0L969.8809476658091, 186.0"/>
<path fill="none" stroke="#000000" stroke-width="1.0" d="M 1025.4205794807906, 186.0L1044.8270865826032, 186.0"/>
<path fill="none" stroke="#000000" stroke-width="1.0" d="M 125.95023388245488, 198.0L276.8480981759963, 198.0"/>
<path fill="none" stroke="#000000" stroke-width="1.0" d="M 287.40786214927834, 198.0L359.6474110080312, 198.0"/>
<path fill="none" stroke="#000000" stroke-width="1.0" d="M 508.6122978920132, 198.0L519.2731866554857, 198.0"/>
<path fill="none" stroke="#000000" stroke-width="1.0" d="M 530.7794011788983, 198.0L537.8833495296686, 198.0"/>
<path fill="none" stroke="#000000" stroke-width="1.0" d="M 564.4985740656301, 198.0L985.2399340978894, 198.0"/>
<path fill="none" stroke="#000000" stroke-width="1.0" d="M 1035.3481501339038, 198.0L1047.5999999999992, 198.0"/>
<path fill="none" stroke="#000000" stroke-width="1.0" d="M 122.59419808530397, 210.0L123.35384428458087, 210.0"/>
<path fill="none" stroke="#000000" stroke-width="1.0" d="M 129.6054272674206, 210.0L340.16914337713064, 210.0"/>
<path fill="none" stroke="#000000" stroke-width="1.0" d="M 352.9102757562393, 210.0L354.7706780952928, 210.0"/>
<path fill="none" stroke="#000000" stroke-width="1.0" d="M 524.0924221181225, 210.0L530.8961745854623, 210.0"/>
<path fill="none" stroke="#000000" stroke-width="1.0" d="M 544.0273887261324, 210.0L996.1460033780296, 210.0"/>
<path fill="none" stroke="#000000" stroke-width="1.0" d="M 1002.499774670684, 210.0L1006.321310015448, 210.0"/>
<path fill="none" stroke="#000000" stroke-width="1.0" d="M 123.81157567614537, 222.0L127.87188145657476, 222.0"/>
<path fill="none" stroke="#000000" stroke-width="1.0" d="M 130.39677811442652, 222.0L234.34944614945255, 222.0"/>
<path fill="none" stroke="#000000" stroke-width="1.0" d="M 254.3873733294349, 222.0L320.6558644104004, 222.0"/>
<path fill="none" stroke="#000000" stroke-width="1.0" d="M 349.68381242256874, 222.0L354.13982038993106, 222.0"/>
<path fill="none" stroke="#000000" stroke-width="1.0" d="M 527.6467554340749, 222.0L1000.414593985752, 222.0"/>
<path fill="none" stroke="#000000" stroke-width="1.0" d="M 1010.2252315871385, 222.0L1013.224408675595, 222.0"/>
<path fill="none" stroke="#000000" stroke-width="1.0" d="M 116.67738697214202, 234.0L239.39432574664022, 234.0"/>
<path fill="none" stroke="#000000" stroke-width="1.0" d="M 246.00159916740802, 234.0L253.20000000000002, 234.0"/>
<path fill="none" stroke="#000000" stroke-width="1.0" d="M 265.54141234306604, 234.0L306.0693704172696, 234.0"/>
<path fill="none" stroke="#000000" stroke-width="1.0" d="M 315.2995818021733, 234.0L321.7923775891925, 234.0"/>
<path fill="none" stroke="#000000" stroke-width="1.0" d="M 532.1031638678212, 234.0L578.107061145089, 234.0"/>
<path fill="none" stroke="#000000" stroke-width="1.0" d="M 586.5999999999993, 234.0L635.2704190728557, 234.0"/>
<path fill="none" stroke="#000000" stroke-width="1.0" d="M 665.9666666666665, 234.0L696.1490967761115, 234.0"/>
<path fill="none" stroke="#000000" stroke-width="1.0" d="M 710.2, 234.0L998.6071494163864, 234.0"/>
<path fill="none" stroke="#000000" stroke-width="1.0" d="M 1017.5490561415141, 234.0L1020.4601595710865, 234.0"/>
<path fill="none" stroke="#000000" stroke-width="1.0" d="M 108.82207338695349, 246.0L235.29518841359015, 246.0"/>
<path fill="none" stroke="#000000" stroke-width="1.0" d="M 237.41314952861723, 246.0L288.8947595469015, 246.0"/>
<path fill="none" stroke="#000000" stroke-width="1.0" d="M 506.0603582444534, 246.0L543.5721444011253, 246.0"/>
<path fill="none" stroke="#000000" stroke-width="1.0" d="M 579.0996180719869, 246.0L591.0257365446739, 246.0"/>
<path fill="none" stroke="#000000" stroke-width="1.0" d="M 602.8380950087738, 246.0L632.9629398417458, 246.0"/>
<path fill="none" stroke="#000000" stroke-width="1.0" d="M 648.0157470659486, 246.0L658.6621857670452, 246.0"/>
<path fill="none" stroke="#000000" stroke-width="1.0" d="M 679.2069671303884, 246.0L704.483262824928, 246.0"/>
<path fill="none" stroke="#000000" stroke-width="1.0" d="M 723.954125734373, 246.0L984.3172887678011, 246.0"/>
<path fill="none" stroke="#000000" stroke-width="1.0" d="M 1019.992063373667, 246.0L1021.2207875499848, 246.0"/>
<path fill="none" stroke="#000000" stroke-width="1.0" d="M 104.09407915009999, 258.0L270.6596428104378, 258.0"/>
<path fill="none" stroke="#000000" stroke-width="1.0" d="M 504.25934435175054, 258.0L534.5053636651905, 258.0"/>
<path fill="none" stroke="#000000" stroke-width="1.0" d="M 591.1629629629625, 258.0L593.2844826041146, 258.0"/>
<path fill="none" stroke="#000000" stroke-width="1.0" d="M 613.441111517157, 258.0L616.4308724266923, 258.0"/>
<path fill="none" stroke="#000000" stroke-width="1.0" d="M 630.9266463461792, 258.0L707.6148936170213, 258.0"/>
<path fill="none" stroke="#000000" stroke-width="1.0" d="M 725.0529571937664, 258.0L947.2624518538116, 258.0"/>
<path fill="none" stroke="#000000" stroke-width="1.0" d="M 973.8519613272108, 258.0L982.7563121462246, 258.0"/>
<path fill="none" stroke="#000000" stroke-width="1.0" d="M 1025.7548117643682, 258.0L1031.6663821149923, 258.0"/>
<path fill="none" stroke="#000000" stroke-width="1.0" d="M 106.48877161377386, 270.0L264.69111799434546, 270.0"/>
<path fill="none" stroke="#000000" stroke-width="1.0" d="M 535.1354788619535, 270.0L572.8999999999996, 270.0"/>
<path fill="none" stroke="#000000" stroke-width="1.0" d="M 663.152857385131, 270.0L960.7722140532599, 270.0"/>
<path fill="none" stroke="#000000" stroke-width="1.0" d="M 984.6558997749815, 270.0L994.6794545594418, 270.0"/>
<path fill="none" stroke="#000000" stroke-width="1.0" d="M 1015.8112999122957, 270.0L1033.14889044484, 270.0"/>
<path fill="none" stroke="#000000" stroke-width="1.0" d="M 114.88202800429337, 282.0L248.3459559124465, 282.0"/>
<path fill="none" stroke="#000000" stroke-width="1.0" d="M 302.5213817863479, 282.0L303.47811642792277, 282.0"/>
<path fill="none" stroke="#000000" stroke-width="1.0" d="M 503.6480267356103, 282.0L580.9260641270213, 282.0"/>
<path fill="none" stroke="#000000" stroke-width="1.0" d="M 661.1947848134421, 282.0L965.4506978578274, 282.0"/>
<path fill="none" stroke="#000000" stroke-width="1.0" d="M 1002.6402832177939, 282.0L1007.1752702358215, 282.0"/>
<path fill="none" stroke="#000000" stroke-width="1.0" d="M 1011.8325761598035, 282.0L1012.3764882898691, 282.0"/>
<path fill="none" stroke="#000000" stroke-width="1.0" d="M 116.60503765582553, 294.0L120.4351737997454, 294.0"/>
<path fill="none" stroke="#000000" stroke-width="1.0" d="M 127.27103496455372, 294.0L194.35626532423515, 294.0"/>
<path fill="none" stroke="#000000" stroke-width="1.0" d="M 201.80333063798972, 294.0L211.17006922531772, 294.0"/>
<path fill="none" stroke="#000000" stroke-width="1.0" d="M 231.6185878410074, 294.0L240.36612303447578, 294.0"/>
<path fill="none" stroke="#000000" stroke-width="1.0" d="M 498.3967548013503, 294.0L711.1117812057097, 294.0"/>
<path fill="none" stroke="#000000" stroke-width="1.0" d="M 716.8442100425655, 294.0L971.756751032383, 294.0"/>
<path fill="none" stroke="#000000" stroke-width="1.0" d="M 119.53591254091788, 306.0L125.1437454619013, 306.0"/>
<path fill="none" stroke="#000000" stroke-width="1.0" d="M 132.90546204553954, 306.0L178.8037198559827, 306.0"/>
<path fill="none" stroke="#000000" stroke-width="1.0" d="M 234.9086382567536, 306.0L241.60736448380555, 306.0"/>
<path fill="none" stroke="#000000" stroke-width="1.0" d="M 245.95866822573163, 306.0L248.30637549188575, 306.0"/>
<path fill="none" stroke="#000000" stroke-width="1.0" d="M 250.8257944045376, 306.0L251.3231641696432, 306.0"/>
<path fill="none" stroke="#000000" stroke-width="1.0" d="M 485.3447648170235, 306.0L657.8128882795368, 306.0"/>
<path fill="none" stroke="#000000" stroke-width="1.0" d="M 665.7490175165947, 306.0L714.7609883396044, 306.0"/>
<path fill="none" stroke="#000000" stroke-width="1.0" d="M 729.6431414586049, 306.0L973.5438829916234, 306.0"/>
<path fill="none" stroke="#000000" stroke-width="1.0" d="M 126.08908191467698, 318.0L128.64918560622527, 318.0"/>
<path fill="none" stroke="#000000" stroke-width="1.0" d="M 140.23886053045973, 318.0L174.8333333333338, 318.0"/>
<path fill="none" stroke="#000000" stroke-width="1.0" d="M 477.76757139414326, 318.0L664.1792662571338, 318.0"/>
<path fill="none" stroke="#000000" stroke-width="1.0" d="M 674.5349681004791, 318.0L744.5060229070534, 318.0"/>
<path fill="none" stroke="#000000" stroke-width="1.0" d="M 782.901465518918, 318.0L968.5590897309812, 318.0"/>
<path fill="none" stroke="#000000" stroke-width="1.0" d="M 977.8909471691215, 318.0L982.6651794111037, 318.0"/>
<path fill="none" stroke="#000000" stroke-width="1.0" d="M 143.87161641552012, 330.0L174.74125103083108, 330.0"/>
<path fill="none" stroke="#000000" stroke-width="1.0" d="M 201.57479962162608, 330.0L211.59349757876896, 330.0"/>
<path fill="none" stroke="#000000" stroke-width="1.0" d="M 242.8595641049232, 330.0L253.62826172431, 330.0"/>
<path fill="none" stroke="#000000" stroke-width="1.0" d="M 472.01404065371685, 330.0L670.6568514756905, 330.0"/>
<path fill="none" stroke="#000000" stroke-width="1.0" d="M 680.4910209002887, 330.0L751.313696031571, 330.0"/>
<path fill="none" stroke="#000000" stroke-width="1.0" d="M 793.4951589752058, 330.0L799.4842764935607, 330.0"/>
<path fill="none" stroke="#000000" stroke-width="1.0" d="M 804.0640920620126, 330.0L855.4772421996411, 330.0"/>
<path fill="none" stroke="#000000" stroke-width="1.0" d="M 874.1354042229909, 330.0L930.8209145953554, 330.0"/>
<path fill="none" stroke="#000000" stroke-width="1.0" d="M 939.1597166015741, 330.0L943.8116849586147, 330.0"/>
<path fill="none" stroke="#000000" stroke-width="1.0" d="M 152.81407787606187, 342.0L206.70196109880646, 342.0"/>
<path fill="none" stroke="#000000" stroke-width="1.0" d="M 242.12140418596056, 342.0L248.0391420355206, 342.0"/>
<path fill="none" stroke="#000000" stroke-width="1.0" d="M 282.66028280802004, 342.0L286.7442848642031, 342.0"/>
<path fill="none" stroke="#000000" stroke-width="1.0" d="M 474.5025014968289, 342.0L675.7403716486875, 342.0"/>
<path fill="none" stroke="#000000" stroke-width="1.0" d="M 688.7948268036955, 342.0L742.5612624047897, 342.0"/>
<path fill="none" stroke="#000000" stroke-width="1.0" d="M 805.1640901012296, 342.0L845.4643899586154, 342.0"/>
<path fill="none" stroke="#000000" stroke-width="1.0" d="M 884.3625805386866, 342.0L927.6844983013009, 342.0"/>
<path fill="none" stroke="#000000" stroke-width="1.0" d="M 983.7672554512745, 342.0L986.5053740539765, 342.0"/>
<path fill="none" stroke="#000000" stroke-width="1.0" d="M 187.55267077027844, 354.0L221.58779146870788, 354.0"/>
<path fill="none" stroke="#000000" stroke-width="1.0" d="M 450.05121170122953, 354.0L451.7487882987705, 354.0"/>
<path fill="none" stroke="#000000" stroke-width="1.0" d="M 470.0757899336055, 354.0L683.1919256439542, 354.0"/>
<path fill="none" stroke="#000000" stroke-width="1.0" d="M 694.4034365299483, 354.0L724.85296647888, 354.0"/>
<path fill="none" stroke="#000000" stroke-width="1.0" d="M 809.740275231698, 354.0L833.0445622547112, 354.0"/>
<path fill="none" stroke="#000000" stroke-width="1.0" d="M 898.4232827861211, 354.0L938.1477317221669, 354.0"/>
<path fill="none" stroke="#000000" stroke-width="1.0" d="M 982.4160894708355, 354.0L988.028987727737, 354.0"/>
<path fill="none" stroke="#000000" stroke-width="1.0" d="M 207.40584398024117, 366.0L220.1076834334227, 366.0"/>
<path fill="none" stroke="#000000" stroke-width="1.0" d="M 275.8117461471042, 366.0L276.57618881805485, 366.0"/>
<path fill="none" stroke="#000000" stroke-width="1.0" d="M 473.66089136868203, 366.0L694.3782818570562, 366.0"/>
<path fill="none" stroke="#000000" stroke-width="1.0" d="M 814.7411414907567, 366.0L832.4942678025533, 366.0"/>
<path fill="none" stroke="#000000" stroke-width="1.0" d="M 903.0969885413731, 366.0L907.0189318518949, 366.0"/>
<path fill="none" stroke="#000000" stroke-width="1.0" d="M 914.6164165841354, 366.0L942.3384955810238, 366.0"/>
<path fill="none" stroke="#000000" stroke-width="1.0" d="M 987.3, 366.0L989.1050781757394, 366.0"/>
<path fill="none" stroke="#000000" stroke-width="1.0" d="M 215.8998385192836, 378.0L223.9028790526089, 378.0"/>
<path fill="none" stroke="#000000" stroke-width="1.0" d="M 249.04333726202202, 378.0L263.76783034383, 378.0"/>
<path fill="none" stroke="#000000" stroke-width="1.0" d="M 266.51896081875896, 378.0L302.1801231757134, 378.0"/>
<path fill="none" stroke="#000000" stroke-width="1.0" d="M 482.63659791213064, 378.0L723.6604769118617, 378.0"/>
<path fill="none" stroke="#000000" stroke-width="1.0" d="M 819.538727748162, 378.0L829.1141901964918, 378.0"/>
<path fill="none" stroke="#000000" stroke-width="1.0" d="M 902.4329711458909, 378.0L905.952265657324, 378.0"/>
<path fill="none" stroke="#000000" stroke-width="1.0" d="M 927.6315037443871, 378.0L932.5334480708148, 378.0"/>
<path fill="none" stroke="#000000" stroke-width="1.0" d="M 977.107098329976, 378.0L980.4493760245304, 378.0"/>
<path fill="none" stroke="#000000" stroke-width="1.0" d="M 994.4377022985918, 378.0L996.7968481883294, 378.0"/>
<path fill="none" stroke="#000000" stroke-width="1.0" d="M 1005.7395619553345, 378.0L1006.5783906194059, 378.0"/>
<path fill="none" stroke="#000000" stroke-width="1.0" d="M 241.06445687012499, 390.0L315.79311697758556, 390.0"/>
<path fill="none" stroke="#000000" stroke-width="1.0" d="M 490.7605642695541, 390.0L543.3481488335116, 390.0"/>
<path fill="none" stroke="#000000" stroke-width="1.0" d="M 548.351851166488, 390.0L717.6288979337669, 390.0"/>
<path fill="none" stroke="#000000" stroke-width="1.0" d="M 835.4457738459756, 390.0L840.5857986367711, 390.0"/>
<path fill="none" stroke="#000000" stroke-width="1.0" d="M 909.6758594343179, 390.0L914.0780133259086, 390.0"/>
<path fill="none" stroke="#000000" stroke-width="1.0" d="M 1001.4700307296978, 390.0L1006.0630225446014, 390.0"/>
<path fill="none" stroke="#000000" stroke-width="1.0" d="M 240.6436455624857, 402.0L340.4816831415199, 402.0"/>
<path fill="none" stroke="#000000" stroke-width="1.0" d="M 569.2495471074631, 402.0L710.6893451237879, 402.0"/>
<path fill="none" stroke="#000000" stroke-width="1.0" d="M 898.493038107863, 402.0L906.7394493649931, 402.0"/>
<path fill="none" stroke="#000000" stroke-width="1.0" d="M 913.9625956492912, 402.0L922.8794802098823, 402.0"/>
<path fill="none" stroke="#000000" stroke-width="1.0" d="M 960.7116768227966, 402.0L977.462521741626, 402.0"/>
<path fill="none" stroke="#000000" stroke-width="1.0" d="M 232.58609213774673, 414.0L342.2974363986935, 414.0"/>
<path fill="none" stroke="#000000" stroke-width="1.0" d="M 559.7225931652077, 414.0L561.3678290096866, 414.0"/>
<path fill="none" stroke="#000000" stroke-width="1.0" d="M 569.4992839033031, 414.0L697.2324960792639, 414.0"/>
<path fill="none" stroke="#000000" stroke-width="1.0" d="M 907.6771120280589, 414.0L920.6664582401394, 414.0"/>
<path fill="none" stroke="#000000" stroke-width="1.0" d="M 945.388337156748, 414.0L979.0, 414.0"/>
<path fill="none" stroke="#000000" stroke-width="1.0" d="M 987.8083444884455, 414.0L1004.3068393847548, 414.0"/>
<path fill="none" stroke="#000000" stroke-width="1.0" d="M 1015.1948395194073, 414.0L1017.8888613920855, 414.0"/>
<path fill="none" stroke="#000000" stroke-width="1.0" d="M 229.72503924337062, 426.0L364.54103752422066, 426.0"/>
<path fill="none" stroke="#000000" stroke-width="1.0" d="M 570.1496820796334, 426.0L686.8545158701513, 426.0"/>
<path fill="none" stroke="#000000" stroke-width="1.0" d="M 915.1886986077861, 426.0L928.677248197234, 426.0"/>
<path fill="none" stroke="#000000" stroke-width="1.0" d="M 948.6287591124386, 426.0L972.8711135765536, 426.0"/>
<path fill="none" stroke="#000000" stroke-width="1.0" d="M 983.8557279423615, 426.0L993.5733757344507, 426.0"/>
<path fill="none" stroke="#000000" stroke-width="1.0" d="M 1035.822778027569, 426.0L1039.47777970893, 426.0"/>
<path fill="none" stroke="#000000" stroke-width="1.0" d="M 1050.4, 426.0L1059.9538461538464, 426.0"/>
<path fill="none" stroke="#000000" stroke-width="1.0" d="M 227.8716185465127, 438.0L398.70088511893005, 438.0"/>
<path fill="none" stroke="#000000" stroke-width="1.0" d="M 578.9380800650537, 438.0L679.8611417513218, 438.0"/>
<path fill="none" stroke="#000000" stroke-width="1.0" d="M 924.286240709806, 438.0L931.8344023323616, 438.0"/>
<path fill="none" stroke="#000000" stroke-width="1.0" d="M 983.3778656317821, 438.0L987.4359439031291, 438.0"/>
<path fill="none" stroke="#000000" stroke-width="1.0" d="M 1050.802160101844, 438.0L1083.910413486399, 438.0"/>
<path fill="none" stroke="#000000" stroke-width="1.0" d="M 1104.1765858687506, 438.0L1107.0590432587157, 438.0"/>
<path fill="none" stroke="#000000" stroke-width="1.0" d="M 236.0591381043808, 450.0L401.88722526275876, 450.0"/>
<path fill="none" stroke="#000000" stroke-width="1.0" d="M 583.6859179483841, 450.0L680.1668976315809, 450.0"/>
<path fill="none" stroke="#000000" stroke-width="1.0" d="M 950.8485829424943, 450.0L965.0447337504608, 450.0"/>
<path fill="none" stroke="#000000" stroke-width="1.0" d="M 1054.133330472266, 450.0L1074.6350899605525, 450.0"/>
<path fill="none" stroke="#000000" stroke-width="1.0" d="M 1081.6704296889957, 450.0L1089.879581938723, 450.0"/>
<path fill="none" stroke="#000000" stroke-width="1.0" d="M 1127.4030739583197, 450.0L1128.6046469103635, 450.0"/>
<path fill="none" stroke="#000000" stroke-width="1.0" d="M 241.6873905682163, 462.0L394.3893836315625, 462.0"/>
<path fill="none" stroke="#000000" stroke-width="1.0" d="M 585.5434782608695, 462.0L684.778877459452, 462.0"/>
<path fill="none" stroke="#000000" stroke-width="1.0" d="M 1099.2389775640872, 462.0L1101.7691058195942, 462.0"/>
<path fill="none" stroke="#000000" stroke-width="1.0" d="M 1137.2017244590022, 462.0L1137.991777378404, 462.0"/>
<path fill="none" stroke="#000000" stroke-width="1.0" d="M 249.24687802082155, 474.0L388.1123601389733, 474.0"/>
<path fill="none" stroke="#000000" stroke-width="1.0" d="M 580.7962252126767, 474.0L685.6720368234025, 474.0"/>
<path fill="none" stroke="#000000" stroke-width="1.0" d="M 714.4991326793117, 474.0L720.2789354623069, 474.0"/>
<path fill="none" stroke="#000000" stroke-width="1.0" d="M 1019.2616875422118, 474.0L1041.074518606704, 474.0"/>
<path fill="none" stroke="#000000" stroke-width="1.0" d="M 1064.0848979022749, 474.0L1073.018373108411, 474.0"/>
<path fill="none" stroke="#000000" stroke-width="1.0" d="M 1234.5385893630385, 474.0L1236.9087271018625, 474.0"/>
<path fill="none" stroke="#000000" stroke-width="1.0" d="M 264.2303137460542, 486.0L387.9703985754827, 486.0"/>
<path fill="none" stroke="#000000" stroke-width="1.0" d="M 578.0684175054479, 486.0L676.7264348934307, 486.0"/>
<path fill="none" stroke="#000000" stroke-width="1.0" d="M 699.2423599745237, 486.0L718.2533855690449, 486.0"/>
<path fill="none" stroke="#000000" stroke-width="1.0" d="M 994.7884320216076, 486.0L1048.9021788227494, 486.0"/>
<path fill="none" stroke="#000000" stroke-width="1.0" d="M 1059.6718807035918, 486.0L1077.6427692946897, 486.0"/>
<path fill="none" stroke="#000000" stroke-width="1.0" d="M 1158.9871523063064, 486.0L1159.713804083934, 486.0"/>
<path fill="none" stroke="#000000" stroke-width="1.0" d="M 1198.9749213921616, 486.0L1203.8427929202207, 486.0"/>
<path fill="none" stroke="#000000" stroke-width="1.0" d="M 274.2, 498.0L385.35024571009353, 498.0"/>
<path fill="none" stroke="#000000" stroke-width="1.0" d="M 582.623807233017, 498.0L663.8409658094649, 498.0"/>
<path fill="none" stroke="#000000" stroke-width="1.0" d="M 698.9287540804229, 498.0L714.0698560470773, 498.0"/>
<path fill="none" stroke="#000000" stroke-width="1.0" d="M 982.2122128436457, 498.0L1080.9974473937596, 498.0"/>
<path fill="none" stroke="#000000" stroke-width="1.0" d="M 1140.1088577138091, 498.0L1142.514311655832, 498.0"/>
<path fill="none" stroke="#000000" stroke-width="1.0" d="M 275.0443268771295, 510.0L378.92387106363975, 510.0"/>
<path fill="none" stroke="#000000" stroke-width="1.0" d="M 587.3777183371255, 510.0L664.8378541320125, 510.0"/>
<path fill="none" stroke="#000000" stroke-width="1.0" d="M 694.0799289767394, 510.0L710.5250564151085, 510.0"/>
<path fill="none" stroke="#000000" stroke-width="1.0" d="M 954.1521291228206, 510.0L1087.66461952183, 510.0"/>
<path fill="none" stroke="#000000" stroke-width="1.0" d="M 275.10812247738295, 522.0L356.4432405020911, 522.0"/>
<path fill="none" stroke="#000000" stroke-width="1.0" d="M 589.8465033719572, 522.0L654.1674205560862, 522.0"/>
<path fill="none" stroke="#000000" stroke-width="1.0" d="M 952.3810959697278, 522.0L1095.1888888888889, 522.0"/>
<path fill="none" stroke="#000000" stroke-width="1.0" d="M 275.72243841584805, 534.0L355.6156975935164, 534.0"/>
<path fill="none" stroke="#000000" stroke-width="1.0" d="M 594.05404954493, 534.0L650.4039565580878, 534.0"/>
<path fill="none" stroke="#000000" stroke-width="1.0" d="M 951.4044168795808, 534.0L1093.1972054107978, 534.0"/>
<path fill="none" stroke="#000000" stroke-width="1.0" d="M 277.1663835580614, 546.0L350.2510270377933, 546.0"/>
<path fill="none" stroke="#000000" stroke-width="1.0" d="M 601.0294982144071, 546.0L640.3951545981262, 546.0"/>
<path fill="none" stroke="#000000" stroke-width="1.0" d="M 952.5686630506145, 546.0L1086.9854960749428, 546.0"/>
<path fill="none" stroke="#000000" stroke-width="1.0" d="M 278.48711953375187, 558.0L327.24978324753175, 558.0"/>
<path fill="none" stroke="#000000" stroke-width="1.0" d="M 334.01350581615895, 558.0L341.9455356034281, 558.0"/>
<path fill="none" stroke="#000000" stroke-width="1.0" d="M 605.2552146919611, 558.0L608.7677115712444, 558.0"/>
<path fill="none" stroke="#000000" stroke-width="1.0" d="M 948.025925925926, 558.0L960.1517257755161, 558.0"/>
<path fill="none" stroke="#000000" stroke-width="1.0" d="M 1019.4119184918021, 558.0L1020.9070679149152, 558.0"/>
<path fill="none" stroke="#000000" stroke-width="1.0" d="M 1026.9069125062506, 558.0L1074.5384850023677, 558.0"/>
<path fill="none" stroke="#000000" stroke-width="1.0" d="M 278.1164451439434, 570.0L334.5279035231581, 570.0"/>
<path fill="none" stroke="#000000" stroke-width="1.0" d="M 1029.6181453876006, 570.0L1063.585062986204, 570.0"/>
<path fill="none" stroke="#000000" stroke-width="1.0" d="M 1152.4369251305397, 570.0L1155.011043805553, 570.0"/>
<path fill="none" stroke="#000000" stroke-width="1.0" d="M 280.44567424591554, 582.0L320.1263747534882, 582.0"/>
<path fill="none" stroke="#000000" stroke-width="1.0" d="M 1144.8524266091913, 582.0L1151.5724063246396, 582.0"/>
<path fill="none" stroke="#000000" stroke-width="1.0" d="M 287.27104598193057, 594.0L315.04331665739153, 594.0"/>
<path fill="none" stroke="#000000" stroke-width="1.0" d="M 1035.9624999999999, 594.0L1041.963301670373, 594.0"/>
<path fill="none" stroke="#000000" stroke-width="1.0" d="M 1120.3231511311456, 594.0L1128.968426893528, 594.0"/>
<path fill="none" stroke="#000000" stroke-width="1.0" d="M 286.2107199057676, 606.0L311.87321777924546, 606.0"/>
<path fill="none" stroke="#000000" stroke-width="1.0" d="M 1099.5775794682208, 606.0L1110.2962016743504, 606.0"/>
<path fill="none" stroke="#000000" stroke-width="1.0" d="M 294.19263169663566, 618.0L315.8495396174636, 618.0"/>
<path fill="none" stroke="#000000" stroke-width="1.0" d="M 303.25421807297914, 630.0L314.65966841524886, 630.0"/>
<path fill="none" stroke="#000000" stroke-width="1.0" d="M 343.1006585926975, 630.0L344.98258382962246, 630.0"/>
</g>
</svg>