<?xml version="1.0" encoding="utf-8"?>
<!DOCTYPE svg PUBLIC "-//W3C//DTD SVG 1.1 Tiny//EN" "http://www.w3.org/Graphics/SVG/1.1/DTD/svg11-tiny.dtd">
<svg version="1.1" baseProfile="tiny" id="openrndr-svg" xmlns="http://www.w3.org/2000/svg" xmlns:xlink="http://www.w3.org/1999/xlink" x="0px" y="0px" width="1280px" height="720px"><g >
<path fill="none" stroke="#000000" stroke-width="1.0" d="M 380.1999999999998, 99.0L397.6457142857141, 99.0"/>
<path fill="none" stroke="#000000" stroke-width="1.0" d="M 459.91264492469077, 99.0L493.6745192406475, 99.0"/>
<path fill="none" stroke="#000000" stroke-width="1.0" d="M 325.5047370469356, 105.0L337.0941796519678, 105.0"/>
<path fill="none" stroke="#000000" stroke-width="1.0" d="M 364.33841051306456, 105.0L382.5800890578012, 105.0"/>
<path fill="none" stroke="#000000" stroke-width="1.0" d="M 399.2334041665501, 105.0L506.45113324468775, 105.0"/>
<path fill="none" stroke="#000000" stroke-width="1.0" d="M 340.6395209832794, 111.0L362.2239397130976, 111.0"/>
<path fill="none" stroke="#000000" stroke-width="1.0" d="M 373.74194475767644, 111.0L496.97573207100294, 111.0"/>
<path fill="none" stroke="#000000" stroke-width="1.0" d="M 573.6079446845597, 111.0L594.1150000000001, 111.0"/>
<path fill="none" stroke="#000000" stroke-width="1.0" d="M 594.7200000000001, 111.0L598.2242887913783, 111.0"/>
<path fill="none" stroke="#000000" stroke-width="1.0" d="M 602.5442180988346, 111.0L609.73402418676, 111.0"/>
<path fill="none" stroke="#000000" stroke-width="1.0" d="M 783.3203936756917, 111.0L792.8211227815943, 111.0"/>
<path fill="none" stroke="#000000" stroke-width="1.0" d="M 316.0391118031544, 117.0L320.15465646627956, 117.0"/>
<path fill="none" stroke="#000000" stroke-width="1.0" d="M 344.5822602266917, 117.0L348.18157021016094, 117.0"/>
<path fill="none" stroke="#000000" stroke-width="1.0" d="M 392.4165775168327, 117.0L494.9862693311891, 117.0"/>
<path fill="none" stroke="#000000" stroke-width="1.0" d="M 581.6259248159057, 117.0L591.8507029426623, 117.0"/>
<path fill="none" stroke="#000000" stroke-width="1.0" d="M 605.288029006714, 117.0L607.4994817578803, 117.0"/>
<path fill="none" stroke="#000000" stroke-width="1.0" d="M 794.05948878108, 117.0L817.3999999999999, 117.0"/>
<path fill="none" stroke="#000000" stroke-width="1.0" d="M 332.485365210695, 123.0L337.10104142056707, 123.0"/>
<path fill="none" stroke="#000000" stroke-width="1.0" d="M 399.27919380096387, 123.0L489.8356697693388, 123.0"/>
<path fill="none" stroke="#000000" stroke-width="1.0" d="M 693.2205862178334, 123.0L704.6800808497431, 123.0"/>
<path fill="none" stroke="#000000" stroke-width="1.0" d="M 768.2168359151552, 123.0L828.2444354166912, 123.0"/>
<path fill="none" stroke="#000000" stroke-width="1.0" d="M 217.5264468477138, 129.0L230.66658078592292, 129.0"/>
<path fill="none" stroke="#000000" stroke-width="1.0" d="M 233.13048334118034, 129.0L250.5923270057334, 129.0"/>
<path fill="none" stroke="#000000" stroke-width="1.0" d="M 253.250728453124, 129.0L257.15181985230527, 129.0"/>
<path fill="none" stroke="#000000" stroke-width="1.0" d="M 261.70355936858186, 129.0L266.3999001856809, 129.0"/>
<path fill="none" stroke="#000000" stroke-width="1.0" d="M 277.3642857142857, 129.0L289.1636627752654, 129.0"/>
<path fill="none" stroke="#000000" stroke-width="1.0" d="M 294.5, 129.0L297.3321257686741, 129.0"/>
<path fill="none" stroke="#000000" stroke-width="1.0" d="M 310.714099838958, 129.0L317.9728040877973, 129.0"/>
<path fill="none" stroke="#000000" stroke-width="1.0" d="M 322.03032902589234, 129.0L334.8034886923885, 129.0"/>
<path fill="none" stroke="#000000" stroke-width="1.0" d="M 401.5511749045761, 129.0L477.106154209918, 129.0"/>
<path fill="none" stroke="#000000" stroke-width="1.0" d="M 688.243495914029, 129.0L696.2487571432703, 129.0"/>
<path fill="none" stroke="#000000" stroke-width="1.0" d="M 754.4219620253816, 129.0L879.7981783156246, 129.0"/>
<path fill="none" stroke="#000000" stroke-width="1.0" d="M 121.2806318741123, 135.0L131.95549683640434, 135.0"/>
<path fill="none" stroke="#000000" stroke-width="1.0" d="M 231.93106217986275, 135.0L264.8466666666667, 135.0"/>
<path fill="none" stroke="#000000" stroke-width="1.0" d="M 287.2030928157612, 135.0L294.67943854134376, 135.0"/>
<path fill="none" stroke="#000000" stroke-width="1.0" d="M 306.27873283980114, 135.0L350.09354714742426, 135.0"/>
<path fill="none" stroke="#000000" stroke-width="1.0" d="M 405.92331037554163, 135.0L472.99763269908783, 135.0"/>
<path fill="none" stroke="#000000" stroke-width="1.0" d="M 479.74265407149505, 135.0L484.81250000000006, 135.0"/>
<path fill="none" stroke="#000000" stroke-width="1.0" d="M 688.7778631841263, 135.0L696.2769680775207, 135.0"/>
<path fill="none" stroke="#000000" stroke-width="1.0" d="M 723.7824608124661, 135.0L737.3969784052733, 135.0"/>
<path fill="none" stroke="#000000" stroke-width="1.0" d="M 741.4720434449182, 135.0L890.9759440745108, 135.0"/>
<path fill="none" stroke="#000000" stroke-width="1.0" d="M 897.3281847913349, 135.0L907.8378745880447, 135.0"/>
<path fill="none" stroke="#000000" stroke-width="1.0" d="M 910.2063231990387, 135.0L946.8168457602867, 135.0"/>
<path fill="none" stroke="#000000" stroke-width="1.0" d="M 94.79488277626058, 141.0L166.36837481350972, 141.0"/>
<path fill="none" stroke="#000000" stroke-width="1.0" d="M 175.77437859704605, 141.0L218.30336081136014, 141.0"/>
<path fill="none" stroke="#000000" stroke-width="1.0" d="M 231.57587304893494, 141.0L247.57227947374355, 141.0"/>
<path fill="none" stroke="#000000" stroke-width="1.0" d="M 257.1510520993414, 141.0L260.1186802551418, 141.0"/>
<path fill="none" stroke="#000000" stroke-width="1.0" d="M 272.94347015334205, 141.0L279.61102177098934, 141.0"/>
<path fill="none" stroke="#000000" stroke-width="1.0" d="M 286.2810394641586, 141.0L295.3484863647431, 141.0"/>
<path fill="none" stroke="#000000" stroke-width="1.0" d="M 296.8896285435011, 141.0L298.91037145649915, 141.0"/>
<path fill="none" stroke="#000000" stroke-width="1.0" d="M 309.72423728190364, 141.0L318.5502342029185, 141.0"/>
<path fill="none" stroke="#000000" stroke-width="1.0" d="M 338.5020917393938, 141.0L357.01213534273637, 141.0"/>
<path fill="none" stroke="#000000" stroke-width="1.0" d="M 404.65059667959395, 141.0L472.90355939027677, 141.0"/>
<path fill="none" stroke="#000000" stroke-width="1.0" d="M 592.4673656160372, 141.0L634.0045302332252, 141.0"/>
<path fill="none" stroke="#000000" stroke-width="1.0" d="M 707.9398849025721, 141.0L717.6059963764712, 141.0"/>
<path fill="none" stroke="#000000" stroke-width="1.0" d="M 731.0816558510935, 141.0L741.9125783475804, 141.0"/>
<path fill="none" stroke="#000000" stroke-width="1.0" d="M 747.8538369226951, 141.0L1004.9913025686285, 141.0"/>
<path fill="none" stroke="#000000" stroke-width="1.0" d="M 1009.9761376249694, 141.0L1030.4558258833524, 141.0"/>
<path fill="none" stroke="#000000" stroke-width="1.0" d="M 85.9799999999999, 147.0L237.94767179909306, 147.0"/>
<path fill="none" stroke="#000000" stroke-width="1.0" d="M 243.5667195751837, 147.0L271.5784721662045, 147.0"/>
<path fill="none" stroke="#000000" stroke-width="1.0" d="M 275.9704310536613, 147.0L299.06399214367116, 147.0"/>
<path fill="none" stroke="#000000" stroke-width="1.0" d="M 300.4641730068909, 147.0L314.06537410086213, 147.0"/>
<path fill="none" stroke="#000000" stroke-width="1.0" d="M 343.3064642578705, 147.0L361.8618097086169, 147.0"/>
<path fill="none" stroke="#000000" stroke-width="1.0" d="M 396.75016463124064, 147.0L446.87768260910036, 147.0"/>
<path fill="none" stroke="#000000" stroke-width="1.0" d="M 584.5670757211068, 147.0L656.8217822254783, 147.0"/>
<path fill="none" stroke="#000000" stroke-width="1.0" d="M 665.8630388742141, 147.0L670.0670794706602, 147.0"/>
<path fill="none" stroke="#000000" stroke-width="1.0" d="M 677.6094793611285, 147.0L743.8623960909039, 147.0"/>
<path fill="none" stroke="#000000" stroke-width="1.0" d="M 749.6461676367569, 147.0L1056.419462222978, 147.0"/>
<path fill="none" stroke="#000000" stroke-width="1.0" d="M 66.96797247058606, 153.0L287.778228767947, 153.0"/>
<path fill="none" stroke="#000000" stroke-width="1.0" d="M 332.3486568017916, 153.0L349.7815770703065, 153.0"/>
<path fill="none" stroke="#000000" stroke-width="1.0" d="M 357.77688665708934, 153.0L362.3513874138062, 153.0"/>
<path fill="none" stroke="#000000" stroke-width="1.0" d="M 394.57120618832323, 153.0L430.5688501549667, 153.0"/>
<path fill="none" stroke="#000000" stroke-width="1.0" d="M 485.8636663160859, 153.0L489.5863977544727, 153.0"/>
<path fill="none" stroke="#000000" stroke-width="1.0" d="M 491.19144175117304, 153.0L500.65625, 153.0"/>
<path fill="none" stroke="#000000" stroke-width="1.0" d="M 579.0029011416188, 153.0L605.8943075637568, 153.0"/>
<path fill="none" stroke="#000000" stroke-width="1.0" d="M 610.9588088115191, 153.0L638.3836992728014, 153.0"/>
<path fill="none" stroke="#000000" stroke-width="1.0" d="M 657.6325778926141, 153.0L1061.5999999999983, 153.0"/>
<path fill="none" stroke="#000000" stroke-width="1.0" d="M 1061.5999999999983, 153.0L1076.8890158310217, 153.0"/>
<path fill="none" stroke="#000000" stroke-width="1.0" d="M 75.65065569357795, 159.0L278.9000000000055, 159.0"/>
<path fill="none" stroke="#000000" stroke-width="1.0" d="M 292.8375222913837, 159.0L306.39045308041494, 159.0"/>
<path fill="none" stroke="#000000" stroke-width="1.0" d="M 332.0301213159002, 159.0L351.5915576126264, 159.0"/>
<path fill="none" stroke="#000000" stroke-width="1.0" d="M 394.3540035701209, 159.0L420.72173191876914, 159.0"/>
<path fill="none" stroke="#000000" stroke-width="1.0" d="M 481.8541844295286, 159.0L494.55282275078844, 159.0"/>
<path fill="none" stroke="#000000" stroke-width="1.0" d="M 572.705106857332, 159.0L599.6910021713205, 159.0"/>
<path fill="none" stroke="#000000" stroke-width="1.0" d="M 609.1948228693979, 159.0L644.4508727212435, 159.0"/>
<path fill="none" stroke="#000000" stroke-width="1.0" d="M 652.0826605352474, 159.0L1055.4336564929404, 159.0"/>
<path fill="none" stroke="#000000" stroke-width="1.0" d="M 56.026241249960464, 165.0L268.16518866894927, 165.0"/>
<path fill="none" stroke="#000000" stroke-width="1.0" d="M 316.17053199156226, 165.0L318.24857694785766, 165.0"/>
<path fill="none" stroke="#000000" stroke-width="1.0" d="M 339.53726448601924, 165.0L346.0323293901611, 165.0"/>
<path fill="none" stroke="#000000" stroke-width="1.0" d="M 395.77943304892403, 165.0L416.1032859055439, 165.0"/>
<path fill="none" stroke="#000000" stroke-width="1.0" d="M 523.4, 165.0L526.1999999999999, 165.0"/>
<path fill="none" stroke="#000000" stroke-width="1.0" d="M 560.9949681614024, 165.0L592.2727838604688, 165.0"/>
<path fill="none" stroke="#000000" stroke-width="1.0" d="M 605.3115563111849, 165.0L1067.7233240774835, 165.0"/>
<path fill="none" stroke="#000000" stroke-width="1.0" d="M 54.2769125289758, 171.0L94.49273583390033, 171.0"/>
<path fill="none" stroke="#000000" stroke-width="1.0" d="M 102.97866074581259, 171.0L257.83387999190643, 171.0"/>
<path fill="none" stroke="#000000" stroke-width="1.0" d="M 308.8555683337945, 171.0L331.02369429591727, 171.0"/>
<path fill="none" stroke="#000000" stroke-width="1.0" d="M 403.654079362835, 171.0L410.6989422799276, 171.0"/>
<path fill="none" stroke="#000000" stroke-width="1.0" d="M 557.060987693235, 171.0L592.8096591010691, 171.0"/>
<path fill="none" stroke="#000000" stroke-width="1.0" d="M 607.2776325612141, 171.0L1006.9452513434735, 171.0"/>
<path fill="none" stroke="#000000" stroke-width="1.0" d="M 1029.2689233466112, 171.0L1054.9415940381973, 171.0"/>
<path fill="none" stroke="#000000" stroke-width="1.0" d="M 49.99999999999966, 177.0L71.99712871096003, 177.0"/>
<path fill="none" stroke="#000000" stroke-width="1.0" d="M 120.22985855103005, 177.0L252.2379994445568, 177.0"/>
<path fill="none" stroke="#000000" stroke-width="1.0" d="M 303.45020996781375, 177.0L330.19595146903015, 177.0"/>
<path fill="none" stroke="#000000" stroke-width="1.0" d="M 340.7492410698792, 177.0L347.4974806693583, 177.0"/>
<path fill="none" stroke="#000000" stroke-width="1.0" d="M 558.5139045067895, 177.0L571.873684210526, 177.0"/>
<path fill="none" stroke="#000000" stroke-width="1.0" d="M 572.3666666666659, 177.0L595.0354911720287, 177.0"/>
<path fill="none" stroke="#000000" stroke-width="1.0" d="M 612.4493944284851, 177.0L977.2458870685657, 177.0"/>
<path fill="none" stroke="#000000" stroke-width="1.0" d="M 999.3337352907679, 177.0L1006.563669317631, 177.0"/>
<path fill="none" stroke="#000000" stroke-width="1.0" d="M 1027.4108616084711, 177.0L1035.094328844251, 177.0"/>
<path fill="none" stroke="#000000" stroke-width="1.0" d="M 51.04784444869079, 183.0L56.69264011098723, 183.0"/>
<path fill="none" stroke="#000000" stroke-width="1.0" d="M 64.95840589009292, 183.0L69.42574699797633, 183.0"/>
<path fill="none" stroke="#000000" stroke-width="1.0" d="M 121.71678390752558, 183.0L122.61205702203186, 183.0"/>
<path fill="none" stroke="#000000" stroke-width="1.0" d="M 127.90489059685632, 183.0L255.4258264246552, 183.0"/>
<path fill="none" stroke="#000000" stroke-width="1.0" d="M 302.86689026876195, 183.0L348.35990502666175, 183.0"/>
<path fill="none" stroke="#000000" stroke-width="1.0" d="M 525.7101901658439, 183.0L528.8579968144411, 183.0"/>
<path fill="none" stroke="#000000" stroke-width="1.0" d="M 576.7588301226981, 183.0L590.1438330802358, 183.0"/>
<path fill="none" stroke="#000000" stroke-width="1.0" d="M 615.0526775968416, 183.0L970.872820832087, 183.0"/>
<path fill="none" stroke="#000000" stroke-width="1.0" d="M 1025.7457527869428, 183.0L1040.0656392757628, 183.0"/>
<path fill="none" stroke="#000000" stroke-width="1.0" d="M 37.796246412044866, 189.0L40.72074453105242, 189.0"/>
<path fill="none" stroke="#000000" stroke-width="1.0" d="M 123.15091180345436, 189.0L124.03536731561056, 189.0"/>
<path fill="none" stroke="#000000" stroke-width="1.0" d="M 128.09657438944072, 189.0L267.8465289243374, 189.0"/>
<path fill="none" stroke="#000000" stroke-width="1.0" d="M 298.85366245288736, 189.0L349.01835966841054, 189.0"/>
<path fill="none" stroke="#000000" stroke-width="1.0" d="M 524.4921284365207, 189.0L529.5666666666668, 189.0"/>
<path fill="none" stroke="#000000" stroke-width="1.0" d="M 565.8103475143904, 189.0L570.3274775410364, 189.0"/>
<path fill="none" stroke="#000000" stroke-width="1.0" d="M 574.892394811101, 189.0L577.857322427111, 189.0"/>
<path fill="none" stroke="#000000" stroke-width="1.0" d="M 579.7052884563055, 189.0L585.4619346936851, 189.0"/>
<path fill="none" stroke="#000000" stroke-width="1.0" d="M 605.981930329618, 189.0L968.8851259942916, 189.0"/>
<path fill="none" stroke="#000000" stroke-width="1.0" d="M 1027.3359416121068, 189.0L1046.66471563983, 189.0"/>
<path fill="none" stroke="#000000" stroke-width="1.0" d="M 126.872086307635, 195.0L277.99591984687237, 195.0"/>
<path fill="none" stroke="#000000" stroke-width="1.0" d="M 289.5116560815127, 195.0L349.003807557168, 195.0"/>
<path fill="none" stroke="#000000" stroke-width="1.0" d="M 511.3545802853843, 195.0L520.8422519660918, 195.0"/>
<path fill="none" stroke="#000000" stroke-width="1.0" d="M 530.0547499708166, 195.0L536.3210175253025, 195.0"/>
<path fill="none" stroke="#000000" stroke-width="1.0" d="M 567.8159080713826, 195.0L572.5205629025907, 195.0"/>
<path fill="none" stroke="#000000" stroke-width="1.0" d="M 593.1815832208647, 195.0L596.8412330765697, 195.0"/>
<path fill="none" stroke="#000000" stroke-width="1.0" d="M 601.1999999999997, 195.0L969.3298397388643, 195.0"/>
<path fill="none" stroke="#000000" stroke-width="1.0" d="M 1032.2645649834994, 195.0L1049.3874999999994, 195.0"/>
<path fill="none" stroke="#000000" stroke-width="1.0" d="M 126.60376377249236, 201.0L275.84783313661296, 201.0"/>
<path fill="none" stroke="#000000" stroke-width="1.0" d="M 286.20045688142665, 201.0L359.40273574633073, 201.0"/>
<path fill="none" stroke="#000000" stroke-width="1.0" d="M 508.712679269134, 201.0L518.7844061462575, 201.0"/>
<path fill="none" stroke="#000000" stroke-width="1.0" d="M 526.0754189481767, 201.0L539.471633935847, 201.0"/>
<path fill="none" stroke="#000000" stroke-width="1.0" d="M 556.13342246729, 201.0L989.2149045329375, 201.0"/>
<path fill="none" stroke="#000000" stroke-width="1.0" d="M 995.2657245844134, 201.0L997.3380384266679, 201.0"/>
<path fill="none" stroke="#000000" stroke-width="1.0" d="M 1039.0142271385705, 201.0L1048.3523404968005, 201.0"/>
<path fill="none" stroke="#000000" stroke-width="1.0" d="M 126.61091672940003, 207.0L278.2366741221268, 207.0"/>
<path fill="none" stroke="#000000" stroke-width="1.0" d="M 280.95397281053476, 207.0L349.90528388208264, 207.0"/>
<path fill="none" stroke="#000000" stroke-width="1.0" d="M 529.3578523852891, 207.0L540.5470666209347, 207.0"/>
<path fill="none" stroke="#000000" stroke-width="1.0" d="M 548.8580774600871, 207.0L993.9321235843374, 207.0"/>
<path fill="none" stroke="#000000" stroke-width="1.0" d="M 999.9889710913812, 207.0L1002.7815269359008, 207.0"/>
<path fill="none" stroke="#000000" stroke-width="1.0" d="M 1045.126071796235, 207.0L1049.4005523642938, 207.0"/>
<path fill="none" stroke="#000000" stroke-width="1.0" d="M 121.61427455501484, 213.0L127.83452221746477, 213.0"/>
<path fill="none" stroke="#000000" stroke-width="1.0" d="M 132.13269705138254, 213.0L317.36375105046613, 213.0"/>
<path fill="none" stroke="#000000" stroke-width="1.0" d="M 349.5511407176943, 213.0L353.87814213850606, 213.0"/>
<path fill="none" stroke="#000000" stroke-width="1.0" d="M 541.3321399686099, 213.0L998.8766374179578, 213.0"/>
<path fill="none" stroke="#000000" stroke-width="1.0" d="M 1004.7844135339319, 213.0L1010.1522031235658, 213.0"/>
<path fill="none" stroke="#000000" stroke-width="1.0" d="M 132.6537139535986, 219.0L241.53792014307209, 219.0"/>
<path fill="none" stroke="#000000" stroke-width="1.0" d="M 252.57409388120593, 219.0L306.3443151377007, 219.0"/>
<path fill="none" stroke="#000000" stroke-width="1.0" d="M 311.48261513681723, 219.0L323.5251350798225, 219.0"/>
<path fill="none" stroke="#000000" stroke-width="1.0" d="M 343.4349206349207, 219.0L361.333036265096, 219.0"/>
<path fill="none" stroke="#000000" stroke-width="1.0" d="M 523.3638301617668, 219.0L1000.2645616895709, 219.0"/>
<path fill="none" stroke="#000000" stroke-width="1.0" d="M 1008.6495467668954, 219.0L1010.9231401295608, 219.0"/>
<path fill="none" stroke="#000000" stroke-width="1.0" d="M 122.22598657527647, 225.0L230.1352941176471, 225.0"/>
<path fill="none" stroke="#000000" stroke-width="1.0" d="M 239.08423875411404, 225.0L242.3234535535783, 225.0"/>
<path fill="none" stroke="#000000" stroke-width="1.0" d="M 254.42821390224722, 225.0L320.94621996863543, 225.0"/>
<path fill="none" stroke="#000000" stroke-width="1.0" d="M 349.3275132893881, 225.0L350.3680184518221, 225.0"/>
<path fill="none" stroke="#000000" stroke-width="1.0" d="M 531.409025020178, 225.0L659.0769187976604, 225.0"/>
<path fill="none" stroke="#000000" stroke-width="1.0" d="M 666.2612034330309, 225.0L707.1746310626158, 225.0"/>
<path fill="none" stroke="#000000" stroke-width="1.0" d="M 713.3721951092595, 225.0L1000.3289717320224, 225.0"/>
<path fill="none" stroke="#000000" stroke-width="1.0" d="M 1012.0010975957714, 225.0L1015.8514207830208, 225.0"/>
<path fill="none" stroke="#000000" stroke-width="1.0" d="M 118.87523703966764, 231.0L242.29871410931736, 231.0"/>
<path fill="none" stroke="#000000" stroke-width="1.0" d="M 250.4057940151692, 231.0L254.87313498767452, 231.0"/>
<path fill="none" stroke="#000000" stroke-width="1.0" d="M 266.0486201728134, 231.0L313.5985038210527, 231.0"/>
<path fill="none" stroke="#000000" stroke-width="1.0" d="M 320.83997842091946, 231.0L329.7658581394348, 231.0"/>
<path fill="none" stroke="#000000" stroke-width="1.0" d="M 532.4504315577741, 231.0L577.9313714903537, 231.0"/>
<path fill="none" stroke="#000000" stroke-width="1.0" d="M 582.1735306359692, 231.0L637.1474961755732, 231.0"/>
<path fill="none" stroke="#000000" stroke-width="1.0" d="M 648.7009363407311, 231.0L657.8572043309102, 231.0"/>
<path fill="none" stroke="#000000" stroke-width="1.0" d="M 664.584, 231.0L698.740227690692, 231.0"/>
<path fill="none" stroke="#000000" stroke-width="1.0" d="M 718.5271505304511, 231.0L999.4660125941834, 231.0"/>
<path fill="none" stroke="#000000" stroke-width="1.0" d="M 114.1476287468414, 237.0L237.34507190634184, 237.0"/>
<path fill="none" stroke="#000000" stroke-width="1.0" d="M 243.5811728721974, 237.0L252.0125, 237.0"/>
<path fill="none" stroke="#000000" stroke-width="1.0" d="M 259.37009256578614, 237.0L299.4084834536082, 237.0"/>
<path fill="none" stroke="#000000" stroke-width="1.0" d="M 531.1302468846184, 237.0L562.1155985752188, 237.0"/>
<path fill="none" stroke="#000000" stroke-width="1.0" d="M 571.1251647834746, 237.0L580.6627941427064, 237.0"/>
<path fill="none" stroke="#000000" stroke-width="1.0" d="M 590.947265952226, 237.0L633.8104283229977, 237.0"/>
<path fill="none" stroke="#000000" stroke-width="1.0" d="M 671.2090548603421, 237.0L697.9868546518152, 237.0"/>
<path fill="none" stroke="#000000" stroke-width="1.0" d="M 709.968201039531, 237.0L997.3819878181138, 237.0"/>
<path fill="none" stroke="#000000" stroke-width="1.0" d="M 1018.9049616875445, 237.0L1026.4600864776041, 237.0"/>
<path fill="none" stroke="#000000" stroke-width="1.0" d="M 110.41413327919956, 243.0L234.09612828193235, 243.0"/>
<path fill="none" stroke="#000000" stroke-width="1.0" d="M 240.184354134161, 243.0L294.12611414514265, 243.0"/>
<path fill="none" stroke="#000000" stroke-width="1.0" d="M 506.15739596718043, 243.0L547.0168132460445, 243.0"/>
<path fill="none" stroke="#000000" stroke-width="1.0" d="M 567.0268275072297, 243.0L569.6844264130585, 243.0"/>
<path fill="none" stroke="#000000" stroke-width="1.0" d="M 575.7908726389384, 243.0L587.1612095410111, 243.0"/>
<path fill="none" stroke="#000000" stroke-width="1.0" d="M 600.6779408184451, 243.0L631.9938838440046, 243.0"/>
<path fill="none" stroke="#000000" stroke-width="1.0" d="M 678.9357200764177, 243.0L701.8248504206247, 243.0"/>
<path fill="none" stroke="#000000" stroke-width="1.0" d="M 717.4463358070271, 243.0L985.7045580197785, 243.0"/>
<path fill="none" stroke="#000000" stroke-width="1.0" d="M 1017.772673270325, 243.0L1021.8174129764836, 243.0"/>
<path fill="none" stroke="#000000" stroke-width="1.0" d="M 1024.7363799288696, 243.0L1029.4907691706185, 243.0"/>
<path fill="none" stroke="#000000" stroke-width="1.0" d="M 106.53307143332736, 249.0L281.42092116281117, 249.0"/>
<path fill="none" stroke="#000000" stroke-width="1.0" d="M 505.61953968419294, 249.0L539.687810870656, 249.0"/>
<path fill="none" stroke="#000000" stroke-width="1.0" d="M 567.3942747972344, 249.0L568.4080572646072, 249.0"/>
<path fill="none" stroke="#000000" stroke-width="1.0" d="M 586.1511511120111, 249.0L596.0653803682524, 249.0"/>
<path fill="none" stroke="#000000" stroke-width="1.0" d="M 603.599129482416, 249.0L622.1776676267102, 249.0"/>
<path fill="none" stroke="#000000" stroke-width="1.0" d="M 624.7611622635111, 249.0L631.8000000000001, 249.0"/>
<path fill="none" stroke="#000000" stroke-width="1.0" d="M 638.4488015640203, 249.0L666.1169018685927, 249.0"/>
<path fill="none" stroke="#000000" stroke-width="1.0" d="M 676.4412025948451, 249.0L706.5887523048632, 249.0"/>
<path fill="none" stroke="#000000" stroke-width="1.0" d="M 725.6462135035069, 249.0L984.7249036133255, 249.0"/>
<path fill="none" stroke="#000000" stroke-width="1.0" d="M 1023.1896868894012, 249.0L1024.578221670242, 249.0"/>
<path fill="none" stroke="#000000" stroke-width="1.0" d="M 104.68885887766052, 255.0L273.8613664125588, 255.0"/>
<path fill="none" stroke="#000000" stroke-width="1.0" d="M 504.49811072046737, 255.0L535.2153964034566, 255.0"/>
<path fill="none" stroke="#000000" stroke-width="1.0" d="M 544.6485720862574, 255.0L546.9861010145743, 255.0"/>
<path fill="none" stroke="#000000" stroke-width="1.0" d="M 566.6400630247646, 255.0L569.3516346755565, 255.0"/>
<path fill="none" stroke="#000000" stroke-width="1.0" d="M 590.9382367431175, 255.0L594.1246019711696, 255.0"/>
<path fill="none" stroke="#000000" stroke-width="1.0" d="M 606.0782877397536, 255.0L614.9067267381811, 255.0"/>
<path fill="none" stroke="#000000" stroke-width="1.0" d="M 628.5867195645595, 255.0L707.8566667537066, 255.0"/>
<path fill="none" stroke="#000000" stroke-width="1.0" d="M 722.7389863117902, 255.0L950.7857219249759, 255.0"/>
<path fill="none" stroke="#000000" stroke-width="1.0" d="M 960.7097568115043, 255.0L965.4913529906661, 255.0"/>
<path fill="none" stroke="#000000" stroke-width="1.0" d="M 970.9292424706591, 255.0L979.9946646005692, 255.0"/>
<path fill="none" stroke="#000000" stroke-width="1.0" d="M 1024.5011317046008, 255.0L1030.8252142933882, 255.0"/>
<path fill="none" stroke="#000000" stroke-width="1.0" d="M 105.67695228138705, 261.0L266.33901905299456, 261.0"/>
<path fill="none" stroke="#000000" stroke-width="1.0" d="M 504.4682619111362, 261.0L532.442995277471, 261.0"/>
<path fill="none" stroke="#000000" stroke-width="1.0" d="M 582.3999999999999, 261.0L587.2146437016996, 261.0"/>
<path fill="none" stroke="#000000" stroke-width="1.0" d="M 610.4972898148159, 261.0L617.5157809930253, 261.0"/>
<path fill="none" stroke="#000000" stroke-width="1.0" d="M 631.4460057158875, 261.0L707.2957446808512, 261.0"/>
<path fill="none" stroke="#000000" stroke-width="1.0" d="M 725.5820945031803, 261.0L950.0963576939673, 261.0"/>
<path fill="none" stroke="#000000" stroke-width="1.0" d="M 974.8261767861602, 261.0L986.9226808324338, 261.0"/>
<path fill="none" stroke="#000000" stroke-width="1.0" d="M 1025.843432515637, 261.0L1031.5198886753997, 261.0"/>
<path fill="none" stroke="#000000" stroke-width="1.0" d="M 105.84000028460025, 267.0L265.6893762294792, 267.0"/>
<path fill="none" stroke="#000000" stroke-width="1.0" d="M 514.0999999999995, 267.0L517.7293261060452, 267.0"/>
<path fill="none" stroke="#000000" stroke-width="1.0" d="M 543.9369235037475, 267.0L572.6388501929064, 267.0"/>
<path fill="none" stroke="#000000" stroke-width="1.0" d="M 638.2685083460435, 267.0L642.1026902311542, 267.0"/>
<path fill="none" stroke="#000000" stroke-width="1.0" d="M 648.4835504344863, 267.0L656.6103035847525, 267.0"/>
<path fill="none" stroke="#000000" stroke-width="1.0" d="M 663.2830210166517, 267.0L717.1198794739096, 267.0"/>
<path fill="none" stroke="#000000" stroke-width="1.0" d="M 723.0893354576567, 267.0L964.2177898393502, 267.0"/>
<path fill="none" stroke="#000000" stroke-width="1.0" d="M 983.0897227694632, 267.0L993.3201054425167, 267.0"/>
<path fill="none" stroke="#000000" stroke-width="1.0" d="M 1020.2923865934669, 267.0L1033.3466746029653, 267.0"/>
<path fill="none" stroke="#000000" stroke-width="1.0" d="M 107.05405404010348, 273.0L262.4060051206226, 273.0"/>
<path fill="none" stroke="#000000" stroke-width="1.0" d="M 513.4164620519656, 273.0L521.1514582813875, 273.0"/>
<path fill="none" stroke="#000000" stroke-width="1.0" d="M 529.0696631217595, 273.0L573.1172748336683, 273.0"/>
<path fill="none" stroke="#000000" stroke-width="1.0" d="M 621.8297940108955, 273.0L629.0472265669792, 273.0"/>
<path fill="none" stroke="#000000" stroke-width="1.0" d="M 651.2550426509266, 273.0L655.6687299062582, 273.0"/>
<path fill="none" stroke="#000000" stroke-width="1.0" d="M 662.696449144339, 273.0L959.3753893463795, 273.0"/>
<path fill="none" stroke="#000000" stroke-width="1.0" d="M 985.984615384615, 273.0L993.6367557161392, 273.0"/>
<path fill="none" stroke="#000000" stroke-width="1.0" d="M 1006.8556641868379, 273.0L1029.7133522629626, 273.0"/>
<path fill="none" stroke="#000000" stroke-width="1.0" d="M 113.38629297764987, 279.0L252.58421568102256, 279.0"/>
<path fill="none" stroke="#000000" stroke-width="1.0" d="M 507.3812301307769, 279.0L574.5951886568226, 279.0"/>
<path fill="none" stroke="#000000" stroke-width="1.0" d="M 662.4074159350436, 279.0L963.6909375058394, 279.0"/>
<path fill="none" stroke="#000000" stroke-width="1.0" d="M 1002.4705402565653, 279.0L1003.3911617735392, 279.0"/>
<path fill="none" stroke="#000000" stroke-width="1.0" d="M 1010.8955485117608, 279.0L1014.7787633528831, 279.0"/>
<path fill="none" stroke="#000000" stroke-width="1.0" d="M 1020.2333333333336, 279.0L1020.8931034482762, 279.0"/>
<path fill="none" stroke="#000000" stroke-width="1.0" d="M 115.23958963011825, 285.0L244.75948043932522, 285.0"/>
<path fill="none" stroke="#000000" stroke-width="1.0" d="M 501.38129490099413, 285.0L589.1012500350806, 285.0"/>
<path fill="none" stroke="#000000" stroke-width="1.0" d="M 607.8911322514738, 285.0L620.5209028101193, 285.0"/>
<path fill="none" stroke="#000000" stroke-width="1.0" d="M 660.4959568169168, 285.0L967.6201250903739, 285.0"/>
<path fill="none" stroke="#000000" stroke-width="1.0" d="M 1004.8456197400869, 285.0L1008.1716831017422, 285.0"/>
<path fill="none" stroke="#000000" stroke-width="1.0" d="M 115.38226099756298, 291.0L119.66342148069305, 291.0"/>
<path fill="none" stroke="#000000" stroke-width="1.0" d="M 126.73694325170143, 291.0L215.3954551402023, 291.0"/>
<path fill="none" stroke="#000000" stroke-width="1.0" d="M 220.22774963573215, 291.0L240.58486349065183, 291.0"/>
<path fill="none" stroke="#000000" stroke-width="1.0" d="M 499.51576707401983, 291.0L599.3014127577463, 291.0"/>
<path fill="none" stroke="#000000" stroke-width="1.0" d="M 606.3083330600957, 291.0L972.961748708282, 291.0"/>
<path fill="none" stroke="#000000" stroke-width="1.0" d="M 118.00237842440978, 297.0L121.63578248526727, 297.0"/>
<path fill="none" stroke="#000000" stroke-width="1.0" d="M 128.21824674551672, 297.0L188.8960668010167, 297.0"/>
<path fill="none" stroke="#000000" stroke-width="1.0" d="M 234.33283662411924, 297.0L240.65171621043265, 297.0"/>
<path fill="none" stroke="#000000" stroke-width="1.0" d="M 495.91408443315464, 297.0L653.0025953961399, 297.0"/>
<path fill="none" stroke="#000000" stroke-width="1.0" d="M 655.4415294791828, 297.0L710.2300663106286, 297.0"/>
<path fill="none" stroke="#000000" stroke-width="1.0" d="M 719.5734173161873, 297.0L975.5950317698237, 297.0"/>
<path fill="none" stroke="#000000" stroke-width="1.0" d="M 117.75574725381772, 303.0L124.17352832129968, 303.0"/>
<path fill="none" stroke="#000000" stroke-width="1.0" d="M 131.2219742748967, 303.0L179.9675021842028, 303.0"/>
<path fill="none" stroke="#000000" stroke-width="1.0" d="M 234.33184356256805, 303.0L241.41449350795045, 303.0"/>
<path fill="none" stroke="#000000" stroke-width="1.0" d="M 487.9271766951717, 303.0L656.0662114721495, 303.0"/>
<path fill="none" stroke="#000000" stroke-width="1.0" d="M 664.286469602486, 303.0L713.0126485734721, 303.0"/>
<path fill="none" stroke="#000000" stroke-width="1.0" d="M 724.1036937696902, 303.0L974.3615579318978, 303.0"/>
<path fill="none" stroke="#000000" stroke-width="1.0" d="M 122.91856160412628, 309.0L125.89252284496467, 309.0"/>
<path fill="none" stroke="#000000" stroke-width="1.0" d="M 134.1312443926459, 309.0L177.81318587260114, 309.0"/>
<path fill="none" stroke="#000000" stroke-width="1.0" d="M 235.86623403484674, 309.0L241.17500873068443, 309.0"/>
<path fill="none" stroke="#000000" stroke-width="1.0" d="M 251.76847101928473, 309.0L252.0, 309.0"/>
<path fill="none" stroke="#000000" stroke-width="1.0" d="M 483.0965379983717, 309.0L659.4784272094105, 309.0"/>
<path fill="none" stroke="#000000" stroke-width="1.0" d="M 667.6735145349255, 309.0L716.0844721574208, 309.0"/>
<path fill="none" stroke="#000000" stroke-width="1.0" d="M 744.2718723308492, 309.0L972.648957106329, 309.0"/>
<path fill="none" stroke="#000000" stroke-width="1.0" d="M 123.9393279005547, 315.0L127.41030055567504, 315.0"/>
<path fill="none" stroke="#000000" stroke-width="1.0" d="M 138.0349862491184, 315.0L175.83333333333377, 315.0"/>
<path fill="none" stroke="#000000" stroke-width="1.0" d="M 245.79999999999998, 315.0L247.29999999999984, 315.0"/>
<path fill="none" stroke="#000000" stroke-width="1.0" d="M 479.49228560136487, 315.0L662.646106642612, 315.0"/>
<path fill="none" stroke="#000000" stroke-width="1.0" d="M 672.1584746854526, 315.0L724.148370607456, 315.0"/>
<path fill="none" stroke="#000000" stroke-width="1.0" d="M 735.4571322209285, 315.0L741.3694202533749, 315.0"/>
<path fill="none" stroke="#000000" stroke-width="1.0" d="M 781.0963006777909, 315.0L970.3214499011824, 315.0"/>
<path fill="none" stroke="#000000" stroke-width="1.0" d="M 979.9081680698037, 315.0L982.1564375029125, 315.0"/>
<path fill="none" stroke="#000000" stroke-width="1.0" d="M 142.11149705728653, 321.0L173.83333333333383, 321.0"/>
<path fill="none" stroke="#000000" stroke-width="1.0" d="M 475.8682397244795, 321.0L665.8083633414705, 321.0"/>
<path fill="none" stroke="#000000" stroke-width="1.0" d="M 676.7786598366763, 321.0L749.2088756649167, 321.0"/>
<path fill="none" stroke="#000000" stroke-width="1.0" d="M 787.3908674179744, 321.0L965.7819099724393, 321.0"/>
<path fill="none" stroke="#000000" stroke-width="1.0" d="M 977.2066831851531, 321.0L982.2045833846289, 321.0"/>
<path fill="none" stroke="#000000" stroke-width="1.0" d="M 144.27458248144382, 327.0L173.9375000000004, 327.0"/>
<path fill="none" stroke="#000000" stroke-width="1.0" d="M 238.39572519037824, 327.0L248.055206668865, 327.0"/>
<path fill="none" stroke="#000000" stroke-width="1.0" d="M 257.06597587749565, 327.0L260.06394856911356, 327.0"/>
<path fill="none" stroke="#000000" stroke-width="1.0" d="M 472.5089486584591, 327.0L669.4490249407035, 327.0"/>
<path fill="none" stroke="#000000" stroke-width="1.0" d="M 679.4500276325989, 327.0L754.022280128847, 327.0"/>
<path fill="none" stroke="#000000" stroke-width="1.0" d="M 790.1999999999999, 327.0L800.4731464419305, 327.0"/>
<path fill="none" stroke="#000000" stroke-width="1.0" d="M 803.1034390617706, 327.0L862.060153246264, 327.0"/>
<path fill="none" stroke="#000000" stroke-width="1.0" d="M 872.4939506216363, 327.0L948.707451911334, 327.0"/>
<path fill="none" stroke="#000000" stroke-width="1.0" d="M 143.22804012703145, 333.0L175.68484064594412, 333.0"/>
<path fill="none" stroke="#000000" stroke-width="1.0" d="M 199.46544874747678, 333.0L210.72083392516447, 333.0"/>
<path fill="none" stroke="#000000" stroke-width="1.0" d="M 243.85231964926425, 333.0L258.3342319965721, 333.0"/>
<path fill="none" stroke="#000000" stroke-width="1.0" d="M 472.748689548045, 333.0L670.9580139736345, 333.0"/>
<path fill="none" stroke="#000000" stroke-width="1.0" d="M 682.0751413100278, 333.0L749.038010742966, 333.0"/>
<path fill="none" stroke="#000000" stroke-width="1.0" d="M 804.0, 333.0L855.2421296296294, 333.0"/>
<path fill="none" stroke="#000000" stroke-width="1.0" d="M 876.2288579959809, 333.0L927.3301795611237, 333.0"/>
<path fill="none" stroke="#000000" stroke-width="1.0" d="M 940.5260869565213, 333.0L941.3541666666666, 333.0"/>
<path fill="none" stroke="#000000" stroke-width="1.0" d="M 147.9256946777451, 339.0L179.1009286293174, 339.0"/>
<path fill="none" stroke="#000000" stroke-width="1.0" d="M 194.18662483915665, 339.0L208.08406587450048, 339.0"/>
<path fill="none" stroke="#000000" stroke-width="1.0" d="M 263.5727801367317, 339.0L278.0356109058883, 339.0"/>
<path fill="none" stroke="#000000" stroke-width="1.0" d="M 474.3766702860475, 339.0L673.4808818757369, 339.0"/>
<path fill="none" stroke="#000000" stroke-width="1.0" d="M 687.1226014083989, 339.0L745.2220841162255, 339.0"/>
<path fill="none" stroke="#000000" stroke-width="1.0" d="M 804.2918873990341, 339.0L848.17017123932, 339.0"/>
<path fill="none" stroke="#000000" stroke-width="1.0" d="M 882.6583142068789, 339.0L926.0686511320357, 339.0"/>
<path fill="none" stroke="#000000" stroke-width="1.0" d="M 937.9527934334428, 339.0L943.2898731550913, 339.0"/>
<path fill="none" stroke="#000000" stroke-width="1.0" d="M 158.47611585079395, 345.0L205.32300973666358, 345.0"/>
<path fill="none" stroke="#000000" stroke-width="1.0" d="M 301.01165043596006, 345.0L302.17522144787205, 345.0"/>
<path fill="none" stroke="#000000" stroke-width="1.0" d="M 304.9514293769432, 345.0L306.4249255035123, 345.0"/>
<path fill="none" stroke="#000000" stroke-width="1.0" d="M 474.2422245394596, 345.0L677.8003825901152, 345.0"/>
<path fill="none" stroke="#000000" stroke-width="1.0" d="M 691.0699565853014, 345.0L739.2057415141703, 345.0"/>
<path fill="none" stroke="#000000" stroke-width="1.0" d="M 806.2076928690058, 345.0L842.0319559757447, 345.0"/>
<path fill="none" stroke="#000000" stroke-width="1.0" d="M 885.5950331390551, 345.0L930.225533571816, 345.0"/>
<path fill="none" stroke="#000000" stroke-width="1.0" d="M 983.0992751708385, 345.0L988.7022559878355, 345.0"/>
<path fill="none" stroke="#000000" stroke-width="1.0" d="M 170.7491525423727, 351.0L175.40000000000038, 351.0"/>
<path fill="none" stroke="#000000" stroke-width="1.0" d="M 184.33039172182418, 351.0L203.70608247828088, 351.0"/>
<path fill="none" stroke="#000000" stroke-width="1.0" d="M 472.2899054444588, 351.0L680.443209565603, 351.0"/>
<path fill="none" stroke="#000000" stroke-width="1.0" d="M 693.8910112830569, 351.0L728.0390111099787, 351.0"/>
<path fill="none" stroke="#000000" stroke-width="1.0" d="M 808.5249918405623, 351.0L836.1712916999232, 351.0"/>
<path fill="none" stroke="#000000" stroke-width="1.0" d="M 886.8865186829103, 351.0L891.0481746843466, 351.0"/>
<path fill="none" stroke="#000000" stroke-width="1.0" d="M 897.521079682738, 351.0L936.187423174573, 351.0"/>
<path fill="none" stroke="#000000" stroke-width="1.0" d="M 981.5787676123825, 351.0L989.1357469182025, 351.0"/>
<path fill="none" stroke="#000000" stroke-width="1.0" d="M 190.5165181496182, 357.0L221.36498276343306, 357.0"/>
<path fill="none" stroke="#000000" stroke-width="1.0" d="M 307.6, 357.0L309.2056631545246, 357.0"/>
<path fill="none" stroke="#000000" stroke-width="1.0" d="M 470.68064346257154, 357.0L686.736579316772, 357.0"/>
<path fill="none" stroke="#000000" stroke-width="1.0" d="M 695.0927018253831, 357.0L718.9654993381927, 357.0"/>
<path fill="none" stroke="#000000" stroke-width="1.0" d="M 810.9752757539293, 357.0L832.4693150887728, 357.0"/>
<path fill="none" stroke="#000000" stroke-width="1.0" d="M 899.4178214636329, 357.0L939.7376555283753, 357.0"/>
<path fill="none" stroke="#000000" stroke-width="1.0" d="M 984.7234269856274, 357.0L989.5229321267069, 357.0"/>
<path fill="none" stroke="#000000" stroke-width="1.0" d="M 206.0, 363.0L220.5837263402366, 363.0"/>
<path fill="none" stroke="#000000" stroke-width="1.0" d="M 313.1222135098577, 363.0L314.5959823854546, 363.0"/>
<path fill="none" stroke="#000000" stroke-width="1.0" d="M 471.3259980280242, 363.0L692.4588896529549, 363.0"/>
<path fill="none" stroke="#000000" stroke-width="1.0" d="M 697.573780925736, 363.0L704.9148725768861, 363.0"/>
<path fill="none" stroke="#000000" stroke-width="1.0" d="M 813.4793630930037, 363.0L832.6535845926621, 363.0"/>
<path fill="none" stroke="#000000" stroke-width="1.0" d="M 901.9258992364914, 363.0L907.0871330301096, 363.0"/>
<path fill="none" stroke="#000000" stroke-width="1.0" d="M 910.3449320775596, 363.0L941.9274479121223, 363.0"/>
<path fill="none" stroke="#000000" stroke-width="1.0" d="M 997.1226033096527, 363.0L998.0965605840468, 363.0"/>
<path fill="none" stroke="#000000" stroke-width="1.0" d="M 209.76355564910148, 369.0L219.71967736222837, 369.0"/>
<path fill="none" stroke="#000000" stroke-width="1.0" d="M 260.38147298349213, 369.0L264.66596383810827, 369.0"/>
<path fill="none" stroke="#000000" stroke-width="1.0" d="M 270.45449697595546, 369.0L275.21643340039134, 369.0"/>
<path fill="none" stroke="#000000" stroke-width="1.0" d="M 475.4658010801005, 369.0L695.5528336388102, 369.0"/>
<path fill="none" stroke="#000000" stroke-width="1.0" d="M 722.3000000000002, 369.0L724.2500000000002, 369.0"/>
<path fill="none" stroke="#000000" stroke-width="1.0" d="M 816.0720221159529, 369.0L832.1305596399773, 369.0"/>
<path fill="none" stroke="#000000" stroke-width="1.0" d="M 903.488671620182, 369.0L906.8419548090907, 369.0"/>
<path fill="none" stroke="#000000" stroke-width="1.0" d="M 918.0444700245072, 369.0L941.94345670763, 369.0"/>
<path fill="none" stroke="#000000" stroke-width="1.0" d="M 1001.8294245137056, 369.0L1004.6256913843956, 369.0"/>
<path fill="none" stroke="#000000" stroke-width="1.0" d="M 212.3442883994497, 375.0L221.32536995357668, 375.0"/>
<path fill="none" stroke="#000000" stroke-width="1.0" d="M 250.8172274547308, 375.0L263.44935722570483, 375.0"/>
<path fill="none" stroke="#000000" stroke-width="1.0" d="M 267.5459889006946, 375.0L295.62256526752304, 375.0"/>
<path fill="none" stroke="#000000" stroke-width="1.0" d="M 300.35634693879774, 375.0L303.15709678098386, 375.0"/>
<path fill="none" stroke="#000000" stroke-width="1.0" d="M 480.6581469920042, 375.0L724.6982457279003, 375.0"/>
<path fill="none" stroke="#000000" stroke-width="1.0" d="M 818.5846941990051, 375.0L830.5647951341367, 375.0"/>
<path fill="none" stroke="#000000" stroke-width="1.0" d="M 902.7261722359494, 375.0L905.7690030548795, 375.0"/>
<path fill="none" stroke="#000000" stroke-width="1.0" d="M 927.5999999999997, 375.0L935.1522938884897, 375.0"/>
<path fill="none" stroke="#000000" stroke-width="1.0" d="M 979.7316382141985, 375.0L982.4553738304996, 375.0"/>
<path fill="none" stroke="#000000" stroke-width="1.0" d="M 995.2881225814315, 375.0L995.7801572041184, 375.0"/>
<path fill="none" stroke="#000000" stroke-width="1.0" d="M 1000.7, 375.0L1001.8485032834399, 375.0"/>
<path fill="none" stroke="#000000" stroke-width="1.0" d="M 219.6624129928373, 381.0L232.39743640986947, 381.0"/>
<path fill="none" stroke="#000000" stroke-width="1.0" d="M 238.92605551268133, 381.0L242.66133430492198, 381.0"/>
<path fill="none" stroke="#000000" stroke-width="1.0" d="M 246.14511951891217, 381.0L306.59296295112193, 381.0"/>
<path fill="none" stroke="#000000" stroke-width="1.0" d="M 484.13731194842615, 381.0L722.2621937445431, 381.0"/>
<path fill="none" stroke="#000000" stroke-width="1.0" d="M 820.6761872965596, 381.0L827.056292106627, 381.0"/>
<path fill="none" stroke="#000000" stroke-width="1.0" d="M 834.8208240740009, 381.0L837.7052240563686, 381.0"/>
<path fill="none" stroke="#000000" stroke-width="1.0" d="M 902.2978615484203, 381.0L907.8728883133729, 381.0"/>
<path fill="none" stroke="#000000" stroke-width="1.0" d="M 974.9218568631161, 381.0L977.3396565797119, 381.0"/>
<path fill="none" stroke="#000000" stroke-width="1.0" d="M 1003.8910226362144, 381.0L1008.0047250154946, 381.0"/>
<path fill="none" stroke="#000000" stroke-width="1.0" d="M 240.44806926117616, 387.0L312.71442400305386, 387.0"/>
<path fill="none" stroke="#000000" stroke-width="1.0" d="M 487.8436016087984, 387.0L719.1940651089035, 387.0"/>
<path fill="none" stroke="#000000" stroke-width="1.0" d="M 834.9246499618007, 387.0L840.980528925813, 387.0"/>
<path fill="none" stroke="#000000" stroke-width="1.0" d="M 907.3825543495659, 387.0L911.1138059466302, 387.0"/>
<path fill="none" stroke="#000000" stroke-width="1.0" d="M 1000.0807145705916, 387.0L1009.959525003686, 387.0"/>
<path fill="none" stroke="#000000" stroke-width="1.0" d="M 1181.0714985444406, 387.0L1182.315141592056, 387.0"/>
<path fill="none" stroke="#000000" stroke-width="1.0" d="M 241.76666432223385, 393.0L323.3685089628083, 393.0"/>
<path fill="none" stroke="#000000" stroke-width="1.0" d="M 324.4367220087065, 393.0L329.66160352581073, 393.0"/>
<path fill="none" stroke="#000000" stroke-width="1.0" d="M 494.29748285157143, 393.0L534.8391573959651, 393.0"/>
<path fill="none" stroke="#000000" stroke-width="1.0" d="M 553.4731296424056, 393.0L716.0616075041194, 393.0"/>
<path fill="none" stroke="#000000" stroke-width="1.0" d="M 910.6999999999996, 393.0L917.681469354192, 393.0"/>
<path fill="none" stroke="#000000" stroke-width="1.0" d="M 971.0769674421445, 393.0L978.4, 393.0"/>
<path fill="none" stroke="#000000" stroke-width="1.0" d="M 1003.2012031409656, 393.0L1005.5219419315056, 393.0"/>
<path fill="none" stroke="#000000" stroke-width="1.0" d="M 241.62054478899518, 399.0L338.5013986294944, 399.0"/>
<path fill="none" stroke="#000000" stroke-width="1.0" d="M 566.87101554644, 399.0L712.7377406598115, 399.0"/>
<path fill="none" stroke="#000000" stroke-width="1.0" d="M 895.8945904569655, 399.0L903.5738935635223, 399.0"/>
<path fill="none" stroke="#000000" stroke-width="1.0" d="M 912.6261675194976, 399.0L921.8672782901376, 399.0"/>
<path fill="none" stroke="#000000" stroke-width="1.0" d="M 962.5126421711482, 399.0L979.074193548387, 399.0"/>
<path fill="none" stroke="#000000" stroke-width="1.0" d="M 239.10722748457266, 405.0L341.6729292216364, 405.0"/>
<path fill="none" stroke="#000000" stroke-width="1.0" d="M 570.1270865838644, 405.0L707.8156422476055, 405.0"/>
<path fill="none" stroke="#000000" stroke-width="1.0" d="M 901.4933629193722, 405.0L909.6290340729425, 405.0"/>
<path fill="none" stroke="#000000" stroke-width="1.0" d="M 915.7840807913369, 405.0L923.8056180059373, 405.0"/>
<path fill="none" stroke="#000000" stroke-width="1.0" d="M 957.4307880142785, 405.0L977.2220279287241, 405.0"/>
<path fill="none" stroke="#000000" stroke-width="1.0" d="M 234.76942791027628, 411.0L344.0190587114769, 411.0"/>
<path fill="none" stroke="#000000" stroke-width="1.0" d="M 570.0711106512966, 411.0L700.5168635667858, 411.0"/>
<path fill="none" stroke="#000000" stroke-width="1.0" d="M 905.7249706575749, 411.0L916.5102716171407, 411.0"/>
<path fill="none" stroke="#000000" stroke-width="1.0" d="M 923.0931668968858, 411.0L925.3683800627075, 411.0"/>
<path fill="none" stroke="#000000" stroke-width="1.0" d="M 946.4241983022152, 411.0L950.0055131844132, 411.0"/>
<path fill="none" stroke="#000000" stroke-width="1.0" d="M 951.4954659185323, 411.0L980.2920000000001, 411.0"/>
<path fill="none" stroke="#000000" stroke-width="1.0" d="M 1015.2194385744147, 411.0L1017.1693197911619, 411.0"/>
<path fill="none" stroke="#000000" stroke-width="1.0" d="M 1188.5362582746777, 411.0L1189.3367135553772, 411.0"/>
<path fill="none" stroke="#000000" stroke-width="1.0" d="M 230.67577429188594, 417.0L339.6200246449435, 417.0"/>
<path fill="none" stroke="#000000" stroke-width="1.0" d="M 344.50829329028744, 417.0L348.9739821302128, 417.0"/>
<path fill="none" stroke="#000000" stroke-width="1.0" d="M 568.6937772273062, 417.0L694.541935452161, 417.0"/>
<path fill="none" stroke="#000000" stroke-width="1.0" d="M 909.850684668661, 417.0L922.532726486138, 417.0"/>
<path fill="none" stroke="#000000" stroke-width="1.0" d="M 945.9113881426131, 417.0L976.6551554333429, 417.0"/>
<path fill="none" stroke="#000000" stroke-width="1.0" d="M 986.0614827212739, 417.0L987.8554288371864, 417.0"/>
<path fill="none" stroke="#000000" stroke-width="1.0" d="M 1015.0053196919988, 417.0L1017.9099331382397, 417.0"/>
<path fill="none" stroke="#000000" stroke-width="1.0" d="M 228.37183781732193, 423.0L346.19038105676725, 423.0"/>
<path fill="none" stroke="#000000" stroke-width="1.0" d="M 350.8232706909646, 423.0L363.3751660123045, 423.0"/>
<path fill="none" stroke="#000000" stroke-width="1.0" d="M 568.5085642372605, 423.0L689.4933756150023, 423.0"/>
<path fill="none" stroke="#000000" stroke-width="1.0" d="M 913.6828129511916, 423.0L925.9826155915321, 423.0"/>
<path fill="none" stroke="#000000" stroke-width="1.0" d="M 947.6196553398361, 423.0L974.3319131453916, 423.0"/>
<path fill="none" stroke="#000000" stroke-width="1.0" d="M 984.7184238079109, 423.0L995.4484402484366, 423.0"/>
<path fill="none" stroke="#000000" stroke-width="1.0" d="M 1030.0370611124567, 423.0L1038.6437872984875, 423.0"/>
<path fill="none" stroke="#000000" stroke-width="1.0" d="M 231.0917519716207, 429.0L383.5535888837808, 429.0"/>
<path fill="none" stroke="#000000" stroke-width="1.0" d="M 572.7989011710004, 429.0L684.4223436824241, 429.0"/>
<path fill="none" stroke="#000000" stroke-width="1.0" d="M 916.8396262693689, 429.0L931.1414157161777, 429.0"/>
<path fill="none" stroke="#000000" stroke-width="1.0" d="M 951.6976706825881, 429.0L971.2490383057395, 429.0"/>
<path fill="none" stroke="#000000" stroke-width="1.0" d="M 982.3047971863637, 429.0L988.4173455780577, 429.0"/>
<path fill="none" stroke="#000000" stroke-width="1.0" d="M 989.8833222446751, 429.0L994.4474043655288, 429.0"/>
<path fill="none" stroke="#000000" stroke-width="1.0" d="M 1034.3799986648182, 429.0L1041.0271894634068, 429.0"/>
<path fill="none" stroke="#000000" stroke-width="1.0" d="M 1046.0430830954456, 429.0L1067.0426530402908, 429.0"/>
<path fill="none" stroke="#000000" stroke-width="1.0" d="M 1101.6826568136921, 429.0L1104.1553845191115, 429.0"/>
<path fill="none" stroke="#000000" stroke-width="1.0" d="M 227.56520882222554, 435.0L391.2441533552054, 435.0"/>
<path fill="none" stroke="#000000" stroke-width="1.0" d="M 577.6972836797747, 435.0L680.9059144010199, 435.0"/>
<path fill="none" stroke="#000000" stroke-width="1.0" d="M 921.3547870053769, 435.0L932.9148687050051, 435.0"/>
<path fill="none" stroke="#000000" stroke-width="1.0" d="M 983.6700691348643, 435.0L986.9, 435.0"/>
<path fill="none" stroke="#000000" stroke-width="1.0" d="M 993.4238991885652, 435.0L995.876976125523, 435.0"/>
<path fill="none" stroke="#000000" stroke-width="1.0" d="M 1044.7941678197126, 435.0L1079.47313566773, 435.0"/>
<path fill="none" stroke="#000000" stroke-width="1.0" d="M 1108.626761571425, 435.0L1110.0369181520614, 435.0"/>
<path fill="none" stroke="#000000" stroke-width="1.0" d="M 229.3057638816957, 441.0L401.98704982071354, 441.0"/>
<path fill="none" stroke="#000000" stroke-width="1.0" d="M 579.865504890759, 441.0L679.2910003838358, 441.0"/>
<path fill="none" stroke="#000000" stroke-width="1.0" d="M 1054.745893771008, 441.0L1087.2621653544338, 441.0"/>
<path fill="none" stroke="#000000" stroke-width="1.0" d="M 1098.461918560348, 441.0L1104.446896773449, 441.0"/>
<path fill="none" stroke="#000000" stroke-width="1.0" d="M 1113.9582201203111, 441.0L1114.5113818471536, 441.0"/>
<path fill="none" stroke="#000000" stroke-width="1.0" d="M 234.42208603639457, 447.0L402.6067445606463, 447.0"/>
<path fill="none" stroke="#000000" stroke-width="1.0" d="M 582.5235894559556, 447.0L679.4805046041663, 447.0"/>
<path fill="none" stroke="#000000" stroke-width="1.0" d="M 934.1119484441891, 447.0L958.0770540627735, 447.0"/>
<path fill="none" stroke="#000000" stroke-width="1.0" d="M 1056.363473194937, 447.0L1088.4711355898098, 447.0"/>
<path fill="none" stroke="#000000" stroke-width="1.0" d="M 1121.3114067737342, 447.0L1123.1087254038207, 447.0"/>
<path fill="none" stroke="#000000" stroke-width="1.0" d="M 237.40515979048726, 453.0L400.5265307085142, 453.0"/>
<path fill="none" stroke="#000000" stroke-width="1.0" d="M 583.4611270167109, 453.0L681.1899664680035, 453.0"/>
<path fill="none" stroke="#000000" stroke-width="1.0" d="M 972.6980499574283, 453.0L980.1170646999431, 453.0"/>
<path fill="none" stroke="#000000" stroke-width="1.0" d="M 986.722023792769, 453.0L994.4403842011687, 453.0"/>
<path fill="none" stroke="#000000" stroke-width="1.0" d="M 1002.967028091417, 453.0L1011.5870250273205, 453.0"/>
<path fill="none" stroke="#000000" stroke-width="1.0" d="M 1063.2999701899514, 453.0L1072.5102616105646, 453.0"/>
<path fill="none" stroke="#000000" stroke-width="1.0" d="M 1085.1281597684338, 453.0L1092.0782634580312, 453.0"/>
<path fill="none" stroke="#000000" stroke-width="1.0" d="M 1123.2676258239212, 453.0L1124.7837310360112, 453.0"/>
<path fill="none" stroke="#000000" stroke-width="1.0" d="M 1130.0162713940845, 453.0L1131.2848210156956, 453.0"/>
<path fill="none" stroke="#000000" stroke-width="1.0" d="M 239.84685316430273, 459.0L396.30859343411004, 459.0"/>
<path fill="none" stroke="#000000" stroke-width="1.0" d="M 584.5652173913043, 459.0L683.9233253333132, 459.0"/>
<path fill="none" stroke="#000000" stroke-width="1.0" d="M 1091.2245582510989, 459.0L1098.4333855144362, 459.0"/>
<path fill="none" stroke="#000000" stroke-width="1.0" d="M 243.85741774790108, 465.0L392.6468280428096, 465.0"/>
<path fill="none" stroke="#000000" stroke-width="1.0" d="M 585.1692307692306, 465.0L684.5612096000002, 465.0"/>
<path fill="none" stroke="#000000" stroke-width="1.0" d="M 1066.8418827599337, 465.0L1069.2221469145115, 465.0"/>
<path fill="none" stroke="#000000" stroke-width="1.0" d="M 247.68178168993205, 471.0L388.1960599817194, 471.0"/>
<path fill="none" stroke="#000000" stroke-width="1.0" d="M 582.1192617857974, 471.0L685.2319883994857, 471.0"/>
<path fill="none" stroke="#000000" stroke-width="1.0" d="M 716.5, 471.0L719.295566555691, 471.0"/>
<path fill="none" stroke="#000000" stroke-width="1.0" d="M 1021.714205902724, 471.0L1042.9142110239075, 471.0"/>
<path fill="none" stroke="#000000" stroke-width="1.0" d="M 1064.730174801365, 471.0L1071.4025212591926, 471.0"/>
<path fill="none" stroke="#000000" stroke-width="1.0" d="M 250.9720528464984, 477.0L388.3725729601871, 477.0"/>
<path fill="none" stroke="#000000" stroke-width="1.0" d="M 579.6704210195644, 477.0L685.0684919131784, 477.0"/>
<path fill="none" stroke="#000000" stroke-width="1.0" d="M 711.6817043063227, 477.0L720.4881982454872, 477.0"/>
<path fill="none" stroke="#000000" stroke-width="1.0" d="M 1003.4351228276253, 477.0L1012.3621024516311, 477.0"/>
<path fill="none" stroke="#000000" stroke-width="1.0" d="M 1018.533176226242, 477.0L1040.2469406936875, 477.0"/>
<path fill="none" stroke="#000000" stroke-width="1.0" d="M 1063.6886637048547, 477.0L1075.354136029395, 477.0"/>
<path fill="none" stroke="#000000" stroke-width="1.0" d="M 259.63802015813866, 483.0L388.29395815932037, 483.0"/>
<path fill="none" stroke="#000000" stroke-width="1.0" d="M 578.2094644412754, 483.0L681.182673165421, 483.0"/>
<path fill="none" stroke="#000000" stroke-width="1.0" d="M 702.4136963309593, 483.0L719.2288036526816, 483.0"/>
<path fill="none" stroke="#000000" stroke-width="1.0" d="M 997.6936290247627, 483.0L1044.7998229936184, 483.0"/>
<path fill="none" stroke="#000000" stroke-width="1.0" d="M 1061.6953004281013, 483.0L1077.3686071512004, 483.0"/>
<path fill="none" stroke="#000000" stroke-width="1.0" d="M 1157.0824963311, 483.0L1158.598145393656, 483.0"/>
<path fill="none" stroke="#000000" stroke-width="1.0" d="M 1160.9, 483.0L1161.6141886108337, 483.0"/>
<path fill="none" stroke="#000000" stroke-width="1.0" d="M 267.8636724397414, 489.0L387.5060354373758, 489.0"/>
<path fill="none" stroke="#000000" stroke-width="1.0" d="M 578.6539866806626, 489.0L671.2810633438855, 489.0"/>
<path fill="none" stroke="#000000" stroke-width="1.0" d="M 698.5474930191147, 489.0L717.1979576630372, 489.0"/>
<path fill="none" stroke="#000000" stroke-width="1.0" d="M 989.5831704032139, 489.0L1053.712859292934, 489.0"/>
<path fill="none" stroke="#000000" stroke-width="1.0" d="M 1057.1078829710368, 489.0L1077.3766826403448, 489.0"/>
<path fill="none" stroke="#000000" stroke-width="1.0" d="M 1193.833377778555, 489.0L1196.7, 489.0"/>
<path fill="none" stroke="#000000" stroke-width="1.0" d="M 272.8834967495856, 495.0L386.19838018331643, 495.0"/>
<path fill="none" stroke="#000000" stroke-width="1.0" d="M 581.0833888719943, 495.0L666.3950455468964, 495.0"/>
<path fill="none" stroke="#000000" stroke-width="1.0" d="M 698.8463944591049, 495.0L715.0901769162992, 495.0"/>
<path fill="none" stroke="#000000" stroke-width="1.0" d="M 985.6502215942423, 495.0L1078.425382725263, 495.0"/>
<path fill="none" stroke="#000000" stroke-width="1.0" d="M 274.7607621878312, 501.0L384.3477599253589, 501.0"/>
<path fill="none" stroke="#000000" stroke-width="1.0" d="M 584.0904570786818, 501.0L661.6966187344024, 501.0"/>
<path fill="none" stroke="#000000" stroke-width="1.0" d="M 697.9083886392684, 501.0L713.076777101404, 501.0"/>
<path fill="none" stroke="#000000" stroke-width="1.0" d="M 972.4392553028077, 501.0L1082.95078587549, 501.0"/>
<path fill="none" stroke="#000000" stroke-width="1.0" d="M 1141.6924611518943, 501.0L1144.4238779594552, 501.0"/>
<path fill="none" stroke="#000000" stroke-width="1.0" d="M 1217.4731135668571, 501.0L1219.1644419729373, 501.0"/>
<path fill="none" stroke="#000000" stroke-width="1.0" d="M 275.1116937975663, 507.0L381.5903705974142, 507.0"/>
<path fill="none" stroke="#000000" stroke-width="1.0" d="M 586.4365396763061, 507.0L664.0176162295338, 507.0"/>
<path fill="none" stroke="#000000" stroke-width="1.0" d="M 694.6062150204975, 507.0L711.2724065117538, 507.0"/>
<path fill="none" stroke="#000000" stroke-width="1.0" d="M 957.774379339325, 507.0L1086.07095282246, 507.0"/>
<path fill="none" stroke="#000000" stroke-width="1.0" d="M 1146.8437743399438, 507.0L1149.569116887511, 507.0"/>
<path fill="none" stroke="#000000" stroke-width="1.0" d="M 275.0100930041763, 513.0L367.845691807092, 513.0"/>
<path fill="none" stroke="#000000" stroke-width="1.0" d="M 588.1849870274044, 513.0L664.5357775756087, 513.0"/>
<path fill="none" stroke="#000000" stroke-width="1.0" d="M 694.3260275747318, 513.0L709.6650199227455, 513.0"/>
<path fill="none" stroke="#000000" stroke-width="1.0" d="M 952.9530880189802, 513.0L1089.423280990356, 513.0"/>
<path fill="none" stroke="#000000" stroke-width="1.0" d="M 275.04256894627156, 519.0L358.19990141445857, 519.0"/>
<path fill="none" stroke="#000000" stroke-width="1.0" d="M 589.419779884059, 519.0L658.0097713132419, 519.0"/>
<path fill="none" stroke="#000000" stroke-width="1.0" d="M 695.9991729109744, 519.0L706.3509912464141, 519.0"/>
<path fill="none" stroke="#000000" stroke-width="1.0" d="M 952.4281305537103, 519.0L1093.626086956522, 519.0"/>
<path fill="none" stroke="#000000" stroke-width="1.0" d="M 275.20699222470796, 525.0L357.245680704009, 525.0"/>
<path fill="none" stroke="#000000" stroke-width="1.0" d="M 590.1797373812153, 525.0L653.4957247833211, 525.0"/>
<path fill="none" stroke="#000000" stroke-width="1.0" d="M 952.1815114143084, 525.0L1094.7722222222224, 525.0"/>
<path fill="none" stroke="#000000" stroke-width="1.0" d="M 275.5110760437073, 531.0L356.9463666583494, 531.0"/>
<path fill="none" stroke="#000000" stroke-width="1.0" d="M 592.0510720619214, 531.0L653.6428266603175, 531.0"/>
<path fill="none" stroke="#000000" stroke-width="1.0" d="M 951.5808955653956, 531.0L1093.8872650015167, 531.0"/>
<path fill="none" stroke="#000000" stroke-width="1.0" d="M 275.98047551584074, 537.0L353.95830163773456, 537.0"/>
<path fill="none" stroke="#000000" stroke-width="1.0" d="M 596.1591275910715, 537.0L648.1714931608656, 537.0"/>
<path fill="none" stroke="#000000" stroke-width="1.0" d="M 951.435135069329, 537.0L1092.1750079635676, 537.0"/>
<path fill="none" stroke="#000000" stroke-width="1.0" d="M 276.68006695449174, 543.0L352.33010665742677, 543.0"/>
<path fill="none" stroke="#000000" stroke-width="1.0" d="M 599.177984604881, 543.0L643.2798557889887, 543.0"/>
<path fill="none" stroke="#000000" stroke-width="1.0" d="M 952.3110879870646, 543.0L1089.017135725498, 543.0"/>
<path fill="none" stroke="#000000" stroke-width="1.0" d="M 277.73719165687066, 549.0L348.33231667806865, 549.0"/>
<path fill="none" stroke="#000000" stroke-width="1.0" d="M 601.8405346183117, 549.0L637.2500077345835, 549.0"/>
<path fill="none" stroke="#000000" stroke-width="1.0" d="M 951.9282501231793, 549.0L992.4667249199078, 549.0"/>
<path fill="none" stroke="#000000" stroke-width="1.0" d="M 1013.0138839620661, 549.0L1084.6005548481091, 549.0"/>
<path fill="none" stroke="#000000" stroke-width="1.0" d="M 278.4156775116248, 555.0L344.66106236628525, 555.0"/>
<path fill="none" stroke="#000000" stroke-width="1.0" d="M 602.3575665729016, 555.0L629.3986047652293, 555.0"/>
<path fill="none" stroke="#000000" stroke-width="1.0" d="M 948.4344553729338, 555.0L974.0206243914272, 555.0"/>
<path fill="none" stroke="#000000" stroke-width="1.0" d="M 1017.8057312931671, 555.0L1024.8494849108417, 555.0"/>
<path fill="none" stroke="#000000" stroke-width="1.0" d="M 1029.2097616665021, 555.0L1077.2189204702793, 555.0"/>
<path fill="none" stroke="#000000" stroke-width="1.0" d="M 278.4209618621161, 561.0L331.1194841644736, 561.0"/>
<path fill="none" stroke="#000000" stroke-width="1.0" d="M 1025.1478653121435, 561.0L1026.1014318723965, 561.0"/>
<path fill="none" stroke="#000000" stroke-width="1.0" d="M 1029.336657765678, 561.0L1072.2297367966069, 561.0"/>
<path fill="none" stroke="#000000" stroke-width="1.0" d="M 1151.8967249973684, 561.0L1152.7015102186356, 561.0"/>
<path fill="none" stroke="#000000" stroke-width="1.0" d="M 278.1235588477293, 567.0L334.54321543813967, 567.0"/>
<path fill="none" stroke="#000000" stroke-width="1.0" d="M 1030.8154326294261, 567.0L1066.0119168875385, 567.0"/>
<path fill="none" stroke="#000000" stroke-width="1.0" d="M 1152.424081434581, 567.0L1153.959964985217, 567.0"/>
<path fill="none" stroke="#000000" stroke-width="1.0" d="M 278.50434790462543, 573.0L332.0733052515647, 573.0"/>
<path fill="none" stroke="#000000" stroke-width="1.0" d="M 1032.057679691792, 573.0L1055.2362718940242, 573.0"/>
<path fill="none" stroke="#000000" stroke-width="1.0" d="M 1151.573436603874, 573.0L1157.5942768372888, 573.0"/>
<path fill="none" stroke="#000000" stroke-width="1.0" d="M 1160.6636534602155, 573.0L1161.823691931842, 573.0"/>
<path fill="none" stroke="#000000" stroke-width="1.0" d="M 280.0, 579.0L319.6456935483627, 579.0"/>
<path fill="none" stroke="#000000" stroke-width="1.0" d="M 1144.267974501845, 579.0L1155.6131216341787, 579.0"/>
<path fill="none" stroke="#000000" stroke-width="1.0" d="M 282.1755935256666, 585.0L311.1235158208312, 585.0"/>
<path fill="none" stroke="#000000" stroke-width="1.0" d="M 316.69284284674205, 585.0L318.7934486501968, 585.0"/>
<path fill="none" stroke="#000000" stroke-width="1.0" d="M 1134.5409601907531, 585.0L1135.2476770500973, 585.0"/>
<path fill="none" stroke="#000000" stroke-width="1.0" d="M 1142.9249277913968, 585.0L1147.7324212356775, 585.0"/>
<path fill="none" stroke="#000000" stroke-width="1.0" d="M 287.0496611901011, 591.0L316.1301226005826, 591.0"/>
<path fill="none" stroke="#000000" stroke-width="1.0" d="M 1037.051883820539, 591.0L1046.034540475047, 591.0"/>
<path fill="none" stroke="#000000" stroke-width="1.0" d="M 1125.563787057988, 591.0L1134.1451316741732, 591.0"/>
<path fill="none" stroke="#000000" stroke-width="1.0" d="M 288.8297680436244, 597.0L314.7463836072353, 597.0"/>
<path fill="none" stroke="#000000" stroke-width="1.0" d="M 1113.814226542631, 597.0L1125.3642638130043, 597.0"/>
<path fill="none" stroke="#000000" stroke-width="1.0" d="M 289.6659765170062, 603.0L311.3567653509612, 603.0"/>
<path fill="none" stroke="#000000" stroke-width="1.0" d="M 1102.0809627763547, 603.0L1115.512694921913, 603.0"/>
<path fill="none" stroke="#000000" stroke-width="1.0" d="M 289.095057770984, 609.0L314.9000000000003, 609.0"/>
<path fill="none" stroke="#000000" stroke-width="1.0" d="M 292.89319946652284, 615.0L317.0352843484052, 615.0"/>
<path fill="none" stroke="#000000" stroke-width="1.0" d="M 295.72791420393327, 621.0L314.68830156246753, 621.0"/>
<path fill="none" stroke="#000000" stroke-width="1.0" d="M 300.27180564030135, 627.0L314.69417069915914, 627.0"/>
<path fill="none" stroke="#000000" stroke-width="1.0" d="M 339.99546082758206, 627.0L343.7342114325668, 627.0"/>
<path fill="none" stroke="#000000" stroke-width="1.0" d="M 344.6306793874935, 627.0L348.76147158805077, 627.0"/>
<path fill="none" stroke="#000000" stroke-width="1.0" d="M 315.6632215623042, 633.0L319.2133499415763, 633.0"/>
<path fill="none" stroke="#000000" stroke-width="1.0" d="M 315.99199027238694, 639.0L329.4315953638777, 639.0"/>
</g>
</svg>