<?xml version="1.0" encoding="utf-8"?>
<!DOCTYPE svg PUBLIC "-//W3C//DTD SVG 1.1 Tiny//EN" "http://www.w3.org/Graphics/SVG/1.1/DTD/svg11-tiny.dtd">
<svg version="1.1" baseProfile="tiny" id="openrndr-svg" xmlns="http://www.w3.org/2000/svg" xmlns:xlink="http://www.w3.org/1999/xlink" x="0px" y="0px" width="1280px" height="720px"><g >
<path fill="none" stroke="#000000" stroke-width="1.0" d="M 0.0, 6.0L1280.0, 6.0"/>
<path fill="none" stroke="#000000" stroke-width="1.0" d="M 0.0, 18.0L513.6081967213116, 18.0"/>
<path fill="none" stroke="#000000" stroke-width="1.0" d="M 528.2363986309603, 18.0L591.4822072609597, 18.0"/>
<path fill="none" stroke="#000000" stroke-width="1.0" d="M 612.8988299905873, 18.0L664.4002473932335, 18.0"/>
<path fill="none" stroke="#000000" stroke-width="1.0" d="M 690.6643742717647, 18.0L749.956, 18.0"/>
<path fill="none" stroke="#000000" stroke-width="1.0" d="M 754.4744680851065, 18.0L1280.0, 18.0"/>
<path fill="none" stroke="#000000" stroke-width="1.0" d="M 0.0, 30.0L432.98521486833704, 30.0"/>
<path fill="none" stroke="#000000" stroke-width="1.0" d="M 439.5214086796834, 30.0L445.93892007016086, 30.0"/>
<path fill="none" stroke="#000000" stroke-width="1.0" d="M 489.3126946107785, 30.0L522.0391752659292, 30.0"/>
<path fill="none" stroke="#000000" stroke-width="1.0" d="M 531.0257404737856, 30.0L594.1148456139451, 30.0"/>
<path fill="none" stroke="#000000" stroke-width="1.0" d="M 609.5495287246132, 30.0L668.9130885140866, 30.0"/>
<path fill="none" stroke="#000000" stroke-width="1.0" d="M 684.7723258696553, 30.0L761.7790902697727, 30.0"/>
<path fill="none" stroke="#000000" stroke-width="1.0" d="M 779.6338361213848, 30.0L784.9000000000001, 30.0"/>
<path fill="none" stroke="#000000" stroke-width="1.0" d="M 820.0914893617022, 30.0L1280.0, 30.0"/>
<path fill="none" stroke="#000000" stroke-width="1.0" d="M 0.0, 42.0L434.4104302625492, 42.0"/>
<path fill="none" stroke="#000000" stroke-width="1.0" d="M 444.1467714320464, 42.0L475.7610778443115, 42.0"/>
<path fill="none" stroke="#000000" stroke-width="1.0" d="M 491.43964071856294, 42.0L528.7035676135913, 42.0"/>
<path fill="none" stroke="#000000" stroke-width="1.0" d="M 533.0400000000002, 42.0L593.9349206349207, 42.0"/>
<path fill="none" stroke="#000000" stroke-width="1.0" d="M 609.318345323741, 42.0L668.7363309352518, 42.0"/>
<path fill="none" stroke="#000000" stroke-width="1.0" d="M 684.5587301587302, 42.0L760.6632047477746, 42.0"/>
<path fill="none" stroke="#000000" stroke-width="1.0" d="M 776.6800000000002, 42.0L816.5347955986194, 42.0"/>
<path fill="none" stroke="#000000" stroke-width="1.0" d="M 825.9142701722567, 42.0L1280.0, 42.0"/>
<path fill="none" stroke="#000000" stroke-width="1.0" d="M 0.0, 54.0L435.57917936597687, 54.0"/>
<path fill="none" stroke="#000000" stroke-width="1.0" d="M 441.7330935636131, 54.0L477.8880239520959, 54.0"/>
<path fill="none" stroke="#000000" stroke-width="1.0" d="M 493.56658682634736, 54.0L593.7444444444444, 54.0"/>
<path fill="none" stroke="#000000" stroke-width="1.0" d="M 609.1025179856115, 54.0L668.5205035971222, 54.0"/>
<path fill="none" stroke="#000000" stroke-width="1.0" d="M 684.3682539682541, 54.0L758.4554896142433, 54.0"/>
<path fill="none" stroke="#000000" stroke-width="1.0" d="M 774.4670129870132, 54.0L818.8596590954419, 54.0"/>
<path fill="none" stroke="#000000" stroke-width="1.0" d="M 824.5667395007879, 54.0L1280.0, 54.0"/>
<path fill="none" stroke="#000000" stroke-width="1.0" d="M 0.0, 66.0L480.0149700598804, 66.0"/>
<path fill="none" stroke="#000000" stroke-width="1.0" d="M 495.6935329341318, 66.0L593.5539682539683, 66.0"/>
<path fill="none" stroke="#000000" stroke-width="1.0" d="M 684.1777777777778, 66.0L756.2477744807122, 66.0"/>
<path fill="none" stroke="#000000" stroke-width="1.0" d="M 772.254025974026, 66.0L1280.0, 66.0"/>
<path fill="none" stroke="#000000" stroke-width="1.0" d="M 0.0, 78.0L482.1419161676648, 78.0"/>
<path fill="none" stroke="#000000" stroke-width="1.0" d="M 497.8204790419163, 78.0L593.3634920634921, 78.0"/>
<path fill="none" stroke="#000000" stroke-width="1.0" d="M 608.9052631578948, 78.0L668.3228070175438, 78.0"/>
<path fill="none" stroke="#000000" stroke-width="1.0" d="M 683.9873015873015, 78.0L754.0400593471811, 78.0"/>
<path fill="none" stroke="#000000" stroke-width="1.0" d="M 810.8426829268294, 78.0L1280.0, 78.0"/>
<path fill="none" stroke="#000000" stroke-width="1.0" d="M 0.0, 90.0L484.26886227544924, 90.0"/>
<path fill="none" stroke="#000000" stroke-width="1.0" d="M 499.94742514970073, 90.0L593.1730158730159, 90.0"/>
<path fill="none" stroke="#000000" stroke-width="1.0" d="M 608.6947368421053, 90.0L668.1122807017543, 90.0"/>
<path fill="none" stroke="#000000" stroke-width="1.0" d="M 683.7968253968254, 90.0L751.8323442136499, 90.0"/>
<path fill="none" stroke="#000000" stroke-width="1.0" d="M 767.8213836477988, 90.0L800.9662621116294, 90.0"/>
<path fill="none" stroke="#000000" stroke-width="1.0" d="M 808.6475609756098, 90.0L1280.0, 90.0"/>
<path fill="none" stroke="#000000" stroke-width="1.0" d="M 0.0, 102.0L486.39580838323366, 102.0"/>
<path fill="none" stroke="#000000" stroke-width="1.0" d="M 502.07437125748515, 102.0L592.9815935625923, 102.0"/>
<path fill="none" stroke="#000000" stroke-width="1.0" d="M 608.4897144057269, 102.0L667.9017543859649, 102.0"/>
<path fill="none" stroke="#000000" stroke-width="1.0" d="M 683.6063492063493, 102.0L749.6246290801188, 102.0"/>
<path fill="none" stroke="#000000" stroke-width="1.0" d="M 765.6327044025157, 102.0L1280.0, 102.0"/>
<path fill="none" stroke="#000000" stroke-width="1.0" d="M 0.0, 114.0L488.522754491018, 114.0"/>
<path fill="none" stroke="#000000" stroke-width="1.0" d="M 504.20596179773827, 114.0L590.4906395404686, 114.0"/>
<path fill="none" stroke="#000000" stroke-width="1.0" d="M 610.4565932460188, 114.0L666.17181029048, 114.0"/>
<path fill="none" stroke="#000000" stroke-width="1.0" d="M 684.7003878303082, 114.0L747.3426137734518, 114.0"/>
<path fill="none" stroke="#000000" stroke-width="1.0" d="M 763.4738658425969, 114.0L1280.0, 114.0"/>
<path fill="none" stroke="#000000" stroke-width="1.0" d="M 0.0, 126.0L489.2483040278412, 126.0"/>
<path fill="none" stroke="#000000" stroke-width="1.0" d="M 524.7102040816328, 126.0L727.5938775510205, 126.0"/>
<path fill="none" stroke="#000000" stroke-width="1.0" d="M 765.6000000000001, 126.0L809.2511496747891, 126.0"/>
<path fill="none" stroke="#000000" stroke-width="1.0" d="M 818.347388860505, 126.0L1280.0, 126.0"/>
<path fill="none" stroke="#000000" stroke-width="1.0" d="M 0.0, 138.0L475.2795918367349, 138.0"/>
<path fill="none" stroke="#000000" stroke-width="1.0" d="M 482.24157303370816, 138.0L783.8922077922078, 138.0"/>
<path fill="none" stroke="#000000" stroke-width="1.0" d="M 813.3619687477683, 138.0L1280.0, 138.0"/>
<path fill="none" stroke="#000000" stroke-width="1.0" d="M 0.0, 150.0L1280.0, 150.0"/>
<path fill="none" stroke="#000000" stroke-width="1.0" d="M 0.0, 162.0L595.9653061224487, 162.0"/>
<path fill="none" stroke="#000000" stroke-width="1.0" d="M 608.994117647059, 162.0L657.6117647058825, 162.0"/>
<path fill="none" stroke="#000000" stroke-width="1.0" d="M 671.4258064516131, 162.0L1280.0, 162.0"/>
<path fill="none" stroke="#000000" stroke-width="1.0" d="M 0.0, 174.0L494.2777777777775, 174.0"/>
<path fill="none" stroke="#000000" stroke-width="1.0" d="M 535.4647058823532, 174.0L583.9600815779966, 174.0"/>
<path fill="none" stroke="#000000" stroke-width="1.0" d="M 596.1443376282771, 174.0L672.2348294125594, 174.0"/>
<path fill="none" stroke="#000000" stroke-width="1.0" d="M 691.1777070063696, 174.0L738.5294117647061, 174.0"/>
<path fill="none" stroke="#000000" stroke-width="1.0" d="M 772.7142857142857, 174.0L1280.0, 174.0"/>
<path fill="none" stroke="#000000" stroke-width="1.0" d="M 0.0, 186.0L505.43375818565005, 186.0"/>
<path fill="none" stroke="#000000" stroke-width="1.0" d="M 522.0193763733029, 186.0L587.6419869435201, 186.0"/>
<path fill="none" stroke="#000000" stroke-width="1.0" d="M 596.1731625554689, 186.0L673.9281615402357, 186.0"/>
<path fill="none" stroke="#000000" stroke-width="1.0" d="M 699.1522292993632, 186.0L754.3431102577404, 186.0"/>
<path fill="none" stroke="#000000" stroke-width="1.0" d="M 764.7360681395885, 186.0L1280.0, 186.0"/>
<path fill="none" stroke="#000000" stroke-width="1.0" d="M 0.0, 198.0L507.39761904761934, 198.0"/>
<path fill="none" stroke="#000000" stroke-width="1.0" d="M 523.2039062500003, 198.0L589.5182135518689, 198.0"/>
<path fill="none" stroke="#000000" stroke-width="1.0" d="M 597.2123215053846, 198.0L672.5470588235295, 198.0"/>
<path fill="none" stroke="#000000" stroke-width="1.0" d="M 680.0190140845071, 198.0L688.5490374873355, 198.0"/>
<path fill="none" stroke="#000000" stroke-width="1.0" d="M 707.1267515923569, 198.0L753.976638001661, 198.0"/>
<path fill="none" stroke="#000000" stroke-width="1.0" d="M 762.1407749407373, 198.0L839.7124485975687, 198.0"/>
<path fill="none" stroke="#000000" stroke-width="1.0" d="M 858.8440677966101, 198.0L1280.0, 198.0"/>
<path fill="none" stroke="#000000" stroke-width="1.0" d="M 0.0, 210.0L371.84167374379166, 210.0"/>
<path fill="none" stroke="#000000" stroke-width="1.0" d="M 390.2851078837654, 210.0L399.81590269021376, 210.0"/>
<path fill="none" stroke="#000000" stroke-width="1.0" d="M 433.8223135713489, 210.0L508.82619047619073, 210.0"/>
<path fill="none" stroke="#000000" stroke-width="1.0" d="M 524.6101562500003, 210.0L590.9969696969699, 210.0"/>
<path fill="none" stroke="#000000" stroke-width="1.0" d="M 598.5525179856116, 210.0L671.1352941176472, 210.0"/>
<path fill="none" stroke="#000000" stroke-width="1.0" d="M 678.5823943661973, 210.0L696.3423505572442, 210.0"/>
<path fill="none" stroke="#000000" stroke-width="1.0" d="M 715.1012738853505, 210.0L752.9318133396843, 210.0"/>
<path fill="none" stroke="#000000" stroke-width="1.0" d="M 760.4009447595724, 210.0L840.263067421381, 210.0"/>
<path fill="none" stroke="#000000" stroke-width="1.0" d="M 857.4560741988976, 210.0L873.7611856328825, 210.0"/>
<path fill="none" stroke="#000000" stroke-width="1.0" d="M 889.6859784371619, 210.0L1280.0, 210.0"/>
<path fill="none" stroke="#000000" stroke-width="1.0" d="M 0.0, 222.0L357.38722671154176, 222.0"/>
<path fill="none" stroke="#000000" stroke-width="1.0" d="M 367.6199679118079, 222.0L423.56345166436756, 222.0"/>
<path fill="none" stroke="#000000" stroke-width="1.0" d="M 447.0791306081902, 222.0L510.2547619047622, 222.0"/>
<path fill="none" stroke="#000000" stroke-width="1.0" d="M 526.0164062500003, 222.0L592.4052002659694, 222.0"/>
<path fill="none" stroke="#000000" stroke-width="1.0" d="M 599.922220937707, 222.0L669.7235294117647, 222.0"/>
<path fill="none" stroke="#000000" stroke-width="1.0" d="M 677.1457746478874, 222.0L704.135663627153, 222.0"/>
<path fill="none" stroke="#000000" stroke-width="1.0" d="M 723.0757961783441, 222.0L751.5474576271189, 222.0"/>
<path fill="none" stroke="#000000" stroke-width="1.0" d="M 758.9667630057804, 222.0L835.828173374613, 222.0"/>
<path fill="none" stroke="#000000" stroke-width="1.0" d="M 852.5544910179642, 222.0L894.5659765581132, 222.0"/>
<path fill="none" stroke="#000000" stroke-width="1.0" d="M 908.9079634316564, 222.0L1280.0, 222.0"/>
<path fill="none" stroke="#000000" stroke-width="1.0" d="M 0.0, 234.0L349.4483341161766, 234.0"/>
<path fill="none" stroke="#000000" stroke-width="1.0" d="M 360.96866514339536, 234.0L433.1242651423381, 234.0"/>
<path fill="none" stroke="#000000" stroke-width="1.0" d="M 454.4511628762459, 234.0L511.6833333333336, 234.0"/>
<path fill="none" stroke="#000000" stroke-width="1.0" d="M 527.4429321202672, 234.0L592.9295292040254, 234.0"/>
<path fill="none" stroke="#000000" stroke-width="1.0" d="M 600.6207437429838, 234.0L668.2795129941126, 234.0"/>
<path fill="none" stroke="#000000" stroke-width="1.0" d="M 675.7180125472662, 234.0L711.9289766970618, 234.0"/>
<path fill="none" stroke="#000000" stroke-width="1.0" d="M 731.0503184713377, 234.0L750.1237288135594, 234.0"/>
<path fill="none" stroke="#000000" stroke-width="1.0" d="M 757.5447976878613, 234.0L831.3328173374614, 234.0"/>
<path fill="none" stroke="#000000" stroke-width="1.0" d="M 848.0634730538923, 234.0L903.6876766595858, 234.0"/>
<path fill="none" stroke="#000000" stroke-width="1.0" d="M 919.137537168127, 234.0L1280.0, 234.0"/>
<path fill="none" stroke="#000000" stroke-width="1.0" d="M 0.0, 246.0L345.15290199763433, 246.0"/>
<path fill="none" stroke="#000000" stroke-width="1.0" d="M 358.87169632412747, 246.0L439.22733176073706, 246.0"/>
<path fill="none" stroke="#000000" stroke-width="1.0" d="M 458.6927747024179, 246.0L513.4554741475046, 246.0"/>
<path fill="none" stroke="#000000" stroke-width="1.0" d="M 529.988574508797, 246.0L591.7643483735221, 246.0"/>
<path fill="none" stroke="#000000" stroke-width="1.0" d="M 599.8067056391914, 246.0L666.6165562491867, 246.0"/>
<path fill="none" stroke="#000000" stroke-width="1.0" d="M 674.5141599380185, 246.0L719.7222897669707, 246.0"/>
<path fill="none" stroke="#000000" stroke-width="1.0" d="M 739.0248407643314, 246.0L748.7000000000003, 246.0"/>
<path fill="none" stroke="#000000" stroke-width="1.0" d="M 756.1228323699423, 246.0L826.8374613003097, 246.0"/>
<path fill="none" stroke="#000000" stroke-width="1.0" d="M 843.5724550898203, 246.0L907.5145551525535, 246.0"/>
<path fill="none" stroke="#000000" stroke-width="1.0" d="M 924.1162034974536, 246.0L1280.0, 246.0"/>
<path fill="none" stroke="#000000" stroke-width="1.0" d="M 0.0, 258.0L343.56263979444236, 258.0"/>
<path fill="none" stroke="#000000" stroke-width="1.0" d="M 359.7557706442115, 258.0L443.29935435730175, 258.0"/>
<path fill="none" stroke="#000000" stroke-width="1.0" d="M 460.630763971599, 258.0L516.9150701589974, 258.0"/>
<path fill="none" stroke="#000000" stroke-width="1.0" d="M 535.272535626482, 258.0L587.4624520443912, 258.0"/>
<path fill="none" stroke="#000000" stroke-width="1.0" d="M 596.4116836757626, 258.0L664.4650918743316, 258.0"/>
<path fill="none" stroke="#000000" stroke-width="1.0" d="M 673.8201672936326, 258.0L727.5156028368795, 258.0"/>
<path fill="none" stroke="#000000" stroke-width="1.0" d="M 754.7008670520232, 258.0L822.3421052631579, 258.0"/>
<path fill="none" stroke="#000000" stroke-width="1.0" d="M 839.0814371257485, 258.0L907.7859872403924, 258.0"/>
<path fill="none" stroke="#000000" stroke-width="1.0" d="M 925.57305291664, 258.0L1280.0, 258.0"/>
<path fill="none" stroke="#000000" stroke-width="1.0" d="M 0.0, 270.0L250.64330234508913, 270.0"/>
<path fill="none" stroke="#000000" stroke-width="1.0" d="M 283.8669271450171, 270.0L344.35035645106393, 270.0"/>
<path fill="none" stroke="#000000" stroke-width="1.0" d="M 362.99732361586814, 270.0L445.31545422621645, 270.0"/>
<path fill="none" stroke="#000000" stroke-width="1.0" d="M 460.19550421440806, 270.0L524.0432379312232, 270.0"/>
<path fill="none" stroke="#000000" stroke-width="1.0" d="M 549.2097902115436, 270.0L572.7103305374546, 270.0"/>
<path fill="none" stroke="#000000" stroke-width="1.0" d="M 588.3095977639052, 270.0L647.6183673469388, 270.0"/>
<path fill="none" stroke="#000000" stroke-width="1.0" d="M 679.7716493727323, 270.0L735.3089159067883, 270.0"/>
<path fill="none" stroke="#000000" stroke-width="1.0" d="M 753.2789017341041, 270.0L817.8467492260063, 270.0"/>
<path fill="none" stroke="#000000" stroke-width="1.0" d="M 834.5904191616767, 270.0L905.2697453872784, 270.0"/>
<path fill="none" stroke="#000000" stroke-width="1.0" d="M 924.1189406971819, 270.0L985.9681363442058, 270.0"/>
<path fill="none" stroke="#000000" stroke-width="1.0" d="M 1016.4491184803167, 270.0L1280.0, 270.0"/>
<path fill="none" stroke="#000000" stroke-width="1.0" d="M 0.0, 282.0L239.6223576046907, 282.0"/>
<path fill="none" stroke="#000000" stroke-width="1.0" d="M 247.25116267035048, 282.0L347.5371534999656, 282.0"/>
<path fill="none" stroke="#000000" stroke-width="1.0" d="M 368.37704630054014, 282.0L444.7538732446603, 282.0"/>
<path fill="none" stroke="#000000" stroke-width="1.0" d="M 457.10738543595534, 282.0L548.2521407542716, 282.0"/>
<path fill="none" stroke="#000000" stroke-width="1.0" d="M 560.7896828816808, 282.0L743.1022289766971, 282.0"/>
<path fill="none" stroke="#000000" stroke-width="1.0" d="M 751.856936416185, 282.0L813.2976551638674, 282.0"/>
<path fill="none" stroke="#000000" stroke-width="1.0" d="M 830.0994011976047, 282.0L900.2019168374409, 282.0"/>
<path fill="none" stroke="#000000" stroke-width="1.0" d="M 919.958923130337, 282.0L974.1080201010268, 282.0"/>
<path fill="none" stroke="#000000" stroke-width="1.0" d="M 990.9593441954734, 282.0L1022.3814027106996, 282.0"/>
<path fill="none" stroke="#000000" stroke-width="1.0" d="M 1033.1902987708656, 282.0L1280.0, 282.0"/>
<path fill="none" stroke="#000000" stroke-width="1.0" d="M 0.0, 294.0L235.44853432480784, 294.0"/>
<path fill="none" stroke="#000000" stroke-width="1.0" d="M 245.67435223367994, 294.0L353.5307968880326, 294.0"/>
<path fill="none" stroke="#000000" stroke-width="1.0" d="M 376.7264254308546, 294.0L440.5219922208107, 294.0"/>
<path fill="none" stroke="#000000" stroke-width="1.0" d="M 450.7249935721443, 294.0L794.0778523489932, 294.0"/>
<path fill="none" stroke="#000000" stroke-width="1.0" d="M 828.2352403237117, 294.0L891.7077726729979, 294.0"/>
<path fill="none" stroke="#000000" stroke-width="1.0" d="M 912.8369618871582, 294.0L970.7274335034517, 294.0"/>
<path fill="none" stroke="#000000" stroke-width="1.0" d="M 987.1785157985222, 294.0L1026.4110542278718, 294.0"/>
<path fill="none" stroke="#000000" stroke-width="1.0" d="M 1036.527429759082, 294.0L1280.0, 294.0"/>
<path fill="none" stroke="#000000" stroke-width="1.0" d="M 0.0, 306.0L236.4365147677914, 306.0"/>
<path fill="none" stroke="#000000" stroke-width="1.0" d="M 253.18850391247227, 306.0L363.8680971204033, 306.0"/>
<path fill="none" stroke="#000000" stroke-width="1.0" d="M 391.4496755224584, 306.0L428.82472348108456, 306.0"/>
<path fill="none" stroke="#000000" stroke-width="1.0" d="M 439.3904712376767, 306.0L826.2120805369126, 306.0"/>
<path fill="none" stroke="#000000" stroke-width="1.0" d="M 844.8960270043008, 306.0L873.9215725834314, 306.0"/>
<path fill="none" stroke="#000000" stroke-width="1.0" d="M 900.1520649945455, 306.0L972.4309310455301, 306.0"/>
<path fill="none" stroke="#000000" stroke-width="1.0" d="M 990.415363770102, 306.0L1024.7087288770504, 306.0"/>
<path fill="none" stroke="#000000" stroke-width="1.0" d="M 1031.0191924404926, 306.0L1280.0, 306.0"/>
<path fill="none" stroke="#000000" stroke-width="1.0" d="M 0.0, 318.0L243.32419688055631, 318.0"/>
<path fill="none" stroke="#000000" stroke-width="1.0" d="M 320.50867725240767, 318.0L386.69644023620697, 318.0"/>
<path fill="none" stroke="#000000" stroke-width="1.0" d="M 414.8763013480941, 318.0L977.7062465430976, 318.0"/>
<path fill="none" stroke="#000000" stroke-width="1.0" d="M 997.1042695274492, 318.0L1280.0, 318.0"/>
<path fill="none" stroke="#000000" stroke-width="1.0" d="M 0.0, 330.0L308.52775405171127, 330.0"/>
<path fill="none" stroke="#000000" stroke-width="1.0" d="M 327.88049301125477, 330.0L941.228442430204, 330.0"/>
<path fill="none" stroke="#000000" stroke-width="1.0" d="M 947.9432972858209, 330.0L984.5242286570299, 330.0"/>
<path fill="none" stroke="#000000" stroke-width="1.0" d="M 1003.525120067474, 330.0L1280.0, 330.0"/>
<path fill="none" stroke="#000000" stroke-width="1.0" d="M 0.0, 342.0L317.694561753975, 342.0"/>
<path fill="none" stroke="#000000" stroke-width="1.0" d="M 329.342795008493, 342.0L551.2769071601028, 342.0"/>
<path fill="none" stroke="#000000" stroke-width="1.0" d="M 562.8186704413642, 342.0L596.853180994106, 342.0"/>
<path fill="none" stroke="#000000" stroke-width="1.0" d="M 614.8200436124287, 342.0L685.6694049538777, 342.0"/>
<path fill="none" stroke="#000000" stroke-width="1.0" d="M 700.2510509501489, 342.0L713.2666666666668, 342.0"/>
<path fill="none" stroke="#000000" stroke-width="1.0" d="M 740.8078323990129, 342.0L936.1293819266315, 342.0"/>
<path fill="none" stroke="#000000" stroke-width="1.0" d="M 946.6285618289139, 342.0L989.4120370407464, 342.0"/>
<path fill="none" stroke="#000000" stroke-width="1.0" d="M 1007.2220099517283, 342.0L1280.0, 342.0"/>
<path fill="none" stroke="#000000" stroke-width="1.0" d="M 0.0, 354.0L318.0081549218017, 354.0"/>
<path fill="none" stroke="#000000" stroke-width="1.0" d="M 326.01778918639445, 354.0L540.4814009499047, 354.0"/>
<path fill="none" stroke="#000000" stroke-width="1.0" d="M 552.4324329341438, 354.0L608.4719468250851, 354.0"/>
<path fill="none" stroke="#000000" stroke-width="1.0" d="M 625.3602257871071, 354.0L684.8867241379309, 354.0"/>
<path fill="none" stroke="#000000" stroke-width="1.0" d="M 698.4674351585013, 354.0L733.8401855084371, 354.0"/>
<path fill="none" stroke="#000000" stroke-width="1.0" d="M 739.9879018957004, 354.0L936.8464017446815, 354.0"/>
<path fill="none" stroke="#000000" stroke-width="1.0" d="M 949.063825696192, 354.0L988.9180428464568, 354.0"/>
<path fill="none" stroke="#000000" stroke-width="1.0" d="M 1006.4105263273043, 354.0L1280.0, 354.0"/>
<path fill="none" stroke="#000000" stroke-width="1.0" d="M 0.0, 366.0L270.36504617574894, 366.0"/>
<path fill="none" stroke="#000000" stroke-width="1.0" d="M 283.50865957432575, 366.0L306.96544205985424, 366.0"/>
<path fill="none" stroke="#000000" stroke-width="1.0" d="M 317.0442518391914, 366.0L534.8948771736451, 366.0"/>
<path fill="none" stroke="#000000" stroke-width="1.0" d="M 548.5845502066004, 366.0L613.9171565771891, 366.0"/>
<path fill="none" stroke="#000000" stroke-width="1.0" d="M 630.6196433558423, 366.0L683.2522413793101, 366.0"/>
<path fill="none" stroke="#000000" stroke-width="1.0" d="M 696.8420749279538, 366.0L948.8997593148631, 366.0"/>
<path fill="none" stroke="#000000" stroke-width="1.0" d="M 960.4062303614278, 366.0L979.396269373502, 366.0"/>
<path fill="none" stroke="#000000" stroke-width="1.0" d="M 999.3978119363028, 366.0L1280.0, 366.0"/>
<path fill="none" stroke="#000000" stroke-width="1.0" d="M 0.0, 378.0L281.0314196867234, 378.0"/>
<path fill="none" stroke="#000000" stroke-width="1.0" d="M 296.26566432655204, 378.0L532.5755850742592, 378.0"/>
<path fill="none" stroke="#000000" stroke-width="1.0" d="M 547.9033714848476, 378.0L616.5590587864285, 378.0"/>
<path fill="none" stroke="#000000" stroke-width="1.0" d="M 632.6091886154553, 378.0L681.6177586206895, 378.0"/>
<path fill="none" stroke="#000000" stroke-width="1.0" d="M 695.2167146974062, 378.0L725.5756558714188, 378.0"/>
<path fill="none" stroke="#000000" stroke-width="1.0" d="M 731.3863636363635, 378.0L1280.0, 378.0"/>
<path fill="none" stroke="#000000" stroke-width="1.0" d="M 0.0, 390.0L532.9966767501608, 390.0"/>
<path fill="none" stroke="#000000" stroke-width="1.0" d="M 549.4563363617033, 390.0L617.2451771161027, 390.0"/>
<path fill="none" stroke="#000000" stroke-width="1.0" d="M 632.1230533401092, 390.0L679.9832758620688, 390.0"/>
<path fill="none" stroke="#000000" stroke-width="1.0" d="M 693.5566539923954, 390.0L719.8118377761928, 390.0"/>
<path fill="none" stroke="#000000" stroke-width="1.0" d="M 729.7499999999999, 390.0L1280.0, 390.0"/>
<path fill="none" stroke="#000000" stroke-width="1.0" d="M 0.0, 402.0L536.2129944040068, 402.0"/>
<path fill="none" stroke="#000000" stroke-width="1.0" d="M 553.3833566558275, 402.0L615.6282516158138, 402.0"/>
<path fill="none" stroke="#000000" stroke-width="1.0" d="M 628.8370596300083, 402.0L678.3487931034481, 402.0"/>
<path fill="none" stroke="#000000" stroke-width="1.0" d="M 691.9140684410645, 402.0L727.3499999999997, 402.0"/>
<path fill="none" stroke="#000000" stroke-width="1.0" d="M 728.1136363636363, 402.0L1280.0, 402.0"/>
<path fill="none" stroke="#000000" stroke-width="1.0" d="M 0.0, 414.0L543.1599155954431, 414.0"/>
<path fill="none" stroke="#000000" stroke-width="1.0" d="M 560.9469727073358, 414.0L610.2503543552968, 414.0"/>
<path fill="none" stroke="#000000" stroke-width="1.0" d="M 621.6394322760059, 414.0L676.651328723903, 414.0"/>
<path fill="none" stroke="#000000" stroke-width="1.0" d="M 690.2976641589888, 414.0L1280.0, 414.0"/>
<path fill="none" stroke="#000000" stroke-width="1.0" d="M 0.0, 426.0L557.2652903807488, 426.0"/>
<path fill="none" stroke="#000000" stroke-width="1.0" d="M 581.6668083405125, 426.0L591.1555890652019, 426.0"/>
<path fill="none" stroke="#000000" stroke-width="1.0" d="M 606.8049645821284, 426.0L661.8142857142856, 426.0"/>
<path fill="none" stroke="#000000" stroke-width="1.0" d="M 694.8969659677746, 426.0L1280.0, 426.0"/>
<path fill="none" stroke="#000000" stroke-width="1.0" d="M 0.0, 438.0L1280.0, 438.0"/>
<path fill="none" stroke="#000000" stroke-width="1.0" d="M 0.0, 450.0L1280.0, 450.0"/>
<path fill="none" stroke="#000000" stroke-width="1.0" d="M 0.0, 462.0L1280.0, 462.0"/>
<path fill="none" stroke="#000000" stroke-width="1.0" d="M 0.0, 474.0L584.3601611582335, 474.0"/>
<path fill="none" stroke="#000000" stroke-width="1.0" d="M 610.5737605599516, 474.0L626.2390691679639, 474.0"/>
<path fill="none" stroke="#000000" stroke-width="1.0" d="M 650.820582650679, 474.0L733.120874738459, 474.0"/>
<path fill="none" stroke="#000000" stroke-width="1.0" d="M 737.4628132436194, 474.0L1280.0, 474.0"/>
<path fill="none" stroke="#000000" stroke-width="1.0" d="M 0.0, 486.0L591.3731897959882, 486.0"/>
<path fill="none" stroke="#000000" stroke-width="1.0" d="M 606.7821596244132, 486.0L641.0108098500878, 486.0"/>
<path fill="none" stroke="#000000" stroke-width="1.0" d="M 659.1515620222378, 486.0L727.8570021252025, 486.0"/>
<path fill="none" stroke="#000000" stroke-width="1.0" d="M 759.7600000000004, 486.0L1280.0, 486.0"/>
<path fill="none" stroke="#000000" stroke-width="1.0" d="M 0.0, 498.0L591.7115774240231, 498.0"/>
<path fill="none" stroke="#000000" stroke-width="1.0" d="M 607.0638497652583, 498.0L643.5030231300877, 498.0"/>
<path fill="none" stroke="#000000" stroke-width="1.0" d="M 660.5301911079041, 498.0L722.3281440352577, 498.0"/>
<path fill="none" stroke="#000000" stroke-width="1.0" d="M 729.3832473875669, 498.0L766.8562814070352, 498.0"/>
<path fill="none" stroke="#000000" stroke-width="1.0" d="M 792.5600000000004, 498.0L1280.0, 498.0"/>
<path fill="none" stroke="#000000" stroke-width="1.0" d="M 0.0, 510.0L455.65271794871796, 510.0"/>
<path fill="none" stroke="#000000" stroke-width="1.0" d="M 468.2644554379447, 510.0L592.0068017366135, 510.0"/>
<path fill="none" stroke="#000000" stroke-width="1.0" d="M 607.3455399061033, 510.0L641.7775221020635, 510.0"/>
<path fill="none" stroke="#000000" stroke-width="1.0" d="M 656.8231605216837, 510.0L762.4542713567839, 510.0"/>
<path fill="none" stroke="#000000" stroke-width="1.0" d="M 778.8618090452262, 510.0L804.6878323588912, 510.0"/>
<path fill="none" stroke="#000000" stroke-width="1.0" d="M 822.1174315881424, 510.0L1280.0, 510.0"/>
<path fill="none" stroke="#000000" stroke-width="1.0" d="M 0.0, 522.0L456.3419487179487, 522.0"/>
<path fill="none" stroke="#000000" stroke-width="1.0" d="M 480.33964045748644, 522.0L592.302026049204, 522.0"/>
<path fill="none" stroke="#000000" stroke-width="1.0" d="M 607.6272300469484, 522.0L631.0808094387435, 522.0"/>
<path fill="none" stroke="#000000" stroke-width="1.0" d="M 644.0670271348743, 522.0L758.0522613065327, 522.0"/>
<path fill="none" stroke="#000000" stroke-width="1.0" d="M 774.4597989949749, 522.0L810.5004251794686, 522.0"/>
<path fill="none" stroke="#000000" stroke-width="1.0" d="M 818.4095503249418, 522.0L1280.0, 522.0"/>
<path fill="none" stroke="#000000" stroke-width="1.0" d="M 0.0, 534.0L457.03117948717954, 534.0"/>
<path fill="none" stroke="#000000" stroke-width="1.0" d="M 463.29579259759896, 534.0L470.687915407855, 534.0"/>
<path fill="none" stroke="#000000" stroke-width="1.0" d="M 492.4098780334146, 534.0L592.5972503617944, 534.0"/>
<path fill="none" stroke="#000000" stroke-width="1.0" d="M 607.8797794117647, 534.0L625.5389290386402, 534.0"/>
<path fill="none" stroke="#000000" stroke-width="1.0" d="M 644.8027644407573, 534.0L753.6502512562814, 534.0"/>
<path fill="none" stroke="#000000" stroke-width="1.0" d="M 770.0577889447236, 534.0L811.6615384615387, 534.0"/>
<path fill="none" stroke="#000000" stroke-width="1.0" d="M 815.0185988678818, 534.0L1280.0, 534.0"/>
<path fill="none" stroke="#000000" stroke-width="1.0" d="M 0.0, 546.0L457.7204102564102, 546.0"/>
<path fill="none" stroke="#000000" stroke-width="1.0" d="M 464.23138239033216, 546.0L482.36163141993956, 546.0"/>
<path fill="none" stroke="#000000" stroke-width="1.0" d="M 504.49407438389306, 546.0L592.8924746743849, 546.0"/>
<path fill="none" stroke="#000000" stroke-width="1.0" d="M 608.1886029411764, 546.0L633.7481997519081, 546.0"/>
<path fill="none" stroke="#000000" stroke-width="1.0" d="M 652.8184337070849, 546.0L749.2482412060301, 546.0"/>
<path fill="none" stroke="#000000" stroke-width="1.0" d="M 765.6557788944724, 546.0L883.7999999999998, 546.0"/>
<path fill="none" stroke="#000000" stroke-width="1.0" d="M 885.0018348623852, 546.0L1280.0, 546.0"/>
<path fill="none" stroke="#000000" stroke-width="1.0" d="M 0.0, 558.0L458.40964102564106, 558.0"/>
<path fill="none" stroke="#000000" stroke-width="1.0" d="M 465.28476251010943, 558.0L494.0353474320241, 558.0"/>
<path fill="none" stroke="#000000" stroke-width="1.0" d="M 516.6113734159128, 558.0L593.1876989869753, 558.0"/>
<path fill="none" stroke="#000000" stroke-width="1.0" d="M 608.4974264705883, 558.0L641.5931568713776, 558.0"/>
<path fill="none" stroke="#000000" stroke-width="1.0" d="M 661.6497063188928, 558.0L744.8462311557789, 558.0"/>
<path fill="none" stroke="#000000" stroke-width="1.0" d="M 761.2537688442211, 558.0L887.4300576401278, 558.0"/>
<path fill="none" stroke="#000000" stroke-width="1.0" d="M 897.0385321100916, 558.0L1280.0, 558.0"/>
<path fill="none" stroke="#000000" stroke-width="1.0" d="M 0.0, 570.0L459.0988717948718, 570.0"/>
<path fill="none" stroke="#000000" stroke-width="1.0" d="M 466.36371967653537, 570.0L472.38283582089565, 570.0"/>
<path fill="none" stroke="#000000" stroke-width="1.0" d="M 489.5333333333333, 570.0L506.0417006653455, 570.0"/>
<path fill="none" stroke="#000000" stroke-width="1.0" d="M 528.7825755260462, 570.0L592.1575348913135, 570.0"/>
<path fill="none" stroke="#000000" stroke-width="1.0" d="M 610.2975572652015, 570.0L650.768000518259, 570.0"/>
<path fill="none" stroke="#000000" stroke-width="1.0" d="M 672.7289083700833, 570.0L740.4442211055276, 570.0"/>
<path fill="none" stroke="#000000" stroke-width="1.0" d="M 756.8517587939699, 570.0L882.2509580610508, 570.0"/>
<path fill="none" stroke="#000000" stroke-width="1.0" d="M 909.075229357798, 570.0L1280.0, 570.0"/>
<path fill="none" stroke="#000000" stroke-width="1.0" d="M 0.0, 582.0L344.5144578313253, 582.0"/>
<path fill="none" stroke="#000000" stroke-width="1.0" d="M 353.7611203657848, 582.0L459.7881025641026, 582.0"/>
<path fill="none" stroke="#000000" stroke-width="1.0" d="M 467.1501996630482, 582.0L517.8219648110797, 582.0"/>
<path fill="none" stroke="#000000" stroke-width="1.0" d="M 556.1999999999999, 582.0L735.7235974290081, 582.0"/>
<path fill="none" stroke="#000000" stroke-width="1.0" d="M 752.4623050124833, 582.0L870.3411405295315, 582.0"/>
<path fill="none" stroke="#000000" stroke-width="1.0" d="M 892.1048438272239, 582.0L1280.0, 582.0"/>
<path fill="none" stroke="#000000" stroke-width="1.0" d="M 0.0, 594.0L333.6710843373494, 594.0"/>
<path fill="none" stroke="#000000" stroke-width="1.0" d="M 343.6185953613616, 594.0L357.27699215065616, 594.0"/>
<path fill="none" stroke="#000000" stroke-width="1.0" d="M 367.7227272727273, 594.0L460.4773333333333, 594.0"/>
<path fill="none" stroke="#000000" stroke-width="1.0" d="M 468.48584531434693, 594.0L520.4085003446214, 594.0"/>
<path fill="none" stroke="#000000" stroke-width="1.0" d="M 534.6647058823529, 594.0L727.3815028901734, 594.0"/>
<path fill="none" stroke="#000000" stroke-width="1.0" d="M 751.5418056374742, 594.0L858.3900203665986, 594.0"/>
<path fill="none" stroke="#000000" stroke-width="1.0" d="M 880.1568527918781, 594.0L1280.0, 594.0"/>
<path fill="none" stroke="#000000" stroke-width="1.0" d="M 0.0, 606.0L322.8277108433735, 606.0"/>
<path fill="none" stroke="#000000" stroke-width="1.0" d="M 331.24375, 606.0L461.1026116092663, 606.0"/>
<path fill="none" stroke="#000000" stroke-width="1.0" d="M 469.9468427830251, 606.0L760.3988439306356, 606.0"/>
<path fill="none" stroke="#000000" stroke-width="1.0" d="M 762.895652173913, 606.0L846.4389002036659, 606.0"/>
<path fill="none" stroke="#000000" stroke-width="1.0" d="M 875.208333333333, 606.0L937.34621005779, 606.0"/>
<path fill="none" stroke="#000000" stroke-width="1.0" d="M 945.1219512195121, 606.0L1280.0, 606.0"/>
<path fill="none" stroke="#000000" stroke-width="1.0" d="M 0.0, 618.0L311.9843373493976, 618.0"/>
<path fill="none" stroke="#000000" stroke-width="1.0" d="M 322.21098743183245, 618.0L371.6712102067133, 618.0"/>
<path fill="none" stroke="#000000" stroke-width="1.0" d="M 381.475, 618.0L460.1171261962864, 618.0"/>
<path fill="none" stroke="#000000" stroke-width="1.0" d="M 483.53190184049083, 618.0L834.487780040733, 618.0"/>
<path fill="none" stroke="#000000" stroke-width="1.0" d="M 856.4999999999999, 618.0L877.1245238095238, 618.0"/>
<path fill="none" stroke="#000000" stroke-width="1.0" d="M 887.2369047619045, 618.0L939.3885448546206, 618.0"/>
<path fill="none" stroke="#000000" stroke-width="1.0" d="M 957.1585365853656, 618.0L1280.0, 618.0"/>
<path fill="none" stroke="#000000" stroke-width="1.0" d="M 0.0, 630.0L301.1409638554217, 630.0"/>
<path fill="none" stroke="#000000" stroke-width="1.0" d="M 334.7475285171103, 630.0L369.54014972536294, 630.0"/>
<path fill="none" stroke="#000000" stroke-width="1.0" d="M 394.7607142857143, 630.0L414.88571428571436, 630.0"/>
<path fill="none" stroke="#000000" stroke-width="1.0" d="M 420.6763699148039, 630.0L451.58000000000004, 630.0"/>
<path fill="none" stroke="#000000" stroke-width="1.0" d="M 457.8386503067485, 630.0L809.9273556231002, 630.0"/>
<path fill="none" stroke="#000000" stroke-width="1.0" d="M 844.4999999999998, 630.0L889.1530952380951, 630.0"/>
<path fill="none" stroke="#000000" stroke-width="1.0" d="M 899.2654761904759, 630.0L928.2263959390863, 630.0"/>
<path fill="none" stroke="#000000" stroke-width="1.0" d="M 951.1891348424292, 630.0L960.9517068002258, 630.0"/>
<path fill="none" stroke="#000000" stroke-width="1.0" d="M 969.1951219512192, 630.0L1280.0, 630.0"/>
<path fill="none" stroke="#000000" stroke-width="1.0" d="M 0.0, 642.0L324.9455337690631, 642.0"/>
<path fill="none" stroke="#000000" stroke-width="1.0" d="M 348.0250950570343, 642.0L358.90500000000003, 642.0"/>
<path fill="none" stroke="#000000" stroke-width="1.0" d="M 368.48181818181814, 642.0L419.07468127890223, 642.0"/>
<path fill="none" stroke="#000000" stroke-width="1.0" d="M 429.4720235843979, 642.0L822.0003039513676, 642.0"/>
<path fill="none" stroke="#000000" stroke-width="1.0" d="M 835.1186420294007, 642.0L901.1816666666667, 642.0"/>
<path fill="none" stroke="#000000" stroke-width="1.0" d="M 911.2940476190474, 642.0L916.28730964467, 642.0"/>
<path fill="none" stroke="#000000" stroke-width="1.0" d="M 938.537804878049, 642.0L1280.0, 642.0"/>
<path fill="none" stroke="#000000" stroke-width="1.0" d="M 0.0, 654.0L338.22657952069704, 654.0"/>
<path fill="none" stroke="#000000" stroke-width="1.0" d="M 361.4013824884794, 654.0L419.9635224899178, 654.0"/>
<path fill="none" stroke="#000000" stroke-width="1.0" d="M 431.1957278481012, 654.0L834.0732522796352, 654.0"/>
<path fill="none" stroke="#000000" stroke-width="1.0" d="M 841.235422148061, 654.0L904.5999999999999, 654.0"/>
<path fill="none" stroke="#000000" stroke-width="1.0" d="M 926.6109756097561, 654.0L1280.0, 654.0"/>
<path fill="none" stroke="#000000" stroke-width="1.0" d="M 0.0, 666.0L351.50762527233104, 666.0"/>
<path fill="none" stroke="#000000" stroke-width="1.0" d="M 374.673271889401, 666.0L412.05731656457317, 666.0"/>
<path fill="none" stroke="#000000" stroke-width="1.0" d="M 420.3539556962025, 666.0L892.5999999999999, 666.0"/>
<path fill="none" stroke="#000000" stroke-width="1.0" d="M 914.6841463414634, 666.0L1280.0, 666.0"/>
<path fill="none" stroke="#000000" stroke-width="1.0" d="M 0.0, 678.0L364.7886710239651, 678.0"/>
<path fill="none" stroke="#000000" stroke-width="1.0" d="M 388.5006491629922, 678.0L400.1833871148976, 678.0"/>
<path fill="none" stroke="#000000" stroke-width="1.0" d="M 409.51218354430375, 678.0L858.1008902077151, 678.0"/>
<path fill="none" stroke="#000000" stroke-width="1.0" d="M 865.9288866029578, 678.0L880.3733607363379, 678.0"/>
<path fill="none" stroke="#000000" stroke-width="1.0" d="M 902.7573170731707, 678.0L1280.0, 678.0"/>
<path fill="none" stroke="#000000" stroke-width="1.0" d="M 0.0, 690.0L377.7709847282007, 690.0"/>
<path fill="none" stroke="#000000" stroke-width="1.0" d="M 398.6704113924051, 690.0L870.1364985163204, 690.0"/>
<path fill="none" stroke="#000000" stroke-width="1.0" d="M 891.140704402187, 690.0L1280.0, 690.0"/>
<path fill="none" stroke="#000000" stroke-width="1.0" d="M 0.0, 702.0L379.50269466317144, 702.0"/>
<path fill="none" stroke="#000000" stroke-width="1.0" d="M 387.8286392405063, 702.0L882.1721068249258, 702.0"/>
<path fill="none" stroke="#000000" stroke-width="1.0" d="M 890.4072832472837, 702.0L1280.0, 702.0"/>
<path fill="none" stroke="#000000" stroke-width="1.0" d="M 0.0, 714.0L1280.0, 714.0"/>
</g>
</svg>