<?xml version="1.0" encoding="utf-8"?>
<!DOCTYPE svg PUBLIC "-//W3C//DTD SVG 1.1 Tiny//EN" "http://www.w3.org/Graphics/SVG/1.1/DTD/svg11-tiny.dtd">
<svg version="1.1" baseProfile="tiny" id="openrndr-svg" xmlns="http://www.w3.org/2000/svg" xmlns:xlink="http://www.w3.org/1999/xlink" x="0px" y="0px" width="1280px" height="720px"><g >
<path fill="none" stroke="#000000" stroke-width="1.0" d="M 0.0, 12.0L523.3403839996764, 12.0"/>
<path fill="none" stroke="#000000" stroke-width="1.0" d="M 527.0262228320432, 12.0L578.5549019607843, 12.0"/>
<path fill="none" stroke="#000000" stroke-width="1.0" d="M 624.8705882352941, 12.0L654.0803921568628, 12.0"/>
<path fill="none" stroke="#000000" stroke-width="1.0" d="M 700.6, 12.0L1280.0, 12.0"/>
<path fill="none" stroke="#000000" stroke-width="1.0" d="M 0.0, 36.0L433.7474222097536, 36.0"/>
<path fill="none" stroke="#000000" stroke-width="1.0" d="M 451.95994123219, 36.0L474.6976047904193, 36.0"/>
<path fill="none" stroke="#000000" stroke-width="1.0" d="M 490.3761676646707, 36.0L525.9161572163706, 36.0"/>
<path fill="none" stroke="#000000" stroke-width="1.0" d="M 532.5259224025765, 36.0L594.0301587301587, 36.0"/>
<path fill="none" stroke="#000000" stroke-width="1.0" d="M 609.4262589928057, 36.0L668.8442446043165, 36.0"/>
<path fill="none" stroke="#000000" stroke-width="1.0" d="M 684.6539682539683, 36.0L761.645868167459, 36.0"/>
<path fill="none" stroke="#000000" stroke-width="1.0" d="M 777.7864935064937, 36.0L811.2475080862748, 36.0"/>
<path fill="none" stroke="#000000" stroke-width="1.0" d="M 826.611989290461, 36.0L1280.0, 36.0"/>
<path fill="none" stroke="#000000" stroke-width="1.0" d="M 0.0, 60.0L478.95149700598813, 60.0"/>
<path fill="none" stroke="#000000" stroke-width="1.0" d="M 494.63005988023957, 60.0L593.6492063492063, 60.0"/>
<path fill="none" stroke="#000000" stroke-width="1.0" d="M 626.8199999999977, 60.0L668.4125899280575, 60.0"/>
<path fill="none" stroke="#000000" stroke-width="1.0" d="M 684.273015873016, 60.0L757.3516320474778, 60.0"/>
<path fill="none" stroke="#000000" stroke-width="1.0" d="M 773.3605194805195, 60.0L1280.0, 60.0"/>
<path fill="none" stroke="#000000" stroke-width="1.0" d="M 0.0, 84.0L483.20538922155697, 84.0"/>
<path fill="none" stroke="#000000" stroke-width="1.0" d="M 498.8839520958084, 84.0L593.2682539682539, 84.0"/>
<path fill="none" stroke="#000000" stroke-width="1.0" d="M 608.8, 84.0L668.217543859649, 84.0"/>
<path fill="none" stroke="#000000" stroke-width="1.0" d="M 683.8920634920635, 84.0L752.9362017804154, 84.0"/>
<path fill="none" stroke="#000000" stroke-width="1.0" d="M 768.9157232704403, 84.0L792.6185294937432, 84.0"/>
<path fill="none" stroke="#000000" stroke-width="1.0" d="M 809.7451219512196, 84.0L1280.0, 84.0"/>
<path fill="none" stroke="#000000" stroke-width="1.0" d="M 0.0, 108.0L487.4592814371259, 108.0"/>
<path fill="none" stroke="#000000" stroke-width="1.0" d="M 503.1378443113773, 108.0L592.6397088222599, 108.0"/>
<path fill="none" stroke="#000000" stroke-width="1.0" d="M 608.6463327140395, 108.0L667.6575121004857, 108.0"/>
<path fill="none" stroke="#000000" stroke-width="1.0" d="M 683.6457697446776, 108.0L748.5207715133532, 108.0"/>
<path fill="none" stroke="#000000" stroke-width="1.0" d="M 764.5383647798743, 108.0L1280.0, 108.0"/>
<path fill="none" stroke="#000000" stroke-width="1.0" d="M 0.0, 132.0L482.34436333837084, 132.0"/>
<path fill="none" stroke="#000000" stroke-width="1.0" d="M 515.9494382022474, 132.0L751.2428571428572, 132.0"/>
<path fill="none" stroke="#000000" stroke-width="1.0" d="M 786.3402140610028, 132.0L801.2079897085061, 132.0"/>
<path fill="none" stroke="#000000" stroke-width="1.0" d="M 815.8971599874519, 132.0L1280.0, 132.0"/>
<path fill="none" stroke="#000000" stroke-width="1.0" d="M 0.0, 156.0L1280.0, 156.0"/>
<path fill="none" stroke="#000000" stroke-width="1.0" d="M 0.0, 180.0L499.42279122739296, 180.0"/>
<path fill="none" stroke="#000000" stroke-width="1.0" d="M 522.7989864705903, 180.0L586.3187401491257, 180.0"/>
<path fill="none" stroke="#000000" stroke-width="1.0" d="M 595.8680079166891, 180.0L674.2155536632408, 180.0"/>
<path fill="none" stroke="#000000" stroke-width="1.0" d="M 695.1649681528664, 180.0L751.8096653353415, 180.0"/>
<path fill="none" stroke="#000000" stroke-width="1.0" d="M 775.0853864389114, 180.0L777.5318658227384, 180.0"/>
<path fill="none" stroke="#000000" stroke-width="1.0" d="M 779.7115384615386, 180.0L1280.0, 180.0"/>
<path fill="none" stroke="#000000" stroke-width="1.0" d="M 0.0, 204.0L385.1062657264171, 204.0"/>
<path fill="none" stroke="#000000" stroke-width="1.0" d="M 421.2351850146117, 204.0L508.111904761905, 204.0"/>
<path fill="none" stroke="#000000" stroke-width="1.0" d="M 523.9070312500003, 204.0L590.2749754360765, 204.0"/>
<path fill="none" stroke="#000000" stroke-width="1.0" d="M 597.8626270478449, 204.0L671.8411764705883, 204.0"/>
<path fill="none" stroke="#000000" stroke-width="1.0" d="M 679.3007042253522, 204.0L692.4456940222898, 204.0"/>
<path fill="none" stroke="#000000" stroke-width="1.0" d="M 711.1140127388537, 204.0L753.5131868764538, 204.0"/>
<path fill="none" stroke="#000000" stroke-width="1.0" d="M 761.2138675407843, 204.0L841.7736416508351, 204.0"/>
<path fill="none" stroke="#000000" stroke-width="1.0" d="M 874.8101694915254, 204.0L1280.0, 204.0"/>
<path fill="none" stroke="#000000" stroke-width="1.0" d="M 0.0, 228.0L352.8609872074168, 228.0"/>
<path fill="none" stroke="#000000" stroke-width="1.0" d="M 363.539136061589, 228.0L428.94936773015286, 228.0"/>
<path fill="none" stroke="#000000" stroke-width="1.0" d="M 451.2604379291832, 228.0L510.96904761904784, 228.0"/>
<path fill="none" stroke="#000000" stroke-width="1.0" d="M 526.7195312500003, 228.0L592.8313414546438, 228.0"/>
<path fill="none" stroke="#000000" stroke-width="1.0" d="M 600.4155943816396, 228.0L669.0176470588236, 228.0"/>
<path fill="none" stroke="#000000" stroke-width="1.0" d="M 676.4274647887324, 228.0L708.0323201621075, 228.0"/>
<path fill="none" stroke="#000000" stroke-width="1.0" d="M 727.0630573248409, 228.0L750.8355932203391, 228.0"/>
<path fill="none" stroke="#000000" stroke-width="1.0" d="M 758.255780346821, 228.0L833.5804953560372, 228.0"/>
<path fill="none" stroke="#000000" stroke-width="1.0" d="M 850.3089820359282, 228.0L899.9300090781979, 228.0"/>
<path fill="none" stroke="#000000" stroke-width="1.0" d="M 914.866113694017, 228.0L1280.0, 228.0"/>
<path fill="none" stroke="#000000" stroke-width="1.0" d="M 0.0, 252.0L344.04948135750783, 252.0"/>
<path fill="none" stroke="#000000" stroke-width="1.0" d="M 358.99064916522434, 252.0L441.494168250797, 252.0"/>
<path fill="none" stroke="#000000" stroke-width="1.0" d="M 459.9490657167984, 252.0L514.8970920431391, 252.0"/>
<path fill="none" stroke="#000000" stroke-width="1.0" d="M 532.153854769048, 252.0L590.1714380067339, 252.0"/>
<path fill="none" stroke="#000000" stroke-width="1.0" d="M 598.5282255325795, 252.0L665.633429450946, 252.0"/>
<path fill="none" stroke="#000000" stroke-width="1.0" d="M 674.0795201915328, 252.0L723.6189463019251, 252.0"/>
<path fill="none" stroke="#000000" stroke-width="1.0" d="M 743.0121019108283, 252.0L747.9881355932206, 252.0"/>
<path fill="none" stroke="#000000" stroke-width="1.0" d="M 755.4118497109828, 252.0L824.5897832817338, 252.0"/>
<path fill="none" stroke="#000000" stroke-width="1.0" d="M 841.3269461077845, 252.0L908.0318973623657, 252.0"/>
<path fill="none" stroke="#000000" stroke-width="1.0" d="M 925.2331951607014, 252.0L1280.0, 252.0"/>
<path fill="none" stroke="#000000" stroke-width="1.0" d="M 0.0, 276.0L244.03021508146134, 276.0"/>
<path fill="none" stroke="#000000" stroke-width="1.0" d="M 252.4324018525701, 276.0L279.3231606525654, 276.0"/>
<path fill="none" stroke="#000000" stroke-width="1.0" d="M 288.8466635507181, 276.0L345.6299871367588, 276.0"/>
<path fill="none" stroke="#000000" stroke-width="1.0" d="M 365.39530554466506, 276.0L445.4036027850402, 276.0"/>
<path fill="none" stroke="#000000" stroke-width="1.0" d="M 459.0110367788575, 276.0L531.068557229542, 276.0"/>
<path fill="none" stroke="#000000" stroke-width="1.0" d="M 580.3761547212229, 276.0L675.9571428571433, 276.0"/>
<path fill="none" stroke="#000000" stroke-width="1.0" d="M 688.7836734693878, 276.0L739.2055724417428, 276.0"/>
<path fill="none" stroke="#000000" stroke-width="1.0" d="M 752.5679190751446, 276.0L815.5990712074304, 276.0"/>
<path fill="none" stroke="#000000" stroke-width="1.0" d="M 832.3449101796407, 276.0L903.0673871745147, 276.0"/>
<path fill="none" stroke="#000000" stroke-width="1.0" d="M 922.3684052688621, 276.0L978.3668135723335, 276.0"/>
<path fill="none" stroke="#000000" stroke-width="1.0" d="M 997.2736663042751, 276.0L1014.8861830119475, 276.0"/>
<path fill="none" stroke="#000000" stroke-width="1.0" d="M 1026.4523183596052, 276.0L1280.0, 276.0"/>
<path fill="none" stroke="#000000" stroke-width="1.0" d="M 0.0, 300.0L235.30744300747503, 300.0"/>
<path fill="none" stroke="#000000" stroke-width="1.0" d="M 248.09424139259886, 300.0L357.97389757772606, 300.0"/>
<path fill="none" stroke="#000000" stroke-width="1.0" d="M 382.77141326646586, 300.0L436.1777762725034, 300.0"/>
<path fill="none" stroke="#000000" stroke-width="1.0" d="M 445.8685909727381, 300.0L810.144966442953, 300.0"/>
<path fill="none" stroke="#000000" stroke-width="1.0" d="M 832.1939106098025, 300.0L885.0612176683024, 300.0"/>
<path fill="none" stroke="#000000" stroke-width="1.0" d="M 907.5359329982555, 300.0L971.041249154347, 300.0"/>
<path fill="none" stroke="#000000" stroke-width="1.0" d="M 988.1314126286411, 300.0L1025.9826165289621, 300.0"/>
<path fill="none" stroke="#000000" stroke-width="1.0" d="M 1033.788961338909, 300.0L1280.0, 300.0"/>
<path fill="none" stroke="#000000" stroke-width="1.0" d="M 0.0, 324.0L251.55242638010918, 324.0"/>
<path fill="none" stroke="#000000" stroke-width="1.0" d="M 325.1274735447327, 324.0L943.9637275187972, 324.0"/>
<path fill="none" stroke="#000000" stroke-width="1.0" d="M 945.79375, 324.0L981.1452810204642, 324.0"/>
<path fill="none" stroke="#000000" stroke-width="1.0" d="M 1000.5286708826279, 324.0L1280.0, 324.0"/>
<path fill="none" stroke="#000000" stroke-width="1.0" d="M 0.0, 348.0L318.86599537648056, 348.0"/>
<path fill="none" stroke="#000000" stroke-width="1.0" d="M 328.28681783829427, 348.0L544.9760996819523, 348.0"/>
<path fill="none" stroke="#000000" stroke-width="1.0" d="M 556.3018679281139, 348.0L603.9442929371484, 348.0"/>
<path fill="none" stroke="#000000" stroke-width="1.0" d="M 620.9940176594395, 348.0L685.6391682303754, 348.0"/>
<path fill="none" stroke="#000000" stroke-width="1.0" d="M 699.2801152737751, 348.0L731.2991555924028, 348.0"/>
<path fill="none" stroke="#000000" stroke-width="1.0" d="M 740.3435374002397, 348.0L933.8648344870455, 348.0"/>
<path fill="none" stroke="#000000" stroke-width="1.0" d="M 947.238550637964, 348.0L990.0633184562746, 348.0"/>
<path fill="none" stroke="#000000" stroke-width="1.0" d="M 1007.4808561040621, 348.0L1280.0, 348.0"/>
<path fill="none" stroke="#000000" stroke-width="1.0" d="M 0.0, 372.0L275.5603916160169, 372.0"/>
<path fill="none" stroke="#000000" stroke-width="1.0" d="M 309.25861672588275, 372.0L533.3763205725497, 372.0"/>
<path fill="none" stroke="#000000" stroke-width="1.0" d="M 547.9287881560286, 372.0L615.5091034096301, 372.0"/>
<path fill="none" stroke="#000000" stroke-width="1.0" d="M 631.9575982516237, 372.0L682.4349999999998, 372.0"/>
<path fill="none" stroke="#000000" stroke-width="1.0" d="M 696.02939481268, 372.0L959.2734320213808, 372.0"/>
<path fill="none" stroke="#000000" stroke-width="1.0" d="M 991.5206003034339, 372.0L1280.0, 372.0"/>
<path fill="none" stroke="#000000" stroke-width="1.0" d="M 0.0, 396.0L534.2215317289211, 396.0"/>
<path fill="none" stroke="#000000" stroke-width="1.0" d="M 551.0760913417215, 396.0L616.782197392829, 396.0"/>
<path fill="none" stroke="#000000" stroke-width="1.0" d="M 630.8772100347048, 396.0L679.1660344827585, 396.0"/>
<path fill="none" stroke="#000000" stroke-width="1.0" d="M 692.73536121673, 396.0L723.2072334740333, 396.0"/>
<path fill="none" stroke="#000000" stroke-width="1.0" d="M 728.9318181818181, 396.0L1280.0, 396.0"/>
<path fill="none" stroke="#000000" stroke-width="1.0" d="M 0.0, 420.0L548.8195935252206, 420.0"/>
<path fill="none" stroke="#000000" stroke-width="1.0" d="M 567.4237326481465, 420.0L604.7186608006592, 420.0"/>
<path fill="none" stroke="#000000" stroke-width="1.0" d="M 615.7145921656278, 420.0L674.7042016231394, 420.0"/>
<path fill="none" stroke="#000000" stroke-width="1.0" d="M 690.0367676002979, 420.0L1280.0, 420.0"/>
<path fill="none" stroke="#000000" stroke-width="1.0" d="M 0.0, 444.0L1280.0, 444.0"/>
<path fill="none" stroke="#000000" stroke-width="1.0" d="M 0.0, 468.0L579.9909090909075, 468.0"/>
<path fill="none" stroke="#000000" stroke-width="1.0" d="M 636.9825088652466, 468.0L1280.0, 468.0"/>
<path fill="none" stroke="#000000" stroke-width="1.0" d="M 0.0, 492.0L591.5639652677278, 492.0"/>
<path fill="none" stroke="#000000" stroke-width="1.0" d="M 606.9230046948358, 492.0L642.881411624485, 492.0"/>
<path fill="none" stroke="#000000" stroke-width="1.0" d="M 660.4097650587996, 492.0L725.1027763306662, 492.0"/>
<path fill="none" stroke="#000000" stroke-width="1.0" d="M 734.283761569937, 492.0L757.5234242744457, 492.0"/>
<path fill="none" stroke="#000000" stroke-width="1.0" d="M 776.1600000000004, 492.0L1280.0, 492.0"/>
<path fill="none" stroke="#000000" stroke-width="1.0" d="M 0.0, 516.0L455.99733333333336, 516.0"/>
<path fill="none" stroke="#000000" stroke-width="1.0" d="M 474.30387608439617, 516.0L592.1544138929088, 516.0"/>
<path fill="none" stroke="#000000" stroke-width="1.0" d="M 607.4863849765259, 516.0L638.2974118558818, 516.0"/>
<path fill="none" stroke="#000000" stroke-width="1.0" d="M 652.0706431137073, 516.0L760.2532663316583, 516.0"/>
<path fill="none" stroke="#000000" stroke-width="1.0" d="M 776.6608040201005, 516.0L809.5120111528117, 516.0"/>
<path fill="none" stroke="#000000" stroke-width="1.0" d="M 820.2074319461565, 516.0L1280.0, 516.0"/>
<path fill="none" stroke="#000000" stroke-width="1.0" d="M 0.0, 540.0L457.3757948717949, 540.0"/>
<path fill="none" stroke="#000000" stroke-width="1.0" d="M 463.74319439361216, 540.0L476.5247734138972, 540.0"/>
<path fill="none" stroke="#000000" stroke-width="1.0" d="M 498.4490563302885, 540.0L592.7448625180897, 540.0"/>
<path fill="none" stroke="#000000" stroke-width="1.0" d="M 608.0341911764706, 540.0L629.9523880059711, 540.0"/>
<path fill="none" stroke="#000000" stroke-width="1.0" d="M 648.7557190500959, 540.0L751.4492462311558, 540.0"/>
<path fill="none" stroke="#000000" stroke-width="1.0" d="M 767.856783919598, 540.0L1280.0, 540.0"/>
<path fill="none" stroke="#000000" stroke-width="1.0" d="M 0.0, 564.0L458.7542564102564, 564.0"/>
<path fill="none" stroke="#000000" stroke-width="1.0" d="M 465.82703147981147, 564.0L485.2335820895523, 564.0"/>
<path fill="none" stroke="#000000" stroke-width="1.0" d="M 522.6888281736447, 564.0L593.1831376606889, 564.0"/>
<path fill="none" stroke="#000000" stroke-width="1.0" d="M 608.8156348867748, 564.0L645.8524526855219, 564.0"/>
<path fill="none" stroke="#000000" stroke-width="1.0" d="M 666.5974158837272, 564.0L742.6452261306532, 564.0"/>
<path fill="none" stroke="#000000" stroke-width="1.0" d="M 759.0527638190955, 564.0L887.0358670067818, 564.0"/>
<path fill="none" stroke="#000000" stroke-width="1.0" d="M 903.0568807339448, 564.0L1280.0, 564.0"/>
<path fill="none" stroke="#000000" stroke-width="1.0" d="M 0.0, 588.0L339.09277108433736, 588.0"/>
<path fill="none" stroke="#000000" stroke-width="1.0" d="M 361.3910852166458, 588.0L460.1327179487179, 588.0"/>
<path fill="none" stroke="#000000" stroke-width="1.0" d="M 467.8029721856773, 588.0L522.9836127058883, 588.0"/>
<path fill="none" stroke="#000000" stroke-width="1.0" d="M 547.3705882352941, 588.0L715.554347826087, 588.0"/>
<path fill="none" stroke="#000000" stroke-width="1.0" d="M 750.7589852488185, 588.0L864.365580448065, 588.0"/>
<path fill="none" stroke="#000000" stroke-width="1.0" d="M 886.1263959390863, 588.0L1280.0, 588.0"/>
<path fill="none" stroke="#000000" stroke-width="1.0" d="M 0.0, 612.0L317.4060240963855, 612.0"/>
<path fill="none" stroke="#000000" stroke-width="1.0" d="M 325.80625, 612.0L368.62631578947367, 612.0"/>
<path fill="none" stroke="#000000" stroke-width="1.0" d="M 374.8321428571429, 612.0L461.07075364359355, 612.0"/>
<path fill="none" stroke="#000000" stroke-width="1.0" d="M 471.54606278812673, 612.0L484.3469265078831, 612.0"/>
<path fill="none" stroke="#000000" stroke-width="1.0" d="M 485.68666666666667, 612.0L840.4633401221995, 612.0"/>
<path fill="none" stroke="#000000" stroke-width="1.0" d="M 862.4999999999999, 612.0L871.1102380952382, 612.0"/>
<path fill="none" stroke="#000000" stroke-width="1.0" d="M 881.2226190476188, 612.0L940.8699615265313, 612.0"/>
<path fill="none" stroke="#000000" stroke-width="1.0" d="M 951.1402439024388, 612.0L1280.0, 612.0"/>
<path fill="none" stroke="#000000" stroke-width="1.0" d="M 0.0, 636.0L296.12352941176465, 636.0"/>
<path fill="none" stroke="#000000" stroke-width="1.0" d="M 303.1584604121718, 636.0L318.1468375841578, 636.0"/>
<path fill="none" stroke="#000000" stroke-width="1.0" d="M 341.38631178707226, 636.0L364.355, 636.0"/>
<path fill="none" stroke="#000000" stroke-width="1.0" d="M 373.9885317385026, 636.0L416.9015173366837, 636.0"/>
<path fill="none" stroke="#000000" stroke-width="1.0" d="M 425.12429838233845, 636.0L815.9638297872339, 636.0"/>
<path fill="none" stroke="#000000" stroke-width="1.0" d="M 838.7316557828166, 636.0L895.167380952381, 636.0"/>
<path fill="none" stroke="#000000" stroke-width="1.0" d="M 905.2797619047616, 636.0L922.2568527918781, 636.0"/>
<path fill="none" stroke="#000000" stroke-width="1.0" d="M 944.5012195121951, 636.0L1280.0, 636.0"/>
<path fill="none" stroke="#000000" stroke-width="1.0" d="M 0.0, 660.0L344.8671023965141, 660.0"/>
<path fill="none" stroke="#000000" stroke-width="1.0" d="M 368.03732718894025, 660.0L416.8236473207517, 660.0"/>
<path fill="none" stroke="#000000" stroke-width="1.0" d="M 425.77484177215183, 660.0L898.5999999999999, 660.0"/>
<path fill="none" stroke="#000000" stroke-width="1.0" d="M 920.6475609756098, 660.0L1280.0, 660.0"/>
<path fill="none" stroke="#000000" stroke-width="1.0" d="M 0.0, 684.0L371.42919389978204, 684.0"/>
<path fill="none" stroke="#000000" stroke-width="1.0" d="M 404.0912974683544, 684.0L864.1186943620178, 684.0"/>
<path fill="none" stroke="#000000" stroke-width="1.0" d="M 896.7939024390244, 684.0L1280.0, 684.0"/>
<path fill="none" stroke="#000000" stroke-width="1.0" d="M 0.0, 708.0L375.451334013738, 708.0"/>
<path fill="none" stroke="#000000" stroke-width="1.0" d="M 382.407753164557, 708.0L888.1899109792284, 708.0"/>
<path fill="none" stroke="#000000" stroke-width="1.0" d="M 894.9999999999999, 708.0L1280.0, 708.0"/>
</g>
</svg>