<?xml version="1.0" encoding="utf-8"?>
<!DOCTYPE svg PUBLIC "-//W3C//DTD SVG 1.1 Tiny//EN" "http://www.w3.org/Graphics/SVG/1.1/DTD/svg11-tiny.dtd">
<svg version="1.1" baseProfile="tiny" id="openrndr-svg" xmlns="http://www.w3.org/2000/svg" xmlns:xlink="http://www.w3.org/1999/xlink" x="0px" y="0px" width="1280px" height="720px"><g >
<path fill="none" stroke="#000000" stroke-width="1.0" d="M 312.4276564288467, 120.0L343.4117647058825, 120.0"/>
<path fill="none" stroke="#000000" stroke-width="1.0" d="M 397.06747848588947, 120.0L492.5443721722704, 120.0"/>
<path fill="none" stroke="#000000" stroke-width="1.0" d="M 587.2000000000003, 120.0L589.2151515151518, 120.0"/>
<path fill="none" stroke="#000000" stroke-width="1.0" d="M 700.3013711923118, 120.0L717.5801048530772, 120.0"/>
<path fill="none" stroke="#000000" stroke-width="1.0" d="M 772.7434031044097, 120.0L830.2337994032596, 120.0"/>
<path fill="none" stroke="#000000" stroke-width="1.0" d="M 54.14218059791146, 168.0L262.360980945035, 168.0"/>
<path fill="none" stroke="#000000" stroke-width="1.0" d="M 310.5478975047582, 168.0L327.62498188369403, 168.0"/>
<path fill="none" stroke="#000000" stroke-width="1.0" d="M 398.6191755730788, 168.0L413.77080824035073, 168.0"/>
<path fill="none" stroke="#000000" stroke-width="1.0" d="M 557.5780086424664, 168.0L591.2029108507975, 168.0"/>
<path fill="none" stroke="#000000" stroke-width="1.0" d="M 604.8217899320695, 168.0L1008.0928388851476, 168.0"/>
<path fill="none" stroke="#000000" stroke-width="1.0" d="M 1013.6312011023588, 168.0L1022.2246746219039, 168.0"/>
<path fill="none" stroke="#000000" stroke-width="1.0" d="M 1028.0228808706509, 168.0L1056.9066638665604, 168.0"/>
<path fill="none" stroke="#000000" stroke-width="1.0" d="M 124.66589968763398, 216.0L129.42662016755278, 216.0"/>
<path fill="none" stroke="#000000" stroke-width="1.0" d="M 133.41878810583415, 216.0L311.2015370099378, 216.0"/>
<path fill="none" stroke="#000000" stroke-width="1.0" d="M 319.6993300545046, 216.0L324.8267782757621, 216.0"/>
<path fill="none" stroke="#000000" stroke-width="1.0" d="M 346.4825396825397, 216.0L358.91720083529, 216.0"/>
<path fill="none" stroke="#000000" stroke-width="1.0" d="M 533.11507317835, 216.0L999.8193628736686, 216.0"/>
<path fill="none" stroke="#000000" stroke-width="1.0" d="M 1006.8658014314146, 216.0L1012.904318381721, 216.0"/>
<path fill="none" stroke="#000000" stroke-width="1.0" d="M 105.31368019913154, 264.0L265.9295014542446, 264.0"/>
<path fill="none" stroke="#000000" stroke-width="1.0" d="M 508.5364125310821, 264.0L528.7928780258102, 264.0"/>
<path fill="none" stroke="#000000" stroke-width="1.0" d="M 585.105289486957, 264.0L588.9872659626333, 264.0"/>
<path fill="none" stroke="#000000" stroke-width="1.0" d="M 612.2055762186585, 264.0L616.5494489988777, 264.0"/>
<path fill="none" stroke="#000000" stroke-width="1.0" d="M 632.9681769639772, 264.0L711.2687500000003, 264.0"/>
<path fill="none" stroke="#000000" stroke-width="1.0" d="M 725.4869054073579, 264.0L955.198950770697, 264.0"/>
<path fill="none" stroke="#000000" stroke-width="1.0" d="M 958.0887323841978, 264.0L965.0545454545444, 264.0"/>
<path fill="none" stroke="#000000" stroke-width="1.0" d="M 980.691536938431, 264.0L990.7225198934074, 264.0"/>
<path fill="none" stroke="#000000" stroke-width="1.0" d="M 1023.8350152660737, 264.0L1032.3425998348903, 264.0"/>
<path fill="none" stroke="#000000" stroke-width="1.0" d="M 123.22389295486087, 312.0L126.51189668329313, 312.0"/>
<path fill="none" stroke="#000000" stroke-width="1.0" d="M 135.5146929154544, 312.0L176.8272186845934, 312.0"/>
<path fill="none" stroke="#000000" stroke-width="1.0" d="M 237.65756399286286, 312.0L239.19369202932853, 312.0"/>
<path fill="none" stroke="#000000" stroke-width="1.0" d="M 244.93002857585788, 312.0L246.77111672309786, 312.0"/>
<path fill="none" stroke="#000000" stroke-width="1.0" d="M 481.13912620287965, 312.0L661.0891584176749, 312.0"/>
<path fill="none" stroke="#000000" stroke-width="1.0" d="M 669.8511021666598, 312.0L717.1826121058871, 312.0"/>
<path fill="none" stroke="#000000" stroke-width="1.0" d="M 721.7830610512785, 312.0L723.4354381898636, 312.0"/>
<path fill="none" stroke="#000000" stroke-width="1.0" d="M 738.2780407537657, 312.0L740.9596260231586, 312.0"/>
<path fill="none" stroke="#000000" stroke-width="1.0" d="M 747.8778253164534, 312.0L971.6103396608152, 312.0"/>
<path fill="none" stroke="#000000" stroke-width="1.0" d="M 195.8160478875358, 360.0L221.00365413499316, 360.0"/>
<path fill="none" stroke="#000000" stroke-width="1.0" d="M 472.2250771926384, 360.0L689.8999239461269, 360.0"/>
<path fill="none" stroke="#000000" stroke-width="1.0" d="M 696.0608132219907, 360.0L712.341863170291, 360.0"/>
<path fill="none" stroke="#000000" stroke-width="1.0" d="M 812.2231029667881, 360.0L832.6385783199019, 360.0"/>
<path fill="none" stroke="#000000" stroke-width="1.0" d="M 900.5787276367637, 360.0L941.0077620121615, 360.0"/>
<path fill="none" stroke="#000000" stroke-width="1.0" d="M 987.6367997905875, 360.0L996.9207195249503, 360.0"/>
<path fill="none" stroke="#000000" stroke-width="1.0" d="M 237.09530534208338, 408.0L342.6893355025837, 408.0"/>
<path fill="none" stroke="#000000" stroke-width="1.0" d="M 570.3187216954966, 408.0L704.127747861734, 408.0"/>
<path fill="none" stroke="#000000" stroke-width="1.0" d="M 903.9387759682436, 408.0L912.6889961141493, 408.0"/>
<path fill="none" stroke="#000000" stroke-width="1.0" d="M 918.5619149862844, 408.0L924.7073250534712, 408.0"/>
<path fill="none" stroke="#000000" stroke-width="1.0" d="M 953.4905888701915, 408.0L978.2987394810566, 408.0"/>
<path fill="none" stroke="#000000" stroke-width="1.0" d="M 1016.8017901961205, 408.0L1019.064484420979, 408.0"/>
<path fill="none" stroke="#000000" stroke-width="1.0" d="M 238.50372862142098, 456.0L398.53427638902144, 456.0"/>
<path fill="none" stroke="#000000" stroke-width="1.0" d="M 583.7838698051821, 456.0L682.5053250120038, 456.0"/>
<path fill="none" stroke="#000000" stroke-width="1.0" d="M 999.523438047901, 456.0L1003.7614560416686, 456.0"/>
<path fill="none" stroke="#000000" stroke-width="1.0" d="M 1087.4664054594998, 456.0L1094.8649799036832, 456.0"/>
<path fill="none" stroke="#000000" stroke-width="1.0" d="M 1134.8671769799582, 456.0L1135.8844471566185, 456.0"/>
<path fill="none" stroke="#000000" stroke-width="1.0" d="M 275.0371255049997, 504.0L383.13976175064084, 504.0"/>
<path fill="none" stroke="#000000" stroke-width="1.0" d="M 585.3483394402725, 504.0L662.5502843658523, 504.0"/>
<path fill="none" stroke="#000000" stroke-width="1.0" d="M 696.1456119771733, 504.0L712.1264353594661, 504.0"/>
<path fill="none" stroke="#000000" stroke-width="1.0" d="M 740.4342665289845, 504.0L741.5657334710154, 504.0"/>
<path fill="none" stroke="#000000" stroke-width="1.0" d="M 964.5634334658735, 504.0L1084.622006805026, 504.0"/>
<path fill="none" stroke="#000000" stroke-width="1.0" d="M 1144.065127086573, 504.0L1146.7083299293215, 504.0"/>
<path fill="none" stroke="#000000" stroke-width="1.0" d="M 278.16813849192624, 552.0L346.51864115027524, 552.0"/>
<path fill="none" stroke="#000000" stroke-width="1.0" d="M 601.5610837557729, 552.0L633.7586020933385, 552.0"/>
<path fill="none" stroke="#000000" stroke-width="1.0" d="M 950.60309241678, 552.0L983.3695013814372, 552.0"/>
<path fill="none" stroke="#000000" stroke-width="1.0" d="M 1015.9395773099742, 552.0L1081.640319887244, 552.0"/>
<path fill="none" stroke="#000000" stroke-width="1.0" d="M 289.88837516963406, 600.0L313.45251366775574, 600.0"/>
<path fill="none" stroke="#000000" stroke-width="1.0" d="M 1107.3285439489036, 600.0L1119.2251224099746, 600.0"/>
</g>
</svg>