<?xml version="1.0" encoding="utf-8"?>
<!DOCTYPE svg PUBLIC "-//W3C//DTD SVG 1.1 Tiny//EN" "http://www.w3.org/Graphics/SVG/1.1/DTD/svg11-tiny.dtd">
<svg version="1.1" baseProfile="tiny" id="openrndr-svg" xmlns="http://www.w3.org/2000/svg" xmlns:xlink="http://www.w3.org/1999/xlink" x="0px" y="0px" width="1280px" height="720px"><g >
<path fill="none" stroke="#000000" stroke-width="1.0" d="M 324.9291122589682, 108.0L332.4426720054124, 108.0"/>
<path fill="none" stroke="#000000" stroke-width="1.0" d="M 345.1999999999999, 108.0L368.55454873884855, 108.0"/>
<path fill="none" stroke="#000000" stroke-width="1.0" d="M 391.37097924186696, 108.0L499.37379120359856, 108.0"/>
<path fill="none" stroke="#000000" stroke-width="1.0" d="M 597.1315353299549, 108.0L603.5523196492645, 108.0"/>
<path fill="none" stroke="#000000" stroke-width="1.0" d="M 761.8213426185077, 108.0L776.2499707432132, 108.0"/>
<path fill="none" stroke="#000000" stroke-width="1.0" d="M 214.26270101394306, 132.0L222.1598054589635, 132.0"/>
<path fill="none" stroke="#000000" stroke-width="1.0" d="M 232.04434892931124, 132.0L264.6655172413793, 132.0"/>
<path fill="none" stroke="#000000" stroke-width="1.0" d="M 280.4807281644939, 132.0L284.08462463749476, 132.0"/>
<path fill="none" stroke="#000000" stroke-width="1.0" d="M 307.11079528168966, 132.0L346.0187633483945, 132.0"/>
<path fill="none" stroke="#000000" stroke-width="1.0" d="M 404.1456965679088, 132.0L481.9576763028374, 132.0"/>
<path fill="none" stroke="#000000" stroke-width="1.0" d="M 686.5999999999999, 132.0L694.870192497211, 132.0"/>
<path fill="none" stroke="#000000" stroke-width="1.0" d="M 724.2105087332505, 132.0L734.8619388018728, 132.0"/>
<path fill="none" stroke="#000000" stroke-width="1.0" d="M 749.6349066600178, 132.0L885.4193886820989, 132.0"/>
<path fill="none" stroke="#000000" stroke-width="1.0" d="M 914.7560143203457, 132.0L937.8503247522688, 132.0"/>
<path fill="none" stroke="#000000" stroke-width="1.0" d="M 68.54013073609032, 156.0L74.55986926390972, 156.0"/>
<path fill="none" stroke="#000000" stroke-width="1.0" d="M 78.44153711167164, 156.0L290.3285714285714, 156.0"/>
<path fill="none" stroke="#000000" stroke-width="1.0" d="M 295.44084046169297, 156.0L303.91267031453265, 156.0"/>
<path fill="none" stroke="#000000" stroke-width="1.0" d="M 318.0543050187281, 156.0L351.0321630522874, 156.0"/>
<path fill="none" stroke="#000000" stroke-width="1.0" d="M 395.2699960165255, 156.0L423.99633534309675, 156.0"/>
<path fill="none" stroke="#000000" stroke-width="1.0" d="M 478.72066217554334, 156.0L501.0588235294117, 156.0"/>
<path fill="none" stroke="#000000" stroke-width="1.0" d="M 576.5063720956088, 156.0L602.807921062111, 156.0"/>
<path fill="none" stroke="#000000" stroke-width="1.0" d="M 610.9130379527089, 156.0L640.4560975923425, 156.0"/>
<path fill="none" stroke="#000000" stroke-width="1.0" d="M 648.7527812369582, 156.0L651.2082617389282, 156.0"/>
<path fill="none" stroke="#000000" stroke-width="1.0" d="M 656.6324675591763, 156.0L1057.585882101842, 156.0"/>
<path fill="none" stroke="#000000" stroke-width="1.0" d="M 1071.8775875654505, 156.0L1080.36923076923, 156.0"/>
<path fill="none" stroke="#000000" stroke-width="1.0" d="M 56.77679550100346, 180.0L64.30190702972128, 180.0"/>
<path fill="none" stroke="#000000" stroke-width="1.0" d="M 125.88068957255629, 180.0L253.73878755902706, 180.0"/>
<path fill="none" stroke="#000000" stroke-width="1.0" d="M 302.6682399504361, 180.0L332.6476190476192, 180.0"/>
<path fill="none" stroke="#000000" stroke-width="1.0" d="M 335.5411764705888, 180.0L347.4395890226926, 180.0"/>
<path fill="none" stroke="#000000" stroke-width="1.0" d="M 561.7585256517036, 180.0L566.5033695773543, 180.0"/>
<path fill="none" stroke="#000000" stroke-width="1.0" d="M 574.8509991354514, 180.0L591.7976300883153, 180.0"/>
<path fill="none" stroke="#000000" stroke-width="1.0" d="M 613.4053253933799, 180.0L972.5086612041032, 180.0"/>
<path fill="none" stroke="#000000" stroke-width="1.0" d="M 1026.9445872618428, 180.0L1036.5863272700826, 180.0"/>
<path fill="none" stroke="#000000" stroke-width="1.0" d="M 125.3519171454702, 204.0L276.1905703460032, 204.0"/>
<path fill="none" stroke="#000000" stroke-width="1.0" d="M 284.52393495817086, 204.0L355.88391504434503, 204.0"/>
<path fill="none" stroke="#000000" stroke-width="1.0" d="M 507.64020974493167, 204.0L515.4851924261536, 204.0"/>
<path fill="none" stroke="#000000" stroke-width="1.0" d="M 524.6145599255493, 204.0L543.0033947760311, 204.0"/>
<path fill="none" stroke="#000000" stroke-width="1.0" d="M 552.6468261455194, 204.0L992.0355108608212, 204.0"/>
<path fill="none" stroke="#000000" stroke-width="1.0" d="M 997.4383186431608, 204.0L999.8096053216327, 204.0"/>
<path fill="none" stroke="#000000" stroke-width="1.0" d="M 1042.1489970752514, 204.0L1048.8829814777853, 204.0"/>
<path fill="none" stroke="#000000" stroke-width="1.0" d="M 120.72128551292451, 228.0L250.3318519332774, 228.0"/>
<path fill="none" stroke="#000000" stroke-width="1.0" d="M 256.83909767913025, 228.0L259.28870804237533, 228.0"/>
<path fill="none" stroke="#000000" stroke-width="1.0" d="M 263.4242293102648, 228.0L323.93307417800463, 228.0"/>
<path fill="none" stroke="#000000" stroke-width="1.0" d="M 532.3099011751915, 228.0L639.6030539074477, 228.0"/>
<path fill="none" stroke="#000000" stroke-width="1.0" d="M 648.9689263010525, 228.0L654.1404433422497, 228.0"/>
<path fill="none" stroke="#000000" stroke-width="1.0" d="M 665.8029747914223, 228.0L702.0869420852705, 228.0"/>
<path fill="none" stroke="#000000" stroke-width="1.0" d="M 717.0477747116045, 228.0L1000.0195056659529, 228.0"/>
<path fill="none" stroke="#000000" stroke-width="1.0" d="M 105.09999999999994, 252.0L277.7970045416342, 252.0"/>
<path fill="none" stroke="#000000" stroke-width="1.0" d="M 504.99795965905, 252.0L536.672467057041, 252.0"/>
<path fill="none" stroke="#000000" stroke-width="1.0" d="M 565.6089107982946, 252.0L569.6785118844442, 252.0"/>
<path fill="none" stroke="#000000" stroke-width="1.0" d="M 589.3127146494072, 252.0L593.3640259921266, 252.0"/>
<path fill="none" stroke="#000000" stroke-width="1.0" d="M 604.0662927429807, 252.0L614.9824322077835, 252.0"/>
<path fill="none" stroke="#000000" stroke-width="1.0" d="M 634.5824888117264, 252.0L707.6645608935561, 252.0"/>
<path fill="none" stroke="#000000" stroke-width="1.0" d="M 720.9735313291569, 252.0L953.7612840689802, 252.0"/>
<path fill="none" stroke="#000000" stroke-width="1.0" d="M 959.8843167877693, 252.0L984.0974858073374, 252.0"/>
<path fill="none" stroke="#000000" stroke-width="1.0" d="M 1023.1675610064185, 252.0L1028.8713409517927, 252.0"/>
<path fill="none" stroke="#000000" stroke-width="1.0" d="M 109.02987765531134, 276.0L257.91357124687755, 276.0"/>
<path fill="none" stroke="#000000" stroke-width="1.0" d="M 510.9892652846992, 276.0L572.5023605188258, 276.0"/>
<path fill="none" stroke="#000000" stroke-width="1.0" d="M 662.6111277589284, 276.0L960.2736271864947, 276.0"/>
<path fill="none" stroke="#000000" stroke-width="1.0" d="M 987.3115384615382, 276.0L987.7894736842106, 276.0"/>
<path fill="none" stroke="#000000" stroke-width="1.0" d="M 1004.5760100197294, 276.0L1008.3743382184052, 276.0"/>
<path fill="none" stroke="#000000" stroke-width="1.0" d="M 1017.9811824719684, 276.0L1021.7560335461167, 276.0"/>
<path fill="none" stroke="#000000" stroke-width="1.0" d="M 118.62468938544099, 300.0L122.98273985467611, 300.0"/>
<path fill="none" stroke="#000000" stroke-width="1.0" d="M 129.5467203325054, 300.0L183.25495494864785, 300.0"/>
<path fill="none" stroke="#000000" stroke-width="1.0" d="M 234.28385858983563, 300.0L241.05333917255345, 300.0"/>
<path fill="none" stroke="#000000" stroke-width="1.0" d="M 492.31682191038533, 300.0L654.3420746246676, 300.0"/>
<path fill="none" stroke="#000000" stroke-width="1.0" d="M 657.8717948717951, 300.0L660.1423076923079, 300.0"/>
<path fill="none" stroke="#000000" stroke-width="1.0" d="M 663.2241235978347, 300.0L711.021754151501, 300.0"/>
<path fill="none" stroke="#000000" stroke-width="1.0" d="M 721.1885085376816, 300.0L975.1009308849264, 300.0"/>
<path fill="none" stroke="#000000" stroke-width="1.0" d="M 143.54448974030018, 324.0L173.13392857142895, 324.0"/>
<path fill="none" stroke="#000000" stroke-width="1.0" d="M 223.21313666084592, 324.0L241.861476992698, 324.0"/>
<path fill="none" stroke="#000000" stroke-width="1.0" d="M 263.65470574402934, 324.0L267.32033685881936, 324.0"/>
<path fill="none" stroke="#000000" stroke-width="1.0" d="M 473.85715732877145, 324.0L667.5401733818737, 324.0"/>
<path fill="none" stroke="#000000" stroke-width="1.0" d="M 678.3078582207572, 324.0L752.8164422868397, 324.0"/>
<path fill="none" stroke="#000000" stroke-width="1.0" d="M 793.1818084198528, 324.0L960.528715709967, 324.0"/>
<path fill="none" stroke="#000000" stroke-width="1.0" d="M 978.9394448724535, 324.0L981.0982807796389, 324.0"/>
<path fill="none" stroke="#000000" stroke-width="1.0" d="M 164.59661016949133, 348.0L204.08830112691987, 348.0"/>
<path fill="none" stroke="#000000" stroke-width="1.0" d="M 473.556236643336, 348.0L679.2150931987644, 348.0"/>
<path fill="none" stroke="#000000" stroke-width="1.0" d="M 692.9578568683496, 348.0L731.5503568931707, 348.0"/>
<path fill="none" stroke="#000000" stroke-width="1.0" d="M 807.3407916704679, 348.0L839.5246063150284, 348.0"/>
<path fill="none" stroke="#000000" stroke-width="1.0" d="M 885.8772936322754, 348.0L933.6116169829038, 348.0"/>
<path fill="none" stroke="#000000" stroke-width="1.0" d="M 982.6170096910639, 348.0L989.7684566777025, 348.0"/>
<path fill="none" stroke="#000000" stroke-width="1.0" d="M 210.62749883887375, 372.0L219.83175083637795, 372.0"/>
<path fill="none" stroke="#000000" stroke-width="1.0" d="M 253.68540433814525, 372.0L263.8045732761772, 372.0"/>
<path fill="none" stroke="#000000" stroke-width="1.0" d="M 266.8568319857961, 372.0L279.41462529629064, 372.0"/>
<path fill="none" stroke="#000000" stroke-width="1.0" d="M 478.33199926442467, 372.0L697.3754771057858, 372.0"/>
<path fill="none" stroke="#000000" stroke-width="1.0" d="M 712.968349859515, 372.0L724.7518601272476, 372.0"/>
<path fill="none" stroke="#000000" stroke-width="1.0" d="M 817.3991785882902, 372.0L831.5148623301717, 372.0"/>
<path fill="none" stroke="#000000" stroke-width="1.0" d="M 903.085184290127, 372.0L906.3960836852084, 372.0"/>
<path fill="none" stroke="#000000" stroke-width="1.0" d="M 920.8957743516053, 372.0L940.0503690060104, 372.0"/>
<path fill="none" stroke="#000000" stroke-width="1.0" d="M 991.1258356972301, 372.0L993.5200511259466, 372.0"/>
<path fill="none" stroke="#000000" stroke-width="1.0" d="M 999.7920640942339, 372.0L1000.473434254752, 372.0"/>
<path fill="none" stroke="#000000" stroke-width="1.0" d="M 1005.3669570139543, 372.0L1005.6964993096482, 372.0"/>
<path fill="none" stroke="#000000" stroke-width="1.0" d="M 241.99125838555085, 396.0L335.4660815908951, 396.0"/>
<path fill="none" stroke="#000000" stroke-width="1.0" d="M 498.89108543243924, 396.0L513.2765308593641, 396.0"/>
<path fill="none" stroke="#000000" stroke-width="1.0" d="M 554.7998142898707, 396.0L714.4557079489351, 396.0"/>
<path fill="none" stroke="#000000" stroke-width="1.0" d="M 894.0636334625092, 396.0L898.7436295045578, 396.0"/>
<path fill="none" stroke="#000000" stroke-width="1.0" d="M 911.5729957221711, 396.0L920.4283384057823, 396.0"/>
<path fill="none" stroke="#000000" stroke-width="1.0" d="M 967.77684528962, 396.0L981.3000000000002, 396.0"/>
<path fill="none" stroke="#000000" stroke-width="1.0" d="M 229.16853707920131, 420.0L336.65786229994734, 420.0"/>
<path fill="none" stroke="#000000" stroke-width="1.0" d="M 340.87631878858764, 420.0L349.7711467811233, 420.0"/>
<path fill="none" stroke="#000000" stroke-width="1.0" d="M 355.4994468458562, 420.0L357.8175803185218, 420.0"/>
<path fill="none" stroke="#000000" stroke-width="1.0" d="M 568.1644838726327, 420.0L692.0695083894219, 420.0"/>
<path fill="none" stroke="#000000" stroke-width="1.0" d="M 911.8984287004644, 420.0L923.5055792080383, 420.0"/>
<path fill="none" stroke="#000000" stroke-width="1.0" d="M 946.7211236544247, 420.0L975.6453154036718, 420.0"/>
<path fill="none" stroke="#000000" stroke-width="1.0" d="M 985.2649503110557, 420.0L987.5415277794489, 420.0"/>
<path fill="none" stroke="#000000" stroke-width="1.0" d="M 232.28362499378602, 444.0L402.6504065044829, 444.0"/>
<path fill="none" stroke="#000000" stroke-width="1.0" d="M 581.0146433881516, 444.0L679.1750134887785, 444.0"/>
<path fill="none" stroke="#000000" stroke-width="1.0" d="M 932.1155339118516, 444.0L941.8043179595949, 444.0"/>
<path fill="none" stroke="#000000" stroke-width="1.0" d="M 1056.450231527116, 444.0L1089.0018177336979, 444.0"/>
<path fill="none" stroke="#000000" stroke-width="1.0" d="M 1098.2031250000002, 444.0L1100.1249095494554, 444.0"/>
<path fill="none" stroke="#000000" stroke-width="1.0" d="M 1114.7245162900476, 444.0L1116.6028851472465, 444.0"/>
<path fill="none" stroke="#000000" stroke-width="1.0" d="M 245.88482129328267, 468.0L390.294970894172, 468.0"/>
<path fill="none" stroke="#000000" stroke-width="1.0" d="M 583.6115384615384, 468.0L684.7300897951502, 468.0"/>
<path fill="none" stroke="#000000" stroke-width="1.0" d="M 717.8548387096773, 468.0L717.9454545454545, 468.0"/>
<path fill="none" stroke="#000000" stroke-width="1.0" d="M 1027.5107909702947, 468.0L1042.9425135800877, 468.0"/>
<path fill="none" stroke="#000000" stroke-width="1.0" d="M 1065.6182582092845, 468.0L1070.3096729284475, 468.0"/>
<path fill="none" stroke="#000000" stroke-width="1.0" d="M 270.7377862339893, 492.0L386.91442794545407, 492.0"/>
<path fill="none" stroke="#000000" stroke-width="1.0" d="M 579.7585752877552, 492.0L668.7769545477771, 492.0"/>
<path fill="none" stroke="#000000" stroke-width="1.0" d="M 698.531578344988, 492.0L716.1312371948214, 492.0"/>
<path fill="none" stroke="#000000" stroke-width="1.0" d="M 987.8151035720637, 492.0L1076.7705807710304, 492.0"/>
<path fill="none" stroke="#000000" stroke-width="1.0" d="M 1194.5185735536097, 492.0L1196.25134101742, 492.0"/>
<path fill="none" stroke="#000000" stroke-width="1.0" d="M 275.0098189777419, 516.0L362.1319745460992, 516.0"/>
<path fill="none" stroke="#000000" stroke-width="1.0" d="M 588.8650721178609, 516.0L662.5941028017653, 516.0"/>
<path fill="none" stroke="#000000" stroke-width="1.0" d="M 694.7814905706136, 516.0L708.5266566502755, 516.0"/>
<path fill="none" stroke="#000000" stroke-width="1.0" d="M 952.2778439335406, 516.0L1091.3721075766207, 516.0"/>
<path fill="none" stroke="#000000" stroke-width="1.0" d="M 276.2944854460985, 540.0L353.44785909724857, 540.0"/>
<path fill="none" stroke="#000000" stroke-width="1.0" d="M 597.8, 540.0L645.9008920723429, 540.0"/>
<path fill="none" stroke="#000000" stroke-width="1.0" d="M 951.7572973746541, 540.0L1090.7564337058716, 540.0"/>
<path fill="none" stroke="#000000" stroke-width="1.0" d="M 278.2625793859111, 564.0L333.1923723180813, 564.0"/>
<path fill="none" stroke="#000000" stroke-width="1.0" d="M 1030.1162464480442, 564.0L1068.753839632691, 564.0"/>
<path fill="none" stroke="#000000" stroke-width="1.0" d="M 1152.0927659467927, 564.0L1154.2687776551543, 564.0"/>
<path fill="none" stroke="#000000" stroke-width="1.0" d="M 284.9274701820047, 588.0L312.42241146585314, 588.0"/>
<path fill="none" stroke="#000000" stroke-width="1.0" d="M 1037.4955224768994, 588.0L1048.5944345822163, 588.0"/>
<path fill="none" stroke="#000000" stroke-width="1.0" d="M 1129.9062996770756, 588.0L1136.8849174313527, 588.0"/>
<path fill="none" stroke="#000000" stroke-width="1.0" d="M 291.5542084770238, 612.0L317.2223180961133, 612.0"/>
<path fill="none" stroke="#000000" stroke-width="1.0" d="M 314.4411799348795, 636.0L324.2379655698976, 636.0"/>
</g>
</svg>