<?xml version="1.0" encoding="utf-8"?>
<!DOCTYPE svg PUBLIC "-//W3C//DTD SVG 1.1 Tiny//EN" "http://www.w3.org/Graphics/SVG/1.1/DTD/svg11-tiny.dtd">
<svg version="1.1" baseProfile="tiny" id="openrndr-svg" xmlns="http://www.w3.org/2000/svg" xmlns:xlink="http://www.w3.org/1999/xlink" x="0px" y="0px" width="1280px" height="720px"><g >
<path fill="none" stroke="#000000" stroke-width="1.0" d="M 608.7008023189179, 66.0L646.8900470153519, 66.0"/>
<path fill="none" stroke="#000000" stroke-width="1.0" d="M 602.43948237003, 78.0L658.3551400782424, 78.0"/>
<path fill="none" stroke="#000000" stroke-width="1.0" d="M 604.8465506179352, 90.0L653.8017315245738, 90.0"/>
<path fill="none" stroke="#000000" stroke-width="1.0" d="M 607.2859947412687, 102.0L653.950357004567, 102.0"/>
<path fill="none" stroke="#000000" stroke-width="1.0" d="M 610.9975493290848, 114.0L643.9550955968007, 114.0"/>
<path fill="none" stroke="#000000" stroke-width="1.0" d="M 608.852926119734, 126.0L660.4479671405156, 126.0"/>
<path fill="none" stroke="#000000" stroke-width="1.0" d="M 591.3697652889291, 138.0L676.8132514013159, 138.0"/>
<path fill="none" stroke="#000000" stroke-width="1.0" d="M 578.4408565930327, 150.0L681.4307922625264, 150.0"/>
<path fill="none" stroke="#000000" stroke-width="1.0" d="M 574.0601967454222, 162.0L683.0742404920411, 162.0"/>
<path fill="none" stroke="#000000" stroke-width="1.0" d="M 569.7503176226155, 174.0L683.9209942946992, 174.0"/>
<path fill="none" stroke="#000000" stroke-width="1.0" d="M 564.569324229122, 186.0L683.7867556774196, 186.0"/>
<path fill="none" stroke="#000000" stroke-width="1.0" d="M 564.5140307669385, 198.0L682.0050766768413, 198.0"/>
<path fill="none" stroke="#000000" stroke-width="1.0" d="M 566.2523541251061, 210.0L671.2063710474044, 210.0"/>
<path fill="none" stroke="#000000" stroke-width="1.0" d="M 570.6373812904583, 222.0L674.3185734703558, 222.0"/>
<path fill="none" stroke="#000000" stroke-width="1.0" d="M 589.0754645948766, 234.0L678.0021669646494, 234.0"/>
<path fill="none" stroke="#000000" stroke-width="1.0" d="M 713.2273432904861, 234.0L759.3632565748519, 234.0"/>
<path fill="none" stroke="#000000" stroke-width="1.0" d="M 584.5067562729422, 246.0L678.530734449287, 246.0"/>
<path fill="none" stroke="#000000" stroke-width="1.0" d="M 708.0807715590074, 246.0L765.5989473167275, 246.0"/>
<path fill="none" stroke="#000000" stroke-width="1.0" d="M 579.4795495380818, 258.0L677.1138744816781, 258.0"/>
<path fill="none" stroke="#000000" stroke-width="1.0" d="M 705.2479427465618, 258.0L770.5600872254334, 258.0"/>
<path fill="none" stroke="#000000" stroke-width="1.0" d="M 855.8480507143679, 258.0L892.4918925094397, 258.0"/>
<path fill="none" stroke="#000000" stroke-width="1.0" d="M 576.5193880822026, 270.0L675.0, 270.0"/>
<path fill="none" stroke="#000000" stroke-width="1.0" d="M 708.7598253218969, 270.0L766.8184611185177, 270.0"/>
<path fill="none" stroke="#000000" stroke-width="1.0" d="M 846.7567011726092, 270.0L901.7006566859893, 270.0"/>
<path fill="none" stroke="#000000" stroke-width="1.0" d="M 572.9738573333113, 282.0L675.0, 282.0"/>
<path fill="none" stroke="#000000" stroke-width="1.0" d="M 713.4615886888676, 282.0L759.0097076393502, 282.0"/>
<path fill="none" stroke="#000000" stroke-width="1.0" d="M 846.2843555555555, 282.0L902.237735719697, 282.0"/>
<path fill="none" stroke="#000000" stroke-width="1.0" d="M 572.1955580275702, 294.0L675.0, 294.0"/>
<path fill="none" stroke="#000000" stroke-width="1.0" d="M 691.7087016011353, 294.0L771.3308322870251, 294.0"/>
<path fill="none" stroke="#000000" stroke-width="1.0" d="M 847.7950949352046, 294.0L903.1631944444442, 294.0"/>
<path fill="none" stroke="#000000" stroke-width="1.0" d="M 572.1646331674448, 306.0L788.0999999999999, 306.0"/>
<path fill="none" stroke="#000000" stroke-width="1.0" d="M 848.2452848472134, 306.0L898.9, 306.0"/>
<path fill="none" stroke="#000000" stroke-width="1.0" d="M 431.25112447914137, 318.0L467.59302177218444, 318.0"/>
<path fill="none" stroke="#000000" stroke-width="1.0" d="M 572.1522972253646, 318.0L796.306045885273, 318.0"/>
<path fill="none" stroke="#000000" stroke-width="1.0" d="M 853.8469826787561, 318.0L894.5315047976933, 318.0"/>
<path fill="none" stroke="#000000" stroke-width="1.0" d="M 419.80000000000007, 330.0L477.2909501454574, 330.0"/>
<path fill="none" stroke="#000000" stroke-width="1.0" d="M 572.1500071374069, 330.0L802.2252260285946, 330.0"/>
<path fill="none" stroke="#000000" stroke-width="1.0" d="M 834.766772650727, 330.0L910.7297184137669, 330.0"/>
<path fill="none" stroke="#000000" stroke-width="1.0" d="M 414.5428964461148, 342.0L481.6925776395298, 342.0"/>
<path fill="none" stroke="#000000" stroke-width="1.0" d="M 572.1491839872151, 342.0L803.7142082062601, 342.0"/>
<path fill="none" stroke="#000000" stroke-width="1.0" d="M 826.4101494219738, 342.0L922.2393130039169, 342.0"/>
<path fill="none" stroke="#000000" stroke-width="1.0" d="M 414.2098925231635, 354.0L481.6965064575821, 354.0"/>
<path fill="none" stroke="#000000" stroke-width="1.0" d="M 572.14124361558, 354.0L660.9953562864356, 354.0"/>
<path fill="none" stroke="#000000" stroke-width="1.0" d="M 668.6676842285028, 354.0L804.0331814408248, 354.0"/>
<path fill="none" stroke="#000000" stroke-width="1.0" d="M 816.2186893283165, 354.0L927.636837758818, 354.0"/>
<path fill="none" stroke="#000000" stroke-width="1.0" d="M 419.27659847792336, 366.0L477.2304863209261, 366.0"/>
<path fill="none" stroke="#000000" stroke-width="1.0" d="M 572.1176272823905, 366.0L659.7782852227468, 366.0"/>
<path fill="none" stroke="#000000" stroke-width="1.0" d="M 666.9230256606293, 366.0L804.016345952293, 366.0"/>
<path fill="none" stroke="#000000" stroke-width="1.0" d="M 809.2, 366.0L930.3185227985634, 366.0"/>
<path fill="none" stroke="#000000" stroke-width="1.0" d="M 424.6145036178854, 378.0L476.35243188798927, 378.0"/>
<path fill="none" stroke="#000000" stroke-width="1.0" d="M 572.8165291117946, 378.0L805.3406854021698, 378.0"/>
<path fill="none" stroke="#000000" stroke-width="1.0" d="M 809.6406305903173, 378.0L924.1482173066211, 378.0"/>
<path fill="none" stroke="#000000" stroke-width="1.0" d="M 407.1687628995135, 390.0L488.9564171882948, 390.0"/>
<path fill="none" stroke="#000000" stroke-width="1.0" d="M 576.0999999999999, 390.0L817.9276426242209, 390.0"/>
<path fill="none" stroke="#000000" stroke-width="1.0" d="M 833.0770910716677, 390.0L923.3752142497783, 390.0"/>
<path fill="none" stroke="#000000" stroke-width="1.0" d="M 392.102735411762, 402.0L499.2828302806079, 402.0"/>
<path fill="none" stroke="#000000" stroke-width="1.0" d="M 576.0939636619896, 402.0L660.8402407315823, 402.0"/>
<path fill="none" stroke="#000000" stroke-width="1.0" d="M 673.7237753640862, 402.0L828.9733982888952, 402.0"/>
<path fill="none" stroke="#000000" stroke-width="1.0" d="M 834.2135253904567, 402.0L909.6051876701043, 402.0"/>
<path fill="none" stroke="#000000" stroke-width="1.0" d="M 386.2818155361505, 414.0L504.43359730912687, 414.0"/>
<path fill="none" stroke="#000000" stroke-width="1.0" d="M 617.0512508565329, 414.0L664.9237902207842, 414.0"/>
<path fill="none" stroke="#000000" stroke-width="1.0" d="M 687.4952827475431, 414.0L908.2012797861855, 414.0"/>
<path fill="none" stroke="#000000" stroke-width="1.0" d="M 384.0903748748884, 426.0L506.2130092054233, 426.0"/>
<path fill="none" stroke="#000000" stroke-width="1.0" d="M 617.1979672453015, 426.0L667.274988383719, 426.0"/>
<path fill="none" stroke="#000000" stroke-width="1.0" d="M 688.1, 426.0L908.1262790672654, 426.0"/>
<path fill="none" stroke="#000000" stroke-width="1.0" d="M 383.20396239196623, 438.0L506.2555555555556, 438.0"/>
<path fill="none" stroke="#000000" stroke-width="1.0" d="M 620.8089262892644, 438.0L668.0113026776537, 438.0"/>
<path fill="none" stroke="#000000" stroke-width="1.0" d="M 702.6000000000001, 438.0L760.3451361359456, 438.0"/>
<path fill="none" stroke="#000000" stroke-width="1.0" d="M 787.8654534690972, 438.0L908.1361734247932, 438.0"/>
<path fill="none" stroke="#000000" stroke-width="1.0" d="M 383.1004529066629, 450.0L505.6206893914525, 450.0"/>
<path fill="none" stroke="#000000" stroke-width="1.0" d="M 624.0887019356554, 450.0L668.0243443379392, 450.0"/>
<path fill="none" stroke="#000000" stroke-width="1.0" d="M 709.0119028666078, 450.0L758.9999999999999, 450.0"/>
<path fill="none" stroke="#000000" stroke-width="1.0" d="M 786.3895258622895, 450.0L819.2264420266317, 450.0"/>
<path fill="none" stroke="#000000" stroke-width="1.0" d="M 829.9609912603369, 450.0L906.2512156242976, 450.0"/>
<path fill="none" stroke="#000000" stroke-width="1.0" d="M 383.19425213892737, 462.0L504.61617247125554, 462.0"/>
<path fill="none" stroke="#000000" stroke-width="1.0" d="M 628.6033257319582, 462.0L667.9685965924955, 462.0"/>
<path fill="none" stroke="#000000" stroke-width="1.0" d="M 723.0123671333499, 462.0L759.0, 462.0"/>
<path fill="none" stroke="#000000" stroke-width="1.0" d="M 785.058690365256, 462.0L895.8, 462.0"/>
<path fill="none" stroke="#000000" stroke-width="1.0" d="M 378.2349089906496, 474.0L502.9216506324171, 474.0"/>
<path fill="none" stroke="#000000" stroke-width="1.0" d="M 631.1547542792587, 474.0L666.9283291897927, 474.0"/>
<path fill="none" stroke="#000000" stroke-width="1.0" d="M 726.7726961051851, 474.0L759.0, 474.0"/>
<path fill="none" stroke="#000000" stroke-width="1.0" d="M 782.9911332444262, 474.0L889.1648193726243, 474.0"/>
<path fill="none" stroke="#000000" stroke-width="1.0" d="M 371.5911558409506, 486.0L499.42581653963043, 486.0"/>
<path fill="none" stroke="#000000" stroke-width="1.0" d="M 624.9499876860668, 486.0L666.3559276797378, 486.0"/>
<path fill="none" stroke="#000000" stroke-width="1.0" d="M 728.9015320925733, 486.0L758.9999999999999, 486.0"/>
<path fill="none" stroke="#000000" stroke-width="1.0" d="M 782.975071807835, 486.0L880.4095008850799, 486.0"/>
<path fill="none" stroke="#000000" stroke-width="1.0" d="M 368.7600724759349, 498.0L502.00165461993663, 498.0"/>
<path fill="none" stroke="#000000" stroke-width="1.0" d="M 614.2299384988976, 498.0L667.5195525528089, 498.0"/>
<path fill="none" stroke="#000000" stroke-width="1.0" d="M 733.4335512514155, 498.0L758.9999999999999, 498.0"/>
<path fill="none" stroke="#000000" stroke-width="1.0" d="M 783.0040627623057, 498.0L811.7999999999998, 498.0"/>
<path fill="none" stroke="#000000" stroke-width="1.0" d="M 812.9474420899254, 498.0L841.0, 498.0"/>
<path fill="none" stroke="#000000" stroke-width="1.0" d="M 844.4466284200146, 498.0L876.0259511583558, 498.0"/>
<path fill="none" stroke="#000000" stroke-width="1.0" d="M 369.1483351723093, 510.0L509.5320292924423, 510.0"/>
<path fill="none" stroke="#000000" stroke-width="1.0" d="M 651.6058735550896, 510.0L661.4717679073882, 510.0"/>
<path fill="none" stroke="#000000" stroke-width="1.0" d="M 738.1508233356321, 510.0L764.0604113992431, 510.0"/>
<path fill="none" stroke="#000000" stroke-width="1.0" d="M 783.001108865052, 510.0L804.0865068446121, 510.0"/>
<path fill="none" stroke="#000000" stroke-width="1.0" d="M 812.8999999999999, 510.0L873.0538944089195, 510.0"/>
<path fill="none" stroke="#000000" stroke-width="1.0" d="M 373.2531474821848, 522.0L522.200968276883, 522.0"/>
<path fill="none" stroke="#000000" stroke-width="1.0" d="M 741.143821798187, 522.0L767.8230055571546, 522.0"/>
<path fill="none" stroke="#000000" stroke-width="1.0" d="M 780.4729969959641, 522.0L803.9381366724051, 522.0"/>
<path fill="none" stroke="#000000" stroke-width="1.0" d="M 812.944536272274, 522.0L872.591185034597, 522.0"/>
<path fill="none" stroke="#000000" stroke-width="1.0" d="M 375.96251009181026, 534.0L536.6694981547002, 534.0"/>
<path fill="none" stroke="#000000" stroke-width="1.0" d="M 737.9375000000002, 534.0L805.019099730686, 534.0"/>
<path fill="none" stroke="#000000" stroke-width="1.0" d="M 811.7612545218827, 534.0L832.8, 534.0"/>
<path fill="none" stroke="#000000" stroke-width="1.0" d="M 837.9783718631024, 534.0L868.351211889837, 534.0"/>
<path fill="none" stroke="#000000" stroke-width="1.0" d="M 334.9877902269079, 546.0L352.1855051484314, 546.0"/>
<path fill="none" stroke="#000000" stroke-width="1.0" d="M 361.76556572062805, 546.0L539.8847976676911, 546.0"/>
<path fill="none" stroke="#000000" stroke-width="1.0" d="M 736.906753424249, 546.0L827.0026384035173, 546.0"/>
<path fill="none" stroke="#000000" stroke-width="1.0" d="M 832.8940199118413, 546.0L859.8782628204115, 546.0"/>
<path fill="none" stroke="#000000" stroke-width="1.0" d="M 323.9600773937115, 558.0L534.1871801719467, 558.0"/>
<path fill="none" stroke="#000000" stroke-width="1.0" d="M 739.4, 558.0L854.0018560365985, 558.0"/>
<path fill="none" stroke="#000000" stroke-width="1.0" d="M 320.6333595749812, 570.0L517.8187044217306, 570.0"/>
<path fill="none" stroke="#000000" stroke-width="1.0" d="M 757.4363996811427, 570.0L853.9221586412948, 570.0"/>
<path fill="none" stroke="#000000" stroke-width="1.0" d="M 323.0988799434889, 582.0L378.6196700811358, 582.0"/>
<path fill="none" stroke="#000000" stroke-width="1.0" d="M 325.46470155416523, 594.0L349.5999999999999, 594.0"/>
</g>
</svg>