<?xml version="1.0" encoding="utf-8"?>
<!DOCTYPE svg PUBLIC "-//W3C//DTD SVG 1.1 Tiny//EN" "http://www.w3.org/Graphics/SVG/1.1/DTD/svg11-tiny.dtd">
<svg version="1.1" baseProfile="tiny" id="openrndr-svg" xmlns="http://www.w3.org/2000/svg" xmlns:xlink="http://www.w3.org/1999/xlink" x="0px" y="0px" width="1280px" height="720px"><g >
<path fill="none" stroke="#000000" stroke-width="1.0" d="M 612.0290387005288, 63.0L641.481260171182, 63.0"/>
<path fill="none" stroke="#000000" stroke-width="1.0" d="M 605.878393248019, 69.0L651.2508824340641, 69.0"/>
<path fill="none" stroke="#000000" stroke-width="1.0" d="M 601.9584569232026, 75.0L656.3310526656801, 75.0"/>
<path fill="none" stroke="#000000" stroke-width="1.0" d="M 603.3736423215611, 81.0L658.7442620354188, 81.0"/>
<path fill="none" stroke="#000000" stroke-width="1.0" d="M 605.8342649225237, 87.0L655.131658096934, 87.0"/>
<path fill="none" stroke="#000000" stroke-width="1.0" d="M 603.4186898349152, 93.0L653.0555549148028, 93.0"/>
<path fill="none" stroke="#000000" stroke-width="1.0" d="M 605.2205342389522, 99.0L653.592113090343, 99.0"/>
<path fill="none" stroke="#000000" stroke-width="1.0" d="M 608.7415117813703, 105.0L651.8552668716881, 105.0"/>
<path fill="none" stroke="#000000" stroke-width="1.0" d="M 610.8751802641095, 111.0L646.0906051885967, 111.0"/>
<path fill="none" stroke="#000000" stroke-width="1.0" d="M 610.1505531602024, 117.0L642.0888455539025, 117.0"/>
<path fill="none" stroke="#000000" stroke-width="1.0" d="M 608.9692053725906, 123.0L646.285193580955, 123.0"/>
<path fill="none" stroke="#000000" stroke-width="1.0" d="M 607.5427506451152, 129.0L665.2166890171208, 129.0"/>
<path fill="none" stroke="#000000" stroke-width="1.0" d="M 599.4086976196851, 135.0L674.9210054499722, 135.0"/>
<path fill="none" stroke="#000000" stroke-width="1.0" d="M 585.2235363603136, 141.0L677.7138554355754, 141.0"/>
<path fill="none" stroke="#000000" stroke-width="1.0" d="M 579.4659074541912, 147.0L680.1462931779537, 147.0"/>
<path fill="none" stroke="#000000" stroke-width="1.0" d="M 578.0050721220942, 153.0L682.2918422394055, 153.0"/>
<path fill="none" stroke="#000000" stroke-width="1.0" d="M 575.6503136234901, 159.0L682.9393593973518, 159.0"/>
<path fill="none" stroke="#000000" stroke-width="1.0" d="M 573.0288036503114, 165.0L683.2707427807399, 165.0"/>
<path fill="none" stroke="#000000" stroke-width="1.0" d="M 571.7356543697525, 171.0L683.7250179336879, 171.0"/>
<path fill="none" stroke="#000000" stroke-width="1.0" d="M 567.2195601194787, 177.0L684.0549988432431, 177.0"/>
<path fill="none" stroke="#000000" stroke-width="1.0" d="M 564.99876256055, 183.0L684.0134994964526, 183.0"/>
<path fill="none" stroke="#000000" stroke-width="1.0" d="M 564.1013863311767, 189.0L683.4933230835084, 189.0"/>
<path fill="none" stroke="#000000" stroke-width="1.0" d="M 563.9548448170052, 195.0L682.6453633307749, 195.0"/>
<path fill="none" stroke="#000000" stroke-width="1.0" d="M 565.3144472082797, 201.0L680.972497452136, 201.0"/>
<path fill="none" stroke="#000000" stroke-width="1.0" d="M 566.0515087224633, 207.0L675.105352609804, 207.0"/>
<path fill="none" stroke="#000000" stroke-width="1.0" d="M 567.4923132001794, 213.0L669.8448307719378, 213.0"/>
<path fill="none" stroke="#000000" stroke-width="1.0" d="M 569.9683724490855, 219.0L672.6897066194051, 219.0"/>
<path fill="none" stroke="#000000" stroke-width="1.0" d="M 572.5831890618125, 225.0L675.698497084889, 225.0"/>
<path fill="none" stroke="#000000" stroke-width="1.0" d="M 734.6667090756937, 225.0L744.3999999999999, 225.0"/>
<path fill="none" stroke="#000000" stroke-width="1.0" d="M 588.7397705792712, 231.0L677.944454893339, 231.0"/>
<path fill="none" stroke="#000000" stroke-width="1.0" d="M 716.2239324478263, 231.0L757.6168532288924, 231.0"/>
<path fill="none" stroke="#000000" stroke-width="1.0" d="M 588.1387215434705, 237.0L678.8076924907209, 237.0"/>
<path fill="none" stroke="#000000" stroke-width="1.0" d="M 712.3110530547547, 237.0L762.5255245525507, 237.0"/>
<path fill="none" stroke="#000000" stroke-width="1.0" d="M 586.5516972452964, 243.0L680.115741641602, 243.0"/>
<path fill="none" stroke="#000000" stroke-width="1.0" d="M 709.0141671546032, 243.0L765.0060756492471, 243.0"/>
<path fill="none" stroke="#000000" stroke-width="1.0" d="M 582.2384231980235, 249.0L677.4165811325312, 249.0"/>
<path fill="none" stroke="#000000" stroke-width="1.0" d="M 707.1933704091855, 249.0L766.2743408321254, 249.0"/>
<path fill="none" stroke="#000000" stroke-width="1.0" d="M 580.2219677030188, 255.0L676.8718457360409, 255.0"/>
<path fill="none" stroke="#000000" stroke-width="1.0" d="M 705.0670760181323, 255.0L768.7241584721487, 255.0"/>
<path fill="none" stroke="#000000" stroke-width="1.0" d="M 862.2132321436072, 255.0L888.9384628353623, 255.0"/>
<path fill="none" stroke="#000000" stroke-width="1.0" d="M 578.8206266801982, 261.0L676.65049663436, 261.0"/>
<path fill="none" stroke="#000000" stroke-width="1.0" d="M 706.2699483732337, 261.0L771.1, 261.0"/>
<path fill="none" stroke="#000000" stroke-width="1.0" d="M 851.4000000000001, 261.0L895.1469230943793, 261.0"/>
<path fill="none" stroke="#000000" stroke-width="1.0" d="M 577.4349061693024, 267.0L675.243197515498, 267.0"/>
<path fill="none" stroke="#000000" stroke-width="1.0" d="M 707.530624371766, 267.0L769.0524023388956, 267.0"/>
<path fill="none" stroke="#000000" stroke-width="1.0" d="M 847.5083030162506, 267.0L901.0854472470704, 267.0"/>
<path fill="none" stroke="#000000" stroke-width="1.0" d="M 575.3700156135839, 273.0L675.0, 273.0"/>
<path fill="none" stroke="#000000" stroke-width="1.0" d="M 710.9258642480629, 273.0L763.7381387018584, 273.0"/>
<path fill="none" stroke="#000000" stroke-width="1.0" d="M 846.3771679063921, 273.0L902.0656570504716, 273.0"/>
<path fill="none" stroke="#000000" stroke-width="1.0" d="M 573.2574111125099, 279.0L675.0, 279.0"/>
<path fill="none" stroke="#000000" stroke-width="1.0" d="M 714.095079204691, 279.0L759.099807717216, 279.0"/>
<path fill="none" stroke="#000000" stroke-width="1.0" d="M 846.2814739399582, 279.0L902.2743397527935, 279.0"/>
<path fill="none" stroke="#000000" stroke-width="1.0" d="M 572.6719493168899, 285.0L675.0, 285.0"/>
<path fill="none" stroke="#000000" stroke-width="1.0" d="M 710.5534045861762, 285.0L759.1637834658036, 285.0"/>
<path fill="none" stroke="#000000" stroke-width="1.0" d="M 846.2555555555557, 285.0L902.1900498564303, 285.0"/>
<path fill="none" stroke="#000000" stroke-width="1.0" d="M 572.2324502418925, 291.0L675.0, 291.0"/>
<path fill="none" stroke="#000000" stroke-width="1.0" d="M 697.3370287827765, 291.0L766.3264734122181, 291.0"/>
<path fill="none" stroke="#000000" stroke-width="1.0" d="M 846.8417050421688, 291.0L902.3368055555553, 291.0"/>
<path fill="none" stroke="#000000" stroke-width="1.0" d="M 572.1856191069905, 297.0L675.0, 297.0"/>
<path fill="none" stroke="#000000" stroke-width="1.0" d="M 685.8669855709963, 297.0L778.0883730263124, 297.0"/>
<path fill="none" stroke="#000000" stroke-width="1.0" d="M 848.1128811223268, 297.0L903.2199925322751, 297.0"/>
<path fill="none" stroke="#000000" stroke-width="1.0" d="M 572.1702891800687, 303.0L675.2253400338328, 303.0"/>
<path fill="none" stroke="#000000" stroke-width="1.0" d="M 680.5754954742533, 303.0L785.298697662279, 303.0"/>
<path fill="none" stroke="#000000" stroke-width="1.0" d="M 848.2162666012325, 303.0L901.1338335596186, 303.0"/>
<path fill="none" stroke="#000000" stroke-width="1.0" d="M 572.1601392853966, 309.0L789.3999999999999, 309.0"/>
<path fill="none" stroke="#000000" stroke-width="1.0" d="M 848.6300069991942, 309.0L895.9859447783263, 309.0"/>
<path fill="none" stroke="#000000" stroke-width="1.0" d="M 436.4083273247754, 315.0L460.3890630392018, 315.0"/>
<path fill="none" stroke="#000000" stroke-width="1.0" d="M 572.1541048515062, 315.0L794.7266795647141, 315.0"/>
<path fill="none" stroke="#000000" stroke-width="1.0" d="M 853.5603342288866, 315.0L893.3000000000001, 315.0"/>
<path fill="none" stroke="#000000" stroke-width="1.0" d="M 428.3129337076672, 321.0L471.7952765823983, 321.0"/>
<path fill="none" stroke="#000000" stroke-width="1.0" d="M 572.151117640396, 321.0L798.2659706357347, 321.0"/>
<path fill="none" stroke="#000000" stroke-width="1.0" d="M 850.2723350824414, 321.0L898.5250012985073, 321.0"/>
<path fill="none" stroke="#000000" stroke-width="1.0" d="M 422.68472284826646, 327.0L475.8635871368396, 327.0"/>
<path fill="none" stroke="#000000" stroke-width="1.0" d="M 572.1501066943737, 327.0L801.3172278923295, 327.0"/>
<path fill="none" stroke="#000000" stroke-width="1.0" d="M 838.118347618811, 327.0L907.4721495954416, 327.0"/>
<path fill="none" stroke="#000000" stroke-width="1.0" d="M 417.18536724747264, 333.0L478.8331766001779, 333.0"/>
<path fill="none" stroke="#000000" stroke-width="1.0" d="M 572.1499992896842, 333.0L802.8440622446227, 333.0"/>
<path fill="none" stroke="#000000" stroke-width="1.0" d="M 832.6294210901515, 333.0L914.7646611288176, 333.0"/>
<path fill="none" stroke="#000000" stroke-width="1.0" d="M 415.31913824641003, 339.0L481.0653801154506, 339.0"/>
<path fill="none" stroke="#000000" stroke-width="1.0" d="M 572.149721894554, 339.0L803.5154282136882, 339.0"/>
<path fill="none" stroke="#000000" stroke-width="1.0" d="M 828.7408442182684, 339.0L920.3942650700142, 339.0"/>
<path fill="none" stroke="#000000" stroke-width="1.0" d="M 414.05091733693695, 345.0L482.0660721644422, 345.0"/>
<path fill="none" stroke="#000000" stroke-width="1.0" d="M 572.1482011292563, 345.0L803.8564095141194, 345.0"/>
<path fill="none" stroke="#000000" stroke-width="1.0" d="M 823.8358940290975, 345.0L923.2736538657109, 345.0"/>
<path fill="none" stroke="#000000" stroke-width="1.0" d="M 414.1166650457486, 351.0L482.06214849190604, 351.0"/>
<path fill="none" stroke="#000000" stroke-width="1.0" d="M 572.1443647257964, 351.0L661.8180046320846, 351.0"/>
<path fill="none" stroke="#000000" stroke-width="1.0" d="M 668.7484196601977, 351.0L804.0070008403493, 351.0"/>
<path fill="none" stroke="#000000" stroke-width="1.0" d="M 818.3609822976032, 351.0L925.0183481082115, 351.0"/>
<path fill="none" stroke="#000000" stroke-width="1.0" d="M 414.7850960044433, 357.0L481.10040946015243, 357.0"/>
<path fill="none" stroke="#000000" stroke-width="1.0" d="M 572.1371424848154, 357.0L660.257035357265, 357.0"/>
<path fill="none" stroke="#000000" stroke-width="1.0" d="M 668.5065419762326, 357.0L804.0384010648806, 357.0"/>
<path fill="none" stroke="#000000" stroke-width="1.0" d="M 814.322651196274, 357.0L929.0894129260323, 357.0"/>
<path fill="none" stroke="#000000" stroke-width="1.0" d="M 417.27403301015, 363.0L478.72656296825556, 363.0"/>
<path fill="none" stroke="#000000" stroke-width="1.0" d="M 572.1254672273242, 363.0L658.7125, 363.0"/>
<path fill="none" stroke="#000000" stroke-width="1.0" d="M 667.5584469493281, 363.0L804.0211747803284, 363.0"/>
<path fill="none" stroke="#000000" stroke-width="1.0" d="M 810.8820915957334, 363.0L930.107625993548, 363.0"/>
<path fill="none" stroke="#000000" stroke-width="1.0" d="M 421.34133159820055, 369.0L476.3057043015572, 369.0"/>
<path fill="none" stroke="#000000" stroke-width="1.0" d="M 572.1082757389088, 369.0L659.8024379597001, 369.0"/>
<path fill="none" stroke="#000000" stroke-width="1.0" d="M 666.1715563611758, 369.0L804.0258261024497, 369.0"/>
<path fill="none" stroke="#000000" stroke-width="1.0" d="M 809.1911774504663, 369.0L928.7734406264061, 369.0"/>
<path fill="none" stroke="#000000" stroke-width="1.0" d="M 424.27656458191007, 375.0L476.32131176609516, 375.0"/>
<path fill="none" stroke="#000000" stroke-width="1.0" d="M 572.3002550658744, 375.0L661.4, 375.0"/>
<path fill="none" stroke="#000000" stroke-width="1.0" d="M 661.4, 375.0L663.4, 375.0"/>
<path fill="none" stroke="#000000" stroke-width="1.0" d="M 663.4000000000001, 375.0L804.1820358469131, 375.0"/>
<path fill="none" stroke="#000000" stroke-width="1.0" d="M 810.3576962653126, 375.0L924.6720751389726, 375.0"/>
<path fill="none" stroke="#000000" stroke-width="1.0" d="M 422.70086728855097, 381.0L477.26449888350317, 381.0"/>
<path fill="none" stroke="#000000" stroke-width="1.0" d="M 573.7440943214147, 381.0L809.5339436885733, 381.0"/>
<path fill="none" stroke="#000000" stroke-width="1.0" d="M 812.5872072442928, 381.0L924.2062508481894, 381.0"/>
<path fill="none" stroke="#000000" stroke-width="1.0" d="M 411.85627419032255, 387.0L483.39999999999986, 387.0"/>
<path fill="none" stroke="#000000" stroke-width="1.0" d="M 576.0674620838113, 387.0L815.4697545329186, 387.0"/>
<path fill="none" stroke="#000000" stroke-width="1.0" d="M 832.0484851403062, 387.0L924.0686815919046, 387.0"/>
<path fill="none" stroke="#000000" stroke-width="1.0" d="M 399.6635963454032, 393.0L493.51307115741383, 393.0"/>
<path fill="none" stroke="#000000" stroke-width="1.0" d="M 576.0999999999999, 393.0L662.0064127914764, 393.0"/>
<path fill="none" stroke="#000000" stroke-width="1.0" d="M 667.3324802937049, 393.0L820.1621394501302, 393.0"/>
<path fill="none" stroke="#000000" stroke-width="1.0" d="M 833.3217787126354, 393.0L922.1037348597623, 393.0"/>
<path fill="none" stroke="#000000" stroke-width="1.0" d="M 394.21331182700783, 399.0L498.1633491024256, 399.0"/>
<path fill="none" stroke="#000000" stroke-width="1.0" d="M 576.0999999999999, 399.0L661.606446602998, 399.0"/>
<path fill="none" stroke="#000000" stroke-width="1.0" d="M 670.8911013536373, 399.0L826.7415151405298, 399.0"/>
<path fill="none" stroke="#000000" stroke-width="1.0" d="M 833.7330933361449, 399.0L911.4647037547492, 399.0"/>
<path fill="none" stroke="#000000" stroke-width="1.0" d="M 391.2522073225721, 405.0L501.2084470351313, 405.0"/>
<path fill="none" stroke="#000000" stroke-width="1.0" d="M 576.5237991744768, 405.0L607.97086699254, 405.0"/>
<path fill="none" stroke="#000000" stroke-width="1.0" d="M 614.4992128171776, 405.0L661.2187237610642, 405.0"/>
<path fill="none" stroke="#000000" stroke-width="1.0" d="M 677.7321922088527, 405.0L830.7978810568934, 405.0"/>
<path fill="none" stroke="#000000" stroke-width="1.0" d="M 831.6374271836434, 405.0L909.1305893999977, 405.0"/>
<path fill="none" stroke="#000000" stroke-width="1.0" d="M 386.5842162180474, 411.0L504.2662768118512, 411.0"/>
<path fill="none" stroke="#000000" stroke-width="1.0" d="M 617.0857525803543, 411.0L663.3313258648568, 411.0"/>
<path fill="none" stroke="#000000" stroke-width="1.0" d="M 685.1044020058065, 411.0L908.2337632812352, 411.0"/>
<path fill="none" stroke="#000000" stroke-width="1.0" d="M 386.16231512208105, 417.0L504.2221937733952, 417.0"/>
<path fill="none" stroke="#000000" stroke-width="1.0" d="M 617.0189699628022, 417.0L665.8072448730059, 417.0"/>
<path fill="none" stroke="#000000" stroke-width="1.0" d="M 689.2079540992701, 417.0L908.2376522159947, 417.0"/>
<path fill="none" stroke="#000000" stroke-width="1.0" d="M 384.6487543874448, 423.0L505.53359628882015, 423.0"/>
<path fill="none" stroke="#000000" stroke-width="1.0" d="M 617.0634122356232, 423.0L666.6968073536091, 423.0"/>
<path fill="none" stroke="#000000" stroke-width="1.0" d="M 688.2542074224418, 423.0L908.1471549936136, 423.0"/>
<path fill="none" stroke="#000000" stroke-width="1.0" d="M 383.7061317734252, 429.0L506.41609743758227, 429.0"/>
<path fill="none" stroke="#000000" stroke-width="1.0" d="M 617.4868812387872, 429.0L668.0, 429.0"/>
<path fill="none" stroke="#000000" stroke-width="1.0" d="M 692.5661543721671, 429.0L908.1309585441288, 429.0"/>
<path fill="none" stroke="#000000" stroke-width="1.0" d="M 383.30740674628834, 435.0L506.3061696342193, 435.0"/>
<path fill="none" stroke="#000000" stroke-width="1.0" d="M 619.0706540583836, 435.0L668.0057873528564, 435.0"/>
<path fill="none" stroke="#000000" stroke-width="1.0" d="M 699.5139543671407, 435.0L781.5143074935987, 435.0"/>
<path fill="none" stroke="#000000" stroke-width="1.0" d="M 787.0982023112925, 435.0L908.2146437690792, 435.0"/>
<path fill="none" stroke="#000000" stroke-width="1.0" d="M 383.13744721958835, 441.0L505.0108505118108, 441.0"/>
<path fill="none" stroke="#000000" stroke-width="1.0" d="M 622.1794315241418, 441.0L668.0170474903618, 441.0"/>
<path fill="none" stroke="#000000" stroke-width="1.0" d="M 706.4443681864245, 441.0L759.0958943173437, 441.0"/>
<path fill="none" stroke="#000000" stroke-width="1.0" d="M 788.0575664330867, 441.0L828.185692557267, 441.0"/>
<path fill="none" stroke="#000000" stroke-width="1.0" d="M 832.8664559950358, 441.0L907.7624529009572, 441.0"/>
<path fill="none" stroke="#000000" stroke-width="1.0" d="M 383.0920005992161, 447.0L505.44925462706567, 447.0"/>
<path fill="none" stroke="#000000" stroke-width="1.0" d="M 623.7921450999111, 447.0L668.024698211332, 447.0"/>
<path fill="none" stroke="#000000" stroke-width="1.0" d="M 708.239615532518, 447.0L759.0, 447.0"/>
<path fill="none" stroke="#000000" stroke-width="1.0" d="M 787.0899295754155, 447.0L819.6234158551616, 447.0"/>
<path fill="none" stroke="#000000" stroke-width="1.0" d="M 831.4783882968427, 447.0L906.1401936708908, 447.0"/>
<path fill="none" stroke="#000000" stroke-width="1.0" d="M 383.1213231496371, 453.0L505.48593750000003, 453.0"/>
<path fill="none" stroke="#000000" stroke-width="1.0" d="M 624.2154870889624, 453.0L668.0196961200256, 453.0"/>
<path fill="none" stroke="#000000" stroke-width="1.0" d="M 710.7853627163367, 453.0L758.9999999999999, 453.0"/>
<path fill="none" stroke="#000000" stroke-width="1.0" d="M 785.9463504157343, 453.0L818.8176352244243, 453.0"/>
<path fill="none" stroke="#000000" stroke-width="1.0" d="M 827.2610350143669, 453.0L905.7032672387677, 453.0"/>
<path fill="none" stroke="#000000" stroke-width="1.0" d="M 383.1748116733222, 459.0L504.6451578215498, 459.0"/>
<path fill="none" stroke="#000000" stroke-width="1.0" d="M 627.0145700445132, 459.0L667.9929681387691, 459.0"/>
<path fill="none" stroke="#000000" stroke-width="1.0" d="M 723.1117483268964, 459.0L758.9999999999999, 459.0"/>
<path fill="none" stroke="#000000" stroke-width="1.0" d="M 785.9578790850833, 459.0L901.8362701660456, 459.0"/>
<path fill="none" stroke="#000000" stroke-width="1.0" d="M 382.85817062365595, 465.0L504.2665863803095, 465.0"/>
<path fill="none" stroke="#000000" stroke-width="1.0" d="M 629.7796311142991, 465.0L667.9353427406555, 465.0"/>
<path fill="none" stroke="#000000" stroke-width="1.0" d="M 723.66707472021, 465.0L758.9999999999999, 465.0"/>
<path fill="none" stroke="#000000" stroke-width="1.0" d="M 783.3568585126782, 465.0L893.281399733962, 465.0"/>
<path fill="none" stroke="#000000" stroke-width="1.0" d="M 379.28848683012296, 471.0L503.367379146981, 471.0"/>
<path fill="none" stroke="#000000" stroke-width="1.0" d="M 631.081856299944, 471.0L667.575, 471.0"/>
<path fill="none" stroke="#000000" stroke-width="1.0" d="M 726.095048781068, 471.0L758.9999999999999, 471.0"/>
<path fill="none" stroke="#000000" stroke-width="1.0" d="M 782.9958077353288, 471.0L891.0179530811055, 471.0"/>
<path fill="none" stroke="#000000" stroke-width="1.0" d="M 377.53013490359734, 477.0L502.1461303467653, 477.0"/>
<path fill="none" stroke="#000000" stroke-width="1.0" d="M 630.4774531695887, 477.0L666.2882990144738, 477.0"/>
<path fill="none" stroke="#000000" stroke-width="1.0" d="M 727.4388974482545, 477.0L758.9999999999999, 477.0"/>
<path fill="none" stroke="#000000" stroke-width="1.0" d="M 782.9858676456122, 477.0L886.9751504260519, 477.0"/>
<path fill="none" stroke="#000000" stroke-width="1.0" d="M 373.8822023731002, 483.0L500.9313356918, 483.0"/>
<path fill="none" stroke="#000000" stroke-width="1.0" d="M 626.8716030493244, 483.0L665.9986770280906, 483.0"/>
<path fill="none" stroke="#000000" stroke-width="1.0" d="M 728.5409992196323, 483.0L758.9999999999999, 483.0"/>
<path fill="none" stroke="#000000" stroke-width="1.0" d="M 782.9769838843515, 483.0L883.6023450403003, 483.0"/>
<path fill="none" stroke="#000000" stroke-width="1.0" d="M 370.6280326144207, 489.0L498.5903972032051, 489.0"/>
<path fill="none" stroke="#000000" stroke-width="1.0" d="M 622.8332972965111, 489.0L667.0917071528477, 489.0"/>
<path fill="none" stroke="#000000" stroke-width="1.0" d="M 729.0848255770549, 489.0L759.0, 489.0"/>
<path fill="none" stroke="#000000" stroke-width="1.0" d="M 782.9759795923842, 489.0L811.8, 489.0"/>
<path fill="none" stroke="#000000" stroke-width="1.0" d="M 815.6999999999999, 489.0L844.4999999999999, 489.0"/>
<path fill="none" stroke="#000000" stroke-width="1.0" d="M 844.4999999999999, 489.0L878.9216814540675, 489.0"/>
<path fill="none" stroke="#000000" stroke-width="1.0" d="M 369.26527911046634, 495.0L499.5193496911485, 495.0"/>
<path fill="none" stroke="#000000" stroke-width="1.0" d="M 617.224519594387, 495.0L667.794442004894, 495.0"/>
<path fill="none" stroke="#000000" stroke-width="1.0" d="M 730.5301355206602, 495.0L759.0, 495.0"/>
<path fill="none" stroke="#000000" stroke-width="1.0" d="M 782.9896350939566, 495.0L811.8, 495.0"/>
<path fill="none" stroke="#000000" stroke-width="1.0" d="M 814.5412504181775, 495.0L841.3540696567063, 495.0"/>
<path fill="none" stroke="#000000" stroke-width="1.0" d="M 846.409800809057, 495.0L876.6936434664235, 495.0"/>
<path fill="none" stroke="#000000" stroke-width="1.0" d="M 368.348672008927, 501.0L504.8841924841339, 501.0"/>
<path fill="none" stroke="#000000" stroke-width="1.0" d="M 611.2922300538204, 501.0L640.7392837283713, 501.0"/>
<path fill="none" stroke="#000000" stroke-width="1.0" d="M 645.5000000000001, 501.0L666.8085872243453, 501.0"/>
<path fill="none" stroke="#000000" stroke-width="1.0" d="M 735.0367507530244, 501.0L758.9999999999999, 501.0"/>
<path fill="none" stroke="#000000" stroke-width="1.0" d="M 783.0246690479254, 501.0L808.9771994975424, 501.0"/>
<path fill="none" stroke="#000000" stroke-width="1.0" d="M 812.9000000000001, 501.0L876.0023264048032, 501.0"/>
<path fill="none" stroke="#000000" stroke-width="1.0" d="M 368.4798137126794, 507.0L508.41280940529464, 507.0"/>
<path fill="none" stroke="#000000" stroke-width="1.0" d="M 648.8418237735824, 507.0L663.8864483985556, 507.0"/>
<path fill="none" stroke="#000000" stroke-width="1.0" d="M 737.1308515447355, 507.0L763.1481206761338, 507.0"/>
<path fill="none" stroke="#000000" stroke-width="1.0" d="M 783.0877201216324, 507.0L805.4035721707089, 507.0"/>
<path fill="none" stroke="#000000" stroke-width="1.0" d="M 812.9000000000001, 507.0L873.6280454956056, 507.0"/>
<path fill="none" stroke="#000000" stroke-width="1.0" d="M 369.9948790961611, 513.0L511.95874580459133, 513.0"/>
<path fill="none" stroke="#000000" stroke-width="1.0" d="M 738.463516559524, 513.0L764.7836068317914, 513.0"/>
<path fill="none" stroke="#000000" stroke-width="1.0" d="M 782.5671433073728, 513.0L803.9132997472974, 513.0"/>
<path fill="none" stroke="#000000" stroke-width="1.0" d="M 812.8999999999999, 513.0L873.0225365303905, 513.0"/>
<path fill="none" stroke="#000000" stroke-width="1.0" d="M 371.83178614572796, 519.0L518.2717565885315, 519.0"/>
<path fill="none" stroke="#000000" stroke-width="1.0" d="M 741.10596277796, 519.0L766.6625224097252, 519.0"/>
<path fill="none" stroke="#000000" stroke-width="1.0" d="M 781.1522932838138, 519.0L803.9444135423793, 519.0"/>
<path fill="none" stroke="#000000" stroke-width="1.0" d="M 812.8999999999999, 519.0L873.0729447485414, 519.0"/>
<path fill="none" stroke="#000000" stroke-width="1.0" d="M 374.4987109809457, 525.0L526.966571116312, 525.0"/>
<path fill="none" stroke="#000000" stroke-width="1.0" d="M 741.0555425845411, 525.0L769.1393846214374, 525.0"/>
<path fill="none" stroke="#000000" stroke-width="1.0" d="M 779.5897614852062, 525.0L803.9249008051299, 525.0"/>
<path fill="none" stroke="#000000" stroke-width="1.0" d="M 812.9878168790594, 525.0L871.976683529432, 525.0"/>
<path fill="none" stroke="#000000" stroke-width="1.0" d="M 375.2808827565547, 531.0L535.339279336301, 531.0"/>
<path fill="none" stroke="#000000" stroke-width="1.0" d="M 738.61738446056, 531.0L803.9010315553203, 531.0"/>
<path fill="none" stroke="#000000" stroke-width="1.0" d="M 812.3456657030349, 531.0L832.8000000000001, 531.0"/>
<path fill="none" stroke="#000000" stroke-width="1.0" d="M 838.9068099730345, 531.0L870.1412176666521, 531.0"/>
<path fill="none" stroke="#000000" stroke-width="1.0" d="M 376.22144582791657, 537.0L538.3064605258271, 537.0"/>
<path fill="none" stroke="#000000" stroke-width="1.0" d="M 737.5901318149682, 537.0L832.8, 537.0"/>
<path fill="none" stroke="#000000" stroke-width="1.0" d="M 835.4228502702317, 537.0L865.7437762625311, 537.0"/>
<path fill="none" stroke="#000000" stroke-width="1.0" d="M 371.1311172328329, 543.0L540.2987493261257, 543.0"/>
<path fill="none" stroke="#000000" stroke-width="1.0" d="M 737.0124803957619, 543.0L827.6482790781885, 543.0"/>
<path fill="none" stroke="#000000" stroke-width="1.0" d="M 833.9741247488796, 543.0L862.4028723449525, 543.0"/>
<path fill="none" stroke="#000000" stroke-width="1.0" d="M 331.7350130219629, 549.0L355.79999999999995, 549.0"/>
<path fill="none" stroke="#000000" stroke-width="1.0" d="M 356.8814510570647, 549.0L538.8804812705592, 549.0"/>
<path fill="none" stroke="#000000" stroke-width="1.0" d="M 736.9388761672619, 549.0L826.3000346021992, 549.0"/>
<path fill="none" stroke="#000000" stroke-width="1.0" d="M 832.9810596792893, 549.0L857.9278601005827, 549.0"/>
<path fill="none" stroke="#000000" stroke-width="1.0" d="M 326.6077344237342, 555.0L536.0718222425126, 555.0"/>
<path fill="none" stroke="#000000" stroke-width="1.0" d="M 737.096652090143, 555.0L826.5377868184249, 555.0"/>
<path fill="none" stroke="#000000" stroke-width="1.0" d="M 829.4383436910825, 555.0L855.066627725733, 555.0"/>
<path fill="none" stroke="#000000" stroke-width="1.0" d="M 320.58122960207004, 561.0L530.1240889957114, 561.0"/>
<path fill="none" stroke="#000000" stroke-width="1.0" d="M 746.7612052024053, 561.0L854.0261216184533, 561.0"/>
<path fill="none" stroke="#000000" stroke-width="1.0" d="M 319.9225590180356, 567.0L522.7594628588006, 567.0"/>
<path fill="none" stroke="#000000" stroke-width="1.0" d="M 753.8259783200324, 567.0L854.0232023388179, 567.0"/>
<path fill="none" stroke="#000000" stroke-width="1.0" d="M 321.52856755170365, 573.0L504.8154160120398, 573.0"/>
<path fill="none" stroke="#000000" stroke-width="1.0" d="M 760.2882628852173, 573.0L853.2032244022903, 573.0"/>
<path fill="none" stroke="#000000" stroke-width="1.0" d="M 323.03313863877435, 579.0L385.1313876216284, 579.0"/>
<path fill="none" stroke="#000000" stroke-width="1.0" d="M 790.9072582489915, 579.0L799.2193458142574, 579.0"/>
<path fill="none" stroke="#000000" stroke-width="1.0" d="M 817.4238858928247, 579.0L845.9946718159445, 579.0"/>
<path fill="none" stroke="#000000" stroke-width="1.0" d="M 323.15888804437736, 585.0L373.764145877637, 585.0"/>
<path fill="none" stroke="#000000" stroke-width="1.0" d="M 324.0175212694471, 591.0L352.5999999999999, 591.0"/>
<path fill="none" stroke="#000000" stroke-width="1.0" d="M 329.7456175666151, 597.0L343.8195055269332, 597.0"/>
</g>
</svg>