<?xml version="1.0" encoding="utf-8"?>
<!-- Generator: Adobe Illustrator 22.1.0, SVG Export Plug-In . SVG Version: 6.00 Build 0)  -->
<svg version="1.1" baseProfile="tiny" id="Layer_1" xmlns="http://www.w3.org/2000/svg" xmlns:xlink="http://www.w3.org/1999/xlink"
	 x="0px" y="0px" viewBox="0 0 1280 720" xml:space="preserve">
<g>
	<path d="M592.5,338.5V351H511v-12.5H592.5z M534.4,276.6v13.4h34.4v-13.4h15.4v48.7H519v-48.7H534.4z M534.4,313.1h34.4V302h-34.4
		V313.1z"/>
	<path d="M680.8,336.8h-33.1v24.6h-15.6v-24.6h-32.8v-12.2h81.5V336.8z M655.8,285.7h-47.4v-12.1h63.3v28.6h-47.3v5.2H674v12.1
		h-65.5v-28.7h47.3V285.7z"/>
	<path d="M769.1,338.4v12.5h-81.5v-12.5H769.1z M760.5,324.9c-16.4-3-27-11.2-32.6-21.7c-5.8,10.5-16.2,18.7-32.5,21.7l-6.4-12.9
		c22.7-3.8,30.7-18.3,30.7-29.9v-6.3h16.6v6.3c0,11.9,7.8,26.1,30.7,29.9L760.5,324.9z"/>
</g>
</svg>
