<?xml version="1.0" encoding="utf-8"?>
<!-- Generator: Adobe Illustrator 22.1.0, SVG Export Plug-In . SVG Version: 6.00 Build 0)  -->
<svg version="1.1" baseProfile="tiny" id="Layer_1" xmlns="http://www.w3.org/2000/svg" xmlns:xlink="http://www.w3.org/1999/xlink"
	 x="0px" y="0px" viewBox="0 0 1280 720" xml:space="preserve">
<line fill="#FFFFFF" stroke="#000000" stroke-miterlimit="10" x1="302.5" y1="0" x2="964.5" y2="0"/>
<line fill="#FFFFFF" stroke="#000000" stroke-miterlimit="10" x1="303" y1="11.4" x2="965" y2="11.4"/>
<line fill="#FFFFFF" stroke="#000000" stroke-miterlimit="10" x1="302.5" y1="22.9" x2="964.5" y2="22.9"/>
<line fill="#FFFFFF" stroke="#000000" stroke-miterlimit="10" x1="303" y1="34.3" x2="965" y2="34.3"/>
<line fill="#FFFFFF" stroke="#000000" stroke-miterlimit="10" x1="302.5" y1="45.7" x2="964.5" y2="45.7"/>
<line fill="#FFFFFF" stroke="#000000" stroke-miterlimit="10" x1="303" y1="57.1" x2="965" y2="57.1"/>
<line fill="#FFFFFF" stroke="#000000" stroke-miterlimit="10" x1="302.5" y1="68.6" x2="964.5" y2="68.6"/>
<line fill="#FFFFFF" stroke="#000000" stroke-miterlimit="10" x1="303" y1="80" x2="965" y2="80"/>
<line fill="#FFFFFF" stroke="#000000" stroke-miterlimit="10" x1="302.5" y1="91.4" x2="964.5" y2="91.4"/>
<line fill="#FFFFFF" stroke="#000000" stroke-miterlimit="10" x1="303" y1="102.9" x2="965" y2="102.9"/>
<line fill="#FFFFFF" stroke="#000000" stroke-miterlimit="10" x1="302.5" y1="114.3" x2="964.5" y2="114.3"/>
<line fill="#FFFFFF" stroke="#000000" stroke-miterlimit="10" x1="303" y1="125.7" x2="965" y2="125.7"/>
<line fill="#FFFFFF" stroke="#000000" stroke-miterlimit="10" x1="302.5" y1="137.1" x2="964.5" y2="137.1"/>
<line fill="#FFFFFF" stroke="#000000" stroke-miterlimit="10" x1="303" y1="148.6" x2="965" y2="148.6"/>
<line fill="#FFFFFF" stroke="#000000" stroke-miterlimit="10" x1="302.5" y1="160" x2="964.5" y2="160"/>
<line fill="#FFFFFF" stroke="#000000" stroke-miterlimit="10" x1="303" y1="171.4" x2="965" y2="171.4"/>
<line fill="#FFFFFF" stroke="#000000" stroke-miterlimit="10" x1="302.5" y1="182.9" x2="964.5" y2="182.9"/>
<line fill="#FFFFFF" stroke="#000000" stroke-miterlimit="10" x1="303" y1="194.3" x2="965" y2="194.3"/>
<line fill="#FFFFFF" stroke="#000000" stroke-miterlimit="10" x1="302.5" y1="205.7" x2="964.5" y2="205.7"/>
<line fill="#FFFFFF" stroke="#000000" stroke-miterlimit="10" x1="303" y1="217.1" x2="965" y2="217.1"/>
<line fill="#FFFFFF" stroke="#000000" stroke-miterlimit="10" x1="302.5" y1="228.6" x2="964.5" y2="228.6"/>
<line fill="#FFFFFF" stroke="#000000" stroke-miterlimit="10" x1="303" y1="240" x2="965" y2="240"/>
<line fill="#FFFFFF" stroke="#000000" stroke-miterlimit="10" x1="302.5" y1="251.4" x2="964.5" y2="251.4"/>
<line fill="#FFFFFF" stroke="#000000" stroke-miterlimit="10" x1="303" y1="262.9" x2="965" y2="262.9"/>
<line fill="#FFFFFF" stroke="#000000" stroke-miterlimit="10" x1="302.5" y1="274.3" x2="964.5" y2="274.3"/>
<line fill="#FFFFFF" stroke="#000000" stroke-miterlimit="10" x1="303" y1="285.7" x2="965" y2="285.7"/>
<line fill="#FFFFFF" stroke="#000000" stroke-miterlimit="10" x1="302.5" y1="297.1" x2="964.5" y2="297.1"/>
<line fill="#FFFFFF" stroke="#000000" stroke-miterlimit="10" x1="303" y1="308.6" x2="965" y2="308.6"/>
<line fill="#FFFFFF" stroke="#000000" stroke-miterlimit="10" x1="302.5" y1="320" x2="964.5" y2="320"/>
<line fill="#FFFFFF" stroke="#000000" stroke-miterlimit="10" x1="303" y1="331.4" x2="965" y2="331.4"/>
<line fill="#FFFFFF" stroke="#000000" stroke-miterlimit="10" x1="302.5" y1="342.9" x2="964.5" y2="342.9"/>
<line fill="#FFFFFF" stroke="#000000" stroke-miterlimit="10" x1="303" y1="354.3" x2="965" y2="354.3"/>
<line fill="#FFFFFF" stroke="#000000" stroke-miterlimit="10" x1="302.5" y1="365.7" x2="964.5" y2="365.7"/>
<line fill="#FFFFFF" stroke="#000000" stroke-miterlimit="10" x1="303" y1="377.1" x2="965" y2="377.1"/>
<line fill="#FFFFFF" stroke="#000000" stroke-miterlimit="10" x1="302.5" y1="388.6" x2="964.5" y2="388.6"/>
<line fill="#FFFFFF" stroke="#000000" stroke-miterlimit="10" x1="303" y1="400" x2="965" y2="400"/>
<line fill="#FFFFFF" stroke="#000000" stroke-miterlimit="10" x1="302.5" y1="411.4" x2="964.5" y2="411.4"/>
<line fill="#FFFFFF" stroke="#000000" stroke-miterlimit="10" x1="303" y1="422.9" x2="965" y2="422.9"/>
<line fill="#FFFFFF" stroke="#000000" stroke-miterlimit="10" x1="302.5" y1="434.3" x2="964.5" y2="434.3"/>
<line fill="#FFFFFF" stroke="#000000" stroke-miterlimit="10" x1="303" y1="445.7" x2="965" y2="445.7"/>
<line fill="#FFFFFF" stroke="#000000" stroke-miterlimit="10" x1="302.5" y1="457.1" x2="964.5" y2="457.1"/>
<line fill="#FFFFFF" stroke="#000000" stroke-miterlimit="10" x1="303" y1="468.6" x2="965" y2="468.6"/>
<line fill="#FFFFFF" stroke="#000000" stroke-miterlimit="10" x1="302.5" y1="480" x2="964.5" y2="480"/>
<line fill="#FFFFFF" stroke="#000000" stroke-miterlimit="10" x1="303" y1="491.4" x2="965" y2="491.4"/>
<line fill="#FFFFFF" stroke="#000000" stroke-miterlimit="10" x1="302.5" y1="502.9" x2="964.5" y2="502.9"/>
<line fill="#FFFFFF" stroke="#000000" stroke-miterlimit="10" x1="303" y1="514.3" x2="965" y2="514.3"/>
<line fill="#FFFFFF" stroke="#000000" stroke-miterlimit="10" x1="302.5" y1="525.7" x2="964.5" y2="525.7"/>
<line fill="#FFFFFF" stroke="#000000" stroke-miterlimit="10" x1="303" y1="537.1" x2="965" y2="537.1"/>
<line fill="#FFFFFF" stroke="#000000" stroke-miterlimit="10" x1="302.5" y1="548.6" x2="964.5" y2="548.6"/>
<line fill="#FFFFFF" stroke="#000000" stroke-miterlimit="10" x1="303" y1="560" x2="965" y2="560"/>
<line fill="#FFFFFF" stroke="#000000" stroke-miterlimit="10" x1="302.5" y1="571.4" x2="964.5" y2="571.4"/>
<line fill="#FFFFFF" stroke="#000000" stroke-miterlimit="10" x1="303" y1="582.9" x2="965" y2="582.9"/>
<line fill="#FFFFFF" stroke="#000000" stroke-miterlimit="10" x1="302.5" y1="594.3" x2="964.5" y2="594.3"/>
<line fill="#FFFFFF" stroke="#000000" stroke-miterlimit="10" x1="303" y1="605.7" x2="965" y2="605.7"/>
<line fill="#FFFFFF" stroke="#000000" stroke-miterlimit="10" x1="302.5" y1="617.1" x2="964.5" y2="617.1"/>
<line fill="#FFFFFF" stroke="#000000" stroke-miterlimit="10" x1="303" y1="628.6" x2="965" y2="628.6"/>
<line fill="#FFFFFF" stroke="#000000" stroke-miterlimit="10" x1="302.5" y1="640" x2="964.5" y2="640"/>
<line fill="#FFFFFF" stroke="#000000" stroke-miterlimit="10" x1="303" y1="651.4" x2="965" y2="651.4"/>
<line fill="#FFFFFF" stroke="#000000" stroke-miterlimit="10" x1="302.5" y1="662.9" x2="964.5" y2="662.9"/>
<line fill="#FFFFFF" stroke="#000000" stroke-miterlimit="10" x1="303" y1="674.3" x2="965" y2="674.3"/>
<line fill="#FFFFFF" stroke="#000000" stroke-miterlimit="10" x1="302.5" y1="685.7" x2="964.5" y2="685.7"/>
<line fill="#FFFFFF" stroke="#000000" stroke-miterlimit="10" x1="303" y1="697.1" x2="965" y2="697.1"/>
<line fill="#FFFFFF" stroke="#000000" stroke-miterlimit="10" x1="302.5" y1="708.6" x2="964.5" y2="708.6"/>
<line fill="#FFFFFF" stroke="#000000" stroke-miterlimit="10" x1="303" y1="720" x2="965" y2="720"/>
<g>
</g>
<g>
</g>
<g>
</g>
<g>
</g>
<g>
</g>
<g>
</g>
<g>
</g>
<g>
</g>
<g>
</g>
<g>
</g>
<g>
</g>
<g>
</g>
<g>
</g>
<g>
</g>
<g>
</g>
</svg>
