<?xml version="1.0" encoding="utf-8"?>
<!DOCTYPE svg PUBLIC "-//W3C//DTD SVG 1.1 Tiny//EN" "http://www.w3.org/Graphics/SVG/1.1/DTD/svg11-tiny.dtd">
<svg version="1.1" baseProfile="tiny" id="openrndr-svg" xmlns="http://www.w3.org/2000/svg" xmlns:xlink="http://www.w3.org/1999/xlink" x="0px" y="0px" width="1280px" height="720px"><g >
<path fill="none" stroke="#000000" stroke-width="1.0" d="M 165.5163365382438, 12.0L1124.4836634617561, 12.0"/>
<path fill="none" stroke="#000000" stroke-width="1.0" d="M 166.30391616297655, 36.0L1123.696083837024, 36.0"/>
<path fill="none" stroke="#000000" stroke-width="1.0" d="M 168.28695998064813, 60.0L1121.7130400193519, 60.0"/>
<path fill="none" stroke="#000000" stroke-width="1.0" d="M 171.48936913914739, 84.0L1118.5106308608526, 84.0"/>
<path fill="none" stroke="#000000" stroke-width="1.0" d="M 175.9427506889039, 108.0L1114.057249311096, 108.0"/>
<path fill="none" stroke="#000000" stroke-width="1.0" d="M 181.6877710849107, 132.0L1108.3122289150895, 132.0"/>
<path fill="none" stroke="#000000" stroke-width="1.0" d="M 188.7759605948109, 156.0L1101.2240394051894, 156.0"/>
<path fill="none" stroke="#000000" stroke-width="1.0" d="M 197.27214614839187, 180.0L1092.7278538516084, 180.0"/>
<path fill="none" stroke="#000000" stroke-width="1.0" d="M 207.25778260149372, 204.0L1082.7422173985065, 204.0"/>
<path fill="none" stroke="#000000" stroke-width="1.0" d="M 218.83560478618546, 228.0L1071.1643952138147, 228.0"/>
<path fill="none" stroke="#000000" stroke-width="1.0" d="M 232.1362835689984, 252.0L1057.8637164310019, 252.0"/>
<path fill="none" stroke="#000000" stroke-width="1.0" d="M 247.32823545257907, 276.0L1042.6717645474207, 276.0"/>
<path fill="none" stroke="#000000" stroke-width="1.0" d="M 264.6326127091617, 300.0L1025.3673872908378, 300.0"/>
<path fill="none" stroke="#000000" stroke-width="1.0" d="M 284.347256930779, 324.0L1005.6527430692208, 324.0"/>
<path fill="none" stroke="#000000" stroke-width="1.0" d="M 306.88718842664593, 348.0L983.1128115733541, 348.0"/>
<path fill="none" stroke="#000000" stroke-width="1.0" d="M 332.8582010807868, 372.0L957.141798919213, 372.0"/>
<path fill="none" stroke="#000000" stroke-width="1.0" d="M 363.2043409395996, 396.0L926.7956590604003, 396.0"/>
<path fill="none" stroke="#000000" stroke-width="1.0" d="M 399.54752952852493, 420.0L890.452470471475, 420.0"/>
<path fill="none" stroke="#000000" stroke-width="1.0" d="M 445.1604773229212, 444.0L844.839522677079, 444.0"/>
<path fill="none" stroke="#000000" stroke-width="1.0" d="M 509.2042927205558, 468.0L780.7957072794443, 468.0"/>
</g>
</svg>