<?xml version="1.0" encoding="utf-8"?>
<!DOCTYPE svg PUBLIC "-//W3C//DTD SVG 1.1 Tiny//EN" "http://www.w3.org/Graphics/SVG/1.1/DTD/svg11-tiny.dtd">
<svg version="1.1" baseProfile="tiny" id="openrndr-svg" xmlns="http://www.w3.org/2000/svg" xmlns:xlink="http://www.w3.org/1999/xlink" x="0px" y="0px" width="1280px" height="720px"><g >
<path fill="none" stroke="#000000" stroke-width="1.0" d="M 165.50408283372815, 6.0L1124.4959171662715, 6.0"/>
<path fill="none" stroke="#000000" stroke-width="1.0" d="M 165.60220445753407, 18.0L1124.3977955424657, 18.0"/>
<path fill="none" stroke="#000000" stroke-width="1.0" d="M 165.9957265545055, 30.0L1124.0042734454944, 30.0"/>
<path fill="none" stroke="#000000" stroke-width="1.0" d="M 166.68678980538976, 42.0L1123.31321019461, 42.0"/>
<path fill="none" stroke="#000000" stroke-width="1.0" d="M 167.67793998551696, 54.0L1122.322060014483, 54.0"/>
<path fill="none" stroke="#000000" stroke-width="1.0" d="M 168.97215289174085, 66.0L1121.0278471082593, 66.0"/>
<path fill="none" stroke="#000000" stroke-width="1.0" d="M 170.57286589466298, 78.0L1119.4271341053368, 78.0"/>
<path fill="none" stroke="#000000" stroke-width="1.0" d="M 172.48401420599296, 90.0L1117.5159857940068, 90.0"/>
<path fill="none" stroke="#000000" stroke-width="1.0" d="M 174.7100726079072, 102.0L1115.2899273920927, 102.0"/>
<path fill="none" stroke="#000000" stroke-width="1.0" d="M 177.25610354555135, 114.0L1112.7438964544485, 114.0"/>
<path fill="none" stroke="#000000" stroke-width="1.0" d="M 180.1278126752469, 126.0L1109.872187324754, 126.0"/>
<path fill="none" stroke="#000000" stroke-width="1.0" d="M 183.3316132000657, 138.0L1106.6683867999345, 138.0"/>
<path fill="none" stroke="#000000" stroke-width="1.0" d="M 186.87470062526126, 150.0L1103.125299374739, 150.0"/>
<path fill="none" stroke="#000000" stroke-width="1.0" d="M 190.76513994739872, 162.0L1099.234860052601, 162.0"/>
<path fill="none" stroke="#000000" stroke-width="1.0" d="M 195.0119677783527, 174.0L1094.9880322216475, 174.0"/>
<path fill="none" stroke="#000000" stroke-width="1.0" d="M 199.62531253342246, 186.0L1090.3746874665778, 186.0"/>
<path fill="none" stroke="#000000" stroke-width="1.0" d="M 204.6165366296982, 198.0L1085.383463370302, 198.0"/>
<path fill="none" stroke="#000000" stroke-width="1.0" d="M 209.99840571366383, 210.0L1080.0015942863356, 210.0"/>
<path fill="none" stroke="#000000" stroke-width="1.0" d="M 215.78529136089634, 222.0L1074.2147086391035, 222.0"/>
<path fill="none" stroke="#000000" stroke-width="1.0" d="M 221.99341560193938, 234.0L1068.0065843980606, 234.0"/>
<path fill="none" stroke="#000000" stroke-width="1.0" d="M 228.64114822539955, 246.0L1061.3588517746002, 246.0"/>
<path fill="none" stroke="#000000" stroke-width="1.0" d="M 235.74937138530947, 258.0L1054.2506286146909, 258.0"/>
<path fill="none" stroke="#000000" stroke-width="1.0" d="M 243.34193103587774, 270.0L1046.6580689641223, 270.0"/>
<path fill="none" stroke="#000000" stroke-width="1.0" d="M 251.4462018086601, 282.0L1038.55379819134, 282.0"/>
<path fill="none" stroke="#000000" stroke-width="1.0" d="M 260.09380219181173, 294.0L1029.9061978081882, 294.0"/>
<path fill="none" stroke="#000000" stroke-width="1.0" d="M 269.32151195919323, 306.0L1020.6784880408063, 306.0"/>
<path fill="none" stroke="#000000" stroke-width="1.0" d="M 279.172466502381, 318.0L1010.827533497619, 318.0"/>
<path fill="none" stroke="#000000" stroke-width="1.0" d="M 289.69773772056203, 330.0L1000.3022622794379, 330.0"/>
<path fill="none" stroke="#000000" stroke-width="1.0" d="M 300.9584665691831, 342.0L989.0415334308167, 342.0"/>
<path fill="none" stroke="#000000" stroke-width="1.0" d="M 313.02880295799224, 354.0L976.971197042008, 354.0"/>
<path fill="none" stroke="#000000" stroke-width="1.0" d="M 326.00006204813064, 366.0L963.9999379518694, 366.0"/>
<path fill="none" stroke="#000000" stroke-width="1.0" d="M 339.9867765433065, 378.0L950.0132234566935, 378.0"/>
<path fill="none" stroke="#000000" stroke-width="1.0" d="M 355.1358255575419, 390.0L934.8641744424581, 390.0"/>
<path fill="none" stroke="#000000" stroke-width="1.0" d="M 371.64080370496697, 402.0L918.3591962950334, 402.0"/>
<path fill="none" stroke="#000000" stroke-width="1.0" d="M 389.76586430871095, 414.0L900.2341356912892, 414.0"/>
<path fill="none" stroke="#000000" stroke-width="1.0" d="M 409.8880332990455, 426.0L880.1119667009543, 426.0"/>
<path fill="none" stroke="#000000" stroke-width="1.0" d="M 432.5792751560532, 438.0L857.420724843947, 438.0"/>
<path fill="none" stroke="#000000" stroke-width="1.0" d="M 458.7866118110991, 450.0L831.2133881889008, 450.0"/>
<path fill="none" stroke="#000000" stroke-width="1.0" d="M 490.3087790367789, 462.0L799.6912209632214, 462.0"/>
<path fill="none" stroke="#000000" stroke-width="1.0" d="M 531.5509587335869, 474.0L758.4490412664129, 474.0"/>
<path fill="none" stroke="#000000" stroke-width="1.0" d="M 606.792572778238, 486.0L683.2074272217603, 486.0"/>
</g>
</svg>