<?xml version="1.0" encoding="utf-8"?>
<!DOCTYPE svg PUBLIC "-//W3C//DTD SVG 1.1 Tiny//EN" "http://www.w3.org/Graphics/SVG/1.1/DTD/svg11-tiny.dtd">
<svg version="1.1" baseProfile="tiny" id="openrndr-svg" xmlns="http://www.w3.org/2000/svg" xmlns:xlink="http://www.w3.org/1999/xlink" x="0px" y="0px" width="1280px" height="720px"><g >
<path fill="none" stroke="#000000" stroke-width="1.0" d="M 510.48621146555706, 24.0L769.5137885344432, 24.0"/>
<path fill="none" stroke="#000000" stroke-width="1.0" d="M 423.964888488578, 72.0L856.035111511422, 72.0"/>
<path fill="none" stroke="#000000" stroke-width="1.0" d="M 371.6672064033753, 120.0L908.3327935966247, 120.0"/>
<path fill="none" stroke="#000000" stroke-width="1.0" d="M 335.41891272720375, 168.0L944.5810872727964, 168.0"/>
<path fill="none" stroke="#000000" stroke-width="1.0" d="M 309.9551393213737, 216.0L970.0448606786263, 216.0"/>
<path fill="none" stroke="#000000" stroke-width="1.0" d="M 292.9415823338347, 264.0L987.0584176661653, 264.0"/>
<path fill="none" stroke="#000000" stroke-width="1.0" d="M 283.1721111904045, 312.0L996.8278888095954, 312.0"/>
<path fill="none" stroke="#000000" stroke-width="1.0" d="M 280.0, 360.0L1000.0, 360.0"/>
<path fill="none" stroke="#000000" stroke-width="1.0" d="M 283.1721111904046, 408.0L996.8278888095952, 408.0"/>
<path fill="none" stroke="#000000" stroke-width="1.0" d="M 292.9415823338347, 456.0L987.0584176661653, 456.0"/>
<path fill="none" stroke="#000000" stroke-width="1.0" d="M 309.9551393213736, 504.0L970.0448606786262, 504.0"/>
<path fill="none" stroke="#000000" stroke-width="1.0" d="M 335.41891272720375, 552.0L944.5810872727964, 552.0"/>
<path fill="none" stroke="#000000" stroke-width="1.0" d="M 371.6672064033753, 600.0L908.3327935966249, 600.0"/>
<path fill="none" stroke="#000000" stroke-width="1.0" d="M 423.9648884885779, 648.0L856.0351115114221, 648.0"/>
<path fill="none" stroke="#000000" stroke-width="1.0" d="M 510.4862114655569, 696.0L769.5137885344429, 696.0"/>
</g>
</svg>