<?xml version="1.0" encoding="utf-8"?>
<!DOCTYPE svg PUBLIC "-//W3C//DTD SVG 1.1 Tiny//EN" "http://www.w3.org/Graphics/SVG/1.1/DTD/svg11-tiny.dtd">
<svg version="1.1" baseProfile="tiny" id="openrndr-svg" xmlns="http://www.w3.org/2000/svg" xmlns:xlink="http://www.w3.org/1999/xlink" x="0px" y="0px" width="1280px" height="720px"><g >
<path fill="none" stroke="#000000" stroke-width="1.0" d="M 547.4799091766673, 12.0L732.5200908233321, 12.0"/>
<path fill="none" stroke="#000000" stroke-width="1.0" d="M 482.89147580251404, 36.0L797.108524197486, 36.0"/>
<path fill="none" stroke="#000000" stroke-width="1.0" d="M 440.9322776214393, 60.0L839.0677223785606, 60.0"/>
<path fill="none" stroke="#000000" stroke-width="1.0" d="M 408.85040917430337, 84.0L871.1495908256968, 84.0"/>
<path fill="none" stroke="#000000" stroke-width="1.0" d="M 382.9084058490457, 108.0L897.0915941509542, 108.0"/>
<path fill="none" stroke="#000000" stroke-width="1.0" d="M 361.38959935487605, 132.0L918.6104006451241, 132.0"/>
<path fill="none" stroke="#000000" stroke-width="1.0" d="M 343.33846362991125, 156.0L936.6615363700887, 156.0"/>
<path fill="none" stroke="#000000" stroke-width="1.0" d="M 328.1615817012945, 180.0L951.8384182987056, 180.0"/>
<path fill="none" stroke="#000000" stroke-width="1.0" d="M 315.4638276042437, 204.0L964.536172395756, 204.0"/>
<path fill="none" stroke="#000000" stroke-width="1.0" d="M 304.9696367591667, 228.0L975.0303632408336, 228.0"/>
<path fill="none" stroke="#000000" stroke-width="1.0" d="M 296.4808785255354, 252.0L983.5191214744641, 252.0"/>
<path fill="none" stroke="#000000" stroke-width="1.0" d="M 289.85248574373014, 276.0L990.1475142562699, 276.0"/>
<path fill="none" stroke="#000000" stroke-width="1.0" d="M 284.9775051432177, 300.0L995.0224948567823, 300.0"/>
<path fill="none" stroke="#000000" stroke-width="1.0" d="M 281.77750825314126, 324.0L998.2224917468587, 324.0"/>
<path fill="none" stroke="#000000" stroke-width="1.0" d="M 280.1962317601065, 348.0L999.8037682398935, 348.0"/>
<path fill="none" stroke="#000000" stroke-width="1.0" d="M 280.19623176010646, 372.0L999.8037682398933, 372.0"/>
<path fill="none" stroke="#000000" stroke-width="1.0" d="M 281.77750825314126, 396.0L998.2224917468585, 396.0"/>
<path fill="none" stroke="#000000" stroke-width="1.0" d="M 284.9775051432176, 420.0L995.0224948567824, 420.0"/>
<path fill="none" stroke="#000000" stroke-width="1.0" d="M 289.8524857437301, 444.0L990.1475142562697, 444.0"/>
<path fill="none" stroke="#000000" stroke-width="1.0" d="M 296.48087852553545, 468.0L983.5191214744642, 468.0"/>
<path fill="none" stroke="#000000" stroke-width="1.0" d="M 304.9696367591667, 492.0L975.0303632408336, 492.0"/>
<path fill="none" stroke="#000000" stroke-width="1.0" d="M 315.4638276042437, 516.0L964.5361723957565, 516.0"/>
<path fill="none" stroke="#000000" stroke-width="1.0" d="M 328.1615817012945, 540.0L951.8384182987055, 540.0"/>
<path fill="none" stroke="#000000" stroke-width="1.0" d="M 343.33846362991125, 564.0L936.6615363700887, 564.0"/>
<path fill="none" stroke="#000000" stroke-width="1.0" d="M 361.38959935487594, 588.0L918.6104006451242, 588.0"/>
<path fill="none" stroke="#000000" stroke-width="1.0" d="M 382.9084058490458, 612.0L897.091594150954, 612.0"/>
<path fill="none" stroke="#000000" stroke-width="1.0" d="M 408.85040917430337, 636.0L871.1495908256965, 636.0"/>
<path fill="none" stroke="#000000" stroke-width="1.0" d="M 440.9322776214392, 660.0L839.0677223785608, 660.0"/>
<path fill="none" stroke="#000000" stroke-width="1.0" d="M 482.89147580251415, 684.0L797.1085241974861, 684.0"/>
<path fill="none" stroke="#000000" stroke-width="1.0" d="M 547.4799091766681, 708.0L732.5200908233326, 708.0"/>
</g>
</svg>