<?xml version="1.0" encoding="utf-8"?>
<!DOCTYPE svg PUBLIC "-//W3C//DTD SVG 1.1 Tiny//EN" "http://www.w3.org/Graphics/SVG/1.1/DTD/svg11-tiny.dtd">
<svg version="1.1" baseProfile="tiny" id="openrndr-svg" xmlns="http://www.w3.org/2000/svg" xmlns:xlink="http://www.w3.org/1999/xlink" x="0px" y="0px" width="1280px" height="720px"><g >
<path fill="none" stroke="#000000" stroke-width="1.0" d="M 593.3101330947609, 3.0L686.6898669052383, 3.0"/>
<path fill="none" stroke="#000000" stroke-width="1.0" d="M 559.6511347263877, 9.0L720.3488652736123, 9.0"/>
<path fill="none" stroke="#000000" stroke-width="1.0" d="M 536.8343852776709, 15.0L743.1656147223291, 15.0"/>
<path fill="none" stroke="#000000" stroke-width="1.0" d="M 518.5519483188604, 21.0L761.4480516811395, 21.0"/>
<path fill="none" stroke="#000000" stroke-width="1.0" d="M 502.96329235192775, 27.0L777.0367076480723, 27.0"/>
<path fill="none" stroke="#000000" stroke-width="1.0" d="M 489.22357847376543, 33.0L790.7764215262347, 33.0"/>
<path fill="none" stroke="#000000" stroke-width="1.0" d="M 476.8609010224843, 39.0L803.1390989775159, 39.0"/>
<path fill="none" stroke="#000000" stroke-width="1.0" d="M 465.57966242828957, 45.0L814.4203375717104, 45.0"/>
<path fill="none" stroke="#000000" stroke-width="1.0" d="M 455.18007700651134, 51.0L824.8199229934884, 51.0"/>
<path fill="none" stroke="#000000" stroke-width="1.0" d="M 445.5195680611605, 57.0L834.4804319388396, 57.0"/>
<path fill="none" stroke="#000000" stroke-width="1.0" d="M 436.4921354210404, 63.0L843.5078645789596, 63.0"/>
<path fill="none" stroke="#000000" stroke-width="1.0" d="M 428.0164142831554, 69.0L851.9835857168446, 69.0"/>
<path fill="none" stroke="#000000" stroke-width="1.0" d="M 420.0283282739143, 75.0L859.9716717260858, 75.0"/>
<path fill="none" stroke="#000000" stroke-width="1.0" d="M 412.47634403878044, 81.0L867.5236559612197, 81.0"/>
<path fill="none" stroke="#000000" stroke-width="1.0" d="M 405.31828232574424, 87.0L874.6817176742555, 87.0"/>
<path fill="none" stroke="#000000" stroke-width="1.0" d="M 398.519103279246, 93.0L881.4808967207539, 93.0"/>
<path fill="none" stroke="#000000" stroke-width="1.0" d="M 392.0493249070859, 99.0L887.9506750929139, 99.0"/>
<path fill="none" stroke="#000000" stroke-width="1.0" d="M 385.8838664418023, 105.0L894.1161335581977, 105.0"/>
<path fill="none" stroke="#000000" stroke-width="1.0" d="M 380.0011847802975, 111.0L899.9988152197025, 111.0"/>
<path fill="none" stroke="#000000" stroke-width="1.0" d="M 374.3826179717179, 117.0L905.6173820282821, 117.0"/>
<path fill="none" stroke="#000000" stroke-width="1.0" d="M 369.0118780797976, 123.0L910.9881219202025, 123.0"/>
<path fill="none" stroke="#000000" stroke-width="1.0" d="M 363.8746538321433, 129.0L916.1253461678568, 129.0"/>
<path fill="none" stroke="#000000" stroke-width="1.0" d="M 358.9582953083789, 135.0L921.0417046916207, 135.0"/>
<path fill="none" stroke="#000000" stroke-width="1.0" d="M 354.2515608503562, 141.0L925.7484391496438, 141.0"/>
<path fill="none" stroke="#000000" stroke-width="1.0" d="M 349.7444118018314, 147.0L930.2555881981687, 147.0"/>
<path fill="none" stroke="#000000" stroke-width="1.0" d="M 345.4278444643445, 153.0L934.5721555356556, 153.0"/>
<path fill="none" stroke="#000000" stroke-width="1.0" d="M 341.29375133406825, 159.0L938.7062486659318, 159.0"/>
<path fill="none" stroke="#000000" stroke-width="1.0" d="M 337.33480561141323, 165.0L942.665194388587, 165.0"/>
<path fill="none" stroke="#000000" stroke-width="1.0" d="M 333.54436438134775, 171.0L946.4556356186522, 171.0"/>
<path fill="none" stroke="#000000" stroke-width="1.0" d="M 329.91638690181105, 177.0L950.083613098189, 177.0"/>
<path fill="none" stroke="#000000" stroke-width="1.0" d="M 326.4453652150586, 183.0L953.5546347849413, 183.0"/>
<path fill="none" stroke="#000000" stroke-width="1.0" d="M 323.12626488471733, 189.0L956.8737351152827, 189.0"/>
<path fill="none" stroke="#000000" stroke-width="1.0" d="M 319.9544741104828, 195.0L960.0455258895173, 195.0"/>
<path fill="none" stroke="#000000" stroke-width="1.0" d="M 316.92575981875945, 201.0L963.0742401812406, 201.0"/>
<path fill="none" stroke="#000000" stroke-width="1.0" d="M 314.03622959703256, 207.0L965.9637704029674, 207.0"/>
<path fill="none" stroke="#000000" stroke-width="1.0" d="M 311.28229855113625, 213.0L968.717701448864, 213.0"/>
<path fill="none" stroke="#000000" stroke-width="1.0" d="M 308.66066033168283, 219.0L971.339339668317, 219.0"/>
<path fill="none" stroke="#000000" stroke-width="1.0" d="M 306.168261708955, 225.0L973.831738291045, 225.0"/>
<path fill="none" stroke="#000000" stroke-width="1.0" d="M 303.80228018221237, 231.0L976.1977198177877, 231.0"/>
<path fill="none" stroke="#000000" stroke-width="1.0" d="M 301.560104195407, 237.0L978.4398958045929, 237.0"/>
<path fill="none" stroke="#000000" stroke-width="1.0" d="M 299.4393156011405, 243.0L980.5606843988596, 243.0"/>
<path fill="none" stroke="#000000" stroke-width="1.0" d="M 297.4376740717008, 249.0L982.5623259282992, 249.0"/>
<path fill="none" stroke="#000000" stroke-width="1.0" d="M 295.5531032028109, 255.0L984.4468967971889, 255.0"/>
<path fill="none" stroke="#000000" stroke-width="1.0" d="M 293.7836780943159, 261.0L986.216321905684, 261.0"/>
<path fill="none" stroke="#000000" stroke-width="1.0" d="M 292.1276142240401, 267.0L987.8723857759599, 267.0"/>
<path fill="none" stroke="#000000" stroke-width="1.0" d="M 290.583257457687, 273.0L989.4167425423127, 273.0"/>
<path fill="none" stroke="#000000" stroke-width="1.0" d="M 289.14907505995876, 279.0L990.8509249400413, 279.0"/>
<path fill="none" stroke="#000000" stroke-width="1.0" d="M 287.8236475907892, 285.0L992.1763524092107, 285.0"/>
<path fill="none" stroke="#000000" stroke-width="1.0" d="M 286.6056615863899, 291.0L993.3943384136101, 291.0"/>
<path fill="none" stroke="#000000" stroke-width="1.0" d="M 285.4939029381776, 297.0L994.5060970618226, 297.0"/>
<path fill="none" stroke="#000000" stroke-width="1.0" d="M 284.4872508940218, 303.0L995.5127491059781, 303.0"/>
<path fill="none" stroke="#000000" stroke-width="1.0" d="M 283.5846726159465, 309.0L996.4153273840534, 309.0"/>
<path fill="none" stroke="#000000" stroke-width="1.0" d="M 282.7852182367111, 315.0L997.2147817632889, 315.0"/>
<path fill="none" stroke="#000000" stroke-width="1.0" d="M 282.0880163648294, 321.0L997.9119836351705, 321.0"/>
<path fill="none" stroke="#000000" stroke-width="1.0" d="M 281.49226999371075, 327.0L998.5077300062892, 327.0"/>
<path fill="none" stroke="#000000" stroke-width="1.0" d="M 280.99725277591716, 333.0L999.0027472240829, 333.0"/>
<path fill="none" stroke="#000000" stroke-width="1.0" d="M 280.6023056281221, 339.0L999.3976943718778, 339.0"/>
<path fill="none" stroke="#000000" stroke-width="1.0" d="M 280.3068336363464, 345.0L999.6931663636533, 345.0"/>
<path fill="none" stroke="#000000" stroke-width="1.0" d="M 280.1103032345347, 351.0L999.8896967654653, 351.0"/>
<path fill="none" stroke="#000000" stroke-width="1.0" d="M 280.01223963256757, 357.0L999.9877603674323, 357.0"/>
<path fill="none" stroke="#000000" stroke-width="1.0" d="M 280.0122396325677, 363.0L999.9877603674321, 363.0"/>
<path fill="none" stroke="#000000" stroke-width="1.0" d="M 280.1103032345346, 369.0L999.8896967654653, 369.0"/>
<path fill="none" stroke="#000000" stroke-width="1.0" d="M 280.3068336363464, 375.0L999.6931663636533, 375.0"/>
<path fill="none" stroke="#000000" stroke-width="1.0" d="M 280.60230562812205, 381.0L999.3976943718781, 381.0"/>
<path fill="none" stroke="#000000" stroke-width="1.0" d="M 280.9972527759172, 387.0L999.0027472240829, 387.0"/>
<path fill="none" stroke="#000000" stroke-width="1.0" d="M 281.49226999371064, 393.0L998.5077300062894, 393.0"/>
<path fill="none" stroke="#000000" stroke-width="1.0" d="M 282.0880163648294, 399.0L997.9119836351705, 399.0"/>
<path fill="none" stroke="#000000" stroke-width="1.0" d="M 282.78521823671105, 405.0L997.2147817632888, 405.0"/>
<path fill="none" stroke="#000000" stroke-width="1.0" d="M 283.58467261594643, 411.0L996.4153273840539, 411.0"/>
<path fill="none" stroke="#000000" stroke-width="1.0" d="M 284.4872508940218, 417.0L995.5127491059781, 417.0"/>
<path fill="none" stroke="#000000" stroke-width="1.0" d="M 285.49390293817754, 423.0L994.5060970618226, 423.0"/>
<path fill="none" stroke="#000000" stroke-width="1.0" d="M 286.60566158638994, 429.0L993.39433841361, 429.0"/>
<path fill="none" stroke="#000000" stroke-width="1.0" d="M 287.8236475907893, 435.0L992.1763524092106, 435.0"/>
<path fill="none" stroke="#000000" stroke-width="1.0" d="M 289.1490750599587, 441.0L990.8509249400412, 441.0"/>
<path fill="none" stroke="#000000" stroke-width="1.0" d="M 290.583257457687, 447.0L989.4167425423129, 447.0"/>
<path fill="none" stroke="#000000" stroke-width="1.0" d="M 292.1276142240401, 453.0L987.8723857759599, 453.0"/>
<path fill="none" stroke="#000000" stroke-width="1.0" d="M 293.78367809431603, 459.0L986.2163219056836, 459.0"/>
<path fill="none" stroke="#000000" stroke-width="1.0" d="M 295.5531032028109, 465.0L984.4468967971889, 465.0"/>
<path fill="none" stroke="#000000" stroke-width="1.0" d="M 297.43767407170094, 471.0L982.5623259282991, 471.0"/>
<path fill="none" stroke="#000000" stroke-width="1.0" d="M 299.43931560114044, 477.0L980.5606843988596, 477.0"/>
<path fill="none" stroke="#000000" stroke-width="1.0" d="M 301.5601041954069, 483.0L978.4398958045931, 483.0"/>
<path fill="none" stroke="#000000" stroke-width="1.0" d="M 303.8022801822123, 489.0L976.1977198177874, 489.0"/>
<path fill="none" stroke="#000000" stroke-width="1.0" d="M 306.168261708955, 495.0L973.831738291045, 495.0"/>
<path fill="none" stroke="#000000" stroke-width="1.0" d="M 308.6606603316829, 501.0L971.339339668317, 501.0"/>
<path fill="none" stroke="#000000" stroke-width="1.0" d="M 311.28229855113625, 507.0L968.717701448864, 507.0"/>
<path fill="none" stroke="#000000" stroke-width="1.0" d="M 314.0362295970325, 513.0L965.9637704029674, 513.0"/>
<path fill="none" stroke="#000000" stroke-width="1.0" d="M 316.92575981875945, 519.0L963.0742401812404, 519.0"/>
<path fill="none" stroke="#000000" stroke-width="1.0" d="M 319.95447411048275, 525.0L960.0455258895172, 525.0"/>
<path fill="none" stroke="#000000" stroke-width="1.0" d="M 323.12626488471733, 531.0L956.8737351152828, 531.0"/>
<path fill="none" stroke="#000000" stroke-width="1.0" d="M 326.4453652150586, 537.0L953.5546347849414, 537.0"/>
<path fill="none" stroke="#000000" stroke-width="1.0" d="M 329.91638690181117, 543.0L950.0836130981886, 543.0"/>
<path fill="none" stroke="#000000" stroke-width="1.0" d="M 333.54436438134763, 549.0L946.4556356186527, 549.0"/>
<path fill="none" stroke="#000000" stroke-width="1.0" d="M 337.33480561141323, 555.0L942.6651943885867, 555.0"/>
<path fill="none" stroke="#000000" stroke-width="1.0" d="M 341.29375133406836, 561.0L938.7062486659314, 561.0"/>
<path fill="none" stroke="#000000" stroke-width="1.0" d="M 345.42784446434445, 567.0L934.5721555356558, 567.0"/>
<path fill="none" stroke="#000000" stroke-width="1.0" d="M 349.7444118018314, 573.0L930.2555881981684, 573.0"/>
<path fill="none" stroke="#000000" stroke-width="1.0" d="M 354.2515608503561, 579.0L925.748439149644, 579.0"/>
<path fill="none" stroke="#000000" stroke-width="1.0" d="M 358.958295308379, 585.0L921.0417046916209, 585.0"/>
<path fill="none" stroke="#000000" stroke-width="1.0" d="M 363.87465383214317, 591.0L916.1253461678568, 591.0"/>
<path fill="none" stroke="#000000" stroke-width="1.0" d="M 369.0118780797975, 597.0L910.9881219202023, 597.0"/>
<path fill="none" stroke="#000000" stroke-width="1.0" d="M 374.3826179717179, 603.0L905.6173820282821, 603.0"/>
<path fill="none" stroke="#000000" stroke-width="1.0" d="M 380.0011847802974, 609.0L899.9988152197028, 609.0"/>
<path fill="none" stroke="#000000" stroke-width="1.0" d="M 385.8838664418023, 615.0L894.1161335581978, 615.0"/>
<path fill="none" stroke="#000000" stroke-width="1.0" d="M 392.04932490708586, 621.0L887.950675092914, 621.0"/>
<path fill="none" stroke="#000000" stroke-width="1.0" d="M 398.519103279246, 627.0L881.4808967207541, 627.0"/>
<path fill="none" stroke="#000000" stroke-width="1.0" d="M 405.3182823257442, 633.0L874.6817176742558, 633.0"/>
<path fill="none" stroke="#000000" stroke-width="1.0" d="M 412.4763440387803, 639.0L867.5236559612197, 639.0"/>
<path fill="none" stroke="#000000" stroke-width="1.0" d="M 420.0283282739142, 645.0L859.9716717260854, 645.0"/>
<path fill="none" stroke="#000000" stroke-width="1.0" d="M 428.0164142831554, 651.0L851.9835857168446, 651.0"/>
<path fill="none" stroke="#000000" stroke-width="1.0" d="M 436.4921354210403, 657.0L843.5078645789597, 657.0"/>
<path fill="none" stroke="#000000" stroke-width="1.0" d="M 445.5195680611605, 663.0L834.4804319388396, 663.0"/>
<path fill="none" stroke="#000000" stroke-width="1.0" d="M 455.1800770065114, 669.0L824.8199229934887, 669.0"/>
<path fill="none" stroke="#000000" stroke-width="1.0" d="M 465.5796624282896, 675.0L814.4203375717105, 675.0"/>
<path fill="none" stroke="#000000" stroke-width="1.0" d="M 476.86090102248437, 681.0L803.1390989775157, 681.0"/>
<path fill="none" stroke="#000000" stroke-width="1.0" d="M 489.22357847376554, 687.0L790.7764215262343, 687.0"/>
<path fill="none" stroke="#000000" stroke-width="1.0" d="M 502.96329235192775, 693.0L777.0367076480725, 693.0"/>
<path fill="none" stroke="#000000" stroke-width="1.0" d="M 518.5519483188605, 699.0L761.4480516811398, 699.0"/>
<path fill="none" stroke="#000000" stroke-width="1.0" d="M 536.8343852776709, 705.0L743.1656147223291, 705.0"/>
<path fill="none" stroke="#000000" stroke-width="1.0" d="M 559.6511347263877, 711.0L720.3488652736122, 711.0"/>
<path fill="none" stroke="#000000" stroke-width="1.0" d="M 593.3101330947618, 717.0L686.6898669052391, 717.0"/>
</g>
</svg>