<?xml version="1.0" encoding="utf-8"?>
<!DOCTYPE svg PUBLIC "-//W3C//DTD SVG 1.1 Tiny//EN" "http://www.w3.org/Graphics/SVG/1.1/DTD/svg11-tiny.dtd">
<svg version="1.1" baseProfile="tiny" id="openrndr-svg" xmlns="http://www.w3.org/2000/svg" xmlns:xlink="http://www.w3.org/1999/xlink" x="0px" y="0px" width="1280px" height="720px"><g >
<path fill="none" stroke="#000000" stroke-width="1.0" d="M 574.1977132449287, 6.0L705.8022867550715, 6.0"/>
<path fill="none" stroke="#000000" stroke-width="1.0" d="M 527.278239388244, 18.0L752.721760611756, 18.0"/>
<path fill="none" stroke="#000000" stroke-width="1.0" d="M 495.89736861394863, 30.0L784.1026313860514, 30.0"/>
<path fill="none" stroke="#000000" stroke-width="1.0" d="M 471.099259596348, 42.0L808.9007404036522, 42.0"/>
<path fill="none" stroke="#000000" stroke-width="1.0" d="M 450.2647510612305, 54.0L829.7352489387695, 54.0"/>
<path fill="none" stroke="#000000" stroke-width="1.0" d="M 432.1896557860737, 66.0L847.8103442139266, 66.0"/>
<path fill="none" stroke="#000000" stroke-width="1.0" d="M 416.20064917936156, 78.0L863.7993508206384, 78.0"/>
<path fill="none" stroke="#000000" stroke-width="1.0" d="M 401.87579010998775, 90.0L878.1242098900125, 90.0"/>
<path fill="none" stroke="#000000" stroke-width="1.0" d="M 388.9299765039289, 102.0L891.0700234960709, 102.0"/>
<path fill="none" stroke="#000000" stroke-width="1.0" d="M 377.15995554173526, 114.0L902.8400444582651, 114.0"/>
<path fill="none" stroke="#000000" stroke-width="1.0" d="M 366.41490282857717, 126.0L913.5850971714231, 126.0"/>
<path fill="none" stroke="#000000" stroke-width="1.0" d="M 356.57937855330135, 138.0L923.4206214466989, 138.0"/>
<path fill="none" stroke="#000000" stroke-width="1.0" d="M 347.5628316882312, 150.0L932.4371683117688, 150.0"/>
<path fill="none" stroke="#000000" stroke-width="1.0" d="M 339.2928152337088, 162.0L940.7071847662912, 162.0"/>
<path fill="none" stroke="#000000" stroke-width="1.0" d="M 331.71042366801066, 174.0L948.2895763319896, 174.0"/>
<path fill="none" stroke="#000000" stroke-width="1.0" d="M 324.7671224777806, 186.0L955.2328775222194, 186.0"/>
<path fill="none" stroke="#000000" stroke-width="1.0" d="M 318.4224832539028, 198.0L961.5775167460972, 198.0"/>
<path fill="none" stroke="#000000" stroke-width="1.0" d="M 312.64252703841527, 210.0L967.3574729615846, 210.0"/>
<path fill="none" stroke="#000000" stroke-width="1.0" d="M 307.39848764110275, 222.0L972.6015123588971, 222.0"/>
<path fill="none" stroke="#000000" stroke-width="1.0" d="M 302.66587197202085, 234.0L977.3341280279792, 234.0"/>
<path fill="none" stroke="#000000" stroke-width="1.0" d="M 298.42373491826936, 246.0L981.5762650817309, 246.0"/>
<path fill="none" stroke="#000000" stroke-width="1.0" d="M 294.65411212899136, 258.0L985.3458878710087, 258.0"/>
<path fill="none" stroke="#000000" stroke-width="1.0" d="M 291.3415709950909, 270.0L988.6584290049091, 270.0"/>
<path fill="none" stroke="#000000" stroke-width="1.0" d="M 288.4728514538072, 282.0L991.5271485461926, 282.0"/>
<path fill="none" stroke="#000000" stroke-width="1.0" d="M 286.0365760114651, 294.0L993.9634239885349, 294.0"/>
<path fill="none" stroke="#000000" stroke-width="1.0" d="M 284.0230137908024, 306.0L995.9769862091975, 306.0"/>
<path fill="none" stroke="#000000" stroke-width="1.0" d="M 282.4238872483037, 318.0L997.5761127516961, 318.0"/>
<path fill="none" stroke="#000000" stroke-width="1.0" d="M 281.23221297219504, 330.0L998.7677870278051, 330.0"/>
<path fill="none" stroke="#000000" stroke-width="1.0" d="M 280.44216999214837, 342.0L999.5578300078516, 342.0"/>
<path fill="none" stroke="#000000" stroke-width="1.0" d="M 280.0489905275797, 354.0L999.9510094724201, 354.0"/>
<path fill="none" stroke="#000000" stroke-width="1.0" d="M 280.04899052757975, 366.0L999.9510094724201, 366.0"/>
<path fill="none" stroke="#000000" stroke-width="1.0" d="M 280.44216999214837, 378.0L999.5578300078519, 378.0"/>
<path fill="none" stroke="#000000" stroke-width="1.0" d="M 281.2322129721951, 390.0L998.7677870278048, 390.0"/>
<path fill="none" stroke="#000000" stroke-width="1.0" d="M 282.4238872483037, 402.0L997.5761127516961, 402.0"/>
<path fill="none" stroke="#000000" stroke-width="1.0" d="M 284.0230137908023, 414.0L995.9769862091978, 414.0"/>
<path fill="none" stroke="#000000" stroke-width="1.0" d="M 286.0365760114651, 426.0L993.9634239885349, 426.0"/>
<path fill="none" stroke="#000000" stroke-width="1.0" d="M 288.47285145380727, 438.0L991.5271485461925, 438.0"/>
<path fill="none" stroke="#000000" stroke-width="1.0" d="M 291.3415709950908, 450.0L988.6584290049094, 450.0"/>
<path fill="none" stroke="#000000" stroke-width="1.0" d="M 294.6541121289913, 462.0L985.3458878710086, 462.0"/>
<path fill="none" stroke="#000000" stroke-width="1.0" d="M 298.4237349182694, 474.0L981.5762650817305, 474.0"/>
<path fill="none" stroke="#000000" stroke-width="1.0" d="M 302.6658719720209, 486.0L977.3341280279791, 486.0"/>
<path fill="none" stroke="#000000" stroke-width="1.0" d="M 307.39848764110275, 498.0L972.6015123588974, 498.0"/>
<path fill="none" stroke="#000000" stroke-width="1.0" d="M 312.6425270384153, 510.0L967.3574729615846, 510.0"/>
<path fill="none" stroke="#000000" stroke-width="1.0" d="M 318.42248325390284, 522.0L961.5775167460972, 522.0"/>
<path fill="none" stroke="#000000" stroke-width="1.0" d="M 324.7671224777806, 534.0L955.2328775222192, 534.0"/>
<path fill="none" stroke="#000000" stroke-width="1.0" d="M 331.7104236680106, 546.0L948.2895763319896, 546.0"/>
<path fill="none" stroke="#000000" stroke-width="1.0" d="M 339.29281523370884, 558.0L940.707184766291, 558.0"/>
<path fill="none" stroke="#000000" stroke-width="1.0" d="M 347.5628316882311, 570.0L932.4371683117689, 570.0"/>
<path fill="none" stroke="#000000" stroke-width="1.0" d="M 356.57937855330124, 582.0L923.4206214466988, 582.0"/>
<path fill="none" stroke="#000000" stroke-width="1.0" d="M 366.41490282857717, 594.0L913.5850971714231, 594.0"/>
<path fill="none" stroke="#000000" stroke-width="1.0" d="M 377.15995554173514, 606.0L902.8400444582651, 606.0"/>
<path fill="none" stroke="#000000" stroke-width="1.0" d="M 388.92997650392874, 618.0L891.0700234960711, 618.0"/>
<path fill="none" stroke="#000000" stroke-width="1.0" d="M 401.87579010998763, 630.0L878.1242098900123, 630.0"/>
<path fill="none" stroke="#000000" stroke-width="1.0" d="M 416.2006491793618, 642.0L863.7993508206384, 642.0"/>
<path fill="none" stroke="#000000" stroke-width="1.0" d="M 432.18965578607356, 654.0L847.8103442139263, 654.0"/>
<path fill="none" stroke="#000000" stroke-width="1.0" d="M 450.2647510612304, 666.0L829.7352489387695, 666.0"/>
<path fill="none" stroke="#000000" stroke-width="1.0" d="M 471.0992595963479, 678.0L808.900740403652, 678.0"/>
<path fill="none" stroke="#000000" stroke-width="1.0" d="M 495.89736861394874, 690.0L784.1026313860513, 690.0"/>
<path fill="none" stroke="#000000" stroke-width="1.0" d="M 527.278239388244, 702.0L752.7217606117563, 702.0"/>
<path fill="none" stroke="#000000" stroke-width="1.0" d="M 574.1977132449285, 714.0L705.8022867550712, 714.0"/>
</g>
</svg>