<?xml version="1.0" encoding="utf-8"?>
<!DOCTYPE svg PUBLIC "-//W3C//DTD SVG 1.1 Tiny//EN" "http://www.w3.org/Graphics/SVG/1.1/DTD/svg11-tiny.dtd">
<svg version="1.1" baseProfile="tiny" id="openrndr-svg" xmlns="http://www.w3.org/2000/svg" xmlns:xlink="http://www.w3.org/1999/xlink" x="0px" y="0px" width="1280px" height="720px"><g >
<path fill="none" stroke="#000000" stroke-width="1.0" d="M 279.4688888888889, 3.0C519.9114814814816, -39.22333024691358, 760.0885185185185, -39.22333024691358, 1000.531111111111, 3.0"/>
<path fill="none" stroke="#000000" stroke-width="1.0" d="M 278.42, 9.000000000000002C519.7366666666668, -32.343250000000005, 760.2633333333333, -32.343250000000005, 1001.5800000000002, 9.000000000000002"/>
<path fill="none" stroke="#000000" stroke-width="1.0" d="M 277.38888888888886, 14.999999999999996C519.5648148148148, -25.471836419753085, 760.4351851851852, -25.471836419753085, 1002.611111111111, 14.999999999999996"/>
<path fill="none" stroke="#000000" stroke-width="1.0" d="M 276.37555555555554, 21.0C519.3959259259259, -18.60894135802469, 760.604074074074, -18.60894135802469, 1003.6244444444443, 21.0"/>
<path fill="none" stroke="#000000" stroke-width="1.0" d="M 275.38000000000005, 27.0C519.2299999999999, -11.754416666666673, 760.7700000000002, -11.754416666666677, 1004.6200000000001, 27.0"/>
<path fill="none" stroke="#000000" stroke-width="1.0" d="M 274.4022222222223, 33.0C519.0670370370372, -4.908114197530862, 760.9329629629631, -4.908114197530867, 1005.5977777777778, 33.0"/>
<path fill="none" stroke="#000000" stroke-width="1.0" d="M 273.44222222222214, 39.0C518.9070370370371, 1.9301141975308773, 761.0929629629629, 1.9301141975308693, 1006.5577777777777, 39.0"/>
<path fill="none" stroke="#000000" stroke-width="1.0" d="M 272.5, 45.0C518.75, 8.760416666666666, 761.25, 8.760416666666659, 1007.5, 45.0"/>
<path fill="none" stroke="#000000" stroke-width="1.0" d="M 271.5755555555556, 50.99999999999999C518.5959259259259, 15.582941358024696, 761.4040740740741, 15.582941358024689, 1008.4244444444445, 50.99999999999999"/>
<path fill="none" stroke="#000000" stroke-width="1.0" d="M 270.66888888888894, 57.000000000000014C518.4448148148149, 22.397836419753098, 761.5551851851853, 22.39783641975309, 1009.3311111111112, 57.000000000000014"/>
<path fill="none" stroke="#000000" stroke-width="1.0" d="M 269.78, 62.999999999999986C518.2966666666666, 29.205249999999996, 761.7033333333333, 29.20524999999999, 1010.2199999999999, 62.999999999999986"/>
<path fill="none" stroke="#000000" stroke-width="1.0" d="M 268.9088888888889, 69.0C518.1514814814815, 36.00533024691359, 761.8485185185185, 36.00533024691358, 1011.091111111111, 69.0"/>
<path fill="none" stroke="#000000" stroke-width="1.0" d="M 268.0555555555556, 75.00000000000001C518.0092592592592, 42.79822530864199, 761.9907407407408, 42.79822530864198, 1011.9444444444445, 75.00000000000001"/>
<path fill="none" stroke="#000000" stroke-width="1.0" d="M 267.21999999999997, 81.0C517.8699999999999, 49.58408333333334, 762.1299999999999, 49.58408333333333, 1012.78, 81.0"/>
<path fill="none" stroke="#000000" stroke-width="1.0" d="M 266.40222222222224, 87.0C517.7337037037037, 56.36305246913581, 762.2662962962962, 56.363052469135795, 1013.5977777777778, 87.0"/>
<path fill="none" stroke="#000000" stroke-width="1.0" d="M 265.6022222222222, 93.0C517.6003703703705, 63.13528086419755, 762.3996296296297, 63.13528086419753, 1014.3977777777777, 93.0"/>
<path fill="none" stroke="#000000" stroke-width="1.0" d="M 264.82000000000005, 99.00000000000003C517.47, 69.90091666666667, 762.5300000000001, 69.90091666666667, 1015.1800000000002, 99.00000000000003"/>
<path fill="none" stroke="#000000" stroke-width="1.0" d="M 264.05555555555554, 105.0C517.3425925925925, 76.66010802469137, 762.6574074074074, 76.66010802469137, 1015.9444444444445, 105.0"/>
<path fill="none" stroke="#000000" stroke-width="1.0" d="M 263.30888888888893, 111.00000000000001C517.2181481481481, 83.41300308641976, 762.7818518518519, 83.41300308641975, 1016.6911111111112, 111.00000000000001"/>
<path fill="none" stroke="#000000" stroke-width="1.0" d="M 262.58000000000004, 117.00000000000003C517.0966666666667, 90.15975000000002, 762.9033333333334, 90.15975000000002, 1017.4200000000001, 117.00000000000003"/>
<path fill="none" stroke="#000000" stroke-width="1.0" d="M 261.8688888888889, 123.00000000000001C516.978148148148, 96.90049691358026, 763.0218518518518, 96.90049691358024, 1018.131111111111, 123.00000000000001"/>
<path fill="none" stroke="#000000" stroke-width="1.0" d="M 261.1755555555555, 128.99999999999997C516.8625925925925, 103.63539197530864, 763.1374074074072, 103.63539197530862, 1018.8244444444442, 128.99999999999997"/>
<path fill="none" stroke="#000000" stroke-width="1.0" d="M 260.5, 135.0C516.75, 110.36458333333334, 763.25, 110.36458333333331, 1019.5, 135.0"/>
<path fill="none" stroke="#000000" stroke-width="1.0" d="M 259.84222222222223, 140.99999999999997C516.6403703703704, 117.08821913580249, 763.3596296296296, 117.08821913580246, 1020.1577777777778, 140.99999999999997"/>
<path fill="none" stroke="#000000" stroke-width="1.0" d="M 259.20222222222225, 147.00000000000003C516.5337037037037, 123.8064475308642, 763.4662962962965, 123.8064475308642, 1020.7977777777779, 147.00000000000003"/>
<path fill="none" stroke="#000000" stroke-width="1.0" d="M 258.58, 152.99999999999997C516.4299999999998, 130.51941666666664, 763.5699999999998, 130.51941666666664, 1021.4199999999998, 152.99999999999997"/>
<path fill="none" stroke="#000000" stroke-width="1.0" d="M 257.97555555555556, 158.99999999999997C516.3292592592592, 137.227274691358, 763.6707407407408, 137.227274691358, 1022.0244444444445, 158.99999999999997"/>
<path fill="none" stroke="#000000" stroke-width="1.0" d="M 257.3888888888889, 165.00000000000003C516.2314814814814, 143.93016975308643, 763.7685185185185, 143.9301697530864, 1022.6111111111111, 165.00000000000003"/>
<path fill="none" stroke="#000000" stroke-width="1.0" d="M 256.81999999999994, 170.99999999999997C516.1366666666665, 150.62824999999998, 763.8633333333331, 150.62824999999995, 1023.1799999999996, 170.99999999999997"/>
<path fill="none" stroke="#000000" stroke-width="1.0" d="M 256.26888888888885, 176.99999999999997C516.0448148148147, 157.3216635802469, 763.9551851851851, 157.3216635802469, 1023.7311111111109, 176.99999999999997"/>
<path fill="none" stroke="#000000" stroke-width="1.0" d="M 255.73555555555552, 182.99999999999997C515.9559259259258, 164.01055864197528, 764.0440740740739, 164.01055864197525, 1024.2644444444443, 182.99999999999997"/>
<path fill="none" stroke="#000000" stroke-width="1.0" d="M 255.22000000000003, 189.00000000000003C515.87, 170.69508333333337, 764.13, 170.69508333333332, 1024.78, 189.00000000000003"/>
<path fill="none" stroke="#000000" stroke-width="1.0" d="M 254.72222222222226, 195.0C515.7870370370372, 177.37538580246917, 764.212962962963, 177.37538580246914, 1025.2777777777778, 195.0"/>
<path fill="none" stroke="#000000" stroke-width="1.0" d="M 254.24222222222224, 201.0C515.707037037037, 184.05161419753088, 764.2929629629629, 184.05161419753085, 1025.7577777777778, 201.0"/>
<path fill="none" stroke="#000000" stroke-width="1.0" d="M 253.77999999999994, 206.99999999999994C515.63, 190.72391666666667, 764.3699999999999, 190.72391666666664, 1026.2199999999998, 206.99999999999994"/>
<path fill="none" stroke="#000000" stroke-width="1.0" d="M 253.33555555555552, 213.0C515.5559259259257, 197.39244135802468, 764.444074074074, 197.39244135802468, 1026.6644444444441, 213.0"/>
<path fill="none" stroke="#000000" stroke-width="1.0" d="M 252.90888888888884, 218.99999999999997C515.4848148148147, 204.05733641975306, 764.5151851851851, 204.057336419753, 1027.0911111111109, 218.99999999999997"/>
<path fill="none" stroke="#000000" stroke-width="1.0" d="M 252.5, 225.0C515.4166666666665, 210.71875000000003, 764.5833333333333, 210.71874999999997, 1027.5, 225.0"/>
<path fill="none" stroke="#000000" stroke-width="1.0" d="M 252.10888888888894, 231.00000000000003C515.3514814814816, 217.37683024691367, 764.6485185185186, 217.3768302469136, 1027.8911111111113, 231.00000000000003"/>
<path fill="none" stroke="#000000" stroke-width="1.0" d="M 251.7355555555556, 237.0C515.2892592592593, 224.03172530864202, 764.7107407407409, 224.03172530864197, 1028.2644444444445, 237.0"/>
<path fill="none" stroke="#000000" stroke-width="1.0" d="M 251.37999999999997, 243.0C515.2299999999999, 230.68358333333333, 764.77, 230.68358333333333, 1028.62, 243.0"/>
<path fill="none" stroke="#000000" stroke-width="1.0" d="M 251.0422222222222, 248.99999999999997C515.1737037037036, 237.33255246913578, 764.8262962962962, 237.33255246913575, 1028.9577777777777, 248.99999999999997"/>
<path fill="none" stroke="#000000" stroke-width="1.0" d="M 250.72222222222217, 254.99999999999997C515.1203703703702, 243.97878086419752, 764.8796296296294, 243.97878086419752, 1029.2777777777774, 254.99999999999997"/>
<path fill="none" stroke="#000000" stroke-width="1.0" d="M 250.41999999999996, 261.0C515.0699999999999, 250.62241666666665, 764.9300000000001, 250.62241666666665, 1029.58, 261.0"/>
<path fill="none" stroke="#000000" stroke-width="1.0" d="M 250.13555555555558, 267.00000000000006C515.0225925925926, 257.2636080246914, 764.9774074074076, 257.2636080246914, 1029.8644444444444, 267.00000000000006"/>
<path fill="none" stroke="#000000" stroke-width="1.0" d="M 249.86888888888885, 272.99999999999994C514.9781481481481, 263.9025030864197, 765.0218518518517, 263.9025030864197, 1030.131111111111, 272.99999999999994"/>
<path fill="none" stroke="#000000" stroke-width="1.0" d="M 249.62000000000003, 279.0000000000001C514.9366666666667, 270.53925000000004, 765.0633333333335, 270.53925000000004, 1030.38, 279.0000000000001"/>
<path fill="none" stroke="#000000" stroke-width="1.0" d="M 249.3888888888889, 285.00000000000006C514.8981481481483, 277.17399691358025, 765.1018518518521, 277.17399691358025, 1030.6111111111113, 285.00000000000006"/>
<path fill="none" stroke="#000000" stroke-width="1.0" d="M 249.17555555555552, 291.0C514.8625925925925, 283.80689197530864, 765.1374074074073, 283.80689197530864, 1030.8244444444442, 291.0"/>
<path fill="none" stroke="#000000" stroke-width="1.0" d="M 248.98000000000002, 297.0C514.8299999999999, 290.43808333333334, 765.1700000000001, 290.43808333333334, 1031.02, 297.0"/>
<path fill="none" stroke="#000000" stroke-width="1.0" d="M 248.80222222222218, 303.0C514.8003703703702, 297.06771913580246, 765.1996296296295, 297.0677191358024, 1031.1977777777777, 303.0"/>
<path fill="none" stroke="#000000" stroke-width="1.0" d="M 248.6422222222222, 308.99999999999994C514.7737037037036, 303.69594753086415, 765.2262962962961, 303.69594753086415, 1031.3577777777775, 308.99999999999994"/>
<path fill="none" stroke="#000000" stroke-width="1.0" d="M 248.5, 315.0C514.75, 310.3229166666667, 765.25, 310.3229166666667, 1031.5, 315.0"/>
<path fill="none" stroke="#000000" stroke-width="1.0" d="M 248.37555555555554, 321.00000000000006C514.7292592592593, 316.9487746913581, 765.2707407407408, 316.94877469135804, 1031.6244444444444, 321.00000000000006"/>
<path fill="none" stroke="#000000" stroke-width="1.0" d="M 248.2688888888889, 327.0C514.7114814814815, 323.5736697530865, 765.2885185185188, 323.5736697530864, 1031.7311111111112, 327.0"/>
<path fill="none" stroke="#000000" stroke-width="1.0" d="M 248.18, 333.0C514.6966666666666, 330.19775000000004, 765.3033333333333, 330.1977499999999, 1031.82, 333.0"/>
<path fill="none" stroke="#000000" stroke-width="1.0" d="M 248.10888888888886, 339.0C514.6848148148148, 336.82116358024695, 765.3151851851851, 336.82116358024683, 1031.891111111111, 339.0"/>
<path fill="none" stroke="#000000" stroke-width="1.0" d="M 248.05555555555551, 345.0C514.6759259259259, 343.4440586419753, 765.3240740740739, 343.4440586419753, 1031.9444444444441, 345.0"/>
<path fill="none" stroke="#000000" stroke-width="1.0" d="M 248.01999999999992, 350.99999999999994C514.6699999999998, 350.06658333333326, 765.3299999999998, 350.06658333333326, 1031.9799999999996, 350.99999999999994"/>
<path fill="none" stroke="#000000" stroke-width="1.0" d="M 248.0022222222222, 357.0C514.667037037037, 356.68888580246914, 765.3329629629629, 356.68888580246914, 1031.9977777777776, 357.0"/>
<path fill="none" stroke="#000000" stroke-width="1.0" d="M 248.00222222222223, 363.0C514.667037037037, 363.31111419753086, 765.3329629629628, 363.3111141975308, 1031.9977777777776, 363.0"/>
<path fill="none" stroke="#000000" stroke-width="1.0" d="M 248.01999999999998, 369.0C514.67, 369.93341666666663, 765.3299999999999, 369.93341666666663, 1031.98, 369.0"/>
<path fill="none" stroke="#000000" stroke-width="1.0" d="M 248.05555555555557, 375.00000000000006C514.6759259259259, 376.5559413580248, 765.324074074074, 376.5559413580247, 1031.9444444444443, 375.00000000000006"/>
<path fill="none" stroke="#000000" stroke-width="1.0" d="M 248.1088888888889, 381.0000000000001C514.6848148148148, 383.17883641975317, 765.3151851851853, 383.1788364197531, 1031.8911111111113, 381.0000000000001"/>
<path fill="none" stroke="#000000" stroke-width="1.0" d="M 248.18, 387.0C514.6966666666666, 389.80224999999996, 765.3033333333334, 389.80224999999996, 1031.82, 387.0"/>
<path fill="none" stroke="#000000" stroke-width="1.0" d="M 248.26888888888885, 393.0C514.7114814814814, 396.4263302469135, 765.2885185185185, 396.4263302469135, 1031.731111111111, 393.0"/>
<path fill="none" stroke="#000000" stroke-width="1.0" d="M 248.37555555555554, 399.0C514.7292592592593, 403.051225308642, 765.2707407407407, 403.051225308642, 1031.6244444444444, 399.0"/>
<path fill="none" stroke="#000000" stroke-width="1.0" d="M 248.5, 405.0C514.75, 409.6770833333333, 765.25, 409.6770833333333, 1031.5, 405.0"/>
<path fill="none" stroke="#000000" stroke-width="1.0" d="M 248.64222222222222, 411.0C514.7737037037036, 416.3040524691358, 765.2262962962964, 416.30405246913574, 1031.3577777777775, 411.0"/>
<path fill="none" stroke="#000000" stroke-width="1.0" d="M 248.80222222222218, 417.0C514.8003703703703, 422.93228086419754, 765.1996296296296, 422.9322808641974, 1031.1977777777774, 417.0"/>
<path fill="none" stroke="#000000" stroke-width="1.0" d="M 248.98, 423.0C514.8299999999999, 429.56191666666666, 765.1700000000001, 429.56191666666666, 1031.0199999999998, 423.0"/>
<path fill="none" stroke="#000000" stroke-width="1.0" d="M 249.17555555555552, 429.0C514.8625925925925, 436.19310802469136, 765.1374074074073, 436.19310802469136, 1030.8244444444442, 429.0"/>
<path fill="none" stroke="#000000" stroke-width="1.0" d="M 249.38888888888886, 434.9999999999999C514.8981481481482, 442.8260030864197, 765.1018518518518, 442.82600308641963, 1030.6111111111109, 434.9999999999999"/>
<path fill="none" stroke="#000000" stroke-width="1.0" d="M 249.62, 441.00000000000006C514.9366666666666, 449.4607500000001, 765.0633333333333, 449.4607500000001, 1030.3799999999999, 441.00000000000006"/>
<path fill="none" stroke="#000000" stroke-width="1.0" d="M 249.86888888888888, 447.0C514.9781481481481, 456.09749691358024, 765.0218518518518, 456.09749691358024, 1030.131111111111, 447.0"/>
<path fill="none" stroke="#000000" stroke-width="1.0" d="M 250.13555555555556, 453.0C515.0225925925926, 462.7363919753086, 764.9774074074076, 462.7363919753086, 1029.8644444444444, 453.0"/>
<path fill="none" stroke="#000000" stroke-width="1.0" d="M 250.41999999999996, 459.0C515.0699999999999, 469.3775833333333, 764.9300000000001, 469.3775833333333, 1029.58, 459.0"/>
<path fill="none" stroke="#000000" stroke-width="1.0" d="M 250.7222222222222, 465.00000000000006C515.1203703703703, 476.02121913580254, 764.8796296296296, 476.0212191358024, 1029.2777777777776, 465.00000000000006"/>
<path fill="none" stroke="#000000" stroke-width="1.0" d="M 251.04222222222222, 471.0C515.1737037037037, 482.66744753086425, 764.8262962962963, 482.66744753086425, 1028.9577777777777, 471.0"/>
<path fill="none" stroke="#000000" stroke-width="1.0" d="M 251.38, 477.0C515.2299999999999, 489.31641666666667, 764.77, 489.31641666666667, 1028.62, 477.0"/>
<path fill="none" stroke="#000000" stroke-width="1.0" d="M 251.73555555555555, 483.0C515.2892592592592, 495.968274691358, 764.7107407407408, 495.9682746913579, 1028.2644444444443, 483.0"/>
<path fill="none" stroke="#000000" stroke-width="1.0" d="M 252.10888888888888, 489.0C515.3514814814814, 502.6231697530864, 764.6485185185186, 502.6231697530864, 1027.891111111111, 489.0"/>
<path fill="none" stroke="#000000" stroke-width="1.0" d="M 252.49999999999997, 495.0C515.4166666666666, 509.28125, 764.5833333333333, 509.28124999999994, 1027.5, 495.0"/>
<path fill="none" stroke="#000000" stroke-width="1.0" d="M 252.9088888888889, 501.0C515.4848148148149, 515.942663580247, 764.5151851851851, 515.942663580247, 1027.0911111111109, 501.0"/>
<path fill="none" stroke="#000000" stroke-width="1.0" d="M 253.33555555555554, 507.0C515.5559259259259, 522.6075586419754, 764.444074074074, 522.6075586419753, 1026.6644444444444, 507.0"/>
<path fill="none" stroke="#000000" stroke-width="1.0" d="M 253.77999999999997, 513.0C515.6299999999999, 529.2760833333333, 764.3699999999999, 529.2760833333333, 1026.2199999999998, 513.0"/>
<path fill="none" stroke="#000000" stroke-width="1.0" d="M 254.2422222222222, 519.0C515.707037037037, 535.9483858024691, 764.292962962963, 535.9483858024691, 1025.7577777777778, 519.0"/>
<path fill="none" stroke="#000000" stroke-width="1.0" d="M 254.7222222222222, 524.9999999999999C515.787037037037, 542.6246141975307, 764.2129629629629, 542.6246141975307, 1025.2777777777776, 524.9999999999999"/>
<path fill="none" stroke="#000000" stroke-width="1.0" d="M 255.21999999999997, 531.0C515.8699999999999, 549.3049166666666, 764.1299999999999, 549.3049166666666, 1024.7799999999997, 531.0"/>
<path fill="none" stroke="#000000" stroke-width="1.0" d="M 255.73555555555552, 537.0C515.9559259259258, 555.9894413580247, 764.0440740740739, 555.9894413580246, 1024.2644444444443, 537.0"/>
<path fill="none" stroke="#000000" stroke-width="1.0" d="M 256.26888888888885, 542.9999999999999C516.0448148148148, 562.678336419753, 763.9551851851852, 562.6783364197529, 1023.731111111111, 542.9999999999999"/>
<path fill="none" stroke="#000000" stroke-width="1.0" d="M 256.82, 548.9999999999999C516.1366666666665, 569.3717499999999, 763.8633333333332, 569.3717499999999, 1023.1799999999998, 548.9999999999999"/>
<path fill="none" stroke="#000000" stroke-width="1.0" d="M 257.38888888888886, 555.0C516.2314814814814, 576.0698302469136, 763.7685185185185, 576.0698302469135, 1022.6111111111109, 555.0"/>
<path fill="none" stroke="#000000" stroke-width="1.0" d="M 257.97555555555556, 561.0C516.3292592592593, 582.7727253086421, 763.6707407407407, 582.7727253086421, 1022.0244444444445, 561.0"/>
<path fill="none" stroke="#000000" stroke-width="1.0" d="M 258.58, 567.0C516.43, 589.4805833333332, 763.5699999999999, 589.4805833333332, 1021.4199999999998, 567.0"/>
<path fill="none" stroke="#000000" stroke-width="1.0" d="M 259.2022222222222, 573.0C516.5337037037037, 596.1935524691357, 763.4662962962964, 596.1935524691357, 1020.7977777777778, 573.0"/>
<path fill="none" stroke="#000000" stroke-width="1.0" d="M 259.84222222222223, 579.0C516.6403703703703, 602.9117808641976, 763.3596296296296, 602.9117808641975, 1020.1577777777777, 579.0"/>
<path fill="none" stroke="#000000" stroke-width="1.0" d="M 260.5, 585.0C516.75, 609.6354166666666, 763.25, 609.6354166666666, 1019.5, 585.0"/>
<path fill="none" stroke="#000000" stroke-width="1.0" d="M 261.1755555555555, 590.9999999999999C516.8625925925925, 616.3646080246913, 763.1374074074073, 616.3646080246913, 1018.8244444444442, 590.9999999999999"/>
<path fill="none" stroke="#000000" stroke-width="1.0" d="M 261.8688888888889, 597.0C516.9781481481481, 623.0995030864196, 763.0218518518518, 623.0995030864196, 1018.131111111111, 597.0"/>
<path fill="none" stroke="#000000" stroke-width="1.0" d="M 262.58, 603.0C517.0966666666666, 629.84025, 762.9033333333334, 629.84025, 1017.42, 603.0"/>
<path fill="none" stroke="#000000" stroke-width="1.0" d="M 263.3088888888889, 609.0C517.2181481481481, 636.5869969135803, 762.7818518518518, 636.5869969135802, 1016.6911111111111, 609.0"/>
<path fill="none" stroke="#000000" stroke-width="1.0" d="M 264.05555555555554, 615.0C517.3425925925926, 643.3398919753087, 762.6574074074074, 643.3398919753085, 1015.9444444444446, 615.0"/>
<path fill="none" stroke="#000000" stroke-width="1.0" d="M 264.82, 621.0C517.47, 650.0990833333334, 762.53, 650.0990833333333, 1015.1800000000001, 621.0"/>
<path fill="none" stroke="#000000" stroke-width="1.0" d="M 265.6022222222222, 627.0C517.6003703703703, 656.8647191358025, 762.3996296296295, 656.8647191358025, 1014.3977777777777, 627.0"/>
<path fill="none" stroke="#000000" stroke-width="1.0" d="M 266.40222222222224, 633.0C517.7337037037038, 663.6369475308642, 762.2662962962963, 663.6369475308642, 1013.5977777777778, 633.0"/>
<path fill="none" stroke="#000000" stroke-width="1.0" d="M 267.22, 639.0C517.87, 670.4159166666666, 762.1300000000001, 670.4159166666666, 1012.78, 639.0"/>
<path fill="none" stroke="#000000" stroke-width="1.0" d="M 268.05555555555554, 645.0C518.0092592592592, 677.201774691358, 761.9907407407406, 677.201774691358, 1011.9444444444443, 645.0"/>
<path fill="none" stroke="#000000" stroke-width="1.0" d="M 268.9088888888889, 651.0C518.1514814814815, 683.9946697530864, 761.8485185185185, 683.9946697530864, 1011.0911111111111, 651.0"/>
<path fill="none" stroke="#000000" stroke-width="1.0" d="M 269.78, 657.0C518.2966666666666, 690.79475, 761.7033333333334, 690.79475, 1010.22, 657.0"/>
<path fill="none" stroke="#000000" stroke-width="1.0" d="M 270.6688888888889, 663.0000000000001C518.4448148148149, 697.6021635802468, 761.5551851851852, 697.6021635802468, 1009.3311111111111, 663.0000000000001"/>
<path fill="none" stroke="#000000" stroke-width="1.0" d="M 271.5755555555555, 669.0C518.5959259259259, 704.4170586419754, 761.404074074074, 704.4170586419752, 1008.4244444444444, 669.0"/>
<path fill="none" stroke="#000000" stroke-width="1.0" d="M 272.5, 675.0C518.75, 711.2395833333334, 761.25, 711.2395833333334, 1007.5, 675.0"/>
<path fill="none" stroke="#000000" stroke-width="1.0" d="M 273.4422222222222, 680.9999999999999C518.907037037037, 718.069885802469, 761.0929629629629, 718.069885802469, 1006.5577777777777, 680.9999999999999"/>
<path fill="none" stroke="#000000" stroke-width="1.0" d="M 274.40222222222224, 687.0C519.067037037037, 724.9081141975308, 760.932962962963, 724.9081141975308, 1005.5977777777777, 687.0"/>
<path fill="none" stroke="#000000" stroke-width="1.0" d="M 275.38, 693.0000000000001C519.23, 731.7544166666668, 760.7700000000001, 731.7544166666668, 1004.62, 693.0000000000001"/>
<path fill="none" stroke="#000000" stroke-width="1.0" d="M 276.37555555555554, 699.0C519.3959259259259, 738.6089413580247, 760.6040740740741, 738.6089413580247, 1003.6244444444444, 699.0"/>
<path fill="none" stroke="#000000" stroke-width="1.0" d="M 277.3888888888889, 705.0C519.5648148148148, 745.471836419753, 760.4351851851852, 745.471836419753, 1002.6111111111112, 705.0"/>
<path fill="none" stroke="#000000" stroke-width="1.0" d="M 278.42, 711.0C519.7366666666667, 752.34325, 760.2633333333332, 752.34325, 1001.5799999999999, 711.0"/>
<path fill="none" stroke="#000000" stroke-width="1.0" d="M 279.4688888888889, 717.0C519.9114814814815, 759.2233302469135, 760.0885185185185, 759.2233302469135, 1000.531111111111, 717.0"/>
</g>
</svg>