<?xml version="1.0" encoding="utf-8"?>
<!DOCTYPE svg PUBLIC "-//W3C//DTD SVG 1.1 Tiny//EN" "http://www.w3.org/Graphics/SVG/1.1/DTD/svg11-tiny.dtd">
<svg version="1.1" baseProfile="tiny" id="openrndr-svg" xmlns="http://www.w3.org/2000/svg" xmlns:xlink="http://www.w3.org/1999/xlink" x="0px" y="0px" width="1280px" height="720px"><g >
<path fill="none" stroke="#000000" stroke-width="1.0" d="M 280.0, 3.0L1000.0, 3.0"/>
<path fill="none" stroke="#000000" stroke-width="1.0" d="M 280.0, 9.0L1000.0, 9.0"/>
<path fill="none" stroke="#000000" stroke-width="1.0" d="M 280.0, 15.0L1000.0, 15.0"/>
<path fill="none" stroke="#000000" stroke-width="1.0" d="M 280.0, 21.0L1000.0, 21.0"/>
<path fill="none" stroke="#000000" stroke-width="1.0" d="M 280.0, 27.0L1000.0, 27.0"/>
<path fill="none" stroke="#000000" stroke-width="1.0" d="M 280.0, 33.0L1000.0, 33.0"/>
<path fill="none" stroke="#000000" stroke-width="1.0" d="M 280.0, 39.0L1000.0, 39.0"/>
<path fill="none" stroke="#000000" stroke-width="1.0" d="M 280.0, 45.0L1000.0, 45.0"/>
<path fill="none" stroke="#000000" stroke-width="1.0" d="M 280.0, 51.0L1000.0, 51.0"/>
<path fill="none" stroke="#000000" stroke-width="1.0" d="M 280.0, 57.0L1000.0, 57.0"/>
<path fill="none" stroke="#000000" stroke-width="1.0" d="M 280.0, 63.0L1000.0, 63.0"/>
<path fill="none" stroke="#000000" stroke-width="1.0" d="M 280.0, 69.0L1000.0, 69.0"/>
<path fill="none" stroke="#000000" stroke-width="1.0" d="M 280.0, 75.0L1000.0, 75.0"/>
<path fill="none" stroke="#000000" stroke-width="1.0" d="M 280.0, 81.0L1000.0, 81.0"/>
<path fill="none" stroke="#000000" stroke-width="1.0" d="M 280.0, 87.0L1000.0, 87.0"/>
<path fill="none" stroke="#000000" stroke-width="1.0" d="M 280.0, 93.0L1000.0, 93.0"/>
<path fill="none" stroke="#000000" stroke-width="1.0" d="M 280.0, 99.0L1000.0, 99.0"/>
<path fill="none" stroke="#000000" stroke-width="1.0" d="M 280.0, 105.0L1000.0, 105.0"/>
<path fill="none" stroke="#000000" stroke-width="1.0" d="M 280.0, 111.0L1000.0, 111.0"/>
<path fill="none" stroke="#000000" stroke-width="1.0" d="M 280.0, 117.0L1000.0, 117.0"/>
<path fill="none" stroke="#000000" stroke-width="1.0" d="M 280.0, 123.0L1000.0, 123.0"/>
<path fill="none" stroke="#000000" stroke-width="1.0" d="M 280.0, 129.0L1000.0, 129.0"/>
<path fill="none" stroke="#000000" stroke-width="1.0" d="M 280.0, 135.0L1000.0, 135.0"/>
<path fill="none" stroke="#000000" stroke-width="1.0" d="M 280.0, 141.0L1000.0, 141.0"/>
<path fill="none" stroke="#000000" stroke-width="1.0" d="M 280.0, 147.0L1000.0, 147.0"/>
<path fill="none" stroke="#000000" stroke-width="1.0" d="M 280.0, 153.0L1000.0, 153.0"/>
<path fill="none" stroke="#000000" stroke-width="1.0" d="M 280.0, 159.0L1000.0, 159.0"/>
<path fill="none" stroke="#000000" stroke-width="1.0" d="M 280.0, 165.0L1000.0, 165.0"/>
<path fill="none" stroke="#000000" stroke-width="1.0" d="M 280.0, 171.0L1000.0, 171.0"/>
<path fill="none" stroke="#000000" stroke-width="1.0" d="M 280.0, 177.0L1000.0, 177.0"/>
<path fill="none" stroke="#000000" stroke-width="1.0" d="M 280.0, 183.0L1000.0, 183.0"/>
<path fill="none" stroke="#000000" stroke-width="1.0" d="M 280.0, 189.0L1000.0, 189.0"/>
<path fill="none" stroke="#000000" stroke-width="1.0" d="M 280.0, 195.0L1000.0, 195.0"/>
<path fill="none" stroke="#000000" stroke-width="1.0" d="M 280.0, 201.0L1000.0, 201.0"/>
<path fill="none" stroke="#000000" stroke-width="1.0" d="M 280.0, 207.0L1000.0, 207.0"/>
<path fill="none" stroke="#000000" stroke-width="1.0" d="M 280.0, 213.0L1000.0, 213.0"/>
<path fill="none" stroke="#000000" stroke-width="1.0" d="M 280.0, 219.0L1000.0, 219.0"/>
<path fill="none" stroke="#000000" stroke-width="1.0" d="M 280.0, 225.0L1000.0, 225.0"/>
<path fill="none" stroke="#000000" stroke-width="1.0" d="M 280.0, 231.0L1000.0, 231.0"/>
<path fill="none" stroke="#000000" stroke-width="1.0" d="M 280.0, 237.0L1000.0, 237.0"/>
<path fill="none" stroke="#000000" stroke-width="1.0" d="M 280.0, 243.0L1000.0, 243.0"/>
<path fill="none" stroke="#000000" stroke-width="1.0" d="M 280.0, 249.0L1000.0, 249.0"/>
<path fill="none" stroke="#000000" stroke-width="1.0" d="M 280.0, 255.0L1000.0, 255.0"/>
<path fill="none" stroke="#000000" stroke-width="1.0" d="M 280.0, 261.0L1000.0, 261.0"/>
<path fill="none" stroke="#000000" stroke-width="1.0" d="M 280.0, 267.0L1000.0, 267.0"/>
<path fill="none" stroke="#000000" stroke-width="1.0" d="M 280.0, 273.0L1000.0, 273.0"/>
<path fill="none" stroke="#000000" stroke-width="1.0" d="M 280.0, 279.0L1000.0, 279.0"/>
<path fill="none" stroke="#000000" stroke-width="1.0" d="M 280.0, 285.0L1000.0, 285.0"/>
<path fill="none" stroke="#000000" stroke-width="1.0" d="M 280.0, 291.0L1000.0, 291.0"/>
<path fill="none" stroke="#000000" stroke-width="1.0" d="M 280.0, 297.0L1000.0, 297.0"/>
<path fill="none" stroke="#000000" stroke-width="1.0" d="M 280.0, 303.0L1000.0, 303.0"/>
<path fill="none" stroke="#000000" stroke-width="1.0" d="M 280.0, 309.0L1000.0, 309.0"/>
<path fill="none" stroke="#000000" stroke-width="1.0" d="M 280.0, 315.0L1000.0, 315.0"/>
<path fill="none" stroke="#000000" stroke-width="1.0" d="M 280.0, 321.0L1000.0, 321.0"/>
<path fill="none" stroke="#000000" stroke-width="1.0" d="M 280.0, 327.0L1000.0, 327.0"/>
<path fill="none" stroke="#000000" stroke-width="1.0" d="M 280.0, 333.0L1000.0, 333.0"/>
<path fill="none" stroke="#000000" stroke-width="1.0" d="M 280.0, 339.0L1000.0, 339.0"/>
<path fill="none" stroke="#000000" stroke-width="1.0" d="M 280.0, 345.0L1000.0, 345.0"/>
<path fill="none" stroke="#000000" stroke-width="1.0" d="M 280.0, 351.0L1000.0, 351.0"/>
<path fill="none" stroke="#000000" stroke-width="1.0" d="M 280.0, 357.0L1000.0, 357.0"/>
<path fill="none" stroke="#000000" stroke-width="1.0" d="M 280.0, 363.0L1000.0, 363.0"/>
<path fill="none" stroke="#000000" stroke-width="1.0" d="M 280.0, 369.0L1000.0, 369.0"/>
<path fill="none" stroke="#000000" stroke-width="1.0" d="M 280.0, 375.0L1000.0, 375.0"/>
<path fill="none" stroke="#000000" stroke-width="1.0" d="M 280.0, 381.0L1000.0, 381.0"/>
<path fill="none" stroke="#000000" stroke-width="1.0" d="M 280.0, 387.0L1000.0, 387.0"/>
<path fill="none" stroke="#000000" stroke-width="1.0" d="M 280.0, 393.0L1000.0, 393.0"/>
<path fill="none" stroke="#000000" stroke-width="1.0" d="M 280.0, 399.0L1000.0, 399.0"/>
<path fill="none" stroke="#000000" stroke-width="1.0" d="M 280.0, 405.0L1000.0, 405.0"/>
<path fill="none" stroke="#000000" stroke-width="1.0" d="M 280.0, 411.0L1000.0, 411.0"/>
<path fill="none" stroke="#000000" stroke-width="1.0" d="M 280.0, 417.0L1000.0, 417.0"/>
<path fill="none" stroke="#000000" stroke-width="1.0" d="M 280.0, 423.0L1000.0, 423.0"/>
<path fill="none" stroke="#000000" stroke-width="1.0" d="M 280.0, 429.0L1000.0, 429.0"/>
<path fill="none" stroke="#000000" stroke-width="1.0" d="M 280.0, 435.0L1000.0, 435.0"/>
<path fill="none" stroke="#000000" stroke-width="1.0" d="M 280.0, 441.0L1000.0, 441.0"/>
<path fill="none" stroke="#000000" stroke-width="1.0" d="M 280.0, 447.0L1000.0, 447.0"/>
<path fill="none" stroke="#000000" stroke-width="1.0" d="M 280.0, 453.0L1000.0, 453.0"/>
<path fill="none" stroke="#000000" stroke-width="1.0" d="M 280.0, 459.0L1000.0, 459.0"/>
<path fill="none" stroke="#000000" stroke-width="1.0" d="M 280.0, 465.0L1000.0, 465.0"/>
<path fill="none" stroke="#000000" stroke-width="1.0" d="M 280.0, 471.0L1000.0, 471.0"/>
<path fill="none" stroke="#000000" stroke-width="1.0" d="M 280.0, 477.0L1000.0, 477.0"/>
<path fill="none" stroke="#000000" stroke-width="1.0" d="M 280.0, 483.0L1000.0, 483.0"/>
<path fill="none" stroke="#000000" stroke-width="1.0" d="M 280.0, 489.0L1000.0, 489.0"/>
<path fill="none" stroke="#000000" stroke-width="1.0" d="M 280.0, 495.0L1000.0, 495.0"/>
<path fill="none" stroke="#000000" stroke-width="1.0" d="M 280.0, 501.0L1000.0, 501.0"/>
<path fill="none" stroke="#000000" stroke-width="1.0" d="M 280.0, 507.0L1000.0, 507.0"/>
<path fill="none" stroke="#000000" stroke-width="1.0" d="M 280.0, 513.0L1000.0, 513.0"/>
<path fill="none" stroke="#000000" stroke-width="1.0" d="M 280.0, 519.0L1000.0, 519.0"/>
<path fill="none" stroke="#000000" stroke-width="1.0" d="M 280.0, 525.0L1000.0, 525.0"/>
<path fill="none" stroke="#000000" stroke-width="1.0" d="M 280.0, 531.0L1000.0, 531.0"/>
<path fill="none" stroke="#000000" stroke-width="1.0" d="M 280.0, 537.0L1000.0, 537.0"/>
<path fill="none" stroke="#000000" stroke-width="1.0" d="M 280.0, 543.0L1000.0, 543.0"/>
<path fill="none" stroke="#000000" stroke-width="1.0" d="M 280.0, 549.0L1000.0, 549.0"/>
<path fill="none" stroke="#000000" stroke-width="1.0" d="M 280.0, 555.0L1000.0, 555.0"/>
<path fill="none" stroke="#000000" stroke-width="1.0" d="M 280.0, 561.0L1000.0, 561.0"/>
<path fill="none" stroke="#000000" stroke-width="1.0" d="M 280.0, 567.0L1000.0, 567.0"/>
<path fill="none" stroke="#000000" stroke-width="1.0" d="M 280.0, 573.0L1000.0, 573.0"/>
<path fill="none" stroke="#000000" stroke-width="1.0" d="M 280.0, 579.0L1000.0, 579.0"/>
<path fill="none" stroke="#000000" stroke-width="1.0" d="M 280.0, 585.0L1000.0, 585.0"/>
<path fill="none" stroke="#000000" stroke-width="1.0" d="M 280.0, 591.0L1000.0, 591.0"/>
<path fill="none" stroke="#000000" stroke-width="1.0" d="M 280.0, 597.0L1000.0, 597.0"/>
<path fill="none" stroke="#000000" stroke-width="1.0" d="M 280.0, 603.0L1000.0, 603.0"/>
<path fill="none" stroke="#000000" stroke-width="1.0" d="M 280.0, 609.0L1000.0, 609.0"/>
<path fill="none" stroke="#000000" stroke-width="1.0" d="M 280.0, 615.0L1000.0, 615.0"/>
<path fill="none" stroke="#000000" stroke-width="1.0" d="M 280.0, 621.0L1000.0, 621.0"/>
<path fill="none" stroke="#000000" stroke-width="1.0" d="M 280.0, 627.0L1000.0, 627.0"/>
<path fill="none" stroke="#000000" stroke-width="1.0" d="M 280.0, 633.0L1000.0, 633.0"/>
<path fill="none" stroke="#000000" stroke-width="1.0" d="M 280.0, 639.0L1000.0, 639.0"/>
<path fill="none" stroke="#000000" stroke-width="1.0" d="M 280.0, 645.0L1000.0, 645.0"/>
<path fill="none" stroke="#000000" stroke-width="1.0" d="M 280.0, 651.0L1000.0, 651.0"/>
<path fill="none" stroke="#000000" stroke-width="1.0" d="M 280.0, 657.0L1000.0, 657.0"/>
<path fill="none" stroke="#000000" stroke-width="1.0" d="M 280.0, 663.0L1000.0, 663.0"/>
<path fill="none" stroke="#000000" stroke-width="1.0" d="M 280.0, 669.0L1000.0, 669.0"/>
<path fill="none" stroke="#000000" stroke-width="1.0" d="M 280.0, 675.0L1000.0, 675.0"/>
<path fill="none" stroke="#000000" stroke-width="1.0" d="M 280.0, 681.0L1000.0, 681.0"/>
<path fill="none" stroke="#000000" stroke-width="1.0" d="M 280.0, 687.0L1000.0, 687.0"/>
<path fill="none" stroke="#000000" stroke-width="1.0" d="M 280.0, 693.0L1000.0, 693.0"/>
<path fill="none" stroke="#000000" stroke-width="1.0" d="M 280.0, 699.0L1000.0, 699.0"/>
<path fill="none" stroke="#000000" stroke-width="1.0" d="M 280.0, 705.0L1000.0, 705.0"/>
<path fill="none" stroke="#000000" stroke-width="1.0" d="M 280.0, 711.0L1000.0, 711.0"/>
<path fill="none" stroke="#000000" stroke-width="1.0" d="M 280.0, 717.0L1000.0, 717.0"/>
</g>
</svg>