<?xml version="1.0" encoding="utf-8"?>
<!DOCTYPE svg PUBLIC "-//W3C//DTD SVG 1.1 Tiny//EN" "http://www.w3.org/Graphics/SVG/1.1/DTD/svg11-tiny.dtd">
<svg version="1.1" baseProfile="tiny" id="openrndr-svg" xmlns="http://www.w3.org/2000/svg" xmlns:xlink="http://www.w3.org/1999/xlink" x="0px" y="0px" width="1280px" height="720px"><g >
<path fill="none" stroke="#000000" stroke-width="1.0" d="M 280.0, 6.0L1000.0, 6.0"/>
<path fill="none" stroke="#000000" stroke-width="1.0" d="M 280.0, 18.0L1000.0, 18.0"/>
<path fill="none" stroke="#000000" stroke-width="1.0" d="M 280.0, 30.0L1000.0, 30.0"/>
<path fill="none" stroke="#000000" stroke-width="1.0" d="M 280.0, 42.0L1000.0, 42.0"/>
<path fill="none" stroke="#000000" stroke-width="1.0" d="M 280.0, 54.0L1000.0, 54.0"/>
<path fill="none" stroke="#000000" stroke-width="1.0" d="M 280.0, 66.0L1000.0, 66.0"/>
<path fill="none" stroke="#000000" stroke-width="1.0" d="M 280.0, 78.0L1000.0, 78.0"/>
<path fill="none" stroke="#000000" stroke-width="1.0" d="M 280.0, 90.0L1000.0, 90.0"/>
<path fill="none" stroke="#000000" stroke-width="1.0" d="M 280.0, 102.0L1000.0, 102.0"/>
<path fill="none" stroke="#000000" stroke-width="1.0" d="M 280.0, 114.0L1000.0, 114.0"/>
<path fill="none" stroke="#000000" stroke-width="1.0" d="M 280.0, 126.0L1000.0, 126.0"/>
<path fill="none" stroke="#000000" stroke-width="1.0" d="M 280.0, 138.0L1000.0, 138.0"/>
<path fill="none" stroke="#000000" stroke-width="1.0" d="M 280.0, 150.0L1000.0, 150.0"/>
<path fill="none" stroke="#000000" stroke-width="1.0" d="M 280.0, 162.0L1000.0, 162.0"/>
<path fill="none" stroke="#000000" stroke-width="1.0" d="M 280.0, 174.0L1000.0, 174.0"/>
<path fill="none" stroke="#000000" stroke-width="1.0" d="M 280.0, 186.0L1000.0, 186.0"/>
<path fill="none" stroke="#000000" stroke-width="1.0" d="M 280.0, 198.0L1000.0, 198.0"/>
<path fill="none" stroke="#000000" stroke-width="1.0" d="M 280.0, 210.0L1000.0, 210.0"/>
<path fill="none" stroke="#000000" stroke-width="1.0" d="M 280.0, 222.0L1000.0, 222.0"/>
<path fill="none" stroke="#000000" stroke-width="1.0" d="M 280.0, 234.0L1000.0, 234.0"/>
<path fill="none" stroke="#000000" stroke-width="1.0" d="M 280.0, 246.0L1000.0, 246.0"/>
<path fill="none" stroke="#000000" stroke-width="1.0" d="M 280.0, 258.0L1000.0, 258.0"/>
<path fill="none" stroke="#000000" stroke-width="1.0" d="M 280.0, 270.0L1000.0, 270.0"/>
<path fill="none" stroke="#000000" stroke-width="1.0" d="M 280.0, 282.0L1000.0, 282.0"/>
<path fill="none" stroke="#000000" stroke-width="1.0" d="M 280.0, 294.0L1000.0, 294.0"/>
<path fill="none" stroke="#000000" stroke-width="1.0" d="M 280.0, 306.0L1000.0, 306.0"/>
<path fill="none" stroke="#000000" stroke-width="1.0" d="M 280.0, 318.0L1000.0, 318.0"/>
<path fill="none" stroke="#000000" stroke-width="1.0" d="M 280.0, 330.0L1000.0, 330.0"/>
<path fill="none" stroke="#000000" stroke-width="1.0" d="M 280.0, 342.0L1000.0, 342.0"/>
<path fill="none" stroke="#000000" stroke-width="1.0" d="M 280.0, 354.0L1000.0, 354.0"/>
<path fill="none" stroke="#000000" stroke-width="1.0" d="M 280.0, 366.0L1000.0, 366.0"/>
<path fill="none" stroke="#000000" stroke-width="1.0" d="M 280.0, 378.0L1000.0, 378.0"/>
<path fill="none" stroke="#000000" stroke-width="1.0" d="M 280.0, 390.0L1000.0, 390.0"/>
<path fill="none" stroke="#000000" stroke-width="1.0" d="M 280.0, 402.0L1000.0, 402.0"/>
<path fill="none" stroke="#000000" stroke-width="1.0" d="M 280.0, 414.0L1000.0, 414.0"/>
<path fill="none" stroke="#000000" stroke-width="1.0" d="M 280.0, 426.0L1000.0, 426.0"/>
<path fill="none" stroke="#000000" stroke-width="1.0" d="M 280.0, 438.0L1000.0, 438.0"/>
<path fill="none" stroke="#000000" stroke-width="1.0" d="M 280.0, 450.0L1000.0, 450.0"/>
<path fill="none" stroke="#000000" stroke-width="1.0" d="M 280.0, 462.0L1000.0, 462.0"/>
<path fill="none" stroke="#000000" stroke-width="1.0" d="M 280.0, 474.0L1000.0, 474.0"/>
<path fill="none" stroke="#000000" stroke-width="1.0" d="M 280.0, 486.0L1000.0, 486.0"/>
<path fill="none" stroke="#000000" stroke-width="1.0" d="M 280.0, 498.0L1000.0, 498.0"/>
<path fill="none" stroke="#000000" stroke-width="1.0" d="M 280.0, 510.0L1000.0, 510.0"/>
<path fill="none" stroke="#000000" stroke-width="1.0" d="M 280.0, 522.0L1000.0, 522.0"/>
<path fill="none" stroke="#000000" stroke-width="1.0" d="M 280.0, 534.0L1000.0, 534.0"/>
<path fill="none" stroke="#000000" stroke-width="1.0" d="M 280.0, 546.0L1000.0, 546.0"/>
<path fill="none" stroke="#000000" stroke-width="1.0" d="M 280.0, 558.0L1000.0, 558.0"/>
<path fill="none" stroke="#000000" stroke-width="1.0" d="M 280.0, 570.0L1000.0, 570.0"/>
<path fill="none" stroke="#000000" stroke-width="1.0" d="M 280.0, 582.0L1000.0, 582.0"/>
<path fill="none" stroke="#000000" stroke-width="1.0" d="M 280.0, 594.0L1000.0, 594.0"/>
<path fill="none" stroke="#000000" stroke-width="1.0" d="M 280.0, 606.0L1000.0, 606.0"/>
<path fill="none" stroke="#000000" stroke-width="1.0" d="M 280.0, 618.0L1000.0, 618.0"/>
<path fill="none" stroke="#000000" stroke-width="1.0" d="M 280.0, 630.0L1000.0, 630.0"/>
<path fill="none" stroke="#000000" stroke-width="1.0" d="M 280.0, 642.0L1000.0, 642.0"/>
<path fill="none" stroke="#000000" stroke-width="1.0" d="M 280.0, 654.0L1000.0, 654.0"/>
<path fill="none" stroke="#000000" stroke-width="1.0" d="M 280.0, 666.0L1000.0, 666.0"/>
<path fill="none" stroke="#000000" stroke-width="1.0" d="M 280.0, 678.0L1000.0, 678.0"/>
<path fill="none" stroke="#000000" stroke-width="1.0" d="M 280.0, 690.0L1000.0, 690.0"/>
<path fill="none" stroke="#000000" stroke-width="1.0" d="M 280.0, 702.0L1000.0, 702.0"/>
<path fill="none" stroke="#000000" stroke-width="1.0" d="M 280.0, 714.0L1000.0, 714.0"/>
</g>
</svg>