<?xml version="1.0" encoding="utf-8"?>
<!-- Generator: Adobe Illustrator 22.1.0, SVG Export Plug-In . SVG Version: 6.00 Build 0)  -->
<svg version="1.1" baseProfile="tiny" id="Layer_1" xmlns="http://www.w3.org/2000/svg" xmlns:xlink="http://www.w3.org/1999/xlink"
	 x="0px" y="0px" viewBox="0 0 1280 720" xml:space="preserve">
<g>
	<g>
		<path d="M529.2,43.2c-3.3-8.1-6-12.3-8.5-14.6c-3.5-3.4-6.6-4.2-19.7-1.9l-11.9,2.1l14.8,83.5c2.3,13.3,4.4,14.8,20.7,13.1
			l0.9,4.9l-50,8.9l-0.9-4.9c15.2-3.9,16.4-5.9,14.1-19.3l-14.8-83.5l-10.4,1.8c-14.4,2.6-17.5,4.7-19.4,8.8
			c-1.5,3.2-2.1,8.5-2.8,16.6l-5.2,0.9c-1-10.7-2-22.1-3.4-31.6l3.5-0.6c3.2,3.6,5.3,3.4,10.3,2.5l68.8-12.2
			c4.5-0.8,5.9-2.1,8.1-5.8l3.5-0.6c1.4,7.9,4.5,20.5,7.1,30.4L529.2,43.2z"/>
		<path d="M700.6,16.8c-14.3,0.8-15.7,1.8-15.9,16.3l-1.1,69.3c-0.2,14.6,1.1,15.5,15.4,16.9l-0.1,4.9l-47.7-0.8l0.1-4.9
			c14.8-1,16.4-1.8,16.6-16.4l0.6-34.2l-59.4-1l-0.6,34.2c-0.2,14.5,1.3,15.5,15.6,17l-0.1,4.9l-46.7-0.8l0.1-4.9
			c13.8-1,15.4-1.8,15.6-16.4l1.1-69.3c0.2-14.5-1.3-15.5-15.6-16.8l0.1-5.1l46.3,0.8l-0.1,5.1c-13.5,0.8-15,1.8-15.3,16.3
			l-0.5,27.8l59.4,1l0.5-27.8c0.2-14.5-1.3-15.5-14.9-16.8l0.1-5.1l46.5,0.8L700.6,16.8z"/>
		<path d="M821.9,116.9c-2.1,5.7-8.3,21-10.8,26.1l-83.8-15.4l0.9-4.9c16,1.5,17.6,0.5,20.1-13.5l12.4-67.4
			c2.8-15.2,1.6-16.2-11.5-19.6l0.9-5l77.1,14.1c-0.6,4.4-1.9,16.1-2.9,25.1l-5.3-0.3c-0.4-7.2-1.4-11.3-3-15.6
			c-1.9-4-6.2-6-18.4-8.2l-12.7-2.3c-5.5-1-5.9-0.7-6.8,4.3l-7.1,38.5l15.9,2.9c15.4,2.8,16.7,1.7,20.9-9.3l5,0.9l-6,32.8l-5-0.9
			c-0.1-12.7-1.1-13.9-16-16.6l-16.1-2.9l-5.8,31.8c-1.5,8-1.1,11.9,1.7,14.5c3,2.6,9,3.9,17.2,5.4c12.7,2.3,18,1.9,22.7-1.7
			c3.5-3,7.9-8.2,11.7-14.5L821.9,116.9z"/>
	</g>
	<g>
		<path d="M286.5,281.8c-8.4-7.6-19.1-15.4-31.8-7.4c-11.1,7-11.4,18-6.3,26.1c6.5,10.4,16.6,11.1,32.2,9.6c16-1.4,33.9-3,44.1,13.2
			c9.8,15.6,4.3,36.3-15.6,48.8c-6.1,3.8-11.7,5.7-16,6.8c-4.6,1.3-7.4,1.6-9.3,1.8c-3-2.5-13.1-14.1-18.5-20.8l3.6-3.9
			c8.1,7.8,24.5,18.6,39.8,9c11-6.9,13-17.8,6.4-28.3c-6.7-10.7-17.7-11-32.7-9.8c-13.4,1.1-32.4,2.8-42.6-13.5
			c-9-14.4-5-33.6,14.2-45.7c7.1-4.4,14.5-6.7,21.1-8.4c3.8,4.8,8.3,10.1,15.4,18.7L286.5,281.8z"/>
		<path d="M382.8,204.8c28.1-10.4,61.6,1.4,73.6,33.9c13,35-4.4,66-34.7,77.2c-30.2,11.2-62.6-2.7-74.2-34
			c-10.8-29.1,0.3-64.1,35.1-77L382.8,204.8z M381.6,212.2c-18.2,6.8-29.6,28.4-18.2,58.9c11.2,30.2,36.6,46.2,59.8,37.6
			c18.2-6.8,29.1-27.9,17.4-59.2c-12.6-34-37.4-45.3-58.8-37.4L381.6,212.2z"/>
		<path d="M609.7,165.6c-10.2,1.9-14,4.7-13.9,11.9c0.1,4.8,0.4,12.1,2.2,27.7l1.6,13.9c2.4,20.1,0.9,35.4-8,47.1
			c-7,9.4-18.2,14.3-29.9,15.7c-10.3,1.2-20.7,0.1-29.3-5.1c-11.4-6.5-17.8-18.8-20.3-39.3l-5-42c-1.9-15.7-3.5-16.2-17.3-15.8
			l-0.6-5.1l45.7-5.4l0.6,5.1c-13.4,2.4-14.7,3.6-12.8,19.4l4.5,38.4c3.3,27.9,16.5,42.1,37.8,39.6c24.5-2.9,30.4-24,27.1-52.6
			l-1.6-13.2c-1.8-15.4-3.2-22.6-4.7-27.8c-1.6-6.5-5.8-8.2-18.1-7.6l-0.6-5.1l41.6-4.9L609.7,165.6z"/>
		<path d="M779.7,180.1c-9.7-0.6-14,0.9-15.8,8.6c-1.1,5.2-2.6,12.9-4.4,28.8l-8.2,69.2l-5.6-0.7l-64.1-98.7l-0.3,0l-5.1,42.6
			c-1.9,15.7-2.3,23.9-2.4,29c0,8.7,3.4,11.6,15.4,13.7l-0.6,4.9l-41.3-4.9l0.6-4.9c9.9,0.7,14.5-1.2,16.5-9.4
			c1.2-5.5,2.6-13.6,4.5-29.3l4.4-37.4c1.5-12.5,1.3-13.6-1.3-18c-3.2-4.7-6.8-6.5-14.8-8.1l0.6-5.1l26.4,3.1l62.6,94.2l0.5,0.1
			l4.9-41.3c1.9-15.9,2.1-23.8,2.2-28.7c0.1-7.9-3.9-10.6-16-12.7l0.6-5.1l41.3,4.9L779.7,180.1z"/>
		<path d="M879.6,205.8c20.9,7.8,34.8,17.9,41.3,31.5c5.3,10.7,6.7,24.7,1,40c-7.2,19.3-20.5,30.9-36.6,35.6
			c-15.7,4.7-33.9,2.6-54-5L791.4,293l1.7-4.5c14.6,4.2,16.4,3.8,21.6-10.1l24.2-64.6c5.2-13.9,4.1-15.2-8.2-20.9l1.8-4.8
			L879.6,205.8z M829.8,282.8c-4.7,12.4-0.4,17.5,11.6,22c30.3,11.4,53.1-5.8,62.7-31.4c6.3-16.9,5.2-33.3-4.4-45.7
			c-5.5-7.5-14.3-13.4-25.4-17.5c-7.2-2.7-11.7-3.3-13.9-2.8c-2,0.5-3.2,2.3-5.6,8.6L829.8,282.8z"/>
		<path d="M1023.9,308.9c3.2-10.9,5.5-23.9-7.1-31.8c-11.1-7-21.2-2.5-26.3,5.6c-6.5,10.4-2.8,19.8,5.3,33.1
			c8.2,13.8,17.4,29.3,7.3,45.4c-9.8,15.6-30.9,19.6-50.8,7.1c-6.1-3.8-10.2-8-13.1-11.5c-3.2-3.6-4.7-6-5.7-7.6
			c1-3.8,7-17.9,10.7-25.7l5.1,1.6c-3.5,10.7-6.1,30.2,9.2,39.8c11,6.9,21.7,4,28.3-6.6c6.7-10.7,2.2-20.8-5.3-33.7
			c-6.8-11.5-16.6-28-6.4-44.3c9.1-14.4,28.1-19.1,47.3-7.1c7.1,4.4,12.3,10.2,16.7,15.3c-2.7,5.6-5.4,11.9-10.2,22L1023.9,308.9z"
			/>
	</g>
	<g>
		<path d="M418.4,627c3.7,4.8,13.5,18.1,16.5,22.9l-57.1,63.2l-3.7-3.3c9.7-12.8,9.6-14.7-0.9-24.2l-50.8-45.9
			c-11.5-10.4-12.9-9.8-22.7-0.5l-3.8-3.4l52.5-58.1c3.4,2.8,12.7,10.1,19.8,15.6l-3,4.4c-6.3-3.4-10.4-4.8-14.9-5.6
			c-4.4-0.5-8.3,2.1-16.7,11.3l-8.7,9.6c-3.8,4.2-3.7,4.7,0,8.1l29.1,26.3l10.9-12c10.5-11.6,10.2-13.3,3.1-22.7l3.4-3.8l24.8,22.4
			l-3.4,3.8c-10.8-6.6-12.4-6.4-22.5,4.9l-11,12.1l24,21.7c6.1,5.5,9.5,7.2,13.2,6.2c3.8-1.2,8-5.6,13.6-11.8
			c8.7-9.6,11.1-14.3,10.4-20.2c-0.7-4.5-2.8-11.1-6.2-17.5L418.4,627z"/>
		<path d="M517.3,602.2l-2.1-4.5c9.4-6.1,10.1-8.1,5.1-13.1c-4.9-5.2-11.7-12-19.5-19.9L467,580.6c0.9,8.4,1.7,15.7,2.7,23
			c1,11.4,3,12.5,15.8,8l2.1,4.5l-34.9,16.3l-2.1-4.5c9.5-6.3,11.1-8.4,10.4-24.8l-5.6-97.5l4.6-3.8c22.8,22.6,46.8,46.6,69.8,69.2
			c11.3,11.3,14.2,11.8,25,8l2.1,4.5L517.3,602.2z M463.1,526.2l-0.3,0.1c0.9,15.6,2.5,31.4,3.8,46.4l28.7-13.4L463.1,526.2z"/>
		<path d="M681.8,579.6c-2.2,0.1-4.3,0.1-6.3,0c-13.6-0.4-21.1-3.9-29.2-15c-6.3-8.4-12.7-18.9-18-27.2c-3.2-4.9-6.3-6.8-15.2-6.6
			l-5.3,0.1l0.7,27.2c0.4,14.5,1.9,15.6,16.1,16.5l0.1,4.9l-46.7,1.1l-0.1-4.9c14.1-1.5,15.6-2.8,15.3-17.2l-1.7-69.1
			c-0.4-14.6-1.7-15.5-15.4-16.2l-0.1-5.1l43.9-1.1c13.3-0.3,21.7,1,28.4,5.3c7.3,4.3,12,12,12.3,22.5c0.4,14.8-9,24.1-21.6,29.8
			c3.2,5.7,10.8,17.1,16.1,24.7c6.7,9,10.2,13.7,14.6,17.9c4.7,4.8,8.7,6.8,12.6,7.9L681.8,579.6z M615.7,525
			c8.9-0.2,14.6-1.7,19-5.4c6.5-5.4,9.1-12.1,8.8-21.7c-0.5-18.6-12.9-25.1-25.8-24.8c-4.9,0.1-8,0.9-9.3,1.9
			c-1.3,0.9-1.8,2.8-1.7,7.5l1,42.6L615.7,525z"/>
		<path d="M809.7,533.5c1.2-8.6,1-13.6,0-16.9c-1.4-4.7-3.6-7-16.1-11.5l-11.4-4.2l-29.2,79.6c-4.6,12.6-3.7,15,11.3,21.7l-1.7,4.6
			L715,589.5l1.7-4.6c15.1,4.3,17.2,3.2,21.8-9.6l29.2-79.6l-9.9-3.6c-13.8-5-17.5-4.8-21.2-2.1c-2.9,2-6.1,6.3-10.7,12.9l-5-1.8
			c4.5-9.8,9.4-20.1,13-29l3.4,1.2c1,4.7,2.9,5.6,7.7,7.3l65.6,24c4.3,1.6,6.1,1.1,9.9-0.9l3.4,1.2c-2.8,7.5-6.4,20-9.1,29.9
			L809.7,533.5z"/>
		<path d="M967.5,635.2c-10.9-9.4-12.5-9.6-22.8,0.6L895.8,685c-10.3,10.4-10,11.9-0.7,22.9l-3.5,3.5l-33.8-33.7l3.5-3.5
			c11.3,9.6,13,10.1,23.4-0.3l24.2-24.2l-42.1-42l-24.2,24.2c-10.2,10.3-9.9,12.1-0.6,23l-3.5,3.5l-33.1-32.9l3.5-3.5
			c10.6,8.9,12.3,9.4,22.6-1l48.9-49.1c10.2-10.3,9.9-12.1,0.4-22.9l3.6-3.6l32.8,32.7l-3.6,3.6c-10.3-8.8-12.1-9.1-22.3,1.1
			l-19.6,19.7l42.1,42l19.6-19.7c10.2-10.3,9.9-12.1,0.9-22.4l3.6-3.6l32.9,32.8L967.5,635.2z"/>
	</g>
	<g>
		<path d="M578.7,331.4c25.6-2.6,50.8,14.6,53.7,44c3.2,31.8-17.9,53.7-45.5,56.5c-27.5,2.8-51.3-15.8-54.2-44.3
			c-2.7-26.4,14.2-53.1,45.8-56.3L578.7,331.4z M576.1,337.2c-16.6,1.7-30.7,17.2-27.9,44.9c2.8,27.5,20.4,46.2,41.4,44.1
			c16.6-1.7,30.1-16.8,27.3-45.3c-3.1-30.9-21.2-45.7-40.6-43.7L576.1,337.2z"/>
		<path d="M735,362.5c-0.5-6.1-1-9.1-2.6-12.6c-2.1-4.4-5.1-6-16.2-7.5l-11-1.5c-4.5-0.6-5-0.4-5.5,4l-4.7,34.7l15,2
			c13.5,1.8,14.4,0.6,17.5-8.7l4.5,0.6l-3.9,28.6l-4.5-0.6c-0.4-10.4-1-12.4-14.4-14.2l-15-2l-3.6,26.3
			c-1.7,12.7-0.7,13.8,12.8,16.6l-0.6,4.2l-41.1-5.6l0.6-4.2c12,0.6,13.3-0.1,15-12.9l7.9-58c1.7-12.9,0.7-13.8-10.6-16.2l0.6-4.3
			l65.8,8.9c-0.6,5.4-1.1,14.9-1.4,22.1L735,362.5z"/>
	</g>
	<g>
	</g>
</g>
<g>
</g>
<g>
</g>
<g>
</g>
<g>
</g>
<g>
</g>
<g>
</g>
<g>
</g>
<g>
</g>
<g>
</g>
<g>
</g>
<g>
</g>
<g>
</g>
<g>
</g>
<g>
</g>
<g>
</g>
</svg>
