<?xml version="1.0" encoding="utf-8"?>
<!DOCTYPE svg PUBLIC "-//W3C//DTD SVG 1.1 Tiny//EN" "http://www.w3.org/Graphics/SVG/1.1/DTD/svg11-tiny.dtd">
<svg version="1.1" baseProfile="tiny" id="openrndr-svg" xmlns="http://www.w3.org/2000/svg" xmlns:xlink="http://www.w3.org/1999/xlink" x="0px" y="0px" width="1280px" height="720px"><g >
<path fill="none" stroke="#000000" stroke-width="1.0" d="M 106.0, 12.0L165.5163365382438, 12.0"/>
<path fill="none" stroke="#000000" stroke-width="1.0" d="M 1124.4836634617561, 12.0L1174.0, 12.0"/>
<path fill="none" stroke="#000000" stroke-width="1.0" d="M 106.0, 36.0L166.30391616297655, 36.0"/>
<path fill="none" stroke="#000000" stroke-width="1.0" d="M 1123.696083837024, 36.0L1174.0, 36.0"/>
<path fill="none" stroke="#000000" stroke-width="1.0" d="M 106.0, 60.0L168.28695998064813, 60.0"/>
<path fill="none" stroke="#000000" stroke-width="1.0" d="M 1121.7130400193519, 60.0L1174.0, 60.0"/>
<path fill="none" stroke="#000000" stroke-width="1.0" d="M 106.0, 84.0L171.48936913914739, 84.0"/>
<path fill="none" stroke="#000000" stroke-width="1.0" d="M 1118.5106308608526, 84.0L1174.0, 84.0"/>
<path fill="none" stroke="#000000" stroke-width="1.0" d="M 106.0, 108.0L175.94275068890386, 108.0"/>
<path fill="none" stroke="#000000" stroke-width="1.0" d="M 1114.057249311096, 108.0L1174.0, 108.0"/>
<path fill="none" stroke="#000000" stroke-width="1.0" d="M 106.0, 132.0L181.68777108491076, 132.0"/>
<path fill="none" stroke="#000000" stroke-width="1.0" d="M 1108.3122289150892, 132.0L1174.0, 132.0"/>
<path fill="none" stroke="#000000" stroke-width="1.0" d="M 106.0, 156.0L188.77596059481095, 156.0"/>
<path fill="none" stroke="#000000" stroke-width="1.0" d="M 1101.2240394051892, 156.0L1174.0, 156.0"/>
<path fill="none" stroke="#000000" stroke-width="1.0" d="M 106.0, 180.0L197.27214614839187, 180.0"/>
<path fill="none" stroke="#000000" stroke-width="1.0" d="M 1092.7278538516082, 180.0L1174.0, 180.0"/>
<path fill="none" stroke="#000000" stroke-width="1.0" d="M 106.0, 204.0L207.25778260149372, 204.0"/>
<path fill="none" stroke="#000000" stroke-width="1.0" d="M 1082.7422173985067, 204.0L1174.0, 204.0"/>
<path fill="none" stroke="#000000" stroke-width="1.0" d="M 106.0, 228.0L218.83560478618546, 228.0"/>
<path fill="none" stroke="#000000" stroke-width="1.0" d="M 1071.1643952138147, 228.0L1174.0, 228.0"/>
<path fill="none" stroke="#000000" stroke-width="1.0" d="M 106.0, 252.0L232.1362835689984, 252.0"/>
<path fill="none" stroke="#000000" stroke-width="1.0" d="M 1057.8637164310016, 252.0L1174.0, 252.0"/>
<path fill="none" stroke="#000000" stroke-width="1.0" d="M 106.0, 276.0L247.32823545257907, 276.0"/>
<path fill="none" stroke="#000000" stroke-width="1.0" d="M 1042.671764547421, 276.0L1174.0, 276.0"/>
<path fill="none" stroke="#000000" stroke-width="1.0" d="M 106.0, 300.0L264.6326127091617, 300.0"/>
<path fill="none" stroke="#000000" stroke-width="1.0" d="M 1025.367387290838, 300.0L1174.0, 300.0"/>
<path fill="none" stroke="#000000" stroke-width="1.0" d="M 106.0, 324.0L284.347256930779, 324.0"/>
<path fill="none" stroke="#000000" stroke-width="1.0" d="M 1005.652743069221, 324.0L1174.0, 324.0"/>
<path fill="none" stroke="#000000" stroke-width="1.0" d="M 106.0, 348.0L306.8871884266459, 348.0"/>
<path fill="none" stroke="#000000" stroke-width="1.0" d="M 983.1128115733538, 348.0L1174.0, 348.0"/>
<path fill="none" stroke="#000000" stroke-width="1.0" d="M 106.0, 372.0L332.8582010807868, 372.0"/>
<path fill="none" stroke="#000000" stroke-width="1.0" d="M 957.1417989192132, 372.0L1174.0, 372.0"/>
<path fill="none" stroke="#000000" stroke-width="1.0" d="M 106.0, 396.0L363.2043409395996, 396.0"/>
<path fill="none" stroke="#000000" stroke-width="1.0" d="M 926.7956590604005, 396.0L1174.0, 396.0"/>
<path fill="none" stroke="#000000" stroke-width="1.0" d="M 106.0, 420.0L399.5475295285251, 420.0"/>
<path fill="none" stroke="#000000" stroke-width="1.0" d="M 890.4524704714751, 420.0L1174.0, 420.0"/>
<path fill="none" stroke="#000000" stroke-width="1.0" d="M 106.0, 444.0L445.160477322921, 444.0"/>
<path fill="none" stroke="#000000" stroke-width="1.0" d="M 844.8395226770791, 444.0L1174.0, 444.0"/>
<path fill="none" stroke="#000000" stroke-width="1.0" d="M 106.0, 468.0L509.2042927205558, 468.0"/>
<path fill="none" stroke="#000000" stroke-width="1.0" d="M 780.7957072794443, 468.0L1174.0, 468.0"/>
<path fill="none" stroke="#000000" stroke-width="1.0" d="M 106.0, 492.0L1174.0, 492.0"/>
<path fill="none" stroke="#000000" stroke-width="1.0" d="M 106.0, 516.0L1174.0, 516.0"/>
<path fill="none" stroke="#000000" stroke-width="1.0" d="M 106.0, 540.0L1174.0, 540.0"/>
<path fill="none" stroke="#000000" stroke-width="1.0" d="M 106.0, 564.0L1174.0, 564.0"/>
<path fill="none" stroke="#000000" stroke-width="1.0" d="M 106.0, 588.0L1174.0, 588.0"/>
<path fill="none" stroke="#000000" stroke-width="1.0" d="M 106.0, 612.0L1174.0, 612.0"/>
<path fill="none" stroke="#000000" stroke-width="1.0" d="M 106.0, 636.0L1174.0, 636.0"/>
<path fill="none" stroke="#000000" stroke-width="1.0" d="M 106.0, 660.0L1174.0, 660.0"/>
<path fill="none" stroke="#000000" stroke-width="1.0" d="M 106.0, 684.0L1174.0, 684.0"/>
<path fill="none" stroke="#000000" stroke-width="1.0" d="M 106.0, 708.0L1174.0, 708.0"/>
</g>
</svg>