<?xml version="1.0" encoding="utf-8"?>
<!DOCTYPE svg PUBLIC "-//W3C//DTD SVG 1.1 Tiny//EN" "http://www.w3.org/Graphics/SVG/1.1/DTD/svg11-tiny.dtd">
<svg version="1.1" baseProfile="tiny" id="openrndr-svg" xmlns="http://www.w3.org/2000/svg" xmlns:xlink="http://www.w3.org/1999/xlink" x="0px" y="0px" width="1280px" height="720px"><g >
<path fill="none" stroke="#000000" stroke-width="1.0" d="M 106.0, 6.0L165.50408283372815, 6.0"/>
<path fill="none" stroke="#000000" stroke-width="1.0" d="M 1124.4959171662717, 6.0L1174.0, 6.0"/>
<path fill="none" stroke="#000000" stroke-width="1.0" d="M 106.0, 18.0L165.60220445753407, 18.0"/>
<path fill="none" stroke="#000000" stroke-width="1.0" d="M 1124.3977955424657, 18.0L1174.0, 18.0"/>
<path fill="none" stroke="#000000" stroke-width="1.0" d="M 106.0, 30.0L165.9957265545055, 30.0"/>
<path fill="none" stroke="#000000" stroke-width="1.0" d="M 1124.0042734454944, 30.0L1174.0, 30.0"/>
<path fill="none" stroke="#000000" stroke-width="1.0" d="M 106.0, 42.0L166.68678980538976, 42.0"/>
<path fill="none" stroke="#000000" stroke-width="1.0" d="M 1123.3132101946103, 42.0L1174.0, 42.0"/>
<path fill="none" stroke="#000000" stroke-width="1.0" d="M 106.0, 54.0L167.67793998551693, 54.0"/>
<path fill="none" stroke="#000000" stroke-width="1.0" d="M 1122.3220600144832, 54.0L1174.0, 54.0"/>
<path fill="none" stroke="#000000" stroke-width="1.0" d="M 106.0, 66.0L168.97215289174085, 66.0"/>
<path fill="none" stroke="#000000" stroke-width="1.0" d="M 1121.027847108259, 66.0L1174.0, 66.0"/>
<path fill="none" stroke="#000000" stroke-width="1.0" d="M 106.0, 78.0L170.57286589466298, 78.0"/>
<path fill="none" stroke="#000000" stroke-width="1.0" d="M 1119.427134105337, 78.0L1174.0, 78.0"/>
<path fill="none" stroke="#000000" stroke-width="1.0" d="M 106.0, 90.0L172.48401420599293, 90.0"/>
<path fill="none" stroke="#000000" stroke-width="1.0" d="M 1117.5159857940068, 90.0L1174.0, 90.0"/>
<path fill="none" stroke="#000000" stroke-width="1.0" d="M 106.0, 102.0L174.71007260790722, 102.0"/>
<path fill="none" stroke="#000000" stroke-width="1.0" d="M 1115.289927392093, 102.0L1174.0, 102.0"/>
<path fill="none" stroke="#000000" stroke-width="1.0" d="M 106.0, 114.0L177.25610354555135, 114.0"/>
<path fill="none" stroke="#000000" stroke-width="1.0" d="M 1112.7438964544488, 114.0L1174.0, 114.0"/>
<path fill="none" stroke="#000000" stroke-width="1.0" d="M 106.0, 126.0L180.1278126752469, 126.0"/>
<path fill="none" stroke="#000000" stroke-width="1.0" d="M 1109.8721873247532, 126.0L1174.0, 126.0"/>
<path fill="none" stroke="#000000" stroke-width="1.0" d="M 106.0, 138.0L183.3316132000657, 138.0"/>
<path fill="none" stroke="#000000" stroke-width="1.0" d="M 1106.6683867999343, 138.0L1174.0, 138.0"/>
<path fill="none" stroke="#000000" stroke-width="1.0" d="M 106.0, 150.0L186.8747006252613, 150.0"/>
<path fill="none" stroke="#000000" stroke-width="1.0" d="M 1103.125299374739, 150.0L1174.0, 150.0"/>
<path fill="none" stroke="#000000" stroke-width="1.0" d="M 106.0, 162.0L190.76513994739872, 162.0"/>
<path fill="none" stroke="#000000" stroke-width="1.0" d="M 1099.2348600526016, 162.0L1174.0, 162.0"/>
<path fill="none" stroke="#000000" stroke-width="1.0" d="M 106.0, 174.0L195.0119677783526, 174.0"/>
<path fill="none" stroke="#000000" stroke-width="1.0" d="M 1094.9880322216472, 174.0L1174.0, 174.0"/>
<path fill="none" stroke="#000000" stroke-width="1.0" d="M 106.0, 186.0L199.62531253342246, 186.0"/>
<path fill="none" stroke="#000000" stroke-width="1.0" d="M 1090.3746874665774, 186.0L1174.0, 186.0"/>
<path fill="none" stroke="#000000" stroke-width="1.0" d="M 106.0, 198.0L204.6165366296982, 198.0"/>
<path fill="none" stroke="#000000" stroke-width="1.0" d="M 1085.383463370302, 198.0L1174.0, 198.0"/>
<path fill="none" stroke="#000000" stroke-width="1.0" d="M 106.0, 210.0L209.99840571366386, 210.0"/>
<path fill="none" stroke="#000000" stroke-width="1.0" d="M 1080.0015942863363, 210.0L1174.0, 210.0"/>
<path fill="none" stroke="#000000" stroke-width="1.0" d="M 106.0, 222.0L215.78529136089634, 222.0"/>
<path fill="none" stroke="#000000" stroke-width="1.0" d="M 1074.2147086391035, 222.0L1174.0, 222.0"/>
<path fill="none" stroke="#000000" stroke-width="1.0" d="M 106.0, 234.0L221.99341560193932, 234.0"/>
<path fill="none" stroke="#000000" stroke-width="1.0" d="M 1068.0065843980606, 234.0L1174.0, 234.0"/>
<path fill="none" stroke="#000000" stroke-width="1.0" d="M 106.0, 246.0L228.64114822539955, 246.0"/>
<path fill="none" stroke="#000000" stroke-width="1.0" d="M 1061.3588517746002, 246.0L1174.0, 246.0"/>
<path fill="none" stroke="#000000" stroke-width="1.0" d="M 106.0, 258.0L235.7493713853095, 258.0"/>
<path fill="none" stroke="#000000" stroke-width="1.0" d="M 1054.2506286146904, 258.0L1174.0, 258.0"/>
<path fill="none" stroke="#000000" stroke-width="1.0" d="M 106.0, 270.0L243.3419310358777, 270.0"/>
<path fill="none" stroke="#000000" stroke-width="1.0" d="M 1046.6580689641223, 270.0L1174.0, 270.0"/>
<path fill="none" stroke="#000000" stroke-width="1.0" d="M 106.0, 282.0L251.4462018086601, 282.0"/>
<path fill="none" stroke="#000000" stroke-width="1.0" d="M 1038.5537981913399, 282.0L1174.0, 282.0"/>
<path fill="none" stroke="#000000" stroke-width="1.0" d="M 106.0, 294.0L260.09380219181173, 294.0"/>
<path fill="none" stroke="#000000" stroke-width="1.0" d="M 1029.9061978081886, 294.0L1174.0, 294.0"/>
<path fill="none" stroke="#000000" stroke-width="1.0" d="M 106.0, 306.0L269.3215119591932, 306.0"/>
<path fill="none" stroke="#000000" stroke-width="1.0" d="M 1020.6784880408067, 306.0L1174.0, 306.0"/>
<path fill="none" stroke="#000000" stroke-width="1.0" d="M 106.0, 318.0L279.172466502381, 318.0"/>
<path fill="none" stroke="#000000" stroke-width="1.0" d="M 1010.8275334976189, 318.0L1174.0, 318.0"/>
<path fill="none" stroke="#000000" stroke-width="1.0" d="M 106.0, 330.0L289.69773772056203, 330.0"/>
<path fill="none" stroke="#000000" stroke-width="1.0" d="M 1000.3022622794379, 330.0L1174.0, 330.0"/>
<path fill="none" stroke="#000000" stroke-width="1.0" d="M 106.0, 342.0L300.9584665691831, 342.0"/>
<path fill="none" stroke="#000000" stroke-width="1.0" d="M 989.041533430817, 342.0L1174.0, 342.0"/>
<path fill="none" stroke="#000000" stroke-width="1.0" d="M 106.0, 354.0L313.02880295799207, 354.0"/>
<path fill="none" stroke="#000000" stroke-width="1.0" d="M 976.971197042008, 354.0L1174.0, 354.0"/>
<path fill="none" stroke="#000000" stroke-width="1.0" d="M 106.0, 366.0L326.00006204813087, 366.0"/>
<path fill="none" stroke="#000000" stroke-width="1.0" d="M 963.9999379518694, 366.0L1174.0, 366.0"/>
<path fill="none" stroke="#000000" stroke-width="1.0" d="M 106.0, 378.0L339.98677654330663, 378.0"/>
<path fill="none" stroke="#000000" stroke-width="1.0" d="M 950.0132234566934, 378.0L1174.0, 378.0"/>
<path fill="none" stroke="#000000" stroke-width="1.0" d="M 106.0, 390.0L355.13582555754203, 390.0"/>
<path fill="none" stroke="#000000" stroke-width="1.0" d="M 934.8641744424582, 390.0L1174.0, 390.0"/>
<path fill="none" stroke="#000000" stroke-width="1.0" d="M 106.0, 402.0L371.640803704967, 402.0"/>
<path fill="none" stroke="#000000" stroke-width="1.0" d="M 918.359196295033, 402.0L1174.0, 402.0"/>
<path fill="none" stroke="#000000" stroke-width="1.0" d="M 106.0, 414.0L389.7658643087109, 414.0"/>
<path fill="none" stroke="#000000" stroke-width="1.0" d="M 900.2341356912891, 414.0L1174.0, 414.0"/>
<path fill="none" stroke="#000000" stroke-width="1.0" d="M 106.0, 426.0L409.8880332990455, 426.0"/>
<path fill="none" stroke="#000000" stroke-width="1.0" d="M 880.1119667009544, 426.0L1174.0, 426.0"/>
<path fill="none" stroke="#000000" stroke-width="1.0" d="M 106.0, 438.0L432.5792751560532, 438.0"/>
<path fill="none" stroke="#000000" stroke-width="1.0" d="M 857.4207248439467, 438.0L1174.0, 438.0"/>
<path fill="none" stroke="#000000" stroke-width="1.0" d="M 106.0, 450.0L458.786611811099, 450.0"/>
<path fill="none" stroke="#000000" stroke-width="1.0" d="M 831.2133881889008, 450.0L1174.0, 450.0"/>
<path fill="none" stroke="#000000" stroke-width="1.0" d="M 106.0, 462.0L490.3087790367789, 462.0"/>
<path fill="none" stroke="#000000" stroke-width="1.0" d="M 799.6912209632211, 462.0L1174.0, 462.0"/>
<path fill="none" stroke="#000000" stroke-width="1.0" d="M 106.0, 474.0L531.5509587335869, 474.0"/>
<path fill="none" stroke="#000000" stroke-width="1.0" d="M 758.4490412664128, 474.0L1174.0, 474.0"/>
<path fill="none" stroke="#000000" stroke-width="1.0" d="M 106.0, 486.0L606.792572778238, 486.0"/>
<path fill="none" stroke="#000000" stroke-width="1.0" d="M 683.2074272217594, 486.0L1174.0, 486.0"/>
<path fill="none" stroke="#000000" stroke-width="1.0" d="M 106.0, 498.0L1174.0, 498.0"/>
<path fill="none" stroke="#000000" stroke-width="1.0" d="M 106.0, 510.0L1174.0, 510.0"/>
<path fill="none" stroke="#000000" stroke-width="1.0" d="M 106.0, 522.0L1174.0, 522.0"/>
<path fill="none" stroke="#000000" stroke-width="1.0" d="M 106.0, 534.0L1174.0, 534.0"/>
<path fill="none" stroke="#000000" stroke-width="1.0" d="M 106.0, 546.0L1174.0, 546.0"/>
<path fill="none" stroke="#000000" stroke-width="1.0" d="M 106.0, 558.0L1174.0, 558.0"/>
<path fill="none" stroke="#000000" stroke-width="1.0" d="M 106.0, 570.0L1174.0, 570.0"/>
<path fill="none" stroke="#000000" stroke-width="1.0" d="M 106.0, 582.0L1174.0, 582.0"/>
<path fill="none" stroke="#000000" stroke-width="1.0" d="M 106.0, 594.0L1174.0, 594.0"/>
<path fill="none" stroke="#000000" stroke-width="1.0" d="M 106.0, 606.0L1174.0, 606.0"/>
<path fill="none" stroke="#000000" stroke-width="1.0" d="M 106.0, 618.0L1174.0, 618.0"/>
<path fill="none" stroke="#000000" stroke-width="1.0" d="M 106.0, 630.0L1174.0, 630.0"/>
<path fill="none" stroke="#000000" stroke-width="1.0" d="M 106.0, 642.0L1174.0, 642.0"/>
<path fill="none" stroke="#000000" stroke-width="1.0" d="M 106.0, 654.0L1174.0, 654.0"/>
<path fill="none" stroke="#000000" stroke-width="1.0" d="M 106.0, 666.0L1174.0, 666.0"/>
<path fill="none" stroke="#000000" stroke-width="1.0" d="M 106.0, 678.0L1174.0, 678.0"/>
<path fill="none" stroke="#000000" stroke-width="1.0" d="M 106.0, 690.0L1174.0, 690.0"/>
<path fill="none" stroke="#000000" stroke-width="1.0" d="M 106.0, 702.0L1174.0, 702.0"/>
<path fill="none" stroke="#000000" stroke-width="1.0" d="M 106.0, 714.0L1174.0, 714.0"/>
</g>
</svg>