<?xml version="1.0" encoding="UTF-8"?>
<!DOCTYPE svg PUBLIC "-//W3C//DTD SVG 1.1//EN" "http://www.w3.org/Graphics/SVG/1.1/DTD/svg11.dtd">
<svg xmlns="http://www.w3.org/2000/svg" xml:space="preserve" width="1280px" height="720px" version="1.1" style="shape-rendering:geometricPrecision; text-rendering:geometricPrecision; image-rendering:optimizeQuality; fill-rule:evenodd; clip-rule:evenodd"
     viewBox="0 0 1280 720"
>
  <path d="M378.291 306.816l0 -29.666c0,-8.963 1.69,-16.15 5.04,-21.591 3.35,-5.412 8.447,-9.106 15.263,-11.053l36.366 -10.996c3.866,-1.174 6.443,-2.52 7.732,-3.98 1.288,-1.49 1.918,-3.723 1.918,-6.672l0 -5.04c0,-4.611 -1.059,-7.789 -3.178,-9.564 -2.119,-1.747 -5.87,-2.635 -11.225,-2.635l-5.527 0c-5.326,0 -9.02,0.916 -11.11,2.72 -2.09,1.833 -3.15,4.983 -3.15,9.479l0 7.044 -30.926 0 0 -11.168c0,-10.738 3.35,-18.985 10.051,-24.741 6.7,-5.727 16.351,-8.59 28.921,-8.59l18.184 0c12.341,0 22.077,2.892 29.15,8.676 7.073,5.813 10.596,13.745 10.596,23.796l0 10.337c0,9.193 -1.891,16.58 -5.699,22.164 -3.808,5.584 -9.536,9.421 -17.181,11.483l-35.394 9.507c-2.777,0.773 -4.695,1.718 -5.698,2.806 -1.002,1.088 -1.489,2.778 -1.489,5.069l0 4.954 64.601 0 0 27.661 -97.245 0zm149.848 -74.394l0 23.882c0,10.566 1.088,17.238 3.265,20.045 2.176,2.777 6.614,4.18 13.257,4.18l5.355 0c6.586,0 10.968,-1.317 13.087,-3.98 2.119,-2.663 3.178,-9.393 3.178,-20.245l0 -23.882c0,-10.853 -1.059,-17.582 -3.178,-20.245 -2.119,-2.663 -6.501,-3.981 -13.087,-3.981l-5.355 0c-6.643,0 -11.081,1.403 -13.257,4.181 -2.177,2.806 -3.265,9.478 -3.265,20.045zm-32.128 -1.002c0,-19.043 3.264,-32.301 9.764,-39.804 6.529,-7.502 17.897,-11.253 34.105,-11.253l14.918 0c16.151,0 27.49,3.751 34.019,11.282 6.501,7.531 9.765,20.789 9.765,39.775l0 25.886c0,18.985 -3.264,32.243 -9.765,39.774 -6.529,7.531 -17.868,11.283 -34.019,11.283l-14.918 0c-16.208,0 -27.576,-3.723 -34.105,-11.197 -6.5,-7.473 -9.764,-20.76 -9.764,-39.86l0 -25.886z"/>
</svg>
