<?xml version="1.0" encoding="utf-8"?>
<!DOCTYPE svg PUBLIC "-//W3C//DTD SVG 1.1 Tiny//EN" "http://www.w3.org/Graphics/SVG/1.1/DTD/svg11-tiny.dtd">
<svg version="1.1" baseProfile="tiny" id="openrndr-svg" xmlns="http://www.w3.org/2000/svg" xmlns:xlink="http://www.w3.org/1999/xlink" x="0px" y="0px" width="1280px" height="720px"><g >
<path fill="none" stroke="#000000" stroke-width="1.0" d="M 320.800848137747, 540.0L585.1991518622531, 540.0"/>
<path fill="none" stroke="#000000" stroke-width="1.0" d="M 320.87169331900463, 204.0L585.1283066809953, 204.0"/>
<path fill="none" stroke="#000000" stroke-width="1.0" d="M 321.23083358445444, 228.0L584.7691664155454, 228.0"/>
<path fill="none" stroke="#000000" stroke-width="1.0" d="M 321.3396760843135, 564.0L584.6603239156865, 564.0"/>
<path fill="none" stroke="#000000" stroke-width="1.0" d="M 324.64222082563674, 516.0L581.3577791743633, 516.0"/>
<path fill="none" stroke="#000000" stroke-width="1.0" d="M 324.90274803003985, 180.0L581.0972519699602, 180.0"/>
<path fill="none" stroke="#000000" stroke-width="1.0" d="M 326.0295925856158, 252.0L579.9704074143841, 252.0"/>
<path fill="none" stroke="#000000" stroke-width="1.0" d="M 326.3327768863833, 588.0L579.6672231136166, 588.0"/>
<path fill="none" stroke="#000000" stroke-width="1.0" d="M 333.35290554717693, 492.0L572.647094452823, 492.0"/>
<path fill="none" stroke="#000000" stroke-width="1.0" d="M 333.83533830128357, 156.0L572.1646616987164, 156.0"/>
<path fill="none" stroke="#000000" stroke-width="1.0" d="M 335.87073961163196, 276.0L570.1292603883679, 276.0"/>
<path fill="none" stroke="#000000" stroke-width="1.0" d="M 336.4066821577572, 612.0L569.5933178422429, 612.0"/>
<path fill="none" stroke="#000000" stroke-width="1.0" d="M 348.1337082381489, 468.0L557.866291761851, 468.0"/>
<path fill="none" stroke="#000000" stroke-width="1.0" d="M 348.91490250723245, 132.0L557.0850974927675, 132.0"/>
<path fill="none" stroke="#000000" stroke-width="1.0" d="M 352.1986041495439, 300.0L553.801395850456, 300.0"/>
<path fill="none" stroke="#000000" stroke-width="1.0" d="M 353.0611903570265, 636.0L552.9388096429735, 636.0"/>
<path fill="none" stroke="#000000" stroke-width="1.0" d="M 372.17314507975993, 444.0L533.82685492024, 444.0"/>
<path fill="none" stroke="#000000" stroke-width="1.0" d="M 373.4870770131572, 108.0L532.5129229868428, 108.0"/>
<path fill="none" stroke="#000000" stroke-width="1.0" d="M 379.1091675039701, 324.0L526.8908324960298, 324.0"/>
<path fill="none" stroke="#000000" stroke-width="1.0" d="M 380.6170046162425, 660.0L525.3829953837574, 660.0"/>
<path fill="none" stroke="#000000" stroke-width="1.0" d="M 422.6164876131665, 420.0L483.38351238683344, 420.0"/>
<path fill="none" stroke="#000000" stroke-width="1.0" d="M 427.2525482683899, 84.0L478.7474517316103, 84.0"/>
<path fill="none" stroke="#000000" stroke-width="1.0" d="M 673.5, 420.0L1043.5, 420.0"/>
<path fill="none" stroke="#000000" stroke-width="1.0" d="M 673.5, 444.0L1043.5, 444.0"/>
<path fill="none" stroke="#000000" stroke-width="1.0" d="M 673.5, 468.0L1043.5, 468.0"/>
<path fill="none" stroke="#000000" stroke-width="1.0" d="M 673.5, 492.0L1043.5, 492.0"/>
<path fill="none" stroke="#000000" stroke-width="1.0" d="M 673.5, 516.0L1043.5, 516.0"/>
<path fill="none" stroke="#000000" stroke-width="1.0" d="M 673.5, 540.0L1043.5, 540.0"/>
<path fill="none" stroke="#000000" stroke-width="1.0" d="M 673.5, 564.0L1043.5, 564.0"/>
<path fill="none" stroke="#000000" stroke-width="1.0" d="M 673.5, 588.0L1043.5, 588.0"/>
<path fill="none" stroke="#000000" stroke-width="1.0" d="M 673.5, 612.0L1043.5, 612.0"/>
<path fill="none" stroke="#000000" stroke-width="1.0" d="M 673.5, 636.0L1043.5, 636.0"/>
<path fill="none" stroke="#000000" stroke-width="1.0" d="M 673.5, 660.0L1043.5, 660.0"/>
<path fill="none" stroke="#000000" stroke-width="1.0" d="M 741.8716933190044, 204.0L1006.1283066809951, 204.0"/>
<path fill="none" stroke="#000000" stroke-width="1.0" d="M 742.2308335844546, 228.0L1005.7691664155454, 228.0"/>
<path fill="none" stroke="#000000" stroke-width="1.0" d="M 745.9027480300401, 180.0L1002.0972519699603, 180.0"/>
<path fill="none" stroke="#000000" stroke-width="1.0" d="M 747.0295925856157, 252.0L1000.9704074143841, 252.0"/>
<path fill="none" stroke="#000000" stroke-width="1.0" d="M 754.8353383012836, 156.0L993.1646616987165, 156.0"/>
<path fill="none" stroke="#000000" stroke-width="1.0" d="M 756.8707396116321, 276.0L991.129260388368, 276.0"/>
<path fill="none" stroke="#000000" stroke-width="1.0" d="M 769.9149025072326, 132.0L978.0850974927675, 132.0"/>
<path fill="none" stroke="#000000" stroke-width="1.0" d="M 773.1986041495439, 300.0L974.8013958504561, 300.0"/>
<path fill="none" stroke="#000000" stroke-width="1.0" d="M 794.4870770131572, 108.0L953.5129229868428, 108.0"/>
<path fill="none" stroke="#000000" stroke-width="1.0" d="M 800.1091675039702, 324.0L947.89083249603, 324.0"/>
<path fill="none" stroke="#000000" stroke-width="1.0" d="M 848.25254826839, 84.0L899.7474517316105, 84.0"/>
</g>
</svg>