<?xml version="1.0" encoding="utf-8"?>
<!DOCTYPE svg PUBLIC "-//W3C//DTD SVG 1.1 Tiny//EN" "http://www.w3.org/Graphics/SVG/1.1/DTD/svg11-tiny.dtd">
<svg version="1.1" baseProfile="tiny" id="openrndr-svg" xmlns="http://www.w3.org/2000/svg" xmlns:xlink="http://www.w3.org/1999/xlink" x="0px" y="0px" width="1280px" height="720px"><g >
<path fill="none" stroke="#000000" stroke-width="1.0" d="M 320.5, 549.0L585.5, 549.0"/>
<path fill="none" stroke="#000000" stroke-width="1.0" d="M 320.5036947599834, 213.0L585.4963052400167, 213.0"/>
<path fill="none" stroke="#000000" stroke-width="1.0" d="M 320.59259720449984, 219.0L585.4074027954999, 219.0"/>
<path fill="none" stroke="#000000" stroke-width="1.0" d="M 320.63342857183613, 543.0L585.3665714281639, 543.0"/>
<path fill="none" stroke="#000000" stroke-width="1.0" d="M 320.63342857183613, 555.0L585.366571428164, 555.0"/>
<path fill="none" stroke="#000000" stroke-width="1.0" d="M 320.6817352869752, 207.0L585.318264713025, 207.0"/>
<path fill="none" stroke="#000000" stroke-width="1.0" d="M 320.95009197745765, 225.0L585.0499080225421, 225.0"/>
<path fill="none" stroke="#000000" stroke-width="1.0" d="M 321.0360660802541, 561.0L584.9639339197458, 561.0"/>
<path fill="none" stroke="#000000" stroke-width="1.0" d="M 321.03606608025416, 537.0L584.9639339197458, 537.0"/>
<path fill="none" stroke="#000000" stroke-width="1.0" d="M 321.1296386095238, 201.0L584.8703613904762, 201.0"/>
<path fill="none" stroke="#000000" stroke-width="1.0" d="M 321.58040942135904, 231.0L584.4195905786411, 231.0"/>
<path fill="none" stroke="#000000" stroke-width="1.0" d="M 321.7123559387462, 531.0L584.2876440612538, 531.0"/>
<path fill="none" stroke="#000000" stroke-width="1.0" d="M 321.7123559387462, 567.0L584.2876440612538, 567.0"/>
<path fill="none" stroke="#000000" stroke-width="1.0" d="M 321.8520613948214, 195.0L584.1479386051785, 195.0"/>
<path fill="none" stroke="#000000" stroke-width="1.0" d="M 322.48910632367324, 237.0L583.5108936763268, 237.0"/>
<path fill="none" stroke="#000000" stroke-width="1.0" d="M 322.66809277349205, 525.0L583.3319072265078, 525.0"/>
<path fill="none" stroke="#000000" stroke-width="1.0" d="M 322.66809277349216, 573.0L583.3319072265076, 573.0"/>
<path fill="none" stroke="#000000" stroke-width="1.0" d="M 322.85504167677436, 189.0L583.1449583232256, 189.0"/>
<path fill="none" stroke="#000000" stroke-width="1.0" d="M 323.6832550228444, 243.0L582.3167449771554, 243.0"/>
<path fill="none" stroke="#000000" stroke-width="1.0" d="M 323.91062401793585, 519.0L582.0893759820642, 519.0"/>
<path fill="none" stroke="#000000" stroke-width="1.0" d="M 323.91062401793585, 579.0L582.0893759820642, 579.0"/>
<path fill="none" stroke="#000000" stroke-width="1.0" d="M 324.14620917742764, 183.0L581.8537908225723, 183.0"/>
<path fill="none" stroke="#000000" stroke-width="1.0" d="M 325.17169293784724, 249.0L580.8283070621529, 249.0"/>
<path fill="none" stroke="#000000" stroke-width="1.0" d="M 325.4491104512249, 585.0L580.5508895487752, 585.0"/>
<path fill="none" stroke="#000000" stroke-width="1.0" d="M 325.44911045122495, 513.0L580.5508895487751, 513.0"/>
<path fill="none" stroke="#000000" stroke-width="1.0" d="M 325.7350573961194, 177.0L580.2649426038806, 177.0"/>
<path fill="none" stroke="#000000" stroke-width="1.0" d="M 326.9653469780742, 255.0L579.0346530219257, 255.0"/>
<path fill="none" stroke="#000000" stroke-width="1.0" d="M 327.29486541518946, 507.0L578.7051345848106, 507.0"/>
<path fill="none" stroke="#000000" stroke-width="1.0" d="M 327.29486541518946, 591.0L578.7051345848106, 591.0"/>
<path fill="none" stroke="#000000" stroke-width="1.0" d="M 327.63329841352447, 171.0L578.3667015864755, 171.0"/>
<path fill="none" stroke="#000000" stroke-width="1.0" d="M 329.0776595624134, 261.0L576.9223404375867, 261.0"/>
<path fill="none" stroke="#000000" stroke-width="1.0" d="M 329.46180115726827, 501.0L576.5381988427316, 501.0"/>
<path fill="none" stroke="#000000" stroke-width="1.0" d="M 329.4618011572683, 597.0L576.5381988427314, 597.0"/>
<path fill="none" stroke="#000000" stroke-width="1.0" d="M 329.8553307045873, 165.0L576.1446692954128, 165.0"/>
<path fill="none" stroke="#000000" stroke-width="1.0" d="M 331.52515544467224, 267.0L574.4748445553276, 267.0"/>
<path fill="none" stroke="#000000" stroke-width="1.0" d="M 331.9670241712505, 495.0L574.0329758287495, 495.0"/>
<path fill="none" stroke="#000000" stroke-width="1.0" d="M 331.9670241712505, 603.0L574.0329758287495, 603.0"/>
<path fill="none" stroke="#000000" stroke-width="1.0" d="M 332.4188647194022, 159.0L573.5811352805978, 159.0"/>
<path fill="none" stroke="#000000" stroke-width="1.0" d="M 334.32820819814503, 273.0L571.6717918018549, 273.0"/>
<path fill="none" stroke="#000000" stroke-width="1.0" d="M 334.8316426735656, 609.0L571.1683573264345, 609.0"/>
<path fill="none" stroke="#000000" stroke-width="1.0" d="M 334.83164267356574, 489.0L571.1683573264344, 489.0"/>
<path fill="none" stroke="#000000" stroke-width="1.0" d="M 335.34577401909195, 153.0L570.6542259809081, 153.0"/>
<path fill="none" stroke="#000000" stroke-width="1.0" d="M 337.5120971633437, 279.0L568.4879028366563, 279.0"/>
<path fill="none" stroke="#000000" stroke-width="1.0" d="M 338.08188411251695, 483.0L567.918115887483, 483.0"/>
<path fill="none" stroke="#000000" stroke-width="1.0" d="M 338.08188411251695, 615.0L567.9181158874832, 615.0"/>
<path fill="none" stroke="#000000" stroke-width="1.0" d="M 338.66327760625086, 147.0L567.3367223937491, 147.0"/>
<path fill="none" stroke="#000000" stroke-width="1.0" d="M 341.1084994524274, 285.0L564.8915005475724, 285.0"/>
<path fill="none" stroke="#000000" stroke-width="1.0" d="M 341.75067949718306, 477.0L564.249320502817, 477.0"/>
<path fill="none" stroke="#000000" stroke-width="1.0" d="M 341.75067949718306, 621.0L564.249320502817, 621.0"/>
<path fill="none" stroke="#000000" stroke-width="1.0" d="M 342.4056236364363, 141.0L563.5943763635637, 141.0"/>
<path fill="none" stroke="#000000" stroke-width="1.0" d="M 345.15765590110243, 291.0L560.8423440988979, 291.0"/>
<path fill="none" stroke="#000000" stroke-width="1.0" d="M 345.8799753354298, 471.0L560.1200246645702, 471.0"/>
<path fill="none" stroke="#000000" stroke-width="1.0" d="M 345.8799753354298, 627.0L560.1200246645703, 627.0"/>
<path fill="none" stroke="#000000" stroke-width="1.0" d="M 346.61655955952733, 135.0L559.3834404404727, 135.0"/>
<path fill="none" stroke="#000000" stroke-width="1.0" d="M 349.7116232124409, 297.0L556.2883767875594, 297.0"/>
<path fill="none" stroke="#000000" stroke-width="1.0" d="M 350.5242268440697, 465.0L555.4757731559304, 465.0"/>
<path fill="none" stroke="#000000" stroke-width="1.0" d="M 350.52422684406974, 633.0L555.4757731559303, 633.0"/>
<path fill="none" stroke="#000000" stroke-width="1.0" d="M 351.3530886782169, 129.0L554.6469113217831, 129.0"/>
<path fill="none" stroke="#000000" stroke-width="1.0" d="M 354.8393617946257, 303.0L551.1606382053745, 303.0"/>
<path fill="none" stroke="#000000" stroke-width="1.0" d="M 355.75590529707904, 459.0L550.2440947029211, 459.0"/>
<path fill="none" stroke="#000000" stroke-width="1.0" d="M 355.75590529707904, 639.0L550.2440947029211, 639.0"/>
<path fill="none" stroke="#000000" stroke-width="1.0" d="M 356.69144031621113, 123.0L549.3085596837889, 123.0"/>
<path fill="none" stroke="#000000" stroke-width="1.0" d="M 360.63511168712967, 309.0L545.3648883128703, 309.0"/>
<path fill="none" stroke="#000000" stroke-width="1.0" d="M 361.67465299967637, 453.0L544.3253470003237, 453.0"/>
<path fill="none" stroke="#000000" stroke-width="1.0" d="M 361.6746529996765, 645.0L544.3253470003235, 645.0"/>
<path fill="none" stroke="#000000" stroke-width="1.0" d="M 362.7370949755799, 117.0L543.2629050244201, 117.0"/>
<path fill="none" stroke="#000000" stroke-width="1.0" d="M 367.2331051329227, 315.0L538.7668948670773, 315.0"/>
<path fill="none" stroke="#000000" stroke-width="1.0" d="M 368.42356758168523, 447.0L537.5764324183147, 447.0"/>
<path fill="none" stroke="#000000" stroke-width="1.0" d="M 368.42356758168523, 651.0L537.5764324183148, 651.0"/>
<path fill="none" stroke="#000000" stroke-width="1.0" d="M 369.64285273129474, 111.0L536.3571472687054, 111.0"/>
<path fill="none" stroke="#000000" stroke-width="1.0" d="M 374.83571253473497, 321.0L531.164287465265, 321.0"/>
<path fill="none" stroke="#000000" stroke-width="1.0" d="M 376.220887333845, 441.0L529.7791126661549, 441.0"/>
<path fill="none" stroke="#000000" stroke-width="1.0" d="M 376.220887333845, 657.0L529.779112666155, 657.0"/>
<path fill="none" stroke="#000000" stroke-width="1.0" d="M 377.644625450812, 105.0L528.3553745491881, 105.0"/>
<path fill="none" stroke="#000000" stroke-width="1.0" d="M 383.7740367607811, 327.0L522.225963239219, 327.0"/>
<path fill="none" stroke="#000000" stroke-width="1.0" d="M 385.42988469045054, 435.0L520.5701153095495, 435.0"/>
<path fill="none" stroke="#000000" stroke-width="1.0" d="M 385.42988469045054, 663.0L520.5701153095495, 663.0"/>
<path fill="none" stroke="#000000" stroke-width="1.0" d="M 387.1424726470357, 99.0L518.8575273529643, 99.0"/>
<path fill="none" stroke="#000000" stroke-width="1.0" d="M 394.66353592212806, 333.0L511.33646407787194, 333.0"/>
<path fill="none" stroke="#000000" stroke-width="1.0" d="M 396.7454348660584, 429.0L509.2545651339416, 429.0"/>
<path fill="none" stroke="#000000" stroke-width="1.0" d="M 396.74543486605853, 669.0L509.25456513394147, 669.0"/>
<path fill="none" stroke="#000000" stroke-width="1.0" d="M 398.92626228274355, 93.0L507.07373771725656, 93.0"/>
<path fill="none" stroke="#000000" stroke-width="1.0" d="M 408.94525116495277, 339.0L497.0547488350472, 339.0"/>
<path fill="none" stroke="#000000" stroke-width="1.0" d="M 411.8935572443903, 675.0L494.1064427556095, 675.0"/>
<path fill="none" stroke="#000000" stroke-width="1.0" d="M 411.8935572443904, 423.0L494.1064427556096, 423.0"/>
<path fill="none" stroke="#000000" stroke-width="1.0" d="M 415.0991639856154, 87.0L490.90083601438454, 87.0"/>
<path fill="none" stroke="#000000" stroke-width="1.0" d="M 432.997071241015, 345.0L473.002928758985, 345.0"/>
<path fill="none" stroke="#000000" stroke-width="1.0" d="M 441.4088345097075, 681.0L464.5911654902925, 681.0"/>
<path fill="none" stroke="#000000" stroke-width="1.0" d="M 441.40883450970756, 417.0L464.59116549029255, 417.0"/>
<path fill="none" stroke="#000000" stroke-width="1.0" d="M 673.5, 405.0L1043.5, 405.0"/>
<path fill="none" stroke="#000000" stroke-width="1.0" d="M 673.5, 411.0L1043.5, 411.0"/>
<path fill="none" stroke="#000000" stroke-width="1.0" d="M 673.5, 417.0L1043.5, 417.0"/>
<path fill="none" stroke="#000000" stroke-width="1.0" d="M 673.5, 423.0L1043.5, 423.0"/>
<path fill="none" stroke="#000000" stroke-width="1.0" d="M 673.5, 429.0L1043.5, 429.0"/>
<path fill="none" stroke="#000000" stroke-width="1.0" d="M 673.5, 435.0L1043.5, 435.0"/>
<path fill="none" stroke="#000000" stroke-width="1.0" d="M 673.5, 441.0L1043.5, 441.0"/>
<path fill="none" stroke="#000000" stroke-width="1.0" d="M 673.5, 447.0L1043.5, 447.0"/>
<path fill="none" stroke="#000000" stroke-width="1.0" d="M 673.5, 453.0L1043.5, 453.0"/>
<path fill="none" stroke="#000000" stroke-width="1.0" d="M 673.5, 459.0L1043.5, 459.0"/>
<path fill="none" stroke="#000000" stroke-width="1.0" d="M 673.5, 465.0L1043.5, 465.0"/>
<path fill="none" stroke="#000000" stroke-width="1.0" d="M 673.5, 471.0L1043.5, 471.0"/>
<path fill="none" stroke="#000000" stroke-width="1.0" d="M 673.5, 477.0L1043.5, 477.0"/>
<path fill="none" stroke="#000000" stroke-width="1.0" d="M 673.5, 483.0L1043.5, 483.0"/>
<path fill="none" stroke="#000000" stroke-width="1.0" d="M 673.5, 489.0L1043.5, 489.0"/>
<path fill="none" stroke="#000000" stroke-width="1.0" d="M 673.5, 495.0L1043.5, 495.0"/>
<path fill="none" stroke="#000000" stroke-width="1.0" d="M 673.5, 501.0L1043.5, 501.0"/>
<path fill="none" stroke="#000000" stroke-width="1.0" d="M 673.5, 507.0L1043.5, 507.0"/>
<path fill="none" stroke="#000000" stroke-width="1.0" d="M 673.5, 513.0L1043.5, 513.0"/>
<path fill="none" stroke="#000000" stroke-width="1.0" d="M 673.5, 519.0L1043.5, 519.0"/>
<path fill="none" stroke="#000000" stroke-width="1.0" d="M 673.5, 525.0L1043.5, 525.0"/>
<path fill="none" stroke="#000000" stroke-width="1.0" d="M 673.5, 531.0L1043.5, 531.0"/>
<path fill="none" stroke="#000000" stroke-width="1.0" d="M 673.5, 537.0L1043.5, 537.0"/>
<path fill="none" stroke="#000000" stroke-width="1.0" d="M 673.5, 543.0L1043.5, 543.0"/>
<path fill="none" stroke="#000000" stroke-width="1.0" d="M 673.5, 549.0L1043.5, 549.0"/>
<path fill="none" stroke="#000000" stroke-width="1.0" d="M 673.5, 555.0L1043.5, 555.0"/>
<path fill="none" stroke="#000000" stroke-width="1.0" d="M 673.5, 561.0L1043.5, 561.0"/>
<path fill="none" stroke="#000000" stroke-width="1.0" d="M 673.5, 567.0L1043.5, 567.0"/>
<path fill="none" stroke="#000000" stroke-width="1.0" d="M 673.5, 573.0L1043.5, 573.0"/>
<path fill="none" stroke="#000000" stroke-width="1.0" d="M 673.5, 579.0L1043.5, 579.0"/>
<path fill="none" stroke="#000000" stroke-width="1.0" d="M 673.5, 585.0L1043.5, 585.0"/>
<path fill="none" stroke="#000000" stroke-width="1.0" d="M 673.5, 591.0L1043.5, 591.0"/>
<path fill="none" stroke="#000000" stroke-width="1.0" d="M 673.5, 597.0L1043.5, 597.0"/>
<path fill="none" stroke="#000000" stroke-width="1.0" d="M 673.5, 603.0L1043.5, 603.0"/>
<path fill="none" stroke="#000000" stroke-width="1.0" d="M 673.5, 609.0L1043.5, 609.0"/>
<path fill="none" stroke="#000000" stroke-width="1.0" d="M 673.5, 615.0L1043.5, 615.0"/>
<path fill="none" stroke="#000000" stroke-width="1.0" d="M 673.5, 621.0L1043.5, 621.0"/>
<path fill="none" stroke="#000000" stroke-width="1.0" d="M 673.5, 627.0L1043.5, 627.0"/>
<path fill="none" stroke="#000000" stroke-width="1.0" d="M 673.5, 633.0L1043.5, 633.0"/>
<path fill="none" stroke="#000000" stroke-width="1.0" d="M 673.5, 639.0L1043.5, 639.0"/>
<path fill="none" stroke="#000000" stroke-width="1.0" d="M 673.5, 645.0L1043.5, 645.0"/>
<path fill="none" stroke="#000000" stroke-width="1.0" d="M 673.5, 651.0L1043.5, 651.0"/>
<path fill="none" stroke="#000000" stroke-width="1.0" d="M 673.5, 657.0L1043.5, 657.0"/>
<path fill="none" stroke="#000000" stroke-width="1.0" d="M 673.5, 663.0L1043.5, 663.0"/>
<path fill="none" stroke="#000000" stroke-width="1.0" d="M 741.5036947599834, 213.0L1006.4963052400168, 213.0"/>
<path fill="none" stroke="#000000" stroke-width="1.0" d="M 741.5925972044998, 219.0L1006.4074027954998, 219.0"/>
<path fill="none" stroke="#000000" stroke-width="1.0" d="M 741.6817352869753, 207.0L1006.318264713025, 207.0"/>
<path fill="none" stroke="#000000" stroke-width="1.0" d="M 741.9500919774575, 225.0L1006.0499080225422, 225.0"/>
<path fill="none" stroke="#000000" stroke-width="1.0" d="M 742.1296386095239, 201.0L1005.8703613904761, 201.0"/>
<path fill="none" stroke="#000000" stroke-width="1.0" d="M 742.580409421359, 231.0L1005.419590578641, 231.0"/>
<path fill="none" stroke="#000000" stroke-width="1.0" d="M 742.8520613948215, 195.0L1005.1479386051785, 195.0"/>
<path fill="none" stroke="#000000" stroke-width="1.0" d="M 743.4891063236734, 237.0L1004.510893676327, 237.0"/>
<path fill="none" stroke="#000000" stroke-width="1.0" d="M 743.8550416767744, 189.0L1004.1449583232256, 189.0"/>
<path fill="none" stroke="#000000" stroke-width="1.0" d="M 744.6832550228444, 243.0L1003.3167449771555, 243.0"/>
<path fill="none" stroke="#000000" stroke-width="1.0" d="M 745.1462091774276, 183.0L1002.8537908225721, 183.0"/>
<path fill="none" stroke="#000000" stroke-width="1.0" d="M 746.1716929378472, 249.0L1001.828307062153, 249.0"/>
<path fill="none" stroke="#000000" stroke-width="1.0" d="M 746.7350573961193, 177.0L1001.2649426038806, 177.0"/>
<path fill="none" stroke="#000000" stroke-width="1.0" d="M 747.9653469780742, 255.0L1000.0346530219257, 255.0"/>
<path fill="none" stroke="#000000" stroke-width="1.0" d="M 748.6332984135244, 171.0L999.3667015864755, 171.0"/>
<path fill="none" stroke="#000000" stroke-width="1.0" d="M 750.0776595624134, 261.0L997.9223404375869, 261.0"/>
<path fill="none" stroke="#000000" stroke-width="1.0" d="M 750.8553307045871, 165.0L997.1446692954127, 165.0"/>
<path fill="none" stroke="#000000" stroke-width="1.0" d="M 752.5251554446721, 267.0L995.4748445553274, 267.0"/>
<path fill="none" stroke="#000000" stroke-width="1.0" d="M 753.418864719402, 159.0L994.5811352805979, 159.0"/>
<path fill="none" stroke="#000000" stroke-width="1.0" d="M 755.328208198145, 273.0L992.6717918018549, 273.0"/>
<path fill="none" stroke="#000000" stroke-width="1.0" d="M 756.345774019092, 153.0L991.654225980908, 153.0"/>
<path fill="none" stroke="#000000" stroke-width="1.0" d="M 758.5120971633437, 279.0L989.4879028366563, 279.0"/>
<path fill="none" stroke="#000000" stroke-width="1.0" d="M 759.6632776062509, 147.0L988.3367223937491, 147.0"/>
<path fill="none" stroke="#000000" stroke-width="1.0" d="M 762.1084994524274, 285.0L985.8915005475726, 285.0"/>
<path fill="none" stroke="#000000" stroke-width="1.0" d="M 763.4056236364364, 141.0L984.5943763635637, 141.0"/>
<path fill="none" stroke="#000000" stroke-width="1.0" d="M 766.1576559011025, 291.0L981.8423440988977, 291.0"/>
<path fill="none" stroke="#000000" stroke-width="1.0" d="M 767.6165595595274, 135.0L980.3834404404727, 135.0"/>
<path fill="none" stroke="#000000" stroke-width="1.0" d="M 770.7116232124408, 297.0L977.2883767875593, 297.0"/>
<path fill="none" stroke="#000000" stroke-width="1.0" d="M 772.353088678217, 129.0L975.6469113217833, 129.0"/>
<path fill="none" stroke="#000000" stroke-width="1.0" d="M 775.8393617946257, 303.0L972.1606382053745, 303.0"/>
<path fill="none" stroke="#000000" stroke-width="1.0" d="M 777.6914403162111, 123.0L970.3085596837889, 123.0"/>
<path fill="none" stroke="#000000" stroke-width="1.0" d="M 781.6351116871297, 309.0L966.3648883128703, 309.0"/>
<path fill="none" stroke="#000000" stroke-width="1.0" d="M 783.73709497558, 117.0L964.2629050244202, 117.0"/>
<path fill="none" stroke="#000000" stroke-width="1.0" d="M 788.2331051329227, 315.0L959.7668948670774, 315.0"/>
<path fill="none" stroke="#000000" stroke-width="1.0" d="M 790.6428527312947, 111.0L957.3571472687054, 111.0"/>
<path fill="none" stroke="#000000" stroke-width="1.0" d="M 795.8357125347347, 321.0L952.164287465265, 321.0"/>
<path fill="none" stroke="#000000" stroke-width="1.0" d="M 798.6446254508119, 105.0L949.3553745491881, 105.0"/>
<path fill="none" stroke="#000000" stroke-width="1.0" d="M 804.7740367607811, 327.0L943.2259632392193, 327.0"/>
<path fill="none" stroke="#000000" stroke-width="1.0" d="M 808.1424726470357, 99.0L939.8575273529641, 99.0"/>
<path fill="none" stroke="#000000" stroke-width="1.0" d="M 815.6635359221282, 333.0L932.3364640778718, 333.0"/>
<path fill="none" stroke="#000000" stroke-width="1.0" d="M 819.9262622827437, 93.0L928.0737377172567, 93.0"/>
<path fill="none" stroke="#000000" stroke-width="1.0" d="M 829.9452511649529, 339.0L918.0547488350472, 339.0"/>
<path fill="none" stroke="#000000" stroke-width="1.0" d="M 836.0991639856154, 87.0L911.9008360143846, 87.0"/>
<path fill="none" stroke="#000000" stroke-width="1.0" d="M 853.9970712410151, 345.0L894.002928758985, 345.0"/>
</g>
</svg>