<?xml version="1.0" encoding="utf-8"?>
<!DOCTYPE svg PUBLIC "-//W3C//DTD SVG 1.1 Tiny//EN" "http://www.w3.org/Graphics/SVG/1.1/DTD/svg11-tiny.dtd">
<svg version="1.1" baseProfile="tiny" id="openrndr-svg" xmlns="http://www.w3.org/2000/svg" xmlns:xlink="http://www.w3.org/1999/xlink" x="0px" y="0px" width="1280px" height="720px"><g >
<path fill="none" stroke="#000000" stroke-width="1.0" d="M 320.51478774456666, 216.0L585.4852122554332, 216.0"/>
<path fill="none" stroke="#000000" stroke-width="1.0" d="M 320.5332926416345, 552.0L585.4667073583654, 552.0"/>
<path fill="none" stroke="#000000" stroke-width="1.0" d="M 328.3371996326655, 504.0L577.6628003673345, 504.0"/>
<path fill="none" stroke="#000000" stroke-width="1.0" d="M 328.702820037028, 168.0L577.2971799629721, 168.0"/>
<path fill="none" stroke="#000000" stroke-width="1.0" d="M 330.25833713754776, 264.0L575.7416628624521, 264.0"/>
<path fill="none" stroke="#000000" stroke-width="1.0" d="M 330.6709125615064, 600.0L575.3290874384936, 600.0"/>
<path fill="none" stroke="#000000" stroke-width="1.0" d="M 358.6217352243402, 456.0L547.3782647756599, 456.0"/>
<path fill="none" stroke="#000000" stroke-width="1.0" d="M 359.61770978890604, 120.0L546.3822902110942, 120.0"/>
<path fill="none" stroke="#000000" stroke-width="1.0" d="M 363.8232528739774, 312.0L542.1767471260226, 312.0"/>
<path fill="none" stroke="#000000" stroke-width="1.0" d="M 364.9340014398124, 648.0L541.0659985601874, 648.0"/>
<path fill="none" stroke="#000000" stroke-width="1.0" d="M 673.5, 408.0L1043.5, 408.0"/>
<path fill="none" stroke="#000000" stroke-width="1.0" d="M 673.5, 456.0L1043.5, 456.0"/>
<path fill="none" stroke="#000000" stroke-width="1.0" d="M 673.5, 504.0L1043.5, 504.0"/>
<path fill="none" stroke="#000000" stroke-width="1.0" d="M 673.5, 552.0L1043.5, 552.0"/>
<path fill="none" stroke="#000000" stroke-width="1.0" d="M 673.5, 600.0L1043.5, 600.0"/>
<path fill="none" stroke="#000000" stroke-width="1.0" d="M 673.5, 648.0L1043.5, 648.0"/>
<path fill="none" stroke="#000000" stroke-width="1.0" d="M 741.5147877445667, 216.0L1006.485212255433, 216.0"/>
<path fill="none" stroke="#000000" stroke-width="1.0" d="M 749.702820037028, 168.0L998.2971799629722, 168.0"/>
<path fill="none" stroke="#000000" stroke-width="1.0" d="M 751.2583371375476, 264.0L996.7416628624521, 264.0"/>
<path fill="none" stroke="#000000" stroke-width="1.0" d="M 780.617709788906, 120.0L967.3822902110942, 120.0"/>
<path fill="none" stroke="#000000" stroke-width="1.0" d="M 784.8232528739776, 312.0L963.1767471260227, 312.0"/>
</g>
</svg>