<?xml version="1.0" encoding="utf-8"?>
<!DOCTYPE svg PUBLIC "-//W3C//DTD SVG 1.1 Tiny//EN" "http://www.w3.org/Graphics/SVG/1.1/DTD/svg11-tiny.dtd">
<svg version="1.1" baseProfile="tiny" id="openrndr-svg" xmlns="http://www.w3.org/2000/svg" xmlns:xlink="http://www.w3.org/1999/xlink" x="0px" y="0px" width="1280px" height="720px"><g >
<path fill="none" stroke="#000000" stroke-width="1.0" d="M 320.5332926416345, 546.0L585.4667073583655, 546.0"/>
<path fill="none" stroke="#000000" stroke-width="1.0" d="M 320.5592239919938, 210.0L585.4407760080062, 210.0"/>
<path fill="none" stroke="#000000" stroke-width="1.0" d="M 320.7375354603472, 222.0L585.2624645396529, 222.0"/>
<path fill="none" stroke="#000000" stroke-width="1.0" d="M 320.800848137747, 558.0L585.1991518622531, 558.0"/>
<path fill="none" stroke="#000000" stroke-width="1.0" d="M 321.3396760843135, 534.0L584.6603239156865, 534.0"/>
<path fill="none" stroke="#000000" stroke-width="1.0" d="M 321.45619227245516, 198.0L584.5438077275448, 198.0"/>
<path fill="none" stroke="#000000" stroke-width="1.0" d="M 321.9995565506951, 234.0L584.0004434493048, 234.0"/>
<path fill="none" stroke="#000000" stroke-width="1.0" d="M 322.15487338803837, 570.0L583.8451266119616, 570.0"/>
<path fill="none" stroke="#000000" stroke-width="1.0" d="M 323.2529825789443, 522.0L582.7470174210557, 522.0"/>
<path fill="none" stroke="#000000" stroke-width="1.0" d="M 323.46405605546977, 186.0L582.5359439445302, 186.0"/>
<path fill="none" stroke="#000000" stroke-width="1.0" d="M 324.3900582858162, 246.0L581.6099417141838, 246.0"/>
<path fill="none" stroke="#000000" stroke-width="1.0" d="M 324.64222082563674, 582.0L581.3577791743633, 582.0"/>
<path fill="none" stroke="#000000" stroke-width="1.0" d="M 326.3327768863833, 510.0L579.6672231136167, 510.0"/>
<path fill="none" stroke="#000000" stroke-width="1.0" d="M 326.6446732883894, 174.0L579.3553267116106, 174.0"/>
<path fill="none" stroke="#000000" stroke-width="1.0" d="M 327.98071822575446, 258.0L578.0192817742454, 258.0"/>
<path fill="none" stroke="#000000" stroke-width="1.0" d="M 328.3371996326655, 594.0L577.6628003673345, 594.0"/>
<path fill="none" stroke="#000000" stroke-width="1.0" d="M 330.6709125615064, 498.0L575.3290874384936, 498.0"/>
<path fill="none" stroke="#000000" stroke-width="1.0" d="M 331.09315238277975, 162.0L574.9068476172203, 162.0"/>
<path fill="none" stroke="#000000" stroke-width="1.0" d="M 332.88078713976756, 270.0L573.1192128602323, 270.0"/>
<path fill="none" stroke="#000000" stroke-width="1.0" d="M 333.3529055471769, 606.0L572.6470944528232, 606.0"/>
<path fill="none" stroke="#000000" stroke-width="1.0" d="M 336.40668215775725, 486.0L569.5933178422428, 486.0"/>
<path fill="none" stroke="#000000" stroke-width="1.0" d="M 336.95374995384657, 150.0L569.0462500461534, 150.0"/>
<path fill="none" stroke="#000000" stroke-width="1.0" d="M 339.25645126554923, 282.0L566.7435487344507, 282.0"/>
<path fill="none" stroke="#000000" stroke-width="1.0" d="M 339.8615858885986, 618.0L566.1384141114015, 618.0"/>
<path fill="none" stroke="#000000" stroke-width="1.0" d="M 343.7547064872828, 474.0L562.2452935127171, 474.0"/>
<path fill="none" stroke="#000000" stroke-width="1.0" d="M 344.44932186252845, 138.0L561.5506781374716, 138.0"/>
<path fill="none" stroke="#000000" stroke-width="1.0" d="M 347.36770144683135, 294.0L558.6322985531688, 294.0"/>
<path fill="none" stroke="#000000" stroke-width="1.0" d="M 348.1337082381491, 630.0L557.8662917618509, 630.0"/>
<path fill="none" stroke="#000000" stroke-width="1.0" d="M 353.0611903570264, 462.0L552.9388096429736, 462.0"/>
<path fill="none" stroke="#000000" stroke-width="1.0" d="M 353.94128771880685, 126.0L552.0587122811932, 126.0"/>
<path fill="none" stroke="#000000" stroke-width="1.0" d="M 357.6465207858097, 306.0L548.3534792141903, 306.0"/>
<path fill="none" stroke="#000000" stroke-width="1.0" d="M 358.6217352243402, 642.0L547.3782647756598, 642.0"/>
<path fill="none" stroke="#000000" stroke-width="1.0" d="M 364.9340014398124, 450.0L541.0659985601876, 450.0"/>
<path fill="none" stroke="#000000" stroke-width="1.0" d="M 366.0702811181631, 114.0L539.9297188818368, 114.0"/>
<path fill="none" stroke="#000000" stroke-width="1.0" d="M 370.892245739471, 318.0L535.1077542605291, 318.0"/>
<path fill="none" stroke="#000000" stroke-width="1.0" d="M 372.17314507976, 654.0L533.82685492024, 654.0"/>
<path fill="none" stroke="#000000" stroke-width="1.0" d="M 380.6170046162425, 438.0L525.3829953837574, 438.0"/>
<path fill="none" stroke="#000000" stroke-width="1.0" d="M 382.17091951601867, 102.0L523.8290804839814, 102.0"/>
<path fill="none" stroke="#000000" stroke-width="1.0" d="M 388.91638833179957, 330.0L517.0836116682004, 330.0"/>
<path fill="none" stroke="#000000" stroke-width="1.0" d="M 390.75692212328806, 666.0L515.2430778767123, 666.0"/>
<path fill="none" stroke="#000000" stroke-width="1.0" d="M 403.6382984955842, 426.0L502.3617015044157, 426.0"/>
<path fill="none" stroke="#000000" stroke-width="1.0" d="M 406.2051647762406, 90.0L499.79483522375926, 90.0"/>
<path fill="none" stroke="#000000" stroke-width="1.0" d="M 418.6347556446152, 342.0L487.3652443553847, 342.0"/>
<path fill="none" stroke="#000000" stroke-width="1.0" d="M 422.61648761316667, 678.0L483.38351238683344, 678.0"/>
<path fill="none" stroke="#000000" stroke-width="1.0" d="M 673.5, 402.0L1043.5, 402.0"/>
<path fill="none" stroke="#000000" stroke-width="1.0" d="M 673.5, 414.0L1043.5, 414.0"/>
<path fill="none" stroke="#000000" stroke-width="1.0" d="M 673.5, 426.0L1043.5, 426.0"/>
<path fill="none" stroke="#000000" stroke-width="1.0" d="M 673.5, 438.0L1043.5, 438.0"/>
<path fill="none" stroke="#000000" stroke-width="1.0" d="M 673.5, 450.0L1043.5, 450.0"/>
<path fill="none" stroke="#000000" stroke-width="1.0" d="M 673.5, 462.0L1043.5, 462.0"/>
<path fill="none" stroke="#000000" stroke-width="1.0" d="M 673.5, 474.0L1043.5, 474.0"/>
<path fill="none" stroke="#000000" stroke-width="1.0" d="M 673.5, 486.0L1043.5, 486.0"/>
<path fill="none" stroke="#000000" stroke-width="1.0" d="M 673.5, 498.0L1043.5, 498.0"/>
<path fill="none" stroke="#000000" stroke-width="1.0" d="M 673.5, 510.0L1043.5, 510.0"/>
<path fill="none" stroke="#000000" stroke-width="1.0" d="M 673.5, 522.0L1043.5, 522.0"/>
<path fill="none" stroke="#000000" stroke-width="1.0" d="M 673.5, 534.0L1043.5, 534.0"/>
<path fill="none" stroke="#000000" stroke-width="1.0" d="M 673.5, 546.0L1043.5, 546.0"/>
<path fill="none" stroke="#000000" stroke-width="1.0" d="M 673.5, 558.0L1043.5, 558.0"/>
<path fill="none" stroke="#000000" stroke-width="1.0" d="M 673.5, 570.0L1043.5, 570.0"/>
<path fill="none" stroke="#000000" stroke-width="1.0" d="M 673.5, 582.0L1043.5, 582.0"/>
<path fill="none" stroke="#000000" stroke-width="1.0" d="M 673.5, 594.0L1043.5, 594.0"/>
<path fill="none" stroke="#000000" stroke-width="1.0" d="M 673.5, 606.0L1043.5, 606.0"/>
<path fill="none" stroke="#000000" stroke-width="1.0" d="M 673.5, 618.0L1043.5, 618.0"/>
<path fill="none" stroke="#000000" stroke-width="1.0" d="M 673.5, 630.0L1043.5, 630.0"/>
<path fill="none" stroke="#000000" stroke-width="1.0" d="M 673.5, 642.0L1043.5, 642.0"/>
<path fill="none" stroke="#000000" stroke-width="1.0" d="M 673.5, 654.0L1043.5, 654.0"/>
<path fill="none" stroke="#000000" stroke-width="1.0" d="M 673.5, 666.0L1043.5, 666.0"/>
<path fill="none" stroke="#000000" stroke-width="1.0" d="M 741.5592239919937, 210.0L1006.4407760080062, 210.0"/>
<path fill="none" stroke="#000000" stroke-width="1.0" d="M 741.7375354603473, 222.0L1006.2624645396528, 222.0"/>
<path fill="none" stroke="#000000" stroke-width="1.0" d="M 742.4561922724552, 198.0L1005.5438077275448, 198.0"/>
<path fill="none" stroke="#000000" stroke-width="1.0" d="M 742.9995565506952, 234.0L1005.0004434493048, 234.0"/>
<path fill="none" stroke="#000000" stroke-width="1.0" d="M 744.4640560554697, 186.0L1003.5359439445301, 186.0"/>
<path fill="none" stroke="#000000" stroke-width="1.0" d="M 745.3900582858162, 246.0L1002.6099417141836, 246.0"/>
<path fill="none" stroke="#000000" stroke-width="1.0" d="M 747.6446732883894, 174.0L1000.3553267116105, 174.0"/>
<path fill="none" stroke="#000000" stroke-width="1.0" d="M 748.9807182257543, 258.0L999.0192817742454, 258.0"/>
<path fill="none" stroke="#000000" stroke-width="1.0" d="M 752.0931523827796, 162.0L995.9068476172203, 162.0"/>
<path fill="none" stroke="#000000" stroke-width="1.0" d="M 753.8807871397676, 270.0L994.1192128602323, 270.0"/>
<path fill="none" stroke="#000000" stroke-width="1.0" d="M 757.9537499538467, 150.0L990.0462500461534, 150.0"/>
<path fill="none" stroke="#000000" stroke-width="1.0" d="M 760.2564512655492, 282.0L987.7435487344508, 282.0"/>
<path fill="none" stroke="#000000" stroke-width="1.0" d="M 765.4493218625283, 138.0L982.5506781374718, 138.0"/>
<path fill="none" stroke="#000000" stroke-width="1.0" d="M 768.3677014468312, 294.0L979.6322985531687, 294.0"/>
<path fill="none" stroke="#000000" stroke-width="1.0" d="M 774.941287718807, 126.0L973.0587122811933, 126.0"/>
<path fill="none" stroke="#000000" stroke-width="1.0" d="M 778.6465207858096, 306.0L969.3534792141904, 306.0"/>
<path fill="none" stroke="#000000" stroke-width="1.0" d="M 787.0702811181632, 114.0L960.9297188818368, 114.0"/>
<path fill="none" stroke="#000000" stroke-width="1.0" d="M 791.892245739471, 318.0L956.1077542605291, 318.0"/>
<path fill="none" stroke="#000000" stroke-width="1.0" d="M 803.1709195160188, 102.0L944.8290804839812, 102.0"/>
<path fill="none" stroke="#000000" stroke-width="1.0" d="M 809.9163883317997, 330.0L938.0836116682005, 330.0"/>
<path fill="none" stroke="#000000" stroke-width="1.0" d="M 827.2051647762406, 90.0L920.7948352237593, 90.0"/>
<path fill="none" stroke="#000000" stroke-width="1.0" d="M 839.6347556446152, 342.0L908.3652443553848, 342.0"/>
</g>
</svg>