<?xml version="1.0" encoding="utf-8"?>
<!DOCTYPE svg PUBLIC "-//W3C//DTD SVG 1.1 Tiny//EN" "http://www.w3.org/Graphics/SVG/1.1/DTD/svg11-tiny.dtd">
<svg version="1.1" baseProfile="tiny" id="openrndr-svg" xmlns="http://www.w3.org/2000/svg" xmlns:xlink="http://www.w3.org/1999/xlink" x="0px" y="0px" width="1280px" height="720px"><g >
<path fill="none" stroke="#000000" stroke-width="1.0" d="M 106.0, 24.0L165.7619159514246, 24.0"/>
<path fill="none" stroke="#000000" stroke-width="1.0" d="M 1124.2380840485755, 24.0L1174.0, 24.0"/>
<path fill="none" stroke="#000000" stroke-width="1.0" d="M 106.0, 72.0L169.73396305886214, 72.0"/>
<path fill="none" stroke="#000000" stroke-width="1.0" d="M 1120.266036941138, 72.0L1174.0, 72.0"/>
<path fill="none" stroke="#000000" stroke-width="1.0" d="M 106.0, 120.0L178.65086491502996, 120.0"/>
<path fill="none" stroke="#000000" stroke-width="1.0" d="M 1111.34913508497, 120.0L1174.0, 120.0"/>
<path fill="none" stroke="#000000" stroke-width="1.0" d="M 106.0, 168.0L192.84339941042847, 168.0"/>
<path fill="none" stroke="#000000" stroke-width="1.0" d="M 1097.1566005895716, 168.0L1174.0, 168.0"/>
<path fill="none" stroke="#000000" stroke-width="1.0" d="M 106.0, 216.0L212.84025415530377, 216.0"/>
<path fill="none" stroke="#000000" stroke-width="1.0" d="M 1077.1597458446965, 216.0L1174.0, 216.0"/>
<path fill="none" stroke="#000000" stroke-width="1.0" d="M 106.0, 264.0L239.4834884777963, 264.0"/>
<path fill="none" stroke="#000000" stroke-width="1.0" d="M 1050.5165115222037, 264.0L1174.0, 264.0"/>
<path fill="none" stroke="#000000" stroke-width="1.0" d="M 106.0, 312.0L274.1660994464114, 312.0"/>
<path fill="none" stroke="#000000" stroke-width="1.0" d="M 1015.8339005535884, 312.0L1174.0, 312.0"/>
<path fill="none" stroke="#000000" stroke-width="1.0" d="M 106.0, 360.0L319.3952911268509, 360.0"/>
<path fill="none" stroke="#000000" stroke-width="1.0" d="M 970.6047088731491, 360.0L1174.0, 360.0"/>
<path fill="none" stroke="#000000" stroke-width="1.0" d="M 106.0, 408.0L380.4805923618427, 408.0"/>
<path fill="none" stroke="#000000" stroke-width="1.0" d="M 909.5194076381572, 408.0L1174.0, 408.0"/>
<path fill="none" stroke="#000000" stroke-width="1.0" d="M 106.0, 456.0L473.7096562459358, 456.0"/>
<path fill="none" stroke="#000000" stroke-width="1.0" d="M 816.2903437540642, 456.0L1174.0, 456.0"/>
<path fill="none" stroke="#000000" stroke-width="1.0" d="M 106.0, 504.0L1174.0, 504.0"/>
<path fill="none" stroke="#000000" stroke-width="1.0" d="M 106.0, 552.0L1174.0, 552.0"/>
<path fill="none" stroke="#000000" stroke-width="1.0" d="M 106.0, 600.0L1174.0, 600.0"/>
<path fill="none" stroke="#000000" stroke-width="1.0" d="M 106.0, 648.0L1174.0, 648.0"/>
<path fill="none" stroke="#000000" stroke-width="1.0" d="M 106.0, 696.0L1174.0, 696.0"/>
</g>
</svg>