<?xml version="1.0" encoding="utf-8"?>
<!DOCTYPE svg PUBLIC "-//W3C//DTD SVG 1.1 Tiny//EN" "http://www.w3.org/Graphics/SVG/1.1/DTD/svg11-tiny.dtd">
<svg version="1.1" baseProfile="tiny" id="openrndr-svg" xmlns="http://www.w3.org/2000/svg" xmlns:xlink="http://www.w3.org/1999/xlink" x="0px" y="0px" width="1280px" height="720px"><g >
<path fill="none" stroke="#000000" stroke-width="1.0" d="M 106.0, 3.0L165.52552996102304, 3.0"/>
<path fill="none" stroke="#000000" stroke-width="1.0" d="M 1124.4744700389772, 3.0L1174.0, 3.0"/>
<path fill="none" stroke="#000000" stroke-width="1.0" d="M 106.0, 9.0L165.50102054801638, 9.0"/>
<path fill="none" stroke="#000000" stroke-width="1.0" d="M 1124.4989794519834, 9.0L1174.0, 9.0"/>
<path fill="none" stroke="#000000" stroke-width="1.0" d="M 106.0, 15.0L165.55005509034297, 15.0"/>
<path fill="none" stroke="#000000" stroke-width="1.0" d="M 1124.449944909657, 15.0L1174.0, 15.0"/>
<path fill="none" stroke="#000000" stroke-width="1.0" d="M 106.0, 21.0L165.67281434904964, 21.0"/>
<path fill="none" stroke="#000000" stroke-width="1.0" d="M 1124.32718565095, 21.0L1174.0, 21.0"/>
<path fill="none" stroke="#000000" stroke-width="1.0" d="M 106.0, 27.0L165.86954195054858, 27.0"/>
<path fill="none" stroke="#000000" stroke-width="1.0" d="M 1124.1304580494516, 27.0L1174.0, 27.0"/>
<path fill="none" stroke="#000000" stroke-width="1.0" d="M 106.0, 33.0L166.14050551722542, 33.0"/>
<path fill="none" stroke="#000000" stroke-width="1.0" d="M 1123.8594944827748, 33.0L1174.0, 33.0"/>
<path fill="none" stroke="#000000" stroke-width="1.0" d="M 106.0, 39.0L166.48599741172464, 39.0"/>
<path fill="none" stroke="#000000" stroke-width="1.0" d="M 1123.5140025882754, 39.0L1174.0, 39.0"/>
<path fill="none" stroke="#000000" stroke-width="1.0" d="M 106.0, 45.0L166.90633553503113, 45.0"/>
<path fill="none" stroke="#000000" stroke-width="1.0" d="M 1123.0936644649687, 45.0L1174.0, 45.0"/>
<path fill="none" stroke="#000000" stroke-width="1.0" d="M 106.0, 51.0L167.4018641820356, 51.0"/>
<path fill="none" stroke="#000000" stroke-width="1.0" d="M 1122.5981358179645, 51.0L1174.0, 51.0"/>
<path fill="none" stroke="#000000" stroke-width="1.0" d="M 106.0, 57.0L167.97295495861036, 57.0"/>
<path fill="none" stroke="#000000" stroke-width="1.0" d="M 1122.0270450413898, 57.0L1174.0, 57.0"/>
<path fill="none" stroke="#000000" stroke-width="1.0" d="M 106.0, 63.0L168.62000776460025, 63.0"/>
<path fill="none" stroke="#000000" stroke-width="1.0" d="M 1121.3799922353994, 63.0L1174.0, 63.0"/>
<path fill="none" stroke="#000000" stroke-width="1.0" d="M 106.0, 69.0L169.34345184754517, 69.0"/>
<path fill="none" stroke="#000000" stroke-width="1.0" d="M 1120.6565481524551, 69.0L1174.0, 69.0"/>
<path fill="none" stroke="#000000" stroke-width="1.0" d="M 106.0, 75.0L170.14374693241274, 75.0"/>
<path fill="none" stroke="#000000" stroke-width="1.0" d="M 1119.8562530675872, 75.0L1174.0, 75.0"/>
<path fill="none" stroke="#000000" stroke-width="1.0" d="M 106.0, 81.0L171.02138443312583, 81.0"/>
<path fill="none" stroke="#000000" stroke-width="1.0" d="M 1118.9786155668744, 81.0L1174.0, 81.0"/>
<path fill="none" stroke="#000000" stroke-width="1.0" d="M 106.0, 87.0L171.9768887522356, 87.0"/>
<path fill="none" stroke="#000000" stroke-width="1.0" d="M 1118.0231112477645, 87.0L1174.0, 87.0"/>
<path fill="none" stroke="#000000" stroke-width="1.0" d="M 106.0, 93.0L173.0108186757177, 93.0"/>
<path fill="none" stroke="#000000" stroke-width="1.0" d="M 1116.9891813242825, 93.0L1174.0, 93.0"/>
<path fill="none" stroke="#000000" stroke-width="1.0" d="M 106.0, 99.0L174.12376887056777, 99.0"/>
<path fill="none" stroke="#000000" stroke-width="1.0" d="M 1115.8762311294322, 99.0L1174.0, 99.0"/>
<path fill="none" stroke="#000000" stroke-width="1.0" d="M 106.0, 105.0L175.31637149365136, 105.0"/>
<path fill="none" stroke="#000000" stroke-width="1.0" d="M 1114.6836285063487, 105.0L1174.0, 105.0"/>
<path fill="none" stroke="#000000" stroke-width="1.0" d="M 106.0, 111.0L176.5892979211343, 111.0"/>
<path fill="none" stroke="#000000" stroke-width="1.0" d="M 1113.4107020788658, 111.0L1174.0, 111.0"/>
<path fill="none" stroke="#000000" stroke-width="1.0" d="M 106.0, 117.0L177.9432606087928, 117.0"/>
<path fill="none" stroke="#000000" stroke-width="1.0" d="M 1112.0567393912074, 117.0L1174.0, 117.0"/>
<path fill="none" stroke="#000000" stroke-width="1.0" d="M 106.0, 123.0L179.37901509459581, 123.0"/>
<path fill="none" stroke="#000000" stroke-width="1.0" d="M 1110.6209849054042, 123.0L1174.0, 123.0"/>
<path fill="none" stroke="#000000" stroke-width="1.0" d="M 106.0, 129.0L180.89736215617745, 129.0"/>
<path fill="none" stroke="#000000" stroke-width="1.0" d="M 1109.1026378438223, 129.0L1174.0, 129.0"/>
<path fill="none" stroke="#000000" stroke-width="1.0" d="M 106.0, 135.0L182.49915013719834, 135.0"/>
<path fill="none" stroke="#000000" stroke-width="1.0" d="M 1107.5008498628017, 135.0L1174.0, 135.0"/>
<path fill="none" stroke="#000000" stroke-width="1.0" d="M 106.0, 141.0L184.18527745815152, 141.0"/>
<path fill="none" stroke="#000000" stroke-width="1.0" d="M 1105.8147225418484, 141.0L1174.0, 141.0"/>
<path fill="none" stroke="#000000" stroke-width="1.0" d="M 106.0, 147.0L185.95669532892634, 147.0"/>
<path fill="none" stroke="#000000" stroke-width="1.0" d="M 1104.0433046710737, 147.0L1174.0, 147.0"/>
<path fill="none" stroke="#000000" stroke-width="1.0" d="M 106.0, 153.0L187.81441068243407, 153.0"/>
<path fill="none" stroke="#000000" stroke-width="1.0" d="M 1102.185589317566, 153.0L1174.0, 153.0"/>
<path fill="none" stroke="#000000" stroke-width="1.0" d="M 106.0, 159.0L189.75948935085907, 159.0"/>
<path fill="none" stroke="#000000" stroke-width="1.0" d="M 1100.240510649141, 159.0L1174.0, 159.0"/>
<path fill="none" stroke="#000000" stroke-width="1.0" d="M 106.0, 165.0L191.79305950866566, 165.0"/>
<path fill="none" stroke="#000000" stroke-width="1.0" d="M 1098.2069404913343, 165.0L1174.0, 165.0"/>
<path fill="none" stroke="#000000" stroke-width="1.0" d="M 106.0, 171.0L193.91631540941933, 171.0"/>
<path fill="none" stroke="#000000" stroke-width="1.0" d="M 1096.0836845905806, 171.0L1174.0, 171.0"/>
<path fill="none" stroke="#000000" stroke-width="1.0" d="M 106.0, 177.0L196.1305214468228, 177.0"/>
<path fill="none" stroke="#000000" stroke-width="1.0" d="M 1093.8694785531773, 177.0L1174.0, 177.0"/>
<path fill="none" stroke="#000000" stroke-width="1.0" d="M 106.0, 183.0L198.43701657419618, 183.0"/>
<path fill="none" stroke="#000000" stroke-width="1.0" d="M 1091.5629834258038, 183.0L1174.0, 183.0"/>
<path fill="none" stroke="#000000" stroke-width="1.0" d="M 106.0, 189.0L200.83721912102732, 189.0"/>
<path fill="none" stroke="#000000" stroke-width="1.0" d="M 1089.162780878973, 189.0L1174.0, 189.0"/>
<path fill="none" stroke="#000000" stroke-width="1.0" d="M 106.0, 195.0L203.3326320502747, 195.0"/>
<path fill="none" stroke="#000000" stroke-width="1.0" d="M 1086.6673679497253, 195.0L1174.0, 195.0"/>
<path fill="none" stroke="#000000" stroke-width="1.0" d="M 106.0, 201.0L205.92484870594626, 201.0"/>
<path fill="none" stroke="#000000" stroke-width="1.0" d="M 1084.0751512940537, 201.0L1174.0, 201.0"/>
<path fill="none" stroke="#000000" stroke-width="1.0" d="M 106.0, 207.0L208.6155591072351, 207.0"/>
<path fill="none" stroke="#000000" stroke-width="1.0" d="M 1081.3844408927646, 207.0L1174.0, 207.0"/>
<path fill="none" stroke="#000000" stroke-width="1.0" d="M 106.0, 213.0L211.40655685333738, 213.0"/>
<path fill="none" stroke="#000000" stroke-width="1.0" d="M 1078.5934431466628, 213.0L1174.0, 213.0"/>
<path fill="none" stroke="#000000" stroke-width="1.0" d="M 106.0, 219.0L214.29974671221404, 219.0"/>
<path fill="none" stroke="#000000" stroke-width="1.0" d="M 1075.7002532877862, 219.0L1174.0, 219.0"/>
<path fill="none" stroke="#000000" stroke-width="1.0" d="M 106.0, 225.0L217.2971529772259, 225.0"/>
<path fill="none" stroke="#000000" stroke-width="1.0" d="M 1072.7028470227742, 225.0L1174.0, 225.0"/>
<path fill="none" stroke="#000000" stroke-width="1.0" d="M 106.0, 231.0L220.4009286880798, 231.0"/>
<path fill="none" stroke="#000000" stroke-width="1.0" d="M 1069.59907131192, 231.0L1174.0, 231.0"/>
<path fill="none" stroke="#000000" stroke-width="1.0" d="M 106.0, 237.0L223.61336582722865, 237.0"/>
<path fill="none" stroke="#000000" stroke-width="1.0" d="M 1066.3866341727712, 237.0L1174.0, 237.0"/>
<path fill="none" stroke="#000000" stroke-width="1.0" d="M 106.0, 243.0L226.9369066202257, 243.0"/>
<path fill="none" stroke="#000000" stroke-width="1.0" d="M 1063.063093379774, 243.0L1174.0, 243.0"/>
<path fill="none" stroke="#000000" stroke-width="1.0" d="M 106.0, 249.0L230.37415608910408, 249.0"/>
<path fill="none" stroke="#000000" stroke-width="1.0" d="M 1059.6258439108958, 249.0L1174.0, 249.0"/>
<path fill="none" stroke="#000000" stroke-width="1.0" d="M 106.0, 255.0L233.92789603230906, 255.0"/>
<path fill="none" stroke="#000000" stroke-width="1.0" d="M 1056.072103967691, 255.0L1174.0, 255.0"/>
<path fill="none" stroke="#000000" stroke-width="1.0" d="M 106.0, 261.0L237.60110063393455, 261.0"/>
<path fill="none" stroke="#000000" stroke-width="1.0" d="M 1052.3988993660657, 261.0L1174.0, 261.0"/>
<path fill="none" stroke="#000000" stroke-width="1.0" d="M 106.0, 267.0L241.39695394006253, 267.0"/>
<path fill="none" stroke="#000000" stroke-width="1.0" d="M 1048.6030460599375, 267.0L1174.0, 267.0"/>
<path fill="none" stroke="#000000" stroke-width="1.0" d="M 106.0, 273.0L245.3188694822485, 273.0"/>
<path fill="none" stroke="#000000" stroke-width="1.0" d="M 1044.6811305177516, 273.0L1174.0, 273.0"/>
<path fill="none" stroke="#000000" stroke-width="1.0" d="M 106.0, 279.0L249.37051237933773, 279.0"/>
<path fill="none" stroke="#000000" stroke-width="1.0" d="M 1040.629487620662, 279.0L1174.0, 279.0"/>
<path fill="none" stroke="#000000" stroke-width="1.0" d="M 106.0, 285.0L253.55582431105665, 285.0"/>
<path fill="none" stroke="#000000" stroke-width="1.0" d="M 1036.4441756889432, 285.0L1174.0, 285.0"/>
<path fill="none" stroke="#000000" stroke-width="1.0" d="M 106.0, 291.0L257.87905183297715, 291.0"/>
<path fill="none" stroke="#000000" stroke-width="1.0" d="M 1032.120948167023, 291.0L1174.0, 291.0"/>
<path fill="none" stroke="#000000" stroke-width="1.0" d="M 106.0, 297.0L262.3447785961798, 297.0"/>
<path fill="none" stroke="#000000" stroke-width="1.0" d="M 1027.65522140382, 297.0L1174.0, 297.0"/>
<path fill="none" stroke="#000000" stroke-width="1.0" d="M 106.0, 303.0L266.9579621509323, 303.0"/>
<path fill="none" stroke="#000000" stroke-width="1.0" d="M 1023.0420378490677, 303.0L1174.0, 303.0"/>
<path fill="none" stroke="#000000" stroke-width="1.0" d="M 106.0, 309.0L271.72397615819773, 309.0"/>
<path fill="none" stroke="#000000" stroke-width="1.0" d="M 1018.2760238418024, 309.0L1174.0, 309.0"/>
<path fill="none" stroke="#000000" stroke-width="1.0" d="M 106.0, 315.0L276.64865901397263, 315.0"/>
<path fill="none" stroke="#000000" stroke-width="1.0" d="M 1013.3513409860273, 315.0L1174.0, 315.0"/>
<path fill="none" stroke="#000000" stroke-width="1.0" d="M 106.0, 321.0L281.73837012027406, 321.0"/>
<path fill="none" stroke="#000000" stroke-width="1.0" d="M 1008.2616298797259, 321.0L1174.0, 321.0"/>
<path fill="none" stroke="#000000" stroke-width="1.0" d="M 106.0, 327.0L287.0000553277815, 327.0"/>
<path fill="none" stroke="#000000" stroke-width="1.0" d="M 1002.9999446722184, 327.0L1174.0, 327.0"/>
<path fill="none" stroke="#000000" stroke-width="1.0" d="M 106.0, 333.0L292.4413234486658, 333.0"/>
<path fill="none" stroke="#000000" stroke-width="1.0" d="M 997.5586765513344, 333.0L1174.0, 333.0"/>
<path fill="none" stroke="#000000" stroke-width="1.0" d="M 106.0, 339.0L298.07053622148095, 339.0"/>
<path fill="none" stroke="#000000" stroke-width="1.0" d="M 991.929463778519, 339.0L1174.0, 339.0"/>
<path fill="none" stroke="#000000" stroke-width="1.0" d="M 106.0, 345.0L303.8969147412514, 345.0"/>
<path fill="none" stroke="#000000" stroke-width="1.0" d="M 986.1030852587488, 345.0L1174.0, 345.0"/>
<path fill="none" stroke="#000000" stroke-width="1.0" d="M 106.0, 351.0L309.93066620056464, 351.0"/>
<path fill="none" stroke="#000000" stroke-width="1.0" d="M 980.0693337994353, 351.0L1174.0, 351.0"/>
<path fill="none" stroke="#000000" stroke-width="1.0" d="M 106.0, 357.0L316.18313589774465, 357.0"/>
<path fill="none" stroke="#000000" stroke-width="1.0" d="M 973.8168641022552, 357.0L1174.0, 357.0"/>
<path fill="none" stroke="#000000" stroke-width="1.0" d="M 106.0, 363.0L322.6669909658325, 363.0"/>
<path fill="none" stroke="#000000" stroke-width="1.0" d="M 967.3330090341674, 363.0L1174.0, 363.0"/>
<path fill="none" stroke="#000000" stroke-width="1.0" d="M 106.0, 369.0L329.39644432196104, 369.0"/>
<path fill="none" stroke="#000000" stroke-width="1.0" d="M 960.6035556780389, 369.0L1174.0, 369.0"/>
<path fill="none" stroke="#000000" stroke-width="1.0" d="M 106.0, 375.0L336.38753017002296, 375.0"/>
<path fill="none" stroke="#000000" stroke-width="1.0" d="M 953.6124698299772, 375.0L1174.0, 375.0"/>
<path fill="none" stroke="#000000" stroke-width="1.0" d="M 106.0, 381.0L343.6584463727236, 381.0"/>
<path fill="none" stroke="#000000" stroke-width="1.0" d="M 946.3415536272763, 381.0L1174.0, 381.0"/>
<path fill="none" stroke="#000000" stroke-width="1.0" d="M 106.0, 387.0L351.2299847017672, 387.0"/>
<path fill="none" stroke="#000000" stroke-width="1.0" d="M 938.7700152982327, 387.0L1174.0, 387.0"/>
<path fill="none" stroke="#000000" stroke-width="1.0" d="M 106.0, 393.0L359.1260782597856, 393.0"/>
<path fill="none" stroke="#000000" stroke-width="1.0" d="M 930.8739217402148, 393.0L1174.0, 393.0"/>
<path fill="none" stroke="#000000" stroke-width="1.0" d="M 106.0, 399.0L367.3745076702751, 399.0"/>
<path fill="none" stroke="#000000" stroke-width="1.0" d="M 922.625492329725, 399.0L1174.0, 399.0"/>
<path fill="none" stroke="#000000" stroke-width="1.0" d="M 106.0, 405.0L376.0078263155096, 405.0"/>
<path fill="none" stroke="#000000" stroke-width="1.0" d="M 913.9921736844902, 405.0L1174.0, 405.0"/>
<path fill="none" stroke="#000000" stroke-width="1.0" d="M 106.0, 411.0L385.06459400116916, 411.0"/>
<path fill="none" stroke="#000000" stroke-width="1.0" d="M 904.9354059988307, 411.0L1174.0, 411.0"/>
<path fill="none" stroke="#000000" stroke-width="1.0" d="M 106.0, 417.0L394.59105505694134, 417.0"/>
<path fill="none" stroke="#000000" stroke-width="1.0" d="M 895.4089449430586, 417.0L1174.0, 417.0"/>
<path fill="none" stroke="#000000" stroke-width="1.0" d="M 106.0, 423.0L404.643474078563, 423.0"/>
<path fill="none" stroke="#000000" stroke-width="1.0" d="M 885.3565259214369, 423.0L1174.0, 423.0"/>
<path fill="none" stroke="#000000" stroke-width="1.0" d="M 106.0, 429.0L415.2914751975154, 429.0"/>
<path fill="none" stroke="#000000" stroke-width="1.0" d="M 874.7085248024846, 429.0L1174.0, 429.0"/>
<path fill="none" stroke="#000000" stroke-width="1.0" d="M 106.0, 435.0L426.62296900410547, 435.0"/>
<path fill="none" stroke="#000000" stroke-width="1.0" d="M 863.3770309958949, 435.0L1174.0, 435.0"/>
<path fill="none" stroke="#000000" stroke-width="1.0" d="M 106.0, 441.0L438.7517017427761, 441.0"/>
<path fill="none" stroke="#000000" stroke-width="1.0" d="M 851.2482982572238, 441.0L1174.0, 441.0"/>
<path fill="none" stroke="#000000" stroke-width="1.0" d="M 106.0, 447.0L451.8293679768215, 447.0"/>
<path fill="none" stroke="#000000" stroke-width="1.0" d="M 838.1706320231782, 447.0L1174.0, 447.0"/>
<path fill="none" stroke="#000000" stroke-width="1.0" d="M 106.0, 453.0L466.06619756265724, 453.0"/>
<path fill="none" stroke="#000000" stroke-width="1.0" d="M 823.9338024373427, 453.0L1174.0, 453.0"/>
<path fill="none" stroke="#000000" stroke-width="1.0" d="M 106.0, 459.0L481.76864259551644, 459.0"/>
<path fill="none" stroke="#000000" stroke-width="1.0" d="M 808.2313574044833, 459.0L1174.0, 459.0"/>
<path fill="none" stroke="#000000" stroke-width="1.0" d="M 106.0, 465.0L499.4156109860455, 465.0"/>
<path fill="none" stroke="#000000" stroke-width="1.0" d="M 790.5843890139543, 465.0L1174.0, 465.0"/>
<path fill="none" stroke="#000000" stroke-width="1.0" d="M 106.0, 471.0L519.8363345992503, 471.0"/>
<path fill="none" stroke="#000000" stroke-width="1.0" d="M 770.1636654007498, 471.0L1174.0, 471.0"/>
<path fill="none" stroke="#000000" stroke-width="1.0" d="M 106.0, 477.0L544.7305298757466, 477.0"/>
<path fill="none" stroke="#000000" stroke-width="1.0" d="M 745.2694701242541, 477.0L1174.0, 477.0"/>
<path fill="none" stroke="#000000" stroke-width="1.0" d="M 106.0, 483.0L579.0363814808209, 483.0"/>
<path fill="none" stroke="#000000" stroke-width="1.0" d="M 710.9636185191783, 483.0L1174.0, 483.0"/>
<path fill="none" stroke="#000000" stroke-width="1.0" d="M 106.0, 489.0L1174.0, 489.0"/>
<path fill="none" stroke="#000000" stroke-width="1.0" d="M 106.0, 495.0L1174.0, 495.0"/>
<path fill="none" stroke="#000000" stroke-width="1.0" d="M 106.0, 501.0L1174.0, 501.0"/>
<path fill="none" stroke="#000000" stroke-width="1.0" d="M 106.0, 507.0L1174.0, 507.0"/>
<path fill="none" stroke="#000000" stroke-width="1.0" d="M 106.0, 513.0L1174.0, 513.0"/>
<path fill="none" stroke="#000000" stroke-width="1.0" d="M 106.0, 519.0L1174.0, 519.0"/>
<path fill="none" stroke="#000000" stroke-width="1.0" d="M 106.0, 525.0L1174.0, 525.0"/>
<path fill="none" stroke="#000000" stroke-width="1.0" d="M 106.0, 531.0L1174.0, 531.0"/>
<path fill="none" stroke="#000000" stroke-width="1.0" d="M 106.0, 537.0L1174.0, 537.0"/>
<path fill="none" stroke="#000000" stroke-width="1.0" d="M 106.0, 543.0L1174.0, 543.0"/>
<path fill="none" stroke="#000000" stroke-width="1.0" d="M 106.0, 549.0L1174.0, 549.0"/>
<path fill="none" stroke="#000000" stroke-width="1.0" d="M 106.0, 555.0L1174.0, 555.0"/>
<path fill="none" stroke="#000000" stroke-width="1.0" d="M 106.0, 561.0L1174.0, 561.0"/>
<path fill="none" stroke="#000000" stroke-width="1.0" d="M 106.0, 567.0L1174.0, 567.0"/>
<path fill="none" stroke="#000000" stroke-width="1.0" d="M 106.0, 573.0L1174.0, 573.0"/>
<path fill="none" stroke="#000000" stroke-width="1.0" d="M 106.0, 579.0L1174.0, 579.0"/>
<path fill="none" stroke="#000000" stroke-width="1.0" d="M 106.0, 585.0L1174.0, 585.0"/>
<path fill="none" stroke="#000000" stroke-width="1.0" d="M 106.0, 591.0L1174.0, 591.0"/>
<path fill="none" stroke="#000000" stroke-width="1.0" d="M 106.0, 597.0L1174.0, 597.0"/>
<path fill="none" stroke="#000000" stroke-width="1.0" d="M 106.0, 603.0L1174.0, 603.0"/>
<path fill="none" stroke="#000000" stroke-width="1.0" d="M 106.0, 609.0L1174.0, 609.0"/>
<path fill="none" stroke="#000000" stroke-width="1.0" d="M 106.0, 615.0L1174.0, 615.0"/>
<path fill="none" stroke="#000000" stroke-width="1.0" d="M 106.0, 621.0L1174.0, 621.0"/>
<path fill="none" stroke="#000000" stroke-width="1.0" d="M 106.0, 627.0L1174.0, 627.0"/>
<path fill="none" stroke="#000000" stroke-width="1.0" d="M 106.0, 633.0L1174.0, 633.0"/>
<path fill="none" stroke="#000000" stroke-width="1.0" d="M 106.0, 639.0L1174.0, 639.0"/>
<path fill="none" stroke="#000000" stroke-width="1.0" d="M 106.0, 645.0L1174.0, 645.0"/>
<path fill="none" stroke="#000000" stroke-width="1.0" d="M 106.0, 651.0L1174.0, 651.0"/>
<path fill="none" stroke="#000000" stroke-width="1.0" d="M 106.0, 657.0L1174.0, 657.0"/>
<path fill="none" stroke="#000000" stroke-width="1.0" d="M 106.0, 663.0L1174.0, 663.0"/>
<path fill="none" stroke="#000000" stroke-width="1.0" d="M 106.0, 669.0L1174.0, 669.0"/>
<path fill="none" stroke="#000000" stroke-width="1.0" d="M 106.0, 675.0L1174.0, 675.0"/>
<path fill="none" stroke="#000000" stroke-width="1.0" d="M 106.0, 681.0L1174.0, 681.0"/>
<path fill="none" stroke="#000000" stroke-width="1.0" d="M 106.0, 687.0L1174.0, 687.0"/>
<path fill="none" stroke="#000000" stroke-width="1.0" d="M 106.0, 693.0L1174.0, 693.0"/>
<path fill="none" stroke="#000000" stroke-width="1.0" d="M 106.0, 699.0L1174.0, 699.0"/>
<path fill="none" stroke="#000000" stroke-width="1.0" d="M 106.0, 705.0L1174.0, 705.0"/>
<path fill="none" stroke="#000000" stroke-width="1.0" d="M 106.0, 711.0L1174.0, 711.0"/>
<path fill="none" stroke="#000000" stroke-width="1.0" d="M 106.0, 717.0L1174.0, 717.0"/>
</g>
</svg>