<?xml version="1.0" encoding="utf-8"?>
<!-- Generator: Adobe Illustrator 22.1.0, SVG Export Plug-In . SVG Version: 6.00 Build 0)  -->
<svg version="1.1" baseProfile="tiny" id="Layer_1" xmlns="http://www.w3.org/2000/svg" xmlns:xlink="http://www.w3.org/1999/xlink"
	 x="0px" y="0px" viewBox="0 0 1280 720" xml:space="preserve">
	<path d="M665.9,415.8c0,1.6-0.8,4.1,0.2,5.4c1.3,1.7-0.2,4,1.8,5.4c0.4,0.3,0.1,1.6,0.1,2.4c0,12.8,0.1,25.7-0.1,38.5
		c0,2.3-0.5,4.7-1.1,7c-1.1,4.3-1.2,9.4,0.1,13.8c2.5,8.6-0.3,17.4-7.3,23.5c-8.2,1.1-11.1-4.6-13.9-10.7c-0.8-0.4-1.6-0.8-2.6-1.3
		c-1.1,0-3.3,1.7-7.5,5.9c-7.2,0-14.5,0-22.1,0c-0.9-1-2-2.3-3.2-3.7c2.7-2.7,5.6-5.8,8.7-8.7c4.5-4.2,7.3-9.6,10.6-14.6
		c2.2-3.4,1.7-7.1,1-10.7c-0.9-4.1-2.6-7.9-5.2-11.4c-1.1-1.5-1.3-3.9-1.3-5.9c0-3.6-0.9-6.9-2.1-10.2c-0.6-1.6-1.5-3-2.3-4.5
		c-0.5-1-1.4-1.8-1.6-2.8c-0.5-3-0.9-6-1-9.1c-0.2-5.2,0-10.3,0-15.9c-1.4-1.7-3-3.7-4.7-5.8c-3.8,3.1-8,4-12.4,3.5
		c-5.3-0.7-10.4,1-15.6,1.2c-2.3,0.1-4.5,1.4-6.7-0.4c-1.8-1.6-1.6-3.9-1.6-6.1c0-4.2,0-8.3,0-12.5c0-1.4-0.1-2.7-0.9-4.1
		c-2.3-3.9-3.1-8.2-3.1-12.7c0.1-26.2,0-52.3,0.1-78.5c0-5,0.8-10,1.2-15.6c1.4-2.7,2.9-6.1,3.9-9.7c1.4-5.1,2.1-10.4,3.8-15.4
		c0.6-1.6,1-3.4,2.1-4.6c2-2.1,3.5-4.5,4.7-7.1c0.7-1.9-0.4-4,1-6.1c1.1-1.6-0.3-3.6-1.3-5.3c-3-0.2-6,0-9.1-0.9
		c-4.3-1.2-7.7-3.5-8.3-7.9c-0.4-2.8-1.7-5-2.8-7.4c-0.7-1.6-1.5-3-1.4-4.9c0.3-3.5-0.6-6.8-1.6-10.3c-1-3.5-0.2-7.5-0.2-11.3
		c1.8-1.1-0.3-3.7,1.8-4.8c-0.4-3,1.7-5.3,3.3-7c3.1-3.3,3.9-6.9,3.7-10.5c1.5-2.8,2.7-5.2,4-7.4c0.5-0.9,1-1.5,1-2.6
		c-0.1-3.1,0.9-6.1,2.2-8.5c1.5-2.8,4.6-4.4,7.5-5.7c3.2-1.5,6.2-3.3,9.8-4.1c3-0.7,5.6-3.3,8.3-5.1c1.1-0.7,1.9-1.9,3.1-3
		c-0.2-3.9,0.2-7.9,1.7-11.9c0.7-1.9,0.6-4.4-0.3-6.7c-1.5-4-2.9-7.9-6-11c-0.8-0.8-1.1-2.2-1.6-3.3c0.8-1.8,1.4-3.6,2.4-5.1
		c1.1-1.7,0.9-3,0-4.8c-1.7-3.3-3.1-6.8-3.2-10.9c1.5-1.9,3.1-4,4.8-5.8c1.8-2,3.7-3.8,5.7-5.4c5.2-3,10.4-5.9,16.8-4.2
		c2.5,0.9,4.7,2.5,7.7,3c2.8,0.4,5.5,1.9,8.1,3.4c3.5,2,7,4.1,9.4,7.4c1.8,2.4,3.4,4.9,5.1,7.4c-1,1.7-1.7,3-2.6,4.3
		c-2.5,3.9-4.6,8.1-3.8,12.9c0.4,2,1.2,4,0.7,6.2c-2.4,2.4-5,4.7-7.3,7.4c-2.1,2.5-3.7,5.4-5.4,8.1c0.4,1,0.7,1.8,1,2.5
		c5,2.8,10.4,3.8,15.8,3.3c4.5,2.7,8.4,5.9,13.9,7.5c2,1.8,4.6,4.1,5.5,7.5c0.7,2.5,1.1,5.3,2.7,7.4c1.6,2.1,1.5,4.7,2.6,6.9
		c0.3,0.5,0.3,1.3,0.3,1.9c-0.1,9.7,1.8,19.4,1,29.1c-0.4,4.7-0.9,9.6-2.1,14.1c-1.1,4.5-5.1,7.1-8.7,9.6c-3.4,2.4-4.2,4.6-2.1,7.8
		c2.5,4,4.7,8,6,12.5c0.1,0.4,0.6,0.7,1.1,1.3c-0.8,4,0.6,7.7,3,11.3c-0.3,0.6-0.7,1.2-1.1,1.9c-2.3,3.9-3.8,8.1-3,12.7
		c0.5,3-0.6,5.8-1.2,8.5c-0.5,1.9-0.8,3.7-0.8,5.6c0,10.8,0,21.7,0,32.8c0.8,0.7,1.7,1.6,2.7,2.6c0.5-0.2,1-0.3,1.3-0.6
		c2.8-3.2,5.6-6.4,8.3-9.4c3.3-0.5,9.3-3.5,12.2-6c4.9,0.1,8.8-2.3,12.2-5.4c2-1.8,3.7-4.2,1.3-7.1c-0.3-0.4,0-1.3,0-2
		c-3.7-2.9-5.7-6.6-6.1-11.4c-0.1-1.8-1.2-3.5-1.6-5.3c-0.3-1.1-0.4-2.3-0.2-3.4c0.1-1.2,0.3-2.6,1-3.6c2.2-3.3,1.8-7.7,4.4-10.7
		c1.7-2,1.9-4.2,2.9-7c1.2-1,2.8-2.5,4.5-4c0.6-0.2,1.7-0.3,2.3-0.9c1.9-1.8,4-2.5,6.6-2.3c1.8,0.1,3.7,0,5.4,0c1.9-1,3.6-1.9,5.7-3
		c2.1-0.2,4.3,0.2,6.5,1.7c2.3,1.6,5.3,1.8,8,2.3c3.5,0.7,5.1,2.1,5.7,5.5c2,1.9,4,3.8,5.8,5.5c2.5,9.3,1.3,11.9,7.2,20.5
		c0,1.7,0,3.3,0,4.7c-1.9,3.6-4.1,6.8-7.1,9.3c-1,0.8-2.2,1.3-3.1,2.2c-0.7,0.8-1.2,1.8-1.9,3c0.5,3-1,6.6,1.4,9.8
		c3.3,1.8,7.1,3.7,10.6,6c1.9,1.2,4,1.6,6,2.6c4.5,2.3,7.6,6.1,11.1,9.3c0,0.7,0,1.4,0,2c2.3,2.3,4.5,4.5,6.7,6.7
		c-0.1,0.1-0.2,0.1-0.3,0.2c1.1,1.9,1.9,3.9,3.2,5.6c3.6,4.9,5,10.2,5.6,16.3c1.2,12.5,0.5,25.1,0.8,37.6c0.1,2.1,0.8,4.1,2.5,4.9
		c2.7,1.2,4.3,3.5,6.2,5.5c1.9,1.9,4.2,3.5,5.5,6.2c0.7,1.6,2.4,2.7,3.8,3.9c1.1,0.9,2.8,1.4,3.4,2.5c1.4,2.6,3.9,4.6,4.7,7.5
		c0.1,0.2,0.5,0.3,1.1,0.7c0.9-0.8,1.8-1.6,3-2.7c-0.4-2.9-1.1-5.9-1-8.8c0.2-4.4-0.9-8-4.8-10.6c-3.3,0.7-6.4,2.8-10.6,1.4
		c-4-1.3-5.8-4.5-8.6-6.9c1.9-1.8,0.6-4,0.9-6.1c-2-1.8-0.3-4.1-1-5.6c3-5.3,5.6-10.3,9-14.8c0.9-1.1,1.7-2.4,2.8-3.3
		c3.9-3.7,7.1-7.9,10.2-12.3c1-1.4,1.5-3.1,2.5-4.4c3.1-3.7,7.1-6.5,11.7-8c3.5-1.1,6.4-2.8,8.8-5.6c0-0.5,0-1.2,0-2
		c-1.6-1.5-3.3-3.1-5-4.7c-1.5-3.9-0.8-7.8-1-11.7c-0.1-2.5-0.1-5.3-1.1-7.5c-0.6-1.5-0.8-2.7-0.8-4.2c-0.1-2.5,0-5,0-7.5
		c-0.1-5.5-0.3-11,2.8-16.7c0.8-0.8,2.3-2.3,4-4c4-1.9,8.3-3.9,12.9-6.1c5.5-0.3,10.9-3.3,17.2-1.8c1.7,1.1,3.8,2.4,5.9,3.7
		c0.8,0.5,1.6,1,2.3,1.7c1.6,1.7,3.1,3.6,4.8,5.3c1.6,1.6,3.4,3,4.7,4.2c2.3,8.3,0.9,16.4,1.4,24.4c0.1,1.2,0.8,2.4,0.9,3.6
		c0.5,4.6-1.4,8.4-4.3,11.7c-1.8,2-3.8,3.8-5.6,5.7c0,1.7,0,3.3,0,5.4c2.7,1.9,5.3,4.3,8.4,5.8c3.4,1.7,6,4.3,8.7,6.8
		c1.6,1.5,3.5,2.6,6,4.5c0.2,0.3,1,1.5,2,2.5c2.6,2.7,4.5,5.5,5.1,9.5c0.4,2.6,1.3,5.5,3.7,7.4c1.5,1.2,1.9,3.1,2.2,5.1
		c0.5,3,1.2,6,0.8,9.3c-5,3.1-6.7,7.9-5.9,13.8c0.5,3.3-0.5,6.4-1.4,10.1c-2.6,4.1-7.4,5.7-12.3,7.4c-1.3,1.7-0.9,3.9-1.5,5.8
		c-1.4,4.9-0.7,9.7-0.9,14.6c-0.1,4.8-0.1,9.7,0,14.5c0.1,3.9-0.2,7.6-1.8,11.3c-0.3,0.7-0.3,1.6-0.2,2.4c0.5,5-1.7,8.7-5.2,11.9
		c-0.4,0.3-0.7,0.7-1.2,1.2c-0.9,0-2.1,0-3,0c-1.2,1.2-2.3,2.3-3.4,3.4c-0.8,4.4-3,8.1-5.7,11.6c-1.3,1.7-2.1,3.1-2.6,5.6
		c-1.8,1.7-3.8,3.5-5.3,5c-1.9,5.6-4.8,10.4-3.6,15.5c-1.1,2.2-2,3.8-3.1,5.9c0,1.8-0.2,4.1,0,6.4c0.5,4-0.6,7.8-1.3,11.5
		c-0.7,3.5-2.2,7.1-5,9.9c-0.7,0.7-1.3,1.4-1.7,2.3c-1.7,3.7-3.8,7-6.1,8.6c-1.9,4.1-3.3,7-5,10.5c0,3.2,0.1,7,0,10.9
		c0,1.6-0.1,3-0.7,4.7c-0.6,1.5-3,1-2.4,2.9c-2.1,1.4-4.2,2.8-6.5,4.4c-2.1,0-4.4,0-6.7,0c-3.2,0-6.3-0.2-9.5,0
		c-2.9,0.2-5.7,0.8-8.3,1.2c-2.9-2.7-5.5-5.1-7.8-7.2c-2.9,0-5.2,0-7.4,0c-2.4,2.1-4.7,4.2-6.7,6c-2.2,0-3.8,0-5.5,0
		c-1.2-0.8-2.3-1.6-3.5-2.5c-1.2-0.8-2.3-1.6-3.4-2.4c-8.1-0.6-16.2,0.9-24.4-1.4c-3-2.4-5.2-6.6-9.8-7.8c-2.4-4.5-4.6-5.8-9.9-5.9
		c-1.4-1.4-2.8-2.8-4.4-4.4c0-4.8-0.5-9.8,0.1-14.7c0.6-4.6,0.3-9.5,3.2-13.7c0.5-0.7,0.6-1.8,0.7-2.7c0.1-2.3,0-4.6,0-6.5
		c-1.1-2-1.9-3.7-3-5.8c1-4.4-3.7-7.9-3-12.6c-1.3-1.3-2.4-2.5-3.6-3.6c-1.7-1.6-2.4-3.6-2.4-6c0-5.1-1-10.2-2.1-15.1
		c-0.8-3.4-1.3-7-3.4-10.1c-1-1.5-0.4-4.1-0.5-6.5c-0.9-0.6-2-1.2-3.2-2c-1.2,0.6-2.5,1.3-3.9,2c-4.2-4-8.6-7.7-7.7-14.2
		c-1.3-2.7-2.8-5.1-5.7-6.2c-0.7-0.3-1.2-1.1-1.8-1.7c-3.2-3.2-6.2-6.6-10.5-8.5c-0.9-0.4-1.5-1.2-2.2-1.8c0.4-2.3-0.3-4.4,1-6.5
		c1-1.5-0.3-3.5-1.2-4.9c-1.5-2.3-3.4-4.3-5.3-6.3c-1-1-2.2-1.8-3.5-2.5c-4.9-2.7-8.7-6.5-11-11.2c-0.7-1.4-1.3-2.8-2-4.2
		c-1.4,0-2.5,0-3.6,0c-0.1,0.2-0.3,0.5-0.4,0.8c-0.3,3,0.3,6-0.9,9.1c-1.1,2.9,0.5,6,1.4,8.8C663.2,411.2,664.6,413.3,665.9,415.8z
		 M779.8,524.8c0.2-0.7,0.4-1.8,0.7-2.9c0.9-4.6,2.6-9.1,2.6-14c-0.2-14.2-0.1-28.3-0.1-42.4c2.2-3,3.5-6.2,3-9.9
		c-0.4-3.3,0.6-6.4,1.3-9.5c1.1-4.2,1.1-8.2-0.6-12.1c-3.2-0.7-5.3,0.8-7.3,2.8c-2.5,0-5.3,0.7-7.4-0.2c-4-1.7-7.4-0.5-10.8,0.5
		c-1.8,1.6-2.2,3.4-2.2,5.4c0,19.6,0,39.3,0,58.7c0.8,1.2,1.4,2.4,2.3,3.3c1.6,1.7,2.6,3.4,2.8,5.9c0.2,1.9,1.3,3.8,1.7,5.7
		c1,4.1,2.9,7.8,4.4,11.3c1.8,0.9,3.4,1.6,4.6,2.2C776.3,528.2,777.8,526.7,779.8,524.8z M811.6,534.9c0.5-2.9,1.1-5.2,1.3-7.6
		c0.2-2.6,0-5.3,0-8c0-3.5,0-7,0-10.5c0-3.3,0-6.6,0-10c0-2.2,1-3.7,2.8-4.5c0-2.2,0-4.3,0-6.3c-1.3,0-2.5,0-3.9,0c0,4,0,7.9,0,12
		c-1.1,0-1.9,0-2.7,0c-0.2,2.5-1.1,4.4-2.8,6c-1.7,1.6-2.4,3.6-2.4,6c0.1,6.8,0,13.6,0,20.2c1.3,1.7,1.8,4,4.1,4.7
		C809.2,536.3,810.4,535.6,811.6,534.9z M663.4,375c2.8-3.9,3.4-8.7,4.4-13.1c1.1-4.8,0.8-10,1.1-15c0-0.3-0.3-0.5-0.4-0.8
		c-1.1,0-2.3,0-3.1,0c-0.7,1-1.1,2-1.8,2.5c-1.9,1.5-2.3,3.8-2.7,5.9c-0.5,2.3-1.3,4.5-1.8,6.7c-0.3,1.1-0.7,2.6-0.1,3.3
		c1.3,1.5,0.8,3.1,0.8,4.7c-0.1,2.2,0.4,4.1,1.6,5.8C662.1,375,662.8,375,663.4,375z M820.4,456.9c1,0,2,0,3,0
		c1.6-1.6,3.2-3.3,4.9-4.9c2.7-2.6,3.7-6.1,4.5-9.6c0.4-1.8-0.3-3.1-2.5-3.6c-2.5,3.6-6.7,4.4-10.4,6.2c-0.5,3.5-0.9,7-1.4,10.1
		C819.4,455.9,819.7,456.2,820.4,456.9z M825.9,554.6c0.8,0.5,1.6,1,2.6,1.7c1.4-1.9,2.5-3.6,3.8-5.2c1.6-1.9-0.3-4.2,1-6
		c1.5-2,0.1-3.9-0.3-5.1c1.3-1.5,2.1-2.8,3.2-3.8c2.8-2.8,3.8-5.7,1.2-9.3c-0.6,0-1.2,0-1.7,0c-1,0.9-2,1.7-2.9,2.5
		c0,2.9,0,5.5,0,8.1c-1.9,0.7-2.8,2.2-4.1,3.7c-2.2,2.6-1.2,5.8-2.7,8.4C825.3,550.9,825.9,552.9,825.9,554.6z M843.9,500.8
		c0-0.7-0.2-1.3,0-1.9c0.3-0.7,0.9-1.3,1.3-1.9c0.5-0.8,1-1.5,1.4-2.4c0.9-2.2-0.1-4.4-2.1-5.6c-1.1,2.2-2.3,4.3-3.5,6.7
		c0,1.5,0,3.3,0,5.1C842,500.8,842.8,500.8,843.9,500.8z"/>
	<path d="M389.3,574.9c-1.1,2.9-3.7,4-5.7,4.7c-2.5,0.8-4.5,2.1-6.6,3.4c-2.1,1.3-4.2,2.6-6.5,4c-5.4-0.8-10.4,3.1-15.8,1.9
		c-2.4,2.4-4.6,4.6-6.8,6.8c-8.6,3-16.8,4.6-23.1-2.4c-2.2-5.4-1.5-10.2-1.8-14.9c-0.1-1.6-0.4-3.7-1.2-4.9c-1.5-2.5-1-5.5-2.6-8
		c-0.3-0.5,0.3-1.8,0.6-2.6c0.4-1.2,1-2.3,1.5-3.5c2.5-0.8,4.7-2.9,5.6-5c1-2.4,3.4-2.9,4.6-5c1-1.9,3.2-3,4.7-4.4
		c3.9,0,7.4,0.2,10.9,0c3.2-0.2,5.7,0.8,7.7,3.2c0.3,0.4,0.7,0.6,1,0.8c3.4,0.3,5-2.2,7-4c1.7,0,3.4,0,4.3,0c4-1.5,6.7-3.7,9.1-6.6
		c0.1-2.2-0.1-4.5-0.8-6.9c-0.6-2.2-0.2-4.7-1.1-7.1c-1-2.7-2.7-5.2-3.4-8.1c-1.2-4.9-3.3-9.7-2.6-14.9c0.6-5,1.5-9.9,3-14.7
		c0.5-1.4,1.5-2.8,2.7-3.8c2.6-2.2,3.5-5.3,4.1-8.3c0.4-1.9,1-3.6,2.1-5.1c1.1-1.5,1.9-3.2,3-5.1c0-9.5-0.3-19.4,0.1-29.2
		c0.2-5.5,0.7-11,2.5-16.4c0.7-2.3,0.4-4.9,0.5-7.4c0.8-1.1,1.5-2.3,2.4-3.4c1.6-1.8,3.5-3.3,3.4-6.1c3.4-4.4,5.9-9.6,12.2-10.9
		c1.5-0.3,3.2-0.9,4.1-2c1.6-1.9,4-1.7,5.8-3.3c1.6-1.4,3.8-2,5.7-2.9c2.9-1.5,2.9-1.5,5.1-5.5c-0.7-1.9-1-3.8-1.9-5.4
		c-1.4-2.5-3-4.8-4.7-7.1c-2.6-3.8-4.3-8.5-4.3-12.7c0-1.3,0.1-2.7,0-4c-0.6-4.6,1.4-8.8,2.2-13.1c0.3-1.8,2.1-3.5,3.5-5
		c2.1-2.3,4.4-4.5,6.7-6.7c0.2-0.2,0.5-0.4,0.7-0.7c2.5-4,6.1-6.7,11.4-8.4c5.4,0.2,11.7-2.1,17.4-1c2.7,1.1,4.9,2,7,2.9
		c2.3,1,4.7,1.7,6.7,3.1c2,1.4,3.6,3.5,4.6,4.5c1.5,3.1,2.5,5.4,3.6,7.5c1.2,2.2,2.2,4.4,2.9,6.8c1.9,6.8,1.8,13.4,0,20.2
		c-0.9,3.5-3.2,6-4.5,10.3c0,1.5,0.2,4.2,0,6.8c-0.5,5.7,2.7,9,7.1,11.7c2.8,1.7,5.8,2.9,8.5,4.8c3.1,2.2,5.6,4.4,6.6,8.3
		c0.5,2,2.1,3.8,3.2,5.7c1.5,2.6,3.3,5.1,2.7,8.4c-0.6,3.2,0.3,6.3,1.2,9c1.5,4.8,0.4,9.4,0.8,14.1c0.1,0.7-0.7,1.4-0.9,2.1
		c-0.4,1.3-0.9,2.7-0.9,4.1s0.9,2.7,0.9,4.1c-0.1,2.4,0.9,4.9-0.9,7.1c-0.5,0.6-0.2,2-0.1,2.9c0.7,4.8-0.8,9.4-1.2,14.1
		c-0.3,3.5-2.1,6.9-1.9,10.7c0,0.3-0.7,0.7-0.9,1.1c-1.4,3.1-2.8,6.1-1.6,10.7c0.8,1,2.2,3,3.9,4.6c3.3,3,5.2,6.7,6.6,10.8
		c0.2,0.6,0.4,1.3,0.8,1.7c3.8,3.6,7.4,7.6,11.7,10.5c3.3,2.2,6.8,4.3,10.4,6.2c1.6,0.9,2.7,2,3.4,3.8c0.8,2.1,2,4.2,3.2,6.2
		c2.3,3.8,1.4,7.5-0.1,11.2c-1,2.4-2.2,4.8-3.4,7.1c-0.4,0.8-1.1,1.8-1.9,2.2c-2.6,1.2-4.2,3.6-6.3,5.3c-1.4,1.2-3,2.3-4.6,3.3
		c-1,0.7-2.5,0.9-3.3,1.7c-2.4,2.5-5.7,2.6-8.7,3.2c-2.9,0.5-5.9,0.7-8.7,2c-0.7,0.3-1.6,0.1-2.5,0.1c-28.3,0.3-56.7,0.7-85,1
		C405.8,575,397.7,574.9,389.3,574.9z"/>
</svg>
