<?xml version="1.0" encoding="utf-8"?>
<!-- Generator: Adobe Illustrator 22.1.0, SVG Export Plug-In . SVG Version: 6.00 Build 0)  -->
<svg version="1.1" id="Layer_1" xmlns="http://www.w3.org/2000/svg" xmlns:xlink="http://www.w3.org/1999/xlink" x="0px" y="0px"
	 viewBox="0 0 1280 720" style="enable-background:new 0 0 1280 720;" xml:space="preserve">
<style type="text/css">
	.st0{fill:none;stroke:#000000;stroke-miterlimit:10;}
</style>
<path class="st0" d="M381.9,366.9c6-0.5,12,2.7,18.1-0.8c6.8-4,14.6-5.7,19.5-13c2.5-3.8,8.3-5.6,12.7-7.8c1.1-0.5,3,0.8,4.9,1.2
	c4.9-3,5.4-4.7,4.4-12.3c-0.4-2.8,0.3-5.8,0.1-8.6c-0.1-2-0.7-4.1-1.8-5.9c-2.1-3.4-2.5-10-0.1-12.9c0.7-0.8,1.6-2.1,2.5-2.3
	c3.7-0.9,7.6-1.5,11.4-2.1c2.5-0.4,5.2-0.4,7.6-1.1c5.1-1.6,10-3.5,15.1-5c1.4-0.4,3-0.1,4.4-0.3c3-0.2,6.1-0.8,9.1-0.9
	c3-0.1,6.6-0.4,9.1,0.9c5.1,2.7,12.1,3.3,13.6,10.7c0,0.1,0.1,0.3,0.3,0.4c7.4,7.6,14.8,15.1,22.3,22.5c0.9,0.9,2.9,0.9,4.5,0.9
	c8.8,0.1,14.6-6.5,21.8-9.8c3.6-1.6,7.7-2.5,11.1-4.3c6.9-3.7,12.2,0.4,18.5,2.3c6.9,2.3,11.5,7.2,16.9,11.4c3.6,2.8,7.9,4.7,12,7
	c4-2.1,4.2-2.9,2.1-6.6c-1.2-1.9-2.8-4.1-2.8-6.2c0.1-6.1-5.2-8-8.2-11.7c-0.4-0.4-0.9-0.8-1.3-0.7c-7,2.5-12.2-3.4-18.5-4.2
	c-5.9-0.8-11.6-5.4-15.4-10.9c-0.8-1.3-0.8-3.3-1.1-4.9c0.4-0.2,0.6-0.5,1-0.7c3.6,2.2,7,5,11,6.3c4,1.3,8.4,1.1,13.2,1
	c-2.3-4.2-5.3-8-9.7-10c-2.5-1.1-3.7-2.5-4.9-5c-1.2-2.6-3.6-4.6-5.7-6.8c-2.3-2.5-2.3-4.9,0.1-7.4c3.7,3.7,7.4,7.4,11,11
	c1.1,1.1,2.1,2.4,3.5,2.8c1.4,0.4,3.6,0.5,4.7-0.2c2.2-1.5,0.5-3.2-0.8-4.5c-4.8-4.8-9.7-9.7-14.4-14.6c-1.1-1.1-1.8-2.7-3.3-4.9
	c5.3,0.2,8.8,1.1,12,4.4c3.7,3.8,8.3,6.8,12.7,9.9c0.6,0.5,1.9,0.2,3,0.3c-0.1-0.8,0-2.1-0.5-2.6c-2.4-2.1-4.9-4.5-7.6-5.9
	c-3.9-2.1-5.9-4.9-5.3-9.5c2.8-1.4,5.6-0.5,7.7,1.3c3.3,2.8,6,6.2,9.1,9.3c4,4,7.8,8,11.9,11.9c0.9,0.9,2.1,1.6,3,2.6
	c3.5,3.4,6.8,4.1,10.7,2.2c0.6-0.4,1.2-1.5,1.3-2.4c0.5-3.6,1.3-7.1-0.4-11c-1-2.3,0.3-5.8,1-8.6c0.2-0.8,2.8-1.9,3-1.6
	c1.5,1.5,3.3,3.2,3.5,4.9c0.7,5.8,0.8,11.7,0.9,17.5c0.1,1.6-0.6,3.3-0.8,4.8c-1,4.4-2.9,8.8-2.8,13.2c0.2,4.6,2.3,9.3,3.8,13.9
	c0.6,2.2,1.6,4.2,2.3,6.4c0.9,2.8,1.3,5.7,2.8,8.1c2.9,4.9,6,9.8,9.6,14.1c4.2,4.9,9.1,9.3,13.7,13.9c0.8,0.8,2.3,0.8,3.3,1.2
	c-0.3-1.3-0.1-2.8-0.8-3.7c-2.1-3-4.3-5.7-4.1-9.8c0.1-1.5-0.9-3-1.5-4.6c-0.4-1.1-1.2-2.5-0.8-3.3c2-4.9-1.6-9-1.9-13.5
	c-0.1-1.3-0.1-2.5-0.4-3.7c-0.4-2.2-0.8-4.4-1.3-6.6c-0.1-0.6-0.6-1.3-0.5-1.9c1.4-5.1-2.5-9.3-2.3-13.9c0.4-5.1-3.7-9.7-1.1-14.8
	c0.3-0.6-0.5-1.5-0.6-2.3c-1.3-7.2-3.1-14.3-3.6-21.6c-0.4-5.2-1.4-9.3-5.3-12.7c-8.1-6.7-16.2-13.5-24.5-19.9
	c-1.8-1.3-4.5-1.4-6.6-2.6c-6.6-4-6.8-10.9-7.6-17.7c2.5-1,3.8,0.1,3.9,2.2c0.1,5.7,4.5,8.1,8.3,10.7c1,0.7,4-0.3,5.1-1.4
	c0.8-0.8,1.1-4.2,0.4-4.6c-4.3-3.2-5.1-8.2-7.4-12.4c-0.8-1.5-0.7-3.4-0.6-5.2c0-0.3,2.1-1.1,2.4-0.8c1.5,1.5,2.9,3,3.9,4.9
	c1.4,2.4,2.2,5.3,3.8,7.6c0.4,0.7,3,0.7,4.1,0.1c1.8-0.9,2.4-2.5,0.7-4.5c-1.8-2.1-3.3-4.7-5.3-6.6c-4-3.7-7.8-7.3-4.1-13.7
	c4.5,0.8,6.6,4.4,8.8,8.4c1.8,3.4,4.5,6.4,7.1,9.2c1.4,1.4,3.3,1.3,3.5-1.6c0.2-3.9-0.6-7.4-3.4-10.3c-1.9-2.1-3.6-4.3-5.1-6.6
	c-0.4-0.7-0.2-2.8,0.4-3c0.9-0.5,2.9-0.6,3.5-0.1c5.7,6.1,12.4,10.9,15.3,19.5c1.3,4.2,6.6,7.1,10.3,10.7c2.8-1.6,4.3-3,4-6.9
	c-0.3-4.7,1.1-9.5,1.8-14.3c4.5,1.1,6.3,4.6,5.7,9.4c-0.3,2.5,0.1,5.2-0.1,7.7c-0.1,1.6-0.5,3.2-0.8,4.8c-0.3,1.3-1.3,2.8-0.9,3.7
	c1.3,3,0.1,5.4-1.3,7.9c-0.5,0.9,0,2.3,0,3.5c1-0.3,2.1-0.4,3-1c5.2-3,6.2-8.6,7-13.5c0.6-3.9-1.7-8.2-2-12.4
	c-0.4-5.4-0.2-10.7-0.4-16.1c0-1.4-0.2-2.8-0.5-4.2c-0.1-0.5-0.6-0.9-0.5-1.3c0.6-4.9,1.3-9.8,2.1-14.6c0.3-1.6,1.6-3.2,1.4-4.5
	c-0.9-5.2,2.3-8.9,3.7-13.3c4.9-16.4,17.5-26.6,29.9-37c3.7-3.2,7.6-6.3,11.8-8.7c5.7-3.2,11.7-6.4,18-8.3
	c7.5-2.3,15.5-2.6,23.1-4.5c8.8-2,17.2-0.5,25.9,0.3c9.2,0.8,18,2.4,26.9,5.4c5.3,1.8,10.1,4.5,15.3,6c12,3.6,19.9,12.3,28.4,20.4
	c5.5,5.2,10.7,11,15.4,17c2.3,2.9,3.3,6.9,4.7,10.5c0.2,0.5,0.3,1,0.5,1.3c2.8,4.4,5.8,8.8,8.4,13.2c3.7,6.2,4.8,13.2,5.4,20.4
	c0.6,6.9,0.3,13.6-1.6,20.2c-0.3,1,0.8,2.2,0.8,3.3c0,2.4-0.4,4.8-0.6,7.1c-0.1,1.4-0.5,2.8-0.6,4.2c-0.4,2.1-0.6,4.1-0.9,6.2
	c-0.1,0.8-0.8,1.7-0.6,2.3c2.1,6.1-2.5,10.5-4,15.6c-0.6,2.3-1.3,4.6-2.1,6.9c-1.7,5.5-6.1,8.9-9.9,12.7c-4.6,4.5-6.9,10-8.8,16.1
	c-1.6,5-4.9,9.6-7.4,14.4c-0.6,1.3-0.9,2.9-1.4,4.4c-1.3,4-2.4,8.2-4,12.1c-2.6,6.3-6.1,12.2-8.3,18.6c-2,5.8-2.5,12-4,17.9
	c-0.6,2.6-2.3,5-3.1,7.6c-1.8,5.7-3.2,11.5-5.1,17.3c-1.5,4.5-3.7,8.6-4.9,13c-0.8,3.1-0.1,6.5-0.6,9.8c-0.4,2.8-1.7,5.5-2.3,8.3
	c-1.9,8.4-9.2,13.7-11.9,21.6c-0.4,1.1-0.6,2.5-0.8,3.7c-0.2,1.5,0.1,3.2-0.6,4.3c-5.1,8.3-4,19.3-11.6,26.7c-1.8,1.8-2,4.9-3.3,7.3
	c-3.3,5.7-6.6,11.2-10.1,16.6c-0.8,1.4-2.1,2.5-3.3,3.8c-2.3,2.6-5.9,4.5-5.4,9c0.1,0.6-0.8,1.5-1.3,2.1c-4.7,5.2-9.5,10.2-14,15.6
	c-2.5,3-4.5,6.4-6.6,9.7c-4,6.6-7.9,13.3-12,19.8c-1.5,2.3-3.7,4.2-5.4,6.5c-4.7,6.6-9.3,13.1-15.2,18.7
	c-14.4,13.9-28.1,28.4-42.6,42.2c-7.8,7.4-16.6,13.9-25,20.9c-0.6,0.5-1.4,1-2.2,1.1c-4.7,0.7-9.5,2.3-14.1,1.6
	c-6.4-0.8-12.4-3.5-17.8-7.4c-3.2-2.3-7.1-3.5-10.7-5.2c-1.9-0.9-3.7-2.1-5.4-3.4c-7.7-5.9-15.7-11.5-22.8-18
	c-4.9-4.5-8.9-9.9-12.3-16c-3.1-5.5-5.9-11.1-8.6-16.8c-1.9-3.9-5.5-6.9-8.4-10.4c-1.6-1.8-3.5-1.6-4.6,0.2
	c-2.3,3.7-5.3,7.4-6.3,11.5c-1.8,7.9-3.3,16.1-3.5,24.3c-0.1,7.1-1.1,14.1-1,21.1c0,2.7,1,5.5,2.2,7.8c2.3,4.5,1.1,8.4-0.8,12.5
	c-0.4,0.8-0.2,1.9-0.6,2.8c-0.4,1.1-0.8,3-1.7,3.3c-4,1.5-8.3,3.8-12.4,3.6c-8.9-0.6-17.7-2.4-26.5-3.9c-1.1-0.2-2.1-0.8-3.1-1.3
	c-1.1-0.5-2.2-1.6-3-1.5c-6.9,1.1-11.7-3.9-17.5-5.4c-5.5-1.6-8.1-5.4-11.7-8.4c-1.1-0.9-1.7-2.7-2-4.2c-0.8-3.9-3.5-5.9-7.5-5.7
	c-3,0.2-6-1.3-8.8-1.8c-6.7-1.3-9.5-6.7-13.9-10.4c-2.1-1.8-4.4-3.5-4-7.1c0.1-1.1-1.6-2.4-2.5-3.5c-4.9-5.4-9.8-10.8-14.8-16.2
	c-1.8-1.9-3.8-3.7-5.9-5.2c-4.9-3.5-5.9-7.8-2.8-13.2c0.4-0.7,0.7-1.8,0.6-2.7c-1.3-5.1,2.3-7.6,5.6-10.1c2.1-1.6,8.9,1,10.4,3.5
	c1.8,2.8,3.7,5.7,5.9,8.3c4.7,5.7,10.2,10.5,16.8,13.6c4.1,2,9,3,13.5,3.2c5.2,0.1,10.1-1.8,13.9-5.9c4.9-5.3,10.3-10,15.2-15.3
	c9-9.7,17.6-19.7,26.7-29.3c3.4-3.5,2.2-8.4,4.8-12c1.3-1.8,2.1-4,3.1-5.9c0.8-1.7,1.5-3.5,2.3-5c0.6-1.1,1.3-2.6,2.2-2.9
	c10.3-2.6,20.2-3.3,28.9,4.5c2.3,2,5.8,2.5,8.6,4c5,2.6,9.7,6.2,15,8.1c3.7,1.3,7.1,3.1,10.2,5.4c2.3,2.2,4.5,4.3,7.7,7
	c0.6-3.3,1.6-5.4,1.3-7.6c-0.5-4,3.9-7.4,1.3-11.7c-1.1-1.8-1.6-4.2-3-5.4c-8.2-6.1-8.7-14.9-8.6-23.9c0-7.9,3-15.1,5.7-22.5
	c3-8.1,7.8-14.8,12.5-21.8c2.6-3.9,5.4-7.4,8.5-10.7c0.6-0.6,1.5-1.3,1.4-2c-0.6-4.7,3.3-6.6,5.7-9.3c4-4.5,8.1-8.8,11.9-13.4
	c1.1-1.3,2.1-3.4,1.8-4.8c-0.8-4-0.9-8.4-4.5-11.5c-2.5-2.2-4.7-4.7-7.1-7.1c-1.8-1.8-3.9-2.9-6.5-3.8c-3.7-1.3-6.7-4.6-10-7.1
	c-7-5.4-13.9-11.2-20.9-16.4c-2.4-1.7-5.8-1.8-8.3-3.4c-4.3-2.6-8.6-3.3-13.5-1.8c-1.4,0.4-3,0.6-4.1,1.3c-3.5,2.1-6.7,4.7-10.3,6.6
	c-2.2,1.2-4.9,1.6-7.4,2.1c-6.6,1.3-13.4,3-20.2,3.5c-4.5,0.3-9.1,1.2-13.8-1.6c-3.7-2.1-8.4-2.5-11-6.5c-0.4-0.5-1.2-0.9-1.3-1.5
	c-0.6-5.6-5.9-8.7-7.4-13.5c-1.6-4.9-5.6-7.3-8.6-10.7c-0.5-0.5-1.5-0.9-2.2-0.9c-4.3-0.1-8.8-0.4-13,0.1c-4.4,0.6-6.1,4.5-7.4,8.1
	c-1.2,3.3-3,5.2-6.2,6.4c-5.9,2.2-6.7,5.9-5,11.8c1.4,4.8,4.5,9.8,1.1,15.6c-1.2,2.1-0.8,5.4-2,8.1c-2.3,5.4-6.6,8.8-12.4,7.8
	c-3-0.5-5.9-2.4-8.8-2.3c-3.2,0.1-6.9,1.1-9.4,2.9c-3.9,2.8-6.8,6.9-10.5,10c-1.8,1.5-4.3,2.1-6.6,2.8c-1.5,0.5-3.7-0.1-4.7,0.8
	c-4.9,4.5-10.7,1.9-15.9,2.1 M679.3,254c-0.5-0.1-1-0.1-1.5-0.2c-0.4,1.8-1.8,4.2-1.1,5.5c2.9,5.9,3.3,12.7,8,17.9
	c2.1,2.4,2.5,6.3,3.7,9.5c1.6,4.2,3.3,8.3,5.2,12.4c1.1,2.5,3.5,4.7,3.7,7.3c1,8.3,5.7,14.2,11.7,19.2c2.4,2,6.2,3.9,8.9,3.4
	c6.2-1.1,11.7,1.1,17.5,2.2c4.5,0.8,8.6-0.1,12.7-1c1.2-0.2,3-3,2.6-4c-1.1-3.4-2.7-6.6-4.8-9.5c-1.9-2.6-4.7-4.7-7-7.1
	c-6-6.4-14.6-7.8-22.1-7.2c-7.1,0.6-12.4-2.9-18.5-4c-1-0.1-2-1.8-2.4-3c-1-2.5-1.5-5.3-2.5-7.8c-1.2-3-4-6.1-3.7-8.8
	c0.5-6-2.6-9.5-6.2-13.4c-1.1-1.1-2.3-3.3-1.8-4.2C683.3,257.7,681.2,256,679.3,254z M484.7,593.8c3.3,1.6,5.8,3,8.4,4
	c3,1.1,6.1,2.7,9.1,2.6c2.5-0.1,4.6-0.5,7,0.8c5.4,2.7,12.1,1.6,15.6-1.8c2.9-2.8,4.2-5.7,2.8-9.8c-0.5-1.3,0-3-0.1-4.4
	c-0.6-7.1-0.8-14.4-2.1-21.5c-0.9-5.6-4.8-6.5-8.7-2.6c-10,9.8-19.8,19.8-29.7,29.7C486.2,591.7,485.4,592.9,484.7,593.8z
	 M639.8,406.9c-0.1-0.1-0.2-0.2-0.3-0.3c-3.8,4.5-7.8,9-11.5,13.6c-1.8,2.3-2.9,5.2-4.7,7.4c-4,4.7-8.4,9.1-9.4,15.6
	c-0.3,1.6-1.1,3-2,4.4c-1.9,3.2-4.7,5.9-2.5,10.3c0.8,1.5,0,4-0.6,5.8c-0.8,2.5-0.3,4.7,2.1,5.2c1.1,0.2,3.2-1.8,3.8-3.3
	c1.1-2.3,0.8-5.2,2.1-7.4c3.9-7.3,8.3-14.2,11.9-21.6c3.7-7.5,8.8-14.5,13.9-21.1c4.5-5.8,11.2-10,13.3-17.8
	c0.4-1.7,1.1-3.3,1.7-4.9c-1.7-0.3-3.4-1-5-0.9c-0.8,0-1.8,1.3-2.4,2.3c-1.1,1.8-1.6,3.9-2.8,5.4
	C644.9,402.2,642.2,404.4,639.8,406.9z"/>
</svg>
