<?xml version="1.0" encoding="utf-8"?>
<!DOCTYPE svg PUBLIC "-//W3C//DTD SVG 1.1 Tiny//EN" "http://www.w3.org/Graphics/SVG/1.1/DTD/svg11-tiny.dtd">
<svg version="1.1" baseProfile="tiny" id="openrndr-svg" xmlns="http://www.w3.org/2000/svg" xmlns:xlink="http://www.w3.org/1999/xlink" x="0px" y="0px" width="1280px" height="720px"><g >
<path fill="none" stroke="#000000" stroke-width="1.0" d="M 757.3990059201691, 87.0L820.3541941976337, 87.0"/>
<path fill="none" stroke="#000000" stroke-width="1.0" d="M 741.1773571535812, 93.0L837.4212794044488, 93.0"/>
<path fill="none" stroke="#000000" stroke-width="1.0" d="M 730.7559880183901, 99.0L852.2626018626268, 99.0"/>
<path fill="none" stroke="#000000" stroke-width="1.0" d="M 723.1316687203429, 105.0L860.7374976596794, 105.0"/>
<path fill="none" stroke="#000000" stroke-width="1.0" d="M 716.0382124334094, 111.0L867.3243450678538, 111.0"/>
<path fill="none" stroke="#000000" stroke-width="1.0" d="M 709.4396360502847, 117.0L873.5530222656602, 117.0"/>
<path fill="none" stroke="#000000" stroke-width="1.0" d="M 703.7792283312845, 123.0L879.388580805556, 123.0"/>
<path fill="none" stroke="#000000" stroke-width="1.0" d="M 699.236679277876, 129.0L884.6330018811675, 129.0"/>
<path fill="none" stroke="#000000" stroke-width="1.0" d="M 695.8026194659011, 135.0L889.1242922810602, 135.0"/>
<path fill="none" stroke="#000000" stroke-width="1.0" d="M 693.3757570152782, 141.0L891.5576578607094, 141.0"/>
<path fill="none" stroke="#000000" stroke-width="1.0" d="M 690.9633205211987, 147.0L894.4435011269724, 147.0"/>
<path fill="none" stroke="#000000" stroke-width="1.0" d="M 689.1653042739007, 153.0L898.3338091660407, 153.0"/>
<path fill="none" stroke="#000000" stroke-width="1.0" d="M 688.1961427561148, 159.0L901.9789625246101, 159.0"/>
<path fill="none" stroke="#000000" stroke-width="1.0" d="M 687.1076474708804, 165.0L904.4516443706018, 165.0"/>
<path fill="none" stroke="#000000" stroke-width="1.0" d="M 686.2590036028831, 171.0L905.8406724575516, 171.0"/>
<path fill="none" stroke="#000000" stroke-width="1.0" d="M 642.1792092693559, 177.0L645.047163196771, 177.0"/>
<path fill="none" stroke="#000000" stroke-width="1.0" d="M 686.5133395421662, 177.0L906.5948299324411, 177.0"/>
<path fill="none" stroke="#000000" stroke-width="1.0" d="M 629.4842464584731, 183.0L634.5161375580067, 183.0"/>
<path fill="none" stroke="#000000" stroke-width="1.0" d="M 643.2619458913368, 183.0L651.1002356514322, 183.0"/>
<path fill="none" stroke="#000000" stroke-width="1.0" d="M 686.8748292892178, 183.0L906.9641364759054, 183.0"/>
<path fill="none" stroke="#000000" stroke-width="1.0" d="M 629.579736197412, 189.0L638.9240891653839, 189.0"/>
<path fill="none" stroke="#000000" stroke-width="1.0" d="M 648.0908374801909, 189.0L656.4534853520862, 189.0"/>
<path fill="none" stroke="#000000" stroke-width="1.0" d="M 676.1113647431796, 189.0L681.1017838611187, 189.0"/>
<path fill="none" stroke="#000000" stroke-width="1.0" d="M 686.9339335218689, 189.0L906.7927755276069, 189.0"/>
<path fill="none" stroke="#000000" stroke-width="1.0" d="M 624.8544153067144, 195.0L628.9218526628351, 195.0"/>
<path fill="none" stroke="#000000" stroke-width="1.0" d="M 634.7061561954473, 195.0L643.0023539001652, 195.0"/>
<path fill="none" stroke="#000000" stroke-width="1.0" d="M 649.8031878725144, 195.0L659.9001811779054, 195.0"/>
<path fill="none" stroke="#000000" stroke-width="1.0" d="M 675.0633122721647, 195.0L682.3542427252733, 195.0"/>
<path fill="none" stroke="#000000" stroke-width="1.0" d="M 687.1204892500109, 195.0L905.9388626434672, 195.0"/>
<path fill="none" stroke="#000000" stroke-width="1.0" d="M 626.3443306991521, 201.0L632.5725205320724, 201.0"/>
<path fill="none" stroke="#000000" stroke-width="1.0" d="M 639.4652609835175, 201.0L663.4737838152121, 201.0"/>
<path fill="none" stroke="#000000" stroke-width="1.0" d="M 674.8326229968075, 201.0L682.2545581235256, 201.0"/>
<path fill="none" stroke="#000000" stroke-width="1.0" d="M 688.1384994339753, 201.0L905.7786963679971, 201.0"/>
<path fill="none" stroke="#000000" stroke-width="1.0" d="M 615.446699212533, 207.0L619.1000000000004, 207.0"/>
<path fill="none" stroke="#000000" stroke-width="1.0" d="M 629.0124972820654, 207.0L670.4864070869977, 207.0"/>
<path fill="none" stroke="#000000" stroke-width="1.0" d="M 671.3124432199052, 207.0L689.2965016125228, 207.0"/>
<path fill="none" stroke="#000000" stroke-width="1.0" d="M 689.2965016125229, 207.0L905.4846081056409, 207.0"/>
<path fill="none" stroke="#000000" stroke-width="1.0" d="M 616.36208337631, 213.0L621.3927902165146, 213.0"/>
<path fill="none" stroke="#000000" stroke-width="1.0" d="M 633.2895049000667, 213.0L680.9214833038768, 213.0"/>
<path fill="none" stroke="#000000" stroke-width="1.0" d="M 688.3457724539708, 213.0L904.7, 213.0"/>
<path fill="none" stroke="#000000" stroke-width="1.0" d="M 618.9383469301928, 219.0L679.5318315787632, 219.0"/>
<path fill="none" stroke="#000000" stroke-width="1.0" d="M 685.6986551721925, 219.0L903.8283202303267, 219.0"/>
<path fill="none" stroke="#000000" stroke-width="1.0" d="M 629.2563212292831, 225.0L903.7335225432753, 225.0"/>
<path fill="none" stroke="#000000" stroke-width="1.0" d="M 636.8779522224654, 231.0L901.9399932859832, 231.0"/>
<path fill="none" stroke="#000000" stroke-width="1.0" d="M 644.2351642837734, 237.0L899.2298332477976, 237.0"/>
<path fill="none" stroke="#000000" stroke-width="1.0" d="M 651.4848819529539, 243.0L897.441524889729, 243.0"/>
<path fill="none" stroke="#000000" stroke-width="1.0" d="M 657.1115455654601, 249.0L894.5448443420719, 249.0"/>
<path fill="none" stroke="#000000" stroke-width="1.0" d="M 658.9127554368303, 255.0L677.4435920451862, 255.0"/>
<path fill="none" stroke="#000000" stroke-width="1.0" d="M 680.2630985529365, 255.0L888.9483136762549, 255.0"/>
<path fill="none" stroke="#000000" stroke-width="1.0" d="M 581.4147240154028, 261.0L588.9617858933211, 261.0"/>
<path fill="none" stroke="#000000" stroke-width="1.0" d="M 595.247927875489, 261.0L606.3229572024147, 261.0"/>
<path fill="none" stroke="#000000" stroke-width="1.0" d="M 638.8000000000003, 261.0L643.3671814893281, 261.0"/>
<path fill="none" stroke="#000000" stroke-width="1.0" d="M 659.5099022445622, 261.0L677.4631115069665, 261.0"/>
<path fill="none" stroke="#000000" stroke-width="1.0" d="M 681.7882554991186, 261.0L883.6358631371745, 261.0"/>
<path fill="none" stroke="#000000" stroke-width="1.0" d="M 586.4008186413021, 267.0L596.0766821341022, 267.0"/>
<path fill="none" stroke="#000000" stroke-width="1.0" d="M 602.5899332765612, 267.0L611.9980773248878, 267.0"/>
<path fill="none" stroke="#000000" stroke-width="1.0" d="M 637.4571394895772, 267.0L645.5841752078175, 267.0"/>
<path fill="none" stroke="#000000" stroke-width="1.0" d="M 660.4176490054581, 267.0L679.5267381473022, 267.0"/>
<path fill="none" stroke="#000000" stroke-width="1.0" d="M 684.9542457974856, 267.0L880.4679901743602, 267.0"/>
<path fill="none" stroke="#000000" stroke-width="1.0" d="M 577.6947626267431, 273.0L582.9999999999999, 273.0"/>
<path fill="none" stroke="#000000" stroke-width="1.0" d="M 592.3115187546574, 273.0L604.3305456517061, 273.0"/>
<path fill="none" stroke="#000000" stroke-width="1.0" d="M 607.848630629692, 273.0L617.9172316377513, 273.0"/>
<path fill="none" stroke="#000000" stroke-width="1.0" d="M 638.7286995297088, 273.0L645.9728559286541, 273.0"/>
<path fill="none" stroke="#000000" stroke-width="1.0" d="M 661.5759290152221, 273.0L681.8551596306554, 273.0"/>
<path fill="none" stroke="#000000" stroke-width="1.0" d="M 688.925888544154, 273.0L878.3350293965855, 273.0"/>
<path fill="none" stroke="#000000" stroke-width="1.0" d="M 581.4820570128485, 279.0L588.9999999999998, 279.0"/>
<path fill="none" stroke="#000000" stroke-width="1.0" d="M 598.2963375753934, 279.0L624.11281173623, 279.0"/>
<path fill="none" stroke="#000000" stroke-width="1.0" d="M 638.433601200536, 279.0L646.1493613853099, 279.0"/>
<path fill="none" stroke="#000000" stroke-width="1.0" d="M 662.7455383890434, 279.0L685.8765357649868, 279.0"/>
<path fill="none" stroke="#000000" stroke-width="1.0" d="M 689.6834168447039, 279.0L875.6330701626581, 279.0"/>
<path fill="none" stroke="#000000" stroke-width="1.0" d="M 585.786215593075, 285.0L645.7293308981007, 285.0"/>
<path fill="none" stroke="#000000" stroke-width="1.0" d="M 662.5343349800037, 285.0L687.8397112736752, 285.0"/>
<path fill="none" stroke="#000000" stroke-width="1.0" d="M 692.0801775205632, 285.0L872.1996433705162, 285.0"/>
<path fill="none" stroke="#000000" stroke-width="1.0" d="M 593.6641379028442, 291.0L644.2074074074078, 291.0"/>
<path fill="none" stroke="#000000" stroke-width="1.0" d="M 663.6936038555293, 291.0L690.0895668137374, 291.0"/>
<path fill="none" stroke="#000000" stroke-width="1.0" d="M 694.5081992840103, 291.0L869.7892034512292, 291.0"/>
<path fill="none" stroke="#000000" stroke-width="1.0" d="M 474.45125641415996, 297.0L500.38068423000146, 297.0"/>
<path fill="none" stroke="#000000" stroke-width="1.0" d="M 575.6, 297.0L584.690988294712, 297.0"/>
<path fill="none" stroke="#000000" stroke-width="1.0" d="M 598.7135328004914, 297.0L642.7786570943598, 297.0"/>
<path fill="none" stroke="#000000" stroke-width="1.0" d="M 664.4964578184862, 297.0L692.6440437216738, 297.0"/>
<path fill="none" stroke="#000000" stroke-width="1.0" d="M 696.6636991784251, 297.0L867.9261895794957, 297.0"/>
<path fill="none" stroke="#000000" stroke-width="1.0" d="M 450.8756543906095, 303.0L510.6566036279092, 303.0"/>
<path fill="none" stroke="#000000" stroke-width="1.0" d="M 580.9838051339963, 303.0L643.0116681449563, 303.0"/>
<path fill="none" stroke="#000000" stroke-width="1.0" d="M 666.0440588130821, 303.0L695.9694964297815, 303.0"/>
<path fill="none" stroke="#000000" stroke-width="1.0" d="M 726.9106152834497, 303.0L865.8807387270049, 303.0"/>
<path fill="none" stroke="#000000" stroke-width="1.0" d="M 438.42986236859235, 309.0L514.2569318570091, 309.0"/>
<path fill="none" stroke="#000000" stroke-width="1.0" d="M 594.9672285991664, 309.0L644.7667409648888, 309.0"/>
<path fill="none" stroke="#000000" stroke-width="1.0" d="M 667.0499582116033, 309.0L697.7488337546159, 309.0"/>
<path fill="none" stroke="#000000" stroke-width="1.0" d="M 738.3152610286634, 309.0L863.2133304725254, 309.0"/>
<path fill="none" stroke="#000000" stroke-width="1.0" d="M 438.00060909037495, 315.0L468.295132781803, 315.0"/>
<path fill="none" stroke="#000000" stroke-width="1.0" d="M 489.8394489974704, 315.0L520.1348875877543, 315.0"/>
<path fill="none" stroke="#000000" stroke-width="1.0" d="M 612.9813797105305, 315.0L646.8026741713823, 315.0"/>
<path fill="none" stroke="#000000" stroke-width="1.0" d="M 667.890004730501, 315.0L699.9607841698298, 315.0"/>
<path fill="none" stroke="#000000" stroke-width="1.0" d="M 744.4858152588797, 315.0L860.3304883538681, 315.0"/>
<path fill="none" stroke="#000000" stroke-width="1.0" d="M 440.1939404739387, 321.0L465.3092387613411, 321.0"/>
<path fill="none" stroke="#000000" stroke-width="1.0" d="M 495.3369087472266, 321.0L526.068862639985, 321.0"/>
<path fill="none" stroke="#000000" stroke-width="1.0" d="M 560.9843729704382, 321.0L595.4849596458295, 321.0"/>
<path fill="none" stroke="#000000" stroke-width="1.0" d="M 618.3555178523719, 321.0L648.973254239648, 321.0"/>
<path fill="none" stroke="#000000" stroke-width="1.0" d="M 668.9036458022138, 321.0L704.1787232613035, 321.0"/>
<path fill="none" stroke="#000000" stroke-width="1.0" d="M 748.5412829187051, 321.0L857.7665351731565, 321.0"/>
<path fill="none" stroke="#000000" stroke-width="1.0" d="M 441.4365035400656, 327.0L459.0379717730102, 327.0"/>
<path fill="none" stroke="#000000" stroke-width="1.0" d="M 498.2390566405286, 327.0L532.0715390978671, 327.0"/>
<path fill="none" stroke="#000000" stroke-width="1.0" d="M 551.025817968832, 327.0L603.6674790259231, 327.0"/>
<path fill="none" stroke="#000000" stroke-width="1.0" d="M 619.6208749189384, 327.0L650.8523003137639, 327.0"/>
<path fill="none" stroke="#000000" stroke-width="1.0" d="M 670.1011740331435, 327.0L710.9499793117144, 327.0"/>
<path fill="none" stroke="#000000" stroke-width="1.0" d="M 750.6937510838794, 327.0L855.9753798826462, 327.0"/>
<path fill="none" stroke="#000000" stroke-width="1.0" d="M 441.18287549627036, 333.0L453.57368173068744, 333.0"/>
<path fill="none" stroke="#000000" stroke-width="1.0" d="M 502.56668723941016, 333.0L574.216576269884, 333.0"/>
<path fill="none" stroke="#000000" stroke-width="1.0" d="M 579.987697731294, 333.0L611.7585707924845, 333.0"/>
<path fill="none" stroke="#000000" stroke-width="1.0" d="M 622.9213764324203, 333.0L654.4284658459565, 333.0"/>
<path fill="none" stroke="#000000" stroke-width="1.0" d="M 671.5016071855941, 333.0L854.7837956099519, 333.0"/>
<path fill="none" stroke="#000000" stroke-width="1.0" d="M 441.7216957582657, 339.0L454.38955827881966, 339.0"/>
<path fill="none" stroke="#000000" stroke-width="1.0" d="M 505.46593520693136, 339.0L561.7640261006953, 339.0"/>
<path fill="none" stroke="#000000" stroke-width="1.0" d="M 594.4028544204446, 339.0L658.5098383693356, 339.0"/>
<path fill="none" stroke="#000000" stroke-width="1.0" d="M 671.5849005229793, 339.0L853.5911664572462, 339.0"/>
<path fill="none" stroke="#000000" stroke-width="1.0" d="M 439.33331747531395, 345.0L456.383559267004, 345.0"/>
<path fill="none" stroke="#000000" stroke-width="1.0" d="M 515.6453773042193, 345.0L543.1299120064856, 345.0"/>
<path fill="none" stroke="#000000" stroke-width="1.0" d="M 602.1581735982833, 345.0L663.5221389104876, 345.0"/>
<path fill="none" stroke="#000000" stroke-width="1.0" d="M 673.2039444632583, 345.0L851.3448578751701, 345.0"/>
<path fill="none" stroke="#000000" stroke-width="1.0" d="M 421.44932386534936, 351.0L456.7069908638742, 351.0"/>
<path fill="none" stroke="#000000" stroke-width="1.0" d="M 609.6774127564489, 351.0L669.4765573699682, 351.0"/>
<path fill="none" stroke="#000000" stroke-width="1.0" d="M 675.4276916443267, 351.0L849.2284883575603, 351.0"/>
<path fill="none" stroke="#000000" stroke-width="1.0" d="M 416.121012215218, 357.0L454.56846467004556, 357.0"/>
<path fill="none" stroke="#000000" stroke-width="1.0" d="M 617.2385354295561, 357.0L676.5827878919002, 357.0"/>
<path fill="none" stroke="#000000" stroke-width="1.0" d="M 678.0228304675949, 357.0L847.5220261041836, 357.0"/>
<path fill="none" stroke="#000000" stroke-width="1.0" d="M 406.31247615463894, 363.0L453.1323420873201, 363.0"/>
<path fill="none" stroke="#000000" stroke-width="1.0" d="M 626.9395767970386, 363.0L845.7677185546715, 363.0"/>
<path fill="none" stroke="#000000" stroke-width="1.0" d="M 375.06165849469517, 369.0L426.3525973751657, 369.0"/>
<path fill="none" stroke="#000000" stroke-width="1.0" d="M 437.0444838744029, 369.0L448.037768326519, 369.0"/>
<path fill="none" stroke="#000000" stroke-width="1.0" d="M 634.309755378889, 369.0L843.6317746006969, 369.0"/>
<path fill="none" stroke="#000000" stroke-width="1.0" d="M 372.7190940073853, 375.0L418.13257463599757, 375.0"/>
<path fill="none" stroke="#000000" stroke-width="1.0" d="M 640.2044095444819, 375.0L841.2037927752494, 375.0"/>
<path fill="none" stroke="#000000" stroke-width="1.0" d="M 374.99726924361624, 381.0L412.0490597691851, 381.0"/>
<path fill="none" stroke="#000000" stroke-width="1.0" d="M 642.367073377429, 381.0L839.8103803779795, 381.0"/>
<path fill="none" stroke="#000000" stroke-width="1.0" d="M 391.90867486603895, 387.0L395.08115765661086, 387.0"/>
<path fill="none" stroke="#000000" stroke-width="1.0" d="M 642.6401037434198, 387.0L839.7084400808174, 387.0"/>
<path fill="none" stroke="#000000" stroke-width="1.0" d="M 638.125965737896, 393.0L651.0390246386222, 393.0"/>
<path fill="none" stroke="#000000" stroke-width="1.0" d="M 657.5245108487632, 393.0L838.2126560260807, 393.0"/>
<path fill="none" stroke="#000000" stroke-width="1.0" d="M 632.7257075777247, 399.0L647.8268270125682, 399.0"/>
<path fill="none" stroke="#000000" stroke-width="1.0" d="M 655.4972084982855, 399.0L836.4391268862839, 399.0"/>
<path fill="none" stroke="#000000" stroke-width="1.0" d="M 627.0179964197928, 405.0L641.7225087539516, 405.0"/>
<path fill="none" stroke="#000000" stroke-width="1.0" d="M 652.1352719281209, 405.0L833.1736840681862, 405.0"/>
<path fill="none" stroke="#000000" stroke-width="1.0" d="M 623.5398270070318, 411.0L635.740995080409, 411.0"/>
<path fill="none" stroke="#000000" stroke-width="1.0" d="M 646.6407345185071, 411.0L828.9612953968256, 411.0"/>
<path fill="none" stroke="#000000" stroke-width="1.0" d="M 619.5987745709016, 417.0L630.6285191063566, 417.0"/>
<path fill="none" stroke="#000000" stroke-width="1.0" d="M 641.4468158092847, 417.0L825.6921220192269, 417.0"/>
<path fill="none" stroke="#000000" stroke-width="1.0" d="M 614.9340682220605, 423.0L626.1804804716497, 423.0"/>
<path fill="none" stroke="#000000" stroke-width="1.0" d="M 637.0066078310848, 423.0L824.5119109701925, 423.0"/>
<path fill="none" stroke="#000000" stroke-width="1.0" d="M 610.8681645671694, 429.0L622.0947465566302, 429.0"/>
<path fill="none" stroke="#000000" stroke-width="1.0" d="M 632.979407382768, 429.0L822.3604421077126, 429.0"/>
<path fill="none" stroke="#000000" stroke-width="1.0" d="M 606.9876542241473, 435.0L617.2874077348284, 435.0"/>
<path fill="none" stroke="#000000" stroke-width="1.0" d="M 629.5140237642164, 435.0L820.350002165875, 435.0"/>
<path fill="none" stroke="#000000" stroke-width="1.0" d="M 603.6380011544193, 441.0L614.3848005236722, 441.0"/>
<path fill="none" stroke="#000000" stroke-width="1.0" d="M 626.4475570253876, 441.0L818.7017904387988, 441.0"/>
<path fill="none" stroke="#000000" stroke-width="1.0" d="M 601.0537117080656, 447.0L612.2780671470532, 447.0"/>
<path fill="none" stroke="#000000" stroke-width="1.0" d="M 623.1124793578989, 447.0L816.3936939190673, 447.0"/>
<path fill="none" stroke="#000000" stroke-width="1.0" d="M 598.8591421461414, 453.0L608.8640227148214, 453.0"/>
<path fill="none" stroke="#000000" stroke-width="1.0" d="M 619.6768139739249, 453.0L811.9632220260379, 453.0"/>
<path fill="none" stroke="#000000" stroke-width="1.0" d="M 596.9618011214116, 459.0L609.7131250970116, 459.0"/>
<path fill="none" stroke="#000000" stroke-width="1.0" d="M 616.4041347201668, 459.0L809.4862939345802, 459.0"/>
<path fill="none" stroke="#000000" stroke-width="1.0" d="M 595.759421952401, 465.0L608.4995604339866, 465.0"/>
<path fill="none" stroke="#000000" stroke-width="1.0" d="M 614.9524749306393, 465.0L806.0525629672118, 465.0"/>
<path fill="none" stroke="#000000" stroke-width="1.0" d="M 595.4902851042901, 471.0L802.4178240700903, 471.0"/>
<path fill="none" stroke="#000000" stroke-width="1.0" d="M 595.7556234690791, 477.0L798.6163676488848, 477.0"/>
<path fill="none" stroke="#000000" stroke-width="1.0" d="M 596.9449825672502, 483.0L792.8525057022815, 483.0"/>
<path fill="none" stroke="#000000" stroke-width="1.0" d="M 534.200000000001, 489.0L556.0268163968519, 489.0"/>
<path fill="none" stroke="#000000" stroke-width="1.0" d="M 600.0197905121545, 489.0L790.2803139738434, 489.0"/>
<path fill="none" stroke="#000000" stroke-width="1.0" d="M 530.5536387073673, 495.0L565.5239310637677, 495.0"/>
<path fill="none" stroke="#000000" stroke-width="1.0" d="M 605.4922678852414, 495.0L785.6205563456754, 495.0"/>
<path fill="none" stroke="#000000" stroke-width="1.0" d="M 527.7025037235143, 501.0L577.7339282849109, 501.0"/>
<path fill="none" stroke="#000000" stroke-width="1.0" d="M 607.9219274621614, 501.0L780.1338521215197, 501.0"/>
<path fill="none" stroke="#000000" stroke-width="1.0" d="M 524.892958817062, 507.0L590.1563748589552, 507.0"/>
<path fill="none" stroke="#000000" stroke-width="1.0" d="M 606.2195253603495, 507.0L774.916973013255, 507.0"/>
<path fill="none" stroke="#000000" stroke-width="1.0" d="M 523.1260851513815, 513.0L599.1351150383183, 513.0"/>
<path fill="none" stroke="#000000" stroke-width="1.0" d="M 605.5980275401288, 513.0L770.6701353836659, 513.0"/>
<path fill="none" stroke="#000000" stroke-width="1.0" d="M 517.8694574826721, 519.0L766.9516569051625, 519.0"/>
<path fill="none" stroke="#000000" stroke-width="1.0" d="M 512.3874372885045, 525.0L763.3587870576058, 525.0"/>
<path fill="none" stroke="#000000" stroke-width="1.0" d="M 506.98716452761624, 531.0L759.7423675208055, 531.0"/>
<path fill="none" stroke="#000000" stroke-width="1.0" d="M 419.00311312510775, 537.0L425.0653812770317, 537.0"/>
<path fill="none" stroke="#000000" stroke-width="1.0" d="M 501.5900441220473, 537.0L755.9874380833335, 537.0"/>
<path fill="none" stroke="#000000" stroke-width="1.0" d="M 413.7657445352709, 543.0L431.62834916382724, 543.0"/>
<path fill="none" stroke="#000000" stroke-width="1.0" d="M 496.1178006772302, 543.0L750.9287898282516, 543.0"/>
<path fill="none" stroke="#000000" stroke-width="1.0" d="M 413.44074159492044, 549.0L436.1162976394586, 549.0"/>
<path fill="none" stroke="#000000" stroke-width="1.0" d="M 490.31883164937005, 549.0L563.0633414844979, 549.0"/>
<path fill="none" stroke="#000000" stroke-width="1.0" d="M 564.0423133965003, 549.0L746.6052908306652, 549.0"/>
<path fill="none" stroke="#000000" stroke-width="1.0" d="M 411.43410365896153, 555.0L441.90288420859986, 555.0"/>
<path fill="none" stroke="#000000" stroke-width="1.0" d="M 484.1749905647288, 555.0L558.2903142736794, 555.0"/>
<path fill="none" stroke="#000000" stroke-width="1.0" d="M 570.2499116598965, 555.0L741.9317072838968, 555.0"/>
<path fill="none" stroke="#000000" stroke-width="1.0" d="M 413.98988781991125, 561.0L450.33152777990006, 561.0"/>
<path fill="none" stroke="#000000" stroke-width="1.0" d="M 478.2335192308614, 561.0L516.8010726707557, 561.0"/>
<path fill="none" stroke="#000000" stroke-width="1.0" d="M 524.573671166056, 561.0L555.2525611326103, 561.0"/>
<path fill="none" stroke="#000000" stroke-width="1.0" d="M 574.4897183558047, 561.0L736.4237368080549, 561.0"/>
<path fill="none" stroke="#000000" stroke-width="1.0" d="M 421.02454732208173, 567.0L510.72321037943755, 567.0"/>
<path fill="none" stroke="#000000" stroke-width="1.0" d="M 525.9287952471409, 567.0L553.8974610544484, 567.0"/>
<path fill="none" stroke="#000000" stroke-width="1.0" d="M 577.4050307346262, 567.0L730.2654865053614, 567.0"/>
<path fill="none" stroke="#000000" stroke-width="1.0" d="M 426.59560979017436, 573.0L504.7137551864366, 573.0"/>
<path fill="none" stroke="#000000" stroke-width="1.0" d="M 526.5915053445929, 573.0L552.7978344189195, 573.0"/>
<path fill="none" stroke="#000000" stroke-width="1.0" d="M 580.4915576358012, 573.0L724.2241934279045, 573.0"/>
<path fill="none" stroke="#000000" stroke-width="1.0" d="M 432.0691021439822, 579.0L498.74310265311004, 579.0"/>
<path fill="none" stroke="#000000" stroke-width="1.0" d="M 527.0435545133358, 579.0L551.9854301383423, 579.0"/>
<path fill="none" stroke="#000000" stroke-width="1.0" d="M 583.815265679745, 579.0L718.2482185991678, 579.0"/>
<path fill="none" stroke="#000000" stroke-width="1.0" d="M 437.5267490362012, 585.0L492.78163772170353, 585.0"/>
<path fill="none" stroke="#000000" stroke-width="1.0" d="M 527.4832075343625, 585.0L551.5384337860697, 585.0"/>
<path fill="none" stroke="#000000" stroke-width="1.0" d="M 587.7412552151001, 585.0L712.2896938782062, 585.0"/>
<path fill="none" stroke="#000000" stroke-width="1.0" d="M 439.75923116229785, 591.0L486.82625234286246, 591.0"/>
<path fill="none" stroke="#000000" stroke-width="1.0" d="M 527.9839968402596, 591.0L551.3173600315304, 591.0"/>
<path fill="none" stroke="#000000" stroke-width="1.0" d="M 592.7507728367174, 591.0L706.3013774639244, 591.0"/>
<path fill="none" stroke="#000000" stroke-width="1.0" d="M 445.61742124904004, 597.0L491.20277069363016, 597.0"/>
<path fill="none" stroke="#000000" stroke-width="1.0" d="M 526.83574971067, 597.0L550.9099069218775, 597.0"/>
<path fill="none" stroke="#000000" stroke-width="1.0" d="M 599.3174384556908, 597.0L700.2348989332047, 597.0"/>
<path fill="none" stroke="#000000" stroke-width="1.0" d="M 452.00516435440016, 603.0L550.5597290120904, 603.0"/>
<path fill="none" stroke="#000000" stroke-width="1.0" d="M 606.8653135515062, 603.0L694.0388835583113, 603.0"/>
<path fill="none" stroke="#000000" stroke-width="1.0" d="M 471.70360986187507, 609.0L550.6236652518071, 609.0"/>
<path fill="none" stroke="#000000" stroke-width="1.0" d="M 614.8362324247043, 609.0L687.42105341049, 609.0"/>
<path fill="none" stroke="#000000" stroke-width="1.0" d="M 474.13294807042075, 615.0L552.6481161532943, 615.0"/>
<path fill="none" stroke="#000000" stroke-width="1.0" d="M 623.8296672192499, 615.0L680.183531630421, 615.0"/>
<path fill="none" stroke="#000000" stroke-width="1.0" d="M 479.93785453088697, 621.0L553.9252946001391, 621.0"/>
<path fill="none" stroke="#000000" stroke-width="1.0" d="M 635.5375432466933, 621.0L672.7177429301271, 621.0"/>
<path fill="none" stroke="#000000" stroke-width="1.0" d="M 491.6576583648315, 627.0L552.1733234715308, 627.0"/>
<path fill="none" stroke="#000000" stroke-width="1.0" d="M 649.4581410800789, 627.0L659.6224104257927, 627.0"/>
<path fill="none" stroke="#000000" stroke-width="1.0" d="M 509.42160000000007, 633.0L550.3262705402475, 633.0"/>
</g>
</svg>