<?xml version="1.0" encoding="utf-8"?>
<!-- Generator: Adobe Illustrator 22.1.0, SVG Export Plug-In . SVG Version: 6.00 Build 0)  -->
<svg version="1.1" baseProfile="tiny" id="Layer_1" xmlns="http://www.w3.org/2000/svg" xmlns:xlink="http://www.w3.org/1999/xlink"
	 x="0px" y="0px" viewBox="0 0 1280 720" xml:space="preserve">
	<path fill="#FFFFFF" d="M640,719.5c-48.5,0-95.6-9.5-139.9-28.3c-42.8-18.1-81.3-44-114.3-77c-33-33-58.9-71.5-77-114.3
		c-18.7-44.3-28.3-91.4-28.3-139.9s9.5-95.6,28.3-139.9c18.1-42.8,44-81.3,77-114.3c33-33,71.5-58.9,114.3-77
		C544.4,10,591.5,0.5,640,0.5s95.6,9.5,139.9,28.3c42.8,18.1,81.3,44,114.3,77c33,33,58.9,71.5,77,114.3
		c18.7,44.3,28.3,91.4,28.3,139.9s-9.5,95.6-28.3,139.9c-18.1,42.8-44,81.3-77,114.3c-33,33-71.5,58.9-114.3,77
		C735.6,710,688.5,719.5,640,719.5z"/>

</svg>
