<?xml version="1.0" encoding="utf-8"?>
<!DOCTYPE svg PUBLIC "-//W3C//DTD SVG 1.1 Tiny//EN" "http://www.w3.org/Graphics/SVG/1.1/DTD/svg11-tiny.dtd">
<svg version="1.1" baseProfile="tiny" id="openrndr-svg" xmlns="http://www.w3.org/2000/svg" xmlns:xlink="http://www.w3.org/1999/xlink" x="0px" y="0px" width="1280px" height="720px"><g >
<path fill="none" stroke="#000000" stroke-width="1.0" d="M 479.77213114754124, 24.0L529.5881980025902, 24.0"/>
<path fill="none" stroke="#000000" stroke-width="1.0" d="M 481.07844311377255, 72.0L496.757005988024, 72.0"/>
<path fill="none" stroke="#000000" stroke-width="1.0" d="M 489.43200753536144, 120.0L505.73704535732935, 120.0"/>
<path fill="none" stroke="#000000" stroke-width="1.0" d="M 593.8848922724413, 24.0L610.0094963986655, 24.0"/>
<path fill="none" stroke="#000000" stroke-width="1.0" d="M 668.5141854931576, 24.0L685.3642943587298, 24.0"/>
<path fill="none" stroke="#000000" stroke-width="1.0" d="M 593.4587301587302, 72.0L609.0105263157895, 72.0"/>
<path fill="none" stroke="#000000" stroke-width="1.0" d="M 668.4280701754386, 72.0L684.0825396825397, 72.0"/>
<path fill="none" stroke="#000000" stroke-width="1.0" d="M 577.3448979591838, 120.0L624.061224489796, 120.0"/>
<path fill="none" stroke="#000000" stroke-width="1.0" d="M 651.269387755102, 120.0L698.9857142857143, 120.0"/>
<path fill="none" stroke="#000000" stroke-width="1.0" d="M 755.4555286494976, 24.0L787.2829787234044, 24.0"/>
<path fill="none" stroke="#000000" stroke-width="1.0" d="M 755.1439169139467, 72.0L771.1475324675325, 72.0"/>
<path fill="none" stroke="#000000" stroke-width="1.0" d="M 805.4198386074875, 72.0L811.940243902439, 72.0"/>
<path fill="none" stroke="#000000" stroke-width="1.0" d="M 745.0737364257727, 120.0L763.0708358280419, 120.0"/>
<path fill="none" stroke="#000000" stroke-width="1.0" d="M 814.0493838422681, 120.0L820.7224774615459, 120.0"/>
<path fill="none" stroke="#000000" stroke-width="1.0" d="M 261.03369731950517, 264.0L278.89933890787177, 264.0"/>
<path fill="none" stroke="#000000" stroke-width="1.0" d="M 238.97420552267445, 312.0L311.4258854571854, 312.0"/>
<path fill="none" stroke="#000000" stroke-width="1.0" d="M 265.3806522989802, 360.0L273.54399625449514, 360.0"/>
<path fill="none" stroke="#000000" stroke-width="1.0" d="M 314.58354382608576, 360.0L322.3824436829573, 360.0"/>
<path fill="none" stroke="#000000" stroke-width="1.0" d="M 363.4308316183026, 216.0L374.26765820594477, 216.0"/>
<path fill="none" stroke="#000000" stroke-width="1.0" d="M 415.99643211032884, 216.0L441.5330311590345, 216.0"/>
<path fill="none" stroke="#000000" stroke-width="1.0" d="M 343.6652696733645, 264.0L361.1060530751142, 264.0"/>
<path fill="none" stroke="#000000" stroke-width="1.0" d="M 444.59044030881, 264.0L460.72179885042544, 264.0"/>
<path fill="none" stroke="#000000" stroke-width="1.0" d="M 372.15108415712984, 312.0L430.3152572321958, 312.0"/>
<path fill="none" stroke="#000000" stroke-width="1.0" d="M 567.4058823529414, 168.0L601.3914041577316, 168.0"/>
<path fill="none" stroke="#000000" stroke-width="1.0" d="M 509.5404761904765, 216.0L525.3132812500003, 216.0"/>
<path fill="none" stroke="#000000" stroke-width="1.0" d="M 591.7242424242427, 216.0L599.243165467626, 216.0"/>
<path fill="none" stroke="#000000" stroke-width="1.0" d="M 519.7837474484027, 264.0L540.0355828184748, 264.0"/>
<path fill="none" stroke="#000000" stroke-width="1.0" d="M 582.7810869452245, 264.0L593.159044814121, 264.0"/>
<path fill="none" stroke="#000000" stroke-width="1.0" d="M 665.6338391317814, 168.0L687.1904458598727, 168.0"/>
<path fill="none" stroke="#000000" stroke-width="1.0" d="M 670.4294117647061, 216.0L677.8640845070423, 216.0"/>
<path fill="none" stroke="#000000" stroke-width="1.0" d="M 700.2390070921986, 216.0L719.0885350318473, 216.0"/>
<path fill="none" stroke="#000000" stroke-width="1.0" d="M 752.2595017333471, 216.0L759.6717134631077, 216.0"/>
<path fill="none" stroke="#000000" stroke-width="1.0" d="M 661.8875435384178, 264.0L674.3902732632023, 264.0"/>
<path fill="none" stroke="#000000" stroke-width="1.0" d="M 731.4122593718339, 264.0L753.9898843930637, 264.0"/>
<path fill="none" stroke="#000000" stroke-width="1.0" d="M 838.0758513931887, 216.0L854.8, 216.0"/>
<path fill="none" stroke="#000000" stroke-width="1.0" d="M 886.4995312476444, 216.0L900.7616652600493, 216.0"/>
<path fill="none" stroke="#000000" stroke-width="1.0" d="M 820.094427244582, 264.0L836.8359281437126, 264.0"/>
<path fill="none" stroke="#000000" stroke-width="1.0" d="M 906.8496240308734, 264.0L925.1915268854581, 264.0"/>
<path fill="none" stroke="#000000" stroke-width="1.0" d="M 843.8971113585503, 312.0L888.1080068158219, 312.0"/>
<path fill="none" stroke="#000000" stroke-width="1.0" d="M 974.71710095545, 312.0L993.5522273254128, 312.0"/>
<path fill="none" stroke="#000000" stroke-width="1.0" d="M 942.0502842368976, 360.0L952.7872426919239, 360.0"/>
<path fill="none" stroke="#000000" stroke-width="1.0" d="M 985.6590785367866, 360.0L1003.8180094492157, 360.0"/>
<path fill="none" stroke="#000000" stroke-width="1.0" d="M 328.24939759036147, 600.0L336.7937954367761, 600.0"/>
<path fill="none" stroke="#000000" stroke-width="1.0" d="M 331.58605664488005, 648.0L363.0272727272727, 648.0"/>
<path fill="none" stroke="#000000" stroke-width="1.0" d="M 420.50000000000006, 648.0L433.66013054742626, 648.0"/>
<path fill="none" stroke="#000000" stroke-width="1.0" d="M 381.1900727606202, 696.0L393.2495253164557, 696.0"/>
<path fill="none" stroke="#000000" stroke-width="1.0" d="M 457.33684210526314, 504.0L462.21882200011567, 504.0"/>
<path fill="none" stroke="#000000" stroke-width="1.0" d="M 458.0650256410256, 552.0L464.74901779943093, 552.0"/>
<path fill="none" stroke="#000000" stroke-width="1.0" d="M 488.19848942598185, 552.0L510.54734280764757, 552.0"/>
<path fill="none" stroke="#000000" stroke-width="1.0" d="M 460.82194871794866, 600.0L469.222358118634, 600.0"/>
<path fill="none" stroke="#000000" stroke-width="1.0" d="M 516.2733333333333, 600.0L521.9588235294119, 600.0"/>
<path fill="none" stroke="#000000" stroke-width="1.0" d="M 591.8591895803182, 504.0L607.2046948356808, 504.0"/>
<path fill="none" stroke="#000000" stroke-width="1.0" d="M 643.245322644609, 504.0L659.4497863436976, 504.0"/>
<path fill="none" stroke="#000000" stroke-width="1.0" d="M 593.04008683068, 552.0L608.3430147058823, 552.0"/>
<path fill="none" stroke="#000000" stroke-width="1.0" d="M 637.598452533281, 552.0L657.1115131683243, 552.0"/>
<path fill="none" stroke="#000000" stroke-width="1.0" d="M 764.6552763819096, 504.0L781.0628140703518, 504.0"/>
<path fill="none" stroke="#000000" stroke-width="1.0" d="M 790.6142857142856, 504.0L808.9600000000005, 504.0"/>
<path fill="none" stroke="#000000" stroke-width="1.0" d="M 819.9222975653653, 504.0L821.3500000000004, 504.0"/>
<path fill="none" stroke="#000000" stroke-width="1.0" d="M 747.0472361809045, 552.0L763.4547738693467, 552.0"/>
<path fill="none" stroke="#000000" stroke-width="1.0" d="M 743.8901734104045, 600.0L759.5969320810866, 600.0"/>
<path fill="none" stroke="#000000" stroke-width="1.0" d="M 883.3831162192289, 552.0L891.0201834862385, 552.0"/>
<path fill="none" stroke="#000000" stroke-width="1.0" d="M 852.4144602851323, 600.0L874.18730964467, 600.0"/>
<path fill="none" stroke="#000000" stroke-width="1.0" d="M 936.6999999999998, 600.0L939.103658536585, 600.0"/>
<path fill="none" stroke="#000000" stroke-width="1.0" d="M 828.0367781155014, 648.0L836.6381845340156, 648.0"/>
<path fill="none" stroke="#000000" stroke-width="1.0" d="M 907.1959523809522, 648.0L932.5743902439026, 648.0"/>
<path fill="none" stroke="#000000" stroke-width="1.0" d="M 876.1543026706232, 696.0L888.1081415709382, 696.0"/>
<path fill="none" stroke="#000000" stroke-width="1.0" d="M 537.2134030050742, 360.0L550.0091437866103, 360.0"/>
<path fill="none" stroke="#000000" stroke-width="1.0" d="M 611.6472763086206, 360.0L628.4754687057302, 360.0"/>
<path fill="none" stroke="#000000" stroke-width="1.0" d="M 539.1125534748434, 408.0L556.557656214622, 408.0"/>
<path fill="none" stroke="#000000" stroke-width="1.0" d="M 613.578227780647, 408.0L625.8453993720898, 408.0"/>
<path fill="none" stroke="#000000" stroke-width="1.0" d="M 684.0694827586206, 360.0L697.6547550432275, 360.0"/>
<path fill="none" stroke="#000000" stroke-width="1.0" d="M 734.7760626898103, 360.0L739.6948917322072, 360.0"/>
<path fill="none" stroke="#000000" stroke-width="1.0" d="M 677.5315517241379, 408.0L691.0927756653992, 408.0"/>
</g>
</svg>