<?xml version="1.0" encoding="utf-8"?>
<!DOCTYPE svg PUBLIC "-//W3C//DTD SVG 1.1 Tiny//EN" "http://www.w3.org/Graphics/SVG/1.1/DTD/svg11-tiny.dtd">
<svg version="1.1" baseProfile="tiny" id="openrndr-svg" xmlns="http://www.w3.org/2000/svg" xmlns:xlink="http://www.w3.org/1999/xlink" x="0px" y="0px" width="1280px" height="720px"><g >
<path fill="none" stroke="#000000" stroke-width="1.0" d="M 481.07844311377255, 72.0L496.757005988024, 72.0"/>
<path fill="none" stroke="#000000" stroke-width="1.0" d="M 593.4587301587302, 72.0L609.0105263157895, 72.0"/>
<path fill="none" stroke="#000000" stroke-width="1.0" d="M 668.4280701754386, 72.0L684.0825396825397, 72.0"/>
<path fill="none" stroke="#000000" stroke-width="1.0" d="M 755.1439169139467, 72.0L771.1475324675325, 72.0"/>
<path fill="none" stroke="#000000" stroke-width="1.0" d="M 805.4198386074875, 72.0L811.940243902439, 72.0"/>
<path fill="none" stroke="#000000" stroke-width="1.0" d="M 265.3806522989802, 360.0L273.54399625449514, 360.0"/>
<path fill="none" stroke="#000000" stroke-width="1.0" d="M 314.58354382608576, 360.0L322.3824436829573, 360.0"/>
<path fill="none" stroke="#000000" stroke-width="1.0" d="M 363.4308316183026, 216.0L374.26765820594477, 216.0"/>
<path fill="none" stroke="#000000" stroke-width="1.0" d="M 415.99643211032884, 216.0L441.5330311590345, 216.0"/>
<path fill="none" stroke="#000000" stroke-width="1.0" d="M 509.5404761904765, 216.0L525.3132812500003, 216.0"/>
<path fill="none" stroke="#000000" stroke-width="1.0" d="M 591.7242424242427, 216.0L599.243165467626, 216.0"/>
<path fill="none" stroke="#000000" stroke-width="1.0" d="M 670.4294117647061, 216.0L677.8640845070423, 216.0"/>
<path fill="none" stroke="#000000" stroke-width="1.0" d="M 700.2390070921986, 216.0L719.0885350318473, 216.0"/>
<path fill="none" stroke="#000000" stroke-width="1.0" d="M 752.2595017333471, 216.0L759.6717134631077, 216.0"/>
<path fill="none" stroke="#000000" stroke-width="1.0" d="M 838.0758513931887, 216.0L854.8, 216.0"/>
<path fill="none" stroke="#000000" stroke-width="1.0" d="M 886.4995312476444, 216.0L900.7616652600493, 216.0"/>
<path fill="none" stroke="#000000" stroke-width="1.0" d="M 942.0502842368976, 360.0L952.7872426919239, 360.0"/>
<path fill="none" stroke="#000000" stroke-width="1.0" d="M 985.6590785367866, 360.0L1003.8180094492157, 360.0"/>
<path fill="none" stroke="#000000" stroke-width="1.0" d="M 331.58605664488005, 648.0L363.0272727272727, 648.0"/>
<path fill="none" stroke="#000000" stroke-width="1.0" d="M 420.50000000000006, 648.0L433.66013054742626, 648.0"/>
<path fill="none" stroke="#000000" stroke-width="1.0" d="M 457.33684210526314, 504.0L462.21882200011567, 504.0"/>
<path fill="none" stroke="#000000" stroke-width="1.0" d="M 591.8591895803182, 504.0L607.2046948356808, 504.0"/>
<path fill="none" stroke="#000000" stroke-width="1.0" d="M 643.245322644609, 504.0L659.4497863436976, 504.0"/>
<path fill="none" stroke="#000000" stroke-width="1.0" d="M 764.6552763819096, 504.0L781.0628140703518, 504.0"/>
<path fill="none" stroke="#000000" stroke-width="1.0" d="M 790.6142857142856, 504.0L808.9600000000005, 504.0"/>
<path fill="none" stroke="#000000" stroke-width="1.0" d="M 819.9222975653653, 504.0L821.3500000000004, 504.0"/>
<path fill="none" stroke="#000000" stroke-width="1.0" d="M 828.0367781155014, 648.0L836.6381845340156, 648.0"/>
<path fill="none" stroke="#000000" stroke-width="1.0" d="M 907.1959523809522, 648.0L932.5743902439026, 648.0"/>
<path fill="none" stroke="#000000" stroke-width="1.0" d="M 537.2134030050742, 360.0L550.0091437866103, 360.0"/>
<path fill="none" stroke="#000000" stroke-width="1.0" d="M 611.6472763086206, 360.0L628.4754687057302, 360.0"/>
<path fill="none" stroke="#000000" stroke-width="1.0" d="M 684.0694827586206, 360.0L697.6547550432275, 360.0"/>
<path fill="none" stroke="#000000" stroke-width="1.0" d="M 734.7760626898103, 360.0L739.6948917322072, 360.0"/>
</g>
</svg>