<?xml version="1.0" encoding="utf-8"?>
<!-- Generator: Adobe Illustrator 22.1.0, SVG Export Plug-In . SVG Version: 6.00 Build 0)  -->
<svg version="1.1" baseProfile="tiny" id="Layer_1" xmlns="http://www.w3.org/2000/svg" xmlns:xlink="http://www.w3.org/1999/xlink"
	 x="0px" y="0px" viewBox="0 0 1280 720" xml:space="preserve">
<g>
	<path d="M587.4,549.2c-0.6,0-1.3,0-2.1,0.1c-4.9,0.4-7,2.9-7.6,5.6h0.1c1.2-1.2,2.8-1.8,5-1.8c3.9,0,7.2,2.8,7.2,7.6
		c0,4.6-3.6,8.5-8.6,8.5c-6.3,0-9.3-4.6-9.3-10.2c0-4.4,1.6-8.1,4.2-10.4c2.3-2.1,5.4-3.2,9-3.4c1-0.1,1.7-0.1,2.2,0V549.2z
		 M584.5,560.9c0-2.2-1.2-4-3.5-4c-1.5,0-2.7,0.9-3.2,2.1c-0.2,0.3-0.3,0.8-0.3,1.4c0.1,2.5,1.3,4.7,3.8,4.7
		C583.2,565.1,584.5,563.3,584.5,560.9z"/>
	<path d="M609.3,545.3v3.5l-9.6,19.9h-5.8l9.6-18.8v-0.1h-10.7v-4.5H609.3z"/>
	<path d="M616.3,556.7c-2.3-1.2-3.4-3.1-3.4-5.1c0-4,3.6-6.6,8.2-6.6c5.5,0,7.7,3.2,7.7,6c0,2-1.1,4-3.4,5.1v0.1
		c2.3,0.9,4.3,2.8,4.3,5.8c0,4.2-3.6,7.1-9,7.1c-5.9,0-8.7-3.3-8.7-6.5C612.1,559.8,613.7,557.9,616.3,556.7L616.3,556.7z
		 M624.2,562.4c0-2.1-1.5-3.3-3.7-3.9c-1.8,0.5-2.8,1.8-2.8,3.5c0,1.7,1.3,3.3,3.3,3.3C622.9,565.3,624.2,564.1,624.2,562.4z
		 M618.1,551.3c0,1.6,1.4,2.6,3.3,3.2c1.3-0.4,2.4-1.5,2.4-3c0-1.5-0.8-2.9-2.8-2.9C619,548.6,618.1,549.9,618.1,551.3z"/>
	<path d="M649.2,545.3v3.5l-9.6,19.9h-5.8l9.6-18.8v-0.1h-10.7v-4.5H649.2z"/>
	<path d="M665.8,558.5L665.8,558.5c0.5-0.8,0.9-1.5,1.3-2.1l3.6-5.3h6.6l-6.3,7.1l7.2,10.5h-6.7l-4.3-7.2l-1.4,1.7v5.5h-5.5v-25.6
		h5.5V558.5z"/>
	<path d="M680.2,556.7c0-2.2-0.1-4-0.1-5.6h4.6l0.2,2.4h0.1c0.8-1.2,2.3-2.8,5.3-2.8c2.3,0,4.1,1.2,4.8,3h0.1
		c0.7-0.9,1.4-1.7,2.3-2.2c1-0.5,2.1-0.9,3.3-0.9c3.4,0,5.9,2.4,5.9,7.7v10.4h-5.3v-9.6c0-2.6-0.8-4-2.6-4c-1.3,0-2.2,0.9-2.6,1.9
		c-0.1,0.4-0.2,0.9-0.2,1.4v10.3h-5.3v-9.9c0-2.2-0.8-3.7-2.6-3.7c-1.4,0-2.2,1.1-2.6,1.9c-0.2,0.4-0.2,0.9-0.2,1.4v10.3h-5.3V556.7
		z"/>
	<path d="M658.2,573.2v-1.8H709v1.8H658.2z"/>
</g>
<g>
</g>
<g>
</g>
<g>
</g>
<g>
</g>
<g>
</g>
<g>
</g>
<g>
</g>
<g>
</g>
<g>
</g>
<g>
</g>
<g>
</g>
<g>
</g>
<g>
</g>
<g>
</g>
<g>
</g>
</svg>
