<?xml version="1.0" encoding="utf-8"?>
<!-- Generator: Adobe Illustrator 22.1.0, SVG Export Plug-In . SVG Version: 6.00 Build 0)  -->
<svg version="1.1" baseProfile="tiny" id="Layer_1" xmlns="http://www.w3.org/2000/svg" xmlns:xlink="http://www.w3.org/1999/xlink"
	 x="0px" y="0px" viewBox="0 0 1280 720" xml:space="preserve">
<g>
	<path d="M1100,297.7L1100,297.7l-2.1-4.5l4.1-0.9l2.9,6.2v4.5h-23.4v-5.3H1100z"/>
	<path d="M1081.4,310.7h3.3l2.7,3c4.6,5.1,7.2,7.6,10,7.7c1.9,0,3.4-1.1,3.4-3.8c0-2-1-3.8-1.9-5l3.9-1.5c1.3,1.7,2.4,4.5,2.4,7.6
		c0,5.3-3.1,8.2-7.3,8.2c-4,0-7.1-2.8-10.1-6.2l-1.8-2.2h-0.1v8.9h-4.5V310.7z"/>
	<path d="M1104.8,347.4h-3.5l-19.9-9.6V332l18.8,9.6h0.1v-10.7h4.5V347.4z"/>
	<path d="M1100.3,366.2v-9.1l-3.6-0.5c0.1,0.5,0.1,0.9,0.1,1.5c0,2.2-0.5,4.5-1.7,6.2c-1.2,1.8-3.1,2.8-5.9,2.8
		c-4.4,0-8.2-3.7-8.2-10c0-2.8,0.6-5.2,1.3-6.5l4.1,1c-0.5,1-1.2,3.1-1.2,5.3c0,2.3,1.1,4.7,3.6,4.7c2.4,0,3.9-1.9,3.9-6.6
		c0-1.3-0.1-2.2-0.2-3.1l12.3,1.5v12.9H1100.3z"/>
	<path d="M1100.9,385.5c0-0.6,0-1.3-0.1-2.1c-0.4-4.9-2.9-7-5.6-7.6v0.1c1.2,1.2,1.8,2.8,1.8,5c0,3.9-2.8,7.2-7.6,7.2
		c-4.6,0-8.5-3.6-8.5-8.6c0-6.3,4.6-9.3,10.2-9.3c4.4,0,8.1,1.6,10.4,4.2c2.1,2.3,3.2,5.4,3.4,9c0.1,1,0.1,1.7,0,2.2H1100.9z
		 M1089.2,382.5c2.2,0,4-1.2,4-3.5c0-1.5-0.9-2.7-2.1-3.2c-0.3-0.2-0.8-0.3-1.4-0.3c-2.5,0.1-4.7,1.3-4.7,3.8
		C1085.1,381.3,1086.8,382.5,1089.2,382.5z"/>
	<path d="M1091.6,404L1091.6,404c0.8,0.5,1.5,0.9,2.1,1.3l5.3,3.6v6.6l-7.1-6.3l-10.5,7.2v-6.7l7.2-4.3l-1.7-1.4h-5.5v-5.5h25.6v5.5
		H1091.6z"/>
	<path d="M1093.4,418.4c2.2,0,4-0.1,5.6-0.1v4.6l-2.4,0.2v0.1c1.2,0.8,2.8,2.3,2.8,5.3c0,2.3-1.2,4.1-3,4.8v0.1
		c0.9,0.7,1.7,1.4,2.2,2.3c0.5,1,0.9,2.1,0.9,3.3c0,3.4-2.4,5.9-7.7,5.9h-10.4v-5.3h9.6c2.6,0,4-0.8,4-2.6c0-1.3-0.9-2.2-1.9-2.6
		c-0.4-0.1-0.9-0.2-1.4-0.2h-10.3v-5.3h9.9c2.2,0,3.7-0.8,3.7-2.6c0-1.4-1.1-2.2-1.9-2.6c-0.4-0.2-0.9-0.2-1.4-0.2h-10.3v-5.3
		H1093.4z"/>
	<path d="M1076.9,396.3h1.8v50.8h-1.8V396.3z"/>
</g>
<g>
</g>
<g>
</g>
<g>
</g>
<g>
</g>
<g>
</g>
<g>
</g>
<g>
</g>
<g>
</g>
<g>
</g>
<g>
</g>
<g>
</g>
<g>
</g>
<g>
</g>
<g>
</g>
<g>
</g>
</svg>
