<?xml version="1.0" encoding="utf-8"?>
<!DOCTYPE svg PUBLIC "-//W3C//DTD SVG 1.1 Tiny//EN" "http://www.w3.org/Graphics/SVG/1.1/DTD/svg11-tiny.dtd">
<svg version="1.1" baseProfile="tiny" id="openrndr-svg" xmlns="http://www.w3.org/2000/svg" xmlns:xlink="http://www.w3.org/1999/xlink" x="0px" y="0px" width="1280px" height="720px"><g >
<path fill="none" stroke="#000000" stroke-width="1.0" d="M 106.0, 72.0L678.1316701642104, 72.0"/>
<path fill="none" stroke="#000000" stroke-width="1.0" d="M 843.3058158453837, 72.0L1174.0, 72.0"/>
<path fill="none" stroke="#000000" stroke-width="1.0" d="M 106.0, 216.0L230.54895520965485, 216.0"/>
<path fill="none" stroke="#000000" stroke-width="1.0" d="M 397.4465776685913, 216.0L660.3064266751011, 216.0"/>
<path fill="none" stroke="#000000" stroke-width="1.0" d="M 911.8078426402888, 216.0L1174.0, 216.0"/>
<path fill="none" stroke="#000000" stroke-width="1.0" d="M 106.0, 360.0L321.861948450043, 360.0"/>
<path fill="none" stroke="#000000" stroke-width="1.0" d="M 373.8303006922975, 360.0L660.174483568827, 360.0"/>
<path fill="none" stroke="#000000" stroke-width="1.0" d="M 748.9587442639908, 360.0L784.8342936273424, 360.0"/>
<path fill="none" stroke="#000000" stroke-width="1.0" d="M 973.7141217766879, 360.0L1174.0, 360.0"/>
<path fill="none" stroke="#000000" stroke-width="1.0" d="M 106.0, 504.0L595.1977057420788, 504.0"/>
<path fill="none" stroke="#000000" stroke-width="1.0" d="M 630.7057691784163, 504.0L824.2271897178374, 504.0"/>
<path fill="none" stroke="#000000" stroke-width="1.0" d="M 995.1693834737813, 504.0L1174.0, 504.0"/>
<path fill="none" stroke="#000000" stroke-width="1.0" d="M 106.0, 648.0L799.8929084881333, 648.0"/>
<path fill="none" stroke="#000000" stroke-width="1.0" d="M 835.9439574089004, 648.0L857.292288763119, 648.0"/>
<path fill="none" stroke="#000000" stroke-width="1.0" d="M 907.9344194080733, 648.0L1174.0, 648.0"/>
</g>
</svg>