<?xml version="1.0" encoding="utf-8"?>
<!DOCTYPE svg PUBLIC "-//W3C//DTD SVG 1.1 Tiny//EN" "http://www.w3.org/Graphics/SVG/1.1/DTD/svg11-tiny.dtd">
<svg version="1.1" baseProfile="tiny" id="openrndr-svg" xmlns="http://www.w3.org/2000/svg" xmlns:xlink="http://www.w3.org/1999/xlink" x="0px" y="0px" width="1280px" height="720px"><g >
<path fill="none" stroke="#000000" stroke-width="1.0" d="M 106.0, 24.0L1174.0, 24.0"/>
<path fill="none" stroke="#000000" stroke-width="1.0" d="M 106.0, 72.0L678.1316701642104, 72.0"/>
<path fill="none" stroke="#000000" stroke-width="1.0" d="M 843.3058158453837, 72.0L1174.0, 72.0"/>
<path fill="none" stroke="#000000" stroke-width="1.0" d="M 106.0, 120.0L269.7441603825225, 120.0"/>
<path fill="none" stroke="#000000" stroke-width="1.0" d="M 422.61753797319466, 120.0L647.4295412374212, 120.0"/>
<path fill="none" stroke="#000000" stroke-width="1.0" d="M 873.0828712190022, 120.0L1174.0, 120.0"/>
<path fill="none" stroke="#000000" stroke-width="1.0" d="M 106.0, 168.0L239.40107712282435, 168.0"/>
<path fill="none" stroke="#000000" stroke-width="1.0" d="M 430.94657120064795, 168.0L640.0384988416258, 168.0"/>
<path fill="none" stroke="#000000" stroke-width="1.0" d="M 887.60498621202, 168.0L1174.0, 168.0"/>
<path fill="none" stroke="#000000" stroke-width="1.0" d="M 106.0, 216.0L230.54895520965485, 216.0"/>
<path fill="none" stroke="#000000" stroke-width="1.0" d="M 397.4465776685913, 216.0L660.3064266751011, 216.0"/>
<path fill="none" stroke="#000000" stroke-width="1.0" d="M 911.8078426402888, 216.0L1174.0, 216.0"/>
<path fill="none" stroke="#000000" stroke-width="1.0" d="M 106.0, 264.0L235.01137437596745, 264.0"/>
<path fill="none" stroke="#000000" stroke-width="1.0" d="M 330.7603187976887, 264.0L358.4404060322385, 264.0"/>
<path fill="none" stroke="#000000" stroke-width="1.0" d="M 427.4597901630382, 264.0L632.3811277011295, 264.0"/>
<path fill="none" stroke="#000000" stroke-width="1.0" d="M 937.4506414175861, 264.0L1174.0, 264.0"/>
<path fill="none" stroke="#000000" stroke-width="1.0" d="M 106.0, 312.0L248.05750194837503, 312.0"/>
<path fill="none" stroke="#000000" stroke-width="1.0" d="M 348.733833450142, 312.0L426.6636917770311, 312.0"/>
<path fill="none" stroke="#000000" stroke-width="1.0" d="M 467.1498764688207, 312.0L718.3117992210399, 312.0"/>
<path fill="none" stroke="#000000" stroke-width="1.0" d="M 768.7382058882665, 312.0L801.8899541182848, 312.0"/>
<path fill="none" stroke="#000000" stroke-width="1.0" d="M 957.8939921416311, 312.0L1174.0, 312.0"/>
<path fill="none" stroke="#000000" stroke-width="1.0" d="M 106.0, 360.0L321.861948450043, 360.0"/>
<path fill="none" stroke="#000000" stroke-width="1.0" d="M 373.8303006922975, 360.0L660.174483568827, 360.0"/>
<path fill="none" stroke="#000000" stroke-width="1.0" d="M 748.9587442639908, 360.0L784.8342936273424, 360.0"/>
<path fill="none" stroke="#000000" stroke-width="1.0" d="M 973.7141217766879, 360.0L1174.0, 360.0"/>
<path fill="none" stroke="#000000" stroke-width="1.0" d="M 106.0, 408.0L695.3278099228139, 408.0"/>
<path fill="none" stroke="#000000" stroke-width="1.0" d="M 744.2638991130628, 408.0L790.6416269753273, 408.0"/>
<path fill="none" stroke="#000000" stroke-width="1.0" d="M 979.8265491085164, 408.0L1174.0, 408.0"/>
<path fill="none" stroke="#000000" stroke-width="1.0" d="M 106.0, 456.0L620.5992106954499, 456.0"/>
<path fill="none" stroke="#000000" stroke-width="1.0" d="M 691.8704535280747, 456.0L800.6221719618907, 456.0"/>
<path fill="none" stroke="#000000" stroke-width="1.0" d="M 811.0837241813435, 456.0L819.9690035068611, 456.0"/>
<path fill="none" stroke="#000000" stroke-width="1.0" d="M 991.0054027095365, 456.0L1174.0, 456.0"/>
<path fill="none" stroke="#000000" stroke-width="1.0" d="M 106.0, 504.0L595.1977057420788, 504.0"/>
<path fill="none" stroke="#000000" stroke-width="1.0" d="M 630.7057691784163, 504.0L824.2271897178374, 504.0"/>
<path fill="none" stroke="#000000" stroke-width="1.0" d="M 995.1693834737813, 504.0L1174.0, 504.0"/>
<path fill="none" stroke="#000000" stroke-width="1.0" d="M 106.0, 552.0L613.9788728526297, 552.0"/>
<path fill="none" stroke="#000000" stroke-width="1.0" d="M 637.6263365856666, 552.0L791.9424622845471, 552.0"/>
<path fill="none" stroke="#000000" stroke-width="1.0" d="M 986.565496618412, 552.0L1174.0, 552.0"/>
<path fill="none" stroke="#000000" stroke-width="1.0" d="M 106.0, 600.0L804.708313890165, 600.0"/>
<path fill="none" stroke="#000000" stroke-width="1.0" d="M 867.5061064785111, 600.0L1174.0, 600.0"/>
<path fill="none" stroke="#000000" stroke-width="1.0" d="M 106.0, 648.0L799.8929084881333, 648.0"/>
<path fill="none" stroke="#000000" stroke-width="1.0" d="M 835.9439574089004, 648.0L857.292288763119, 648.0"/>
<path fill="none" stroke="#000000" stroke-width="1.0" d="M 907.9344194080733, 648.0L1174.0, 648.0"/>
<path fill="none" stroke="#000000" stroke-width="1.0" d="M 106.0, 696.0L1174.0, 696.0"/>
</g>
</svg>