<?xml version="1.0" encoding="utf-8"?>
<!DOCTYPE svg PUBLIC "-//W3C//DTD SVG 1.1 Tiny//EN" "http://www.w3.org/Graphics/SVG/1.1/DTD/svg11-tiny.dtd">
<svg version="1.1" baseProfile="tiny" id="openrndr-svg" xmlns="http://www.w3.org/2000/svg" xmlns:xlink="http://www.w3.org/1999/xlink" x="0px" y="0px" width="1280px" height="720px"><g >
<path fill="none" stroke="#000000" stroke-width="1.0" d="M 106.0, 6.0L1174.0, 6.0"/>
<path fill="none" stroke="#000000" stroke-width="1.0" d="M 106.0, 18.0L1174.0, 18.0"/>
<path fill="none" stroke="#000000" stroke-width="1.0" d="M 106.0, 30.0L1174.0, 30.0"/>
<path fill="none" stroke="#000000" stroke-width="1.0" d="M 106.0, 42.0L722.974607919867, 42.0"/>
<path fill="none" stroke="#000000" stroke-width="1.0" d="M 798.0450211269037, 42.0L1174.0, 42.0"/>
<path fill="none" stroke="#000000" stroke-width="1.0" d="M 106.0, 54.0L700.239030279506, 54.0"/>
<path fill="none" stroke="#000000" stroke-width="1.0" d="M 822.9903834942514, 54.0L1174.0, 54.0"/>
<path fill="none" stroke="#000000" stroke-width="1.0" d="M 106.0, 66.0L684.6060173604643, 66.0"/>
<path fill="none" stroke="#000000" stroke-width="1.0" d="M 837.3566984375288, 66.0L1174.0, 66.0"/>
<path fill="none" stroke="#000000" stroke-width="1.0" d="M 106.0, 78.0L672.4012570930738, 78.0"/>
<path fill="none" stroke="#000000" stroke-width="1.0" d="M 848.7304042264882, 78.0L1174.0, 78.0"/>
<path fill="none" stroke="#000000" stroke-width="1.0" d="M 106.0, 90.0L301.5294321548306, 90.0"/>
<path fill="none" stroke="#000000" stroke-width="1.0" d="M 395.37929488293463, 90.0L662.7934754091473, 90.0"/>
<path fill="none" stroke="#000000" stroke-width="1.0" d="M 857.9764058577063, 90.0L1174.0, 90.0"/>
<path fill="none" stroke="#000000" stroke-width="1.0" d="M 106.0, 102.0L285.9663162692449, 102.0"/>
<path fill="none" stroke="#000000" stroke-width="1.0" d="M 408.83417560760904, 102.0L655.3324051906752, 102.0"/>
<path fill="none" stroke="#000000" stroke-width="1.0" d="M 865.2753122179968, 102.0L1174.0, 102.0"/>
<path fill="none" stroke="#000000" stroke-width="1.0" d="M 106.0, 114.0L274.79507236922166, 114.0"/>
<path fill="none" stroke="#000000" stroke-width="1.0" d="M 418.8215792866518, 114.0L649.676581762882, 114.0"/>
<path fill="none" stroke="#000000" stroke-width="1.0" d="M 870.8057799373978, 114.0L1174.0, 114.0"/>
<path fill="none" stroke="#000000" stroke-width="1.0" d="M 106.0, 126.0L264.7399390709295, 126.0"/>
<path fill="none" stroke="#000000" stroke-width="1.0" d="M 425.6930365420154, 126.0L645.5264405382576, 126.0"/>
<path fill="none" stroke="#000000" stroke-width="1.0" d="M 875.2777702882191, 126.0L1174.0, 126.0"/>
<path fill="none" stroke="#000000" stroke-width="1.0" d="M 106.0, 138.0L254.11428199476182, 138.0"/>
<path fill="none" stroke="#000000" stroke-width="1.0" d="M 429.9205575238469, 138.0L642.6408861107585, 138.0"/>
<path fill="none" stroke="#000000" stroke-width="1.0" d="M 879.3629007281249, 138.0L1174.0, 138.0"/>
<path fill="none" stroke="#000000" stroke-width="1.0" d="M 106.0, 150.0L245.75406897943088, 150.0"/>
<path fill="none" stroke="#000000" stroke-width="1.0" d="M 431.45356538589715, 150.0L640.822600641262, 150.0"/>
<path fill="none" stroke="#000000" stroke-width="1.0" d="M 882.940953289156, 150.0L1174.0, 150.0"/>
<path fill="none" stroke="#000000" stroke-width="1.0" d="M 106.0, 162.0L241.26184559571573, 162.0"/>
<path fill="none" stroke="#000000" stroke-width="1.0" d="M 431.1757587292176, 162.0L640.0191768637968, 162.0"/>
<path fill="none" stroke="#000000" stroke-width="1.0" d="M 886.0039184210932, 162.0L1174.0, 162.0"/>
<path fill="none" stroke="#000000" stroke-width="1.0" d="M 106.0, 174.0L237.61447833420564, 174.0"/>
<path fill="none" stroke="#000000" stroke-width="1.0" d="M 429.2744736765242, 174.0L640.1522525049448, 174.0"/>
<path fill="none" stroke="#000000" stroke-width="1.0" d="M 889.3566066816837, 174.0L1174.0, 174.0"/>
<path fill="none" stroke="#000000" stroke-width="1.0" d="M 106.0, 186.0L234.43546959795873, 186.0"/>
<path fill="none" stroke="#000000" stroke-width="1.0" d="M 421.6974254035554, 186.0L642.4739334381507, 186.0"/>
<path fill="none" stroke="#000000" stroke-width="1.0" d="M 893.5364441598913, 186.0L1174.0, 186.0"/>
<path fill="none" stroke="#000000" stroke-width="1.0" d="M 106.0, 198.0L232.0473568564737, 198.0"/>
<path fill="none" stroke="#000000" stroke-width="1.0" d="M 410.5797385325761, 198.0L649.8349001906847, 198.0"/>
<path fill="none" stroke="#000000" stroke-width="1.0" d="M 899.0846110457329, 198.0L1174.0, 198.0"/>
<path fill="none" stroke="#000000" stroke-width="1.0" d="M 106.0, 210.0L230.7309704673628, 210.0"/>
<path fill="none" stroke="#000000" stroke-width="1.0" d="M 396.2897543880813, 210.0L656.6508999926374, 210.0"/>
<path fill="none" stroke="#000000" stroke-width="1.0" d="M 906.7832015322097, 210.0L1174.0, 210.0"/>
<path fill="none" stroke="#000000" stroke-width="1.0" d="M 106.0, 222.0L230.66933410077465, 222.0"/>
<path fill="none" stroke="#000000" stroke-width="1.0" d="M 395.1258156468825, 222.0L664.4196518088617, 222.0"/>
<path fill="none" stroke="#000000" stroke-width="1.0" d="M 915.4414426042463, 222.0L1174.0, 222.0"/>
<path fill="none" stroke="#000000" stroke-width="1.0" d="M 106.0, 234.0L230.71940818005746, 234.0"/>
<path fill="none" stroke="#000000" stroke-width="1.0" d="M 351.8361650125576, 234.0L675.641590968486, 234.0"/>
<path fill="none" stroke="#000000" stroke-width="1.0" d="M 920.9609063133107, 234.0L1174.0, 234.0"/>
<path fill="none" stroke="#000000" stroke-width="1.0" d="M 106.0, 246.0L231.15046245493477, 246.0"/>
<path fill="none" stroke="#000000" stroke-width="1.0" d="M 337.0983198454095, 246.0L376.68687831876264, 246.0"/>
<path fill="none" stroke="#000000" stroke-width="1.0" d="M 412.4244961228767, 246.0L677.8893974280519, 246.0"/>
<path fill="none" stroke="#000000" stroke-width="1.0" d="M 686.1891704942157, 246.0L688.7092810677643, 246.0"/>
<path fill="none" stroke="#000000" stroke-width="1.0" d="M 927.2891378056956, 246.0L1174.0, 246.0"/>
<path fill="none" stroke="#000000" stroke-width="1.0" d="M 106.0, 258.0L233.11943892264267, 258.0"/>
<path fill="none" stroke="#000000" stroke-width="1.0" d="M 331.362386037646, 258.0L363.9125123058577, 258.0"/>
<path fill="none" stroke="#000000" stroke-width="1.0" d="M 423.08705007071484, 258.0L636.2614921452341, 258.0"/>
<path fill="none" stroke="#000000" stroke-width="1.0" d="M 660.6512649833389, 258.0L678.1650150062742, 258.0"/>
<path fill="none" stroke="#000000" stroke-width="1.0" d="M 692.2593813027919, 258.0L699.1799290939299, 258.0"/>
<path fill="none" stroke="#000000" stroke-width="1.0" d="M 934.4592697880329, 258.0L1174.0, 258.0"/>
<path fill="none" stroke="#000000" stroke-width="1.0" d="M 106.0, 270.0L236.81562649746783, 270.0"/>
<path fill="none" stroke="#000000" stroke-width="1.0" d="M 330.21734436544443, 270.0L353.03988477730314, 270.0"/>
<path fill="none" stroke="#000000" stroke-width="1.0" d="M 433.6406220145609, 270.0L631.7955827516187, 270.0"/>
<path fill="none" stroke="#000000" stroke-width="1.0" d="M 940.0160585059341, 270.0L1174.0, 270.0"/>
<path fill="none" stroke="#000000" stroke-width="1.0" d="M 106.0, 282.0L239.8593667415656, 282.0"/>
<path fill="none" stroke="#000000" stroke-width="1.0" d="M 330.0238396192175, 282.0L342.31614909352675, 282.0"/>
<path fill="none" stroke="#000000" stroke-width="1.0" d="M 395.73099666896474, 282.0L410.5200508116642, 282.0"/>
<path fill="none" stroke="#000000" stroke-width="1.0" d="M 473.5586315805832, 282.0L634.0876524831349, 282.0"/>
<path fill="none" stroke="#000000" stroke-width="1.0" d="M 944.5080744376992, 282.0L1174.0, 282.0"/>
<path fill="none" stroke="#000000" stroke-width="1.0" d="M 106.0, 294.0L243.0702921356589, 294.0"/>
<path fill="none" stroke="#000000" stroke-width="1.0" d="M 368.42430768807816, 294.0L417.23896286614297, 294.0"/>
<path fill="none" stroke="#000000" stroke-width="1.0" d="M 471.10739745402293, 294.0L639.0971624108638, 294.0"/>
<path fill="none" stroke="#000000" stroke-width="1.0" d="M 731.0690463239908, 294.0L738.7371281718906, 294.0"/>
<path fill="none" stroke="#000000" stroke-width="1.0" d="M 783.3691440913533, 294.0L823.7891475737624, 294.0"/>
<path fill="none" stroke="#000000" stroke-width="1.0" d="M 949.0688965681029, 294.0L1174.0, 294.0"/>
<path fill="none" stroke="#000000" stroke-width="1.0" d="M 106.0, 306.0L246.3791701371665, 306.0"/>
<path fill="none" stroke="#000000" stroke-width="1.0" d="M 350.98947357190343, 306.0L422.33050971579354, 306.0"/>
<path fill="none" stroke="#000000" stroke-width="1.0" d="M 468.6849624922306, 306.0L645.377973646257, 306.0"/>
<path fill="none" stroke="#000000" stroke-width="1.0" d="M 669.7202777002127, 306.0L710.9004655251542, 306.0"/>
<path fill="none" stroke="#000000" stroke-width="1.0" d="M 753.1184424427046, 306.0L810.9555833267447, 306.0"/>
<path fill="none" stroke="#000000" stroke-width="1.0" d="M 954.5457033674968, 306.0L1174.0, 306.0"/>
<path fill="none" stroke="#000000" stroke-width="1.0" d="M 106.0, 318.0L249.82954426709534, 318.0"/>
<path fill="none" stroke="#000000" stroke-width="1.0" d="M 349.85055788698753, 318.0L437.3671846477598, 318.0"/>
<path fill="none" stroke="#000000" stroke-width="1.0" d="M 463.13333376064696, 318.0L726.6396854442805, 318.0"/>
<path fill="none" stroke="#000000" stroke-width="1.0" d="M 961.6307579276657, 318.0L1174.0, 318.0"/>
<path fill="none" stroke="#000000" stroke-width="1.0" d="M 106.0, 330.0L253.9099064362734, 330.0"/>
<path fill="none" stroke="#000000" stroke-width="1.0" d="M 352.0762961057417, 330.0L704.4290570255065, 330.0"/>
<path fill="none" stroke="#000000" stroke-width="1.0" d="M 712.6579910328704, 330.0L743.5993156922223, 330.0"/>
<path fill="none" stroke="#000000" stroke-width="1.0" d="M 966.7077121913745, 330.0L1174.0, 330.0"/>
<path fill="none" stroke="#000000" stroke-width="1.0" d="M 106.0, 342.0L260.5749656486051, 342.0"/>
<path fill="none" stroke="#000000" stroke-width="1.0" d="M 354.60000000000014, 342.0L709.6352374679285, 342.0"/>
<path fill="none" stroke="#000000" stroke-width="1.0" d="M 722.7618433419697, 342.0L760.6028189795237, 342.0"/>
<path fill="none" stroke="#000000" stroke-width="1.0" d="M 969.8104519520136, 342.0L1174.0, 342.0"/>
<path fill="none" stroke="#000000" stroke-width="1.0" d="M 106.0, 354.0L314.2361708086434, 354.0"/>
<path fill="none" stroke="#000000" stroke-width="1.0" d="M 359.49978625228465, 354.0L663.6840448948452, 354.0"/>
<path fill="none" stroke="#000000" stroke-width="1.0" d="M 737.6645126610192, 354.0L777.5078975761473, 354.0"/>
<path fill="none" stroke="#000000" stroke-width="1.0" d="M 972.4895421420619, 354.0L1174.0, 354.0"/>
<path fill="none" stroke="#000000" stroke-width="1.0" d="M 106.0, 366.0L325.82907541762955, 366.0"/>
<path fill="none" stroke="#000000" stroke-width="1.0" d="M 383.50569545744423, 366.0L658.8084126816437, 366.0"/>
<path fill="none" stroke="#000000" stroke-width="1.0" d="M 771.8773266515743, 366.0L780.7936279949579, 366.0"/>
<path fill="none" stroke="#000000" stroke-width="1.0" d="M 974.8079129637424, 366.0L1174.0, 366.0"/>
<path fill="none" stroke="#000000" stroke-width="1.0" d="M 106.0, 378.0L329.8104717493319, 378.0"/>
<path fill="none" stroke="#000000" stroke-width="1.0" d="M 381.1876251485347, 378.0L667.2394452773295, 378.0"/>
<path fill="none" stroke="#000000" stroke-width="1.0" d="M 976.7461024784175, 378.0L1174.0, 378.0"/>
<path fill="none" stroke="#000000" stroke-width="1.0" d="M 106.0, 390.0L340.23387588540186, 390.0"/>
<path fill="none" stroke="#000000" stroke-width="1.0" d="M 354.6547862822664, 390.0L684.405216650465, 390.0"/>
<path fill="none" stroke="#000000" stroke-width="1.0" d="M 703.4845973712869, 390.0L734.3633219524605, 390.0"/>
<path fill="none" stroke="#000000" stroke-width="1.0" d="M 978.5821327204743, 390.0L1174.0, 390.0"/>
<path fill="none" stroke="#000000" stroke-width="1.0" d="M 106.0, 402.0L702.964447769492, 402.0"/>
<path fill="none" stroke="#000000" stroke-width="1.0" d="M 979.7970400748297, 402.0L1174.0, 402.0"/>
<path fill="none" stroke="#000000" stroke-width="1.0" d="M 106.0, 414.0L691.3665253114762, 414.0"/>
<path fill="none" stroke="#000000" stroke-width="1.0" d="M 719.032178639933, 414.0L794.7484917200836, 414.0"/>
<path fill="none" stroke="#000000" stroke-width="1.0" d="M 980.0055478475656, 414.0L1174.0, 414.0"/>
<path fill="none" stroke="#000000" stroke-width="1.0" d="M 106.0, 426.0L687.2908393219659, 426.0"/>
<path fill="none" stroke="#000000" stroke-width="1.0" d="M 705.1050254729494, 426.0L796.8663905602884, 426.0"/>
<path fill="none" stroke="#000000" stroke-width="1.0" d="M 981.0650160322633, 426.0L1174.0, 426.0"/>
<path fill="none" stroke="#000000" stroke-width="1.0" d="M 106.0, 438.0L682.1414483584842, 438.0"/>
<path fill="none" stroke="#000000" stroke-width="1.0" d="M 701.4467683151986, 438.0L797.8743243405997, 438.0"/>
<path fill="none" stroke="#000000" stroke-width="1.0" d="M 807.0360755561387, 438.0L814.2008726869253, 438.0"/>
<path fill="none" stroke="#000000" stroke-width="1.0" d="M 983.5203091613625, 438.0L1174.0, 438.0"/>
<path fill="none" stroke="#000000" stroke-width="1.0" d="M 106.0, 450.0L631.8630768818198, 450.0"/>
<path fill="none" stroke="#000000" stroke-width="1.0" d="M 695.803585704948, 450.0L799.612060293177, 450.0"/>
<path fill="none" stroke="#000000" stroke-width="1.0" d="M 809.6392538603608, 450.0L818.0408607913471, 450.0"/>
<path fill="none" stroke="#000000" stroke-width="1.0" d="M 987.9953080610552, 450.0L1174.0, 450.0"/>
<path fill="none" stroke="#000000" stroke-width="1.0" d="M 106.0, 462.0L613.3087824108757, 462.0"/>
<path fill="none" stroke="#000000" stroke-width="1.0" d="M 687.3736223703991, 462.0L801.7855545473933, 462.0"/>
<path fill="none" stroke="#000000" stroke-width="1.0" d="M 812.7320444325708, 462.0L821.9014194999711, 462.0"/>
<path fill="none" stroke="#000000" stroke-width="1.0" d="M 993.490825994388, 462.0L1174.0, 462.0"/>
<path fill="none" stroke="#000000" stroke-width="1.0" d="M 106.0, 474.0L603.4526512542432, 474.0"/>
<path fill="none" stroke="#000000" stroke-width="1.0" d="M 636.194430169193, 474.0L653.2576785347063, 474.0"/>
<path fill="none" stroke="#000000" stroke-width="1.0" d="M 675.2025915299497, 474.0L804.9232928328715, 474.0"/>
<path fill="none" stroke="#000000" stroke-width="1.0" d="M 816.9608403213499, 474.0L825.7753599728891, 474.0"/>
<path fill="none" stroke="#000000" stroke-width="1.0" d="M 996.0213420250512, 474.0L1174.0, 474.0"/>
<path fill="none" stroke="#000000" stroke-width="1.0" d="M 106.0, 486.0L596.8133100582863, 486.0"/>
<path fill="none" stroke="#000000" stroke-width="1.0" d="M 625.8147571819275, 486.0L809.875920435188, 486.0"/>
<path fill="none" stroke="#000000" stroke-width="1.0" d="M 997.0198765611702, 486.0L1174.0, 486.0"/>
<path fill="none" stroke="#000000" stroke-width="1.0" d="M 106.0, 498.0L593.6439130946626, 498.0"/>
<path fill="none" stroke="#000000" stroke-width="1.0" d="M 626.9398742667513, 498.0L817.941548306887, 498.0"/>
<path fill="none" stroke="#000000" stroke-width="1.0" d="M 995.9751990906486, 498.0L1174.0, 498.0"/>
<path fill="none" stroke="#000000" stroke-width="1.0" d="M 106.0, 510.0L599.5839174196262, 510.0"/>
<path fill="none" stroke="#000000" stroke-width="1.0" d="M 636.8364484342285, 510.0L842.5355415113934, 510.0"/>
<path fill="none" stroke="#000000" stroke-width="1.0" d="M 994.4532747290386, 510.0L1174.0, 510.0"/>
<path fill="none" stroke="#000000" stroke-width="1.0" d="M 106.0, 522.0L616.8856834497528, 522.0"/>
<path fill="none" stroke="#000000" stroke-width="1.0" d="M 647.7177019757679, 522.0L857.737757682506, 522.0"/>
<path fill="none" stroke="#000000" stroke-width="1.0" d="M 993.5118607535785, 522.0L1174.0, 522.0"/>
<path fill="none" stroke="#000000" stroke-width="1.0" d="M 106.0, 534.0L618.0939398901048, 534.0"/>
<path fill="none" stroke="#000000" stroke-width="1.0" d="M 646.3297819930506, 534.0L827.9251132551967, 534.0"/>
<path fill="none" stroke="#000000" stroke-width="1.0" d="M 991.5891250632693, 534.0L1174.0, 534.0"/>
<path fill="none" stroke="#000000" stroke-width="1.0" d="M 106.0, 546.0L616.5929763439847, 546.0"/>
<path fill="none" stroke="#000000" stroke-width="1.0" d="M 640.7072285237552, 546.0L797.0909282919345, 546.0"/>
<path fill="none" stroke="#000000" stroke-width="1.0" d="M 988.4360715682337, 546.0L1174.0, 546.0"/>
<path fill="none" stroke="#000000" stroke-width="1.0" d="M 106.0, 558.0L608.6239248680981, 558.0"/>
<path fill="none" stroke="#000000" stroke-width="1.0" d="M 634.9161532885953, 558.0L790.8, 558.0"/>
<path fill="none" stroke="#000000" stroke-width="1.0" d="M 984.5968405428001, 558.0L1174.0, 558.0"/>
<path fill="none" stroke="#000000" stroke-width="1.0" d="M 106.0, 570.0L599.8623809655338, 570.0"/>
<path fill="none" stroke="#000000" stroke-width="1.0" d="M 629.8045980111897, 570.0L790.8, 570.0"/>
<path fill="none" stroke="#000000" stroke-width="1.0" d="M 792.3459533607678, 570.0L792.9018344468902, 570.0"/>
<path fill="none" stroke="#000000" stroke-width="1.0" d="M 974.9203834535299, 570.0L1174.0, 570.0"/>
<path fill="none" stroke="#000000" stroke-width="1.0" d="M 106.0, 582.0L594.1569285759489, 582.0"/>
<path fill="none" stroke="#000000" stroke-width="1.0" d="M 623.7088138362777, 582.0L799.8551776104616, 582.0"/>
<path fill="none" stroke="#000000" stroke-width="1.0" d="M 856.0999999999997, 582.0L897.3502182858367, 582.0"/>
<path fill="none" stroke="#000000" stroke-width="1.0" d="M 931.150951832625, 582.0L1174.0, 582.0"/>
<path fill="none" stroke="#000000" stroke-width="1.0" d="M 106.0, 594.0L588.648244076254, 594.0"/>
<path fill="none" stroke="#000000" stroke-width="1.0" d="M 611.1443878005647, 594.0L804.0587584634427, 594.0"/>
<path fill="none" stroke="#000000" stroke-width="1.0" d="M 862.7793915997387, 594.0L1174.0, 594.0"/>
<path fill="none" stroke="#000000" stroke-width="1.0" d="M 106.0, 606.0L805.1537338554352, 606.0"/>
<path fill="none" stroke="#000000" stroke-width="1.0" d="M 873.9830094807469, 606.0L1174.0, 606.0"/>
<path fill="none" stroke="#000000" stroke-width="1.0" d="M 106.0, 618.0L805.6204724569566, 618.0"/>
<path fill="none" stroke="#000000" stroke-width="1.0" d="M 833.234661346213, 618.0L850.2599794043033, 618.0"/>
<path fill="none" stroke="#000000" stroke-width="1.0" d="M 888.1306002569861, 618.0L1174.0, 618.0"/>
<path fill="none" stroke="#000000" stroke-width="1.0" d="M 106.0, 630.0L805.8231240484778, 630.0"/>
<path fill="none" stroke="#000000" stroke-width="1.0" d="M 834.2906283719215, 630.0L864.0068314913914, 630.0"/>
<path fill="none" stroke="#000000" stroke-width="1.0" d="M 902.2947840698056, 630.0L1174.0, 630.0"/>
<path fill="none" stroke="#000000" stroke-width="1.0" d="M 106.0, 642.0L805.7246154997309, 642.0"/>
<path fill="none" stroke="#000000" stroke-width="1.0" d="M 835.3828509492882, 642.0L862.8241301623133, 642.0"/>
<path fill="none" stroke="#000000" stroke-width="1.0" d="M 910.4522182369292, 642.0L1174.0, 642.0"/>
<path fill="none" stroke="#000000" stroke-width="1.0" d="M 106.0, 654.0L768.2480625118394, 654.0"/>
<path fill="none" stroke="#000000" stroke-width="1.0" d="M 904.0698055285119, 654.0L1174.0, 654.0"/>
<path fill="none" stroke="#000000" stroke-width="1.0" d="M 106.0, 666.0L747.7071616327634, 666.0"/>
<path fill="none" stroke="#000000" stroke-width="1.0" d="M 886.4431449937244, 666.0L1174.0, 666.0"/>
<path fill="none" stroke="#000000" stroke-width="1.0" d="M 106.0, 678.0L749.4968754346326, 678.0"/>
<path fill="none" stroke="#000000" stroke-width="1.0" d="M 863.717218121918, 678.0L1174.0, 678.0"/>
<path fill="none" stroke="#000000" stroke-width="1.0" d="M 106.0, 690.0L764.9383481827047, 690.0"/>
<path fill="none" stroke="#000000" stroke-width="1.0" d="M 806.3934069786062, 690.0L1174.0, 690.0"/>
<path fill="none" stroke="#000000" stroke-width="1.0" d="M 106.0, 702.0L1174.0, 702.0"/>
<path fill="none" stroke="#000000" stroke-width="1.0" d="M 106.0, 714.0L1174.0, 714.0"/>
</g>
</svg>