<?xml version="1.0" encoding="utf-8"?>
<!DOCTYPE svg PUBLIC "-//W3C//DTD SVG 1.1 Tiny//EN" "http://www.w3.org/Graphics/SVG/1.1/DTD/svg11-tiny.dtd">
<svg version="1.1" baseProfile="tiny" id="openrndr-svg" xmlns="http://www.w3.org/2000/svg" xmlns:xlink="http://www.w3.org/1999/xlink" x="0px" y="0px" width="1280px" height="720px"><g >
<path fill="none" stroke="#000000" stroke-width="1.0" d="M 106.0, 3.0L1174.0, 3.0"/>
<path fill="none" stroke="#000000" stroke-width="1.0" d="M 106.0, 9.0L1174.0, 9.0"/>
<path fill="none" stroke="#000000" stroke-width="1.0" d="M 106.0, 15.0L1174.0, 15.0"/>
<path fill="none" stroke="#000000" stroke-width="1.0" d="M 106.0, 21.0L1174.0, 21.0"/>
<path fill="none" stroke="#000000" stroke-width="1.0" d="M 106.0, 27.0L1174.0, 27.0"/>
<path fill="none" stroke="#000000" stroke-width="1.0" d="M 106.0, 33.0L1174.0, 33.0"/>
<path fill="none" stroke="#000000" stroke-width="1.0" d="M 106.0, 39.0L733.3490952109121, 39.0"/>
<path fill="none" stroke="#000000" stroke-width="1.0" d="M 784.7789020579407, 39.0L1174.0, 39.0"/>
<path fill="none" stroke="#000000" stroke-width="1.0" d="M 106.0, 45.0L715.6435057226502, 45.0"/>
<path fill="none" stroke="#000000" stroke-width="1.0" d="M 806.6230844662471, 45.0L1174.0, 45.0"/>
<path fill="none" stroke="#000000" stroke-width="1.0" d="M 106.0, 51.0L704.7956999826199, 51.0"/>
<path fill="none" stroke="#000000" stroke-width="1.0" d="M 818.458957237147, 51.0L1174.0, 51.0"/>
<path fill="none" stroke="#000000" stroke-width="1.0" d="M 106.0, 57.0L695.9571145488345, 57.0"/>
<path fill="none" stroke="#000000" stroke-width="1.0" d="M 827.0314247716767, 57.0L1174.0, 57.0"/>
<path fill="none" stroke="#000000" stroke-width="1.0" d="M 106.0, 63.0L688.1561725840123, 63.0"/>
<path fill="none" stroke="#000000" stroke-width="1.0" d="M 834.1437579294222, 63.0L1174.0, 63.0"/>
<path fill="none" stroke="#000000" stroke-width="1.0" d="M 106.0, 69.0L681.2692656685329, 69.0"/>
<path fill="none" stroke="#000000" stroke-width="1.0" d="M 840.400512117804, 69.0L1174.0, 69.0"/>
<path fill="none" stroke="#000000" stroke-width="1.0" d="M 106.0, 75.0L675.1798330985253, 75.0"/>
<path fill="none" stroke="#000000" stroke-width="1.0" d="M 846.0883353536472, 75.0L1174.0, 75.0"/>
<path fill="none" stroke="#000000" stroke-width="1.0" d="M 106.0, 81.0L326.4351219592137, 81.0"/>
<path fill="none" stroke="#000000" stroke-width="1.0" d="M 372.3016572818367, 81.0L669.7843501479626, 81.0"/>
<path fill="none" stroke="#000000" stroke-width="1.0" d="M 851.2362401748711, 81.0L1174.0, 81.0"/>
<path fill="none" stroke="#000000" stroke-width="1.0" d="M 106.0, 87.0L307.2855438604235, 87.0"/>
<path fill="none" stroke="#000000" stroke-width="1.0" d="M 391.21375534540385, 87.0L664.983137487604, 87.0"/>
<path fill="none" stroke="#000000" stroke-width="1.0" d="M 855.8555523042496, 87.0L1174.0, 87.0"/>
<path fill="none" stroke="#000000" stroke-width="1.0" d="M 106.0, 93.0L296.83741787732833, 93.0"/>
<path fill="none" stroke="#000000" stroke-width="1.0" d="M 399.07384993383306, 93.0L660.7398304066127, 93.0"/>
<path fill="none" stroke="#000000" stroke-width="1.0" d="M 859.9758554593408, 93.0L1174.0, 93.0"/>
<path fill="none" stroke="#000000" stroke-width="1.0" d="M 106.0, 99.0L289.2239363382333, 99.0"/>
<path fill="none" stroke="#000000" stroke-width="1.0" d="M 405.8024309469821, 99.0L657.0151731849523, 99.0"/>
<path fill="none" stroke="#000000" stroke-width="1.0" d="M 863.6225522886073, 99.0L1174.0, 99.0"/>
<path fill="none" stroke="#000000" stroke-width="1.0" d="M 106.0, 105.0L282.9483708788646, 105.0"/>
<path fill="none" stroke="#000000" stroke-width="1.0" d="M 411.64697002966363, 105.0L653.7620809090479, 105.0"/>
<path fill="none" stroke="#000000" stroke-width="1.0" d="M 866.8177330889835, 105.0L1174.0, 105.0"/>
<path fill="none" stroke="#000000" stroke-width="1.0" d="M 106.0, 111.0L277.4042439364962, 111.0"/>
<path fill="none" stroke="#000000" stroke-width="1.0" d="M 416.63455456914255, 111.0L650.9388139564012, 111.0"/>
<path fill="none" stroke="#000000" stroke-width="1.0" d="M 869.5808161772183, 111.0L1174.0, 111.0"/>
<path fill="none" stroke="#000000" stroke-width="1.0" d="M 106.0, 117.0L272.2509443628896, 117.0"/>
<path fill="none" stroke="#000000" stroke-width="1.0" d="M 420.8134180955984, 117.0L648.5081734871846, 117.0"/>
<path fill="none" stroke="#000000" stroke-width="1.0" d="M 871.9543040789868, 117.0L1174.0, 117.0"/>
<path fill="none" stroke="#000000" stroke-width="1.0" d="M 106.0, 123.0L267.24891348043417, 123.0"/>
<path fill="none" stroke="#000000" stroke-width="1.0" d="M 424.24154413848345, 123.0L646.4368454887294, 123.0"/>
<path fill="none" stroke="#000000" stroke-width="1.0" d="M 874.1913723686725, 123.0L1174.0, 123.0"/>
<path fill="none" stroke="#000000" stroke-width="1.0" d="M 106.0, 129.0L262.19124190143106, 129.0"/>
<path fill="none" stroke="#000000" stroke-width="1.0" d="M 426.9795042294181, 129.0L644.694861232114, 129.0"/>
<path fill="none" stroke="#000000" stroke-width="1.0" d="M 876.3400658551353, 129.0L1174.0, 129.0"/>
<path fill="none" stroke="#000000" stroke-width="1.0" d="M 106.0, 135.0L256.85843557562623, 135.0"/>
<path fill="none" stroke="#000000" stroke-width="1.0" d="M 429.0863370695338, 135.0L643.2551498995849, 135.0"/>
<path fill="none" stroke="#000000" stroke-width="1.0" d="M 878.3845387896117, 135.0L1174.0, 135.0"/>
<path fill="none" stroke="#000000" stroke-width="1.0" d="M 106.0, 141.0L251.63297446043623, 141.0"/>
<path fill="none" stroke="#000000" stroke-width="1.0" d="M 430.6076757278747, 141.0L642.0931648835676, 141.0"/>
<path fill="none" stroke="#000000" stroke-width="1.0" d="M 880.309527822839, 141.0L1174.0, 141.0"/>
<path fill="none" stroke="#000000" stroke-width="1.0" d="M 106.0, 147.0L247.4553969098288, 147.0"/>
<path fill="none" stroke="#000000" stroke-width="1.0" d="M 431.33913469101407, 147.0L641.1865694867381, 147.0"/>
<path fill="none" stroke="#000000" stroke-width="1.0" d="M 882.1003258630888, 147.0L1174.0, 147.0"/>
<path fill="none" stroke="#000000" stroke-width="1.0" d="M 106.0, 153.0L244.3182493445293, 153.0"/>
<path fill="none" stroke="#000000" stroke-width="1.0" d="M 431.45702332205656, 153.0L640.5149709045385, 153.0"/>
<path fill="none" stroke="#000000" stroke-width="1.0" d="M 883.7427573732875, 153.0L1174.0, 153.0"/>
<path fill="none" stroke="#000000" stroke-width="1.0" d="M 106.0, 159.0L242.20611878935688, 159.0"/>
<path fill="none" stroke="#000000" stroke-width="1.0" d="M 431.28220850735477, 159.0L640.0974787100411, 159.0"/>
<path fill="none" stroke="#000000" stroke-width="1.0" d="M 885.2443183954263, 159.0L1174.0, 159.0"/>
<path fill="none" stroke="#000000" stroke-width="1.0" d="M 106.0, 165.0L240.32495821396327, 165.0"/>
<path fill="none" stroke="#000000" stroke-width="1.0" d="M 431.1038959296101, 165.0L640.00655226919, 165.0"/>
<path fill="none" stroke="#000000" stroke-width="1.0" d="M 886.788808212246, 165.0L1174.0, 165.0"/>
<path fill="none" stroke="#000000" stroke-width="1.0" d="M 106.0, 171.0L238.4957588302441, 171.0"/>
<path fill="none" stroke="#000000" stroke-width="1.0" d="M 430.345601586759, 171.0L640.0940068936922, 171.0"/>
<path fill="none" stroke="#000000" stroke-width="1.0" d="M 888.4587215044558, 171.0L1174.0, 171.0"/>
<path fill="none" stroke="#000000" stroke-width="1.0" d="M 106.0, 177.0L236.76261236508145, 177.0"/>
<path fill="none" stroke="#000000" stroke-width="1.0" d="M 427.6122046434631, 177.0L640.1926838201226, 177.0"/>
<path fill="none" stroke="#000000" stroke-width="1.0" d="M 890.305617822228, 177.0L1174.0, 177.0"/>
<path fill="none" stroke="#000000" stroke-width="1.0" d="M 106.0, 183.0L235.1680455803426, 183.0"/>
<path fill="none" stroke="#000000" stroke-width="1.0" d="M 423.8447870599476, 183.0L640.3594631905805, 183.0"/>
<path fill="none" stroke="#000000" stroke-width="1.0" d="M 892.3872634694328, 183.0L1174.0, 183.0"/>
<path fill="none" stroke="#000000" stroke-width="1.0" d="M 106.0, 189.0L233.75253169323543, 189.0"/>
<path fill="none" stroke="#000000" stroke-width="1.0" d="M 419.33812592590635, 189.0L644.4485759781015, 189.0"/>
<path fill="none" stroke="#000000" stroke-width="1.0" d="M 894.7700469916159, 189.0L1174.0, 189.0"/>
<path fill="none" stroke="#000000" stroke-width="1.0" d="M 106.0, 195.0L232.55407370044253, 195.0"/>
<path fill="none" stroke="#000000" stroke-width="1.0" d="M 413.8315849217526, 195.0L648.1029723732252, 195.0"/>
<path fill="none" stroke="#000000" stroke-width="1.0" d="M 897.5323035741997, 195.0L1174.0, 195.0"/>
<path fill="none" stroke="#000000" stroke-width="1.0" d="M 106.0, 201.0L231.60786898188084, 201.0"/>
<path fill="none" stroke="#000000" stroke-width="1.0" d="M 406.89618997041714, 201.0L651.5340738847594, 201.0"/>
<path fill="none" stroke="#000000" stroke-width="1.0" d="M 900.7690815426865, 201.0L1174.0, 201.0"/>
<path fill="none" stroke="#000000" stroke-width="1.0" d="M 106.0, 207.0L230.94605974280745, 207.0"/>
<path fill="none" stroke="#000000" stroke-width="1.0" d="M 397.73966589855615, 207.0L654.9203201709075, 207.0"/>
<path fill="none" stroke="#000000" stroke-width="1.0" d="M 904.5992744819605, 207.0L1174.0, 207.0"/>
<path fill="none" stroke="#000000" stroke-width="1.0" d="M 106.0, 213.0L230.59756927630173, 213.0"/>
<path fill="none" stroke="#000000" stroke-width="1.0" d="M 396.8713721236913, 213.0L658.4374829705547, 213.0"/>
<path fill="none" stroke="#000000" stroke-width="1.0" d="M 909.1768119460542, 213.0L1174.0, 213.0"/>
<path fill="none" stroke="#000000" stroke-width="1.0" d="M 106.0, 219.0L230.58802003840515, 219.0"/>
<path fill="none" stroke="#000000" stroke-width="1.0" d="M 397.5391779360533, 219.0L662.2882385975685, 219.0"/>
<path fill="none" stroke="#000000" stroke-width="1.0" d="M 913.9692171379648, 219.0L1174.0, 219.0"/>
<path fill="none" stroke="#000000" stroke-width="1.0" d="M 106.0, 225.0L230.70731947421072, 225.0"/>
<path fill="none" stroke="#000000" stroke-width="1.0" d="M 390.9082837194177, 225.0L666.7467719566805, 225.0"/>
<path fill="none" stroke="#000000" stroke-width="1.0" d="M 916.6762878952817, 225.0L1174.0, 225.0"/>
<path fill="none" stroke="#000000" stroke-width="1.0" d="M 106.0, 231.0L230.71503248306936, 231.0"/>
<path fill="none" stroke="#000000" stroke-width="1.0" d="M 357.01100045303883, 231.0L672.2537478797371, 231.0"/>
<path fill="none" stroke="#000000" stroke-width="1.0" d="M 919.4211341696188, 231.0L1174.0, 231.0"/>
<path fill="none" stroke="#000000" stroke-width="1.0" d="M 106.0, 237.0L230.7473895194713, 237.0"/>
<path fill="none" stroke="#000000" stroke-width="1.0" d="M 347.65179878331753, 237.0L677.3894574928468, 237.0"/>
<path fill="none" stroke="#000000" stroke-width="1.0" d="M 922.4977687370615, 237.0L1174.0, 237.0"/>
<path fill="none" stroke="#000000" stroke-width="1.0" d="M 106.0, 243.0L230.94493259913, 243.0"/>
<path fill="none" stroke="#000000" stroke-width="1.0" d="M 340.47284754950965, 243.0L382.6047109551562, 243.0"/>
<path fill="none" stroke="#000000" stroke-width="1.0" d="M 406.411815698473, 243.0L677.719807741076, 243.0"/>
<path fill="none" stroke="#000000" stroke-width="1.0" d="M 925.6413491308269, 243.0L1174.0, 243.0"/>
<path fill="none" stroke="#000000" stroke-width="1.0" d="M 106.0, 249.0L231.45164006183987, 249.0"/>
<path fill="none" stroke="#000000" stroke-width="1.0" d="M 333.66124262216704, 249.0L372.65119950721663, 249.0"/>
<path fill="none" stroke="#000000" stroke-width="1.0" d="M 416.20108833792136, 249.0L678.0581672764276, 249.0"/>
<path fill="none" stroke="#000000" stroke-width="1.0" d="M 686.7227416744176, 249.0L694.0350075510257, 249.0"/>
<path fill="none" stroke="#000000" stroke-width="1.0" d="M 929.0177130579253, 249.0L1174.0, 249.0"/>
<path fill="none" stroke="#000000" stroke-width="1.0" d="M 106.0, 255.0L232.41662796048044, 255.0"/>
<path fill="none" stroke="#000000" stroke-width="1.0" d="M 331.66056792919437, 255.0L366.6871808065138, 255.0"/>
<path fill="none" stroke="#000000" stroke-width="1.0" d="M 421.2126530223015, 255.0L640.6715881377314, 255.0"/>
<path fill="none" stroke="#000000" stroke-width="1.0" d="M 649.4952367500092, 255.0L678.3827085538809, 255.0"/>
<path fill="none" stroke="#000000" stroke-width="1.0" d="M 689.3317521961684, 255.0L698.3805474436359, 255.0"/>
<path fill="none" stroke="#000000" stroke-width="1.0" d="M 932.7420127077847, 255.0L1174.0, 255.0"/>
<path fill="none" stroke="#000000" stroke-width="1.0" d="M 106.0, 261.0L233.9960316261071, 261.0"/>
<path fill="none" stroke="#000000" stroke-width="1.0" d="M 331.059291707179, 261.0L361.16519480551307, 261.0"/>
<path fill="none" stroke="#000000" stroke-width="1.0" d="M 425.1009085756294, 261.0L633.720568369504, 261.0"/>
<path fill="none" stroke="#000000" stroke-width="1.0" d="M 671.748511169144, 261.0L676.4390705023696, 261.0"/>
<path fill="none" stroke="#000000" stroke-width="1.0" d="M 936.0198089677269, 261.0L1174.0, 261.0"/>
<path fill="none" stroke="#000000" stroke-width="1.0" d="M 106.0, 267.0L235.9528484167036, 267.0"/>
<path fill="none" stroke="#000000" stroke-width="1.0" d="M 330.4758283135277, 267.0L355.7334702646811, 267.0"/>
<path fill="none" stroke="#000000" stroke-width="1.0" d="M 430.2559261820319, 267.0L631.8284078685838, 267.0"/>
<path fill="none" stroke="#000000" stroke-width="1.0" d="M 938.7755879917642, 267.0L1174.0, 267.0"/>
<path fill="none" stroke="#000000" stroke-width="1.0" d="M 106.0, 273.0L237.61938367843555, 273.0"/>
<path fill="none" stroke="#000000" stroke-width="1.0" d="M 329.9972605886122, 273.0L350.35534176815486, 273.0"/>
<path fill="none" stroke="#000000" stroke-width="1.0" d="M 437.8964405945714, 273.0L632.1055462246816, 273.0"/>
<path fill="none" stroke="#000000" stroke-width="1.0" d="M 941.1916601227866, 273.0L1174.0, 273.0"/>
<path fill="none" stroke="#000000" stroke-width="1.0" d="M 106.0, 279.0L239.12356957377233, 279.0"/>
<path fill="none" stroke="#000000" stroke-width="1.0" d="M 329.72357754556003, 279.0L344.9972267841255, 279.0"/>
<path fill="none" stroke="#000000" stroke-width="1.0" d="M 401.3856074732885, 279.0L405.3888362906799, 279.0"/>
<path fill="none" stroke="#000000" stroke-width="1.0" d="M 454.0822307097328, 279.0L633.3074506977599, 279.0"/>
<path fill="none" stroke="#000000" stroke-width="1.0" d="M 943.4205407727914, 279.0L1174.0, 279.0"/>
<path fill="none" stroke="#000000" stroke-width="1.0" d="M 106.0, 285.0L240.6074698145518, 285.0"/>
<path fill="none" stroke="#000000" stroke-width="1.0" d="M 331.8578858935456, 285.0L339.62911656677335, 285.0"/>
<path fill="none" stroke="#000000" stroke-width="1.0" d="M 389.34107848227416, 285.0L413.48735226802035, 285.0"/>
<path fill="none" stroke="#000000" stroke-width="1.0" d="M 472.94055723132624, 285.0L635.0784768628648, 285.0"/>
<path fill="none" stroke="#000000" stroke-width="1.0" d="M 796.6365333123206, 285.0L818.8467174132701, 285.0"/>
<path fill="none" stroke="#000000" stroke-width="1.0" d="M 945.59994036229, 285.0L1174.0, 285.0"/>
<path fill="none" stroke="#000000" stroke-width="1.0" d="M 106.0, 291.0L242.21099104658038, 291.0"/>
<path fill="none" stroke="#000000" stroke-width="1.0" d="M 375.83724651843374, 291.0L416.4524135115208, 291.0"/>
<path fill="none" stroke="#000000" stroke-width="1.0" d="M 471.71570826840224, 291.0L637.6203958791349, 291.0"/>
<path fill="none" stroke="#000000" stroke-width="1.0" d="M 786.8252466550086, 291.0L823.0132055736391, 291.0"/>
<path fill="none" stroke="#000000" stroke-width="1.0" d="M 947.86416332814, 291.0L1174.0, 291.0"/>
<path fill="none" stroke="#000000" stroke-width="1.0" d="M 106.0, 297.0L243.90954319589173, 297.0"/>
<path fill="none" stroke="#000000" stroke-width="1.0" d="M 361.3506294108674, 297.0L418.1679422243211, 297.0"/>
<path fill="none" stroke="#000000" stroke-width="1.0" d="M 470.50086061497933, 297.0L640.6544657631765, 297.0"/>
<path fill="none" stroke="#000000" stroke-width="1.0" d="M 731.818424948173, 297.0L746.0133425145284, 297.0"/>
<path fill="none" stroke="#000000" stroke-width="1.0" d="M 780.3, 297.0L823.4746568879066, 297.0"/>
<path fill="none" stroke="#000000" stroke-width="1.0" d="M 950.3275987080661, 297.0L1174.0, 297.0"/>
<path fill="none" stroke="#000000" stroke-width="1.0" d="M 106.0, 303.0L245.55676330216377, 303.0"/>
<path fill="none" stroke="#000000" stroke-width="1.0" d="M 353.2156328496218, 303.0L420.67922777728853, 303.0"/>
<path fill="none" stroke="#000000" stroke-width="1.0" d="M 469.29032716383193, 303.0L643.8355081850369, 303.0"/>
<path fill="none" stroke="#000000" stroke-width="1.0" d="M 689.92982128995, 303.0L707.2968326291297, 303.0"/>
<path fill="none" stroke="#000000" stroke-width="1.0" d="M 745.3395523199479, 303.0L757.773370107098, 303.0"/>
<path fill="none" stroke="#000000" stroke-width="1.0" d="M 772.002750598652, 303.0L815.1240774504109, 303.0"/>
<path fill="none" stroke="#000000" stroke-width="1.0" d="M 953.0513421040534, 303.0L1174.0, 303.0"/>
<path fill="none" stroke="#000000" stroke-width="1.0" d="M 106.0, 309.0L247.2103377786232, 309.0"/>
<path fill="none" stroke="#000000" stroke-width="1.0" d="M 349.44815531497886, 309.0L424.2929979096878, 309.0"/>
<path fill="none" stroke="#000000" stroke-width="1.0" d="M 469.1933465904476, 309.0L714.5280072491598, 309.0"/>
<path fill="none" stroke="#000000" stroke-width="1.0" d="M 760.726296826775, 309.0L806.6051900605939, 309.0"/>
<path fill="none" stroke="#000000" stroke-width="1.0" d="M 956.1522782788202, 309.0L1174.0, 309.0"/>
<path fill="none" stroke="#000000" stroke-width="1.0" d="M 106.0, 315.0L248.9280388783458, 315.0"/>
<path fill="none" stroke="#000000" stroke-width="1.0" d="M 349.2976276090508, 315.0L429.9099658833554, 315.0"/>
<path fill="none" stroke="#000000" stroke-width="1.0" d="M 465.1353391894352, 315.0L722.4230977070097, 315.0"/>
<path fill="none" stroke="#000000" stroke-width="1.0" d="M 778.0999999999997, 315.0L796.4969803597988, 315.0"/>
<path fill="none" stroke="#000000" stroke-width="1.0" d="M 959.7999999999997, 315.0L1174.0, 315.0"/>
<path fill="none" stroke="#000000" stroke-width="1.0" d="M 106.0, 321.0L250.7699185820823, 321.0"/>
<path fill="none" stroke="#000000" stroke-width="1.0" d="M 350.3989755158775, 321.0L730.8677487215192, 321.0"/>
<path fill="none" stroke="#000000" stroke-width="1.0" d="M 963.1946160398032, 321.0L1174.0, 321.0"/>
<path fill="none" stroke="#000000" stroke-width="1.0" d="M 106.0, 327.0L252.80097890453803, 327.0"/>
<path fill="none" stroke="#000000" stroke-width="1.0" d="M 351.506117955138, 327.0L702.2885739817973, 327.0"/>
<path fill="none" stroke="#000000" stroke-width="1.0" d="M 710.1188999549096, 327.0L739.3497468968927, 327.0"/>
<path fill="none" stroke="#000000" stroke-width="1.0" d="M 965.6970889551881, 327.0L1174.0, 327.0"/>
<path fill="none" stroke="#000000" stroke-width="1.0" d="M 106.0, 333.0L255.09445519713404, 333.0"/>
<path fill="none" stroke="#000000" stroke-width="1.0" d="M 352.665049789273, 333.0L706.5653272147711, 333.0"/>
<path fill="none" stroke="#000000" stroke-width="1.0" d="M 715.193438420845, 333.0L747.8516439545292, 333.0"/>
<path fill="none" stroke="#000000" stroke-width="1.0" d="M 967.5986137432836, 333.0L1174.0, 333.0"/>
<path fill="none" stroke="#000000" stroke-width="1.0" d="M 106.0, 339.0L258.2572852562548, 339.0"/>
<path fill="none" stroke="#000000" stroke-width="1.0" d="M 353.92102481621555, 339.0L710.8527181551249, 339.0"/>
<path fill="none" stroke="#000000" stroke-width="1.0" d="M 720.2469720856825, 339.0L756.3556341130075, 339.0"/>
<path fill="none" stroke="#000000" stroke-width="1.0" d="M 969.1260253682974, 339.0L1174.0, 339.0"/>
<path fill="none" stroke="#000000" stroke-width="1.0" d="M 106.0, 345.0L263.6356212534928, 345.0"/>
<path fill="none" stroke="#000000" stroke-width="1.0" d="M 355.3702387313277, 345.0L705.7518070660337, 345.0"/>
<path fill="none" stroke="#000000" stroke-width="1.0" d="M 725.2489130376125, 345.0L764.8438266460585, 345.0"/>
<path fill="none" stroke="#000000" stroke-width="1.0" d="M 970.4722056602434, 345.0L1174.0, 345.0"/>
<path fill="none" stroke="#000000" stroke-width="1.0" d="M 106.0, 351.0L274.9379421961853, 351.0"/>
<path fill="none" stroke="#000000" stroke-width="1.0" d="M 357.6115067887933, 351.0L666.2671595513898, 351.0"/>
<path fill="none" stroke="#000000" stroke-width="1.0" d="M 732.9762061358919, 351.0L773.2985226547031, 351.0"/>
<path fill="none" stroke="#000000" stroke-width="1.0" d="M 971.8165831261788, 351.0L1174.0, 351.0"/>
<path fill="none" stroke="#000000" stroke-width="1.0" d="M 106.0, 357.0L318.8165416997505, 357.0"/>
<path fill="none" stroke="#000000" stroke-width="1.0" d="M 362.8140426742667, 357.0L661.632094694118, 357.0"/>
<path fill="none" stroke="#000000" stroke-width="1.0" d="M 742.8811203632129, 357.0L781.7024841684408, 357.0"/>
<path fill="none" stroke="#000000" stroke-width="1.0" d="M 973.1204805385726, 357.0L1174.0, 357.0"/>
<path fill="none" stroke="#000000" stroke-width="1.0" d="M 106.0, 363.0L324.1046638714944, 363.0"/>
<path fill="none" stroke="#000000" stroke-width="1.0" d="M 380.343073733594, 363.0L659.2707195249438, 363.0"/>
<path fill="none" stroke="#000000" stroke-width="1.0" d="M 756.7333441533323, 363.0L787.0064036708256, 363.0"/>
<path fill="none" stroke="#000000" stroke-width="1.0" d="M 974.2750879027853, 363.0L1174.0, 363.0"/>
<path fill="none" stroke="#000000" stroke-width="1.0" d="M 106.0, 369.0L327.1814630824327, 369.0"/>
<path fill="none" stroke="#000000" stroke-width="1.0" d="M 384.6610286729368, 369.0L658.6615548874606, 369.0"/>
<path fill="none" stroke="#000000" stroke-width="1.0" d="M 975.3170557554434, 369.0L1174.0, 369.0"/>
<path fill="none" stroke="#000000" stroke-width="1.0" d="M 106.0, 375.0L329.0886106522731, 375.0"/>
<path fill="none" stroke="#000000" stroke-width="1.0" d="M 382.3450241257918, 375.0L663.3471673211726, 375.0"/>
<path fill="none" stroke="#000000" stroke-width="1.0" d="M 976.2818261181903, 375.0L1174.0, 375.0"/>
<path fill="none" stroke="#000000" stroke-width="1.0" d="M 106.0, 381.0L331.0084543221949, 381.0"/>
<path fill="none" stroke="#000000" stroke-width="1.0" d="M 380.03372221943926, 381.0L671.1155785179976, 381.0"/>
<path fill="none" stroke="#000000" stroke-width="1.0" d="M 977.2040165549604, 381.0L1174.0, 381.0"/>
<path fill="none" stroke="#000000" stroke-width="1.0" d="M 106.0, 387.0L335.7561487257867, 387.0"/>
<path fill="none" stroke="#000000" stroke-width="1.0" d="M 357.9543837784231, 387.0L685.9875195474202, 387.0"/>
<path fill="none" stroke="#000000" stroke-width="1.0" d="M 708.784983963231, 387.0L733.1677773937645, 387.0"/>
<path fill="none" stroke="#000000" stroke-width="1.0" d="M 978.1177800125234, 387.0L1174.0, 387.0"/>
<path fill="none" stroke="#000000" stroke-width="1.0" d="M 106.0, 393.0L682.8201895043728, 393.0"/>
<path fill="none" stroke="#000000" stroke-width="1.0" d="M 697.4701806396755, 393.0L732.8078930296966, 393.0"/>
<path fill="none" stroke="#000000" stroke-width="1.0" d="M 979.057151144181, 393.0L1174.0, 393.0"/>
<path fill="none" stroke="#000000" stroke-width="1.0" d="M 106.0, 399.0L710.5215962587506, 399.0"/>
<path fill="none" stroke="#000000" stroke-width="1.0" d="M 979.7562342772176, 399.0L1174.0, 399.0"/>
<path fill="none" stroke="#000000" stroke-width="1.0" d="M 106.0, 405.0L698.4281279106035, 405.0"/>
<path fill="none" stroke="#000000" stroke-width="1.0" d="M 758.902804117484, 405.0L786.1724845386975, 405.0"/>
<path fill="none" stroke="#000000" stroke-width="1.0" d="M 979.7968861411995, 405.0L1174.0, 405.0"/>
<path fill="none" stroke="#000000" stroke-width="1.0" d="M 106.0, 411.0L693.069310901478, 411.0"/>
<path fill="none" stroke="#000000" stroke-width="1.0" d="M 731.1455060515241, 411.0L793.1573324898445, 411.0"/>
<path fill="none" stroke="#000000" stroke-width="1.0" d="M 979.8935387054808, 411.0L1174.0, 411.0"/>
<path fill="none" stroke="#000000" stroke-width="1.0" d="M 106.0, 417.0L690.0594164349527, 417.0"/>
<path fill="none" stroke="#000000" stroke-width="1.0" d="M 712.8681439450108, 417.0L795.7622195082147, 417.0"/>
<path fill="none" stroke="#000000" stroke-width="1.0" d="M 980.1704692871344, 417.0L1174.0, 417.0"/>
<path fill="none" stroke="#000000" stroke-width="1.0" d="M 106.0, 423.0L688.1610338433293, 423.0"/>
<path fill="none" stroke="#000000" stroke-width="1.0" d="M 706.8110388139728, 423.0L796.6620722481039, 423.0"/>
<path fill="none" stroke="#000000" stroke-width="1.0" d="M 980.6917274961892, 423.0L1174.0, 423.0"/>
<path fill="none" stroke="#000000" stroke-width="1.0" d="M 106.0, 429.0L686.349332622652, 429.0"/>
<path fill="none" stroke="#000000" stroke-width="1.0" d="M 703.8961321278101, 429.0L797.0766138886419, 429.0"/>
<path fill="none" stroke="#000000" stroke-width="1.0" d="M 981.5251631726743, 429.0L1174.0, 429.0"/>
<path fill="none" stroke="#000000" stroke-width="1.0" d="M 106.0, 435.0L683.8933866523023, 435.0"/>
<path fill="none" stroke="#000000" stroke-width="1.0" d="M 702.3488321283498, 435.0L797.5672800083577, 435.0"/>
<path fill="none" stroke="#000000" stroke-width="1.0" d="M 806.3913194991541, 435.0L813.2448596554264, 435.0"/>
<path fill="none" stroke="#000000" stroke-width="1.0" d="M 982.7431135750483, 435.0L1174.0, 435.0"/>
<path fill="none" stroke="#000000" stroke-width="1.0" d="M 106.0, 441.0L679.7826752509441, 441.0"/>
<path fill="none" stroke="#000000" stroke-width="1.0" d="M 700.3374911425033, 441.0L798.2403335426336, 441.0"/>
<path fill="none" stroke="#000000" stroke-width="1.0" d="M 807.674954394715, 441.0L815.1585753465592, 441.0"/>
<path fill="none" stroke="#000000" stroke-width="1.0" d="M 984.4232070297542, 441.0L1174.0, 441.0"/>
<path fill="none" stroke="#000000" stroke-width="1.0" d="M 106.0, 447.0L642.6740321892814, 447.0"/>
<path fill="none" stroke="#000000" stroke-width="1.0" d="M 666.088586667207, 447.0L671.1134831162233, 447.0"/>
<path fill="none" stroke="#000000" stroke-width="1.0" d="M 697.5092090363083, 447.0L799.139845106837, 447.0"/>
<path fill="none" stroke="#000000" stroke-width="1.0" d="M 808.9674776704276, 447.0L817.0786695287409, 447.0"/>
<path fill="none" stroke="#000000" stroke-width="1.0" d="M 986.6493120087205, 447.0L1174.0, 447.0"/>
<path fill="none" stroke="#000000" stroke-width="1.0" d="M 106.0, 453.0L625.4401468120443, 453.0"/>
<path fill="none" stroke="#000000" stroke-width="1.0" d="M 693.9185438164309, 453.0L800.1029655235493, 453.0"/>
<path fill="none" stroke="#000000" stroke-width="1.0" d="M 810.3411950692357, 453.0L819.0043417690258, 453.0"/>
<path fill="none" stroke="#000000" stroke-width="1.0" d="M 989.5105184094847, 453.0L1174.0, 453.0"/>
<path fill="none" stroke="#000000" stroke-width="1.0" d="M 106.0, 459.0L616.654726606263, 459.0"/>
<path fill="none" stroke="#000000" stroke-width="1.0" d="M 689.6802600739995, 459.0L801.1795927672293, 459.0"/>
<path fill="none" stroke="#000000" stroke-width="1.0" d="M 811.8743181997382, 459.0L820.9347341794295, 459.0"/>
<path fill="none" stroke="#000000" stroke-width="1.0" d="M 992.338048409532, 459.0L1174.0, 459.0"/>
<path fill="none" stroke="#000000" stroke-width="1.0" d="M 106.0, 465.0L610.3997718629648, 465.0"/>
<path fill="none" stroke="#000000" stroke-width="1.0" d="M 684.9807889899457, 465.0L802.4509214924706, 465.0"/>
<path fill="none" stroke="#000000" stroke-width="1.0" d="M 813.6672001861397, 465.0L822.8689431515123, 465.0"/>
<path fill="none" stroke="#000000" stroke-width="1.0" d="M 994.448340106441, 465.0L1174.0, 465.0"/>
<path fill="none" stroke="#000000" stroke-width="1.0" d="M 106.0, 471.0L605.5282479055139, 471.0"/>
<path fill="none" stroke="#000000" stroke-width="1.0" d="M 679.6178308849236, 471.0L804.006886115552, 471.0"/>
<path fill="none" stroke="#000000" stroke-width="1.0" d="M 815.7788964853266, 471.0L824.8060327327615, 471.0"/>
<path fill="none" stroke="#000000" stroke-width="1.0" d="M 995.7249463929504, 471.0L1174.0, 471.0"/>
<path fill="none" stroke="#000000" stroke-width="1.0" d="M 106.0, 477.0L601.5670166590443, 477.0"/>
<path fill="none" stroke="#000000" stroke-width="1.0" d="M 631.0539082581438, 477.0L805.9511502638237, 477.0"/>
<path fill="none" stroke="#000000" stroke-width="1.0" d="M 818.232139859283, 477.0L826.745049104985, 477.0"/>
<path fill="none" stroke="#000000" stroke-width="1.0" d="M 996.0766362495478, 477.0L1174.0, 477.0"/>
<path fill="none" stroke="#000000" stroke-width="1.0" d="M 106.0, 483.0L598.265937579906, 483.0"/>
<path fill="none" stroke="#000000" stroke-width="1.0" d="M 626.8268882378462, 483.0L808.408125035885, 483.0"/>
<path fill="none" stroke="#000000" stroke-width="1.0" d="M 995.9661400426178, 483.0L1174.0, 483.0"/>
<path fill="none" stroke="#000000" stroke-width="1.0" d="M 106.0, 489.0L595.4736230280841, 489.0"/>
<path fill="none" stroke="#000000" stroke-width="1.0" d="M 625.3195571266414, 489.0L811.5335454340432, 489.0"/>
<path fill="none" stroke="#000000" stroke-width="1.0" d="M 997.1612659390191, 489.0L1174.0, 489.0"/>
<path fill="none" stroke="#000000" stroke-width="1.0" d="M 106.0, 495.0L593.4822889723964, 495.0"/>
<path fill="none" stroke="#000000" stroke-width="1.0" d="M 625.8766557829193, 495.0L815.5315141884761, 495.0"/>
<path fill="none" stroke="#000000" stroke-width="1.0" d="M 996.3834289450474, 495.0L1174.0, 495.0"/>
<path fill="none" stroke="#000000" stroke-width="1.0" d="M 106.0, 501.0L594.1771650165357, 501.0"/>
<path fill="none" stroke="#000000" stroke-width="1.0" d="M 628.5427393915645, 501.0L820.7387865803546, 501.0"/>
<path fill="none" stroke="#000000" stroke-width="1.0" d="M 995.5669163185743, 501.0L1174.0, 501.0"/>
<path fill="none" stroke="#000000" stroke-width="1.0" d="M 106.0, 507.0L596.8906786033308, 507.0"/>
<path fill="none" stroke="#000000" stroke-width="1.0" d="M 633.4574954534181, 507.0L829.0859260162272, 507.0"/>
<path fill="none" stroke="#000000" stroke-width="1.0" d="M 994.7941506821853, 507.0L1174.0, 507.0"/>
<path fill="none" stroke="#000000" stroke-width="1.0" d="M 106.0, 513.0L603.9577075645572, 513.0"/>
<path fill="none" stroke="#000000" stroke-width="1.0" d="M 640.8941149629163, 513.0L850.965513582419, 513.0"/>
<path fill="none" stroke="#000000" stroke-width="1.0" d="M 994.1590259741594, 513.0L1174.0, 513.0"/>
<path fill="none" stroke="#000000" stroke-width="1.0" d="M 106.0, 519.0L614.9991890678895, 519.0"/>
<path fill="none" stroke="#000000" stroke-width="1.0" d="M 647.531975058991, 519.0L857.2658002181479, 519.0"/>
<path fill="none" stroke="#000000" stroke-width="1.0" d="M 993.7494738137761, 519.0L1174.0, 519.0"/>
<path fill="none" stroke="#000000" stroke-width="1.0" d="M 106.0, 525.0L617.8024310811236, 525.0"/>
<path fill="none" stroke="#000000" stroke-width="1.0" d="M 647.7123638206223, 525.0L857.104966539213, 525.0"/>
<path fill="none" stroke="#000000" stroke-width="1.0" d="M 993.1713983392674, 525.0L1174.0, 525.0"/>
<path fill="none" stroke="#000000" stroke-width="1.0" d="M 106.0, 531.0L618.0920733663515, 531.0"/>
<path fill="none" stroke="#000000" stroke-width="1.0" d="M 647.040173778817, 531.0L841.5124999999995, 531.0"/>
<path fill="none" stroke="#000000" stroke-width="1.0" d="M 992.203718653839, 531.0L1174.0, 531.0"/>
<path fill="none" stroke="#000000" stroke-width="1.0" d="M 106.0, 537.0L617.993404639047, 537.0"/>
<path fill="none" stroke="#000000" stroke-width="1.0" d="M 645.3420426512157, 537.0L814.0871219044159, 537.0"/>
<path fill="none" stroke="#000000" stroke-width="1.0" d="M 990.8968843384484, 537.0L1174.0, 537.0"/>
<path fill="none" stroke="#000000" stroke-width="1.0" d="M 106.0, 543.0L617.3017161691945, 543.0"/>
<path fill="none" stroke="#000000" stroke-width="1.0" d="M 642.4588773049626, 543.0L800.8638062571409, 543.0"/>
<path fill="none" stroke="#000000" stroke-width="1.0" d="M 989.3116586042681, 543.0L1174.0, 543.0"/>
<path fill="none" stroke="#000000" stroke-width="1.0" d="M 106.0, 549.0L615.5301506952305, 549.0"/>
<path fill="none" stroke="#000000" stroke-width="1.0" d="M 639.1057180772486, 549.0L794.2127967987797, 549.0"/>
<path fill="none" stroke="#000000" stroke-width="1.0" d="M 987.5174759601794, 549.0L1174.0, 549.0"/>
<path fill="none" stroke="#000000" stroke-width="1.0" d="M 106.0, 555.0L611.7167453143591, 555.0"/>
<path fill="none" stroke="#000000" stroke-width="1.0" d="M 636.2387424655985, 555.0L790.8, 555.0"/>
<path fill="none" stroke="#000000" stroke-width="1.0" d="M 985.5899520388782, 555.0L1174.0, 555.0"/>
<path fill="none" stroke="#000000" stroke-width="1.0" d="M 106.0, 561.0L605.8902487891079, 561.0"/>
<path fill="none" stroke="#000000" stroke-width="1.0" d="M 633.6341606858973, 561.0L790.8, 561.0"/>
<path fill="none" stroke="#000000" stroke-width="1.0" d="M 983.3259945101113, 561.0L1174.0, 561.0"/>
<path fill="none" stroke="#000000" stroke-width="1.0" d="M 106.0, 567.0L601.6062903402567, 567.0"/>
<path fill="none" stroke="#000000" stroke-width="1.0" d="M 631.1007419818357, 567.0L790.8, 567.0"/>
<path fill="none" stroke="#000000" stroke-width="1.0" d="M 978.8892721963176, 567.0L1174.0, 567.0"/>
<path fill="none" stroke="#000000" stroke-width="1.0" d="M 106.0, 573.0L598.2929068825904, 573.0"/>
<path fill="none" stroke="#000000" stroke-width="1.0" d="M 628.4581514770107, 573.0L794.5398441146488, 573.0"/>
<path fill="none" stroke="#000000" stroke-width="1.0" d="M 967.858071901096, 573.0L1174.0, 573.0"/>
<path fill="none" stroke="#000000" stroke-width="1.0" d="M 106.0, 579.0L595.4803692809699, 579.0"/>
<path fill="none" stroke="#000000" stroke-width="1.0" d="M 625.4841028232363, 579.0L798.1238558078521, 579.0"/>
<path fill="none" stroke="#000000" stroke-width="1.0" d="M 858.9442842002363, 579.0L882.2602611085384, 579.0"/>
<path fill="none" stroke="#000000" stroke-width="1.0" d="M 946.0799997372641, 579.0L1174.0, 579.0"/>
<path fill="none" stroke="#000000" stroke-width="1.0" d="M 106.0, 585.0L592.8426566593394, 585.0"/>
<path fill="none" stroke="#000000" stroke-width="1.0" d="M 621.6297744651368, 585.0L801.4035147010084, 585.0"/>
<path fill="none" stroke="#000000" stroke-width="1.0" d="M 857.8208717516637, 585.0L1174.0, 585.0"/>
<path fill="none" stroke="#000000" stroke-width="1.0" d="M 106.0, 591.0L590.1180713174833, 591.0"/>
<path fill="none" stroke="#000000" stroke-width="1.0" d="M 615.8460554281786, 591.0L803.5685603603026, 591.0"/>
<path fill="none" stroke="#000000" stroke-width="1.0" d="M 861.0266251614655, 591.0L1174.0, 591.0"/>
<path fill="none" stroke="#000000" stroke-width="1.0" d="M 106.0, 597.0L587.0667387237393, 597.0"/>
<path fill="none" stroke="#000000" stroke-width="1.0" d="M 599.4309803901674, 597.0L804.4121119615731, 597.0"/>
<path fill="none" stroke="#000000" stroke-width="1.0" d="M 864.8416823881973, 597.0L1174.0, 597.0"/>
<path fill="none" stroke="#000000" stroke-width="1.0" d="M 106.0, 603.0L804.9535219386266, 603.0"/>
<path fill="none" stroke="#000000" stroke-width="1.0" d="M 870.6762150646315, 603.0L1174.0, 603.0"/>
<path fill="none" stroke="#000000" stroke-width="1.0" d="M 106.0, 609.0L805.3148148148148, 609.0"/>
<path fill="none" stroke="#000000" stroke-width="1.0" d="M 877.4074982207018, 609.0L1174.0, 609.0"/>
<path fill="none" stroke="#000000" stroke-width="1.0" d="M 106.0, 615.0L805.5425362353504, 615.0"/>
<path fill="none" stroke="#000000" stroke-width="1.0" d="M 836.735619985436, 615.0L845.0921889162928, 615.0"/>
<path fill="none" stroke="#000000" stroke-width="1.0" d="M 884.5106559771507, 615.0L1174.0, 615.0"/>
<path fill="none" stroke="#000000" stroke-width="1.0" d="M 106.0, 621.0L805.6819168317062, 621.0"/>
<path fill="none" stroke="#000000" stroke-width="1.0" d="M 833.4956505222004, 621.0L854.8247788436327, 621.0"/>
<path fill="none" stroke="#000000" stroke-width="1.0" d="M 891.753280225586, 621.0L1174.0, 621.0"/>
<path fill="none" stroke="#000000" stroke-width="1.0" d="M 106.0, 627.0L805.7776381789156, 627.0"/>
<path fill="none" stroke="#000000" stroke-width="1.0" d="M 834.0235041054422, 627.0L861.6294541479159, 627.0"/>
<path fill="none" stroke="#000000" stroke-width="1.0" d="M 898.8784713741522, 627.0L1174.0, 627.0"/>
<path fill="none" stroke="#000000" stroke-width="1.0" d="M 106.0, 633.0L805.8745838121847, 633.0"/>
<path fill="none" stroke="#000000" stroke-width="1.0" d="M 834.5600398024301, 633.0L865.8522333930864, 633.0"/>
<path fill="none" stroke="#000000" stroke-width="1.0" d="M 905.1885843790895, 633.0L1174.0, 633.0"/>
<path fill="none" stroke="#000000" stroke-width="1.0" d="M 106.0, 639.0L806.0186110843379, 639.0"/>
<path fill="none" stroke="#000000" stroke-width="1.0" d="M 835.1060886940943, 639.0L864.699560935036, 639.0"/>
<path fill="none" stroke="#000000" stroke-width="1.0" d="M 910.2351344012884, 639.0L1174.0, 639.0"/>
<path fill="none" stroke="#000000" stroke-width="1.0" d="M 106.0, 645.0L803.4054708431348, 645.0"/>
<path fill="none" stroke="#000000" stroke-width="1.0" d="M 835.6621432428824, 645.0L860.430259946783, 645.0"/>
<path fill="none" stroke="#000000" stroke-width="1.0" d="M 909.3165729900481, 645.0L1174.0, 645.0"/>
<path fill="none" stroke="#000000" stroke-width="1.0" d="M 106.0, 651.0L793.1605161923665, 651.0"/>
<path fill="none" stroke="#000000" stroke-width="1.0" d="M 836.2282554430249, 651.0L852.808572084564, 651.0"/>
<path fill="none" stroke="#000000" stroke-width="1.0" d="M 906.2264034751321, 651.0L1174.0, 651.0"/>
<path fill="none" stroke="#000000" stroke-width="1.0" d="M 106.0, 657.0L757.0619809780768, 657.0"/>
<path fill="none" stroke="#000000" stroke-width="1.0" d="M 901.2575221622833, 657.0L1174.0, 657.0"/>
<path fill="none" stroke="#000000" stroke-width="1.0" d="M 106.0, 663.0L749.0425596277129, 663.0"/>
<path fill="none" stroke="#000000" stroke-width="1.0" d="M 891.8174596268263, 663.0L1174.0, 663.0"/>
<path fill="none" stroke="#000000" stroke-width="1.0" d="M 106.0, 669.0L747.0441364563138, 669.0"/>
<path fill="none" stroke="#000000" stroke-width="1.0" d="M 881.430538312021, 669.0L1174.0, 669.0"/>
<path fill="none" stroke="#000000" stroke-width="1.0" d="M 106.0, 675.0L748.676434976972, 675.0"/>
<path fill="none" stroke="#000000" stroke-width="1.0" d="M 870.7948310214514, 675.0L1174.0, 675.0"/>
<path fill="none" stroke="#000000" stroke-width="1.0" d="M 106.0, 681.0L750.3212149467907, 681.0"/>
<path fill="none" stroke="#000000" stroke-width="1.0" d="M 834.8968211390014, 681.0L1174.0, 681.0"/>
<path fill="none" stroke="#000000" stroke-width="1.0" d="M 106.0, 687.0L756.9820067999381, 687.0"/>
<path fill="none" stroke="#000000" stroke-width="1.0" d="M 815.9187838599348, 687.0L1174.0, 687.0"/>
<path fill="none" stroke="#000000" stroke-width="1.0" d="M 106.0, 693.0L771.0188844357431, 693.0"/>
<path fill="none" stroke="#000000" stroke-width="1.0" d="M 796.7809570182845, 693.0L1174.0, 693.0"/>
<path fill="none" stroke="#000000" stroke-width="1.0" d="M 106.0, 699.0L1174.0, 699.0"/>
<path fill="none" stroke="#000000" stroke-width="1.0" d="M 106.0, 705.0L1174.0, 705.0"/>
<path fill="none" stroke="#000000" stroke-width="1.0" d="M 106.0, 711.0L1174.0, 711.0"/>
<path fill="none" stroke="#000000" stroke-width="1.0" d="M 106.0, 717.0L1174.0, 717.0"/>
</g>
</svg>